<svg id="Capa_1" data-name="Capa 1" xmlns="http://www.w3.org/2000/svg" viewBox="0 0 60 96.123"><defs><style>.cls-1{fill:#fff;}</style></defs><path class="cls-1" d="M54.0275.02,41.5625,0c-14.004,0-23.054,9.285-23.054,23.656V34.563H5.9755a1.96,1.96,0,0,0-1.96,1.961V52.327a1.96,1.96,0,0,0,1.96,1.96h12.533V94.163a1.9593,1.9593,0,0,0,1.96,1.96h16.352a1.96,1.96,0,0,0,1.96-1.96V54.287h14.654a1.9593,1.9593,0,0,0,1.96-1.96l.006-15.803a1.9615,1.9615,0,0,0-1.961-1.961H38.7805V25.317c0-4.444,1.059-6.7,6.848-6.7l8.397-.003a1.96,1.96,0,0,0,1.959-1.96V1.98A1.9606,1.9606,0,0,0,54.0275.02Z"/></svg>