<svg xmlns="http://www.w3.org/2000/svg" width="33.458" height="31.981" viewBox="0 0 33.458 31.981">
  <g id="Group_1" data-name="Group 1" transform="translate(-189.028 -116.047)">
    <path id="Path_3" data-name="Path 3" d="M196.62,148.028V126.451h-7.169v21.577ZM193.037,123.5a3.993,3.993,0,1,0-.048,0Z" transform="translate(0 0)" fill="#fff" fill-rule="evenodd"/>
    <path id="Path_4" data-name="Path 4" d="M195.23,143.439H202.4V131.39a4.817,4.817,0,0,1,.237-1.751,3.919,3.919,0,0,1,3.677-2.623c2.6,0,3.634,1.978,3.634,4.88v11.543h7.173V131.067c0-6.63-3.541-9.712-8.258-9.712a7.146,7.146,0,0,0-6.511,3.634h.048v-3.127H195.23c.1,2.023,0,21.577,0,21.577Z" transform="translate(5.362 4.589)" fill="#fff" fill-rule="evenodd"/>
  </g>
</svg>
