<svg xmlns="http://www.w3.org/2000/svg" xmlns:xlink="http://www.w3.org/1999/xlink" width="383.985" height="278.613" viewBox="0 0 383.985 278.613">
  <defs>
    <clipPath id="clip-path">
      <path id="Rectangle_236" data-name="Rectangle 236" d="M76.107,0H143.8A76.107,76.107,0,0,1,219.9,76.107V257.953a0,0,0,0,1,0,0H0a0,0,0,0,1,0,0V76.107A76.107,76.107,0,0,1,76.107,0Z" fill="#62b7e8" stroke="#400f5e" stroke-linecap="round" stroke-linejoin="round" stroke-width="1.25"/>
    </clipPath>
    <clipPath id="clip-path-2">
      <path id="Path_1974" data-name="Path 1974" d="M104.654,296.534s-10-47.427-9.369-63.378c.416-10.558,6.449-15.265,10.48-17.241a12.871,12.871,0,0,1,5.694-1.306H206.3s9.958,2.641,12.674,16.6,5.117,65.325,5.117,65.325Z" transform="translate(-95.256 -214.609)" fill="#fff" stroke="#400f5e" stroke-linecap="round" stroke-linejoin="round" stroke-width="1.25"/>
    </clipPath>
    <clipPath id="clip-path-3">
      <path id="Path_1979" data-name="Path 1979" d="M174.823,212.671s-13.416-2.661-15.035-19.374,9.716-23.42,15.035-25.271S185,169.183,185,169.183s1.084-4.164,6.9-5.551,7.9,3.238,7.9,3.238,5.039-4.1,19.47,5.8c11.8,8.1,10.832,18.252,4.123,27.273-5.108,6.871-11.334,8.1-11.334,8.1Z" transform="translate(-159.631 -163.372)" fill="#fff" stroke="#400f5e" stroke-linecap="round" stroke-linejoin="round" stroke-width="1.25"/>
    </clipPath>
    <clipPath id="clip-path-4">
      <path id="Path_1994" data-name="Path 1994" d="M244.491,248.384a80.3,80.3,0,0,0-20.141-22.319c-6.027-4.533-13.41-9.159-20.3-10.97-15.266-4.016-19.083-4.859-35.044,0s-26.37,13.878-34,21.858A60.584,60.584,0,0,0,123.554,255l26.024,16.655L147.5,294.206h87.785l-2.66-20.934,18.968-12.724S248.513,254.954,244.491,248.384Z" transform="translate(-123.554 -211.759)" fill="#fff" stroke="#400f5e" stroke-linecap="round" stroke-linejoin="round" stroke-width="1.25"/>
    </clipPath>
    <clipPath id="clip-path-6">
      <path id="Path_1986" data-name="Path 1986" d="M163.093,212.456s1.767,10.321,8.362,18.349,12.331,7.17,17.206,3.729,8.316-12.331,8.316-17.493-22.217-7.472-33.884-4.586" transform="translate(-163.093 -211.198)" fill="#f7b5a9" stroke="#400f5e" stroke-linecap="round" stroke-linejoin="round" stroke-width="1.25"/>
    </clipPath>
    <clipPath id="clip-path-7">
      <path id="Path_2003" data-name="Path 2003" d="M213.406,194.611s-2.408,20.82-9.694,27.065S191.2,226.6,191.2,226.6l-1.718,10.166s-1.735,7.634-8.327,7.287-12.5-14.573-12.5-14.573l4.869-17-1.331-3.287s-8.154-2.67-7.228-10.071,6.592-2.257,6.592-2.257,3.355-2.949,3.47-6.766a17.418,17.418,0,0,0-.695-6.014,12.805,12.805,0,0,0,7.172,3.008,5.861,5.861,0,0,0,5.436-3.008,12.593,12.593,0,0,0,8.905,6.014,8.471,8.471,0,0,0,9.138-4.048,22.414,22.414,0,0,0,4.395,2.66,17.218,17.218,0,0,0,4.857,1.388Z" transform="translate(-164.893 -184.086)" fill="#fff" stroke="#400f5e" stroke-linecap="round" stroke-linejoin="round" stroke-width="1.25"/>
    </clipPath>
    <clipPath id="clip-path-8">
      <path id="Path_2007" data-name="Path 2007" d="M223.048,273.025c-2.082-8.675-7.148-26.512-7.148-26.512l-16.851,11.3,2.66,20.934H224.8A49.392,49.392,0,0,1,223.048,273.025Z" transform="translate(-199.048 -246.513)" fill="#fff" stroke="#400f5e" stroke-linecap="round" stroke-linejoin="round" stroke-width="0.75"/>
    </clipPath>
    <clipPath id="clip-path-9">
      <path id="Path_2012" data-name="Path 2012" d="M188.23,281.607h77.639l9.121-53.762H197.352Z" transform="translate(-188.23 -227.845)" fill="#fff" stroke="#400f5e" stroke-linecap="round" stroke-linejoin="round" stroke-width="1.25"/>
    </clipPath>
    <clipPath id="clip-path-10">
      <path id="Path_2016" data-name="Path 2016" d="M115.622,285.97H91.876c-2.408,0-4.481-2.015-4.951-4.812l-4.445-26.484c-.621-3.7,1.768-7.143,4.951-7.143h32.637c3.183,0,5.572,3.446,4.951,7.143l-4.445,26.484C120.1,283.955,118.031,285.97,115.622,285.97Z" transform="translate(-82.381 -247.531)" fill="#fff" stroke="#400f5e" stroke-linecap="round" stroke-linejoin="round" stroke-width="1.25"/>
    </clipPath>
  </defs>
  <g id="Working_9" data-name="Working 9" transform="translate(-52.684 -92.113)" opacity="0.702">
    <path id="Path_1965" data-name="Path 1965" d="M52.84,362.241s-5.185-147.253,44.1-183.654,95.216,19.479,130.925,17.617,30.681-59.918,107.239-85.375,113.81,7.822,97.977,78.264-38.894,172.893-38.894,172.893Z" transform="translate(0 7.473)" fill="#f2fafc"/>
    <g id="Group_1031" data-name="Group 1031" transform="translate(124.179 92.738)">
      <path id="Path_19385" data-name="Path 19385" d="M140,0h3.8A76.107,76.107,0,0,1,219.9,76.107V257.953H0V140C0,84.948,78.139,14.374,78.139,14.374S117.732,0,140,0Z" fill="#959596"/>
      <g id="Group_1030" data-name="Group 1030" clip-path="url(#clip-path)">
        <line id="Line_102" data-name="Line 102" y2="78.66" transform="translate(175.63 16.003)" fill="none" stroke="#fff" stroke-linecap="round" stroke-linejoin="round" stroke-width="1.25"/>
        <path id="Path_1967" data-name="Path 1967" d="M255.385,86.354s-9.62,40.25-69.8,53.463c-30.541,6.706-51.212,48.2-49.558,76.074s-27.338,52.684-42.537,48.822-12-144.7,42.537-171.092S255.385,86.354,255.385,86.354Z" transform="translate(-109.528 -95.343)" fill="#c3c3c3"/>
        <rect id="Rectangle_233" data-name="Rectangle 233" width="231.846" height="7.322" transform="translate(-7.224 77.645)" fill="#fff" stroke="#400f5e" stroke-linecap="round" stroke-linejoin="round" stroke-width="1.25"/>
        <rect id="Rectangle_234" data-name="Rectangle 234" width="85.326" height="7.322" transform="translate(115.295 -7.731) rotate(90)" fill="#fff" stroke="#400f5e" stroke-linecap="round" stroke-linejoin="round" stroke-width="1.25"/>
        <g id="Group_1027" data-name="Group 1027" transform="translate(164.928 94.867)">
          <path id="Rectangle_235" data-name="Rectangle 235" d="M3.9,0h3.47a3.9,3.9,0,0,1,3.9,3.9V13.22a0,0,0,0,1,0,0H0a0,0,0,0,1,0,0V3.9A3.9,3.9,0,0,1,3.9,0Z" transform="translate(5.186)" fill="#fff"/>
          <circle id="Ellipse_323" data-name="Ellipse 323" cx="10.779" cy="10.779" r="10.779" transform="translate(0 9.141)" fill="#fff"/>
        </g>
        <g id="Group_1029" data-name="Group 1029" transform="translate(-9.991 179.28)">
          <path id="Path_1968" data-name="Path 1968" d="M104.654,296.534s-10-47.427-9.369-63.378c.416-10.558,6.449-15.265,10.48-17.241a12.871,12.871,0,0,1,5.694-1.306H206.3s9.958,2.641,12.674,16.6,5.117,65.325,5.117,65.325Z" transform="translate(-95.256 -214.609)" fill="#fff"/>
          <g id="Group_1028" data-name="Group 1028" clip-path="url(#clip-path-2)">
            <path id="Path_1969" data-name="Path 1969" d="M127.572,243.77c1.518,20.317,3.037,52.806,3.037,52.806H102.836S86.558,243.4,89.625,227.819s22.409-13.169,22.409-13.169" transform="translate(-97.932 -214.65)" fill="#fff" stroke="#400f5e" stroke-linecap="round" stroke-linejoin="round" stroke-width="1.25"/>
            <path id="Path_1970" data-name="Path 1970" d="M114.978,226.1c.253,1.976.519,4.707.787,7.937" transform="translate(-86.486 -209.499)" fill="#fff" stroke="#400f5e" stroke-linecap="round" stroke-linejoin="round" stroke-width="1.25"/>
            <path id="Path_1971" data-name="Path 1971" d="M105.018,214.609a14,14,0,0,1,10.13,5.418" transform="translate(-90.915 -214.609)" fill="#fff" stroke="#400f5e" stroke-linecap="round" stroke-linejoin="round" stroke-width="1.25"/>
            <path id="Path_1972" data-name="Path 1972" d="M108.988,214.65s12.266,0,14.389,16.6c1.781,13.93,4.184,65.325,4.184,65.325H99.788S83.512,243.4,86.577,227.819s22.41-13.169,22.41-13.169" transform="translate(-99.287 -214.65)" fill="#c3c3c3"/>
            <path id="Path_1973" data-name="Path 1973" d="M139.8,214.609s9.96,2.641,12.676,16.6,5.116,65.325,5.116,65.325" transform="translate(-75.446 -214.609)" fill="#fff" stroke="#400f5e" stroke-linecap="round" stroke-linejoin="round" stroke-width="1.25"/>
          </g>
          <path id="Path_1975" data-name="Path 1975" d="M104.654,296.534s-10-47.427-9.369-63.378c.416-10.558,6.449-15.265,10.48-17.241a12.871,12.871,0,0,1,5.694-1.306H206.3s9.958,2.641,12.674,16.6,5.117,65.325,5.117,65.325Z" transform="translate(-95.256 -214.609)" fill="none" stroke="#400f5e" stroke-linecap="round" stroke-linejoin="round" stroke-width="1.25"/>
        </g>
      </g>
      <path id="Rectangle_237" data-name="Rectangle 237" d="M76.107,0H143.8A76.107,76.107,0,0,1,219.9,76.107V257.953a0,0,0,0,1,0,0H0a0,0,0,0,1,0,0V76.107A76.107,76.107,0,0,1,76.107,0Z" fill="none" stroke="#400f5e" stroke-linecap="round" stroke-linejoin="round" stroke-width="1.25"/>
    </g>
    <path id="Path_19386" data-name="Path 19386" d="M3.917,0H281.193a3.917,3.917,0,0,1,3.917,3.917v8.271H0V3.917A3.917,3.917,0,0,1,3.917,0Z" transform="translate(90.314 357.914)" fill="#bbb" stroke="#400f5e" stroke-linecap="round" stroke-width="1.25"/>
    <g id="Group_1044" data-name="Group 1044" transform="translate(150.677 197.996)">
      <circle id="Ellipse_324" data-name="Ellipse 324" cx="10.712" cy="10.712" r="10.712" transform="translate(94.94 38.691)" fill="#80d9ff" stroke="#400f5e" stroke-linecap="round" stroke-linejoin="round" stroke-width="1.25"/>
      <g id="Group_1033" data-name="Group 1033" transform="translate(56.515)">
        <path id="Path_1976" data-name="Path 1976" d="M174.823,212.671s-13.416-2.661-15.035-19.374,9.716-23.42,15.035-25.271S185,169.183,185,169.183s1.084-4.164,6.9-5.551,7.9,3.238,7.9,3.238,5.039-4.1,19.47,5.8c11.8,8.1,10.832,18.252,4.123,27.273-5.108,6.871-11.334,8.1-11.334,8.1Z" transform="translate(-159.631 -163.372)" fill="#fff"/>
        <g id="Group_1032" data-name="Group 1032" clip-path="url(#clip-path-3)">
          <path id="Path_1977" data-name="Path 1977" d="M177.6,213s-13.416-2.661-15.035-19.374,9.716-23.42,15.035-25.271,10.178,1.156,10.178,1.156,1.084-4.164,6.9-5.551,7.9,3.238,7.9,3.238,7.081-10.135,21.512-.231c11.8,8.1,8.791,24.288,2.082,33.309-5.108,6.871-11.334,8.1-11.334,8.1Z" transform="translate(-158.396 -163.703)" fill="#7a7a7a"/>
          <path id="Path_1978" data-name="Path 1978" d="M202.89,173.956a8.546,8.546,0,0,1,.286,6.309l-1.147,3.727" transform="translate(-140.777 -158.665)" fill="none" stroke="#400f5e" stroke-linecap="round" stroke-linejoin="round" stroke-width="1.25"/>
        </g>
        <path id="Path_1980" data-name="Path 1980" d="M174.823,212.671s-13.416-2.661-15.035-19.374,9.716-23.42,15.035-25.271S185,169.183,185,169.183s1.084-4.164,6.9-5.551,7.9,3.238,7.9,3.238,5.039-4.1,19.47,5.8c11.8,8.1,10.832,18.252,4.123,27.273-5.108,6.871-11.334,8.1-11.334,8.1Z" transform="translate(-159.631 -163.372)" fill="none" stroke="#400f5e" stroke-linecap="round" stroke-linejoin="round" stroke-width="1.25"/>
      </g>
      <g id="Group_1039" data-name="Group 1039" transform="translate(4.393 69.905)">
        <path id="Path_1981" data-name="Path 1981" d="M244.491,248.384a80.3,80.3,0,0,0-20.141-22.319c-6.027-4.533-13.41-9.159-20.3-10.97-15.266-4.016-19.083-4.859-35.044,0s-26.37,13.878-34,21.858A60.584,60.584,0,0,0,123.554,255l26.024,16.655L147.5,294.206h87.785l-2.66-20.934,18.968-12.724S248.513,254.954,244.491,248.384Z" transform="translate(-123.554 -211.759)" fill="#fff"/>
        <g id="Group_1038" data-name="Group 1038" clip-path="url(#clip-path-4)">
          <path id="Path_1982" data-name="Path 1982" d="M163.093,212.456s1.767,10.321,8.362,18.349,12.331,7.17,17.206,3.729,8.316-12.331,8.316-17.493-22.217-7.472-33.884-4.586" transform="translate(-105.971 -212.009)" fill="#80d9ff" stroke="#400f5e" stroke-linecap="round" stroke-linejoin="round" stroke-width="1.25"/>
          <g id="Group_1037" data-name="Group 1037">
            <path id="Path_1983" data-name="Path 1983" d="M244.491,248.384a80.3,80.3,0,0,0-20.141-22.319c-6.027-4.533-13.41-9.159-20.3-10.97-15.266-4.016-19.083-4.859-35.044,0s-26.37,13.878-34,21.858A60.584,60.584,0,0,0,123.554,255l26.024,16.655L147.5,294.206h87.785l-2.66-20.934,18.968-12.724S248.513,254.954,244.491,248.384Z" transform="translate(-123.554 -211.759)" fill="#fff"/>
            <g id="Group_1036" data-name="Group 1036" clip-path="url(#clip-path-4)">
              <path id="Path_1984" data-name="Path 1984" d="M123.554,260.093l26.024,11.558L147.5,294.206h91.347l-2.66-20.934,18.969-12.724s-3.077-5.594-7.1-12.166a80.309,80.309,0,0,0-20.138-22.318c-6.029-4.532-13.41-9.159-20.3-10.97-15.266-4.016-19.083-4.859-35.044,0a71.267,71.267,0,0,0-20.125,9.758,74.1,74.1,0,0,0-19.178,19.927c-3.122,4.687-6.981,10.626-9.714,15.314" transform="translate(-123.554 -211.759)" fill="#c3c3c3"/>
              <ellipse id="Ellipse_325" data-name="Ellipse 325" cx="17.236" cy="13.438" rx="17.236" ry="13.438" transform="translate(77.72 -12.092)" fill="#ff4500"/>
              <g id="Group_1035" data-name="Group 1035" transform="translate(57.122 -0.811)">
                <path id="Path_1985" data-name="Path 1985" d="M163.093,212.456s1.767,10.321,8.362,18.349,12.331,7.17,17.206,3.729,8.316-12.331,8.316-17.493-22.217-7.472-33.884-4.586" transform="translate(-163.093 -211.198)" fill="#f7b5a9"/>
                <g id="Group_1034" data-name="Group 1034" clip-path="url(#clip-path-6)">
                  <ellipse id="Ellipse_326" data-name="Ellipse 326" cx="17.236" cy="13.438" rx="17.236" ry="13.438" transform="translate(20.597 -11.281)" fill="#ff7e60"/>
                </g>
                <path id="Path_1987" data-name="Path 1987" d="M163.093,212.456s1.767,10.321,8.362,18.349,12.331,7.17,17.206,3.729,8.316-12.331,8.316-17.493-22.217-7.472-33.884-4.586" transform="translate(-163.093 -211.198)" fill="none" stroke="#400f5e" stroke-linecap="round" stroke-linejoin="round" stroke-width="1.25"/>
              </g>
            </g>
            <path id="Path_1989" data-name="Path 1989" d="M244.491,248.384a80.3,80.3,0,0,0-20.141-22.319c-6.027-4.533-13.41-9.159-20.3-10.97-15.266-4.016-19.083-4.859-35.044,0s-26.37,13.878-34,21.858A60.584,60.584,0,0,0,123.554,255l26.024,16.655L147.5,294.206h87.785l-2.66-20.934,18.968-12.724S248.513,254.954,244.491,248.384Z" transform="translate(-123.554 -211.759)" fill="none" stroke="#400f5e" stroke-linecap="round" stroke-linejoin="round" stroke-width="1.25"/>
          </g>
          <path id="Path_1990" data-name="Path 1990" d="M144.028,259.744s4.284-8.011,7.151-12.891a85.711,85.711,0,0,1,5.545-8.32l-3.251,46.837-17.439-1.911Z" transform="translate(-118.004 -199.853)" fill="#ff4500"/>
          <path id="Path_1991" data-name="Path 1991" d="M141.567,259.744s4.284-8.011,7.151-12.891a85.711,85.711,0,0,1,5.545-8.32" transform="translate(-115.543 -199.853)" fill="none" stroke="#400f5e" stroke-linecap="round" stroke-linejoin="round" stroke-width="1.25"/>
          <path id="Path_1992" data-name="Path 1992" d="M201.459,262.13a79.487,79.487,0,0,0-7.832-25.318s9.367,10.9,13.382,13a43.4,43.4,0,0,0,9.367,3.249Z" transform="translate(-92.392 -200.618)" fill="#ff4500"/>
          <path id="Path_1993" data-name="Path 1993" d="M201.459,262.13a79.487,79.487,0,0,0-7.832-25.318" transform="translate(-92.392 -200.618)" fill="none" stroke="#400f5e" stroke-linecap="round" stroke-linejoin="round" stroke-width="1.25"/>
        </g>
        <path id="Path_1995" data-name="Path 1995" d="M244.491,248.384a80.3,80.3,0,0,0-20.141-22.319c-6.027-4.533-13.41-9.159-20.3-10.97-15.266-4.016-19.083-4.859-35.044,0s-26.37,13.878-34,21.858A60.584,60.584,0,0,0,123.554,255l26.024,16.655L147.5,294.206h87.785l-2.66-20.934,18.968-12.724S248.513,254.954,244.491,248.384Z" transform="translate(-123.554 -211.759)" fill="none" stroke="#400f5e" stroke-linecap="round" stroke-linejoin="round" stroke-width="1.25"/>
      </g>
      <path id="Path_1996" data-name="Path 1996" d="M127.283,242.74s-3.3,5.188-5.152,14.9c-1.287,6.755-1.618,22.786-1.618,22.786l16.656-.052,11.679.052,2.082-22.555Z" transform="translate(-120.513 -128.077)" fill="#fff" stroke="#400f5e" stroke-linecap="round" stroke-linejoin="round" stroke-width="0.75"/>
      <g id="Group_1041" data-name="Group 1041" transform="translate(64.117 29.926)">
        <path id="Path_1997" data-name="Path 1997" d="M213.406,194.611s-2.408,20.82-9.694,27.065S191.2,226.6,191.2,226.6l-1.718,10.166s-1.735,7.634-8.327,7.287-12.5-14.573-12.5-14.573l4.869-17-1.331-3.287s-8.154-2.67-7.228-10.071,6.592-2.257,6.592-2.257,3.355-2.949,3.47-6.766a17.418,17.418,0,0,0-.695-6.014,12.805,12.805,0,0,0,7.172,3.008,5.861,5.861,0,0,0,5.436-3.008,12.593,12.593,0,0,0,8.905,6.014,8.471,8.471,0,0,0,9.138-4.048,22.414,22.414,0,0,0,4.395,2.66,17.218,17.218,0,0,0,4.857,1.388Z" transform="translate(-164.893 -184.086)" fill="#fff"/>
        <g id="Group_1040" data-name="Group 1040" clip-path="url(#clip-path-7)">
          <path id="Path_1998" data-name="Path 1998" d="M174.3,207.75s.286,2.007,4.874,5.448c4.63,3.472,10.561,2.915,10.561,2.915L188.1,227.56a20.653,20.653,0,0,1-12.2-10.8C172.826,209.822,174.3,207.75,174.3,207.75Z" transform="translate(-160.867 -173.562)" fill="#f7b5a9"/>
          <path id="Path_1999" data-name="Path 1999" d="M189.626,216.113s-5.931.556-10.561-2.915c-4.588-3.441-4.874-5.448-4.874-5.448" transform="translate(-160.758 -173.562)" fill="#fff" stroke="#400f5e" stroke-linecap="round" stroke-linejoin="round" stroke-width="1.25"/>
          <ellipse id="Ellipse_327" data-name="Ellipse 327" cx="2.639" cy="1.941" rx="2.639" ry="1.941" transform="translate(36.554 17.81) rotate(-85.533)" fill="#400f5e"/>
          <ellipse id="Ellipse_328" data-name="Ellipse 328" cx="2.639" cy="1.941" rx="2.639" ry="1.941" transform="translate(19.792 17.189) rotate(-85.533)" fill="#400f5e"/>
          <path id="Path_2000" data-name="Path 2000" d="M187.015,194.7s0,7.375,1.241,8.462.545,2.639-.62,3.261-1.711.233-1.711.233" transform="translate(-155.54 -179.367)" fill="#fff" stroke="#400f5e" stroke-linecap="round" stroke-linejoin="round" stroke-width="1.25"/>
          <path id="Path_2001" data-name="Path 2001" d="M167.866,194.906s.825,3.051,3.3,3.742" transform="translate(-163.571 -179.274)" fill="#fff" stroke="#400f5e" stroke-linecap="round" stroke-linejoin="round" stroke-width="1.25"/>
          <path id="Path_2002" data-name="Path 2002" d="M181.971,205.623a3.789,3.789,0,0,0,2.314,1.945,5.606,5.606,0,0,0,3.145.228" transform="translate(-157.299 -174.508)" fill="#fff" stroke="#400f5e" stroke-linecap="round" stroke-linejoin="round" stroke-width="1.25"/>
        </g>
        <path id="Path_2004" data-name="Path 2004" d="M213.406,194.611s-2.408,20.82-9.694,27.065S191.2,226.6,191.2,226.6l-1.718,10.166s-1.735,7.634-8.327,7.287-12.5-14.573-12.5-14.573l4.869-17-1.331-3.287s-8.154-2.67-7.228-10.071,6.592-2.257,6.592-2.257,3.355-2.949,3.47-6.766a17.418,17.418,0,0,0-.695-6.014,12.805,12.805,0,0,0,7.172,3.008,5.861,5.861,0,0,0,5.436-3.008,12.593,12.593,0,0,0,8.905,6.014,8.471,8.471,0,0,0,9.138-4.048,22.414,22.414,0,0,0,4.395,2.66,17.218,17.218,0,0,0,4.857,1.388Z" transform="translate(-164.893 -184.086)" fill="none" stroke="#400f5e" stroke-linecap="round" stroke-linejoin="round" stroke-width="1.25"/>
      </g>
      <g id="Group_1043" data-name="Group 1043" transform="translate(113.46 120.114)">
        <path id="Path_2005" data-name="Path 2005" d="M223.048,273.025c-2.082-8.675-7.148-26.512-7.148-26.512l-16.851,11.3,2.66,20.934H224.8A49.392,49.392,0,0,1,223.048,273.025Z" transform="translate(-199.048 -246.513)" fill="#fff"/>
        <g id="Group_1042" data-name="Group 1042" clip-path="url(#clip-path-8)">
          <path id="Path_2006" data-name="Path 2006" d="M202.494,250.376s4.795,29.825,10.426,43.876,11.368,19.043,20.831,18.554-15.486,7.657-22.654,0-14.625-60.422-14.625-60.422Z" transform="translate(-200.194 -244.795)" fill="#f7b5a9"/>
        </g>
        <path id="Path_2008" data-name="Path 2008" d="M223.048,273.025c-2.082-8.675-7.148-26.512-7.148-26.512l-16.851,11.3,2.66,20.934H224.8A49.392,49.392,0,0,1,223.048,273.025Z" transform="translate(-199.048 -246.513)" fill="none" stroke="#400f5e" stroke-linecap="round" stroke-linejoin="round" stroke-width="0.75"/>
      </g>
      <circle id="Ellipse_329" data-name="Ellipse 329" cx="10.712" cy="10.712" r="10.712" transform="translate(56.296 35.844)" fill="#80d9ff" stroke="#400f5e" stroke-linecap="round" stroke-linejoin="round" stroke-width="1.25"/>
      <circle id="Ellipse_330" data-name="Ellipse 330" cx="10.712" cy="10.712" r="10.712" transform="translate(53.991 35.844)" fill="#fff" stroke="#400f5e" stroke-linecap="round" stroke-linejoin="round" stroke-width="1.25"/>
      <path id="Path_2009" data-name="Path 2009" d="M213.13,168.97s-5.48-5.374-17.594-5.423a29.75,29.75,0,0,0-24.813,12.543c-5.9,8.473-6.644,22.915-6.644,22.915s1.264.038,2.361.155a29.645,29.645,0,0,1,3.193.675s1.345-12.813,5.837-20.151a24.908,24.908,0,0,1,16.711-11.254c5.932-1.085,13.626.2,15.965,1.322l2.339,1.118s2.746.509,4.781,1.118l2.034.611S214.918,170.427,213.13,168.97Z" transform="translate(-101.139 -163.295)" fill="#fff" stroke="#400f5e" stroke-linecap="round" stroke-linejoin="round" stroke-width="1.25"/>
      <circle id="Ellipse_331" data-name="Ellipse 331" cx="4.983" cy="4.983" r="4.983" transform="translate(59.536 41.552)" fill="#f7b5a9"/>
    </g>
    <g id="Laptop" transform="translate(222.841 291.14)">
      <g id="Group_1046" data-name="Group 1046" transform="translate(25.669)">
        <path id="Path_2010" data-name="Path 2010" d="M188.23,281.607h77.639l9.121-53.762H197.352Z" transform="translate(-188.23 -227.845)" fill="#fff"/>
        <g id="Group_1045" data-name="Group 1045" clip-path="url(#clip-path-9)">
          <path id="Path_2011" data-name="Path 2011" d="M184.917,281.607h77.639l9.121-53.762H194.038Z" transform="translate(-189.704 -227.845)" fill="#7a7a7a"/>
        </g>
        <path id="Path_2013" data-name="Path 2013" d="M188.23,281.607h77.639l9.121-53.762H197.352Z" transform="translate(-188.23 -227.845)" fill="none" stroke="#400f5e" stroke-linecap="round" stroke-linejoin="round" stroke-width="1.25"/>
      </g>
      <rect id="Rectangle_239" data-name="Rectangle 239" width="103.308" height="5.445" transform="translate(103.308 59.207) rotate(-180)" fill="#fff" stroke="#400f5e" stroke-linecap="round" stroke-linejoin="round" stroke-width="1.25"/>
      <circle id="Ellipse_332" data-name="Ellipse 332" cx="4.865" cy="4.865" r="4.865" transform="translate(65.894 22.016)" fill="#fff"/>
    </g>
    <path id="Path_2014" data-name="Path 2014" d="M257.591,169.968,123.554,313.134H266.948l12.2-143.166Z" transform="translate(31.517 37.557)" fill="#fff" style="mix-blend-mode: soft-light;isolation: isolate"/>
    <g id="Group_1048" data-name="Group 1048" transform="translate(95.587 319.581)">
      <path id="Path_2015" data-name="Path 2015" d="M115.622,285.97H91.876c-2.408,0-4.481-2.015-4.951-4.812l-4.445-26.484c-.621-3.7,1.768-7.143,4.951-7.143h32.637c3.183,0,5.572,3.446,4.951,7.143l-4.445,26.484C120.1,283.955,118.031,285.97,115.622,285.97Z" transform="translate(-82.381 -247.531)" fill="#fff"/>
      <g id="Group_1047" data-name="Group 1047" clip-path="url(#clip-path-10)">
        <rect id="Rectangle_240" data-name="Rectangle 240" width="45.69" height="4.37" transform="translate(-1.443 11.622)" fill="#80d9ff"/>
        <line id="Line_103" data-name="Line 103" x2="46.485" transform="translate(-1.443 11.622)" fill="none" stroke="#400f5e" stroke-linecap="round" stroke-linejoin="round" stroke-width="1.25"/>
      </g>
      <path id="Path_2017" data-name="Path 2017" d="M115.622,285.97H91.876c-2.408,0-4.481-2.015-4.951-4.812l-4.445-26.484c-.621-3.7,1.768-7.143,4.951-7.143h32.637c3.183,0,5.572,3.446,4.951,7.143l-4.445,26.484C120.1,283.955,118.031,285.97,115.622,285.97Z" transform="translate(-82.381 -247.531)" fill="none" stroke="#400f5e" stroke-linecap="round" stroke-linejoin="round" stroke-width="1.25"/>
    </g>
    <path id="Path_2018" data-name="Path 2018" d="M97.161,261.515s5.666-24.195,13.522-35.725,10.744-9.581,10.744-9.581S112.761,230,109.294,239.752s-4.453,21.763-4.453,21.763Z" transform="translate(19.779 58.066)" fill="#fff" stroke="#400f5e" stroke-linecap="round" stroke-linejoin="round" stroke-width="1.25"/>
    <g id="Group_1049" data-name="Group 1049" transform="translate(79.975 252.987)">
      <path id="Path_2019" data-name="Path 2019" d="M103.87,265.227s-4.139-23.248-12.345-37.851-14.077-19.636-14.077-19.636" transform="translate(-68.962 -198.633)" fill="none" stroke="#400f5e" stroke-linecap="round" stroke-linejoin="round" stroke-width="1.25"/>
      <path id="Path_2020" data-name="Path 2020" d="M82.711,213.757a1.289,1.289,0,0,1-2.153-.77,11.786,11.786,0,0,1,.457-5.75,20.608,20.608,0,0,1,1.475-3.082,1.285,1.285,0,0,1,2.333.27,11.514,11.514,0,0,1,.652,5.188A8.547,8.547,0,0,1,82.711,213.757Z" transform="translate(-67.648 -200.508)" fill="#fff" stroke="#400f5e" stroke-linecap="round" stroke-linejoin="round" stroke-width="1.25"/>
      <path id="Path_2021" data-name="Path 2021" d="M86.571,219.372a1.555,1.555,0,0,1-2.268-1.443,12.19,12.19,0,0,1,2.062-6.037,22.288,22.288,0,0,1,2.521-2.884,1.567,1.567,0,0,1,2.611.958,11.915,11.915,0,0,1-.64,5.753C90.06,217.351,88.137,218.589,86.571,219.372Z" transform="translate(-65.916 -198.252)" fill="#fff" stroke="#400f5e" stroke-linecap="round" stroke-linejoin="round" stroke-width="1.25"/>
      <path id="Path_2022" data-name="Path 2022" d="M89.7,225.588a1.555,1.555,0,0,1-1.637-2.132,12.21,12.21,0,0,1,4-4.967,22.263,22.263,0,0,1,3.356-1.846,1.567,1.567,0,0,1,2.125,1.794,11.929,11.929,0,0,1-2.572,5.185C93.667,224.885,91.435,225.389,89.7,225.588Z" transform="translate(-64.304 -194.729)" fill="#fff" stroke="#400f5e" stroke-linecap="round" stroke-linejoin="round" stroke-width="1.25"/>
      <path id="Path_2023" data-name="Path 2023" d="M93.465,234.422A1.555,1.555,0,0,1,91.59,232.5a12.21,12.21,0,0,1,3.4-5.4A22.344,22.344,0,0,1,98.1,224.87a1.567,1.567,0,0,1,2.322,1.533,11.925,11.925,0,0,1-1.947,5.451C97.327,233.259,95.17,234.022,93.465,234.422Z" transform="translate(-62.706 -191.106)" fill="#fff" stroke="#400f5e" stroke-linecap="round" stroke-linejoin="round" stroke-width="1.25"/>
      <path id="Path_2024" data-name="Path 2024" d="M95.975,243.561a1.556,1.556,0,0,1-1.539-2.2,12.2,12.2,0,0,1,4.227-4.779,22.29,22.29,0,0,1,3.437-1.692,1.568,1.568,0,0,1,2.041,1.89,11.916,11.916,0,0,1-2.8,5.062C99.974,243.039,97.722,243.441,95.975,243.561Z" transform="translate(-61.48 -186.605)" fill="#fff" stroke="#400f5e" stroke-linecap="round" stroke-linejoin="round" stroke-width="1.25"/>
      <path id="Path_2025" data-name="Path 2025" d="M74,212.771a1.289,1.289,0,0,1,.77-2.153,11.775,11.775,0,0,1,5.751.457A20.681,20.681,0,0,1,83.6,212.55a1.285,1.285,0,0,1-.27,2.333,11.5,11.5,0,0,1-5.188.65A8.545,8.545,0,0,1,74,212.771Z" transform="translate(-70.648 -197.422)" fill="#fff" stroke="#400f5e" stroke-linecap="round" stroke-linejoin="round" stroke-width="1.25"/>
      <path id="Path_2026" data-name="Path 2026" d="M78.512,219.652a1.355,1.355,0,0,1,.81-2.264,12.4,12.4,0,0,1,6.05.48,21.716,21.716,0,0,1,3.242,1.553,1.352,1.352,0,0,1-.283,2.455,12.1,12.1,0,0,1-5.46.685A8.991,8.991,0,0,1,78.512,219.652Z" transform="translate(-68.65 -194.416)" fill="#fff" stroke="#400f5e" stroke-linecap="round" stroke-linejoin="round" stroke-width="1.25"/>
      <path id="Path_2027" data-name="Path 2027" d="M81.341,226.3a1.355,1.355,0,0,1,.81-2.264,12.4,12.4,0,0,1,6.05.48,21.8,21.8,0,0,1,3.242,1.552,1.353,1.353,0,0,1-.283,2.456,12.1,12.1,0,0,1-5.46.685A8.99,8.99,0,0,1,81.341,226.3Z" transform="translate(-67.392 -191.461)" fill="#fff" stroke="#400f5e" stroke-linecap="round" stroke-linejoin="round" stroke-width="1.25"/>
      <path id="Path_2028" data-name="Path 2028" d="M85.193,234.9A1.357,1.357,0,0,1,86,232.63a12.4,12.4,0,0,1,6.05.481,21.732,21.732,0,0,1,3.242,1.552,1.352,1.352,0,0,1-.283,2.455,12.1,12.1,0,0,1-5.458.685A9,9,0,0,1,85.193,234.9Z" transform="translate(-65.679 -187.637)" fill="#fff" stroke="#400f5e" stroke-linecap="round" stroke-linejoin="round" stroke-width="1.25"/>
      <path id="Path_2029" data-name="Path 2029" d="M79.855,208.378a1.289,1.289,0,0,1-1.826,1.375,11.774,11.774,0,0,1-4.554-3.54,20.667,20.667,0,0,1-1.765-2.924,1.286,1.286,0,0,1,1.507-1.8,11.494,11.494,0,0,1,4.692,2.306A8.551,8.551,0,0,1,79.855,208.378Z" transform="translate(-71.574 -201.436)" fill="#fff" stroke="#400f5e" stroke-linecap="round" stroke-linejoin="round" stroke-width="1.25"/>
    </g>
    <line id="Line_104" data-name="Line 104" x2="42.878" transform="translate(65.553 198.575)" fill="none" stroke="#400f5e" stroke-linecap="round" stroke-linejoin="round" stroke-width="1.25"/>
    <line id="Line_105" data-name="Line 105" x2="42.878" transform="translate(65.553 211.885)" fill="none" stroke="#400f5e" stroke-linecap="round" stroke-linejoin="round" stroke-width="1.25"/>
    <line id="Line_106" data-name="Line 106" y2="13.311" transform="translate(86.992 198.575)" fill="none" stroke="#400f5e" stroke-linecap="round" stroke-linejoin="round" stroke-width="1.25"/>
    <line id="Line_107" data-name="Line 107" y2="13.311" transform="translate(76.129 184.609)" fill="none" stroke="#400f5e" stroke-linecap="round" stroke-linejoin="round" stroke-width="1.25"/>
    <line id="Line_108" data-name="Line 108" y2="13.311" transform="translate(98.23 184.609)" fill="none" stroke="#400f5e" stroke-linecap="round" stroke-linejoin="round" stroke-width="1.25"/>
    <line id="Line_109" data-name="Line 109" x2="42.878" transform="translate(351.307 253.315)" fill="none" stroke="#400f5e" stroke-linecap="round" stroke-linejoin="round" stroke-width="1.25"/>
    <line id="Line_110" data-name="Line 110" x2="42.878" transform="translate(351.307 266.626)" fill="none" stroke="#400f5e" stroke-linecap="round" stroke-linejoin="round" stroke-width="1.25"/>
    <line id="Line_111" data-name="Line 111" y2="13.311" transform="translate(372.746 253.315)" fill="none" stroke="#400f5e" stroke-linecap="round" stroke-linejoin="round" stroke-width="1.25"/>
    <rect id="Rectangle_241" data-name="Rectangle 241" width="24" height="13.311" transform="translate(363.245 266.626)" fill="none" stroke="#400f5e" stroke-linecap="round" stroke-linejoin="round" stroke-width="1.25"/>
  </g>
</svg>
