<svg id="Group_1" data-name="Group 1" xmlns="http://www.w3.org/2000/svg" width="200" height="200" viewBox="0 0 200 200">
  <rect id="Rectangle_1" data-name="Rectangle 1" width="200" height="200" rx="100" fill="#c6c6c6"/>
  <g id="noun-user-4676541" transform="translate(-90.61 16.574)">
    <path id="Path_1" data-name="Path 1" d="M258.046,75.912a22.426,22.426,0,1,0-15.833-6.568A22.4,22.4,0,0,0,258.046,75.912Zm0-36.9a14.51,14.51,0,1,1-10.244,4.25A14.491,14.491,0,0,1,258.046,39.016Z" transform="translate(-66.652)" fill="#fff"/>
    <path id="Path_2" data-name="Path 2" d="M191.29,300.18c-13.207.012-25.87,4.32-35.208,11.978s-14.592,18.041-14.607,28.87a3.629,3.629,0,0,0,1.412,2.8,5.4,5.4,0,0,0,3.409,1.158h89.991a5.4,5.4,0,0,0,3.409-1.158,3.629,3.629,0,0,0,1.412-2.8c-.015-10.83-5.268-21.213-14.607-28.87s-22-11.965-35.208-11.978Zm-39.886,36.9c1.179-7.994,5.888-15.357,13.237-20.7a46.972,46.972,0,0,1,53.3,0c7.349,5.341,12.059,12.7,13.237,20.7Z" transform="translate(-0.181 -214.239)" fill="#fff"/>
  </g>
</svg>
