<svg xmlns="http://www.w3.org/2000/svg" width="19.912" height="16" viewBox="0 0 19.912 16">
  <path id="Path_19426" data-name="Path 19426" d="M29.018,28.148a4.052,4.052,0,1,0-6.582-4.636,5.089,5.089,0,0,0-.58-.041,5.455,5.455,0,0,0-.58.041,4.053,4.053,0,1,0-6.582,4.636A4.619,4.619,0,0,0,11.9,32.37v2.442a.512.512,0,0,0,.517.517H16.04v1.552a.512.512,0,0,0,.517.517h10.6a.512.512,0,0,0,.517-.517V35.33h3.622a.512.512,0,0,0,.517-.517V32.37A4.543,4.543,0,0,0,29.018,28.148ZM30.777,34.3h-3.1a4.594,4.594,0,0,0-2.794-4.078,3.79,3.79,0,0,0,.538-.745,5.089,5.089,0,0,0,.58.041,3.979,3.979,0,0,0,2.091-.6,3.548,3.548,0,0,1,2.691,3.436Zm-13.7,2.07V34.44A3.53,3.53,0,0,1,19.765,31a4.035,4.035,0,0,0,2.091.6,3.979,3.979,0,0,0,2.091-.6,3.548,3.548,0,0,1,2.691,3.436v1.925Zm-4.14-3.995a3.53,3.53,0,0,1,2.691-3.436,4.035,4.035,0,0,0,2.091.6,5.454,5.454,0,0,0,.58-.041,3.791,3.791,0,0,0,.538.745,4.628,4.628,0,0,0-2.794,4.078h-3.1Zm1.759-6.913A3.02,3.02,0,0,1,20.242,23.8,4.062,4.062,0,0,0,17.8,27.527a3.641,3.641,0,0,0,.124.952h-.186A3.03,3.03,0,0,1,14.694,25.457ZM26,22.414a3.032,3.032,0,0,1,0,6.065h-.186a3.641,3.641,0,0,0,.124-.952A4.085,4.085,0,0,0,23.491,23.8,2.957,2.957,0,0,1,26,22.414Zm-1.118,5.113A3.022,3.022,0,1,1,21.856,24.5,3.026,3.026,0,0,1,24.878,27.527Z" transform="translate(-11.9 -21.4)" fill="#b5b5c3"/>
</svg>
