<?xml version="1.0" encoding="utf-8"?>
<!-- Generator: Adobe Illustrator 27.0.1, SVG Export Plug-In . SVG Version: 6.00 Build 0)  -->
<svg version="1.1" id="Layer_1" xmlns="http://www.w3.org/2000/svg" xmlns:xlink="http://www.w3.org/1999/xlink" x="0px" y="0px"
	 viewBox="0 0 79 22" style="enable-background:new 0 0 79 22;" xml:space="preserve">
<style type="text/css">
	.st0{fill:#FFFFFF;}
</style>
<g>
	<path class="st0" d="M1.5,12.1c0.1,0.5,0.3,1,0.4,1.6c1.5,5.8,7.6,9.2,13.3,7.5c5.8-1.8,9-8.1,6.8-13.9c-0.4-1.1-0.5-2,0-3
		c0.3-0.7,0.5-1.5,0.8-2.4c-1,0.1-1.6,0.2-2.3,0.3c-1.2,0.3-2.3,0.1-3.4-0.5c-6.1-3.4-13.7,0-15.3,6.7C1.7,9,1.6,9.5,1.5,10.1
		 M77.5,6.8c-2.8,0-5.6,0-8.5,0c0,0.6,0,1,0,1.5c0.3,0,0.6,0.1,0.8,0.1c1-0.2,1.3,0.3,1.3,1.3c-0.1,1,0,2,0,3c0,1.5,0,3,0,4.5
		c1.5,0,2.8,0,4.2,0c0-3,0-5.8,0-8.8c0.8,0,1.5,0,2.2,0 M37.6,10.8c0.6,0.1,1.1,0.1,1.7,0.2c0,2.1,0,4.2,0,6.2c1.5,0,2.8,0.1,4.2,0
		c2.6-0.2,4.5-2.3,4.6-4.9c0.1-2.5-1.6-5.1-4-5.4c-2.1-0.3-4.3-0.1-6.5-0.1C37.6,8.2,37.6,9.5,37.6,10.8z M37.4,17.3
		c0-0.1,0.1-0.2,0.1-0.3c-0.7-2.2-1.4-4.3-2.1-6.5c-0.4-1.3-0.6-3-1.5-3.6c-0.9-0.6-2.6-0.2-4-0.2c-0.1,0-0.2,0-0.2,0
		c-0.3,0.2-0.7,0.3-0.8,0.6c-0.4,1.1-0.8,2.3-1.2,3.5c0.6,0.1,1,0.1,1.6,0.2c-0.7,2.1-1.4,4.2-2.1,6.4c1.3,0,2.4,0,3.6,0
		c0.3,0,0.7-0.3,0.7-0.5c0.2-1.8,1.4-1.7,2.7-1.7c0.9,0,1.4,0.2,1.5,1.1C35.8,17.4,36.4,17.6,37.4,17.3z M59.2,17.1
		c0-0.2,0-0.3,0-0.3c-0.7-2.1-1.5-4.2-2.2-6.3c-1.3-3.9-1.3-3.9-5.4-3.7c-0.1,0-0.2,0-0.2,0c-0.3,0.2-0.7,0.3-0.8,0.6
		c-0.5,1.1-0.8,2.3-1.2,3.5c0.6,0.1,1,0.1,1.6,0.2c-0.7,2.1-1.4,4.1-2.1,6.3c1.3,0,2.5,0,3.6,0c0.3,0,0.7-0.3,0.7-0.5
		c0.2-1.7,1.5-1.6,2.7-1.6c0.8,0,1.3,0.1,1.5,1C57.5,17.2,58.2,17.5,59.2,17.1z M67.4,6.7c-1.6,0-3.1,0-4.6,0
		c-1.3,0-2.4,0.2-2.8,1.6c-0.6,1.9,0,3.7,1.3,4.5c0.8,0.5,1.6,0.9,2.4,1.4c0.3,0.2,0.5,0.6,0.7,0.9c-0.4,0.2-0.8,0.5-1.2,0.5
		c-0.9,0.1-1.9,0-2.9,0c0,0.7,0.1,1.1,0.1,1.6c2.1,0,4,0,6,0c0.5,0,1.1-0.3,1.4-0.7c1.2-1.2,0.6-4.4-0.8-5.3
		c-0.8-0.5-1.7-0.9-2.5-1.5c-0.3-0.2-0.4-0.6-0.6-0.9c0.3-0.2,0.7-0.5,1-0.6c0.8-0.1,1.7,0,2.5,0C67.4,7.8,67.4,7.4,67.4,6.7z"/>
	<path d="M1.5,10.1C1.6,9.5,1.7,9,1.9,8.4c1.7-6.7,9.2-10.1,15.3-6.7c1.2,0.7,2.2,0.8,3.4,0.5c0.6-0.1,1.3-0.2,2.3-0.3
		c-0.3,1-0.5,1.7-0.8,2.4c-0.5,1-0.4,1.9,0,3c2.2,5.8-1,12.1-6.8,13.9c-5.7,1.8-11.8-1.6-13.3-7.5c-0.1-0.5-0.3-1-0.4-1.6
		C1.5,11.5,1.5,10.8,1.5,10.1z M4.8,5.2C4.5,5.5,4.1,5.7,3.9,6C0.3,11.8,4,19.5,10.7,20.5c0.3,0,0.6,0,1.3,0
		c-2.7-1.5-4.6-3.3-5.7-5.8c0.3-0.6,0.6-1.3,0.6-1.9c0-1.3-1.1-0.7-1.8-1c-0.4-1.3-0.3-1.2,0.6-2.2c0.3-0.4,0.2-1.8,0-1.9
		C4.1,7.2,4.8,6.1,4.8,5.2C5,5,5.3,4.9,5.5,4.8C8,4.4,10.6,4,13.1,3.5c1.2-0.2,2.5-0.5,3.9-0.7C13.2,0.4,8.1,1.1,5.3,4.2
		C5.1,4.5,5,4.8,4.8,5.2z M6.6,7.6C6.5,9.5,6.5,9.5,8.1,9.5c3.1,0,6.2,0,9.3,0c1.2,0,2.1-1.4,1.6-2.4c-0.3-0.6-0.3-1.6-1.4-1.4
		C13.9,6.3,10.3,6.9,6.6,7.6z M12.7,20.4c3.1-0.1,5.6-1.5,7.4-4.1c1.8-2.7,2.2-5.6,1-9c-1.1,2.7-1.9,5.2-3,7.5
		C16.9,17.3,14.9,19,12.7,20.4z M14.1,14.5c0.1-1-0.8-2-1.8-2.1c-1-0.1-1.9,0.7-2,1.8c-0.1,1.1,0.8,2.1,1.8,2.2
		C13,16.4,14,15.5,14.1,14.5z"/>
	<path d="M77.5,8.3c-0.7,0-1.4,0-2.2,0c0,3,0,5.9,0,8.8c-1.4,0-2.7,0-4.2,0c0-1.5,0-3,0-4.5c0-1-0.1-2,0-3c0.1-1-0.2-1.5-1.3-1.3
		c-0.2,0-0.5,0-0.8-0.1c0-0.5,0-0.9,0-1.5c2.8,0,5.6,0,8.5,0C77.5,7.3,77.5,7.8,77.5,8.3z"/>
	<path d="M37.6,10.8c0-1.3,0-2.6,0-3.9c2.2,0,4.4-0.2,6.5,0.1c2.4,0.3,4.2,2.9,4,5.4c-0.1,2.6-2.1,4.7-4.6,4.9c-1.3,0.1-2.7,0-4.2,0
		c0-2,0-4,0-6.2C38.6,11,38.1,10.9,37.6,10.8z M43.5,15.5c1.8-0.3,3-1.7,3-3.5c0-1.8-1.2-3.1-3-3.3C43.5,10.9,43.5,13.2,43.5,15.5z"
		/>
	<path d="M37.4,17.3c-1,0.4-1.6,0.1-1.8-1c-0.1-0.9-0.6-1.1-1.5-1.1c-1.3,0-2.6-0.1-2.7,1.7c0,0.2-0.4,0.5-0.7,0.5
		c-1.1,0.1-2.3,0-3.6,0c0.7-2.2,1.4-4.3,2.1-6.4c-0.6-0.1-1-0.1-1.6-0.2c0.4-1.2,0.7-2.4,1.2-3.5c0.1-0.3,0.5-0.4,0.8-0.6
		c0.1,0,0.2,0,0.2,0c1.3,0,3-0.4,4,0.2c0.9,0.6,1.1,2.3,1.5,3.6c0.7,2.2,1.4,4.3,2.1,6.5C37.5,17.1,37.4,17.2,37.4,17.3z M34.7,13.5
		c-0.4-1-0.7-1.9-0.9-2.7c-0.1,0-0.2,0-0.3,0c-0.3,0.9-0.6,1.7-0.9,2.7C33.4,13.5,33.9,13.5,34.7,13.5z"/>
	<path d="M59.2,17.1c-1.1,0.4-1.7,0.1-1.9-1c-0.1-0.9-0.7-1-1.5-1c-1.2,0-2.5-0.2-2.7,1.6c0,0.2-0.5,0.5-0.7,0.5
		c-1.1,0.1-2.3,0-3.6,0c0.7-2.2,1.4-4.2,2.1-6.3c-0.6-0.1-1-0.1-1.6-0.2c0.4-1.2,0.8-2.4,1.2-3.5c0.1-0.3,0.5-0.4,0.8-0.6
		c0.1,0,0.2,0,0.2,0c4.1-0.2,4.1-0.2,5.4,3.7c0.7,2.1,1.5,4.2,2.2,6.3C59.2,16.9,59.2,17,59.2,17.1z M56.4,13.5
		c-0.4-1-0.7-1.9-1.1-3.1c-0.4,1.2-0.7,2.1-1,3.1C55.1,13.5,55.6,13.5,56.4,13.5z"/>
	<path d="M67.4,6.7c0,0.6,0,1,0,1.6c-0.9,0-1.7-0.1-2.5,0c-0.3,0-0.7,0.4-1,0.6c0.2,0.3,0.3,0.7,0.6,0.9c0.8,0.5,1.7,1,2.5,1.5
		c1.4,0.9,1.9,4.1,0.8,5.3c-0.3,0.4-0.9,0.7-1.4,0.7c-1.9,0.1-3.9,0-6,0c0-0.5-0.1-0.9-0.1-1.6c1,0,2,0.1,2.9,0
		c0.4,0,0.8-0.3,1.2-0.5c-0.2-0.3-0.4-0.7-0.7-0.9c-0.8-0.5-1.6-0.9-2.4-1.4c-1.4-0.8-1.9-2.6-1.3-4.5c0.4-1.4,1.6-1.6,2.8-1.6
		C64.2,6.8,65.7,6.7,67.4,6.7z"/>
	<path class="st0" d="M4.8,5.1c0,1-0.7,2.1,0.9,2.6c0.2,0.1,0.3,1.5,0,1.9c-0.9,1-1,0.9-0.6,2.2c0.6,0.3,1.8-0.3,1.8,1
		c0,0.6-0.3,1.3-0.6,1.9c1,2.5,3,4.3,5.7,5.8c-0.7,0-1,0-1.3,0C4,19.5,0.3,11.8,3.9,6C4.1,5.7,4.5,5.5,4.8,5.1L4.8,5.1z"/>
	<path class="st0" d="M6.6,7.6c3.7-0.7,7.3-1.3,10.9-2c1.1-0.2,1.1,0.9,1.4,1.4c0.5,1-0.4,2.4-1.6,2.4c-3.1,0-6.2,0-9.3,0
		C6.5,9.5,6.5,9.5,6.6,7.6z"/>
	<path class="st0" d="M12.7,20.4c2.3-1.4,4.2-3.1,5.4-5.6c1.1-2.3,1.9-4.8,3-7.5c1.2,3.4,0.8,6.3-1,9C18.3,19,15.8,20.3,12.7,20.4z"
		/>
	<path class="st0" d="M4.8,5.2c0.1-0.3,0.2-0.7,0.4-1C8.1,1.1,13.2,0.4,17,2.8c-1.5,0.3-2.7,0.5-3.9,0.7C10.6,4,8,4.4,5.5,4.8
		C5.3,4.9,5,5,4.8,5.2C4.8,5.1,4.8,5.2,4.8,5.2z"/>
	<path class="st0" d="M14.1,14.5c-0.1,1-1.1,1.9-2,1.9c-1.1,0-1.9-1.1-1.8-2.2c0.1-1.1,1-1.9,2-1.8C13.3,12.5,14.2,13.5,14.1,14.5z"
		/>
	<path class="st0" d="M43.5,15.5c0-2.3,0-4.6,0-6.8c1.8,0.2,2.9,1.6,3,3.3C46.4,13.8,45.3,15.2,43.5,15.5z"/>
	<path class="st0" d="M34.7,13.5c-0.8,0-1.3,0-2.1,0c0.3-1,0.6-1.8,0.9-2.7c0.1,0,0.2,0,0.3,0C34.1,11.6,34.3,12.5,34.7,13.5z"/>
	<path class="st0" d="M56.4,13.5c-0.8,0-1.3,0-2.1,0c0.3-1,0.6-1.9,1-3.1C55.7,11.6,56,12.4,56.4,13.5z"/>
</g>
</svg>
