<svg xmlns="http://www.w3.org/2000/svg" xmlns:xlink="http://www.w3.org/1999/xlink" width="100" height="100" viewBox="0 0 100 100">
  <defs>
    <clipPath id="clip-path">
      <rect id="Rectangle_1" data-name="Rectangle 1" width="100" height="100" fill="#fff"/>
    </clipPath>
  </defs>
  <g id="Mask_Group_1" data-name="Mask Group 1" clip-path="url(#clip-path)">
    <path id="Path_113" data-name="Path 113" d="M130.374,112.732,109.6,133.5a4.159,4.159,0,1,1-5.882-5.882l20.771-20.771a24.942,24.942,0,1,1,5.882,5.882Zm3.232-8.065a16.617,16.617,0,1,0-1.05-1.05,4.293,4.293,0,0,1,1.05,1.05ZM70,71.614a4.154,4.154,0,0,1,4.14-4.154h33.3a4.154,4.154,0,1,1,0,8.308H74.154A4.138,4.138,0,0,1,70,71.614ZM70,92.4a4.154,4.154,0,0,1,4.171-4.154H94.942a4.154,4.154,0,0,1,0,8.308H74.171A4.154,4.154,0,0,1,70,92.4Zm0,20.79a4.154,4.154,0,0,1,4.171-4.154H94.942a4.154,4.154,0,1,1,0,8.308H74.171A4.154,4.154,0,0,1,70,113.192Zm0-62.371a4.154,4.154,0,0,1,4.168-4.154H157.31a4.154,4.154,0,1,1,0,8.308H74.171A4.154,4.154,0,0,1,70,50.821Z" transform="translate(-69.5 -41.17)" fill-rule="evenodd"/>
    <path id="Path_113_-_Outline" data-name="Path 113 - Outline" d="M106.662,136.222a5.659,5.659,0,0,1-4-9.661l19.9-19.9a26.442,26.442,0,1,1,8,8l-19.9,19.9a5.622,5.622,0,0,1-4,1.661ZM144.817,68.96a23.442,23.442,0,0,0-19.1,37.021l.734,1.033-21.667,21.667a2.659,2.659,0,0,0,3.761,3.761l21.667-21.667,1.033.734a23.445,23.445,0,1,0,13.574-42.55ZM74.154,118.849a5.618,5.618,0,0,1-3.991-1.649,5.693,5.693,0,0,1-1.663-4h0a5.692,5.692,0,0,1,1.664-4,5.618,5.618,0,0,1,3.99-1.648H94.942a5.654,5.654,0,1,1,0,11.308Zm0-8.308a2.655,2.655,0,0,0,0,5.309H94.942a2.654,2.654,0,1,0,0-5.308H74.154Zm70.662-.019a18.071,18.071,0,0,1-12.222-4.747l-.123-.112-.1-.137a2.666,2.666,0,0,0-.306-.365l-.005,0a2.694,2.694,0,0,0-.366-.307l-.136-.1-.112-.123a18.132,18.132,0,1,1,13.367,5.891Zm-10.087-6.86a15.116,15.116,0,1,0-1.166-1.166A5.818,5.818,0,0,1,134.729,103.662Zm-60.575-5.6a5.618,5.618,0,0,1-3.991-1.649,5.693,5.693,0,0,1-1.663-4h0a5.692,5.692,0,0,1,1.664-4,5.618,5.618,0,0,1,3.99-1.648H94.942a5.654,5.654,0,1,1,0,11.308Zm0-8.308a2.655,2.655,0,0,0,0,5.309H94.942a2.654,2.654,0,1,0,0-5.308Zm-.017-12.482a5.6,5.6,0,0,1-3.986-1.651,5.661,5.661,0,0,1,3.984-9.657h33.31a5.654,5.654,0,1,1,0,11.308H74.138Zm0-8.308a2.658,2.658,0,0,0-2.64,2.654v.006A2.655,2.655,0,0,0,72.27,73.5a2.62,2.62,0,0,0,1.865.773h33.308a2.654,2.654,0,0,0,0-5.308Zm.014-12.482a5.618,5.618,0,0,1-3.991-1.649,5.693,5.693,0,0,1-1.663-4h0a5.693,5.693,0,0,1,1.663-4,5.618,5.618,0,0,1,3.991-1.649H157.31a5.654,5.654,0,1,1,0,11.308H74.154Zm0-8.308a2.654,2.654,0,1,0,0,5.308H157.31a2.654,2.654,0,1,0,0-5.308H74.154Z" transform="translate(-69.5 -41.17)" fill="#fff"/>
  </g>
</svg>
