<svg xmlns="http://www.w3.org/2000/svg" xmlns:xlink="http://www.w3.org/1999/xlink" width="20" height="20" viewBox="0 0 20 20"><defs><style>.a{fill:#13b5ea;}.b{clip-path:url(#a);}.c{fill:#fff;}</style><clipPath id="a"><rect class="a" width="20" height="20" rx="5"/></clipPath></defs><rect class="a" width="20" height="20" rx="5"/><g class="b"><g transform="translate(0 -1)"><path class="a" d="M1627.515,3619.809c5.523,0,10-4.925,10-11s-4.477-11-10-11-10,4.924-10,11,4.477,11,10,11" transform="translate(-1617.515 -3597.809)"/><path class="c" d="M1622.3,3608.78l1.707-1.883a.36.36,0,0,0-.031-.475.284.284,0,0,0-.4,0l-1.705,1.874-1.713-1.879a.286.286,0,0,0-.432,0,.356.356,0,0,0,0,.474l1.707,1.877-1.707,1.877a.361.361,0,0,0-.016.476.288.288,0,0,0,.433.019l.012-.015,1.711-1.878,1.7,1.871a.288.288,0,0,0,.432.015.362.362,0,0,0,.007-.483l-1.705-1.88m10.145,0a.558.558,0,1,0,.556-.612.586.586,0,0,0-.556.612m-1.055,0a1.616,1.616,0,1,1,1.609,1.77,1.7,1.7,0,0,1-1.609-1.77m-.633,0a2.253,2.253,0,1,0,2.243-2.467,2.366,2.366,0,0,0-2.243,2.467m-.159-2.425h-.095a1.2,1.2,0,0,0-.783.292.3.3,0,0,0-.6.068v4.156a.318.318,0,0,0,.323.316.323.323,0,0,0,.288-.318v-2.553c0-.852.071-1.2.733-1.287a1.114,1.114,0,0,1,.129-.006.318.318,0,0,0,.311-.331.325.325,0,0,0-.308-.337m-5.869,2.019v-.029a1.613,1.613,0,0,1,1.967-1.287,1.709,1.709,0,0,1,1.179,1.315h-3.147Zm3.772-.064a2.485,2.485,0,0,0-.992-1.612,2.092,2.092,0,0,0-2.5.075,2.623,2.623,0,0,0-.879,2.62,2.347,2.347,0,0,0,1.9,1.842,1.954,1.954,0,0,0,.805-.059,2.135,2.135,0,0,0,.671-.315,2.519,2.519,0,0,0,.575-.6l.009-.013a.392.392,0,0,0-.033-.516.29.29,0,0,0-.452.076c-.032.052-.068.1-.107.154a1.8,1.8,0,0,1-.443.392,1.512,1.512,0,0,1-.753.209,1.672,1.672,0,0,1-1.535-1.181,2.032,2.032,0,0,1-.068-.284l0-.051h3.192a.6.6,0,0,0,.608-.738Z" transform="translate(-1617.515 -3597.809)"/></g></g></svg>