<svg xmlns="http://www.w3.org/2000/svg" xmlns:xlink="http://www.w3.org/1999/xlink" width="100" height="100" viewBox="0 0 100 100">
  <defs>
    <clipPath id="clip-path">
      <rect id="Rectangle_4" data-name="Rectangle 4" width="100" height="100" fill="#fff"/>
    </clipPath>
  </defs>
  <g id="Mask_Group_2" data-name="Mask Group 2" clip-path="url(#clip-path)">
    <path id="twitter-icon" d="M97.539,18.66a38.889,38.889,0,0,1-6.771,2.283,21.112,21.112,0,0,0,5.573-8.875h0a1.107,1.107,0,0,0-1.619-1.289h0A39.071,39.071,0,0,1,84.37,15.056a2.637,2.637,0,0,1-.647.081,2.744,2.744,0,0,1-1.812-.692A21.171,21.171,0,0,0,67.9,9.157a22.637,22.637,0,0,0-6.707,1.035A20.511,20.511,0,0,0,47.371,24.971a22.584,22.584,0,0,0-.5,7.8.758.758,0,0,1-.191.594.785.785,0,0,1-.584.265c-.025,0-.05,0-.075,0A55.514,55.514,0,0,1,7.864,13.237h0a1.107,1.107,0,0,0-1.814.142h0A21.2,21.2,0,0,0,9.494,39.114a18.974,18.974,0,0,1-4.829-1.869h0A1.107,1.107,0,0,0,3.02,38.2h0a21.2,21.2,0,0,0,12.365,19.53q-.226.005-.452.005a19.049,19.049,0,0,1-3.567-.34h0A1.107,1.107,0,0,0,10.1,58.819h0a21.219,21.219,0,0,0,16.76,14.432A39.068,39.068,0,0,1,4.984,79.9H2.535A1.621,1.621,0,0,0,.951,81.117a1.677,1.677,0,0,0,.8,1.853,58.109,58.109,0,0,0,29.2,7.873,58.905,58.905,0,0,0,24.953-5.294A55.1,55.1,0,0,0,74.163,71.868,59.981,59.981,0,0,0,85.342,53.145a59.146,59.146,0,0,0,3.8-20.492v-.322a3.6,3.6,0,0,1,1.348-2.8,41.844,41.844,0,0,0,8.418-9.24h0a1.107,1.107,0,0,0-1.369-1.626Z" transform="translate(0.097 -0.157)"/>
  </g>
</svg>
