<svg xmlns="http://www.w3.org/2000/svg" xmlns:xlink="http://www.w3.org/1999/xlink" width="686" height="90" viewBox="0 0 686 90">
  <defs>
    <clipPath id="clip-path">
      <rect id="Rectangle_3" data-name="Rectangle 3" width="686" height="90" fill="#fff"/>
    </clipPath>
  </defs>
  <g id="Mask_Group_2" data-name="Mask Group 2" clip-path="url(#clip-path)">
    <g id="bobst-vector-logo" transform="translate(-20.3 -282)">
      <path id="Path_30" data-name="Path 30" d="M20.3,370.973h81.091a7.117,7.117,0,0,0,7.081-7.081V282.8H27.381a7.117,7.117,0,0,0-7.081,7.081Z" transform="translate(0 0.114)" fill="#df001f"/>
      <path id="Path_31" data-name="Path 31" d="M251.6,313.865c0-25.812,12.906-31.865,34.492-31.865h34.835c21.7,0,34.492,6.053,34.492,31.865v26.269c0,25.812-12.906,31.865-34.492,31.865H286.092c-21.7,0-34.492-6.053-34.492-31.865Zm23.985,18.388c0,12.792,2.4,17.7,13.706,17.7h28.325c11.307,0,13.706-4.911,13.706-17.7V321.746c0-10.964-2.4-17.7-15.076-17.7h-25.7c-12.678,0-15.076,6.739-15.076,17.7v10.508Z" transform="translate(32.875)" fill="#231815"/>
      <path id="Path_32" data-name="Path 32" d="M545.782,308.041c0-15.419-2.627-26.041-30.266-26.041H481.937c-30.266,0-31.637,12.335-31.637,28.211,0,21.7,4.112,26.5,40.317,26.5,30.952,0,33.807.457,33.807,8.109,0,6.853-5.254,7.424-10.279,7.424H484.678c-6.4,0-9.822-.685-10.279-8.223H450.3v4.226c0,19.074,8.794,23.756,30.609,23.756h29.124c31.98,0,39.061-3.883,39.061-27.64,0-25.7-8.68-28.211-46.028-28.1-25.812.114-28.667-.114-28.667-7.766,0-4.8,3.655-6.853,9.137-6.853h26.612c9.822,0,11.421,2.056,11.65,7.081h24.1v-.685Z" transform="translate(61.117)" fill="#231815"/>
      <path id="Path_33" data-name="Path 33" d="M631.7,282.914v21.129H597.892v66.929H573.907V304.044H540.1V289.881a7.117,7.117,0,0,1,7.081-7.081H631.7Z" transform="translate(73.88 0.114)" fill="#231815"/>
      <path id="Path_34" data-name="Path 34" d="M439.617,326.529v-.343c6.739-2.17,11.536-5.14,11.536-20.216,0-17.246-9.366-23.071-28.439-23.071H360.581a7.117,7.117,0,0,0-7.081,7.081v81.091h76.523c13.706,0,23.871-4,23.871-23.414.228-13.249-3.769-19.645-14.277-21.129m-62.018-22.5h42.487c4.454,0,7.081,1.827,7.081,6.967,0,5.025-2.627,6.853-7.081,6.853H377.6Zm43.173,45.8H377.713v-13.82h43.058c5.14,0,8.68,1.371,8.68,7.31-.114,5.14-3.541,6.51-8.68,6.51" transform="translate(47.358 0.128)" fill="#231815"/>
      <path id="Path_35" data-name="Path 35" d="M241.317,326.529v-.343c6.739-2.17,11.536-5.14,11.536-20.216,0-17.246-9.365-23.071-28.439-23.071H162.281a7.117,7.117,0,0,0-7.081,7.081v81.091h76.523c13.706,0,23.871-4,23.871-23.414.114-13.249-3.769-19.645-14.277-21.129m-62.018-22.5h42.487c4.454,0,7.081,1.827,7.081,6.967,0,5.025-2.627,6.853-7.081,6.853H179.3Zm43.173,45.8H179.413v-13.82h43.058c5.14,0,8.68,1.371,8.68,7.31-.114,5.14-3.541,6.51-8.68,6.51" transform="translate(19.174 0.128)" fill="#231815"/>
    </g>
  </g>
</svg>
