<svg xmlns="http://www.w3.org/2000/svg" width="60.339" height="52.161" viewBox="0 0 60.339 52.161">
  <g id="communication" transform="translate(-71.118 -39.199)">
    <path id="Path_164" data-name="Path 164" d="M75.419,91.3a4.318,4.318,0,0,1-4.3-4.3V84.332h3.7V57.07a3.9,3.9,0,0,1,3.877-3.877H92.867v5.331H80.084V84.392h13.57v.242a1.474,1.474,0,0,0,1.454,1.454h7.451a1.474,1.474,0,0,0,1.454-1.454v-.242h13.631V73.548h5.331V84.392h3.635v2.666a4.318,4.318,0,0,1-4.3,4.3H75.42Zm56.038-41.922v16.66a3.581,3.581,0,0,1-3.574,3.574H108.255l-6.179,6.119a.536.536,0,0,1-.909-.363V69.611h-.788a3.581,3.581,0,0,1-3.574-3.574V49.377a3.581,3.581,0,0,1,3.574-3.574h27.443a3.556,3.556,0,0,1,3.635,3.574ZM109.89,56.283h-3.15v3.15h3.15Zm5.816,0h-3.15v3.15h3.15Zm5.816,0h-3.15v3.15h3.15ZM109.89,42.349V39.2h-3.15v3.15Zm5.816,0V39.2h-3.15v3.15Zm5.816,0V39.2h-3.15v3.15Z" transform="translate(0)"/>
  </g>
</svg>
