<svg id="Group_8422" data-name="Group 8422" xmlns="http://www.w3.org/2000/svg" xmlns:xlink="http://www.w3.org/1999/xlink" width="250.604" height="350.361" viewBox="0 0 250.604 350.361">
  <defs>
    <clipPath id="clip-path">
      <rect id="Rectangle_6530" data-name="Rectangle 6530" width="250.604" height="350.361" fill="none"/>
    </clipPath>
    <clipPath id="clip-path-2">
      <rect id="Rectangle_6529" data-name="Rectangle 6529" width="250.604" height="350.362" fill="none"/>
    </clipPath>
    <clipPath id="clip-path-3">
      <rect id="Rectangle_6507" data-name="Rectangle 6507" width="250.604" height="19.302" fill="#f5f5f5"/>
    </clipPath>
    <clipPath id="clip-path-4">
      <rect id="Rectangle_6508" data-name="Rectangle 6508" width="28.819" height="12.969" fill="none"/>
    </clipPath>
    <clipPath id="clip-path-5">
      <rect id="Rectangle_6509" data-name="Rectangle 6509" width="13.439" height="13.721" fill="none"/>
    </clipPath>
    <clipPath id="clip-path-6">
      <rect id="Rectangle_6510" data-name="Rectangle 6510" width="20.361" height="20.789" fill="none"/>
    </clipPath>
    <clipPath id="clip-path-7">
      <rect id="Rectangle_6512" data-name="Rectangle 6512" width="13.911" height="81.308" fill="none"/>
    </clipPath>
    <clipPath id="clip-path-9">
      <rect id="Rectangle_6513" data-name="Rectangle 6513" width="8.686" height="49.414" fill="none"/>
    </clipPath>
    <clipPath id="clip-path-10">
      <rect id="Rectangle_6514" data-name="Rectangle 6514" width="5.534" height="3.164" fill="none"/>
    </clipPath>
    <clipPath id="clip-path-11">
      <rect id="Rectangle_6515" data-name="Rectangle 6515" width="5.538" height="3.164" fill="none"/>
    </clipPath>
    <clipPath id="clip-path-16">
      <rect id="Rectangle_6520" data-name="Rectangle 6520" width="9.527" height="50.228" fill="none"/>
    </clipPath>
    <clipPath id="clip-path-17">
      <rect id="Rectangle_6521" data-name="Rectangle 6521" width="10.245" height="3.205" fill="none"/>
    </clipPath>
    <clipPath id="clip-path-18">
      <rect id="Rectangle_6522" data-name="Rectangle 6522" width="37.312" height="11.137" fill="none"/>
    </clipPath>
    <clipPath id="clip-path-19">
      <rect id="Rectangle_6523" data-name="Rectangle 6523" width="3.768" height="1.56" fill="none"/>
    </clipPath>
    <clipPath id="clip-path-20">
      <rect id="Rectangle_6524" data-name="Rectangle 6524" width="18.317" height="17.592" fill="none"/>
    </clipPath>
    <clipPath id="clip-path-21">
      <rect id="Rectangle_6525" data-name="Rectangle 6525" width="24.314" height="42.97" fill="none"/>
    </clipPath>
    <clipPath id="clip-path-22">
      <rect id="Rectangle_6526" data-name="Rectangle 6526" width="11.679" height="31.003" fill="none"/>
    </clipPath>
    <clipPath id="clip-path-23">
      <rect id="Rectangle_6527" data-name="Rectangle 6527" width="36.033" height="17.598" fill="none"/>
    </clipPath>
  </defs>
  <g id="Group_8421" data-name="Group 8421" clip-path="url(#clip-path)">
    <g id="Group_8420" data-name="Group 8420" transform="translate(0 -0.001)">
      <g id="Group_8419" data-name="Group 8419" clip-path="url(#clip-path-2)">
        <g id="Group_8358" data-name="Group 8358" transform="translate(0 331.06)" opacity="0.2">
          <g id="Group_8357" data-name="Group 8357">
            <g id="Group_8356" data-name="Group 8356" clip-path="url(#clip-path-3)">
              <path id="Path_2717" data-name="Path 2717" d="M0,655.474c0,5.33,56.1,9.65,125.3,9.65s125.3-4.319,125.3-9.65-56.1-9.652-125.3-9.652S0,650.143,0,655.474" transform="translate(0 -645.822)"/>
            </g>
          </g>
        </g>
        <path id="Path_2718" data-name="Path 2718" d="M116.575,244.49q.228-32.2,9.545-47.148T163.265,161a121.281,121.281,0,0,0,26.1-28.751,63.042,63.042,0,0,0,9.776-34.5q0-21.161-11.153-33.121T156.136,52.67q-17.026,0-28.865,10.12T115.2,92.462H49.877l-.462-1.382q-.687-44.159,29.1-67.618T156.136,0q51.52,0,80.846,26.105T266.3,97.061q0,29.207-17.135,54.049a153.109,153.109,0,0,1-42.892,41.632q-14.033,10.813-18.4,21.735t-4.372,30.012Zm67.392,95.222H116.345v-57.5h67.622Z" transform="translate(-24.077 0.001)" fill="#d1cdcc"/>
        <g id="Group_8361" data-name="Group 8361" transform="translate(92.237 282.306)" opacity="0.31" style="mix-blend-mode: multiply;isolation: isolate">
          <g id="Group_8360" data-name="Group 8360">
            <g id="Group_8359" data-name="Group 8359" clip-path="url(#clip-path-4)">
              <path id="Path_2719" data-name="Path 2719" d="M179.933,550.714v12.969c3.1-.854,12.041-3.576,16.5-5.211,7.5-2.754,10.836-5.059,12.324-7.758Z" transform="translate(-179.933 -550.714)" fill="#632824"/>
            </g>
          </g>
        </g>
        <path id="Path_2720" data-name="Path 2720" d="M24,633.951l-.7.574,5.417,6.552,2.566-2.12c1.459-1.208-13.642-17.2-17.533-18.744.012,0-1.354,1.119-1.354,1.119l5.553,6.717a37.61,37.61,0,0,0,6.046,5.9" transform="translate(-6.043 -302.281)" fill="#1d282e"/>
        <path id="Path_2721" data-name="Path 2721" d="M26.637,631.995a37.745,37.745,0,0,1,5.935,6.124c2.083-1.673,4.561-4.065,6.611-5.944,1.965-1.877-2.122-6.094-6.024-5.654-5.422-.514-12.379-7.8-15.422-8.017a3.788,3.788,0,0,0-2.7.872l5.553,6.717a38.923,38.923,0,0,0,6.045,5.9" transform="translate(-7.33 -301.443)" fill="#2b434a"/>
        <path id="Path_2722" data-name="Path 2722" d="M123.769,657.365l.011.9,8.5-.1s-.024-1.971-.04-3.329c-.023-1.9-21.955-.186-25.6,1.876.007-.01.021,1.756.021,1.756l8.715-.1a37.593,37.593,0,0,0,8.389-1" transform="translate(-51.977 -318.756)" fill="#1d282e"/>
        <path id="Path_2723" data-name="Path 2723" d="M123.746,645.91a37.687,37.687,0,0,1,8.493-.773c.085-2.543.031-3.2.031-8.254-.227-2.708-7.084-4.171-9.192-.857-1.065,6.121-13.342,6.107-15.421,8.339a3.785,3.785,0,0,0-1.015,2.648l8.715-.1a38.912,38.912,0,0,0,8.389-1" transform="translate(-51.974 -309.056)" fill="#2b434a"/>
        <path id="Path_2724" data-name="Path 2724" d="M132.14,507.707s-28.707,3.93-39.728,5.81c-5.4.921-19.432,3.158-13.243,17.6,7.185,16.765,28.365,44.854,28.365,44.854H118.9L96.513,530.86l48.961-6.55s16.2-19.667-13.334-16.6" transform="translate(-37.832 -247.289)" fill="#152429"/>
        <path id="Path_2725" data-name="Path 2725" d="M147.548,512.015s-28.461,3.379-34.582,3.512c-.282.006-2.427,6.521-2.753,6.655C94.92,528.419,83.775,533.562,69.63,546.36a142.622,142.622,0,0,0-23.324,27.6l7.433,8.714s20.35-22.572,35.372-31.655c19.991-12.088,45.516-14.493,51.944-19.265,8.287-6.151,6.493-19.736,6.493-19.736" transform="translate(-22.569 -249.547)" fill="#1b2f35"/>
        <path id="Path_2726" data-name="Path 2726" d="M137.524,383.136c1.171-.6,1.23,1,3.467,2.526,5.841,3.977-.33,25.386-4.232,39.934-2.024,7.539-5.691,11.926-9.58,12.418-3.339.422-8.522-2.767-7.429-9.329,1.775-10.644,4.836-19.252,7.808-29.871,1.838-6.571,5-13.141,9.966-15.678" transform="translate(-58.291 -186.671)" fill="#152429"/>
        <path id="Path_2727" data-name="Path 2727" d="M169.618,362.541c.387,2.751,2.777,5.927,7.454,5.279s5.533-4.366,5.155-7.054c-.554-3.937-2.553-18.148-2.553-18.148L167.8,349.657s1.237,8.792,1.813,12.884" transform="translate(-81.785 -166.986)" fill="#e0a47c"/>
        <g id="Group_8364" data-name="Group 8364" transform="translate(86.197 177.23)" style="mix-blend-mode: multiply;isolation: isolate">
          <g id="Group_8363" data-name="Group 8363">
            <g id="Group_8362" data-name="Group 8362" clip-path="url(#clip-path-5)">
              <path id="Path_2728" data-name="Path 2728" d="M181.589,356.895a15.639,15.639,0,0,1-12.571,2.043l-.868-6.166,11.869-7.038s.831,5.908,1.57,11.161" transform="translate(-168.15 -345.734)" fill="#f2e6dc"/>
            </g>
          </g>
        </g>
        <path id="Path_2729" data-name="Path 2729" d="M148.846,381.472s8.112-8.258,10.4-9.279l.248,1.759c.515,3.659,2.047,7.364,4.97,6.953,3.006-.423,9.2-5.215,8.682-8.874l-.247-1.76a6.507,6.507,0,0,1,3.336,1.148l10.016,77.066s-5.958.656-17.317-.445c-9.51-.922-12.5-5.023-12.5-5.023Z" transform="translate(-72.545 -180.464)" fill="#d8eaef"/>
        <path id="Path_2730" data-name="Path 2730" d="M174.712,400.41l-2.826-6.772,3.51-2.812,3.876,3.218-2.384,6.26s.443,11.618,1.408,22.228c.931,10.246,1.836,24.523,1.836,24.523l-4.7,7.774-3.416-9.249s.649-13.054.853-18.689c.6-16.489,1.842-26.481,1.842-26.481" transform="translate(-83.774 -190.481)" fill="#aa0e0e"/>
        <g id="Group_8367" data-name="Group 8367" transform="translate(83.816 190.102)" opacity="0.26">
          <g id="Group_8366" data-name="Group 8366">
            <g id="Group_8365" data-name="Group 8365" clip-path="url(#clip-path-6)">
              <path id="Path_2731" data-name="Path 2731" d="M163.506,375.843l3.263-3.156,4.477,8.588,8.614-10.43,4.007,2.133-6.752,17.514-5.622-8.249-5.17,9.391Z" transform="translate(-163.506 -370.845)" fill="#1f363d"/>
            </g>
          </g>
        </g>
        <path id="Path_2732" data-name="Path 2732" d="M163.785,374.994l3.146-3.141,4.553,9.768-4.942,9.292Z" transform="translate(-79.826 -181.234)" fill="#fff"/>
        <path id="Path_2733" data-name="Path 2733" d="M190.817,370.526l-3.891-2.15L178.8,379.927l5.706,7.892Z" transform="translate(-87.146 -179.54)" fill="#fff"/>
        <path id="Path_2734" data-name="Path 2734" d="M219.974,407.455a273.24,273.24,0,0,1,.372,48.1c-3.481,3.42-21.508,8.119-28.6,8.461,0,0,.171-21.017,0-41.266-.041-4.795-.485-9.924-.4-13,.419-15.632,4.209-37.939,4.209-37.939a23.29,23.29,0,0,1,4.168.692c5,1.42,16.98,2.874,20.254,34.95" transform="translate(-93.253 -181.215)" fill="#1f363d"/>
        <g id="Group_8373" data-name="Group 8373" transform="translate(73.318 193.119)" opacity="0.25">
          <g id="Group_8372" data-name="Group 8372">
            <g id="Group_8371" data-name="Group 8371" clip-path="url(#clip-path-7)">
              <g id="Group_8370" data-name="Group 8370" style="mix-blend-mode: multiply;isolation: isolate">
                <g id="Group_8369" data-name="Group 8369">
                  <g id="Group_8368" data-name="Group 8368" clip-path="url(#clip-path-7)">
                    <path id="Path_2735" data-name="Path 2735" d="M145.046,416.326c6.144,27.543,1.754,27.943,1.754,27.943,0,3.859,2.474,11.906,7,13.769,0,0,4.121-4.293,2.919-31.25-.2-4.438-1.338-16.006-1.374-18.372-.064-4.13-.858-20.776-.088-31.686a14.564,14.564,0,0,0-2.548,1.347c-4.253,2.366-13.845,10.533-7.661,38.249" transform="translate(-143.026 -376.73)" fill="#0d2528"/>
                  </g>
                </g>
              </g>
            </g>
          </g>
        </g>
        <g id="Group_8376" data-name="Group 8376" transform="translate(76.197 193.115)" opacity="0.76">
          <g id="Group_8375" data-name="Group 8375">
            <g id="Group_8374" data-name="Group 8374" clip-path="url(#clip-path-9)">
              <path id="Path_2736" data-name="Path 2736" d="M151.814,380.388l5.515-3.664s-.748,7.349-1.784,18.435c-.877,9.427,1.658,30.979,1.658,30.979l-8.231-25.781,3.857-4.337-4.187-2.551Z" transform="translate(-148.643 -376.723)" fill="#0d2528"/>
            </g>
          </g>
        </g>
        <path id="Path_2737" data-name="Path 2737" d="M142.513,418.365c5.348,20.306,3.484,23.367.69,26.16-1.084,1.083,2.395,10.512,7.451,12.907A92.523,92.523,0,0,0,153,426c-.493-4.416-.542-8-.763-10.355-1.641-17.547,1.456-39.205,1.456-39.205a31.339,31.339,0,0,0-3.815,1.816c-4.254,2.366-14.593,12.651-7.362,40.111" transform="translate(-68.241 -183.469)" fill="#1f363d"/>
        <path id="Path_2738" data-name="Path 2738" d="M152.443,378.661l6.342-3.873s-.747,7.35-1.783,18.434c-.877,9.428.911,31.971.911,31.971l-7.484-26.773,3.858-4.337-4.187-2.551Z" transform="translate(-73.156 -182.665)" fill="#334f57"/>
        <path id="Path_2739" data-name="Path 2739" d="M159.13,480.783a1.2,1.2,0,1,0,1.02-1.355,1.2,1.2,0,0,0-1.02,1.355" transform="translate(-77.551 -233.659)" fill="#334f57"/>
        <path id="Path_2740" data-name="Path 2740" d="M160.136,506.367a1.026,1.026,0,1,0,1.081-1.136,1.115,1.115,0,0,0-1.081,1.136" transform="translate(-78.046 -246.24)" fill="#334f57"/>
        <path id="Path_2741" data-name="Path 2741" d="M132.04,329.269a3.529,3.529,0,0,0-.984-6.989l-2.767.39a3.529,3.529,0,0,0,.984,6.989Z" transform="translate(-61.048 -157.056)" fill="#eaae86"/>
        <g id="Group_8379" data-name="Group 8379" transform="translate(66.351 167.329)" style="mix-blend-mode: multiply;isolation: isolate">
          <g id="Group_8378" data-name="Group 8378">
            <g id="Group_8377" data-name="Group 8377" clip-path="url(#clip-path-10)">
              <path id="Path_2742" data-name="Path 2742" d="M133.779,329.183a1.388,1.388,0,0,0-.387-2.749l-2.767.389a1.388,1.388,0,0,0,.387,2.749Z" transform="translate(-129.436 -326.421)" fill="#f2e6dc"/>
            </g>
          </g>
        </g>
        <path id="Path_2743" data-name="Path 2743" d="M204.275,319.1a3.529,3.529,0,1,0-.984-6.988l-2.765.39a3.529,3.529,0,1,0,.984,6.988Z" transform="translate(-96.253 -152.103)" fill="#eaae86"/>
        <g id="Group_8382" data-name="Group 8382" transform="translate(103.379 162.119)" style="mix-blend-mode: multiply;isolation: isolate">
          <g id="Group_8381" data-name="Group 8381">
            <g id="Group_8380" data-name="Group 8380" clip-path="url(#clip-path-11)">
              <path id="Path_2744" data-name="Path 2744" d="M206.014,319.019a1.387,1.387,0,0,0-.387-2.748l-2.765.389a1.388,1.388,0,0,0,.387,2.748Z" transform="translate(-201.669 -316.257)" fill="#f2e6dc"/>
            </g>
          </g>
        </g>
        <path id="Path_2745" data-name="Path 2745" d="M147.479,264.348c-9.91,1.395-17.05,8.89-15.655,18.8l3.232,22.969c1.394,9.909,10.776,18.357,20.687,16.962s16.6-12.1,15.2-22.012l-3.232-22.97c-1.394-9.912-10.328-15.146-20.237-13.751" transform="translate(-64.164 -128.73)" fill="#fcc49a"/>
        <path id="Path_2746" data-name="Path 2746" d="M167.27,334.4a5.452,5.452,0,0,0,2.612.112,7.469,7.469,0,0,0,2.528-.8,2.3,2.3,0,0,1-2.122,2.578,2.376,2.376,0,0,1-3.018-1.891" transform="translate(-81.525 -162.645)" fill="#e2a479"/>
        <path id="Path_2747" data-name="Path 2747" d="M177.166,301.212l5.518,2.037a.75.75,0,0,0,.519-1.407l-5.519-2.037a.75.75,0,1,0-.518,1.407" transform="translate(-86.109 -146.097)" fill="#3f2615"/>
        <path id="Path_2748" data-name="Path 2748" d="M148.654,311.051a.75.75,0,0,0-.708-1.3l-5.709,1.941a.749.749,0,0,0,.482,1.419l5.71-1.94a.763.763,0,0,0,.225-.123" transform="translate(-69.076 -150.949)" fill="#3f2615"/>
        <path id="Path_2749" data-name="Path 2749" d="M126.981,264.95c-1.122-8.48,5.394-14.007,5.394-14.007a22.951,22.951,0,0,1,9.876-5.056c-.648,1.314-1.749,3.615-1.079,2.782,1.833-2.284,6.576-3.58,8.565-4.04a15.819,15.819,0,0,1,4.011-.01c.028,2.207-3.237,4.584-1.611,4.372,2.362-.305,4.416-3.463,4.853-3.17,7.1,4.737,8.059,11.305,8.426,15.036.433,4.358,1.526,18.449,1.526,18.449s-1.51-8.13-1.937-11.185c-.791-5.685-5.6-10.259-9.933-7.31-3.05,2.075-5.325,2.858-10.09,2.99-7.321.2-9.1.106-10.874.175-3.9.155-5.017,3.908-4.548,7.246.313,2.225,1.362,12.4,1.362,12.4s-3.166-12.811-3.942-18.671" transform="translate(-61.825 -119.173)" fill="#774a07"/>
        <path id="Path_2750" data-name="Path 2750" d="M132.04,329.269a3.529,3.529,0,0,0-.984-6.989l-2.767.39a3.529,3.529,0,0,0,.984,6.989Z" transform="translate(-61.048 -157.056)" fill="#eaae86"/>
        <g id="Group_8385" data-name="Group 8385" transform="translate(66.351 167.329)" style="mix-blend-mode: multiply;isolation: isolate">
          <g id="Group_8384" data-name="Group 8384">
            <g id="Group_8383" data-name="Group 8383" clip-path="url(#clip-path-10)">
              <path id="Path_2751" data-name="Path 2751" d="M133.779,329.183a1.388,1.388,0,0,0-.387-2.749l-2.767.389a1.388,1.388,0,0,0,.387,2.749Z" transform="translate(-129.436 -326.421)" fill="#f2e6dc"/>
            </g>
          </g>
        </g>
        <path id="Path_2752" data-name="Path 2752" d="M204.275,319.1a3.529,3.529,0,1,0-.984-6.988l-2.765.39a3.529,3.529,0,1,0,.984,6.988Z" transform="translate(-96.253 -152.103)" fill="#eaae86"/>
        <g id="Group_8388" data-name="Group 8388" transform="translate(103.379 162.119)" style="mix-blend-mode: multiply;isolation: isolate">
          <g id="Group_8387" data-name="Group 8387">
            <g id="Group_8386" data-name="Group 8386" clip-path="url(#clip-path-11)">
              <path id="Path_2753" data-name="Path 2753" d="M206.014,319.019a1.387,1.387,0,0,0-.387-2.748l-2.765.389a1.388,1.388,0,0,0,.387,2.748Z" transform="translate(-201.669 -316.257)" fill="#f2e6dc"/>
            </g>
          </g>
        </g>
        <path id="Path_2754" data-name="Path 2754" d="M147.479,264.348c-9.91,1.395-17.05,8.89-15.655,18.8l3.232,22.969c1.394,9.909,10.776,18.357,20.687,16.962s16.6-12.1,15.2-22.012l-3.232-22.97c-1.394-9.912-10.328-15.146-20.237-13.751" transform="translate(-64.164 -128.73)" fill="#fcc49a"/>
        <path id="Path_2755" data-name="Path 2755" d="M167.27,334.4a5.452,5.452,0,0,0,2.612.112,7.469,7.469,0,0,0,2.528-.8,2.3,2.3,0,0,1-2.122,2.578,2.376,2.376,0,0,1-3.018-1.891" transform="translate(-81.525 -162.645)" fill="#e2a479"/>
        <path id="Path_2756" data-name="Path 2756" d="M177.166,301.212l5.518,2.037a.75.75,0,0,0,.519-1.407l-5.519-2.037a.75.75,0,1,0-.518,1.407" transform="translate(-86.109 -146.097)" fill="#3f2615"/>
        <path id="Path_2757" data-name="Path 2757" d="M148.654,311.051a.75.75,0,0,0-.708-1.3l-5.709,1.941a.749.749,0,0,0,.482,1.419l5.71-1.94a.763.763,0,0,0,.225-.123" transform="translate(-69.076 -150.949)" fill="#3f2615"/>
        <path id="Path_2758" data-name="Path 2758" d="M126.981,264.95c-1.122-8.48,5.394-14.007,5.394-14.007a22.951,22.951,0,0,1,9.876-5.056c-.648,1.314-1.749,3.615-1.079,2.782,1.833-2.284,6.576-3.58,8.565-4.04a15.819,15.819,0,0,1,4.011-.01c.028,2.207-3.237,4.584-1.611,4.372,2.362-.305,4.416-3.463,4.853-3.17,7.1,4.737,8.059,11.305,8.426,15.036.433,4.358,1.526,18.449,1.526,18.449s-1.51-8.13-1.937-11.185c-.791-5.685-5.6-10.259-9.933-7.31-3.05,2.075-5.325,2.858-10.09,2.99-7.321.2-9.1.106-10.874.175-3.9.155-5.017,3.908-4.548,7.246.313,2.225,1.362,12.4,1.362,12.4s-3.166-12.811-3.942-18.671" transform="translate(-61.825 -119.173)" fill="#774a07"/>
        <path id="Path_2759" data-name="Path 2759" d="M132.04,329.269a3.529,3.529,0,0,0-.984-6.989l-2.767.39a3.529,3.529,0,0,0,.984,6.989Z" transform="translate(-61.048 -157.056)" fill="#eaae86"/>
        <g id="Group_8391" data-name="Group 8391" transform="translate(66.351 167.329)" style="mix-blend-mode: multiply;isolation: isolate">
          <g id="Group_8390" data-name="Group 8390">
            <g id="Group_8389" data-name="Group 8389" clip-path="url(#clip-path-10)">
              <path id="Path_2760" data-name="Path 2760" d="M133.779,329.183a1.388,1.388,0,0,0-.387-2.749l-2.767.389a1.388,1.388,0,0,0,.387,2.749Z" transform="translate(-129.436 -326.421)" fill="#f2e6dc"/>
            </g>
          </g>
        </g>
        <path id="Path_2761" data-name="Path 2761" d="M204.275,319.1a3.529,3.529,0,1,0-.984-6.988l-2.765.39a3.529,3.529,0,1,0,.984,6.988Z" transform="translate(-96.253 -152.103)" fill="#eaae86"/>
        <g id="Group_8394" data-name="Group 8394" transform="translate(103.379 162.119)" style="mix-blend-mode: multiply;isolation: isolate">
          <g id="Group_8393" data-name="Group 8393">
            <g id="Group_8392" data-name="Group 8392" clip-path="url(#clip-path-11)">
              <path id="Path_2762" data-name="Path 2762" d="M206.014,319.019a1.387,1.387,0,0,0-.387-2.748l-2.765.389a1.388,1.388,0,0,0,.387,2.748Z" transform="translate(-201.669 -316.257)" fill="#f2e6dc"/>
            </g>
          </g>
        </g>
        <path id="Path_2763" data-name="Path 2763" d="M147.479,264.348c-9.91,1.395-17.05,8.89-15.655,18.8l3.232,22.969c1.394,9.909,10.776,18.357,20.687,16.962s16.6-12.1,15.2-22.012l-3.232-22.97c-1.394-9.912-10.328-15.146-20.237-13.751" transform="translate(-64.164 -128.73)" fill="#fcc49a"/>
        <path id="Path_2764" data-name="Path 2764" d="M167.27,334.4a5.452,5.452,0,0,0,2.612.112,7.469,7.469,0,0,0,2.528-.8,2.3,2.3,0,0,1-2.122,2.578,2.376,2.376,0,0,1-3.018-1.891" transform="translate(-81.525 -162.645)" fill="#e2a479"/>
        <path id="Path_2765" data-name="Path 2765" d="M177.166,301.212l5.518,2.037a.75.75,0,0,0,.519-1.407l-5.519-2.037a.75.75,0,1,0-.518,1.407" transform="translate(-86.109 -146.097)" fill="#3f2615"/>
        <path id="Path_2766" data-name="Path 2766" d="M148.654,311.051a.75.75,0,0,0-.708-1.3l-5.709,1.941a.749.749,0,0,0,.482,1.419l5.71-1.94a.763.763,0,0,0,.225-.123" transform="translate(-69.076 -150.949)" fill="#3f2615"/>
        <path id="Path_2767" data-name="Path 2767" d="M126.981,264.95c-1.122-8.48,5.394-14.007,5.394-14.007a22.951,22.951,0,0,1,9.876-5.056c-.648,1.314-1.749,3.615-1.079,2.782,1.833-2.284,6.576-3.58,8.565-4.04a15.819,15.819,0,0,1,4.011-.01c.028,2.207-3.237,4.584-1.611,4.372,2.362-.305,4.416-3.463,4.853-3.17,7.1,4.737,8.059,11.305,8.426,15.036.433,4.358,1.526,18.449,1.526,18.449s-1.51-8.13-1.937-11.185c-.791-5.685-5.6-10.259-9.933-7.31-3.05,2.075-5.325,2.858-10.09,2.99-7.321.2-9.1.106-10.874.175-3.9.155-5.017,3.908-4.548,7.246.313,2.225,1.362,12.4,1.362,12.4s-3.166-12.811-3.942-18.671" transform="translate(-61.825 -119.173)" fill="#774a07"/>
        <g id="Group_8397" data-name="Group 8397" transform="translate(98.812 190.458)" opacity="0.76">
          <g id="Group_8396" data-name="Group 8396">
            <g id="Group_8395" data-name="Group 8395" clip-path="url(#clip-path-16)">
              <path id="Path_2768" data-name="Path 2768" d="M202.288,372.987l-5.62-1.448a93.435,93.435,0,0,0-3.838,24.237c-.255,12.543.278,25.991.278,25.991l8.33-26.514-5.025-4.756,5.728-1.713Z" transform="translate(-192.76 -371.539)" fill="#0d2528"/>
            </g>
          </g>
        </g>
        <path id="Path_2769" data-name="Path 2769" d="M201.632,372.082l-6.542-1.758a93.409,93.409,0,0,0-3.839,24.237c-.254,12.543,1.1,26.614,1.1,26.614l7.5-27.135-5.024-4.757,5.727-1.713Z" transform="translate(-93.197 -180.489)" fill="#334f57"/>
        <g id="Group_8400" data-name="Group 8400" transform="translate(84.41 177.708)" opacity="0.34" style="mix-blend-mode: multiply;isolation: isolate">
          <g id="Group_8399" data-name="Group 8399">
            <g id="Group_8398" data-name="Group 8398" clip-path="url(#clip-path-17)">
              <path id="Path_2770" data-name="Path 2770" d="M165.2,349.872a.532.532,0,0,1-.407-.875c.038-.045,3.858-4.473,9.855-1.005a.532.532,0,1,1-.533.921c-5.232-3.023-8.376.613-8.507.769a.531.531,0,0,1-.408.19" transform="translate(-164.664 -346.667)" fill="#a3673a"/>
            </g>
          </g>
        </g>
        <path id="Path_2771" data-name="Path 2771" d="M152.039,321.6a1.907,1.907,0,1,1-1.907-1.907,1.906,1.906,0,0,1,1.907,1.907" transform="translate(-72.242 -155.814)" fill="#3f2919"/>
        <path id="Path_2772" data-name="Path 2772" d="M187.6,316.585a1.907,1.907,0,1,1-1.907-1.907,1.907,1.907,0,0,1,1.907,1.907" transform="translate(-89.575 -153.368)" fill="#3f2919"/>
        <g id="Group_8403" data-name="Group 8403" transform="translate(69.487 164.315)" opacity="0.44">
          <g id="Group_8402" data-name="Group 8402">
            <g id="Group_8401" data-name="Group 8401" clip-path="url(#clip-path-18)">
              <path id="Path_2773" data-name="Path 2773" d="M157.323,323.868c.239-.966,2.143-1.637,3.335-1.887a62.7,62.7,0,0,1,9.583-1.44c2.558-.027,2.427,1.219,2.577,2.962.14,1.549.155,3.138-2.814,3.931a39.961,39.961,0,0,1-8.524,1.189c-2.367.058-3.235-.708-3.758-1.735a4.644,4.644,0,0,1-.4-3.021m-19.837,1.243a62.667,62.667,0,0,1,9.607-1.238c1.218-.086,3.234.039,3.728.9a4.734,4.734,0,0,1,.449,3.014c-.224,1.131-.855,2.106-3.142,2.7a39.885,39.885,0,0,1-8.529,1.19c-3.064.049-3.488-1.484-3.782-3.011-.329-1.718-.786-2.882,1.67-3.555" transform="translate(-135.553 -320.54)" fill="#fff"/>
            </g>
          </g>
        </g>
        <path id="Path_2774" data-name="Path 2774" d="M172.01,319.2a.741.741,0,0,0-.585-.117c-.472.065-1.128.079-2.04.1-.355.009-.747.017-1.183.03-1.378.045-3.43.243-5.489.53-1.914.267-3.658.586-5.045.92a18.734,18.734,0,0,0-3.407,1.183,10.475,10.475,0,0,1-6.467.9,18.933,18.933,0,0,0-3.6-.2c-1.422.058-3.185.229-5.1.5-2.057.287-4.085.659-5.428.991-.425.108-.808.209-1.153.3a20.116,20.116,0,0,1-1.978.459.756.756,0,0,0-.54.277,1.071,1.071,0,0,0-.077.826l.151,1.07c.078.562.448.669.9.8.38.109.778.571,1.126,1.3.033.074.068.157.106.25.366.92,1.049,2.633,5.437,2.353,1.325-.087,2.6-.215,3.79-.382a32.144,32.144,0,0,0,5.475-1.206c1.692-.554,2.216-1.938,2.68-3.159.4-1.063.752-1.983,1.793-2.128s1.628.644,2.306,1.555c.778,1.049,1.66,2.236,3.441,2.306a32.168,32.168,0,0,0,5.6-.338c1.19-.165,2.452-.393,3.753-.67,4.3-.933,4.482-2.771,4.579-3.759.008-.1.018-.184.03-.261a2.287,2.287,0,0,1,.74-1.563c.379-.237.71-.442.63-1.01l-.128-.923c-.007-.05-.013-.1-.019-.156a1.05,1.05,0,0,0-.3-.767m-2.27,3.2.033.413c.152,1.67.051,3-2.674,3.734a35.209,35.209,0,0,1-4.112.808,40.3,40.3,0,0,1-4.37.375c-2.395.059-3.142-.75-3.592-1.633a4.5,4.5,0,0,1-.384-2.89c.2-.782,1.794-1.455,3.2-1.75,1.679-.356,4.141-.842,6.333-1.147a26.024,26.024,0,0,1,3.21-.29c2.178-.023,2.242.831,2.359,2.379M147.8,324.166a4.5,4.5,0,0,1,.427,2.884c-.192.971-.69,1.955-3.007,2.552a40.166,40.166,0,0,1-4.312.838,35.156,35.156,0,0,1-4.173.347c-2.811.044-3.279-1.211-3.6-2.858l-.079-.4c-.308-1.526-.479-2.366,1.618-2.94a25.788,25.788,0,0,1,3.163-.6c2.19-.307,4.693-.512,6.406-.631,1.43-.1,3.152.109,3.553.809" transform="translate(-63.298 -155.511)" fill="#052c35"/>
        <g id="Group_8406" data-name="Group 8406" transform="translate(87.162 180.011)" opacity="0.34" style="mix-blend-mode: multiply;isolation: isolate">
          <g id="Group_8405" data-name="Group 8405">
            <g id="Group_8404" data-name="Group 8404" clip-path="url(#clip-path-19)">
              <path id="Path_2775" data-name="Path 2775" d="M170.564,352.72a.53.53,0,0,1-.4-.881c.042-.047,1.05-1.129,3.255-.464a.532.532,0,1,1-.308,1.019c-1.519-.46-2.139.14-2.164.167a.541.541,0,0,1-.385.159" transform="translate(-170.033 -351.159)" fill="#a3673a"/>
            </g>
          </g>
        </g>
        <g id="Group_8409" data-name="Group 8409" transform="translate(85.056 176.908)" opacity="0.37" style="mix-blend-mode: multiply;isolation: isolate">
          <g id="Group_8408" data-name="Group 8408">
            <g id="Group_8407" data-name="Group 8407" clip-path="url(#clip-path-20)">
              <path id="Path_2776" data-name="Path 2776" d="M184.22,354.214s.326-1.463-1.543-1.056-4.958,3.737-4.958,3.737a63.612,63.612,0,0,0-6.256-9.75c-1.238-1.527-1.65-1.939-2.437-2.031-.478-.056-1.844.327-.894,1.705a32.34,32.34,0,0,1,3.576,6.583s-.706-.722-1.87.161a2.156,2.156,0,0,0-.649,1.951,1.584,1.584,0,0,0-1.382.163,1.492,1.492,0,0,0-.649,1.544s-1.381.487-1.218,1.624a17.038,17.038,0,0,0,1.54,3.6,15.7,15.7,0,0,0,4.97.107,15.994,15.994,0,0,0,6.906-2.744,21.043,21.043,0,0,1,4.866-5.593" transform="translate(-165.925 -345.107)" fill="#e2a479"/>
            </g>
          </g>
        </g>
        <g id="Group_8412" data-name="Group 8412" transform="translate(95.25 201.146)" opacity="0.29" style="mix-blend-mode: multiply;isolation: isolate">
          <g id="Group_8411" data-name="Group 8411">
            <g id="Group_8410" data-name="Group 8410" clip-path="url(#clip-path-21)">
              <path id="Path_2777" data-name="Path 2777" d="M208.275,392.7c1.685,1.6,1.928,7.06,1.832,9.6a54.641,54.641,0,0,1-8.948,27.493c-7.329,10.535-18,4.63-14.745-5.366,1.973-6.055,6.192-7.818,10.71-22.546a15.8,15.8,0,0,1,4.79-7.451c1.169-.921,5.25-2.778,6.362-1.725" transform="translate(-185.811 -392.389)" fill="#243f47"/>
            </g>
          </g>
        </g>
        <path id="Path_2778" data-name="Path 2778" d="M207.124,385.743a7.7,7.7,0,0,1,2.572,6.121c-.355,9.4-4.761,21.623-11.8,33.352-5.855,9.758-15.322,4.231-12.063-5.765,1.973-6.054,6.837-11.618,11.354-26.345a15.8,15.8,0,0,1,4.79-7.451c1.169-.921,4.034-.964,5.145.089" transform="translate(-90.249 -187.622)" fill="#243f47"/>
        <g id="Group_8415" data-name="Group 8415" transform="translate(95.614 211.154)" opacity="0.22" style="mix-blend-mode: multiply;isolation: isolate">
          <g id="Group_8414" data-name="Group 8414">
            <g id="Group_8413" data-name="Group 8413" clip-path="url(#clip-path-22)">
              <path id="Path_2779" data-name="Path 2779" d="M195.938,411.913c-3.892,10.563-7.706,15.418-9.416,20.593a53.491,53.491,0,0,0,1.3,6.646c2.361,7.868,6.993,1.27,8.782-.71,1.477-1.634,1.947-8.222,1.33-12.862-.624-4.7-1.355-9.574-2-13.667" transform="translate(-186.521 -411.913)" fill="#152429"/>
            </g>
          </g>
        </g>
        <g id="Group_8418" data-name="Group 8418" transform="translate(77.225 237.516)" opacity="0.3" style="mix-blend-mode: multiply;isolation: isolate">
          <g id="Group_8417" data-name="Group 8417">
            <g id="Group_8416" data-name="Group 8416" clip-path="url(#clip-path-23)">
              <path id="Path_2780" data-name="Path 2780" d="M185.473,473.595s1.59-.8,1.121-2.041c-.4-1.051-1.923-.6-1.923-.6s1.217-.642.948-1.731a1.415,1.415,0,0,0-1.8-.93,42.571,42.571,0,0,1-10.423.924,36.023,36.023,0,0,1,2.371-3.71c.59-.724.694-1.451.024-1.988-.741-.594-1.9.5-1.9.5a52,52,0,0,0-5.718,4.827l-.027-.285-1.654.258a4.327,4.327,0,0,1-.01-.458l-15.834-1.126c.193,5.178.275,9.756.275,9.756l.157,3.952c7-.545,16.333-2.07,16.333-2.07l-.04-.393,1.7-.139-.065-.674a35.916,35.916,0,0,0,6.251,1.273,18.3,18.3,0,0,0,8.76-1.2c1.806-.843,1.234-1.831,1.234-1.831s1.293-.6,1.038-1.54a.964.964,0,0,0-.82-.769" transform="translate(-150.648 -463.339)" fill="#0d2528"/>
            </g>
          </g>
        </g>
        <path id="Path_2781" data-name="Path 2781" d="M181.126,469.7a4.836,4.836,0,0,1,1.375-3.851c1.623-2.051,6.233-5.415,6.233-5.415s1.158-1.091,1.9-.5c.67.538.565,1.265-.024,1.988a36.092,36.092,0,0,0-2.371,3.71,42.587,42.587,0,0,0,10.424-.924,1.416,1.416,0,0,1,1.8.929c.268,1.089-.949,1.731-.949,1.731s1.527-.449,1.924.6c.469,1.238-1.121,2.041-1.121,2.041a.964.964,0,0,1,.82.769c.255.937-1.037,1.54-1.037,1.54s.573.988-1.234,1.832a18.3,18.3,0,0,1-8.759,1.2c-2-.133-6.985-1.265-7.942-1.947-1.347-.961-.956-2.521-1.039-3.708" transform="translate(-88.268 -224.08)" fill="#e8ad85"/>
        <path id="Path_2782" data-name="Path 2782" d="M180.437,470.271l2.129-.332.931,9.78-3.26.266Z" transform="translate(-87.845 -229.039)" fill="#fff"/>
        <path id="Path_2783" data-name="Path 2783" d="M151.251,467.461l-30.869-2.2s-1.8,5.123-.532,8.981c1.447,4.417,6.428,6.005,11.975,5.988,6.653-.022,20.358-2.262,20.358-2.262s-1-9.78-.931-10.512" transform="translate(-58.193 -226.762)" fill="#243f47"/>
        <path id="Path_2784" data-name="Path 2784" d="M181.89,374.188s-1.915-8.44-1.509-10.553c.757-3.936,5.687-7.8,5.687-7.8s.326-1.462-1.543-1.055-4.957,3.737-4.957,3.737a63.678,63.678,0,0,0-6.256-9.751c-1.238-1.527-1.65-1.938-2.437-2.031-.479-.056-1.844.327-.894,1.706a32.321,32.321,0,0,1,3.576,6.582s-.706-.721-1.87.162a2.154,2.154,0,0,0-.649,1.951,1.582,1.582,0,0,0-1.381.163,1.493,1.493,0,0,0-.65,1.544s-1.382.487-1.219,1.624a24.89,24.89,0,0,0,3.008,6.095,7.037,7.037,0,0,0,3.819,2.763l1.4,5.859Z" transform="translate(-81.77 -168.989)" fill="#ffd2b3"/>
        <path id="Path_2785" data-name="Path 2785" d="M186.959,393.156a31.036,31.036,0,0,0-.709-3.726l-8.782,2.129.621,4.169Z" transform="translate(-86.495 -189.801)" fill="#d8eaef"/>
        <path id="Path_2786" data-name="Path 2786" d="M193.457,425.459l-6.565-33.087L176.6,395.211s2.041,26.078,4.169,33.175c2.361,7.868,7.54,5.765,10.378,3.37,2.266-1.911,2.307-6.3,2.307-6.3" transform="translate(-86.073 -191.235)" fill="#243f47"/>
        <path id="Path_2787" data-name="Path 2787" d="M294.522,581.912h1.763V580.59a2.644,2.644,0,0,1,2.643-2.641h11.717a2.644,2.644,0,0,1,2.641,2.641v1.225h1.763V580.59a4.409,4.409,0,0,0-4.4-4.4H298.928a4.41,4.41,0,0,0-4.406,4.4Z" transform="translate(-143.545 -280.823)" fill="#0e3c54"/>
        <path id="Path_2788" data-name="Path 2788" d="M328.656,588.567a.587.587,0,0,0,.587.587h3.034a.588.588,0,0,0,.588-.587v-1.958a.587.587,0,0,0-.588-.586h-3.034a.586.586,0,0,0-.587.586Z" transform="translate(-160.181 -285.617)" fill="#f99920"/>
        <path id="Path_2789" data-name="Path 2789" d="M291.986,588.567a.586.586,0,0,0,.586.587h3.035a.587.587,0,0,0,.588-.587v-1.958a.586.586,0,0,0-.588-.586h-3.035a.585.585,0,0,0-.586.586Z" transform="translate(-142.309 -285.617)" fill="#f99920"/>
        <path id="Path_2790" data-name="Path 2790" d="M263.553,624a3.524,3.524,0,0,0,3.527,3.525h44.931A3.523,3.523,0,0,0,315.537,624V592.279a1.763,1.763,0,0,0-1.764-1.762H265.315a1.763,1.763,0,0,0-1.762,1.762Z" transform="translate(-128.451 -287.807)" fill="#234354"/>
        <path id="Path_2791" data-name="Path 2791" d="M265.482,593.955h48.459a1.763,1.763,0,0,1,1.76,1.761v10.573a7.051,7.051,0,0,1-7.047,7.049H292.269v1.807a2.644,2.644,0,1,1-5.287,0v-1.807H270.769a7.052,7.052,0,0,1-7.051-7.049V595.716a1.764,1.764,0,0,1,1.764-1.761" transform="translate(-128.532 -289.483)" fill="#082633"/>
        <path id="Path_2792" data-name="Path 2792" d="M263.718,602.851a7.051,7.051,0,0,0,7.051,7.048h37.885a7.05,7.05,0,0,0,7.047-7.048V592.279a1.762,1.762,0,0,0-1.76-1.762h-48.46a1.764,1.764,0,0,0-1.764,1.762Z" transform="translate(-128.532 -287.807)" fill="#366377"/>
        <path id="Path_2793" data-name="Path 2793" d="M309.1,627.852a2.644,2.644,0,0,0,5.287,0v-4.211H309.1Z" transform="translate(-150.65 -303.952)" fill="#f99920"/>
        <path id="Path_2794" data-name="Path 2794" d="M310.246,628.4a2.056,2.056,0,1,0,4.112,0v-3.276h-4.112Z" transform="translate(-151.209 -304.676)" fill="#ffaf57"/>
        <rect id="Rectangle_6528" data-name="Rectangle 6528" width="4.528" height="0.708" transform="translate(158.953 322.103)" fill="#f99920"/>
      </g>
    </g>
  </g>
</svg>
