<svg xmlns="http://www.w3.org/2000/svg" width="42.408" height="40.842" viewBox="0 0 42.408 40.842"><defs><style>.a{fill:none;stroke:#359256;stroke-linecap:round;stroke-miterlimit:10;stroke-width:2.013px;}</style></defs><g transform="translate(-415.463 -243.814)"><path class="a" d="M421.472,263.794l4.478,4.441a10.485,10.485,0,0,0,13.5,1.047l3.891,3.859a5.263,5.263,0,0,0,7.386,0l2.772-2.748a1.988,1.988,0,0,1,2.79,0,1.95,1.95,0,0,1,0,2.766l-2.771,2.749a5.156,5.156,0,0,0,0,7.324"/><path class="a" d="M416.886,253.646l7.246,7.178"/><path class="a" d="M426.058,245.238l6.7,6.646"/><path class="a" d="M443.721,260.328a10.265,10.265,0,0,0-3.034-6.707l-4.478-4.441"/><path class="a" d="M419.358,265.881l18.867-18.71"/></g></svg>