<svg xmlns="http://www.w3.org/2000/svg" xmlns:xlink="http://www.w3.org/1999/xlink" width="44" height="41" viewBox="0 0 44 41"><defs><style>.a{fill:none;}.b{clip-path:url(#a);}.c{fill:#3e2d91;stroke:#3e2d91;stroke-miterlimit:10;stroke-width:0.315px;}</style><clipPath id="a"><rect class="a" width="44" height="41" transform="translate(752.723 253.602)"/></clipPath></defs><g class="b" transform="translate(-752.723 -253.602)"><path class="c" d="M764.907,256.837c11.843-.44,22.143,6.083,21.551,14.126.389,0,.776-.012,1.162,0,.71.028,1.18.314,1.184.778q.026,3.132,0,6.266c0,.463-.475.753-1.181.781-.369.015-.739,0-1.346,0a10.965,10.965,0,0,0,.756,1.865c1.282,2.042,4.6,3.156,8.007,2.737,3.142-.385,5.69-2.258,5.711-4.384.056-5.759.019-11.519.017-17.278a.871.871,0,0,0-.051-.171c-.335,0-.7.008-1.058,0-.8-.02-1.263-.3-1.267-.824q-.021-3.083,0-6.167c0-.543.473-.835,1.323-.836q9.46-.008,18.918,0c.823,0,1.282.31,1.287.863q.016,3.059,0,6.119c0,.541-.478.831-1.312.85-.322.007-.646,0-1.075,0v.534c0,5.547.016,11.1-.008,16.642-.031,7.484-7.858,13.807-19.016,15.39-12.606,1.789-25.432-3.579-28.213-11.836a33.425,33.425,0,0,1-.786-3.5c-.243,0-.607.007-.969,0-.759-.02-1.25-.3-1.254-.783q-.028-3.134,0-6.266c0-.462.479-.752,1.184-.78.369-.014.739,0,1.1,0,.587-1.811-1.267-3.433-4.684-3.092,0,.227.014.467,0,.7-.034.5-.465.812-1.208.815q-4.785.017-9.571,0c-.784,0-1.178-.34-1.179-.928q-.009-3.5,0-7,0-2.568,0-5.139c0-.772.384-1.023,1.567-1.023q4.262,0,8.524,0c1.6,0,1.852.17,1.873,1.218C764.887,256.611,764.9,256.707,764.907,256.837Zm7.086,21.98c.124.783.2,1.529.369,2.264,1.7,7.419,12.822,12.793,24.158,11.684,10.85-1.062,18.6-6.915,18.615-14.088.012-5.53,0-11.059,0-16.589v-.5H803.172v.8c0,5.514.02,11.028-.012,16.541-.014,2.612-2.708,4.964-6.523,5.8s-8.077,0-10.545-2.063A5.3,5.3,0,0,1,784,278.817Zm12-7.875c.627-7.8-9.646-13.091-19.046-12.443v7.775a8.762,8.762,0,0,1,5.4,1.162,3.5,3.5,0,0,1,1.723,3.505Zm33.5-10.969V255.33H800.836v4.644Zm-62.122-3.087v10.9h7.088v-10.9ZM769.7,277.193h16.682v-4.637H769.7Z"/></g></svg>