<svg xmlns="http://www.w3.org/2000/svg" xmlns:xlink="http://www.w3.org/1999/xlink" width="152.16" height="170" viewBox="0 0 152.16 170">
  <defs>
    <clipPath id="clip-path">
      <path id="Rectangle_766" data-name="Rectangle 766" d="M0,0H149.012a3.148,3.148,0,0,1,3.148,3.148V170H0Z" transform="translate(1705 670)" fill="#fff" stroke="#707070" stroke-width="1"/>
    </clipPath>
    <linearGradient id="linear-gradient" x1="0.001" y1="0.499" x2="0.999" y2="0.499" gradientUnits="objectBoundingBox">
      <stop offset="0" stop-color="#fff54f"/>
      <stop offset="1" stop-color="#ebb328"/>
    </linearGradient>
  </defs>
  <g id="Mask_Group_41" data-name="Mask Group 41" transform="translate(-1705 -670)" clip-path="url(#clip-path)">
    <g id="Objects" transform="translate(1707.095 643.65)">
      <g id="Group_8939" data-name="Group 8939" transform="translate(0)">
        <g id="Group_8938" data-name="Group 8938" transform="translate(0)">
          <g id="Group_8937" data-name="Group 8937">
            <g id="Group_8936" data-name="Group 8936">
              <g id="Group_8880" data-name="Group 8880">
                <g id="Group_8835" data-name="Group 8835" transform="translate(97.159)">
                  <rect id="Rectangle_676" data-name="Rectangle 676" width="2.058" height="12.216" fill="#585858" opacity="0.5"/>
                  <rect id="Rectangle_677" data-name="Rectangle 677" width="2.058" height="12.216" transform="translate(0 184.135)" fill="#585858" opacity="0.5"/>
                </g>
                <g id="Group_8836" data-name="Group 8836" transform="translate(90.316 0.216)">
                  <rect id="Rectangle_678" data-name="Rectangle 678" width="2.058" height="12.216" transform="matrix(0.998, -0.07, 0.07, 0.998, 0, 0.144)" fill="#585858" opacity="0.5"/>
                  <rect id="Rectangle_679" data-name="Rectangle 679" width="2.058" height="12.216" transform="matrix(0.998, -0.07, 0.07, 0.998, 12.86, 183.898)" fill="#585858" opacity="0.5"/>
                </g>
                <g id="Group_8837" data-name="Group 8837" transform="translate(83.466 0.842)">
                  <rect id="Rectangle_680" data-name="Rectangle 680" width="2.058" height="12.216" transform="translate(0 0.286) rotate(-7.992)" fill="#585858" opacity="0.5"/>
                  <rect id="Rectangle_681" data-name="Rectangle 681" width="2.058" height="12.216" transform="translate(25.741 182.733) rotate(-7.992)" fill="#585858" opacity="0.5"/>
                </g>
                <g id="Group_8838" data-name="Group 8838" transform="translate(76.762 1.865)">
                  <rect id="Rectangle_682" data-name="Rectangle 682" width="2.058" height="12.216" transform="translate(0 0.428) rotate(-11.999)" fill="#585858" opacity="0.5"/>
                  <rect id="Rectangle_683" data-name="Rectangle 683" width="2.058" height="12.216" transform="matrix(0.978, -0.208, 0.208, 0.978, 38.314, 180.712)" fill="#585858" opacity="0.5"/>
                </g>
                <g id="Group_8839" data-name="Group 8839" transform="translate(70.189 3.529)">
                  <rect id="Rectangle_684" data-name="Rectangle 684" width="2.058" height="12.216" transform="translate(0 0.568) rotate(-16.024)" fill="#585858" opacity="0.5"/>
                  <rect id="Rectangle_685" data-name="Rectangle 685" width="2.058" height="12.216" transform="translate(50.79 177.614) rotate(-16.024)" fill="#585858" opacity="0.5"/>
                </g>
                <g id="Group_8840" data-name="Group 8840" transform="translate(63.625 5.579)">
                  <rect id="Rectangle_686" data-name="Rectangle 686" width="2.058" height="12.216" transform="translate(0 0.704) rotate(-20.004)" fill="#585858" opacity="0.5"/>
                  <rect id="Rectangle_687" data-name="Rectangle 687" width="2.058" height="12.216" transform="translate(62.98 173.778) rotate(-19.999)" fill="#585858" opacity="0.5"/>
                </g>
                <g id="Group_8841" data-name="Group 8841" transform="translate(57.331 8.067)">
                  <rect id="Rectangle_688" data-name="Rectangle 688" width="2.058" height="12.216" transform="translate(0 0.837) rotate(-23.999)" fill="#585858" opacity="0.5"/>
                  <rect id="Rectangle_689" data-name="Rectangle 689" width="2.058" height="12.216" transform="translate(74.876 169.186) rotate(-24.004)" fill="#585858" opacity="0.5"/>
                </g>
                <g id="Group_8842" data-name="Group 8842" transform="translate(51.214 11.046)">
                  <rect id="Rectangle_690" data-name="Rectangle 690" width="2.058" height="12.216" transform="translate(0 0.966) rotate(-27.995)" fill="#585858" opacity="0.5"/>
                  <rect id="Rectangle_691" data-name="Rectangle 691" width="2.058" height="12.216" transform="translate(86.424 163.622) rotate(-28.025)" fill="#585858" opacity="0.5"/>
                </g>
                <g id="Group_8843" data-name="Group 8843" transform="translate(45.233 14.426)">
                  <rect id="Rectangle_692" data-name="Rectangle 692" width="2.058" height="12.216" transform="matrix(0.848, -0.53, 0.53, 0.848, 0, 1.091)" fill="#585858" opacity="0.5"/>
                  <rect id="Rectangle_693" data-name="Rectangle 693" width="2.058" height="12.216" transform="matrix(0.848, -0.53, 0.53, 0.848, 97.74, 157.295)" fill="#585858" opacity="0.5"/>
                </g>
                <g id="Group_8844" data-name="Group 8844" transform="translate(39.653 18.192)">
                  <rect id="Rectangle_694" data-name="Rectangle 694" width="2.058" height="12.216" transform="translate(0 1.21) rotate(-36.011)" fill="#585858" opacity="0.5"/>
                  <rect id="Rectangle_695" data-name="Rectangle 695" width="2.058" height="12.216" transform="translate(108.28 150.227) rotate(-36.011)" fill="#585858" opacity="0.5"/>
                </g>
                <g id="Group_8845" data-name="Group 8845" transform="translate(34.271 22.234)">
                  <rect id="Rectangle_696" data-name="Rectangle 696" width="2.058" height="12.216" transform="matrix(0.766, -0.643, 0.643, 0.766, 0, 1.323)" fill="#585858" opacity="0.5"/>
                  <rect id="Rectangle_697" data-name="Rectangle 697" width="2.058" height="12.216" transform="matrix(0.766, -0.643, 0.643, 0.766, 118.461, 142.487)" fill="#585858" opacity="0.5"/>
                </g>
                <g id="Group_8846" data-name="Group 8846" transform="translate(29.21 26.878)">
                  <rect id="Rectangle_698" data-name="Rectangle 698" width="2.058" height="12.216" transform="matrix(0.719, -0.695, 0.695, 0.719, 0, 1.43)" fill="#585858" opacity="0.5"/>
                  <rect id="Rectangle_699" data-name="Rectangle 699" width="2.058" height="12.216" transform="matrix(0.719, -0.695, 0.695, 0.719, 127.991, 133.814)" fill="#585858" opacity="0.5"/>
                </g>
                <g id="Group_8847" data-name="Group 8847" transform="translate(24.559 31.734)">
                  <rect id="Rectangle_700" data-name="Rectangle 700" width="2.058" height="12.216" transform="translate(0 1.529) rotate(-48)" fill="#585858" opacity="0.5"/>
                  <rect id="Rectangle_701" data-name="Rectangle 701" width="2.058" height="12.216" transform="translate(136.752 124.791) rotate(-48)" fill="#585858" opacity="0.5"/>
                </g>
                <g id="Group_8848" data-name="Group 8848" transform="translate(20.195 36.881)">
                  <rect id="Rectangle_702" data-name="Rectangle 702" width="2.058" height="12.216" transform="translate(0 1.622) rotate(-51.998)" fill="#585858" opacity="0.5"/>
                  <rect id="Rectangle_703" data-name="Rectangle 703" width="2.058" height="12.216" transform="matrix(0.616, -0.788, 0.788, 0.616, 145.124, 115.03)" fill="#585858" opacity="0.5"/>
                </g>
                <g id="Group_8849" data-name="Group 8849" transform="translate(16.249 42.502)">
                  <rect id="Rectangle_704" data-name="Rectangle 704" width="2.058" height="12.216" transform="matrix(0.559, -0.829, 0.829, 0.559, 0, 1.706)" fill="#585858" opacity="0.5"/>
                  <rect id="Rectangle_705" data-name="Rectangle 705" width="2.058" height="12.216" transform="matrix(0.559, -0.829, 0.829, 0.559, 152.694, 104.683)" fill="#585858" opacity="0.5"/>
                </g>
                <g id="Group_8850" data-name="Group 8850" transform="translate(12.638 48.19)">
                  <rect id="Rectangle_706" data-name="Rectangle 706" width="2.058" height="12.216" transform="matrix(0.5, -0.866, 0.866, 0.5, 0, 1.782)" fill="#585858" opacity="0.5"/>
                  <rect id="Rectangle_707" data-name="Rectangle 707" width="2.058" height="12.216" transform="matrix(0.5, -0.866, 0.866, 0.5, 159.453, 93.95)" fill="#585858" opacity="0.5"/>
                </g>
                <g id="Group_8851" data-name="Group 8851" transform="translate(9.469 54.271)">
                  <rect id="Rectangle_708" data-name="Rectangle 708" width="2.058" height="12.216" transform="translate(0 1.85) rotate(-64.024)" fill="#585858" opacity="0.5"/>
                  <rect id="Rectangle_709" data-name="Rectangle 709" width="2.058" height="12.216" transform="translate(165.555 82.587) rotate(-64.004)" fill="#585858" opacity="0.5"/>
                </g>
                <g id="Group_8852" data-name="Group 8852" transform="translate(6.771 60.454)">
                  <rect id="Rectangle_710" data-name="Rectangle 710" width="2.058" height="12.216" transform="translate(0 1.908) rotate(-68.006)" fill="#585858" opacity="0.5"/>
                  <rect id="Rectangle_711" data-name="Rectangle 711" width="2.058" height="12.216" transform="translate(170.744 70.941) rotate(-67.995)" fill="#585858" opacity="0.5"/>
                </g>
                <g id="Group_8853" data-name="Group 8853" transform="translate(4.496 66.902)">
                  <rect id="Rectangle_712" data-name="Rectangle 712" width="2.058" height="12.216" transform="translate(0 1.957) rotate(-71.994)" fill="#585858" opacity="0.5"/>
                  <rect id="Rectangle_713" data-name="Rectangle 713" width="2.058" height="12.216" transform="translate(175.227 58.915) rotate(-72.007)" fill="#585858" opacity="0.5"/>
                </g>
                <g id="Group_8854" data-name="Group 8854" transform="translate(2.673 73.471)">
                  <rect id="Rectangle_714" data-name="Rectangle 714" width="2.058" height="12.216" transform="translate(0 1.997) rotate(-76.001)" fill="#585858" opacity="0.5"/>
                  <rect id="Rectangle_715" data-name="Rectangle 715" width="2.058" height="12.216" transform="translate(178.672 46.563) rotate(-76.001)" fill="#585858" opacity="0.5"/>
                </g>
                <g id="Group_8855" data-name="Group 8855" transform="translate(1.333 80.104)">
                  <rect id="Rectangle_716" data-name="Rectangle 716" width="2.058" height="12.216" transform="matrix(0.174, -0.985, 0.985, 0.174, 0, 2.027)" fill="#585858" opacity="0.5"/>
                  <rect id="Rectangle_717" data-name="Rectangle 717" width="2.058" height="12.216" transform="matrix(0.174, -0.985, 0.985, 0.174, 181.452, 34.02)" fill="#585858" opacity="0.5"/>
                </g>
                <g id="Group_8856" data-name="Group 8856" transform="translate(0.379 86.891)">
                  <rect id="Rectangle_718" data-name="Rectangle 718" width="2.058" height="12.216" transform="translate(0 2.047) rotate(-84.001)" fill="#585858" opacity="0.5"/>
                  <rect id="Rectangle_719" data-name="Rectangle 719" width="2.058" height="12.216" transform="translate(183.246 21.29) rotate(-84.001)" fill="#585858" opacity="0.5"/>
                </g>
                <g id="Group_8857" data-name="Group 8857" transform="translate(0 93.792)">
                  <rect id="Rectangle_720" data-name="Rectangle 720" width="2.058" height="12.216" transform="matrix(0.035, -0.999, 0.999, 0.035, 0, 2.057)" fill="#585858" opacity="0.5"/>
                  <rect id="Rectangle_721" data-name="Rectangle 721" width="2.058" height="12.216" transform="translate(184.112 8.463) rotate(-88)" fill="#585858" opacity="0.5"/>
                </g>
                <g id="Group_8858" data-name="Group 8858" transform="translate(0.046 93.785)">
                  <rect id="Rectangle_722" data-name="Rectangle 722" width="12.216" height="2.058" transform="matrix(0.999, -0.035, 0.035, 0.999, 0, 6.859)" fill="#585858" opacity="0.5"/>
                  <rect id="Rectangle_723" data-name="Rectangle 723" width="12.216" height="2.058" transform="translate(184.137 0.426) rotate(-2)" fill="#585858" opacity="0.5"/>
                </g>
                <g id="Group_8859" data-name="Group 8859" transform="translate(0.375 86.928)">
                  <rect id="Rectangle_724" data-name="Rectangle 724" width="12.216" height="2.058" transform="translate(0 20.437) rotate(-5.999)" fill="#585858" opacity="0.5"/>
                  <rect id="Rectangle_725" data-name="Rectangle 725" width="12.216" height="2.058" transform="translate(183.24 1.277) rotate(-5.999)" fill="#585858" opacity="0.5"/>
                </g>
                <g id="Group_8860" data-name="Group 8860" transform="translate(1.256 80.097)">
                  <rect id="Rectangle_726" data-name="Rectangle 726" width="12.216" height="2.058" transform="matrix(0.985, -0.174, 0.174, 0.985, 0, 34.142)" fill="#585858" opacity="0.5"/>
                  <rect id="Rectangle_727" data-name="Rectangle 727" width="12.216" height="2.058" transform="matrix(0.985, -0.174, 0.174, 0.985, 181.438, 2.121)" fill="#585858" opacity="0.5"/>
                </g>
                <g id="Group_8861" data-name="Group 8861" transform="translate(2.706 73.388)">
                  <rect id="Rectangle_728" data-name="Rectangle 728" width="12.216" height="2.058" transform="translate(0 47.567) rotate(-13.999)" fill="#585858" opacity="0.5"/>
                  <rect id="Rectangle_729" data-name="Rectangle 729" width="12.216" height="2.058" transform="translate(178.722 2.955) rotate(-13.999)" fill="#585858" opacity="0.5"/>
                </g>
                <g id="Group_8862" data-name="Group 8862" transform="translate(4.447 66.832)">
                  <rect id="Rectangle_730" data-name="Rectangle 730" width="12.216" height="2.058" transform="translate(0 60.728) rotate(-18.006)" fill="#585858" opacity="0.5"/>
                  <rect id="Rectangle_731" data-name="Rectangle 731" width="12.216" height="2.058" transform="matrix(0.951, -0.309, 0.309, 0.951, 175.253, 3.774)" fill="#585858" opacity="0.5"/>
                </g>
                <g id="Group_8863" data-name="Group 8863" transform="translate(6.791 60.415)">
                  <rect id="Rectangle_732" data-name="Rectangle 732" width="12.216" height="2.058" transform="translate(0 73.602) rotate(-21.994)" fill="#585858" opacity="0.5"/>
                  <rect id="Rectangle_733" data-name="Rectangle 733" width="12.216" height="2.058" transform="translate(170.801 4.577) rotate(-22.005)" fill="#585858" opacity="0.5"/>
                </g>
                <g id="Group_8864" data-name="Group 8864" transform="translate(9.542 54.21)">
                  <rect id="Rectangle_734" data-name="Rectangle 734" width="12.216" height="2.058" transform="translate(0 86.169) rotate(-25.976)" fill="#585858" opacity="0.5"/>
                  <rect id="Rectangle_735" data-name="Rectangle 735" width="12.216" height="2.058" transform="translate(165.59 5.354) rotate(-25.996)" fill="#585858" opacity="0.5"/>
                </g>
                <g id="Group_8865" data-name="Group 8865" transform="translate(12.638 48.149)">
                  <rect id="Rectangle_736" data-name="Rectangle 736" width="12.216" height="2.058" transform="matrix(0.866, -0.5, 0.5, 0.866, 0, 98.327)" fill="#585858" opacity="0.5"/>
                  <rect id="Rectangle_737" data-name="Rectangle 737" width="12.216" height="2.058" transform="matrix(0.866, -0.5, 0.5, 0.866, 159.488, 6.108)" fill="#585858" opacity="0.5"/>
                </g>
                <g id="Group_8866" data-name="Group 8866" transform="translate(16.232 42.392)">
                  <rect id="Rectangle_738" data-name="Rectangle 738" width="12.216" height="2.058" transform="matrix(0.829, -0.559, 0.559, 0.829, 0, 109.86)" fill="#585858" opacity="0.5"/>
                  <rect id="Rectangle_739" data-name="Rectangle 739" width="12.216" height="2.058" transform="matrix(0.829, -0.559, 0.559, 0.829, 152.726, 6.831)" fill="#585858" opacity="0.5"/>
                </g>
                <g id="Group_8867" data-name="Group 8867" transform="translate(20.183 36.964)">
                  <rect id="Rectangle_740" data-name="Rectangle 740" width="12.216" height="2.058" transform="translate(0 120.959) rotate(-38.002)" fill="#585858" opacity="0.5"/>
                  <rect id="Rectangle_741" data-name="Rectangle 741" width="12.216" height="2.058" transform="matrix(0.788, -0.616, 0.616, 0.788, 145.146, 7.525)" fill="#585858" opacity="0.5"/>
                </g>
                <g id="Group_8868" data-name="Group 8868" transform="translate(24.514 31.683)">
                  <rect id="Rectangle_742" data-name="Rectangle 742" width="12.216" height="2.058" transform="translate(0 131.498) rotate(-42)" fill="#585858" opacity="0.5"/>
                  <rect id="Rectangle_743" data-name="Rectangle 743" width="12.216" height="2.058" transform="translate(136.865 8.172) rotate(-42)" fill="#585858" opacity="0.5"/>
                </g>
                <g id="Group_8869" data-name="Group 8869" transform="translate(29.221 26.823)">
                  <rect id="Rectangle_744" data-name="Rectangle 744" width="12.216" height="2.058" transform="matrix(0.695, -0.719, 0.719, 0.695, 0, 141.362)" fill="#585858" opacity="0.5"/>
                  <rect id="Rectangle_745" data-name="Rectangle 745" width="12.216" height="2.058" transform="matrix(0.695, -0.719, 0.719, 0.695, 127.934, 8.783)" fill="#585858" opacity="0.5"/>
                </g>
                <g id="Group_8870" data-name="Group 8870" transform="translate(34.213 22.329)">
                  <rect id="Rectangle_746" data-name="Rectangle 746" width="12.216" height="2.058" transform="matrix(0.643, -0.766, 0.766, 0.643, 0, 150.443)" fill="#585858" opacity="0.5"/>
                  <rect id="Rectangle_747" data-name="Rectangle 747" width="12.216" height="2.058" transform="matrix(0.643, -0.766, 0.766, 0.643, 118.475, 9.358)" fill="#585858" opacity="0.5"/>
                </g>
                <g id="Group_8871" data-name="Group 8871" transform="translate(39.653 18.12)">
                  <rect id="Rectangle_748" data-name="Rectangle 748" width="12.216" height="2.058" transform="translate(0 158.878) rotate(-53.989)" fill="#585858" opacity="0.5"/>
                  <rect id="Rectangle_749" data-name="Rectangle 749" width="12.216" height="2.058" transform="translate(108.278 9.883) rotate(-53.989)" fill="#585858" opacity="0.5"/>
                </g>
                <g id="Group_8872" data-name="Group 8872" transform="translate(45.238 14.386)">
                  <rect id="Rectangle_750" data-name="Rectangle 750" width="12.216" height="2.058" transform="matrix(0.53, -0.848, 0.848, 0.53, 0, 166.566)" fill="#585858" opacity="0.5"/>
                  <rect id="Rectangle_751" data-name="Rectangle 751" width="12.216" height="2.058" transform="matrix(0.53, -0.848, 0.848, 0.53, 97.65, 10.359)" fill="#585858" opacity="0.5"/>
                </g>
                <g id="Group_8873" data-name="Group 8873" transform="translate(51.162 11.005)">
                  <rect id="Rectangle_752" data-name="Rectangle 752" width="12.216" height="2.058" transform="translate(0 173.45) rotate(-62.005)" fill="#585858" opacity="0.5"/>
                  <rect id="Rectangle_753" data-name="Rectangle 753" width="12.216" height="2.058" transform="translate(86.487 10.787) rotate(-61.975)" fill="#585858" opacity="0.5"/>
                </g>
                <g id="Group_8874" data-name="Group 8874" transform="translate(57.266 8.065)">
                  <rect id="Rectangle_754" data-name="Rectangle 754" width="12.216" height="2.058" transform="translate(0 179.472) rotate(-66.001)" fill="#585858" opacity="0.5"/>
                  <rect id="Rectangle_755" data-name="Rectangle 755" width="12.216" height="2.058" transform="translate(74.948 11.159) rotate(-65.996)" fill="#585858" opacity="0.5"/>
                </g>
                <g id="Group_8875" data-name="Group 8875" transform="translate(63.707 5.487)">
                  <rect id="Rectangle_756" data-name="Rectangle 756" width="12.216" height="2.058" transform="translate(0 184.618) rotate(-69.996)" fill="#585858" opacity="0.5"/>
                  <rect id="Rectangle_757" data-name="Rectangle 757" width="12.216" height="2.058" transform="translate(62.899 11.479) rotate(-70.001)" fill="#585858" opacity="0.5"/>
                </g>
                <g id="Group_8876" data-name="Group 8876" transform="translate(70.085 3.549)">
                  <rect id="Rectangle_758" data-name="Rectangle 758" width="12.216" height="2.058" transform="translate(0 188.823) rotate(-73.976)" fill="#585858" opacity="0.5"/>
                  <rect id="Rectangle_759" data-name="Rectangle 759" width="12.216" height="2.058" transform="translate(50.816 11.739) rotate(-73.976)" fill="#585858" opacity="0.5"/>
                </g>
                <g id="Group_8877" data-name="Group 8877" transform="translate(76.762 1.869)">
                  <rect id="Rectangle_760" data-name="Rectangle 760" width="12.216" height="2.058" transform="matrix(0.208, -0.978, 0.978, 0.208, 0, 192.16)" fill="#585858" opacity="0.5"/>
                  <rect id="Rectangle_761" data-name="Rectangle 761" width="12.216" height="2.058" transform="matrix(0.208, -0.978, 0.978, 0.208, 38.348, 11.949)" fill="#585858" opacity="0.5"/>
                </g>
                <g id="Group_8878" data-name="Group 8878" transform="translate(83.543 0.835)">
                  <rect id="Rectangle_762" data-name="Rectangle 762" width="12.216" height="2.058" transform="translate(0 194.517) rotate(-82.008)" fill="#585858" opacity="0.5"/>
                  <rect id="Rectangle_763" data-name="Rectangle 763" width="12.216" height="2.058" transform="translate(25.583 12.094) rotate(-82.008)" fill="#585858" opacity="0.5"/>
                </g>
                <g id="Group_8879" data-name="Group 8879" transform="translate(90.322 0.112)">
                  <rect id="Rectangle_764" data-name="Rectangle 764" width="12.216" height="2.058" transform="translate(0 195.967) rotate(-86.002)" fill="#585858" opacity="0.5"/>
                  <rect id="Rectangle_765" data-name="Rectangle 765" width="12.216" height="2.058" transform="matrix(0.07, -0.998, 0.998, 0.07, 12.873, 12.186)" fill="#585858" opacity="0.5"/>
                </g>
              </g>
              <g id="Group_8940" data-name="Group 8940" transform="translate(66.809 48.159)">
                <path id="Path_19513" data-name="Path 19513" d="M169.446,336.466c-1.878-.988-3.855-1.977-5.733-2.867-.89-.494-1.878-.89-2.669-1.285-.89-.4-1.679-.89-2.471-1.284-.791-.494-1.483-.89-2.174-1.384-2.273-1.679-3.756-3.558-3.756-5.931v-1.186a1.259,1.259,0,0,1,.1-.593.363.363,0,0,1,.1-.3c0-.1.1-.3.1-.4s.1-.2.1-.4c0-.1.1-.2.1-.4,0-.1.1-.2.1-.4,0-.1.1-.2.1-.3.1-.1.1-.2.2-.3a.21.21,0,0,1,.2-.2c.1-.1.2-.2.2-.3l.2-.2.3-.3.1-.1a1.364,1.364,0,0,1,.4-.3.1.1,0,0,0,.1-.1,9.692,9.692,0,0,1,4.843-1.581c.494,0,.89-.1,1.384-.1,4.943,0,8.6,1.977,12.751,5.831l8.7-9.884h0c-.89-.89-1.784-1.784-2.669-2.57a27.551,27.551,0,0,0-9.588-5.733,29,29,0,0,0-5.239-1.286V290.8H151.258v12.06c-10.971,2.273-17.792,10.179-17.792,21.647,0,21.054,30.938,20.856,30.938,32.915,0,4.943-2.471,7.611-8.007,8.007h.1c-5.239-.3-10.179-2.57-15.815-6.721h-2.57l-7.51,11.564c5.535,5.037,13.74,8.105,20.658,8.9v11.763H165.2V378.772a23.715,23.715,0,0,0,11.071-5.337,20.283,20.283,0,0,0,6.03-9.291,22.036,22.036,0,0,0,.89-3.855,26.961,26.961,0,0,0,.3-4.053C183.482,345.757,176.662,340.321,169.446,336.466Z" transform="translate(-130.6 -290.8)" fill="url(#linear-gradient)"/>
                <g id="Group_8883" data-name="Group 8883">
                  <path id="Path_19518" data-name="Path 19518" d="M166.909,357.421c0-12.06-30.938-11.858-30.938-32.915,0-11.466,6.821-19.472,17.792-21.647V290.8h-2.57v12.06c-10.971,2.273-17.792,10.179-17.792,21.647,0,21.054,30.938,20.856,30.938,32.915,0,4.943-2.471,7.611-8.007,8.007.4,0,.692.1,1.087.1C164.042,365.428,166.909,362.759,166.909,357.421Z" transform="translate(-130.633 -290.8)" fill="#a37f20"/>
                  <path id="Path_19519" data-name="Path 19519" d="M133.17,371.065l7.513-11.565h-2.57L130.6,371.065c5.535,5.037,13.74,8.105,20.658,8.9v11.763h2.57v-11.76C146.91,379.17,138.705,376.106,133.17,371.065Z" transform="translate(-130.6 -291.593)" fill="#a37f20"/>
                </g>
              </g>
            </g>
          </g>
        </g>
      </g>
    </g>
  </g>
</svg>
