<svg xmlns="http://www.w3.org/2000/svg" width="69" height="72" viewBox="0 0 69 72">
  <g id="Group_58" data-name="Group 58" transform="translate(-2363.283 197)">
    <rect id="Rectangle_631" data-name="Rectangle 631" width="69" height="72" rx="1" transform="translate(2363.283 -197)" fill="#db271f"/>
    <path id="Path_13" data-name="Path 13" d="M136.127,44.789a.821.821,0,0,0-.744.821v1.283a7.916,7.916,0,0,0-.872.372l-.911-.911a.822.822,0,0,0-1.155,0L129.891,48.9a.821.821,0,0,0,0,1.168l.9.9a7.99,7.99,0,0,0-.372.9h-1.258a.821.821,0,0,0-.821.821v3.593a.821.821,0,0,0,.821.821h1.258a7.945,7.945,0,0,0,.372.885l-.9.9a.821.821,0,0,0,0,1.168l2.553,2.54a.821.821,0,0,0,1.155,0l.885-.885a7.932,7.932,0,0,0,.9.372v1.271a.821.821,0,0,0,.821.821h3.606a.821.821,0,0,0,.821-.821V62.073a8.008,8.008,0,0,0,.9-.359l.873.872a.821.821,0,0,0,1.155,0l2.54-2.54a.821.821,0,0,0,.013-1.155l-.885-.911a7.971,7.971,0,0,0,.372-.885h1.257a.822.822,0,0,0,.821-.821V52.68a.821.821,0,0,0-.821-.821H145.6a7.984,7.984,0,0,0-.372-.9l.885-.911A.821.821,0,0,0,146.1,48.9l-2.54-2.541a.822.822,0,0,0-1.155,0l-.9.9a7.94,7.94,0,0,0-.873-.359V45.61a.821.821,0,0,0-.821-.821H136.2c-.025,0-.051,0-.077,0Zm.9,1.642h1.963v1a.821.821,0,0,0,.616.8,6.291,6.291,0,0,1,1.668.706.821.821,0,0,0,1-.128l.706-.706,1.386,1.386-.693.706a.821.821,0,0,0-.115.988,6.388,6.388,0,0,1,.706,1.694.821.821,0,0,0,.8.629h.975v1.951h-.975a.821.821,0,0,0-.8.616,6.33,6.33,0,0,1-.706,1.694.821.821,0,0,0,.115.988l.693.706-1.386,1.386-.68-.68a.821.821,0,0,0-1-.115,6.375,6.375,0,0,1-1.694.693.821.821,0,0,0-.616.8v.988h-1.963v-.988a.822.822,0,0,0-.616-.8,6.315,6.315,0,0,1-1.694-.706.821.821,0,0,0-1,.115l-.693.693-1.386-1.386.693-.693a.821.821,0,0,0,.128-1,6.347,6.347,0,0,1-.706-1.694.821.821,0,0,0-.8-.616h-.975V53.5h.975a.822.822,0,0,0,.8-.629,6.408,6.408,0,0,1,.706-1.694.821.821,0,0,0-.128-1l-.693-.693,1.386-1.386.719.706a.821.821,0,0,0,1,.128,6.257,6.257,0,0,1,1.668-.706.821.821,0,0,0,.616-.8Zm.988,4.068a3.984,3.984,0,1,0,3.978,3.978A4,4,0,0,0,138.013,50.5Zm0,1.642a2.342,2.342,0,0,1,0,4.683,2.342,2.342,0,1,1,0-4.683ZM126.35,63.7a7.078,7.078,0,0,0-3.606,1.027.821.821,0,1,0,.834,1.411,5.434,5.434,0,0,1,2.772-.8,5.872,5.872,0,0,1,4.016,1.591.822.822,0,0,0,.565.218l3.862-.025a.916.916,0,0,1,.731.244.7.7,0,0,1,.18.513c-.009.4-.178.8-.911.8H129.3a.821.821,0,1,0,0,1.643h5.492a2.517,2.517,0,0,0,2.554-2.4,2.364,2.364,0,0,0-.642-1.694,2.617,2.617,0,0,0-1.912-.744h-.013l-3.58.026a7.477,7.477,0,0,0-4.85-1.809Zm20.183.013a3.743,3.743,0,0,0-1.629.41l-4.889,2.49a.821.821,0,1,0,.744,1.463l4.889-2.489a1.447,1.447,0,0,1,1.873.205c.306.461.154,1.108-.552,1.527l-.013.013-10.393,6.313H125.207l-5.4-9.341A.821.821,0,0,0,118.688,64l-3.464,2a.8.8,0,0,0-.077.039.821.821,0,0,0-.218,1.078l6.775,11.74a.821.821,0,0,0,1.129.308l3.452-2a.821.821,0,0,0,.308-1.116l-.436-.757h10.637a.82.82,0,0,0,.436-.128L147.8,68.745l.013-.013a2.777,2.777,0,0,0,1.078-3.849,2.61,2.61,0,0,0-1.809-1.129,3.3,3.3,0,0,0-.552-.038Zm-27.741,2.117,5.967,10.33-2.04,1.168-5.954-10.316Z" transform="translate(2265.469 -222.788)" fill="#fff"/>
  </g>
</svg>
