<?xml version="1.0" encoding="utf-8"?>
<!-- Generator: Adobe Illustrator 27.0.1, SVG Export Plug-In . SVG Version: 6.00 Build 0)  -->
<svg version="1.1" id="Layer_1" xmlns="http://www.w3.org/2000/svg" xmlns:xlink="http://www.w3.org/1999/xlink" x="0px" y="0px"
	 viewBox="0 0 820 312" style="enable-background:new 0 0 820 312;" xml:space="preserve">
<g>
	<path d="M368.5,10.5c-25.8,70.8-51.3,141-77.2,212.1c10.8,0,20.8,0.1,30.7-0.2c1.2,0,2.7-2.6,3.3-4.2c9.2-24.9,18.2-49.8,27.3-74.8
		c4.1-11.2,8.1-22.3,12.2-33.5c7.9,0,15.6,0,23.8,0c-13.7,37.5-27.2,74.7-41,112.7c7.9,0,15,0,22.2,0c10.3,0,10.3,0,13.7-9.5
		c11.4-31.5,23-62.9,34.2-94.4c1.5-4.1,2.5-8.8,2.1-13c-0.9-10-9-16.1-20.8-16.3c-8.6-0.2-17.3,0-26.5,0c0.6-1.9,1-3.3,1.5-4.7
		c9.2-25.4,18.5-50.7,27.6-76.1c1.2-3.3,2.8-4.4,6.3-4.4c77-1,142.2,55.7,152.4,132.4c11,82.7-47.9,159.1-130.8,169.6
		c-7.6,1-15.2,1.2-23.7,1.8c0.7-2.5,1.1-4,1.6-5.4c9.2-25.4,18.5-50.7,27.6-76.1c1.1-3,2.4-4,5.6-4c12,0.2,24.1,0.1,36.1,0.1
		c10.7,0,17.9-5,21.5-15c10.7-29.4,21.5-58.8,32.2-88.3c0.6-1.7,1.3-3.5,1.7-5.3c3.2-13.2-4.3-24-18.4-24.5
		c-19.6-0.7-39.2-0.3-58.8,0c-1.4,0-3.4,2.6-4.1,4.4c-12.2,33.1-24.2,66.4-36.3,99.6c-12.7,34.9-25.4,69.9-38.1,104.8
		c-0.6,1.6-1.2,3.1-1.8,4.6c-54.2-11-115.5-64-116.2-145.7C257.7,74.9,318.4,22.6,368.5,10.5z"/>
	<path d="M501.3,109.6c-0.6,1.9-1,3.4-1.5,4.8c-10.1,27.8-20.4,55.6-30.4,83.5c-1.2,3.4-2.8,4.5-6.3,4.3c-6.1-0.3-12.3-0.1-19-0.1
		c0.7-2.1,1.2-3.7,1.8-5.2c10-27.5,20.1-55.1,30-82.7c1.3-3.8,3.1-4.9,6.9-4.7C488.8,109.8,494.9,109.6,501.3,109.6z"/>
</g>
</svg>
