<?xml version="1.0" encoding="utf-8"?>
<!-- Generator: Adobe Illustrator 27.0.1, SVG Export Plug-In . SVG Version: 6.00 Build 0)  -->
<svg version="1.1" id="Layer_1" xmlns="http://www.w3.org/2000/svg" xmlns:xlink="http://www.w3.org/1999/xlink" x="0px" y="0px"
	 viewBox="0 0 820 312" style="enable-background:new 0 0 820 312;" xml:space="preserve">
<style type="text/css">
	.st0{fill:#00519A;}
</style>
<g>
	<path class="st0" d="M283.1,182.6c0,8.2,0,16.2,0,24.4c-2.2,0-4.3,0-6.4,0c-5.2,0-10.3,0.1-15.5,0c-1.5,0-2,0.5-2.3,1.9
		c-6.3,25.6-22,42.7-47.4,49.6c-36.2,9.9-72.6-12.5-81.1-49.3c-0.4-1.9-1.2-2.3-2.9-2.3C88,207,48.4,207,8.9,207c-0.9,0-1.8,0-2.9,0
		c0-8.1,0-16.1,0-24.4c26.1,0,52.2,0,78.3,0c-21.3-2.6-38.5-12.2-50.2-30.3c-11.8-18.2-14-37.8-6.6-58.2
		C40.3,58.9,79.7,42,114.3,56.1c35.6,14.5,53.3,59.4,30.6,96.2c0.5-0.5,1-0.9,1.5-1.4c11.7-12.4,25.9-19.5,43-21
		c32.4-2.7,62,18.7,69.4,50.3c0.4,1.8,1.1,2.5,3.1,2.4C268.7,182.5,275.8,182.6,283.1,182.6z M89.1,158.1
		c22.9,0,41.5-18.6,41.5-41.5c0-22.7-18.6-41.3-41.3-41.3c-22.8-0.1-41.5,18.6-41.5,41.5C47.7,139.6,66.2,158.1,89.1,158.1z
		 M234.4,207.2c-26.4,0-52.7,0-79.2,0c3.8,15,19.5,30,40.3,29.5C217.5,236.2,231.8,219.3,234.4,207.2z M233.7,182.5
		c-2.8-12.7-17.8-28.2-37.9-28.7c-22.4-0.5-36.8,16.6-39.5,28.7C182.1,182.5,207.9,182.5,233.7,182.5z M93.7,182.4
		c0.2,0,0.4,0.1,0.6,0.1c11.5,0,23,0,34.6,0.1c1.3,0,1.5-0.7,1.7-1.7c1.5-7.1,4.3-13.7,8-19.9c0.3-0.5,0.5-1,0.7-1.5
		C127,173,111.9,180.6,93.7,182.4z"/>
	<path class="st0" d="M626.3,155.4c2.9,0.9,5.6,1.7,8.1,2.6c5.2,2,10,4.7,13.6,9.1c8.1,9.7,6.4,23-3.9,30.3
		c-6.9,4.9-14.9,7.2-23.1,8.3c-5.4,0.8-10.8,1.2-16.2,1.2c-30.9,0.1-61.8,0.1-92.7,0.1c-2.7,0-2.8,0-2.8-2.8c0-30.8,0-61.5,0-92.3
		c0-2.8,0-2.8,2.8-2.8c33,0,66,0,99.1,0c8.9,0,17.6,1.1,25.8,4.9c6.3,2.9,11,7.3,12,14.5c1.3,9.7-3.3,18.5-12.1,23
		c-2.9,1.5-6,2.3-9.1,3.4C627.4,155,627,155.1,626.3,155.4z M572.9,185.1c12,0,24,0,36,0c4.5,0,8.9-0.5,13-2.5
		c2.7-1.3,4.7-3.2,4.7-6.4c0-3.2-2.1-5.1-4.8-6.4c-3.8-1.9-8-2.4-12.2-2.4c-24.7-0.1-49.3,0-74-0.1c-1.7,0-2.1,0.6-2.1,2.2
		c0.1,4.3,0.1,8.6,0,12.9c-0.1,2.1,0.5,2.8,2.7,2.8C548.4,185,560.6,185.1,572.9,185.1z M533.7,146.8c0.5,0.1,0.8,0.1,1,0.1
		c25.4,0,50.8,0.1,76.2-0.1c3.8,0,7.7-1.5,11.4-2.8c2.6-0.9,4.4-3.1,4.4-6.2c-0.1-3.2-2.2-4.9-4.8-6.2c-0.6-0.3-1.2-0.6-1.8-0.7
		c-4-0.6-7.9-1.5-11.9-1.6c-24-0.1-47.9-0.1-71.9-0.1c-0.8,0-1.6,0-2.6,0C533.7,135.3,533.7,141,533.7,146.8z"/>
	<path class="st0" d="M814,207c-8,0-15.7,0-23.4-0.1c-0.6,0-1.5-1.1-1.8-1.8c-3.2-8.5-6.3-16.9-9.3-25.4c-0.6-1.6-1.3-2.1-3-2.1
		c-26.5,0-53,0-79.6,0c-1.6,0-2.5,0.4-3.1,2.1c-3,8.4-6.2,16.7-9.1,25.1c-0.7,1.9-1.6,2.4-3.5,2.4c-6.4-0.1-12.9,0-19.3,0
		c-0.8,0-1.5,0-2.7,0c0.3-0.9,0.5-1.5,0.7-2.2c11.2-31.2,22.3-62.4,33.4-93.7c0.6-1.6,1.3-2.1,3-2.1c26.9,0.1,53.7,0,80.6,0
		c1.2,0,2.2,0,2.7,1.6c11.2,31.6,22.6,63.3,33.9,94.9C813.7,205.9,813.8,206.3,814,207z M771.2,156.3c-0.1-0.5-0.1-0.7-0.1-0.9
		c-3-8.3-5.9-16.6-9-24.9c-0.2-0.6-1.4-1.3-2.2-1.3c-15.5-0.1-31,0-46.4-0.1c-1.4,0-2.1,0.5-2.6,1.9c-2.1,6-4.2,12-6.4,18
		c-0.8,2.4-1.7,4.7-2.6,7.3C725.1,156.3,748.1,156.3,771.2,156.3z"/>
	<path class="st0" d="M420.1,156.4c26.4,16.9,52.5,33.6,79,50.5c-1.1,0.1-1.7,0.1-2.3,0.1c-13.2,0-26.3,0-39.5,0
		c-1.1,0-2.3-0.2-3.2-0.8c-25.6-16.3-51.2-32.7-76.8-49.1c-0.3-0.2-0.6-0.4-1.1-0.7c2.5-1.5,4.8-2.9,7.2-4.3
		c23.3-14,46.7-28,70-41.9c1-0.6,2.2-1,3.3-1c13.4-0.1,26.7,0,40.1,0c0.4,0,0.8,0.1,1.9,0.1C472.3,125,446.4,140.6,420.1,156.4z"/>
	<path class="st0" d="M375.6,206.9c-8.3,0-16.4,0-24.7,0c0-0.8-0.1-1.6-0.1-2.3c0-31,0-61.9,0-92.9c0-2,0.5-2.7,2.6-2.6
		c6.7,0.1,13.4,0.1,20.1,0c1.7,0,2.3,0.4,2.3,2.2c-0.1,31.2,0,62.5,0,93.7C375.7,205.5,375.7,206.1,375.6,206.9z"/>
</g>
</svg>
