<?xml version="1.0" encoding="utf-8"?>
<!-- Generator: Adobe Illustrator 27.0.1, SVG Export Plug-In . SVG Version: 6.00 Build 0)  -->
<svg version="1.1" id="Layer_1" xmlns="http://www.w3.org/2000/svg" xmlns:xlink="http://www.w3.org/1999/xlink" x="0px" y="0px"
	 viewBox="0 0 820 312" style="enable-background:new 0 0 820 312;" xml:space="preserve">
<style type="text/css">
	.st0{fill:#00317B;}
</style>
<g>
	<path class="st0" d="M320.6,203.6c-7.2,0-13.9,0-20.8,0c0-29.4,0-58.7,0-88.1c0.4-0.1,0.9-0.3,1.4-0.3c10.4,0,20.7-0.1,31.1,0.1
		c1.1,0,2.6,1,3.3,1.9c15.1,19.2,30.1,38.5,45.2,57.7c0.9,1.2,1.8,2.3,3,3.7c3.9-5,7.7-9.8,11.4-14.5c12.2-15.6,24.3-31.1,36.4-46.7
		c1.2-1.6,2.5-2.2,4.5-2.2c9.5,0.1,19,0,28.4,0c1,0,2,0,3.2,0c0,29.5,0,58.8,0,88.3c-6.8,0-13.5,0-20.6,0c0-21.4,0-42.9,0-65.3
		c-1.2,1.3-1.8,1.8-2.2,2.4c-15.7,20.3-31.4,40.5-47,60.8c-1.4,1.8-2.7,2.5-5,2.4c-6.2-0.1-12.4-0.1-18.5,0c-2,0-3.3-0.6-4.5-2.2
		c-15.5-20.2-31.1-40.3-46.6-60.4c-0.6-0.8-1.3-1.6-2.6-2.2C320.6,160.5,320.6,182,320.6,203.6z"/>
	<path class="st0" d="M213.7,203.9c-16.2,0-32.3-0.3-48.5,0.1c-12.6,0.3-22.8-9.4-22.5-22.5c0.3-14.7,0-29.3,0.1-44
		c0-13.5,8.7-22.3,22.3-22.3c32.5,0,65,0,97.6,0c13.6,0,22.3,8.7,22.3,22.3c0,14.8,0.1,29.5,0,44.3c-0.1,13.4-8.8,22.1-22.1,22.1
		C246.4,203.9,230.1,203.9,213.7,203.9z M164.1,136.8c0,15.2,0,30.2,0,45.3c33.1,0,65.8,0,98.7,0c0-15.2,0-30.2,0-45.3
		C229.9,136.8,197.1,136.8,164.1,136.8z"/>
	<path class="st0" d="M550.4,203.9c-16.3,0-32.5,0-48.8,0c-13.3,0-22-8.5-22.1-21.8c-0.1-15.1-0.1-30.1,0-45.2
		c0.1-13.2,8.7-21.7,21.8-21.7c32.7-0.1,65.4-0.1,98.2,0c13.4,0,22,8.8,22,22.2c0,14.8,0,29.5,0,44.3c0,13.4-8.7,22.1-22.1,22.2
		C583.1,203.9,566.8,203.9,550.4,203.9z M500.8,136.8c0,15.3,0,30.3,0,45.3c33,0,65.7,0,98.7,0c0-15.2,0-30.2,0-45.3
		C566.5,136.8,533.8,136.8,500.8,136.8z"/>
	<path class="st0" d="M657.5,203.6c-8.1,0-15.8,0-23.4,0c0-29.5,0-58.8,0-88.4c1.4,0,2.4,0,3.5,0c38.5,0,77,0,115.5,0
		c14.1,0,22.6,8.5,22.7,22.5c0,2.5,0,5,0,7.5c-0.1,7-2.5,12.3-10.4,14c0.8,0.5,1.1,0.8,1.5,1c5.8,2,8.8,6,8.8,12.1
		c0.1,10.4,0,20.7,0,31.3c-7.3,0-14.2,0-21.6,0c0-12.3,0-24.7,0-37.3c-32.4,0-64.3,0-96.6,0C657.5,178.8,657.5,191.1,657.5,203.6z
		 M756.3,132.7c-33,0-65.6,0-98.2,0c0,5.1,0,9.9,0,14.8c32.9,0,65.5,0,98.2,0C756.3,142.4,756.3,137.7,756.3,132.7z"/>
	<path class="st0" d="M57.2,159.2c29.4,14.8,58.3,29.4,87.1,43.9c-0.1,0.2-0.1,0.4-0.2,0.6c-3.2,0-6.5,0-9.7,0
		c-11,0-21.9,0.1-32.9-0.1c-1.8,0-3.8-0.5-5.4-1.3c-22.8-11.6-45.6-23.3-68.4-34.9c-0.9-0.4-1.8-0.8-3-1.3c0,12.8,0,25.2,0,37.8
		c-6.8,0-13.3,0-20.1,0c0-29.5,0-59,0-88.6c6.6,0,13.1,0,19.9,0c0,12.3,0,24.4,0,37.2c1.4-0.7,2.5-1.2,3.5-1.7
		c22.2-11.5,44.4-22.9,66.7-34.4c1-0.5,2.2-1.2,3.3-1.2c14.2-0.1,28.3-0.1,43.2-0.1C113.1,129.9,85.5,144.4,57.2,159.2z"/>
	<path class="st0" d="M810.7,203.7c-7.7,0-15.2,0-22.9,0c0-29.6,0-59.1,0-88.7c7.6,0,15.1,0,22.9,0
		C810.7,144.5,810.7,174,810.7,203.7z"/>
</g>
</svg>
