<svg xmlns="http://www.w3.org/2000/svg" xmlns:xlink="http://www.w3.org/1999/xlink" width="811" height="90" viewBox="0 0 811 90">
  <defs>
    <clipPath id="clip-path">
      <rect id="Rectangle_4" data-name="Rectangle 4" width="811" height="90" fill="#fff"/>
    </clipPath>
  </defs>
  <g id="Mask_Group_3" data-name="Mask Group 3" clip-path="url(#clip-path)">
    <g id="g6">
      <g id="g8">
        <g id="g10">
          <path id="polygon12" d="M381,.314,331.18,64.1,281.358.314h-34.93l.128,89.206,21.344.129L267.851,23.7l51.033,65.961,24.61.069,1.785-2.4L394.5,23.7l-.044,65.953L415.8,89.52l.13-89.206Z" transform="translate(50.06 0.064)" fill="#00317b" fill-rule="evenodd"/>
          <path id="polygon14" d="M677.858.056V89.848h-23.7V.056Z" transform="translate(132.888 0.011)" fill="#00317b" fill-rule="evenodd"/>
          <path id="polygon16" d="M142.29,89.584,53.369,44.826,138.892.067,93.511.378,94.1,0,20.571,37.909V.274H0V90H20.571V51.676L94.744,89.584Z" fill="#00317b" fill-rule="evenodd"/>
          <path id="path18" d="M237.469.314H136.74A21.137,21.137,0,0,0,115.6,21.451V68.695A21.134,21.134,0,0,0,136.74,89.821h100.73A21.134,21.134,0,0,0,258.6,68.695V21.451A21.137,21.137,0,0,0,237.469.314ZM236.4,22.234V67.867H137V22.234Z" transform="translate(23.484 0.064)" fill="#00317b" fill-rule="evenodd"/>
          <path id="path20" d="M518.615.314H417.9a21.129,21.129,0,0,0-21.136,21.137V68.695A21.127,21.127,0,0,0,417.9,89.821H518.615a21.133,21.133,0,0,0,21.134-21.126V21.451A21.136,21.136,0,0,0,518.615.314Zm-1.058,21.92V67.867H418.164V22.234Z" transform="translate(80.6 0.064)" fill="#00317b" fill-rule="evenodd"/>
          <path id="path22" d="M668.533,21.451A21.128,21.128,0,0,0,647.405.314H525.819L525.646,89.8h23.99V51.864l96.835-.011V89.8H668.4l.129-30.691c0-5.489-1.268-11.7-11.145-14.191,9.563-1.521,11.145-8.7,11.145-14.186V21.451ZM648.8,17.9V33.136h-98.77V17.9Z" transform="translate(106.782 0.064)" fill="#00317b" fill-rule="evenodd"/>
        </g>
      </g>
    </g>
  </g>
</svg>
