<svg xmlns="http://www.w3.org/2000/svg" xmlns:xlink="http://www.w3.org/1999/xlink" width="647" height="90" viewBox="0 0 647 90">
  <defs>
    <clipPath id="clip-path">
      <rect id="Rectangle_5" data-name="Rectangle 5" width="647" height="90" fill="#fff" stroke="#707070" stroke-width="1"/>
    </clipPath>
  </defs>
  <g id="Mask_Group_4" data-name="Mask Group 4" clip-path="url(#clip-path)">
    <g id="g11" transform="translate(-67.411 292.665)">
      <path id="path43" d="M121.707-265.093c-3.917-5.791-10.048-8.738-19.051-8.738a26.734,26.734,0,0,0-18.215,7.44l-2.947-6.853L67.41-272.3v67.313H86.918v-48.183a13.243,13.243,0,0,1,10.414-4.719c7.327,0,10.172,3.065,10.172,9.212v43.69h19.288V-252a12.278,12.278,0,0,1,10.4-5.893c7.451,0,10.3,3.421,10.3,9.8v43.1H166.87v-43.47c0-15.929-9.331-25.373-24.831-25.373-8.631,0-15.619,3.065-20.332,8.738" transform="translate(0 0.071)" fill="#868d91"/>
      <path id="path47" d="M346.964-273.242,331.6-272.3v67.307h19.508v-36.837C353.359-251.4,359.388-256,367.55-256a43.344,43.344,0,0,1,8.044.824L377.011-273a36.476,36.476,0,0,0-8.4-.943c-7.677,0-15.252,3.3-19.762,10.99Z" transform="translate(0.995 0.071)" fill="#868d91"/>
      <path id="path51" d="M464.754-291.117v86.2h19.508v-87.747Z" transform="translate(1.497 0)" fill="#868d91"/>
      <path id="path63" d="M269.188-273.242,255-272.3v67.307h19.525v-48.065c2.371-2.947,7.09-4.832,11.831-4.832,8.382,0,11.21,3.065,11.21,9.918v42.979h19.525v-42.979c0-16.3-9.692-25.977-25.531-25.977-7.457,0-13.954,3.065-19.406,7.558Z" transform="translate(0.707 0.071)" fill="#868d91"/>
      <path id="path67" d="M696.243-204.919h15.6v-87.747l-19.39,1.547V-268.1a28.819,28.819,0,0,0-17.4-5.78c-17.843,0-27.907,12.288-27.907,35.07,0,23.871,9.24,35.07,28.161,35.07,8.4,0,14.541-2.715,19.034-7.31Zm-3.788-18.419c-1.078,1.648-4.612,5.306-12.068,5.306-10.183,0-13.248-4.719-13.248-20.073,0-14.524,3.319-19.847,13.367-19.847,5.554,0,9.461,1.784,11.95,4.256Z" transform="translate(2.184)" fill="#868d91"/>
      <path id="path71" d="M587-273.242l-14.2.943v67.307h19.519v-48.065c2.359-2.947,7.09-4.832,11.82-4.832,8.4,0,11.239,3.065,11.239,9.918v42.979H634.9v-42.979c0-16.3-9.709-25.977-25.565-25.977-7.44,0-13.954,3.065-19.39,7.558Z" transform="translate(1.904 0.071)" fill="#868d91"/>
      <path id="path75" d="M220.984-224.351c-1.53,2.472-5.317,5.656-13.011,5.656-6.029,0-10.048-1.293-10.048-7.66,0-6.277,4.849-7.694,12.3-7.694h10.759ZM240.39-245.13c0-19.508-10.166-28.7-32.18-28.7a144.489,144.489,0,0,0-23.77,2l1.665,15.116a146.715,146.715,0,0,1,19.04-1.648c12.644,0,15.839,3.421,15.839,8.49v2.235H206.81c-18.7,0-28.41,8.518-28.41,21.986,0,14.044,9,21.839,23.544,21.839,10.285,0,16.33-3.184,20.231-7.31l1.891,6.13H240.39Z" transform="translate(0.418 0.071)" fill="#868d91"/>
      <path id="path79" d="M399.662-238.992a17.646,17.646,0,0,1,17.493-17.713,17.648,17.648,0,0,1,17.5,17.713,17.648,17.648,0,0,1-17.5,17.713,17.646,17.646,0,0,1-17.493-17.713m-18.814,0a36.216,36.216,0,0,0,36.307,36.261,36.215,36.215,0,0,0,36.3-36.261,36.205,36.205,0,0,0-36.3-36.25,36.207,36.207,0,0,0-36.307,36.25" transform="translate(1.181 0.066)" fill="#005078"/>
      <path id="path83" d="M538.913-224.351c-1.547,2.472-5.334,5.656-13.028,5.656-6.023,0-10.048-1.293-10.048-7.66,0-6.277,4.849-7.694,12.305-7.694h10.77ZM558.3-245.13c0-19.508-10.177-28.7-32.18-28.7a144.407,144.407,0,0,0-23.764,2l1.648,15.116a147.468,147.468,0,0,1,19.04-1.648c12.672,0,15.867,3.421,15.867,8.49v2.235h-14.2c-18.7,0-28.382,8.518-28.382,21.986,0,14.044,8.975,21.839,23.533,21.839,10.3,0,16.313-3.184,20.231-7.31l1.885,6.13H558.3Z" transform="translate(1.616 0.071)" fill="#868d91"/>
    </g>
  </g>
</svg>
