<svg xmlns="http://www.w3.org/2000/svg" xmlns:xlink="http://www.w3.org/1999/xlink" width="50" height="30.84" viewBox="0 0 50 30.84">
  <defs>
    <clipPath id="clip-path">
      <rect id="Rectangle_1" data-name="Rectangle 1" width="50" height="30.84" fill="#fff"/>
    </clipPath>
  </defs>
  <g id="Mask_Group_1" data-name="Mask Group 1" clip-path="url(#clip-path)">
    <g id="Group_9987" data-name="Group 9987" transform="translate(-1695.934 -264.5)">
      <path id="Path_19572" data-name="Path 19572" d="M415.85,145.269a18.687,18.687,0,0,1-3.579-3.789,13.746,13.746,0,0,0,4.842-10.316c0-8.1-7.473-14.684-16.684-14.684a19.3,19.3,0,0,0-3.947.421,17.21,17.21,0,0,1,0,28.526,19.3,19.3,0,0,0,3.947.421,17.807,17.807,0,0,0,5.316-.792,25.608,25.608,0,0,0,9.526,2.1,1.036,1.036,0,0,0,.579-1.895Z" transform="translate(1328.821 148.02)"/>
      <path id="Path_19573" data-name="Path 19573" d="M100.684,116.479c-9.211,0-16.684,6.579-16.684,14.684a13.663,13.663,0,0,0,4.842,10.316,18.688,18.688,0,0,1-3.579,3.79,1.084,1.084,0,0,0,.579,1.947,26.706,26.706,0,0,0,9.526-2.1,19.673,19.673,0,0,0,5.316.789c9.21,0,16.684-6.579,16.684-14.684s-7.473-14.737-16.684-14.737Zm-.158,24.211a2.053,2.053,0,1,1,0-4.105,2.09,2.09,0,0,1,2.053,2.053,2.055,2.055,0,0,1-2.053,2.053Zm2.526-8.421c-.947.789-.947,1.21-.947,1.368v.74a.7.7,0,0,1-.684.684h-1.9a.7.7,0,0,1-.684-.684v-.74A4.977,4.977,0,0,1,101,129.742c1.053-.842,2.158-1.842,2.158-2.789,0-1.421-.684-2.053-2.368-2.053-2.579,0-2.579,1.895-2.579,1.947v.316a.7.7,0,0,1-.684.684H95.685a.7.7,0,0,1-.684-.684v-.316c0-2.105,1.579-5.263,5.845-5.263,4.158,0,5.632,2.738,5.632,5.316-.053,2.632-2.158,4.366-3.421,5.369Z" transform="translate(1611.934 148.021)"/>
    </g>
  </g>
</svg>
