<svg xmlns="http://www.w3.org/2000/svg" width="60.005" height="31.582" viewBox="0 0 60.005 31.582">
  <g id="Pencil" transform="translate(-0.313 -0.358)">
    <path id="Path_19852" data-name="Path 19852" d="M51.669,16.274V23.1a2.453,2.453,0,0,1-2.453,2.453H42.391a11.913,11.913,0,0,1,9.278-9.278Z" transform="translate(7.947 5.653)" fill="#fff"/>
    <path id="Path_19853" data-name="Path 19853" d="M60.287,1.314A1.016,1.016,0,0,0,59.2.363a1.043,1.043,0,0,0-.9,1.151,7.043,7.043,0,0,1,0,1.124A6.872,6.872,0,0,1,57.83,4.7c-.016.04-.031.082-.048.122a6.358,6.358,0,0,1-.477.91c-.03.049-.063.1-.1.143a6.114,6.114,0,0,1-.64.817,6.144,6.144,0,0,1-.847.73c-.1.071-.195.134-.294.2a5.874,5.874,0,0,1-.664.369c-.107.051-.213.108-.324.152a5.876,5.876,0,0,1-.945.3c-.121.027-.243.035-.364.054a6.1,6.1,0,0,1-.664.067c-.152,0-.3,0-.456,0-.2-.009-.394-.032-.59-.06-.153-.022-.308-.038-.461-.072a5.838,5.838,0,0,1-.9-.281l-.178-.072a6.044,6.044,0,0,1-1.953-1.378L42.226.667a.962.962,0,0,0-1.412,0,1.1,1.1,0,0,0,0,1.493l5.7,6.025a6.444,6.444,0,0,1,1.3,2.062l.07.192a6.917,6.917,0,0,1,.264.943c.033.167.048.336.07.5.025.2.047.4.055.605.006.164.007.329,0,.493-.008.229-.031.457-.061.685-.018.133-.027.268-.053.4a6.679,6.679,0,0,1-.278.994c-.043.119-.1.233-.149.348a6.419,6.419,0,0,1-.345.694c-.061.107-.122.213-.189.317a6.418,6.418,0,0,1-.682.883l-.008.009-.01.01a6.1,6.1,0,0,1-.833.719c-.1.072-.2.138-.3.2a6.227,6.227,0,0,1-.649.361c-.113.054-.224.113-.339.16a5.818,5.818,0,0,1-.934.292c-.13.028-.264.038-.4.058a6.042,6.042,0,0,1-.627.063c-.159.006-.319,0-.48,0-.187-.009-.373-.03-.559-.057-.163-.023-.325-.039-.486-.076a5.975,5.975,0,0,1-.889-.278l-.184-.074a6.073,6.073,0,0,1-1.95-1.378L22.121.667a.962.962,0,0,0-1.412,0,1.1,1.1,0,0,0,0,1.493L36.464,18.808a6.48,6.48,0,0,1,1.262,1.946l.113.312a6.775,6.775,0,0,1-.754,6.092c-.029.043-.059.084-.089.127a6.224,6.224,0,0,1-.533.652,5.937,5.937,0,0,1-3.977,1.853v.021c-.114.007-.227.018-.342.018a5.914,5.914,0,0,1-4.321-1.892L2.017.667A.962.962,0,0,0,.6.667a1.1,1.1,0,0,0,0,1.493l25.807,27.27a7.846,7.846,0,0,0,5.733,2.509c.262,0,.522-.015.78-.04H57.481a2.923,2.923,0,0,0,2.836-3V2.55h-.01A9.434,9.434,0,0,0,60.287,1.314ZM58.319,7.8V28.9a.865.865,0,0,1-.838.887H37.515c.124-.116.244-.235.362-.358a8.8,8.8,0,0,0,.664-.805l.127-.18a8.762,8.762,0,0,0,.506-.816c.01-.017.021-.034.03-.051a8.887,8.887,0,0,0,1.048-4.2,9.025,9.025,0,0,0-.325-2.4,7.691,7.691,0,0,0,6.254-.767l.031-.019A7.972,7.972,0,0,0,47,19.64c.055-.043.111-.084.165-.129a8.462,8.462,0,0,0,.764-.7,8.639,8.639,0,0,0,.659-.8c.052-.071.1-.141.149-.213.161-.233.309-.473.446-.717.031-.057.063-.112.093-.169a8.8,8.8,0,0,0,.753-1.989c.009-.04.017-.08.027-.119a9.122,9.122,0,0,0,.179-1.023l0-.032a9.132,9.132,0,0,0-.033-2.236l-.008-.051a8.856,8.856,0,0,0-.222-1.11,7.889,7.889,0,0,0,1.043.235l.062.009a7.67,7.67,0,0,0,1.168.1,7.8,7.8,0,0,0,.938-.063l.037,0a7.892,7.892,0,0,0,.961-.188l.116-.029a7.834,7.834,0,0,0,1.883-.8c.053-.03.1-.066.157-.1q.349-.217.681-.473c.068-.052.135-.1.2-.157a8.267,8.267,0,0,0,.757-.7C58.1,8.062,58.211,7.935,58.319,7.8Z" transform="translate(0 0)" fill="#fff"/>
  </g>
</svg>
