<svg xmlns="http://www.w3.org/2000/svg" xmlns:xlink="http://www.w3.org/1999/xlink" width="165" height="90" viewBox="0 0 165 90">
  <defs>
    <clipPath id="clip-path">
      <rect id="Rectangle_10" data-name="Rectangle 10" width="165" height="90" fill="#fff"/>
    </clipPath>
  </defs>
  <g id="Mask_Group_9" data-name="Mask Group 9" clip-path="url(#clip-path)">
    <g id="Group_4" data-name="Group 4" transform="translate(-112.504 -47.447)">
      <path id="Path_36" data-name="Path 36" d="M113.631,116.533v-.02h6.45v.02l11.2,16.914h-6.4C121.125,127.783,117.37,122.182,113.631,116.533ZM79.689,54.868l22.774,34.408v9.672L79.689,64.54Zm0-11.421,22.774,34.408v9.672L79.689,53.119Zm41.459,73.086v-.02h6.45v.02l11.2,16.914h-6.4c-3.746-5.66-7.506-11.267-11.244-16.914Z" transform="translate(99.575 4)" fill="#cc2229" fill-rule="evenodd"/>
      <path id="Path_37" data-name="Path 37" d="M8.5,129.624H21.568V117.4h5.257V117.4c.415.048,1.179-.006,1.606-.006a10.888,10.888,0,0,0,.951-21.738H8.5V90.327H29.157a13,13,0,0,1,1.547.081A16.14,16.14,0,0,1,41.452,96.85a22.585,22.585,0,0,1,33.812.9V67.8L98.038,102.21V117.2L116.4,89.466l26.567,40.141H157.43l-10.3-15.566h6.4l0,.008h4.927v-.019c.115,0,.231.007.348.007a9.223,9.223,0,0,0,9.3-9.188,9.37,9.37,0,0,0-9.626-9.186l-20.4-.013V90.325H158.5a14.506,14.506,0,0,1,1.122,28.987l0,.044c-.813.073-1.714,0-2.572,0l10.329,15.6H140.107L116.4,99.138l-12.5,18.889h4.243v.02l11.2,16.914H79.993v-5.337H109.4l-4.142-6.257H92.7V104.112L80.6,85.54v26.93h0a22.639,22.639,0,0,1-43.778,7.953,16.181,16.181,0,0,1-8.408,2.343c-.4,0-1.081-.015-1.508-.042v12.235H8.5v-5.335Zm66.76-17.35a17.294,17.294,0,0,0-31.216-10.228,16.151,16.151,0,0,1-2.86,14.527,17.3,17.3,0,0,0,34.076-4.3Z" transform="translate(104 2.486)" fill-rule="evenodd"/>
    </g>
  </g>
</svg>
