<svg xmlns="http://www.w3.org/2000/svg" width="145.117" height="58.328" viewBox="0 0 145.117 58.328">
  <g id="Group_256" data-name="Group 256" transform="translate(-1147.828 -3202.645)">
    <path id="Path_76" data-name="Path 76" d="M11657.258,3230.926s20.7-23.893,37.321-22.836,24.569,22.121,21.232,37.143-29.655-1.38-8.945-28.181,72.488-13.415,71.078-10.134" transform="translate(-10509.052 9.523)" fill="none" stroke="#da271f" stroke-width="1" stroke-dasharray="1"/>
    <g id="Polygon_1" data-name="Polygon 1" transform="translate(1292.945 3210.103) rotate(111)" fill="#da271f" stroke-dasharray="1">
      <path d="M13.994,0,27.988,20.812H0Z" stroke="none"/>
      <path d="M 15.11005783081055 1.659694671630859 C 15.11005783081055 1.659694671630859 15.66805839538574 2.489534378051758 15.66805839538574 2.489534378051758 L 14.83821773529053 3.047534942626953 L 14.28021812438965 2.217683792114258 L 15.11005783081055 1.659694671630859 Z M 16.22605895996094 3.319374084472656 L 16.78405380249023 4.149215698242188 L 15.95420837402344 4.70721435546875 L 15.39621829986572 3.877374649047852 L 16.22605895996094 3.319374084472656 Z M 17.34204864501953 4.979063987731934 C 17.34204864501953 4.979063987731934 17.90004730224609 5.808904647827148 17.90004730224609 5.808904647827148 L 17.07020950317383 6.366904258728027 L 16.51220703125 5.537054061889648 L 17.34204864501953 4.979063987731934 Z M 18.45804786682129 6.638744354248047 L 19.01604461669922 7.468586921691895 L 18.18619918823242 8.026584625244141 L 17.62820816040039 7.196743965148926 L 18.45804786682129 6.638744354248047 Z M 19.57403945922852 8.298434257507324 C 19.57403945922852 8.298434257507324 20.13203811645508 9.128273963928223 20.13203811645508 9.128273963928223 L 19.30219841003418 9.686274528503418 L 18.74419784545898 8.856424331665039 L 19.57403945922852 8.298434257507324 Z M 20.69003677368164 9.958114624023438 L 21.24803352355957 10.78795719146729 L 20.41818809509277 11.34595394134521 L 19.86019897460938 10.51611423492432 L 20.69003868103027 9.958114624023438 Z M 21.80602836608887 11.61780452728271 C 21.80602836608887 11.61780452728271 22.36402893066406 12.44764423370361 22.36402893066406 12.44764423370361 L 21.53418731689453 13.00564384460449 L 20.97618865966797 12.17579460144043 L 21.80602836608887 11.61780452728271 Z M 22.92202758789062 13.27748489379883 L 23.48002433776855 14.10732650756836 L 22.65017700195312 14.66532421112061 L 22.09218788146973 13.83548355102539 L 22.92202758789062 13.27748489379883 Z M 24.03801727294922 14.93717384338379 C 24.03801727294922 14.93717384338379 24.59601783752441 15.76701354980469 24.59601783752441 15.76701354980469 L 23.76617813110352 16.32501411437988 L 23.20817756652832 15.49517440795898 L 24.03801727294922 14.93717384338379 Z M 25.15401649475098 16.59685516357422 L 25.7000904083252 17.40896606445312 C 25.70010185241699 17.40898132324219 25.70010566711426 17.40898704528809 25.70011520385742 17.40900421142578 L 25.70255851745605 17.41263580322266 C 25.70257377624512 17.41265869140625 25.70257949829102 17.41266632080078 25.70259475708008 17.41268920898438 L 25.70666313171387 17.41874122619629 C 25.7066707611084 17.41875267028809 25.70667839050293 17.41876220703125 25.70668411254883 17.41877365112305 L 25.70693397521973 17.41914367675781 C 25.70698738098145 17.41922378540039 25.7070484161377 17.41931343078613 25.70710182189941 17.41939163208008 L 25.70755386352539 17.42006492614746 C 25.70766258239746 17.42022705078125 25.7077751159668 17.42039489746094 25.7078800201416 17.42055130004883 L 25.70940017700195 17.42280960083008 C 25.70940399169922 17.42281723022461 25.70940780639648 17.42282104492188 25.70941162109375 17.42282867431641 L 25.71026039123535 17.42409133911133 C 25.71029663085938 17.42414474487305 25.7103328704834 17.42419815063477 25.71036911010742 17.42425155639648 L 25.71114730834961 17.4254093170166 C 25.7111701965332 17.42544364929199 25.7111930847168 17.42547798156738 25.71121597290039 17.42551040649414 L 25.71130561828613 17.42564392089844 C 25.7113151550293 17.4256591796875 25.71132659912109 17.4256763458252 25.71133804321289 17.42569351196289 L 25.7115592956543 17.42602157592773 C 25.71156120300293 17.42602348327637 25.71156311035156 17.42602729797363 25.7115650177002 17.4260311126709 L 25.71164703369141 17.4261531829834 C 25.71170043945312 17.42623138427734 25.71174812316895 17.42630195617676 25.71179008483887 17.42636489868164 L 25.71179008483887 17.42636489868164 C 25.71181297302246 17.42639923095703 25.71183204650879 17.42642593383789 25.71185111999512 17.42645454406738 L 25.71200180053711 17.42667961120605 C 25.71200180053711 17.42668151855469 25.71200370788574 17.42668342590332 25.71200561523438 17.42668533325195 L 25.7120189666748 17.42670440673828 L 24.88216781616211 17.98469352722168 L 24.32417869567871 17.15485382080078 L 25.15401840209961 16.59685516357422 Z M 26.2700080871582 18.25654411315918 C 26.2700080871582 18.25654411315918 26.8280086517334 19.08638381958008 26.8280086517334 19.08638381958008 L 25.9981689453125 19.64438438415527 L 25.4401683807373 18.81454467773438 L 26.2700080871582 18.25654411315918 Z M 26.06722831726074 19.81170463562012 L 27.06722831726074 19.81170463562012 L 27.06722831726074 20.13057708740234 L 27.38600730895996 19.91622352600098 L 27.94400787353516 20.74607467651367 L 27.84640312194824 20.81170463562012 L 26.7830924987793 20.81170463562012 C 26.48746109008789 20.81170463562012 26.06722831726074 20.81170463562012 26.06722831726074 20.81170463562012 L 26.06722831726074 19.81170463562012 Z M 24.06722831726074 19.81170463562012 L 25.06722831726074 19.81170463562012 L 25.06722831726074 20.81170463562012 C 25.06722831726074 20.81170463562012 24.06722831726074 20.81170463562012 24.06722831726074 20.81170463562012 L 24.06722831726074 19.81170463562012 Z M 22.06722831726074 19.81170463562012 L 23.06722831726074 19.81170463562012 L 23.06722831726074 20.81170463562012 C 23.06722831726074 20.81170463562012 22.06722831726074 20.81170463562012 22.06722831726074 20.81170463562012 L 22.06722831726074 19.81170463562012 Z M 20.06722831726074 19.81170463562012 L 21.06722831726074 19.81170463562012 L 21.06722831726074 20.81170463562012 C 21.06722831726074 20.81170463562012 20.06722831726074 20.81170463562012 20.06722831726074 20.81170463562012 L 20.06722831726074 19.81170463562012 Z M 18.06722831726074 19.81170463562012 L 19.06722831726074 19.81170463562012 L 19.06722831726074 20.81170463562012 C 19.06722831726074 20.81170463562012 18.06722831726074 20.81170463562012 18.06722831726074 20.81170463562012 L 18.06722831726074 19.81170463562012 Z M 16.06722831726074 19.81170463562012 L 17.06722831726074 19.81170463562012 L 17.06722831726074 20.81170463562012 C 17.06722831726074 20.81170463562012 16.06722831726074 20.81170463562012 16.06722831726074 20.81170463562012 L 16.06722831726074 19.81170463562012 Z M 14.06722831726074 19.81170463562012 L 15.06722831726074 19.81170463562012 L 15.06722831726074 20.81170463562012 C 15.06722831726074 20.81170463562012 14.06722831726074 20.81170463562012 14.06722831726074 20.81170463562012 L 14.06722831726074 19.81170463562012 Z M 12.06722831726074 19.81170463562012 L 13.06722831726074 19.81170463562012 L 13.06722831726074 20.81170463562012 C 13.06722831726074 20.81170463562012 12.06722831726074 20.81170463562012 12.06722831726074 20.81170463562012 L 12.06722831726074 19.81170463562012 Z M 10.06722831726074 19.81170463562012 L 11.06722831726074 19.81170463562012 L 11.06722831726074 20.81170463562012 C 11.06722831726074 20.81170463562012 10.06722831726074 20.81170463562012 10.06722831726074 20.81170463562012 L 10.06722831726074 19.81170463562012 Z M 8.067228317260742 19.81170463562012 L 9.067228317260742 19.81170463562012 L 9.067228317260742 20.81170463562012 C 9.067228317260742 20.81170463562012 8.067228317260742 20.81170463562012 8.067228317260742 20.81170463562012 L 8.067228317260742 19.81170463562012 Z M 6.067228317260742 19.81170463562012 L 7.067228317260742 19.81170463562012 L 7.067228317260742 20.81170463562012 C 7.067228317260742 20.81170463562012 6.067228317260742 20.81170463562012 6.067228317260742 20.81170463562012 L 6.067228317260742 19.81170463562012 Z M 4.067228317260742 19.81170463562012 L 5.067228317260742 19.81170463562012 L 5.067228317260742 20.81170463562012 C 5.067228317260742 20.81170463562012 4.067228317260742 20.81170463562012 4.067228317260742 20.81170463562012 L 4.067228317260742 19.81170463562012 Z M 2.067228317260742 19.81170463562012 L 3.067228317260742 19.81170463562012 L 3.067228317260742 20.81170463562012 C 3.067228317260742 20.81170463562012 2.067228317260742 20.81170463562012 2.067228317260742 20.81170463562012 L 2.067228317260742 19.81170463562012 Z M 1.07847785949707 19.20781326293945 L 1.908317565917969 19.76580429077148 L 1.350318908691406 20.59565353393555 L 1.067228317260742 20.40530014038086 L 1.067228317260742 20.81170463562012 C 1.067228317260742 20.81170463562012 0.06722831726074219 20.81170463562012 0.06722831726074219 20.81170463562012 L 0.06722831726074219 20.71172142028809 L 0.7472095489501953 19.70046615600586 C 0.9017543792724609 19.47063064575195 1.07847785949707 19.20781326293945 1.07847785949707 19.20781326293945 Z M 2.194467544555664 17.54812431335449 L 3.024318695068359 18.10612487792969 L 2.466318130493164 18.93596458435059 L 1.636478424072266 18.37796401977539 C 1.636478424072266 18.37796401977539 1.642826080322266 18.3685245513916 1.654172897338867 18.35164833068848 L 1.654476165771484 18.3511962890625 C 1.654947280883789 18.35049629211426 1.655416488647461 18.34980010986328 1.655902862548828 18.34907531738281 L 1.656070709228516 18.34882736206055 C 1.656335830688477 18.34843254089355 1.656599044799805 18.3480396270752 1.656869888305664 18.34763717651367 L 2.19447135925293 17.54812622070312 Z M 3.310468673706055 15.8884449005127 L 4.140308380126953 16.44643402099609 L 3.582307815551758 17.27628326416016 L 2.752468109130859 16.71828460693359 L 2.910953521728516 16.48258972167969 C 2.912118911743164 16.48085784912109 2.913280487060547 16.47912979125977 2.914451599121094 16.47738647460938 L 2.914844512939453 16.47680282592773 C 3.079580307006836 16.23181533813477 3.310468673706055 15.8884449005127 3.310468673706055 15.8884449005127 Z M 4.426458358764648 14.2287540435791 L 5.256307601928711 14.7867546081543 L 4.698308944702148 15.6165943145752 L 3.868467330932617 15.05859375 C 3.868467330932617 15.05859375 3.893030166625977 15.02206516265869 3.931858062744141 14.96432113647461 L 3.932178497314453 14.96384429931641 C 3.933061599731445 14.96253204345703 3.933938980102539 14.96122550964355 3.934837341308594 14.9598913192749 L 4.426462173461914 14.22875595092773 Z M 5.542457580566406 12.5690746307373 L 6.372297286987305 13.1270637512207 L 5.814298629760742 13.9569149017334 L 4.984458923339844 13.3989143371582 L 5.080829620361328 13.25559234619141 C 5.080923080444336 13.25545501708984 5.080999374389648 13.25534057617188 5.081092834472656 13.25520324707031 L 5.082069396972656 13.25374984741211 C 5.242040634155273 13.01584434509277 5.542457580566406 12.5690746307373 5.542457580566406 12.5690746307373 Z M 6.658447265625 10.90938377380371 L 7.488298416137695 11.46738433837891 L 6.9302978515625 12.2972240447998 L 6.100458145141602 11.73922443389893 C 6.100458145141602 11.73922443389893 6.144672393798828 11.67346954345703 6.208230972290039 11.57894515991211 L 6.209098815917969 11.57765579223633 C 6.209636688232422 11.57685470581055 6.210166931152344 11.57606601715088 6.210708618164062 11.57526111602783 L 6.658451080322266 10.90938663482666 Z M 7.774448394775391 9.249693870544434 L 8.604288101196289 9.807694435119629 L 8.046287536621094 10.63754463195801 L 7.216447830200195 10.07954406738281 L 7.774450302124023 9.249695777893066 Z M 8.890438079833984 7.590014457702637 L 9.720287322998047 8.148014068603516 L 9.162288665771484 8.977853775024414 L 8.332448959350586 8.419854164123535 C 8.332448959350586 8.419854164123535 8.404434204101562 8.312796592712402 8.496677398681641 8.175614356994629 L 8.497049331665039 8.175061225891113 C 8.49885368347168 8.172377586364746 8.50065803527832 8.169694900512695 8.502475738525391 8.166989326477051 L 8.503589630126953 8.165332794189453 C 8.503828048706055 8.164978981018066 8.504085540771484 8.164597511291504 8.504322052001953 8.164243698120117 L 8.89044189453125 7.59001636505127 Z M 10.00643730163574 5.930324554443359 L 10.83627891540527 6.488324165344238 L 10.27827835083008 7.318163871765137 L 9.44843864440918 6.760173797607422 C 9.44843864440918 6.760173797607422 9.474960327148438 6.720730781555176 9.516460418701172 6.659011840820312 L 9.517183303833008 6.657937049865723 C 9.517778396606445 6.657052993774414 9.518383026123047 6.656154632568359 9.518983840942383 6.655261039733887 L 9.519357681274414 6.654705047607422 C 9.51963996887207 6.65428352355957 9.519929885864258 6.653852462768555 9.520214080810547 6.65342903137207 L 9.520265579223633 6.653353691101074 C 9.520526885986328 6.65296459197998 9.520814895629883 6.652536392211914 9.521076202392578 6.652146339416504 L 9.521709442138672 6.651206016540527 C 9.522319793701172 6.650299072265625 9.522930145263672 6.64939022064209 9.52354621887207 6.64847469329834 L 9.523885726928711 6.647970199584961 C 9.524127960205078 6.647610664367676 9.524375915527344 6.647241592407227 9.524618148803711 6.646881103515625 L 9.527566909790039 6.642496109008789 C 9.527702331542969 6.642293930053711 9.527853012084961 6.642069816589355 9.527988433837891 6.641867637634277 L 9.528730392456055 6.640766143798828 C 9.529224395751953 6.640028953552246 9.529712677001953 6.639304161071777 9.530210494995117 6.638562202453613 L 10.00643920898438 5.930325508117676 Z M 11.12242889404297 4.270645141601562 L 11.95227813720703 4.828643798828125 L 11.39427757263184 5.65848445892334 L 10.56443786621094 5.100483894348145 C 10.56443786621094 5.100483894348145 10.66360092163086 4.953010559082031 10.77832221984863 4.78239631652832 L 10.77886199951172 4.781593322753906 C 10.7806568145752 4.778924942016602 10.78247261047363 4.776224136352539 10.78427505493164 4.773544311523438 L 11.1224308013916 4.270645141601562 Z M 12.23842811584473 2.610954284667969 L 13.06826782226562 3.168954849243164 L 12.51026821136475 3.998794555664062 L 11.68042755126953 3.440803527832031 C 11.68042755126953 3.440803527832031 11.7584285736084 3.324804306030273 11.85608863830566 3.179563522338867 L 11.85751914978027 3.177436828613281 C 11.85937309265137 3.174680709838867 11.8612060546875 3.171955108642578 11.86307144165039 3.169178009033203 L 11.86319732666016 3.168991088867188 C 11.86487197875977 3.166501998901367 11.86655807495117 3.163993835449219 11.86824226379395 3.161489486694336 L 11.86996078491211 3.158933639526367 C 11.87025260925293 3.158498764038086 11.87055015563965 3.158058166503906 11.87084197998047 3.157623291015625 L 11.8726921081543 3.154872894287109 C 11.87350654602051 3.153661727905273 11.87431526184082 3.152458190917969 11.87512969970703 3.1512451171875 L 11.87623405456543 3.149604797363281 C 11.87647819519043 3.149240493774414 11.87673759460449 3.148857116699219 11.87698173522949 3.148492813110352 L 11.8772087097168 3.148155212402344 C 11.87759971618652 3.147571563720703 11.87800025939941 3.146978378295898 11.87839317321777 3.146394729614258 L 11.87944793701172 3.144824981689453 C 11.87948036193848 3.144777297973633 11.8795223236084 3.144712448120117 11.87955665588379 3.144664764404297 L 11.88548278808594 3.13585090637207 C 11.88572883605957 3.135482788085938 11.88598251342773 3.135107040405273 11.88623046875 3.134738922119141 L 11.89029502868652 3.128692626953125 C 11.89042854309082 3.128496170043945 11.89057731628418 3.128273010253906 11.89071083068848 3.128076553344727 L 11.8920783996582 3.126041412353516 C 11.89214515686035 3.125942230224609 11.89220237731934 3.125858306884766 11.89226913452148 3.125759124755859 L 12.23842906951904 2.610954284667969 Z M 13.99406814575195 3.814697265625e-06 L 14.55206489562988 0.8298454284667969 L 13.86294841766357 1.293214797973633 L 14.1842679977417 1.509273529052734 L 13.62626838684082 2.339115142822266 L 12.79642772674561 1.78111457824707 C 12.79642772674561 1.78111457824707 12.92606353759766 1.588321685791016 13.06036281585693 1.388591766357422 L 13.06456565856934 1.382341384887695 C 13.06470203399658 1.382139205932617 13.06482124328613 1.381961822509766 13.06495761871338 1.381757736206055 L 13.35442066192627 0.9512748718261719 L 13.48993873596191 1.042400360107422 L 13.3915433883667 0.8960666656494141 L 13.99406814575195 3.814697265625e-06 Z" stroke="none" fill="#da271f"/>
    </g>
  </g>
</svg>
