<svg xmlns="http://www.w3.org/2000/svg" width="21.721" height="24.165" viewBox="0 0 21.721 24.165">
  <path id="Path_83521" data-name="Path 83521" d="M141.294,30.237l-7.924-4.575a2.985,2.985,0,0,0-2.936,0l-7.924,4.575a2.945,2.945,0,0,0-1.468,2.543v9.15a2.945,2.945,0,0,0,1.468,2.543l7.924,4.575a2.937,2.937,0,0,0,2.936,0l7.924-4.575a2.946,2.946,0,0,0,1.468-2.543V32.78a2.943,2.943,0,0,0-1.468-2.543Zm.14,11.693a1.613,1.613,0,0,1-.8,1.393L132.706,47.9a1.635,1.635,0,0,1-1.608,0l-7.923-4.574a1.614,1.614,0,0,1-.8-1.393V32.78a1.613,1.613,0,0,1,.8-1.393l7.924-4.575a1.608,1.608,0,0,1,1.608,0l7.924,4.575a1.613,1.613,0,0,1,.8,1.393V41.93Zm-5.33-8.661-9.217,7.121a.664.664,0,0,0,.812,1.051l9.217-7.121a.664.664,0,0,0-.812-1.051Zm-6.157,2.577a2.324,2.324,0,1,0-1.644-.681A2.31,2.31,0,0,0,129.947,35.846Zm-.7-3.029a1,1,0,1,1,1.409,1.409,1.02,1.02,0,0,1-1.409,0,1,1,0,0,1,0-1.409Zm4.615,6.047a2.324,2.324,0,1,0,1.644.681A2.311,2.311,0,0,0,133.857,38.864Zm.7,3.029a1.02,1.02,0,0,1-1.409,0,1,1,0,1,1,1.409,0Z" transform="translate(-121.041 -25.276)" fill="#fff"/>
</svg>
