<?xml version="1.0" encoding="utf-8"?>
<!-- Generator: Adobe Illustrator 27.0.1, SVG Export Plug-In . SVG Version: 6.00 Build 0)  -->
<svg version="1.1" id="Layer_1" xmlns="http://www.w3.org/2000/svg" xmlns:xlink="http://www.w3.org/1999/xlink" x="0px" y="0px"
	 viewBox="0 0 79 22" style="enable-background:new 0 0 79 22;" xml:space="preserve">
<style type="text/css">
	.st0{display:none;}
	.st1{display:inline;fill:#FFFFFF;}
	.st2{display:inline;}
	.st3{display:inline;fill:#FE0000;}
	.st4{fill:#FFFFFF;}
	.st5{fill:#CC2229;}
	.st6{display:none;fill:#CC2229;}
	.st7{font-family:'OpenSans-Bold';}
	.st8{font-size:2.1798px;}
	.st9{display:inline;fill:#0E3091;}
	.st10{display:inline;fill:#FF3535;}
	.st11{display:inline;fill:#00317B;}
	.st12{fill:#225DC0;}
	.st13{display:inline;fill:#EC002B;}
	.st14{display:inline;fill:#868D91;}
	.st15{display:inline;fill:#005078;}
	.st16{display:inline;fill:#E61E3A;}
	.st17{fill:#004190;}
	.st18{font-family:'AzoSansUberW01-Regular';}
	.st19{font-size:11.9166px;}
	.st20{font-family:'OpenSans-Extrabold';}
	.st21{font-size:3.7631px;}
</style>
<g class="st0">
	<path class="st1" d="M1.5,12.1c0.1,0.5,0.3,1,0.4,1.6c1.5,5.8,7.6,9.2,13.3,7.5c5.8-1.8,9-8.1,6.8-13.9c-0.4-1.1-0.5-2,0-3
		c0.3-0.7,0.5-1.5,0.8-2.4c-1,0.1-1.6,0.2-2.3,0.3c-1.2,0.3-2.3,0.1-3.4-0.5c-6.1-3.4-13.7,0-15.3,6.7C1.7,9,1.6,9.5,1.5,10.1
		 M77.5,6.8c-2.8,0-5.6,0-8.5,0c0,0.6,0,1,0,1.5c0.3,0,0.6,0.1,0.8,0.1c1-0.2,1.3,0.3,1.3,1.3c-0.1,1,0,2,0,3c0,1.5,0,3,0,4.5
		c1.5,0,2.8,0,4.2,0c0-3,0-5.8,0-8.8c0.8,0,1.5,0,2.2,0 M37.6,10.8c0.6,0.1,1.1,0.1,1.7,0.2c0,2.1,0,4.2,0,6.2c1.5,0,2.8,0.1,4.2,0
		c2.6-0.2,4.5-2.3,4.6-4.9c0.1-2.5-1.6-5.1-4-5.4c-2.1-0.3-4.3-0.1-6.5-0.1C37.6,8.2,37.6,9.5,37.6,10.8z M37.4,17.3
		c0-0.1,0.1-0.2,0.1-0.3c-0.7-2.2-1.4-4.3-2.1-6.5c-0.4-1.3-0.6-3-1.5-3.6c-0.9-0.6-2.6-0.2-4-0.2c-0.1,0-0.2,0-0.2,0
		c-0.3,0.2-0.7,0.3-0.8,0.6c-0.4,1.1-0.8,2.3-1.2,3.5c0.6,0.1,1,0.1,1.6,0.2c-0.7,2.1-1.4,4.2-2.1,6.4c1.3,0,2.4,0,3.6,0
		c0.3,0,0.7-0.3,0.7-0.5c0.2-1.8,1.4-1.7,2.7-1.7c0.9,0,1.4,0.2,1.5,1.1C35.8,17.4,36.4,17.6,37.4,17.3z M59.2,17.1
		c0-0.2,0-0.3,0-0.3c-0.7-2.1-1.5-4.2-2.2-6.3c-1.3-3.9-1.3-3.9-5.4-3.7c-0.1,0-0.2,0-0.2,0c-0.3,0.2-0.7,0.3-0.8,0.6
		c-0.5,1.1-0.8,2.3-1.2,3.5c0.6,0.1,1,0.1,1.6,0.2c-0.7,2.1-1.4,4.1-2.1,6.3c1.3,0,2.5,0,3.6,0c0.3,0,0.7-0.3,0.7-0.5
		c0.2-1.7,1.5-1.6,2.7-1.6c0.8,0,1.3,0.1,1.5,1C57.5,17.2,58.2,17.5,59.2,17.1z M67.4,6.7c-1.6,0-3.1,0-4.6,0
		c-1.3,0-2.4,0.2-2.8,1.6c-0.6,1.9,0,3.7,1.3,4.5c0.8,0.5,1.6,0.9,2.4,1.4c0.3,0.2,0.5,0.6,0.7,0.9c-0.4,0.2-0.8,0.5-1.2,0.5
		c-0.9,0.1-1.9,0-2.9,0c0,0.7,0.1,1.1,0.1,1.6c2.1,0,4,0,6,0c0.5,0,1.1-0.3,1.4-0.7c1.2-1.2,0.6-4.4-0.8-5.3
		c-0.8-0.5-1.7-0.9-2.5-1.5c-0.3-0.2-0.4-0.6-0.6-0.9c0.3-0.2,0.7-0.5,1-0.6c0.8-0.1,1.7,0,2.5,0C67.4,7.8,67.4,7.4,67.4,6.7z"/>
	<path class="st2" d="M1.5,10.1C1.6,9.5,1.7,9,1.9,8.4c1.7-6.7,9.2-10.1,15.3-6.7c1.2,0.7,2.2,0.8,3.4,0.5c0.6-0.1,1.3-0.2,2.3-0.3
		c-0.3,1-0.5,1.7-0.8,2.4c-0.5,1-0.4,1.9,0,3c2.2,5.8-1,12.1-6.8,13.9c-5.7,1.8-11.8-1.6-13.3-7.5c-0.1-0.5-0.3-1-0.4-1.6
		C1.5,11.5,1.5,10.8,1.5,10.1z M4.8,5.2C4.5,5.5,4.1,5.7,3.9,6C0.3,11.8,4,19.5,10.7,20.5c0.3,0,0.6,0,1.3,0
		c-2.7-1.5-4.6-3.3-5.7-5.8c0.3-0.6,0.6-1.3,0.6-1.9c0-1.3-1.1-0.7-1.8-1c-0.4-1.3-0.3-1.2,0.6-2.2c0.3-0.4,0.2-1.8,0-1.9
		C4.1,7.2,4.8,6.1,4.8,5.2C5,5,5.3,4.9,5.5,4.8C8,4.4,10.6,4,13.1,3.5c1.2-0.2,2.5-0.5,3.9-0.7C13.2,0.4,8.1,1.1,5.3,4.2
		C5.1,4.5,5,4.8,4.8,5.2z M6.6,7.6C6.5,9.5,6.5,9.5,8.1,9.5c3.1,0,6.2,0,9.3,0c1.2,0,2.1-1.4,1.6-2.4c-0.3-0.6-0.3-1.6-1.4-1.4
		C13.9,6.3,10.3,6.9,6.6,7.6z M12.7,20.4c3.1-0.1,5.6-1.5,7.4-4.1c1.8-2.7,2.2-5.6,1-9c-1.1,2.7-1.9,5.2-3,7.5
		C16.9,17.3,14.9,19,12.7,20.4z M14.1,14.5c0.1-1-0.8-2-1.8-2.1c-1-0.1-1.9,0.7-2,1.8c-0.1,1.1,0.8,2.1,1.8,2.2
		C13,16.4,14,15.5,14.1,14.5z"/>
	<path class="st2" d="M77.5,8.3c-0.7,0-1.4,0-2.2,0c0,3,0,5.9,0,8.8c-1.4,0-2.7,0-4.2,0c0-1.5,0-3,0-4.5c0-1-0.1-2,0-3
		c0.1-1-0.2-1.5-1.3-1.3c-0.2,0-0.5,0-0.8-0.1c0-0.5,0-0.9,0-1.5c2.8,0,5.6,0,8.5,0C77.5,7.3,77.5,7.8,77.5,8.3z"/>
	<path class="st2" d="M37.6,10.8c0-1.3,0-2.6,0-3.9c2.2,0,4.4-0.2,6.5,0.1c2.4,0.3,4.2,2.9,4,5.4c-0.1,2.6-2.1,4.7-4.6,4.9
		c-1.3,0.1-2.7,0-4.2,0c0-2,0-4,0-6.2C38.6,11,38.1,10.9,37.6,10.8z M43.5,15.5c1.8-0.3,3-1.7,3-3.5c0-1.8-1.2-3.1-3-3.3
		C43.5,10.9,43.5,13.2,43.5,15.5z"/>
	<path class="st2" d="M37.4,17.3c-1,0.4-1.6,0.1-1.8-1c-0.1-0.9-0.6-1.1-1.5-1.1c-1.3,0-2.6-0.1-2.7,1.7c0,0.2-0.4,0.5-0.7,0.5
		c-1.1,0.1-2.3,0-3.6,0c0.7-2.2,1.4-4.3,2.1-6.4c-0.6-0.1-1-0.1-1.6-0.2c0.4-1.2,0.7-2.4,1.2-3.5c0.1-0.3,0.5-0.4,0.8-0.6
		c0.1,0,0.2,0,0.2,0c1.3,0,3-0.4,4,0.2c0.9,0.6,1.1,2.3,1.5,3.6c0.7,2.2,1.4,4.3,2.1,6.5C37.5,17.1,37.4,17.2,37.4,17.3z M34.7,13.5
		c-0.4-1-0.7-1.9-0.9-2.7c-0.1,0-0.2,0-0.3,0c-0.3,0.9-0.6,1.7-0.9,2.7C33.4,13.5,33.9,13.5,34.7,13.5z"/>
	<path class="st2" d="M59.2,17.1c-1.1,0.4-1.7,0.1-1.9-1c-0.1-0.9-0.7-1-1.5-1c-1.2,0-2.5-0.2-2.7,1.6c0,0.2-0.5,0.5-0.7,0.5
		c-1.1,0.1-2.3,0-3.6,0c0.7-2.2,1.4-4.2,2.1-6.3c-0.6-0.1-1-0.1-1.6-0.2c0.4-1.2,0.8-2.4,1.2-3.5c0.1-0.3,0.5-0.4,0.8-0.6
		c0.1,0,0.2,0,0.2,0c4.1-0.2,4.1-0.2,5.4,3.7c0.7,2.1,1.5,4.2,2.2,6.3C59.2,16.9,59.2,17,59.2,17.1z M56.4,13.5
		c-0.4-1-0.7-1.9-1.1-3.1c-0.4,1.2-0.7,2.1-1,3.1C55.1,13.5,55.6,13.5,56.4,13.5z"/>
	<path class="st2" d="M67.4,6.7c0,0.6,0,1,0,1.6c-0.9,0-1.7-0.1-2.5,0c-0.3,0-0.7,0.4-1,0.6c0.2,0.3,0.3,0.7,0.6,0.9
		c0.8,0.5,1.7,1,2.5,1.5c1.4,0.9,1.9,4.1,0.8,5.3c-0.3,0.4-0.9,0.7-1.4,0.7c-1.9,0.1-3.9,0-6,0c0-0.5-0.1-0.9-0.1-1.6
		c1,0,2,0.1,2.9,0c0.4,0,0.8-0.3,1.2-0.5c-0.2-0.3-0.4-0.7-0.7-0.9c-0.8-0.5-1.6-0.9-2.4-1.4c-1.4-0.8-1.9-2.6-1.3-4.5
		c0.4-1.4,1.6-1.6,2.8-1.6C64.2,6.8,65.7,6.7,67.4,6.7z"/>
	<path class="st1" d="M4.8,5.1c0,1-0.7,2.1,0.9,2.6c0.2,0.1,0.3,1.5,0,1.9c-0.9,1-1,0.9-0.6,2.2c0.6,0.3,1.8-0.3,1.8,1
		c0,0.6-0.3,1.3-0.6,1.9c1,2.5,3,4.3,5.7,5.8c-0.7,0-1,0-1.3,0C4,19.5,0.3,11.8,3.9,6C4.1,5.7,4.5,5.5,4.8,5.1L4.8,5.1z"/>
	<path class="st1" d="M6.6,7.6c3.7-0.7,7.3-1.3,10.9-2c1.1-0.2,1.1,0.9,1.4,1.4c0.5,1-0.4,2.4-1.6,2.4c-3.1,0-6.2,0-9.3,0
		C6.5,9.5,6.5,9.5,6.6,7.6z"/>
	<path class="st1" d="M12.7,20.4c2.3-1.4,4.2-3.1,5.4-5.6c1.1-2.3,1.9-4.8,3-7.5c1.2,3.4,0.8,6.3-1,9C18.3,19,15.8,20.3,12.7,20.4z"
		/>
	<path class="st1" d="M4.8,5.2c0.1-0.3,0.2-0.7,0.4-1C8.1,1.1,13.2,0.4,17,2.8c-1.5,0.3-2.7,0.5-3.9,0.7C10.6,4,8,4.4,5.5,4.8
		C5.3,4.9,5,5,4.8,5.2C4.8,5.1,4.8,5.2,4.8,5.2z"/>
	<path class="st1" d="M14.1,14.5c-0.1,1-1.1,1.9-2,1.9c-1.1,0-1.9-1.1-1.8-2.2c0.1-1.1,1-1.9,2-1.8C13.3,12.5,14.2,13.5,14.1,14.5z"
		/>
	<path class="st1" d="M43.5,15.5c0-2.3,0-4.6,0-6.8c1.8,0.2,2.9,1.6,3,3.3C46.4,13.8,45.3,15.2,43.5,15.5z"/>
	<path class="st1" d="M34.7,13.5c-0.8,0-1.3,0-2.1,0c0.3-1,0.6-1.8,0.9-2.7c0.1,0,0.2,0,0.3,0C34.1,11.6,34.3,12.5,34.7,13.5z"/>
	<path class="st1" d="M56.4,13.5c-0.8,0-1.3,0-2.1,0c0.3-1,0.6-1.9,1-3.1C55.7,11.6,56,12.4,56.4,13.5z"/>
</g>
<g class="st0">
	<path class="st1" d="M64.6,15.8c1,0,2,0,3,0c0-1.2,0-2.3,0-3.5c0-1.4,0-2.8,0-4.2C67.4,6.6,66.8,6,65.2,6c-0.6,0-1.2,0-1.8,0
		c-0.7,0-1.3,0.1-1.8,0.9C61.3,5.9,60.7,6,60,6c-0.6,0-1.2,0-1.8,0c-0.8,0-1.7-0.2-2.3,0.8c-0.1-0.4-0.1-0.6-0.1-0.8
		c-1,0-1.9,0-2.8,0c0,3.3,0,6.6,0,9.9c1,0,1.9,0,2.9,0c0-2.2,0-4.3,0-6.5c0-1.9,0-1.9,1.9-1.9c0.7,0,1,0.2,1,0.9c0,2.2,0,4.4,0,6.6
		c0,0.3,0,0.5,0,0.9c0.7,0,1.4,0,2,0c0.9,0,0.9,0,0.9-1c0-2.2,0-4.3,0-6.5c0-0.7,0.2-1,1-1c0.1,0,0.1,0,0.2,0c1.7,0,1.7,0,1.7,1.7
		C64.6,11.4,64.6,13.6,64.6,15.8z M30.9,5.9c0,0.8,0,1.6,0,2.3c0,1.8,0,3.6,0,5.4c0,1.6,0.7,2.2,2.3,2.2c0.9,0,1.7,0,2.6,0
		c0.6,0,1.3,0,1.7-0.8c0,0.9,0,1.5,0,2.2c0,0.6-0.3,0.8-0.9,0.8c-1,0-1.9,0-2.9,0c-0.9,0-1.8,0-2.6,0c0,0.6,0,1.1,0,1.6
		c2.6,0,5.1,0,7.6,0c0.7,0,1.3-0.4,1.5-1.1c0.2-0.6,0.3-1.2,0.3-1.9c0-3.4,0-6.7,0-10.1c0-0.2,0-0.4,0-0.6c-1,0-1.9,0-2.9,0
		c0,0.3,0,0.6,0,0.9c0,2.2,0,4.4,0,6.6c0,0.7-0.2,0.9-0.9,0.9c-0.6,0-1.2,0-1.8,0c-0.7,0-0.9-0.3-0.9-0.9c0-1.6,0-3.3,0-4.9
		c0-0.9,0-1.7,0-2.6C32.9,5.9,32,5.9,30.9,5.9z M13.5,2.3c-0.9,0-1.8,0-2.6,0c-0.3,0-0.6,0.2-0.8,0.4c-2.6,3.5-5.3,7-7.9,10.5
		C1.6,14.1,1,15,0.3,15.9c0.6,0,0.9,0,1.3,0c0.6,0.1,1-0.2,1.3-0.7c0.7-1,1.4-1.9,2.1-2.9c0.1-0.1,0.3-0.3,0.4-0.3
		c1.6,0,3.2,0,4.9,0c0,1.3,0,2.6,0,3.8c1.1,0,2,0,3,0C13.5,11.4,13.5,6.9,13.5,2.3z M25.3,15.9c-0.1-0.3-0.2-0.4-0.2-0.5
		c-1.1-1.9-2.1-3.8-3.2-5.7c-0.3-0.4-0.2-0.7,0.2-1c1.1-0.8,2.1-1.8,3.3-2.7c-1.4-0.1-2.7-0.2-3.7,0.9c-1,1-2.2,1.8-3.4,2.9
		c0-2.6,0-4.9,0-7.3c-1,0-1.9,0-2.8,0c0,4.5,0,9,0,13.5c0.9,0,1.8,0,2.8,0c0-1.1,0.1-2.1,0-3.1c-0.1-0.9,0.4-1.3,1.2-1.7
		c0.8,1.4,1.6,2.9,2.4,4.2c0.2,0.3,0.4,0.6,0.7,0.6C23.3,16,24.2,15.9,25.3,15.9z M42.2,7.4c1.9,0,3.8,0,5.7,0
		c0.7,0,0.8,0.3,0.8,0.9c0,0.6-0.2,0.9-0.9,0.9c-1.4,0-2.8,0-4.3,0c-0.8,0-1.3,0.3-1.5,1.1c-0.4,1.4-0.4,2.9-0.1,4.3
		c0.2,1,0.8,1.4,1.9,1.4c1,0,2.1,0.1,3.1,0c0.6,0,1.3-0.3,1.9-0.4c0,0,0,0.2,0.1,0.4c0.9,0,1.7,0,2.5,0c0-1.5,0-3,0-4.4
		c0-1.2,0-2.4-0.1-3.6c-0.2-1.4-0.8-1.9-2.2-1.9c-2.1,0-4.2,0-6.3,0c-0.2,0-0.4,0-0.7,0C42.2,6.5,42.2,6.9,42.2,7.4z M69.5,7.4
		c0.4,0,0.6,0,0.9,0c1.6,0,3.2,0,4.8,0c0.7,0,0.8,0.3,0.8,0.9c0,0.5-0.1,0.9-0.8,0.9c-1.4,0-2.8,0-4.2,0c-1.1,0-1.7,0.5-1.8,1.6
		c-0.1,1.2-0.1,2.4,0,3.5c0.1,1.1,0.7,1.6,1.8,1.6c1,0,2.1,0,3.1,0c0.8,0,1.5,0,2-0.8c0.1,0.3,0.1,0.5,0.2,0.7c0.8,0,1.6,0,2.4,0
		c0-2.7,0-5.4,0-8c0-1.3-0.8-1.9-2.1-1.9c-2.1,0-4.3,0-6.4,0c-0.2,0-0.5,0-0.7,0.1C69.5,6.5,69.5,6.9,69.5,7.4z M29.3,15.9
		c0-3.4,0-6.6,0-9.9c-0.9,0-1.8,0-2.7,0c0,3.3,0,6.6,0,9.9C27.5,15.9,28.4,15.9,29.3,15.9z M29.3,4.6c0-0.8,0-1.5,0-2.3
		c-0.9,0-1.8,0-2.7,0c0,0.8,0,1.5,0,2.3C27.5,4.6,28.4,4.6,29.3,4.6z"/>
	<path class="st3" d="M64.6,15.8c0-2.3,0-4.5,0-6.7c0-1.7,0-1.7-1.7-1.7c-0.1,0-0.1,0-0.2,0c-0.7-0.1-1,0.3-1,1c0,2.2,0,4.3,0,6.5
		c0,1,0,1-0.9,1c-0.6,0-1.3,0-2,0c0-0.3,0-0.6,0-0.9c0-2.2,0-4.4,0-6.6c0-0.7-0.3-0.9-1-0.9c-1.9,0-1.9,0-1.9,1.9c0,2.1,0,4.3,0,6.5
		c-1,0-1.9,0-2.9,0c0-3.3,0-6.6,0-9.9c0.9,0,1.8,0,2.8,0c0,0.2,0.1,0.4,0.1,0.8c0.6-1,1.4-0.8,2.3-0.8c0.6,0,1.2,0,1.8,0
		c0.6,0,1.3-0.1,1.6,0.9C62.1,6,62.7,5.9,63.4,6c0.6,0,1.2,0,1.8,0c1.6,0,2.2,0.6,2.3,2.2c0.1,1.4,0,2.8,0,4.2c0,1.1,0,2.3,0,3.5
		C66.5,15.8,65.6,15.8,64.6,15.8z"/>
	<path class="st3" d="M30.9,5.9c1,0,2,0,3,0c0,0.9,0,1.7,0,2.6c0,1.6,0,3.3,0,4.9c0,0.7,0.2,1,0.9,0.9c0.6,0,1.2,0,1.8,0
		c0.7,0,0.9-0.3,0.9-0.9c0-2.2,0-4.4,0-6.6c0-0.3,0-0.6,0-0.9c1,0,1.9,0,2.9,0c0,0.2,0,0.4,0,0.6c0,3.4,0,6.7,0,10.1
		c0,0.6-0.2,1.3-0.3,1.9c-0.2,0.7-0.8,1.1-1.5,1.1c-2.5,0-5,0-7.6,0c0-0.5,0-1,0-1.6c0.9,0,1.7,0,2.6,0c1,0,1.9,0,2.9,0
		c0.6,0,0.9-0.3,0.9-0.8c0-0.7,0-1.3,0-2.2c-0.5,0.8-1.1,0.8-1.7,0.8c-0.9,0-1.7,0-2.6,0c-1.5,0-2.3-0.7-2.3-2.2c0-1.8,0-3.6,0-5.4
		C30.9,7.5,30.9,6.8,30.9,5.9z"/>
	<path class="st3" d="M13.5,2.3c0,4.6,0,9,0,13.5c-1,0-2,0-3,0c0-1.3,0-2.5,0-3.8c-1.7,0-3.3,0-4.9,0c-0.1,0-0.3,0.2-0.4,0.3
		c-0.7,1-1.5,1.9-2.1,2.9c-0.3,0.5-0.7,0.7-1.3,0.7c-0.4-0.1-0.8,0-1.3,0c0.7-1,1.3-1.8,1.9-2.7c2.6-3.5,5.3-7,7.9-10.5
		c0.2-0.2,0.5-0.4,0.8-0.4C11.8,2.3,12.6,2.3,13.5,2.3z M10.4,5.3C9.1,7,8,8.6,6.7,10.3c1.3,0,2.5,0,3.7,0
		C10.4,8.6,10.4,7.1,10.4,5.3z"/>
	<path class="st3" d="M25.3,15.9c-1,0-2,0-2.9,0c-0.3,0-0.5-0.4-0.7-0.6c-0.8-1.4-1.6-2.8-2.4-4.2c-0.7,0.4-1.2,0.8-1.2,1.7
		c0.1,1,0,2.1,0,3.1c-1,0-1.8,0-2.8,0c0-4.5,0-8.9,0-13.5c0.9,0,1.8,0,2.8,0c0,2.4,0,4.8,0,7.3c1.2-1,2.4-1.9,3.4-2.9
		c1.1-1.1,2.3-1,3.7-0.9c-1.2,1-2.2,1.9-3.3,2.7c-0.4,0.3-0.4,0.6-0.2,1c1.1,1.9,2.2,3.8,3.2,5.7C25.1,15.5,25.2,15.7,25.3,15.9z"/>
	<path class="st3" d="M42.2,7.4c0-0.5,0-0.9,0-1.4c0.2,0,0.4,0,0.7,0c2.1,0,4.2,0,6.3,0c1.4,0,2.1,0.5,2.2,1.9
		c0.1,1.2,0.1,2.4,0.1,3.6c0,1.5,0,2.9,0,4.4c-0.9,0-1.7,0-2.5,0c0-0.2-0.1-0.4-0.1-0.4c-0.7,0.2-1.3,0.4-1.9,0.4
		c-1,0.1-2.1,0-3.1,0c-1.1,0-1.6-0.4-1.9-1.4c-0.3-1.4-0.4-2.9,0.1-4.3c0.2-0.8,0.8-1.1,1.5-1.1c1.4,0,2.8,0,4.3,0
		c0.7,0,0.9-0.2,0.9-0.9c0-0.6-0.2-0.9-0.8-0.9C46,7.4,44.1,7.4,42.2,7.4z M48.6,10.7c-1.2,0-2.3,0-3.4,0c-0.4,0-0.6,0.2-0.6,0.6
		c0,0.8,0,1.6,0,2.4c0,0.5,0.2,0.7,0.7,0.7c0.9,0,1.8,0,2.6,0c0.2,0,0.6-0.4,0.6-0.6C48.7,12.8,48.6,11.8,48.6,10.7z"/>
	<path class="st3" d="M69.5,7.4c0-0.5,0-0.9,0-1.4c0.2,0,0.5-0.1,0.7-0.1c2.1,0,4.3,0,6.4,0c1.3,0,2,0.6,2.1,1.9c0.1,2.6,0,5.3,0,8
		c-0.8,0-1.6,0-2.4,0c0-0.2-0.1-0.4-0.2-0.7c-0.5,0.8-1.2,0.8-2,0.8c-1,0-2.1,0-3.1,0c-1.1,0-1.7-0.6-1.8-1.6
		c-0.1-1.2-0.1-2.3,0-3.5c0.1-1.1,0.7-1.6,1.8-1.6c1.4,0,2.8,0,4.2,0c0.7,0,0.8-0.3,0.8-0.9c0-0.5-0.1-0.9-0.8-0.9
		c-1.6,0-3.2,0-4.8,0C70.1,7.4,69.8,7.4,69.5,7.4z M75.9,10.7c-1.2,0-2.3,0-3.5,0c-0.2,0-0.4,0.4-0.5,0.6c-0.1,0.8,0,1.6,0,2.4
		c0,0.4,0.2,0.7,0.7,0.7c0.9,0,1.7,0,2.6,0c0.5,0,0.7-0.2,0.7-0.7C75.9,12.7,75.9,11.7,75.9,10.7z"/>
	<path class="st3" d="M29.3,15.9c-0.9,0-1.8,0-2.7,0c0-3.3,0-6.6,0-9.9c0.9,0,1.8,0,2.7,0C29.3,9.2,29.3,12.5,29.3,15.9z"/>
	<path class="st3" d="M29.3,4.6c-0.9,0-1.8,0-2.7,0c0-0.8,0-1.5,0-2.3c0.9,0,1.8,0,2.7,0C29.3,3.1,29.3,3.9,29.3,4.6z"/>
</g>
<g class="st0">
	<g class="st2">
		<path class="st4" d="M31.6,11c0,5.3,4.3,9.9,9.8,9.9c5.4,0,9.9-4.3,10-9.9c0-5.5-4.4-9.9-9.9-9.9C35.9,1.1,31.6,5.7,31.6,11z
			 M52.2,5.5c0.2,0,0.3,0,0.5,0c2.7,0,5.3,0,8,0c0.4,0,0.7,0,1.1,0.1C62.5,5.8,63,6.6,63,7.5c-0.1,0.8-0.7,1.4-1.5,1.5
			c-0.3,0-0.7,0.1-1,0.1c-2.2,0-4.4,0-6.6,0c-0.1,0-0.3,0-0.4,0c-0.1,0.7,0,11.1,0,11.4c0.1,0,0.3,0,0.4,0c1.8,0,3.6,0,5.5,0
			c0.8,0,1.6,0,2.4-0.1c0.8,0,1.6-0.2,2.3-0.6c2.7-1.2,4.1-4.1,3.3-6.9c-0.3-1-0.8-1.9-1.8-2.4c0,0,0,0-0.1-0.1
			c0.1,0,0.1-0.1,0.2-0.1c0.3-0.3,0.6-0.7,0.8-1c0.4-0.8,0.6-1.6,0.5-2.5c-0.2-2.1-1.3-3.7-3.2-4.6c-0.9-0.4-2-0.6-3-0.6
			c-2.7,0-5.5,0-8.2,0c-0.1,0-0.2,0-0.3,0C52.2,2.9,52.2,4.2,52.2,5.5z M2.6,8.9c0,3.9,0,7.7,0,11.5c1.4,0,2.8,0,4.2,0
			c0-2.6,0-5.2,0-7.7c0,0,0.1,0,0.1,0C7,12.8,7,12.9,7.1,13c1.7,2.4,3.3,4.8,5,7.2c0.1,0.2,0.3,0.3,0.5,0.3c1.5,0,3,0,4.4,0
			c0.1,0,0.2,0,0.3,0c0,0,0-0.1,0-0.1c-1.8-2.6-3.6-5.2-5.4-7.8c0,0,0-0.1,0-0.1c0,0,0,0,0,0c0,0,0,0,0,0c0.1,0,0.2,0,0.3,0
			c0.7,0,1.3-0.3,1.9-0.7c2.4-1.5,3.3-4.4,2.1-6.9c-1-2.2-2.9-3.3-5.3-3.4c-3.3-0.1-6.6,0-9.9,0c-0.1,0-0.2,0-0.3,0c0,1.3,0,2.6,0,4
			c0.2,0,0.3,0,0.5,0c3,0,6.1,0,9.1,0c0.3,0,0.5,0,0.8,0.1c0.8,0.1,1.4,0.8,1.5,1.6c0,0.8-0.5,1.6-1.3,1.7c-0.3,0.1-0.5,0.1-0.8,0.1
			c-2.5,0-4.9,0-7.4,0C2.9,8.9,2.7,8.9,2.6,8.9z M26.9,20.5c0-0.2,0-0.3,0-0.5c0-2.4,0-4.8,0-7.2c0-0.3,0.1-0.5,0.2-0.7
			c2.1-3.4,4.2-6.8,6.3-10.1c0.1-0.1,0.2-0.3,0.3-0.4c-0.2,0-0.3,0-0.4,0c-1.3,0-2.7,0-4,0c-0.3,0-0.4,0.1-0.6,0.3
			c-1.2,1.9-2.4,3.9-3.6,5.8C25,7.8,24.9,7.9,24.8,8c-0.1-0.2-0.2-0.3-0.3-0.4c-1.2-1.9-2.4-3.9-3.6-5.8c-0.1-0.2-0.3-0.3-0.5-0.3
			c-1.4,0-2.8,0-4.2,0c-0.1,0-0.2,0-0.3,0c0.1,0.2,0.2,0.3,0.2,0.4c2.1,3.4,4.2,6.8,6.3,10.1c0.2,0.3,0.2,0.5,0.2,0.8
			c0,2.4,0,4.8,0,7.2c0,0.1,0,0.3,0,0.4C24.1,20.5,25.5,20.5,26.9,20.5z M73.6,20.4c0-6.3,0-12.6,0-18.9c-0.5-0.1-4-0.1-4.2,0
			c0,6.3,0,12.6,0,18.9C70.8,20.4,72.1,20.4,73.6,20.4z M76.6,17.1c-1,0-1.7,0.7-1.7,1.7c0,0.9,0.7,1.7,1.7,1.7
			c0.9,0,1.7-0.7,1.7-1.7C78.3,17.8,77.6,17.1,76.6,17.1z"/>
		<path class="st5" d="M31.6,11c0-5.3,4.3-9.9,9.9-9.9c5.4,0,9.9,4.5,9.9,9.9c0,5.6-4.6,9.9-10,9.9C35.9,20.9,31.6,16.3,31.6,11z
			 M41.5,16.6c3.1,0,5.6-2.5,5.6-5.6c0-3.1-2.5-5.6-5.6-5.7c-3.1,0-5.6,2.5-5.6,5.6C35.9,14.3,38.6,16.6,41.5,16.6z"/>
		<path class="st5" d="M52.2,5.5c0-1.4,0-2.7,0-4c0.1,0,0.2,0,0.3,0c2.7,0,5.5,0,8.2,0c1,0,2,0.1,3,0.6c2,0.9,3,2.4,3.2,4.6
			c0.1,0.9-0.1,1.7-0.5,2.5c-0.2,0.4-0.4,0.8-0.8,1c-0.1,0.1-0.1,0.1-0.2,0.1c0.1,0.1,0.1,0.1,0.1,0.1c1,0.5,1.5,1.4,1.8,2.4
			c0.8,2.8-0.6,5.7-3.3,6.9c-0.7,0.3-1.5,0.5-2.3,0.6c-0.8,0-1.6,0.1-2.4,0.1c-1.8,0-3.6,0-5.5,0c-0.1,0-0.3,0-0.4,0
			c-0.1-0.3-0.1-10.7,0-11.4c0.1,0,0.3,0,0.4,0c2.2,0,4.4,0,6.6,0c0.3,0,0.7,0,1-0.1c0.8-0.1,1.4-0.8,1.5-1.5
			c0.1-0.9-0.4-1.6-1.3-1.8c-0.3-0.1-0.7-0.1-1.1-0.1c-2.7,0-5.3,0-8,0C52.5,5.5,52.3,5.5,52.2,5.5z M57.7,16.4c0.1,0,0.2,0,0.3,0
			c1.1,0,2.3,0,3.4,0c0.2,0,0.4,0,0.5-0.1c0.8-0.2,1.5-1,1.4-1.8c0-0.9-0.7-1.7-1.5-1.8c-0.2,0-0.5-0.1-0.7-0.1c-1.1,0-2.1,0-3.2,0
			c-0.1,0-0.2,0-0.2,0C57.7,13.9,57.7,15.2,57.7,16.4z"/>
		<path class="st5" d="M2.6,8.9c0.2,0,0.3,0,0.4,0c2.5,0,4.9,0,7.4,0c0.3,0,0.5,0,0.8-0.1c0.8-0.2,1.4-0.9,1.3-1.7
			c0-0.9-0.6-1.5-1.5-1.6c-0.3,0-0.5-0.1-0.8-0.1c-3,0-6.1,0-9.1,0c-0.2,0-0.3,0-0.5,0c0-1.3,0-2.6,0-4c0.1,0,0.2,0,0.3,0
			c3.3,0,6.6,0,9.9,0c2.4,0,4.2,1.2,5.3,3.4c1.2,2.5,0.2,5.4-2.1,6.9c-0.6,0.4-1.2,0.6-1.9,0.7c-0.1,0-0.2,0-0.3,0c0,0,0,0,0,0
			c0,0,0,0,0,0c0,0,0,0.1,0,0.1c1.8,2.6,3.6,5.2,5.4,7.8c0,0,0,0,0,0.1c-0.1,0-0.2,0-0.3,0c-1.5,0-3,0-4.4,0c-0.2,0-0.4-0.1-0.5-0.3
			c-1.7-2.4-3.3-4.8-5-7.2C7,12.9,7,12.8,6.9,12.7c0,0-0.1,0-0.1,0c0,2.6,0,5.1,0,7.7c-1.4,0-2.8,0-4.2,0C2.6,16.6,2.6,12.8,2.6,8.9
			z"/>
		<path class="st5" d="M26.9,20.5c-1.4,0-2.8,0-4.2,0c0-0.1,0-0.3,0-0.4c0-2.4,0-4.8,0-7.2c0-0.3-0.1-0.5-0.2-0.8
			c-2.1-3.4-4.2-6.8-6.3-10.1c-0.1-0.1-0.1-0.2-0.2-0.4c0.1,0,0.2,0,0.3,0c1.4,0,2.8,0,4.2,0c0.2,0,0.4,0.1,0.5,0.3
			c1.2,1.9,2.4,3.9,3.6,5.8c0.1,0.1,0.2,0.2,0.3,0.4C24.9,7.9,25,7.8,25,7.7c1.2-1.9,2.4-3.9,3.6-5.8c0.1-0.2,0.3-0.3,0.6-0.3
			c1.3,0,2.7,0,4,0c0.1,0,0.2,0,0.4,0c-0.1,0.2-0.2,0.3-0.3,0.4c-2.1,3.4-4.2,6.8-6.3,10.1c-0.1,0.2-0.2,0.5-0.2,0.7
			c0,2.4,0,4.8,0,7.2C26.9,20.1,26.9,20.3,26.9,20.5z"/>
		<path class="st5" d="M73.6,20.4c-1.4,0-2.8,0-4.2,0c0-6.3,0-12.6,0-18.9c0.2-0.1,3.8-0.1,4.2,0C73.6,7.9,73.6,14.1,73.6,20.4z"/>
		<path class="st5" d="M76.6,17.1c0.9,0,1.7,0.8,1.7,1.7c0,0.9-0.8,1.7-1.7,1.7c-0.9,0-1.7-0.8-1.7-1.7
			C74.9,17.8,75.7,17.1,76.6,17.1z M78.1,18.8c0-0.8-0.6-1.4-1.4-1.4c-0.8,0-1.4,0.6-1.4,1.4c0,0.8,0.7,1.5,1.4,1.4
			C77.4,20.2,78.1,19.5,78.1,18.8z"/>
		<path class="st4" d="M41.5,16.6c-2.9,0-5.6-2.3-5.6-5.6c0-3.1,2.5-5.6,5.6-5.6c3.1,0,5.6,2.5,5.6,5.7
			C47.1,14.1,44.6,16.6,41.5,16.6z"/>
		<path class="st4" d="M57.7,16.4c0-1.3,0-2.5,0-3.7c0.1,0,0.2,0,0.2,0c1.1,0,2.1,0,3.2,0c0.2,0,0.5,0,0.7,0.1
			c0.9,0.1,1.5,0.9,1.5,1.8c0,0.9-0.6,1.6-1.4,1.8c-0.2,0-0.3,0.1-0.5,0.1c-1.1,0-2.3,0-3.4,0C57.9,16.5,57.8,16.4,57.7,16.4z"/>
		<path class="st4" d="M78.1,18.8c0,0.8-0.6,1.4-1.4,1.4c-0.8,0-1.5-0.6-1.4-1.4c0-0.8,0.6-1.4,1.4-1.4C77.4,17.3,78.1,18,78.1,18.8
			z M76,17.8c0,0.6,0,1.3,0,1.9c0.1,0,0.2,0,0.3,0c0-0.2,0-0.5,0-0.8c0.2,0,0.4,0,0.5,0.1c0.1,0.2,0.2,0.4,0.3,0.7
			c0.1,0,0.1,0,0.2,0c0-0.3,0.1-0.7-0.2-0.9c0-0.1,0.1-0.1,0.1-0.2c0.2-0.4,0-0.7-0.4-0.8C76.6,17.8,76.3,17.8,76,17.8z"/>
		<path class="st6" d="M76,17.8c0.3,0,0.6,0,0.9,0c0.4,0,0.6,0.4,0.4,0.8c0,0.1-0.1,0.1-0.1,0.2c0.2,0.3,0.2,0.6,0.2,0.9
			c-0.1,0-0.2,0-0.2,0c-0.1-0.2-0.1-0.5-0.3-0.7c-0.1-0.1-0.3-0.1-0.5-0.1c0,0.3,0,0.5,0,0.8c-0.1,0-0.2,0-0.3,0
			C76,19,76,18.4,76,17.8z M76.3,18.1c0,0.2,0,0.3,0,0.5c0.2,0,0.3,0,0.5,0c0.1,0,0.2-0.1,0.2-0.2c0-0.1-0.1-0.2-0.2-0.2
			C76.6,18.1,76.5,18.1,76.3,18.1z"/>
		<path class="st4" d="M76.3,18.1c0.2,0,0.3,0,0.5,0c0.1,0,0.2,0.1,0.2,0.2c0,0.1,0,0.2-0.2,0.2c-0.2,0-0.3,0-0.5,0
			C76.3,18.4,76.3,18.3,76.3,18.1z"/>
	</g>
	<g class="st2">
		<text transform="matrix(1 0 0 1 75.9545 19.5341)" class="st5 st7 st8">R</text>
	</g>
</g>
<g class="st0">
	<path class="st9" d="M45.7,0.3c0,1.9,0,3.9,0,5.9c-1,0-1.9,0-2.9,0c0,0,0,0.1,0,0.1c0.5,0.4,1,0.8,1.5,1.3c0.5,0.4,0.9,0.8,1.4,1.1
		c0.5,0.4,0.6,1,0.2,1.6c-1,1.4-2,2.7-3,4.1c-0.3,0.4-0.7,0.6-1.2,0.6c-2.5,0-5,0-7.5,0c-0.1,0-0.4-0.2-0.4-0.3c0-1.9,0-3.7,0-5.6
		c0,0,0,0,0.1-0.1c0.9,0,1.8,0,2.9,0c-0.9-0.8-1.7-1.4-2.4-2.1c-0.2-0.2-0.4-0.3-0.6-0.5c-0.5-0.4-0.6-1-0.2-1.5
		c1-1.4,2.1-2.8,3.1-4.2c0.2-0.2,0.5-0.4,0.8-0.6C40.2,0.3,42.9,0.3,45.7,0.3z M44.9,1.1c-2.4,0-4.8,0-7.1,0c-0.2,0-0.5,0.2-0.6,0.4
		c-0.9,1.2-1.9,2.5-2.8,3.7C34,5.7,34,5.9,34.5,6.3c1,0.9,2.1,1.7,3.1,2.6c1.4,1.1,2.8,2.3,4.1,3.4c0.6,0.5,0.6,1,0.3,1.5
		c-0.1-0.2-0.3-0.4-0.4-0.6c-1.2-1-2.5-2.1-3.7-3.1c-0.1-0.1-0.3-0.2-0.5-0.2c-0.9,0-1.8,0-2.7,0c-0.1,0-0.3,0.2-0.3,0.3
		c0,1.4,0,2.7,0,4.1c0.1,0,0.1,0.1,0.2,0.1c2.3,0,4.6,0,7,0c0.2,0,0.4-0.2,0.6-0.3c1-1.2,1.9-2.5,2.8-3.8c0.3-0.4,0.3-0.7-0.1-1
		c-0.9-0.8-1.8-1.5-2.7-2.3c-1.5-1.3-3-2.5-4.5-3.8C37,2.6,37,2.2,37.3,1.6c0.1,0.2,0.2,0.4,0.4,0.6c1.2,1.1,2.5,2.1,3.8,3.2
		c0.1,0.1,0.2,0.2,0.4,0.2c1,0,2,0,3.1,0C44.9,4,44.9,2.6,44.9,1.1z"/>
	<path class="st9" d="M27.6,20.2c0.4,0,0.8-0.1,1.2,0c0.1,0,0.2,0.1,0.3,0.2c0.2,0.1,0.4,0.3,0.6,0.3c0.2,0,0.5-0.2,0.7-0.3
		c-0.2-0.2-0.3-0.4-0.5-0.4c-0.4-0.2-0.8-0.2-1.2-0.3c-0.7-0.2-1-0.7-1-1.3c0-0.7,0.4-1.2,1.1-1.3c0.6-0.1,1.2-0.1,1.8,0
		c0.6,0.1,1,0.6,1.1,1.3c-0.6-0.1-1.1,0.2-1.6-0.3c-0.1-0.1-0.3-0.1-0.5-0.1c-0.1,0-0.2,0.1-0.3,0.2c0.1,0.1,0.1,0.3,0.2,0.4
		c0.5,0.2,1,0.3,1.4,0.4c0.8,0.3,1.2,0.9,0.9,1.7c-0.1,0.3-0.4,0.7-0.7,0.9c-1.3,0.7-2.8,0.2-3.4-1.1C27.6,20.2,27.6,20.2,27.6,20.2
		z"/>
	<path class="st9" d="M51.4,21.6c-0.5,0-1,0-1.4,0c-0.2-0.3-0.3-0.6-0.4-0.6c-0.4-0.1-0.9,0-1.3,0c0,0-0.1,0-0.1,0.1
		c-0.1,0.8-0.8,0.5-1.2,0.5c-0.1,0-0.2,0-0.4,0c0-0.2,0.1-0.3,0.1-0.5c0.5-1.3,0.9-2.5,1.4-3.8c0.1-0.3,0.2-0.4,0.6-0.4
		c1.1,0,1.1,0,1.5,1.1c0.4,1.2,0.9,2.4,1.3,3.6C51.4,21.5,51.4,21.5,51.4,21.6z M48.4,19.9c0.4,0,0.6,0,1,0c-0.2-0.5-0.3-1-0.4-1.5
		c0,0-0.1,0-0.1,0C48.7,18.9,48.6,19.4,48.4,19.9z"/>
	<path class="st9" d="M43.1,21.5c-0.5,0-0.9,0-1.4,0c0-1.5,0-3.1,0-4.7c0.4,0,0.8,0,1.2,0c0.1,0,0.3,0.2,0.4,0.3
		c0.5,0.7,0.9,1.4,1.4,2.2c0-0.9,0-1.7,0-2.5c0.5,0,0.9,0,1.4,0c0,1.5,0,3.1,0,4.7c-0.4,0-0.8,0-1.1,0c-0.1,0-0.3-0.2-0.4-0.3
		c-0.5-0.7-0.9-1.4-1.4-2.2C43.1,19.9,43.1,20.7,43.1,21.5z"/>
	<path class="st9" d="M34.6,16.7c1.5,0,2.4,1,2.4,2.4c0,1.5-1,2.5-2.4,2.5c-1.5,0-2.4-0.9-2.4-2.5C32.2,17.6,33.2,16.7,34.6,16.7z
		 M35.6,19.2c0-0.8-0.4-1.4-1-1.4c-0.5,0-0.9,0.5-0.9,1.3c0,0.8,0.3,1.3,0.9,1.4C35.2,20.6,35.6,20.1,35.6,19.2z"/>
	<path class="st9" d="M39,20.5c0.7,0,1.4,0,2.1,0c0,0.4,0,0.7,0,1c-1.2,0-2.3,0-3.5,0c0-1.5,0-3.1,0-4.6c0.5,0,0.9,0,1.4,0
		C39,18.1,39,19.2,39,20.5z"/>
	<path class="st1" d="M44.9,1.1c0,1.5,0,3,0,4.5c-1,0-2,0-3.1,0c-0.1,0-0.3-0.1-0.4-0.2c-1.3-1.1-2.5-2.1-3.8-3.2
		c-0.2-0.1-0.3-0.4-0.4-0.6c-0.3,0.5-0.3,1,0.3,1.5c1.5,1.3,3,2.5,4.5,3.8c0.9,0.8,1.8,1.6,2.7,2.3c0.4,0.3,0.4,0.6,0.1,1
		c-1,1.3-1.9,2.5-2.8,3.8c-0.1,0.2-0.4,0.3-0.6,0.3c-2.3,0-4.6,0-7,0c0,0-0.1,0-0.2-0.1c0-1.4,0-2.7,0-4.1c0-0.1,0.2-0.3,0.3-0.3
		c0.9,0,1.8,0,2.7,0c0.2,0,0.3,0.1,0.5,0.2c1.2,1,2.5,2.1,3.7,3.1c0.2,0.2,0.3,0.4,0.4,0.6c0.4-0.5,0.3-1-0.3-1.5
		c-1.4-1.2-2.7-2.3-4.1-3.4c-1-0.9-2.1-1.7-3.1-2.6C34,5.9,34,5.7,34.4,5.2c0.9-1.3,1.8-2.5,2.8-3.7c0.1-0.2,0.4-0.4,0.6-0.4
		C40.1,1,42.5,1.1,44.9,1.1z"/>
	<path class="st1" d="M48.4,19.9c0.1-0.5,0.3-1,0.4-1.5c0,0,0.1,0,0.1,0c0.1,0.5,0.3,1,0.4,1.5C49.1,19.9,48.8,19.9,48.4,19.9z"/>
	<path class="st1" d="M35.6,19.2c0,0.9-0.4,1.3-1,1.3c-0.6,0-0.9-0.6-0.9-1.4c0-0.8,0.4-1.3,0.9-1.3C35.2,17.8,35.6,18.4,35.6,19.2z
		"/>
</g>
<g class="st0">
	<path class="st10" d="M23,19C23,19,23,18.9,23,19c-0.2,0-0.3-0.1-0.4-0.1c-0.9-0.1-1.7-0.3-2.5-0.6c-1.6-0.7-2.8-1.8-3.6-3.3
		c-0.4-0.7-0.6-1.5-0.7-2.3c-0.1-0.6-0.1-1.3-0.1-1.9c0-0.9,0.2-1.8,0.5-2.7c0.6-1.7,1.7-3.1,3.3-4c0.8-0.4,1.6-0.8,2.4-0.9
		c0.3-0.1,0.6-0.1,1-0.1c0.4,0,0.8,0,1.2,0c0.4,0,0.9,0.1,1.3,0.2c0.9,0.2,1.8,0.6,2.5,1.2c0.8,0.6,1.4,1.4,1.9,2.4
		C30,7.4,30.2,8,30.3,8.6c0.1,0.4,0.1,0.9,0.2,1.3c0,0.1,0,0.2,0,0.3c0,0.5,0,1,0,1.4c0,0.1,0,0.2-0.1,0.3c-0.1,0.1-0.2,0.2-0.3,0.2
		c-0.1,0-0.1,0-0.2,0c-3.3,0-6.6,0-9.9,0c-0.1,0-0.1,0-0.2,0c0,0-0.1,0-0.1,0c0,0,0,0.1,0,0.1c0.1,0.6,0.3,1.2,0.6,1.8
		c0.5,0.8,1.2,1.3,2,1.5c0.4,0.1,0.8,0.2,1.2,0.2c0.3,0,0.6,0,0.9,0c0.3,0,0.6,0,0.9-0.1c1-0.2,2-0.5,2.9-1c0.1,0,0.2-0.1,0.2-0.1
		c0.2-0.1,0.4,0,0.5,0.2c0.1,0.3,0.2,0.5,0.3,0.8c0.1,0.4,0.3,0.7,0.4,1.1c0,0,0,0.1,0,0.1c0,0.2,0,0.3-0.1,0.4
		c-0.1,0.1-0.2,0.1-0.2,0.2c-0.6,0.3-1.2,0.5-1.8,0.7c-0.6,0.2-1.2,0.4-1.8,0.5c-0.3,0.1-0.6,0.1-0.9,0.1c-0.2,0-0.4,0-0.6,0.1
		c0,0-0.1,0-0.1,0C23.7,19,23.3,19,23,19z M26.7,9.5C26.7,9.5,26.7,9.5,26.7,9.5c0-0.1,0-0.1,0-0.2c0-0.3,0-0.7-0.1-1
		c-0.1-0.5-0.4-1-0.7-1.4c-0.6-0.6-1.3-0.9-2.1-1c-0.4,0-0.7,0-1.1,0.1c-1.1,0.2-2,0.8-2.5,1.8c-0.3,0.5-0.4,1-0.5,1.5
		c0,0,0,0.1,0,0.1c0.1,0,0.1,0,0.2,0c2.2,0,4.4,0,6.7,0C26.6,9.5,26.6,9.5,26.7,9.5z"/>
	<path class="st10" d="M78.7,5.3c-0.1,0-0.1,0-0.2,0c0,0,0-0.1,0-0.1c0-0.3,0-0.6,0-1c0-0.1,0-0.3,0-0.4c0,0,0-0.1,0-0.1
		c0,0,0-0.1-0.1,0c0,0,0,0.1,0,0.1c0,0,0,0-0.1,0c0,0.1,0,0.1,0,0.2c0,0,0,0.1,0,0.1c-0.1,0-0.1,0.1-0.1,0.2c0,0.1,0,0.1-0.1,0.1
		c0,0,0,0,0,0.1c0,0.1,0,0.1,0,0.2c0,0,0,0.1,0,0.1C78,4.8,78,4.8,78,4.9C78,4.9,78,5,78,5c0,0,0,0,0,0.1c0,0.1,0,0.1,0,0.2
		c-0.1,0-0.4,0-0.5,0c0,0,0-0.1,0-0.1c0,0,0-0.1-0.1-0.1c0,0,0,0,0-0.1c0-0.1,0-0.1,0-0.2c0-0.1,0-0.1-0.1-0.1c0,0,0,0,0-0.1
		c0,0,0-0.1,0-0.1c0,0,0-0.1,0-0.1c-0.1,0-0.1-0.1-0.1-0.2c0,0,0-0.1-0.1-0.1c0,0,0,0,0-0.1c0,0,0-0.1,0-0.1c0-0.1,0-0.1-0.1-0.2
		c0,0,0,0,0,0c0,0,0,0,0,0c0,0,0,0,0,0c0,0,0,0.1,0,0.2c0,0.4,0,0.8,0,1.2c0,0.1,0,0.1,0,0.2c-0.1,0-0.2,0-0.2,0c0-0.1,0-1.1,0-1.9
		c0,0,0-0.1,0-0.1c0.2,0,0.3,0,0.5,0c0,0,0.1,0.1,0.1,0.1c0,0,0,0.1,0,0.2c0,0,0,0.1,0,0.1c0,0,0,0,0,0.1c0,0.1,0,0.1,0,0.2
		c0,0,0,0.1,0,0.1c0,0,0,0.1,0,0.1c0,0.1,0,0.2,0.1,0.2c0,0,0,0,0,0.1c0,0,0,0.1,0,0.1c0.1,0.1,0.1,0.2,0.1,0.3c0,0,0,0,0,0.1
		c0.1,0,0.1,0,0.2,0c0-0.1,0-0.1,0-0.2c0,0,0-0.1,0-0.1c0.1,0,0.1-0.1,0.1-0.2c0,0,0-0.1,0-0.1c0,0,0-0.1,0-0.1c0,0,0-0.1,0.1-0.1
		c0,0,0-0.1,0-0.1c0,0,0,0,0,0c0.1-0.1,0.1-0.2,0.1-0.2c0,0,0,0,0,0c0.1-0.1,0.1-0.1,0.1-0.1c0-0.1,0-0.1,0-0.2c0,0,0,0,0.1,0
		c0,0,0,0,0-0.1c0.2,0,0.3,0,0.5,0C78.7,3.9,78.7,4.6,78.7,5.3z"/>
	<path class="st10" d="M58,10.8c0,1.4-0.2,2.5-0.7,3.6c-0.6,1.3-1.5,2.4-2.7,3.2c-0.7,0.5-1.6,0.8-2.4,1c-0.3,0.1-0.6,0.1-0.9,0.2
		c-0.4,0.1-0.8,0.1-1.2,0.1c-0.3,0-0.6,0-0.8,0c-0.8-0.1-1.6-0.3-2.3-0.6c-1.3-0.5-2.3-1.4-3.1-2.5c-0.6-0.8-1-1.7-1.2-2.6
		c-0.1-0.5-0.2-0.9-0.2-1.4c0-0.4,0-0.7,0-1.1c0.1-1.4,0.4-2.7,1.1-3.9c1-1.7,2.4-2.8,4.2-3.4c0.4-0.1,0.8-0.2,1.3-0.3
		C49.5,3,50,3,50.6,3C51.8,3.1,52.9,3.4,54,4c1.3,0.7,2.3,1.7,3,3c0.4,0.8,0.7,1.6,0.8,2.4C57.9,9.9,58,10.4,58,10.8z M46.3,11
		c0,0.6,0,1.3,0.2,1.9c0.1,0.5,0.3,0.9,0.5,1.4c0.2,0.3,0.4,0.6,0.7,0.9c0.6,0.6,1.4,0.9,2.2,0.9c0.3,0,0.7,0,1-0.1
		c0.4-0.1,0.8-0.2,1.2-0.5c0.4-0.3,0.8-0.7,1-1.1c0.3-0.5,0.5-1.1,0.6-1.7c0.1-0.4,0.1-0.8,0.1-1.2c0-0.7,0-1.4-0.1-2.2
		c-0.1-0.5-0.2-0.9-0.4-1.4c-0.2-0.5-0.5-0.9-0.9-1.2c-0.6-0.5-1.3-0.8-2.1-0.8c-0.3,0-0.7,0-1,0.1c-0.6,0.1-1.2,0.4-1.6,0.9
		c-0.3,0.3-0.6,0.7-0.8,1.1c-0.3,0.7-0.5,1.4-0.6,2.1C46.3,10.4,46.3,10.7,46.3,11z"/>
	<path class="st10" d="M65.5,13.1c-0.1,0-0.1,0.1-0.1,0.1c-0.5,0.5-0.9,1-1.3,1.5c-0.7,1-1.3,2.1-1.9,3.3c0,0.1-0.1,0.1-0.1,0.2
		c-0.1,0.1-0.1,0.2-0.2,0.3c-0.1,0.1-0.2,0.1-0.4,0.1c-0.6,0-1.2,0-1.7,0c-0.3,0-0.7,0-1,0c0,0-0.1,0-0.1,0c-0.2,0-0.3-0.1-0.3-0.3
		c0-0.1,0-0.2,0.1-0.3c0.2-0.4,0.3-0.8,0.5-1.2c0.5-1.2,1.2-2.3,1.9-3.3c0.7-0.9,1.4-1.7,2.2-2.5c0,0,0.1-0.1,0.1-0.1
		c0-0.1-0.1-0.1-0.1-0.2c-0.6-0.7-1.2-1.4-1.7-2.2c-0.7-0.9-1.2-1.9-1.7-3c-0.3-0.6-0.5-1.2-0.7-1.8c0-0.1,0-0.1-0.1-0.2
		c0-0.2,0-0.3,0.2-0.4c0.1,0,0.1,0,0.2,0c0,0,0.1,0,0.1,0c1,0,2,0,3.1,0c0.1,0,0.1,0,0.2,0c0.2,0,0.3,0.1,0.4,0.3
		c0,0.1,0.1,0.1,0.1,0.2c0.4,1,0.9,2,1.5,2.9c0.3,0.6,0.7,1.1,1.1,1.6c0,0,0.1,0.1,0.1,0.1c0.1,0,0.1-0.1,0.1-0.1
		c0.4-0.4,0.7-0.8,1-1.3c0.7-1,1.4-2.1,2-3.2c0-0.1,0.1-0.1,0.1-0.2c0.1-0.2,0.3-0.3,0.6-0.3c0.9,0,1.7,0,2.6,0c0.1,0,0.1,0,0.2,0
		c0.1,0,0.2,0.1,0.2,0.3c0,0.1,0,0.2,0,0.3c-0.1,0.2-0.2,0.5-0.3,0.7c-0.6,1.3-1.3,2.4-2.1,3.5C69.7,9,69,9.8,68.2,10.6
		c0,0,0,0.1-0.1,0.1c0,0,0,0,0,0c0,0.1,0.1,0.1,0.1,0.1c0.5,0.6,1.1,1.2,1.5,1.8c1,1.2,1.8,2.5,2.5,3.8c0.3,0.5,0.5,1.1,0.8,1.6
		c0.1,0.1,0.1,0.2,0.1,0.4c0,0.1-0.1,0.2-0.2,0.3c-0.1,0-0.1,0-0.2,0c-0.3,0-0.6,0-0.9,0c-0.8,0-1.6,0-2.3,0c-0.2,0-0.4-0.1-0.6-0.3
		c-0.1-0.1-0.1-0.2-0.2-0.3c-0.7-1.8-1.8-3.5-3.1-4.9C65.6,13.2,65.6,13.2,65.5,13.1C65.6,13.1,65.6,13.1,65.5,13.1z"/>
	<path class="st10" d="M7.4,13.1c0,0-0.1,0.1-0.1,0.1c-0.7,0.8-1.4,1.6-1.9,2.6c-0.5,0.8-0.9,1.6-1.3,2.5c0,0.1-0.1,0.2-0.2,0.3
		c-0.1,0.1-0.3,0.2-0.4,0.2c-0.9,0-1.9,0-2.8,0c-0.1,0-0.1,0-0.2,0c-0.1-0.1-0.2-0.2-0.2-0.4c0-0.1,0-0.1,0.1-0.2
		C1,16.4,1.9,14.7,3,13.2c0.6-0.8,1.2-1.5,1.9-2.1c0,0,0.1-0.1,0.1-0.1c0,0,0,0,0,0c0-0.1-0.1-0.1-0.1-0.2c-0.6-0.7-1.2-1.5-1.7-2.3
		C2.4,7.4,1.7,6.1,1.2,4.8C1,4.5,0.9,4.1,0.8,3.8c0,0,0,0,0-0.1C0.7,3.5,0.8,3.3,1.1,3.3c0,0,0.1,0,0.1,0c1.1,0,2.1,0,3.2,0
		c0.3,0,0.5,0.1,0.7,0.4c0.2,0.5,0.5,1.1,0.7,1.6c0.5,0.9,1,1.8,1.6,2.6C7.5,8,7.6,8.1,7.7,8.3c0,0,0.1,0.1,0.1,0.1
		c0.1,0,0.1-0.1,0.1-0.1c0.5-0.5,0.9-1,1.3-1.6c0.6-0.9,1.2-1.8,1.6-2.7C10.9,3.8,11,3.7,11,3.6c0,0,0-0.1,0.1-0.1
		c0.1-0.2,0.3-0.3,0.5-0.3c0,0,0.1,0,0.1,0c0.8,0,1.7,0,2.5,0c0.1,0,0.1,0,0.2,0c0.1,0,0.2,0.1,0.2,0.3c0,0.1,0,0.2-0.1,0.3
		c-0.1,0.3-0.2,0.5-0.3,0.8C13.6,6,12.9,7.1,12,8.3c-0.6,0.8-1.3,1.6-1.9,2.3c0,0-0.1,0.1-0.1,0.1c0,0,0,0,0,0
		c0,0.1,0.1,0.1,0.1,0.1c0.3,0.3,0.6,0.7,0.9,1c1,1.1,1.9,2.4,2.6,3.7c0.5,0.8,0.9,1.6,1.2,2.5c0.1,0.1,0.1,0.2,0.1,0.4
		c0,0.1-0.1,0.2-0.2,0.3c-0.1,0-0.1,0-0.2,0c0,0-0.1,0-0.1,0c-1,0-2.1,0-3.1,0c-0.2,0-0.4-0.1-0.5-0.3c-0.1-0.1-0.1-0.2-0.2-0.3
		c-0.2-0.6-0.5-1.2-0.9-1.8C9.2,15.2,8.4,14.1,7.4,13.1C7.5,13.2,7.4,13.1,7.4,13.1z"/>
	<path class="st10" d="M36.9,13.4c0,1.5,0,3,0,4.5c0,0.1,0,0.2,0,0.2c0,0.1,0,0.1-0.1,0.2c-0.1,0.2-0.2,0.3-0.5,0.3c0,0-0.1,0-0.1,0
		c-0.8,0-1.7,0-2.5,0c-0.1,0-0.1,0-0.2,0c-0.2,0-0.3-0.2-0.4-0.3c-0.1-0.1-0.1-0.3-0.1-0.4c0-0.1,0-0.1,0-0.2c0-1.8,0-3.6,0-5.4
		c0-0.7,0-1.5,0-2.2c0-0.1,0-0.2,0-0.3c0-0.4,0-0.7,0-1.1c0.1-0.8,0.2-1.6,0.5-2.4c0.2-0.6,0.6-1.2,1-1.6c0.5-0.5,1-0.8,1.7-1.1
		c0.4-0.2,0.9-0.3,1.4-0.4c0.3-0.1,0.6-0.1,0.9-0.1c0.3,0,0.7,0,1,0c0.3,0,0.6,0,0.9,0c0.3,0,0.5,0,0.8,0c0.2,0,0.4,0,0.5,0
		c0.1,0,0.2,0,0.4,0c0.1,0,0.1,0,0.2,0.1c0.1,0.1,0.2,0.2,0.2,0.3c0,0.1,0,0.2,0,0.3c-0.1,0.5-0.2,0.9-0.3,1.4
		c0,0.2-0.1,0.4-0.1,0.6c0,0.2-0.1,0.3-0.4,0.3c-0.1,0-0.3,0-0.4,0c-0.2,0-0.4,0-0.6-0.1c-0.2,0-0.4,0-0.6,0c-0.5,0-0.9,0.1-1.4,0.2
		c-0.3,0.1-0.6,0.2-0.8,0.4c-0.3,0.3-0.6,0.6-0.7,1C37.1,7.9,37,8.2,37,8.5c0,0.4-0.1,0.8,0,1.2c0,1,0,1.9,0,2.9
		C36.9,12.8,36.9,13.1,36.9,13.4z"/>
	<path class="st10" d="M75.3,3.6c-0.2,0-0.3,0-0.5,0c0-0.1,0-0.2,0-0.3c0.1,0,1.2,0,1.3,0c0,0.1,0,0.2,0,0.3c-0.2,0-0.3,0-0.5,0
		c0,0.1,0,0.1,0,0.2c0,0.4,0,0.9,0,1.3c0,0.1,0,0.1,0,0.2c-0.1,0-0.1,0-0.2,0c0-0.1,0-0.1,0-0.2c0-0.4,0-0.9,0-1.3
		C75.4,3.7,75.4,3.6,75.3,3.6z"/>
	<path class="st1" d="M26.7,9.5c-0.1,0-0.1,0-0.2,0c-2.2,0-4.4,0-6.7,0c-0.1,0-0.1,0-0.2,0c0,0,0-0.1,0-0.1c0.1-0.5,0.3-1.1,0.5-1.5
		c0.6-1,1.4-1.6,2.5-1.8c0.4-0.1,0.7-0.1,1.1-0.1c0.8,0.1,1.5,0.4,2.1,1c0.4,0.4,0.6,0.8,0.7,1.4c0.1,0.3,0.1,0.7,0.1,1
		C26.7,9.4,26.7,9.4,26.7,9.5C26.7,9.5,26.7,9.5,26.7,9.5z"/>
	<path class="st1" d="M46.3,11c0-0.3,0-0.6,0-0.9c0.1-0.7,0.2-1.4,0.6-2.1c0.2-0.4,0.4-0.8,0.8-1.1c0.5-0.5,1-0.7,1.6-0.9
		c0.3-0.1,0.7-0.1,1-0.1c0.8,0,1.5,0.3,2.1,0.8c0.4,0.3,0.7,0.7,0.9,1.2c0.2,0.4,0.4,0.9,0.4,1.4c0.1,0.7,0.2,1.4,0.1,2.2
		c0,0.4-0.1,0.8-0.1,1.2c-0.1,0.6-0.3,1.2-0.6,1.7c-0.3,0.4-0.6,0.8-1,1.1c-0.4,0.2-0.8,0.4-1.2,0.5c-0.3,0.1-0.7,0.1-1,0.1
		c-0.8,0-1.6-0.3-2.2-0.9c-0.3-0.3-0.5-0.6-0.7-0.9c-0.2-0.4-0.4-0.9-0.5-1.4C46.4,12.2,46.3,11.6,46.3,11z"/>
</g>
<g class="st0">
	<path class="st11" d="M31,15.3c-0.7,0-1.4,0-2,0c0-2.9,0-5.7,0-8.6c0,0,0.1,0,0.1,0c1,0,2,0,3,0c0.1,0,0.3,0.1,0.3,0.2
		c1.5,1.9,2.9,3.7,4.4,5.6c0.1,0.1,0.2,0.2,0.3,0.4c0.4-0.5,0.7-0.9,1.1-1.4c1.2-1.5,2.4-3,3.5-4.5c0.1-0.2,0.2-0.2,0.4-0.2
		c0.9,0,1.8,0,2.8,0c0.1,0,0.2,0,0.3,0c0,2.9,0,5.7,0,8.6c-0.7,0-1.3,0-2,0c0-2.1,0-4.2,0-6.4c-0.1,0.1-0.2,0.2-0.2,0.2
		c-1.5,2-3.1,3.9-4.6,5.9c-0.1,0.2-0.3,0.2-0.5,0.2c-0.6,0-1.2,0-1.8,0c-0.2,0-0.3-0.1-0.4-0.2c-1.5-2-3-3.9-4.5-5.9
		C31.2,9.1,31.1,9.1,31,9C31,11.1,31,13.2,31,15.3z"/>
	<path class="st11" d="M20.6,15.3c-1.6,0-3.1,0-4.7,0c-1.2,0-2.2-0.9-2.2-2.2c0-1.4,0-2.9,0-4.3c0-1.3,0.8-2.2,2.2-2.2
		c3.2,0,6.3,0,9.5,0c1.3,0,2.2,0.8,2.2,2.2c0,1.4,0,2.9,0,4.3c0,1.3-0.9,2.2-2.2,2.2C23.8,15.3,22.2,15.3,20.6,15.3z M15.8,8.8
		c0,1.5,0,2.9,0,4.4c3.2,0,6.4,0,9.6,0c0-1.5,0-2.9,0-4.4C22.2,8.8,19,8.8,15.8,8.8z"/>
	<path class="st11" d="M53.4,15.3c-1.6,0-3.2,0-4.7,0c-1.3,0-2.1-0.8-2.2-2.1c0-1.5,0-2.9,0-4.4c0-1.3,0.8-2.1,2.1-2.1
		c3.2,0,6.4,0,9.6,0c1.3,0,2.1,0.9,2.1,2.2c0,1.4,0,2.9,0,4.3c0,1.3-0.8,2.2-2.1,2.2C56.6,15.3,55,15.3,53.4,15.3z M48.5,8.8
		c0,1.5,0,2.9,0,4.4c3.2,0,6.4,0,9.6,0c0-1.5,0-2.9,0-4.4C54.9,8.8,51.8,8.8,48.5,8.8z"/>
	<path class="st11" d="M63.8,15.3c-0.8,0-1.5,0-2.3,0c0-2.9,0-5.7,0-8.6c0.1,0,0.2,0,0.3,0c3.7,0,7.5,0,11.2,0
		c1.4,0,2.2,0.8,2.2,2.2c0,0.2,0,0.5,0,0.7c0,0.7-0.2,1.2-1,1.4c0.1,0,0.1,0.1,0.1,0.1c0.6,0.2,0.9,0.6,0.9,1.2c0,1,0,2,0,3
		c-0.7,0-1.4,0-2.1,0c0-1.2,0-2.4,0-3.6c-3.2,0-6.3,0-9.4,0C63.8,12.9,63.8,14.1,63.8,15.3z M73.4,8.4c-3.2,0-6.4,0-9.6,0
		c0,0.5,0,1,0,1.4c3.2,0,6.4,0,9.6,0C73.4,9.3,73.4,8.9,73.4,8.4z"/>
	<path class="st11" d="M5.4,11c2.9,1.4,5.7,2.9,8.5,4.3c0,0,0,0,0,0.1c-0.3,0-0.6,0-0.9,0c-1.1,0-2.1,0-3.2,0c-0.2,0-0.4,0-0.5-0.1
		c-2.2-1.1-4.4-2.3-6.7-3.4c-0.1,0-0.2-0.1-0.3-0.1c0,1.2,0,2.5,0,3.7c-0.7,0-1.3,0-2,0c0-2.9,0-5.7,0-8.6c0.6,0,1.3,0,1.9,0
		c0,1.2,0,2.4,0,3.6c0.1-0.1,0.2-0.1,0.3-0.2C4.7,9,6.8,7.9,9,6.8c0.1-0.1,0.2-0.1,0.3-0.1c1.4,0,2.8,0,4.2,0
		C10.8,8.1,8.1,9.5,5.4,11z"/>
	<path class="st11" d="M78.7,15.3c-0.8,0-1.5,0-2.2,0c0-2.9,0-5.8,0-8.6c0.7,0,1.5,0,2.2,0C78.7,9.5,78.7,12.4,78.7,15.3z"/>
</g>
<g class="st0">
	<g class="st2">
		<path class="st12" d="M42,4.1c2.9,0,5.7,0,8.6,0c0.1,0,0.2,0.1,0.3,0.1c1.2,0.2,2,1.1,2,2.3c0,0.6,0,1.3,0,1.9
			c0,0.8-0.6,1.5-1.3,1.7c-0.1,0-0.1,0.1-0.3,0.1c0.1,0,0.1,0.1,0.2,0.1c0.9,0.2,1.4,0.9,1.4,1.8c0,0.6,0,1.3,0,1.9
			c0,1.1-0.8,2-1.8,2.2c-0.2,0-0.3,0.1-0.5,0.1c-2.9,0-5.7,0-8.6,0c0-0.1,0-0.2,0-0.3c0-3.9,0-7.8,0-11.6C42,4.3,42,4.2,42,4.1z
			 M44.4,6.5c0,0.8,0,1.6,0,2.4c0,0.1,0.2,0.2,0.3,0.2c1.8,0,3.7,0,5.5,0c0.3,0,0.3-0.1,0.3-0.4c0-0.6,0-1.2,0-1.8
			c0-0.3-0.1-0.4-0.4-0.4c-1.8,0-3.5,0-5.3,0C44.7,6.5,44.5,6.5,44.4,6.5z M44.4,14c2,0,4,0,5.9,0c0.1,0,0.2-0.2,0.2-0.3
			c0-0.4,0-0.8,0-1.2c0-1.1,0-1.1-1.1-1.1c-1.6,0-3.1,0-4.7,0c-0.2,0-0.4,0-0.4,0.2C44.4,12.4,44.4,13.2,44.4,14z"/>
		<path class="st12" d="M30.8,4.1c2.9,0,5.7,0,8.6,0c0,0.7,0,1.3,0,2c0,0.4-0.1,0.4-0.4,0.4c-2.5,0-5,0-7.5,0c-0.2,0-0.3,0-0.5,0
			c0,0.7,0,1.4,0,2c0,0.5,0,0.5,0.5,0.5c2.1,0,4.2,0,6.3,0c0.3,0,0.4,0.1,0.4,0.4c0,0.5,0,0.9,0,1.4c0,0.5,0,0.5-0.5,0.5
			c-2.1,0-4.2,0-6.3,0c-0.3,0-0.4,0.1-0.4,0.4c0,0.4,0,0.9,0,1.3c0,0.3,0,0.6,0,0.9c0.2,0,0.4,0,0.6,0c2.5,0,5,0,7.5,0
			c0.3,0,0.5,0.1,0.4,0.4c0,0.7,0,1.3,0,2c-2.9,0-5.7,0-8.6,0c-0.1,0-0.1-0.1-0.2-0.1c-1.4-0.3-2.1-1.1-2.1-2.5c0-2.4,0-4.8,0-7.2
			c0-1.3,0.7-2.2,1.8-2.4C30.5,4.2,30.7,4.1,30.8,4.1z"/>
		<path class="st12" d="M57.6,4.1c2.9,0,5.8,0,8.7,0c0,0.7,0,1.3,0,2c0,0.4-0.1,0.5-0.5,0.5c-2.5,0-5.1,0-7.6,0
			c-0.4,0-0.5,0.1-0.5,0.5c0,0.5,0,1,0,1.5c0,0.6,0,0.6,0.6,0.6c2.1,0,4.2,0,6.3,0c0.3,0,0.4,0.1,0.4,0.4c0,0.5,0,1,0,1.4
			c0,0.5,0,0.5-0.5,0.5c-2.1,0-4.2,0-6.3,0c-0.4,0-0.5,0.1-0.5,0.5c0,0.5,0,1.1,0,1.6c0,0.4,0.1,0.5,0.5,0.5c2.6,0,5.1,0,7.7,0
			c0.3,0,0.4,0.1,0.4,0.4c0,0.7,0,1.4,0,2c-2.9,0-5.8,0-8.7,0c-0.1,0-0.2-0.1-0.2-0.1c-1.2-0.2-2-1.1-2-2.3c0-2.5,0-5,0-7.5
			c0-1.2,0.8-2.1,1.9-2.3C57.4,4.2,57.5,4.1,57.6,4.1z"/>
		<path class="st12" d="M4,4.1c2.5,0,4.9,0,7.4,0c0,0.7,0,1.4,0,2c0,0.3-0.1,0.4-0.4,0.4c-2.1,0-4.3,0-6.4,0c-0.1,0-0.3,0-0.4,0
			c0,2.5,0,5,0,7.4c0,0,0.1,0,0.1,0c1.9,0,3.9,0,5.8,0c0.2,0,0.3-0.1,0.3-0.3c0-0.6,0-1.2,0-1.8c0-0.3-0.1-0.5-0.4-0.4
			c-1,0-1.9,0-2.9,0c-0.2,0-0.4-0.1-0.3-0.3c0-0.6,0-1.1,0-1.7c0-0.3,0.1-0.3,0.3-0.3c1.8,0,3.5,0,5.3,0c0.2,0,0.4,0.1,0.3,0.3
			c0,1.6,0,3.2,0,4.7c0,0.9-0.7,1.8-1.6,2.1c-0.2,0.1-0.4,0.1-0.6,0.2c-2.1,0-4.3,0-6.4,0c-0.1,0-0.2-0.1-0.3-0.1
			c-0.9-0.2-1.5-0.7-1.8-1.6c-0.1-0.2-0.1-0.4-0.2-0.6c0-2.6,0-5.1,0-7.7c0-0.1,0.1-0.2,0.1-0.3c0.2-1,0.8-1.6,1.7-1.9
			C3.6,4.2,3.8,4.1,4,4.1z"/>
		<path class="st12" d="M23.7,16.4c-2.1,0-4.3,0-6.4,0c-0.1,0-0.2-0.1-0.3-0.1c-1.2-0.2-1.9-1-1.9-2.2c0-2.6,0-5.2,0-7.8
			c0-1,0.6-1.8,1.6-2.1c0.2-0.1,0.4-0.1,0.6-0.1c2.1,0,4.3,0,6.4,0c0.1,0,0.2,0.1,0.2,0.1c1.1,0.1,2,0.9,2,2.4c0,2.5,0,5,0,7.4
			c0,1.2-0.6,2-1.7,2.3C24.1,16.3,23.9,16.3,23.7,16.4z M23.6,14c0-0.2,0-0.3,0-0.4c0-2.2,0-4.4,0-6.7c0-0.3-0.1-0.4-0.4-0.4
			c-1.8,0-3.6,0-5.3,0c-0.3,0-0.4,0.1-0.4,0.4c0,2.2,0,4.4,0,6.6c0,0.3,0.1,0.4,0.4,0.4c1.8,0,3.5,0,5.3,0C23.3,14,23.5,14,23.6,14z
			"/>
		<path class="st12" d="M71.1,4.1c0,3.1,0,6.2,0,9.3c0,0.5,0,0.5,0.5,0.5c1.8,0,3.6,0,5.4,0c0.3,0,0.5,0.1,0.4,0.4c0,0.7,0,1.3,0,2
			c-2.2,0-4.3,0-6.5,0c-0.2,0-0.4-0.1-0.5-0.1c-1.1-0.3-1.7-1.2-1.7-2.3c0-3.1,0-6.2,0-9.3c0-0.2,0-0.3,0-0.5
			C69.5,4.1,70.3,4.1,71.1,4.1z"/>
	</g>
</g>
<g class="st0">
	<path class="st2" d="M66.9,6.9c-0.1,0-0.1,0-0.2,0c0,0.1,0,0.1,0,0.2c0,3.1,0,6.2,0,9.4c0,0.1,0,0.1,0,0.2c0,0.2-0.1,0.2-0.2,0.2
		c-0.2,0-0.5,0-0.7,0c-0.2,0-0.3,0-0.5,0c0-0.1,0-0.1,0-0.2c0-3.8,0-7.6,0-11.3c0-0.1,0-0.2,0-0.3c0-0.3,0.2-0.4,0.5-0.5
		c0.1,0,0.1,0,0.2,0c0.9,0,1.8,0,2.7,0c0,0,0.1,0,0.1,0c0.3,1.5,0.7,3.1,1,4.6c0.3,1.5,0.7,3.1,1,4.6c0,0,0,0,0,0c0,0,0-0.1,0-0.1
		c0.7-2.8,1.3-5.5,2-8.3c0,0,0,0,0-0.1c0.1-0.5,0.5-0.8,1-0.8c0.1,0,0.1,0,0.2,0c1.1,0,2.2,0,3.3,0c0.1,0,0.1,0,0.2,0
		c0,0.1,0,0.1,0,0.2c0,1.2,0,2.5,0,3.7c0,2.5,0,4.9,0,7.4c0,0.1,0,0.2,0,0.3c0,0.4-0.2,0.6-0.6,0.6c-0.1,0-0.1,0-0.2,0
		c-0.7,0-1.4,0-2.1,0c0,0-0.1,0-0.1,0c0-3.3,0-6.6,0-10c0,0-0.1,0-0.1,0c0,0-0.1,0-0.1,0c0,0.1,0,0.1-0.1,0.2
		c-0.7,3-1.5,5.9-2.2,8.9c0,0.1-0.1,0.3-0.1,0.4c-0.1,0.3-0.4,0.5-0.7,0.5c-0.3,0-0.6,0-0.8,0c-0.3,0-0.6,0-1,0
		C68.6,13.6,67.7,10.3,66.9,6.9z"/>
	<path class="st2" d="M21.9,4.7c0,0.1,0,0.1,0,0.2c0,2.9,0,5.9,0,8.8c0,0.4,0,0.9-0.2,1.3c-0.3,0.9-0.9,1.5-1.7,1.9
		c-0.4,0.2-0.9,0.3-1.4,0.4c-1,0.2-1.9,0.2-2.9,0.1c-0.8-0.1-1.6-0.2-2.3-0.5c-0.5-0.2-0.9-0.4-1.2-0.8c-0.4-0.4-0.6-1-0.7-1.6
		c0-0.3-0.1-0.5-0.1-0.8c0-2.8,0-5.5,0-8.3c0-0.1,0-0.2,0-0.3c0-0.2,0.2-0.3,0.4-0.4c0.1,0,0.1,0,0.2,0c0.8,0,1.6,0,2.4,0
		c0,0,0.1,0,0.1,0c0,0.1,0,0.2,0,0.2c0,3,0,6,0,9c0,0.3,0,0.6,0.1,0.9c0.1,0.5,0.3,0.9,0.8,1.1c0.3,0.1,0.7,0.2,1,0.2
		c0.4,0,0.8,0,1.3-0.2c0.6-0.2,0.9-0.6,1-1.2c0-0.2,0-0.5,0-0.7c0-2.8,0-5.7,0-8.5c0-0.1,0-0.2,0-0.3c0-0.2,0.2-0.3,0.4-0.4
		c0.1,0,0.2,0,0.3,0C20.2,4.6,21,4.6,21.9,4.7C21.8,4.6,21.8,4.6,21.9,4.7z"/>
	<path class="st2" d="M48.3,4.7c0,0.2,0,0.4,0,0.6c0,0.2,0,0.4,0,0.5c0,0.1,0,0.2-0.2,0.2c-0.3,0-0.5,0-0.8,0c-1.1,0-2.1,0-3.2,0
		c-0.1,0-0.2,0-0.4,0c-0.3,0.1-0.5,0.2-0.5,0.6c0,0.1,0,0.2,0,0.3c0,1,0,1.9,0,2.9c0,0,0,0.1,0,0.2c0.2,0,0.5,0,0.7,0
		c0.2,0,0.5,0,0.7,0c0.2,0,0.4,0,0.7,0c0.2,0,0.4,0,0.7,0s0.4,0,0.7,0c0.2,0,0.5,0,0.7,0c0.2,0,0.4,0,0.7,0c0,0,0,0.1,0,0.1
		c0,0.4,0,0.7,0,1.1c0,0.2,0,0.2-0.2,0.2c-0.3,0-0.5,0-0.8,0c-1.2,0-2.3,0-3.5,0c-0.1,0-0.1,0-0.2,0c0,0.1,0,0.1,0,0.2
		c0,1.5,0,3.1,0,4.6c0,0.1,0,0.2,0,0.3c0,0.2-0.2,0.4-0.4,0.4c-0.1,0-0.2,0-0.3,0c-0.8,0-1.6,0-2.4,0c0,0-0.1,0-0.1,0
		c0-1.9,0-3.7,0-5.6c-0.7,0-1.4,0-2.1,0c0,0,0,0,0,0c0,0,0.1-0.1,0.1-0.1c0.6-0.5,1.3-1,1.9-1.5c0.1-0.1,0.2-0.2,0.2-0.3
		c0-1.1,0-2.2,0-3.3c0-0.2,0-0.4,0.1-0.6c0.1-0.4,0.3-0.6,0.6-0.7c0.2-0.1,0.5-0.1,0.7-0.1c0.7,0,1.4,0,2.1,0c1.5,0,3,0,4.5,0
		C48.2,4.7,48.2,4.7,48.3,4.7z"/>
	<path class="st2" d="M9.6,4.7c0,0.2,0,0.3,0,0.5c0,0.2,0,0.4,0,0.6C9.6,6,9.6,6,9.4,6C8.2,6,6.9,6,5.6,6C5.5,6,5.4,6,5.2,6
		C4.9,6.1,4.7,6.3,4.6,6.6c0,0.1,0,0.2,0,0.2c0,1,0,1.9,0,2.9c0,0.1,0,0.1,0,0.2c1.6,0,3.2,0,4.7,0c0,0,0,0.1,0,0.1
		c0,0.4,0,0.7,0,1.1c0,0.2,0,0.2-0.2,0.2c-0.4,0-0.7,0-1.1,0c-1.1,0-2.2,0-3.2,0c-0.1,0-0.1,0-0.2,0c0,0.1,0,0.1,0,0.2
		c0,1.5,0,3.1,0,4.6c0,0.1,0,0.2,0,0.3c0,0.2-0.2,0.4-0.4,0.4c-0.1,0-0.2,0-0.3,0c-0.8,0-1.6,0-2.4,0c0,0-0.1,0-0.1,0
		c0-0.1,0-0.1,0-0.2c0-1.9,0-3.7,0-5.6c0-1.6,0-3.3,0-4.9c0-0.2,0-0.3,0-0.5c0-0.6,0.3-0.9,0.9-1c0.2,0,0.4,0,0.6,0
		c2.2,0,4.3,0,6.5,0C9.5,4.7,9.6,4.7,9.6,4.7z"/>
	<path class="st2" d="M59.5,4.7c0,0.1,0,0.2,0,0.2c0,3.2,0,6.4,0,9.6c0,0.1,0,0.3,0,0.4c0.1,0.4,0.3,0.6,0.7,0.7c0.1,0,0.2,0,0.3,0
		c1,0,2,0,2.9,0c0.1,0,0.1,0,0.2,0c0,0,0,0.1,0,0.1c0,0.3,0,0.6,0,1c0,0,0,0.1,0,0.1c0,0.1-0.1,0.1-0.2,0.1c0,0-0.1,0-0.1,0
		c-1.7,0-3.5,0-5.2,0c-0.3,0-0.6,0-0.8-0.1c-0.6-0.2-0.9-0.6-1-1.2c0-0.2,0-0.3,0-0.5c0-3.3,0-6.5,0-9.8c0-0.1,0-0.2,0-0.3
		c0-0.2,0.2-0.3,0.4-0.4c0.1,0,0.1,0,0.2,0c0.8,0,1.5,0,2.3,0C59.3,4.7,59.4,4.7,59.5,4.7z"/>
	<path class="st2" d="M23.2,16c0.1,0,0.1,0,0.2,0c0.8,0,1.5,0,2.3-0.1c0.4,0,0.8-0.1,1.1-0.3c0.5-0.3,0.7-0.7,0.9-1.2
		c0.1-0.3,0.1-0.6,0.1-0.9c0-2.7,0-5.5,0-8.2c0-0.1,0-0.2,0-0.3c0-0.3,0.2-0.4,0.5-0.4c0.1,0,0.1,0,0.2,0c0.8,0,1.5,0,2.3,0
		c0,0,0.1,0,0.1,0c0,0.1,0,0.1,0,0.2c0,1,0,2.1,0,3.1c0,1.6,0,3.3,0,4.9c0,0.6-0.1,1.1-0.2,1.7c-0.2,0.7-0.6,1.3-1.2,1.7
		c-0.6,0.5-1.3,0.7-2.1,0.9c-0.6,0.1-1.2,0.2-1.9,0.2c-0.7,0-1.3,0-2-0.1c-0.4,0-0.3-0.1-0.3-0.4c0-0.2,0-0.5,0-0.7
		C23.2,16.2,23.2,16.1,23.2,16z"/>
	<path class="st2" d="M50.2,16.9c0-0.1,0-0.1,0-0.2c0-3.8,0-7.5,0-11.3c0-0.1,0-0.1,0-0.2c0-0.3,0.2-0.5,0.5-0.5c0.1,0,0.1,0,0.2,0
		c0.8,0,1.5,0,2.3,0c0,0,0.1,0,0.1,0c0,0,0,0.1,0,0.1c0,0.1,0,0.3,0,0.4c0,3.7,0,7.3,0,11c0,0.1,0,0.2,0,0.3c0,0.2-0.2,0.4-0.4,0.4
		c-0.1,0-0.1,0-0.2,0c-0.8,0-1.6,0-2.4,0C50.3,16.9,50.3,16.9,50.2,16.9z"/>
	<path class="st2" d="M33.7,16.9c0-1.9,0-3.7,0-5.6c1,0,2.1,0,3.1,0c0,0,0,0.1,0,0.1c0,1.6,0,3.2,0,4.8c0,0.1,0,0.1,0,0.2
		c0,0.3-0.2,0.4-0.5,0.4c-0.1,0-0.1,0-0.2,0c-0.8,0-1.6,0-2.3,0C33.8,16.9,33.7,16.9,33.7,16.9z"/>
	<path class="st13" d="M33.7,11.2c0-0.1,0-0.1,0-0.2c0-1.9,0-3.7,0-5.6c0-0.1,0-0.1,0-0.2c0-0.3,0.2-0.5,0.5-0.5c0.1,0,0.1,0,0.2,0
		c0.7,0,1.5,0,2.2,0c0,0,0.1,0,0.1,0c0,0,0,0.1,0,0.1c0,1.3,0,2.5,0,3.8c0,0.2-0.1,0.3-0.2,0.4c-0.3,0.2-0.5,0.4-0.8,0.6
		c-0.7,0.5-1.3,1-2,1.5C33.8,11.1,33.8,11.2,33.7,11.2z"/>
</g>
<g class="st0">
	<path class="st2" d="M36.6,0.7c-1.8,5-3.6,10-5.5,15c0.8,0,1.5,0,2.2,0c0.1,0,0.2-0.2,0.2-0.3c0.6-1.8,1.3-3.5,1.9-5.3
		c0.3-0.8,0.6-1.6,0.9-2.4c0.6,0,1.1,0,1.7,0c-1,2.7-1.9,5.3-2.9,8c0.6,0,1.1,0,1.6,0c0.7,0,0.7,0,1-0.7c0.8-2.2,1.6-4.4,2.4-6.7
		c0.1-0.3,0.2-0.6,0.1-0.9c-0.1-0.7-0.6-1.1-1.5-1.2c-0.6,0-1.2,0-1.9,0c0-0.1,0.1-0.2,0.1-0.3c0.7-1.8,1.3-3.6,2-5.4
		c0.1-0.2,0.2-0.3,0.4-0.3c5.4-0.1,10.1,3.9,10.8,9.4c0.8,5.8-3.4,11.3-9.3,12c-0.5,0.1-1.1,0.1-1.7,0.1c0.1-0.2,0.1-0.3,0.1-0.4
		c0.7-1.8,1.3-3.6,2-5.4c0.1-0.2,0.2-0.3,0.4-0.3c0.9,0,1.7,0,2.6,0c0.8,0,1.3-0.4,1.5-1.1c0.8-2.1,1.5-4.2,2.3-6.2
		c0-0.1,0.1-0.2,0.1-0.4c0.2-0.9-0.3-1.7-1.3-1.7c-1.4,0-2.8,0-4.2,0c-0.1,0-0.2,0.2-0.3,0.3c-0.9,2.3-1.7,4.7-2.6,7
		c-0.9,2.5-1.8,4.9-2.7,7.4c0,0.1-0.1,0.2-0.1,0.3c-3.8-0.8-8.2-4.5-8.2-10.3C28.7,5.3,33,1.6,36.6,0.7z"/>
	<path class="st2" d="M46,7.7c0,0.1-0.1,0.2-0.1,0.3c-0.7,2-1.4,3.9-2.1,5.9c-0.1,0.2-0.2,0.3-0.4,0.3c-0.4,0-0.9,0-1.3,0
		C42,14.1,42,14,42,13.9c0.7-1.9,1.4-3.9,2.1-5.8c0.1-0.3,0.2-0.3,0.5-0.3C45.1,7.7,45.5,7.7,46,7.7z"/>
</g>
<g id="g11" transform="matrix(1.25,0,0,-1.25,-59.506375,297.83427)" class="st0">
	<path id="path43" class="st14" d="M53.3,231.1c-0.4,0.6-1,0.8-1.8,0.8c-0.6,0-1.3-0.3-1.8-0.7l-0.3,0.7l-1.4-0.1v-6.5h1.9v4.6
		c0.2,0.3,0.6,0.5,1,0.5c0.7,0,1-0.3,1-0.9v-4.2h1.9v4.5c0.2,0.3,0.6,0.6,1,0.6c0.7,0,1-0.3,1-0.9v-4.2h1.9v4.2
		c0,1.5-0.9,2.4-2.4,2.4C54.4,232,53.7,231.7,53.3,231.1"/>
	<path id="path47" class="st14" d="M75.1,231.9l-1.5-0.1v-6.5h1.9v3.6c0.2,0.9,0.8,1.4,1.6,1.4c0.3,0,0.5,0,0.8-0.1l0.1,1.7
		c-0.2,0-0.5,0.1-0.8,0.1c-0.7,0-1.5-0.3-1.9-1.1L75.1,231.9z"/>
	<path id="path51" class="st14" d="M86.5,233.7v-8.3h1.9v8.5L86.5,233.7z"/>
	<path id="path63" class="st14" d="M67.6,231.9l-1.4-0.1v-6.5h1.9v4.6c0.2,0.3,0.7,0.5,1.1,0.5c0.8,0,1.1-0.3,1.1-1v-4.1h1.9v4.1
		c0,1.6-0.9,2.5-2.5,2.5c-0.7,0-1.3-0.3-1.9-0.7L67.6,231.9z"/>
	<path id="path67" class="st14" d="M108.9,225.3h1.5v8.5l-1.9-0.1v-2.2c-0.5,0.4-1.1,0.6-1.7,0.6c-1.7,0-2.7-1.2-2.7-3.4
		c0-2.3,0.9-3.4,2.7-3.4c0.8,0,1.4,0.3,1.8,0.7L108.9,225.3z M108.5,227.1c-0.1-0.2-0.4-0.5-1.2-0.5c-1,0-1.3,0.5-1.3,1.9
		c0,1.4,0.3,1.9,1.3,1.9c0.5,0,0.9-0.2,1.2-0.4V227.1z"/>
	<path id="path71" class="st14" d="M98.3,231.9l-1.4-0.1v-6.5h1.9v4.6c0.2,0.3,0.7,0.5,1.1,0.5c0.8,0,1.1-0.3,1.1-1v-4.1h1.9v4.1
		c0,1.6-0.9,2.5-2.5,2.5c-0.7,0-1.3-0.3-1.9-0.7L98.3,231.9z"/>
	<path id="path75" class="st14" d="M62.9,227.2c-0.1-0.2-0.5-0.5-1.3-0.5c-0.6,0-1,0.1-1,0.7c0,0.6,0.5,0.7,1.2,0.7h1V227.2z
		 M64.8,229.2c0,1.9-1,2.8-3.1,2.8c-1,0-1.8-0.1-2.3-0.2l0.2-1.5c0.4,0.1,1.2,0.2,1.8,0.2c1.2,0,1.5-0.3,1.5-0.8v-0.2h-1.4
		c-1.8,0-2.7-0.8-2.7-2.1c0-1.4,0.9-2.1,2.3-2.1c1,0,1.6,0.3,1.9,0.7l0.2-0.6h1.6V229.2z"/>
	<path id="path79" class="st15" d="M80.2,228.6c0,0.9,0.8,1.7,1.7,1.7c0.9,0,1.7-0.8,1.7-1.7c0-0.9-0.8-1.7-1.7-1.7
		C80.9,226.9,80.2,227.7,80.2,228.6 M78.4,228.6c0-1.9,1.6-3.5,3.5-3.5c1.9,0,3.5,1.6,3.5,3.5s-1.6,3.5-3.5,3.5
		C79.9,232.1,78.4,230.6,78.4,228.6"/>
	<path id="path83" class="st14" d="M93.6,227.2c-0.1-0.2-0.5-0.5-1.3-0.5c-0.6,0-1,0.1-1,0.7c0,0.6,0.5,0.7,1.2,0.7h1V227.2z
		 M95.5,229.2c0,1.9-1,2.8-3.1,2.8c-1,0-1.8-0.1-2.3-0.2l0.2-1.5c0.4,0.1,1.2,0.2,1.8,0.2c1.2,0,1.5-0.3,1.5-0.8v-0.2h-1.4
		c-1.8,0-2.7-0.8-2.7-2.1c0-1.4,0.9-2.1,2.3-2.1c1,0,1.6,0.3,1.9,0.7l0.2-0.6h1.6V229.2z"/>
</g>
<g class="st0">
	<path class="st16" d="M55,18.5c-0.2,0.6-0.5,1.2-0.6,1.7c-0.1,0.4-0.3,0.5-0.7,0.5c-10.1,0-20.2,0-30.3,0c-1.7,0-3.3,0-5,0
		c-1.7,0-2.9-0.7-3.6-2.2c0,0,0-0.1-0.1-0.1c0,0,0,0-0.1,0c-0.1,0.1-0.2,0.2-0.3,0.3c-1.4,1.4-3.1,2.1-5.1,2.1c-2.8,0-5.6,0-8.4,0
		c-0.2,0-0.3,0-0.6,0c0.1-0.2,0.1-0.3,0.1-0.4c0.7-1.9,1.4-3.8,2.2-5.7c0.1-0.3,0.2-0.4,0.5-0.4c1.5,0,3.1,0,4.6,0
		c0.7,0,1.1-0.2,1.4-0.9c0.9-2.5,1.8-4.9,2.7-7.4c1-2.9,3.6-4.8,6.6-4.8c2.5,0,5,0,7.6,0c0.1,0,0.2,0,0.3,0
		c-0.6,1.5-1.2,3.1-1.8,4.6c0.2,0,0.3,0,0.5,0c1.5,0,3,0,4.5,0c0.3,0,0.5-0.1,0.6-0.4c0.5-1.3,1-2.6,1.5-4c0.1-0.2,0.1-0.3,0.4-0.3
		c2.1,0,4.3,0,6.4,0c0.1,0,0.1,0,0.2,0c-0.6,1.5-1.1,3-1.7,4.6c0.2,0,0.3,0,0.4,0c10.8,0,21.7,0,32.5,0c0.4,0,0.5-0.1,0.7-0.5
		c0.5-1.3,1-2.6,1.4-3.9c0.1-0.1,0.2-0.3,0.3-0.3c2.2,0,4.4,0,6.7,0c0,0.2-0.1,0.3-0.1,0.4c-2.3,6.2-4.6,12.5-6.9,18.7
		c-0.1,0.3-0.2,0.4-0.5,0.4c-4.3,0-8.6,0-12.9,0c-1.4,0-2.4-0.6-3.1-1.8C55.2,18.8,55.1,18.7,55,18.5z M23.8,2.9c-0.2,0-0.4,0-0.6,0
		c-1.5,0-3.1,0-4.6,0c-2.5,0-4.5,1.4-5.4,3.8c-0.9,2.4-1.8,4.9-2.7,7.3c-0.5,1.4-1.5,2.1-3,2.1c-1.1,0-2.3,0-3.4,0
		c-0.3,0-0.4,0.1-0.5,0.3c-0.3,0.8-0.6,1.6-0.9,2.4c0,0.1,0,0.2-0.1,0.3c0.2,0,0.4,0,0.6,0c1.9,0,3.7,0,5.6,0c2.8,0,4.7-1.4,5.7-4
		c0.9-2.4,1.8-4.8,2.6-7.2c0.5-1.3,1.5-2,2.9-2c0.5,0,0.9,0,1.4,0c1.2,0,1.2,0,1.6-1.1C23.3,4.2,23.6,3.6,23.8,2.9z M26.7,19.1
		c1.1,0,2,0,3,0c0.3,0,0.5-0.1,0.6-0.4c0.5-1.4,1-2.8,1.5-4.2c0.2-0.4,0.2-1,0.5-1.2c0.3-0.2,0.9-0.1,1.3-0.1c0.5,0,0.7,0.2,0.8,0.6
		c0,0.3,0,0.6-0.1,0.9c-0.4,1.2-0.9,2.4-1.3,3.6c-0.1,0.2-0.1,0.4-0.2,0.6c1,0,2,0,3,0c0.3,0,0.4-0.1,0.5-0.4c0.5-1.3,1-2.6,1.4-3.9
		c0.3-0.9,0-1.6-0.7-2.1c-0.2-0.1-0.4-0.2-0.6-0.3c1.8-0.1,2.4-0.5,3-2.2c0.2-0.6,0.5-1.3,0.7-1.9c0.1-0.2,0.1-0.4,0.2-0.7
		c-1.1,0-2.1,0-3.2,0c-0.1,0-0.2,0.2-0.3,0.3c-0.3,0.8-0.6,1.6-1,2.4c-0.2,0.5-0.5,1-1.1,1.1c-0.6,0.1-1.3,0-1.9,0
		C34,8.5,35,5.8,36.1,2.9c-1,0-2,0-2.9,0c-0.4,0-0.6,0.1-0.7,0.5c-1.5,4.1-3,8.2-4.5,12.3C27.6,16.8,27.2,17.9,26.7,19.1z M45.7,7.7
		c-1,0-2,0-2.9,0c-0.4,0-0.5,0.1-0.6,0.4c-1,2.8-2,5.6-3,8.4c-0.5,1.4,0.4,2.6,1.8,2.6c1.5,0,2.9,0,4.4,0c1.6,0,2.5-0.7,3.1-2.1
		c1.1-2.9,2.2-5.8,3.2-8.7c0.1-0.1,0.1-0.3,0.2-0.5c-1.1,0-2.1,0-3.2,0c-0.1,0-0.3,0.2-0.3,0.3c-0.2,0.6-0.5,1.2-0.7,1.8
		c-0.8,2.2-1.6,4.3-2.4,6.5c-0.2,0.4-0.4,0.7-0.9,0.6c-0.3,0-0.7,0-1,0c-0.7,0-0.9-0.3-0.7-1c0.5-1.5,1.1-2.9,1.6-4.4
		C44.7,10.2,45.2,9,45.7,7.7z M19.9,9.8c1.1,0,2,0,2.9,0c1.1,0,1.8,1,1.4,2c-0.6,1.6-1.2,3.2-1.9,4.8c0,0.1-0.2,0.2-0.4,0.3
		c-0.5,0-1,0-1.5,0c-0.6,0-0.8-0.3-0.6-0.9c0.2-0.6,0.4-1.1,0.6-1.7c0.3-0.9,0.2-1.1,1.5-1.1c0.1,0,0.4,0,0.4-0.1
		c0.2-0.5,0.4-1.1,0.6-1.7c-1,0-1.9,0-2.8,0c-1.3,0-2.4,0.7-2.8,2c-0.4,1-0.8,2-1.1,3.1c-0.5,1.3,0.4,2.6,1.8,2.6c2.1,0,4.2,0,6.3,0
		c0.2,0,0.4-0.1,0.5-0.3c0.9-2.4,1.8-4.9,2.7-7.3c0.6-1.8-0.7-3.7-2.6-3.8c-1.4-0.1-2.8,0-4.1,0c-0.1,0-0.3,0.1-0.3,0.2
		C20.3,8.5,20.1,9.1,19.9,9.8z M63.3,11.4c-1,0-1.9,0-2.9,0c-1.2,0-2.3,0.8-2.7,1.9c-0.4,1.1-0.8,2.1-1.2,3.2
		c-0.5,1.3,0.4,2.5,1.7,2.6c2.2,0,4.3,0,6.5,0c0.1,0,0.4-0.1,0.4-0.3c0.9-2.5,1.9-4.9,2.7-7.4c0.6-1.8-0.7-3.7-2.5-3.8
		c-1.4-0.1-2.8,0-4.2,0c-0.1,0-0.3,0.1-0.3,0.2c-0.2,0.6-0.4,1.3-0.7,2c0.2,0,0.4,0,0.5,0c0.8,0,1.6,0,2.4,0c1.1,0,1.8,1,1.4,2
		c-0.6,1.6-1.2,3.3-1.9,4.9c0,0.1-0.2,0.2-0.3,0.3c-0.6,0-1.1,0-1.7,0c-0.5,0-0.7-0.4-0.6-0.9c0.2-0.6,0.4-1.1,0.6-1.7
		c0.4-1,0.2-1.2,1.5-1.1c0.1,0,0.4-0.1,0.4-0.2C62.9,12.6,63.1,12,63.3,11.4z M49.6,19.1c1,0,2,0,2.9,0c0.3,0,0.5-0.1,0.6-0.4
		c0.8-2.2,1.7-4.4,2.4-6.6c0.5-1.5,1.4-2.4,3-2.3c0.1,0,0.2,0,0.2,0c0.1,0,0.2-0.1,0.2-0.1c0.2-0.6,0.4-1.2,0.7-1.9
		c-1.3,0-2.6-0.1-3.8,0c-1.4,0.1-2.4,1-2.9,2.3c-1,2.5-1.8,5-2.8,7.5C50,18,49.8,18.5,49.6,19.1z M67,19.1c1,0,2,0,2.9,0
		c0.4,0,0.5-0.1,0.6-0.5c1.3-3.5,2.6-7,3.9-10.5c0-0.1,0.1-0.3,0.1-0.5c-1,0-2,0-2.9,0c-0.4,0-0.5,0.1-0.6,0.5
		c-0.9,2.5-1.8,5-2.8,7.5C67.9,16.7,67.5,17.9,67,19.1z M71.9,6C73,6,74,6,75,6c0.1,0,0.3-0.2,0.3-0.3c0.3-0.6,0.5-1.3,0.7-2
		c0.1-0.3,0.2-0.5,0.3-0.8c-1.1,0-2.2,0-3.2,0C73.1,2.9,73,3,73,3C72.6,4,72.3,4.9,71.9,6z"/>
</g>
<g>
	<g>
		<text transform="matrix(1 0 0 1 0.3958 13.3274)" class="st17 st18 st19">Shinohara</text>
	</g>
	<rect x="0.6" y="14.7" class="st17" width="77.9" height="3.4"/>
	<g>
		<text transform="matrix(1 0 0 1 35.4729 17.842)" class="st4 st20 st21">1919</text>
	</g>
</g>
</svg>
