<svg xmlns="http://www.w3.org/2000/svg" width="330" height="232.053" viewBox="0 0 330 232.053">
  <g id="Group_143" data-name="Group 143" transform="translate(-1104.403 -68.447)">
    <g id="Apps" transform="translate(1065.806 -95.302)">
      <line id="Line_32" data-name="Line 32" x2="274.8" transform="translate(57.597 200.187)" fill="none" stroke="#fff" stroke-width="1"/>
      <path id="Line_33" data-name="Line 33" d="M0,0H132.784" transform="translate(38.597 277.514)" fill="none" stroke="#fff" stroke-width="1"/>
      <line id="Line_34" data-name="Line 34" x2="293.903" transform="translate(62.694 356.581)" fill="none" stroke="#fff" stroke-width="1"/>
      <line id="Line_35" data-name="Line 35" y2="209.053" transform="translate(164.694 163.749)" fill="none" stroke="#fff" stroke-width="1"/>
      <line id="Line_37" data-name="Line 37" y2="219.745" transform="translate(313.694 165.057)" fill="none" stroke="#fff" stroke-width="1"/>
      <line id="Line_38" data-name="Line 38" y2="216" transform="translate(89.694 179.802)" fill="none" stroke="#fff" stroke-width="1"/>
      <g id="Group_32" data-name="Group 32" transform="translate(-2.5)">
        <line id="Line_36" data-name="Line 36" y2="40.053" transform="translate(241.694 177.749)" fill="none" stroke="#fff" stroke-width="1"/>
        <path id="Line_149" data-name="Line 149" d="M0-18.66V19.314" transform="translate(241.694 356.616)" fill="none" stroke="#fff" stroke-width="1"/>
      </g>
      <line id="Line_150" data-name="Line 150" x2="66.903" transform="translate(301.694 277.514)" fill="none" stroke="#fff" stroke-width="1"/>
      <circle id="Ellipse_7" data-name="Ellipse 7" cx="4.5" cy="4.5" r="4.5" transform="translate(325.097 230.812)" fill="#adadad"/>
      <circle id="Ellipse_8" data-name="Ellipse 8" cx="8.5" cy="8.5" r="8.5" transform="translate(58.097 301.812)" fill="#adadad"/>
    </g>
    <g id="Group_142" data-name="Group 142" transform="translate(1179.242 88.851)">
      <path id="Path_207" data-name="Path 207" d="M98.081,93.014h28.028V74.149H98.081Zm.9-17.967H125.21V92.115H98.979Z" transform="translate(-2.425 -2.322)" fill="#fff"/>
      <path id="Rectangle_44" data-name="Rectangle 44" d="M3.457-.678H78.548a4.139,4.139,0,0,1,4.134,4.134V49.209a4.14,4.14,0,0,1-4.135,4.135H3.457A4.14,4.14,0,0,1-.678,49.209V3.457A4.14,4.14,0,0,1,3.457-.678Zm75.09,52.89a3.007,3.007,0,0,0,3-3V3.457a3.006,3.006,0,0,0-3-3H3.457a3.007,3.007,0,0,0-3,3V49.209a3.007,3.007,0,0,0,3,3Z" transform="translate(84.072 60.761)" fill="#fff"/>
      <path id="Path_208" data-name="Path 208" d="M145.861,70.4a4.66,4.66,0,1,0,4.66,4.66,4.66,4.66,0,0,0-4.66-4.66m0,8.421a3.762,3.762,0,1,1,3.762-3.762v0a3.773,3.773,0,0,1-3.762,3.76" transform="translate(-9.543 -1.703)" fill="#fff"/>
      <path id="Path_209" data-name="Path 209" d="M162.116,79.716a4.66,4.66,0,1,0-4.659-4.662v0a4.671,4.671,0,0,0,4.659,4.659m0-8.421a3.762,3.762,0,1,1-3.76,3.764v0a3.773,3.773,0,0,1,3.76-3.762" transform="translate(-12.227 -1.702)" fill="#fff"/>
      <path id="Path_210" data-name="Path 210" d="M145.862,86.292a4.659,4.659,0,1,0,4.66,4.659,4.659,4.659,0,0,0-4.66-4.659m0,8.421a3.76,3.76,0,1,1,3.762-3.76,3.76,3.76,0,0,1-3.762,3.76Z" transform="translate(-9.544 -4.327)" fill="#fff"/>
      <path id="Path_211" data-name="Path 211" d="M162.116,95.61a4.659,4.659,0,1,0-4.659-4.659,4.659,4.659,0,0,0,4.659,4.659m0-8.422a3.761,3.761,0,1,1-3.76,3.761,3.761,3.761,0,0,1,3.76-3.761Z" transform="translate(-12.227 -4.327)" fill="#fff"/>
      <path id="Path_212" data-name="Path 212" d="M145.862,102.709a4.659,4.659,0,1,0,4.66,4.659,4.659,4.659,0,0,0-4.66-4.659m0,8.421a3.76,3.76,0,1,1,3.762-3.76,3.76,3.76,0,0,1-3.762,3.76Z" transform="translate(-9.544 -7.037)" fill="#fff"/>
      <path id="Path_213" data-name="Path 213" d="M162.114,102.709a4.659,4.659,0,1,0,4.651,4.665v-.007a4.671,4.671,0,0,0-4.651-4.659m0,8.421a3.76,3.76,0,1,1,3.753-3.768v.006a3.772,3.772,0,0,1-3.753,3.759Z" transform="translate(-12.226 -7.037)" fill="#fff"/>
      <rect id="Rectangle_45" data-name="Rectangle 45" width="27.128" height="0.898" transform="translate(96.106 99.61)" fill="#fff"/>
      <path id="Rectangle_46" data-name="Rectangle 46" d="M2.605-.443H79.477a3.051,3.051,0,0,1,3.048,3.048V4.694a3.05,3.05,0,0,1-3.047,3.047H2.605A3.051,3.051,0,0,1-.443,4.693V2.605A3.051,3.051,0,0,1,2.605-.443ZM79.478,7a2.311,2.311,0,0,0,2.308-2.308V2.605A2.312,2.312,0,0,0,79.477.3H2.605A2.312,2.312,0,0,0,.3,2.605V4.693A2.312,2.312,0,0,0,2.605,7Z" transform="translate(84.033 121.635)" fill="#fff"/>
    </g>
  </g>
</svg>
