<svg id="video-01" xmlns="http://www.w3.org/2000/svg" width="27.187" height="24.321" viewBox="0 0 27.187 24.321">
  <g id="Group_8909" transform="translate(0 0)">
    <path id="Rectangle_4097" d="M90.9,562.4l15.792.267a5.59,5.59,0,0,1,5.491,5.685l-.219,12.876a5.589,5.589,0,0,1-5.685,5.491l-15.792-.267A5.59,5.59,0,0,1,85,580.765l.219-12.876A5.59,5.59,0,0,1,90.9,562.4Z" transform="translate(-84.997 -562.397)" fill="#da261f"/>
    <path id="Polygon_2" d="M133.622,591.846a1.218,1.218,0,0,1,.389,1.676,1.478,1.478,0,0,1-.389.389l-6.851,4.252a1.223,1.223,0,0,1-1.676-.389,1.2,1.2,0,0,1-.194-.632v-8.528a1.193,1.193,0,0,1,1.846-1.02Z" transform="translate(-115.206 -581.326)" fill="#fff"/>
  </g>
</svg>
