<svg xmlns="http://www.w3.org/2000/svg" width="128.594" height="115.934" viewBox="0 0 128.594 115.934">
  <g id="Group_8612" data-name="Group 8612" transform="translate(-794.5 -267)">
    <g id="Group_4" data-name="Group 4" transform="translate(819.133 285.788)">
      <circle id="Oval_13" data-name="Oval 13" cx="38.411" cy="38.411" r="38.411" transform="translate(1.253)" fill="#f4f4f4"/>
      <g id="Group_5" data-name="Group 5">
        <circle id="Oval_7" data-name="Oval 7" cx="2.714" cy="2.714" r="2.714" transform="translate(0 8.768)" fill="#f4f4f4"/>
        <rect id="Rectangle_2" data-name="Rectangle 2" width="26.721" height="4.593" rx="2.296" transform="translate(14.613)" fill="#f4f4f4"/>
        <rect id="Rectangle_2_Copy" data-name="Rectangle 2 Copy" width="13.778" height="4.593" rx="2.296" transform="translate(8.35 9.185)" fill="#f4f4f4"/>
        <rect id="Rectangle_2_Copy_4" data-name="Rectangle 2 Copy 4" width="10.438" height="4.593" rx="2.296" transform="translate(4.175 18.371)" fill="#f4f4f4"/>
        <rect id="Rectangle_2_Copy_3" data-name="Rectangle 2 Copy 3" width="10.02" height="4.593" rx="2.296" transform="translate(4.175 13.778)" fill="#fff"/>
        <rect id="Rectangle_2_Copy_2" data-name="Rectangle 2 Copy 2" width="10.438" height="4.593" rx="2.296" transform="translate(14.613 4.593)" fill="#fff"/>
      </g>
      <g id="Group_6" data-name="Group 6" transform="translate(35.906 52.607)">
        <rect id="Rectangle" width="12.943" height="5.428" rx="2.714" transform="translate(27.973 4.593)" fill="#fff"/>
        <rect id="Rectangle_Copy_2" data-name="Rectangle Copy 2" width="15.448" height="4.593" rx="2.296" transform="translate(30.061)" fill="#f4f4f4"/>
        <rect id="Rectangle_Copy_3" data-name="Rectangle Copy 3" width="15.448" height="4.593" rx="2.296" transform="translate(20.458 10.02)" fill="#f4f4f4"/>
        <rect id="Rectangle_Copy_3-2" data-name="Rectangle Copy 3" width="22.546" height="4.593" rx="2.296" transform="translate(0 19.623)" fill="#f4f4f4"/>
        <circle id="Oval" cx="2.714" cy="2.714" r="2.714" transform="translate(47.597)" fill="#f4f4f4"/>
        <rect id="Rectangle_Copy" data-name="Rectangle Copy" width="12.943" height="5.428" rx="2.714" transform="translate(17.118 14.613)" fill="#fff"/>
      </g>
    </g>
    <circle id="Oval_3" data-name="Oval 3" cx="4.593" cy="4.593" r="4.593" transform="translate(903.889 292.886)" fill="#f4f4f4"/>
    <g id="Group_3" data-name="Group 3" transform="translate(892.616 267)" opacity="0.742">
      <circle id="Oval_2" data-name="Oval 2" cx="3.131" cy="3.131" r="3.131" fill="#f4f4f4" opacity="0.379"/>
    </g>
    <g id="Group_3_Copy_3" data-name="Group 3 Copy 3" transform="translate(804.938 310.004)">
      <circle id="Oval_2-2" data-name="Oval 2" cx="2.129" cy="2.129" r="2.129" transform="translate(1.42 1.42)" fill="#d0d0d0"/>
      <circle id="Oval_4" data-name="Oval 4" cx="3.549" cy="3.549" r="3.549" fill="none" stroke="#f4f4f4" stroke-width="1.4"/>
    </g>
    <g id="Group_3_Copy_4" data-name="Group 3 Copy 4" transform="translate(809.531 267.418)">
      <circle id="Oval_2-3" data-name="Oval 2" cx="1.127" cy="1.127" r="1.127" transform="translate(0.752 0.752)" fill="#f4f4f4"/>
      <circle id="Oval_4-2" data-name="Oval 4" cx="1.879" cy="1.879" r="1.879" fill="none" stroke="#d0d0d0" stroke-width="0.7"/>
    </g>
    <g id="Group_3_Copy_2" data-name="Group 3 Copy 2" transform="translate(822.473 375.136)">
      <circle id="Oval_2-4" data-name="Oval 2" cx="2.129" cy="2.129" r="2.129" transform="translate(1.42 1.42)" fill="#f4f4f4"/>
      <circle id="Oval_4-3" data-name="Oval 4" cx="3.549" cy="3.549" r="3.549" fill="none" stroke="#f4f4f4" stroke-width="1.4"/>
    </g>
    <g id="Group_3_Copy" data-name="Group 3 Copy" transform="translate(899.296 368.873)">
      <circle id="Oval_2-5" data-name="Oval 2" cx="1.378" cy="1.378" r="1.378" transform="translate(0.919 0.919)" fill="#d0d0d0"/>
      <circle id="Oval_4-4" data-name="Oval 4" cx="2.296" cy="2.296" r="2.296" fill="none" stroke="#f4f4f4" stroke-width="1.4"/>
    </g>
    <circle id="Oval_5" data-name="Oval 5" cx="2.714" cy="2.714" r="2.714" transform="translate(917.667 332.132)" fill="#f4f4f4"/>
    <circle id="Oval_6" data-name="Oval 6" cx="3.758" cy="3.758" r="3.758" transform="translate(869.235 372.631)" fill="#f4f4f4"/>
    <circle id="Oval_8" data-name="Oval 8" cx="3.131" cy="3.131" r="3.131" transform="translate(830.824 272.428)" fill="#f4f4f4"/>
    <circle id="Oval_10" data-name="Oval 10" cx="1.461" cy="1.461" r="1.461" transform="translate(794.5 364.281)" fill="#d0d0d0" opacity="0.5"/>
    <text id="SUCESS" transform="translate(842.096 280.438)" fill="#fff" font-size="4" font-family="Helvetica"><tspan x="0" y="0">SUCESS</tspan></text>
    <path id="Path_39" data-name="Path 39" d="M0,10.278l7.178,6.2L21.471,0" transform="translate(847.942 317.937)" fill="none" stroke="#da261f" stroke-linecap="round" stroke-linejoin="round" stroke-width="10"/>
  </g>
</svg>
