<svg xmlns="http://www.w3.org/2000/svg" width="212.904" height="150" viewBox="0 0 212.904 150">
  <path id="YouTube-Icon-White-Logo.wine" d="M84.677,106.657V43.344L140.323,75ZM208.455,23.423A26.752,26.752,0,0,0,189.632,4.478C173.029,0,106.452,0,106.452,0S39.875,0,23.272,4.478A26.752,26.752,0,0,0,4.449,23.423C0,40.134,0,75,0,75s0,34.865,4.449,51.577a26.754,26.754,0,0,0,18.823,18.946C39.875,150,106.452,150,106.452,150s66.577,0,83.18-4.476a26.756,26.756,0,0,0,18.823-18.946C212.9,109.866,212.9,75,212.9,75s0-34.866-4.449-51.577" fill="#fff"/>
</svg>
