<svg xmlns="http://www.w3.org/2000/svg" width="50" height="49.999" viewBox="0 0 50 49.999">
  <g id="Group_1" data-name="Group 1" transform="translate(261.171 254)">
    <path id="Path_2" data-name="Path 2" d="M218.75,262.62h3.5v3.5a4,4,0,1,0,8,0v-3.5h7v3.5a4,4,0,1,0,8,0v-3.5h3.5v-22h-30Z" transform="translate(-469.921 -474.121)" fill="#919191"/>
    <path id="Path_3" data-name="Path 3" d="M236.835,61.52a1.965,1.965,0,0,0-1-.27,2,2,0,0,0-1.73,1l-3,5.215a15,15,0,0,0-19.75,0l-3.02-5.215a2,2,0,0,0-1.73-1,1.965,1.965,0,0,0-1,.27,2,2,0,0,0-.735,2.73l3.715,6.43a14.853,14.853,0,0,0-2.365,8.07h30a14.853,14.853,0,0,0-2.365-8.07l3.715-6.43a2,2,0,0,0-.735-2.73ZM215.47,74.749a1.5,1.5,0,1,1,1.5-1.5,1.5,1.5,0,0,1-1.5,1.5Zm11.5,0a1.5,1.5,0,1,1,1.5-1.5,1.5,1.5,0,0,1-1.5,1.5Z" transform="translate(-457.392 -315.25)" fill="#919191"/>
    <path id="Path_4" data-name="Path 4" d="M519.25,240.62a3,3,0,0,0-3,3v10a3,3,0,1,0,6,0v-10a3,3,0,0,0-3-3Z" transform="translate(-733.422 -474.121)" fill="#919191"/>
    <path id="Path_5" data-name="Path 5" d="M134.25,240.62a3,3,0,0,0-3,3v10a3,3,0,1,0,6,0v-10a3,3,0,0,0-3-3Z" transform="translate(-392.422 -474.121)" fill="#919191"/>
  </g>
</svg>
