<svg xmlns="http://www.w3.org/2000/svg" width="44.616" height="38.38" viewBox="0 0 44.616 38.38">
  <g id="noun-newsletter-2408225" transform="translate(-87.5 -55.879)">
    <path id="Path_19560" data-name="Path 19560" d="M208.106,215.48l-2.614,2.509h2.614Z" transform="translate(-107.965 -146.038)" fill="#bcbcbc"/>
    <path id="Path_19561" data-name="Path 19561" d="M241.055,98.481a3.68,3.68,0,0,1,.763-2.231h-20.84a2.231,2.231,0,0,0-2.231,2.231v2.231h22.308Z" transform="translate(-120.093 -36.94)" fill="#bcbcbc"/>
    <path id="Path_19562" data-name="Path 19562" d="M380.69,55.879l-2.026,1.944h4.051Z" transform="translate(-266.42 0)" fill="#bcbcbc"/>
    <path id="Path_19563" data-name="Path 19563" d="M253.75,102.2V113l12.641,9.1,12.641-9.1V98.481a2.231,2.231,0,1,0-4.462,0v2.974a.744.744,0,0,1-.744.744Zm19.333,11.154H258.212v-1.487h14.872Zm0-2.974H258.212v-1.487h14.872Zm0-2.974H258.212v-1.487h14.872Z" transform="translate(-152.122 -36.941)" fill="#bcbcbc"/>
    <path id="Path_19564" data-name="Path 19564" d="M443.29,281.174l14.38,9.147v-19.5Z" transform="translate(-325.554 -196.675)" fill="#bcbcbc"/>
    <path id="Path_19565" data-name="Path 19565" d="M213.031,262.5h-2.156l2.156,1.553Z" transform="translate(-112.89 -189.062)" fill="#bcbcbc"/>
    <path id="Path_19566" data-name="Path 19566" d="M568.75,262.5v1.553l2.156-1.553Z" transform="translate(-440.352 -189.062)" fill="#bcbcbc"/>
    <path id="Path_19567" data-name="Path 19567" d="M230.289,404.935a.744.744,0,0,1-.868,0l-1.731-1.247-13.869,8.823h32.07l-13.869-8.823Z" transform="translate(-115.585 -318.251)" fill="#bcbcbc"/>
    <path id="Path_19568" data-name="Path 19568" d="M192.5,270.83v19.5l14.38-9.147Z" transform="translate(-96.077 -196.684)" fill="#bcbcbc"/>
    <path id="Path_19569" data-name="Path 19569" d="M568.75,215.48v2.509h2.614Z" transform="translate(-440.352 -146.038)" fill="#bcbcbc"/>
    <path id="Path_19570" data-name="Path 19570" d="M87.5,148.75h7.436v1.487H87.5Z" transform="translate(0 -84.979)" fill="#d62c28"/>
    <path id="Path_19571" data-name="Path 19571" d="M113.75,183.75h8.18v1.487h-8.18Z" transform="translate(-24.019 -117.004)" fill="#d62c28"/>
  </g>
</svg>
