<svg xmlns="http://www.w3.org/2000/svg" width="330" height="232" viewBox="0 0 330 232">
  <g id="Group_120" data-name="Group 120" transform="translate(-31 -70.5)">
    <g id="Group_77" data-name="Group 77" transform="translate(31 38.173)">
      <g id="Group_8" data-name="Group 8">
        <g id="Group_118" data-name="Group 118">
          <line id="Line_1" data-name="Line 1" x2="330" transform="translate(0 204.583)" fill="none" stroke="#fff" stroke-width="1"/>
        </g>
      </g>
      <line id="Line_2" data-name="Line 2" x2="323.086" transform="translate(2.433 72.587)" fill="none" stroke="#fff" stroke-width="1"/>
      <g id="Group_10" data-name="Group 10">
        <g id="Group_119" data-name="Group 119">
          <line id="Line_3" data-name="Line 3" x2="133.331" transform="translate(196.5 138.585)" fill="none" stroke="#fff" stroke-width="1"/>
        </g>
      </g>
      <line id="Line_4" data-name="Line 4" y2="202.059" transform="translate(273.992 43.268)" fill="none" stroke="#fff" stroke-width="1"/>
      <g id="Group_12" data-name="Group 12">
        <g id="Group_115" data-name="Group 115">
          <line id="Line_5" data-name="Line 5" y2="187.838" transform="translate(206.654 32.327)" fill="none" stroke="#fff" stroke-width="1"/>
          <line id="Line_6" data-name="Line 6" y2="71" transform="translate(133.316 193.327)" fill="none" stroke="#fff" stroke-width="1"/>
        </g>
      </g>
      <line id="Line_7" data-name="Line 7" y2="187.581" transform="translate(59.979 47.746)" fill="none" stroke="#fff" stroke-width="1"/>
      <rect id="Rectangle_9" data-name="Rectangle 9" width="15.121" height="11.687" transform="translate(239.695 233.424)" fill="#adadad"/>
      <rect id="Rectangle_10" data-name="Rectangle 10" width="11.235" height="8.684" transform="translate(22.638 151.487)" fill="#adadad"/>
      <g id="Group_14" data-name="Group 14">
        <g id="Group_116" data-name="Group 116">
          <line id="Line_8" data-name="Line 8" x2="60" transform="translate(0.5 138.585)" fill="none" stroke="#fff" stroke-width="1"/>
          <path id="Path_90" data-name="Path 90" d="M114.71,110.54a.06.06,0,0,0,.04.01.254.254,0,0,0,.12-.02c-.06,0-.11.01-.16.01" fill="#fff" fill-rule="evenodd"/>
          <path id="Path_91" data-name="Path 91" d="M114.71,110.54a.06.06,0,0,0,.04.01.254.254,0,0,0,.12-.02c-.06,0-.11.01-.16.01m0,0a.06.06,0,0,0,.04.01.254.254,0,0,0,.12-.02c-.06,0-.11.01-.16.01m0,0a.06.06,0,0,0,.04.01.254.254,0,0,0,.12-.02c-.06,0-.11.01-.16.01m0,0a.06.06,0,0,0,.04.01.254.254,0,0,0,.12-.02c-.06,0-.11.01-.16.01m0,0a.06.06,0,0,0,.04.01.254.254,0,0,0,.12-.02c-.06,0-.11.01-.16.01m0,0a.06.06,0,0,0,.04.01.254.254,0,0,0,.12-.02c-.06,0-.11.01-.16.01m0,0a.06.06,0,0,0,.04.01.254.254,0,0,0,.12-.02c-.06,0-.11.01-.16.01m0,0a.06.06,0,0,0,.04.01.254.254,0,0,0,.12-.02c-.06,0-.11.01-.16.01m0,0a.06.06,0,0,0,.04.01.254.254,0,0,0,.12-.02c-.06,0-.11.01-.16.01m0,0a.06.06,0,0,0,.04.01.254.254,0,0,0,.12-.02c-.06,0-.11.01-.16.01m0,0a.06.06,0,0,0,.04.01.254.254,0,0,0,.12-.02c-.06,0-.11.01-.16.01m0,0a.06.06,0,0,0,.04.01.254.254,0,0,0,.12-.02c-.06,0-.11.01-.16.01m0,0a.06.06,0,0,0,.04.01.254.254,0,0,0,.12-.02c-.06,0-.11.01-.16.01"/>
          <path id="Path_92" data-name="Path 92" d="M100.77,86.24a.508.508,0,0,0-.1.29.528.528,0,0,1,.01-.13.367.367,0,0,1,.09-.16" fill="#fff" fill-rule="evenodd"/>
          <path id="Path_93" data-name="Path 93" d="M134.24,86.53a.453.453,0,0,0-.03-.16c.01.01.02.02.02.03a.528.528,0,0,1,.01.13" fill="#fff" fill-rule="evenodd"/>
          <path id="Path_94" data-name="Path 94" d="M134.23,86.4c0-.01-.01-.02-.02-.03a.453.453,0,0,1,.03.16.528.528,0,0,0-.01-.13m-33.55,0a.528.528,0,0,0-.01.13.508.508,0,0,1,.1-.29.367.367,0,0,0-.09.16"/>
          <path id="Path_95" data-name="Path 95" d="M114.87,110.53a.254.254,0,0,1-.12.02.06.06,0,0,1-.04-.01c.05,0,.1-.01.16-.01" fill="#fff" fill-rule="evenodd"/>
          <path id="Path_98" data-name="Path 98" d="M100.77,86.24a.508.508,0,0,0-.1.29.528.528,0,0,1,.01-.13.367.367,0,0,1,.09-.16" fill="#fff" fill-rule="evenodd"/>
          <path id="Path_99" data-name="Path 99" d="M134.24,86.53a.453.453,0,0,0-.03-.16c.01.01.02.02.02.03a.528.528,0,0,1,.01.13" fill="#fff" fill-rule="evenodd"/>
        </g>
      </g>
    </g>
    <path id="Path_162" data-name="Path 162" d="M220.8,52.193h-63.12a5.713,5.713,0,0,0-5.4,5.97v47.32c0,3.29,2.42,5.98,5.4,5.98H173.9l-.54,1.25a10.913,10.913,0,0,1-3.11,4.16l-.25.2h-3.44a.644.644,0,0,0-.45.17.632.632,0,0,0-.19.43.615.615,0,0,0,.6.63h45.41a.6.6,0,0,0,.41-.19.637.637,0,0,0,.17-.44.622.622,0,0,0-.6-.6h-3.4l-.25-.2a10.938,10.938,0,0,1-3.12-4.16l-.54-1.25h16.22a5.719,5.719,0,0,0,5.4-5.94V58.163a5.735,5.735,0,0,0-5.42-5.97m-15.42,63.43,1.14,1.45h-34.57l1.15-1.46a9.256,9.256,0,0,0,1.73-3.48l.17-.67h28.46l.18.66a9.749,9.749,0,0,0,1.74,3.5m15.5-5.4-63.2.01a4.53,4.53,0,0,1-4.17-4.82l-.01-47.25a4.5,4.5,0,0,1,4.1-4.74h63.2a4.521,4.521,0,0,1,4.17,4.81l.01,47.22a4.526,4.526,0,0,1-4.1,4.77" transform="translate(-25 88.796)" fill="#fff"/>
    <path id="Path_163" data-name="Path 163" d="M200.257,88.636l-.056-.064-8.7-8.694.246-.469a11.564,11.564,0,1,0-4.919,4.911l.461-.246,8.694,8.694a2.973,2.973,0,1,0,4.275-4.132m-18.763-4a10.577,10.577,0,1,1,7.494-3.091,10.579,10.579,0,0,1-7.494,3.091m18.056,7.391-.048.056a2.005,2.005,0,0,1-2.821,0l-8.535-8.535.62-.5a11.052,11.052,0,0,0,1.693-1.7l.5-.62,8.535,8.535a1.966,1.966,0,0,1,.056,2.766" transform="translate(-20.973 93.826)" fill="#fff"/>
  </g>
</svg>
