<svg xmlns="http://www.w3.org/2000/svg" width="330" height="262.962" viewBox="0 0 330 262.962">
  <g id="Advertisement" transform="translate(-20 -122.661)">
    <line id="Line_26" data-name="Line 26" x2="329.406" transform="translate(20 177.436)" fill="none" stroke="#fff" stroke-width="1"/>
    <line id="Line_27" data-name="Line 27" x2="250.357" transform="translate(99.643 257.014)" fill="none" stroke="#fff" stroke-width="1"/>
    <line id="Line_28" data-name="Line 28" x2="328.871" transform="translate(20.179 329.9)" fill="none" stroke="#fff" stroke-width="1"/>
    <line id="Line_29" data-name="Line 29" y2="262.529" transform="translate(99.541 123.094)" fill="none" stroke="#fff" stroke-width="1"/>
    <line id="Line_30" data-name="Line 30" y2="207.332" transform="translate(185.569 177.912)" fill="none" stroke="#fff" stroke-width="1"/>
    <line id="Line_31" data-name="Line 31" y2="207.332" transform="translate(268.159 122.661)" fill="none" stroke="#fff" stroke-width="1"/>
    <g id="noun-advertising-1667797" transform="translate(156.433 217.681) rotate(-42)">
      <path id="Path_422" data-name="Path 422" d="M20.166,51.9c26.479,0,51.4,16.72,51.4,16.72V25.83s-34.582,14.539-51.4,14.539Z" fill="rgba(255,255,255,0)" stroke="#fff" stroke-linecap="round" stroke-linejoin="round" stroke-width="1"/>
      <line id="Line_153" data-name="Line 153" y2="12.354" transform="translate(28.216 39.874)" fill="none" stroke="#fff" stroke-linecap="round" stroke-linejoin="round" stroke-width="1"/>
      <path id="Path_423" data-name="Path 423" d="M20.166,43.173H15.183V48.78h4.983" fill="rgba(255,255,255,0)" stroke="#fff" stroke-linecap="round" stroke-linejoin="round" stroke-width="1"/>
      <path id="Path_424" data-name="Path 424" d="M26.442,52.335s1.157,14.559-2.9,17.05h9.337V53.372" fill="rgba(255,255,255,0)" stroke="#fff" stroke-linecap="round" stroke-linejoin="round" stroke-width="1"/>
      <line id="Line_154" data-name="Line 154" y1="3.932" x2="6.423" transform="translate(76.076 29.499)" fill="none" stroke="#fff" stroke-linecap="round" stroke-linejoin="round" stroke-width="1"/>
      <line id="Line_155" data-name="Line 155" x2="6.423" y2="3.116" transform="translate(76.076 59.579)" fill="none" stroke="#fff" stroke-linecap="round" stroke-linejoin="round" stroke-width="1"/>
      <line id="Line_156" data-name="Line 156" x2="6.192" transform="translate(77.683 46.051)" fill="none" stroke="#fff" stroke-linecap="round" stroke-linejoin="round" stroke-width="1"/>
    </g>
    <rect id="Rectangle_5000" data-name="Rectangle 5000" width="17" height="16" transform="translate(168.5 323.142)" fill="#adadad"/>
    <rect id="Rectangle_5002" data-name="Rectangle 5002" width="17" height="16" transform="translate(329.5 178.142)" fill="#adadad"/>
  </g>
</svg>
