<?xml version="1.0" encoding="utf-8"?>
<!-- Generator: Adobe Illustrator 27.0.1, SVG Export Plug-In . SVG Version: 6.00 Build 0)  -->
<svg version="1.1" id="Layer_1" xmlns="http://www.w3.org/2000/svg" xmlns:xlink="http://www.w3.org/1999/xlink" x="0px" y="0px"
	 viewBox="0 0 820 312" style="enable-background:new 0 0 820 312;" xml:space="preserve">
<style type="text/css">
	.st0{fill:#FFFFFF;}
	.st1{fill:#FE0000;}
</style>
<g>
	<path class="st0" d="M670.6,184.3c10.8,0,20.5,0,30.6,0c0-12.4,0-24.1,0-35.8c0-14.5,0.3-29.1-0.2-43.6c-0.6-16.7-7.5-22.9-23.8-23
		c-6.4,0-12.7,0.2-19.1-0.1c-7.2-0.3-13.7,0.8-18.4,9.6c-2.7-10.1-9.6-9.6-16.3-9.5c-6.4,0-12.7,0-19.1,0
		c-8.5,0.1-17.7-2.2-23.5,8.3c-0.5-3.9-0.9-6.3-1.2-8.5c-10.2,0-19.7,0-29.1,0c0,34.6,0,68.6,0,102.6c10.3,0,20.1,0,30.3,0
		c0-22.9,0-45,0-67.2c0-19.7,0-19.5,19.5-19.6c7.1,0,10,2.1,9.9,9.6c-0.4,22.9-0.1,45.9-0.1,68.8c0,2.7,0,5.5,0,9
		c7.6,0,14.2,0,20.7,0c9.8,0,9.8,0,9.8-10.1c0-22.4,0.1-44.8,0-67.3c0-6.9,2.5-10.7,9.9-10c0.8,0.1,1.5,0,2.3,0
		c17.7-0.1,17.7-0.1,17.7,17.3C670.6,137.9,670.6,160.8,670.6,184.3z M321.7,81.5c0,8.5,0,16.1,0,23.7c0,18.8-0.2,37.7,0.1,56.5
		c0.3,16.2,7.6,23,23.7,23.1c8.9,0,17.8-0.1,26.7,0c6.6,0.1,13.1,0.3,17.8-8.4c0,9.2,0.1,16,0,22.9c-0.1,5.8-2.8,8.8-9,8.6
		c-9.9-0.3-19.9-0.1-29.8-0.1c-9.1,0-18.2,0-27.2,0c0,6,0,10.9,0,16.3c26.5,0,52.5,0.2,78.4-0.1c7.4-0.1,13.3-4.2,15.3-11.7
		c1.7-6.3,3.2-12.9,3.3-19.4c0.3-34.9,0.2-69.8,0.1-104.7c0-2.2-0.3-4.4-0.5-6.6c-10.2,0-19.8,0-30.1,0c-0.2,3.4-0.4,6.3-0.4,9.3
		c0,22.9-0.2,45.8,0.1,68.8c0.1,6.9-2.5,9.8-9.4,9.5c-6.4-0.3-12.7-0.3-19.1,0c-7,0.3-9.5-2.7-9.4-9.5c0.3-17.1,0.1-34.1,0.1-51.2
		c0-8.8,0-17.7,0-26.8C341.9,81.5,332.4,81.5,321.7,81.5z M140.9,44c-9.4,0-18.3-0.3-27.1,0.2c-2.7,0.2-6.1,2-7.8,4.2
		c-27.5,36.2-54.7,72.6-81.9,108.9c-6.6,8.8-12.9,17.8-20.2,27.8c5.7,0,9.8-0.4,13.8,0.1c6.4,0.9,10.3-1.8,13.8-6.9
		c7.1-10.2,14.8-20,22.3-29.9c1.1-1.5,2.9-3.4,4.5-3.4c16.7-0.2,33.4-0.2,51.1-0.2c0,13.8,0,26.6,0,39.7c11,0,21.1,0,31.5,0
		C140.9,137.8,140.9,91.6,140.9,44z M262.8,185c-1.2-2.6-1.6-4-2.3-5.3c-11.1-19.7-22.1-39.4-33.4-59c-2.7-4.6-2.5-7.3,2-10.8
		c11.3-8.8,22.1-18.2,34.2-28.3c-15-1.4-27.5-1.8-38.4,9.4c-10.2,10.4-22.3,18.9-35.3,29.6c0-26.6,0-51.3,0-76
		c-10.5,0-19.7,0-28.9,0c0,46.9,0,93.2,0,139.7c9.7,0,18.9,0,28.8,0c0-11.3,0.7-22-0.2-32.6c-0.8-9.4,4.4-13.6,12-17.5
		c8.4,14.9,16.4,29.6,24.8,44.1c1.6,2.7,4.6,6.1,7.2,6.3C242.5,185.5,252,185,262.8,185z M438.3,96.7c20,0,39.3,0.2,58.6-0.1
		c6.8-0.1,8.7,2.8,8.7,9.2c0,6.4-2.1,9.2-8.9,9c-14.7-0.4-29.5-0.1-44.3-0.1c-8.1,0-13.7,3.6-16,11.4c-4.4,14.7-4.1,29.7-0.7,44.5
		c2.5,10.9,7.8,14.3,19.3,14.5c10.7,0.2,21.4,0.6,32-0.1c6.6-0.5,13.2-2.9,20-4.5c0,0,0.4,2.1,0.7,4c8.9,0,17.2,0,26.3,0
		c0-15.7,0.1-30.9,0-46.1c-0.1-12.4,0.3-25-1.1-37.3c-1.7-14.8-8-19.5-23-19.5c-21.6-0.1-43.3,0-64.9,0c-2.2,0-4.4,0.3-6.9,0.5
		C438.3,87,438.3,91.2,438.3,96.7z M721.4,96.7c3.7,0,6.7,0,9.7,0c16.5,0,33.1,0.2,49.6-0.1c6.9-0.1,7.8,3.6,7.8,9.2
		c0,5.6-0.9,9.2-7.9,9c-14.5-0.4-29-0.2-43.5-0.1c-11.5,0.1-17.9,5.3-18.6,16.8c-0.7,12.1-0.8,24.4,0.1,36.5
		c0.8,11.2,7.5,16.8,18.7,17.1c10.7,0.3,21.4-0.1,32.1,0.1c7.8,0.2,15.2-0.3,20.7-8.3c0.8,3.3,1.3,5.6,1.8,7.4c8.7,0,16.7,0,24.9,0
		c0-28.1,0.5-55.6-0.2-83c-0.3-13.3-8.1-19.6-21.4-19.7c-22.1-0.2-44.3-0.1-66.4,0c-2.4,0-4.8,0.4-7.4,0.6
		C721.4,87.2,721.4,91.2,721.4,96.7z M304.7,184.6c0-34.8,0-68.7,0-102.8c-9.7,0-18.7,0-28,0c0,34.4,0,68.4,0,102.8
		C286.1,184.6,295.2,184.6,304.7,184.6z M304.7,68.1c0-8.1,0-15.8,0-23.6c-9.6,0-18.7,0-28,0c0,8.1,0,15.8,0,23.6
		C286.4,68.1,295.4,68.1,304.7,68.1z"/>
	<path class="st1" d="M670.6,184.3c0-23.5,0-46.4,0-69.3c0-17.4,0-17.4-17.7-17.3c-0.8,0-1.5,0.1-2.3,0c-7.4-0.7-10,3.1-9.9,10
		c0.1,22.4,0,44.8,0,67.3c0,10.1,0,10.1-9.8,10.1c-6.6,0-13.2,0-20.7,0c0-3.6,0-6.3,0-9c0-22.9-0.2-45.9,0.1-68.8
		c0.1-7.5-2.8-9.7-9.9-9.6c-19.6,0-19.5-0.2-19.5,19.6c0,22.1,0,44.3,0,67.2c-10.3,0-20,0-30.3,0c0-34,0-68,0-102.6
		c9.4,0,19,0,29.1,0c0.3,2.2,0.6,4.6,1.2,8.5c5.8-10.5,15-8.2,23.5-8.3c6.4-0.1,12.7,0,19.1,0c6.7,0,13.6-0.6,16.3,9.5
		c4.7-8.8,11.2-9.9,18.4-9.6c6.4,0.3,12.7,0,19.1,0.1c16.3,0.1,23.2,6.4,23.8,23c0.5,14.5,0.2,29,0.2,43.6c0,11.7,0,23.4,0,35.8
		C691.1,184.3,681.4,184.3,670.6,184.3z"/>
	<path class="st1" d="M321.7,81.5c10.7,0,20.2,0,30.7,0c0,9.2,0,18,0,26.8c0,17.1,0.2,34.1-0.1,51.2c-0.1,6.9,2.4,9.9,9.4,9.5
		c6.4-0.3,12.7-0.3,19.1,0c6.9,0.3,9.5-2.6,9.4-9.5c-0.2-22.9-0.1-45.8-0.1-68.8c0-3,0.3-5.9,0.4-9.3c10.3,0,19.8,0,30.1,0
		c0.2,2.3,0.5,4.5,0.5,6.6c0,34.9,0.2,69.8-0.1,104.7c-0.1,6.5-1.6,13.1-3.3,19.4c-2,7.5-7.9,11.6-15.3,11.7
		c-25.9,0.4-51.9,0.1-78.4,0.1c0-5.3,0-10.3,0-16.3c9,0,18.1,0,27.2,0c9.9,0,19.9-0.2,29.8,0.1c6.2,0.2,9-2.7,9-8.6
		c0.1-6.8,0-13.6,0-22.9c-4.8,8.7-11.3,8.5-17.8,8.4c-8.9-0.1-17.8,0-26.7,0c-16.1,0-23.4-6.9-23.7-23.1
		c-0.3-18.8-0.1-37.7-0.1-56.5C321.7,97.6,321.7,90,321.7,81.5z"/>
	<path class="st1" d="M140.9,44c0,47.6,0,93.8,0,140.5c-10.4,0-20.5,0-31.5,0c0-13.1,0-25.9,0-39.7c-17.7,0-34.4-0.1-51.1,0.2
		c-1.5,0-3.3,2-4.5,3.4c-7.6,9.9-15.2,19.7-22.3,29.9c-3.5,5.1-7.5,7.7-13.8,6.9c-4-0.5-8.1-0.1-13.8-0.1c7.3-10,13.6-19,20.2-27.8
		C51.3,120.9,78.5,84.6,106,48.4c1.6-2.2,5.1-4,7.8-4.2C122.6,43.7,131.5,44,140.9,44z M108.6,74.8C95.3,92.7,83.1,109,70.2,126.3
		c13.8,0,25.8,0,38.4,0C108.6,109.6,108.6,93.3,108.6,74.8z"/>
	<path class="st1" d="M262.8,185c-10.8,0-20.2,0.5-29.6-0.3c-2.6-0.2-5.7-3.6-7.2-6.3c-8.4-14.4-16.5-29.1-24.8-44.1
		c-7.6,3.9-12.7,8.1-12,17.5c0.9,10.6,0.2,21.3,0.2,32.6c-9.9,0-19.1,0-28.8,0c0-46.6,0-92.8,0-139.7c9.2,0,18.4,0,28.9,0
		c0,24.7,0,49.4,0,76c12.9-10.7,25.1-19.2,35.3-29.6c10.9-11.2,23.4-10.7,38.4-9.4c-12.1,10.1-22.9,19.5-34.2,28.3
		c-4.4,3.5-4.7,6.1-2,10.8c11.3,19.5,22.3,39.3,33.4,59C261.1,181,261.6,182.4,262.8,185z"/>
	<path class="st1" d="M438.3,96.7c0-5.5,0-9.7,0-14.6c2.5-0.2,4.7-0.5,6.9-0.5c21.6,0,43.3-0.1,64.9,0c15,0.1,21.3,4.7,23,19.5
		c1.4,12.3,1,24.9,1.1,37.3c0.2,15.2,0,30.4,0,46.1c-9.1,0-17.4,0-26.3,0c-0.3-1.9-0.7-4-0.7-4c-6.9,1.6-13.4,4-20,4.5
		c-10.6,0.7-21.4,0.3-32,0.1c-11.5-0.2-16.7-3.7-19.3-14.5c-3.4-14.7-3.7-29.7,0.7-44.5c2.3-7.8,7.9-11.4,16-11.4
		c14.8,0,29.5-0.3,44.3,0.1c6.8,0.2,8.8-2.6,8.9-9c0-6.4-1.9-9.3-8.7-9.2C477.6,96.9,458.3,96.7,438.3,96.7z M505,130.4
		c-12.5,0-23.6,0-34.8,0c-4.4,0-6.5,2.2-6.5,6.6c0,8.4,0.1,16.8,0,25.2c0,4.8,2.2,7,7,7c9.2,0,18.4,0.4,27.5-0.3
		c2.5-0.2,6.4-3.9,6.6-6.3C505.4,152.3,505,141.9,505,130.4z"/>
	<path class="st1" d="M721.4,96.7c0-5.5,0-9.5,0-14.4c2.5-0.2,5-0.6,7.4-0.6c22.1,0,44.3-0.1,66.4,0c13.4,0.1,21.1,6.4,21.4,19.7
		c0.7,27.4,0.2,54.9,0.2,83c-8.2,0-16.2,0-24.9,0c-0.4-1.9-1-4.1-1.8-7.4c-5.5,8-12.9,8.5-20.7,8.3c-10.7-0.2-21.4,0.1-32.1-0.1
		c-11.2-0.3-17.9-5.8-18.7-17.1c-0.9-12.1-0.9-24.4-0.1-36.5c0.7-11.5,7.1-16.7,18.6-16.8c14.5-0.1,29-0.3,43.5,0.1
		c7,0.2,7.8-3.4,7.9-9c0-5.6-0.9-9.3-7.8-9.2c-16.5,0.3-33.1,0.1-49.6,0.1C728.1,96.7,725.1,96.7,721.4,96.7z M788.2,130.5
		c-12.4,0-24.3-0.3-36.1,0.3c-1.8,0.1-4.6,4-4.8,6.4c-0.6,8.3-0.3,16.7-0.2,25.1c0.1,4.5,2.3,7,7.1,7c8.9-0.1,17.7-0.1,26.6,0
		c4.8,0.1,7.3-2.3,7.3-6.8C788.3,152.1,788.2,141.8,788.2,130.5z"/>
	<path class="st1" d="M304.7,184.6c-9.5,0-18.5,0-28,0c0-34.4,0-68.4,0-102.8c9.3,0,18.4,0,28,0
		C304.7,115.9,304.7,149.8,304.7,184.6z"/>
	<path class="st1" d="M304.7,68.1c-9.3,0-18.3,0-28,0c0-7.8,0-15.5,0-23.6c9.3,0,18.3,0,28,0C304.7,52.3,304.7,60,304.7,68.1z"/>
</g>
</svg>
