<svg xmlns="http://www.w3.org/2000/svg" xmlns:xlink="http://www.w3.org/1999/xlink" width="371.836" height="335.505" viewBox="0 0 371.836 335.505">
  <defs>
    <clipPath id="clip-path">
      <rect id="Rectangle_4217" data-name="Rectangle 4217" width="371.836" height="335.505" fill="none"/>
    </clipPath>
    <clipPath id="clip-path-4">
      <rect id="Rectangle_4219" data-name="Rectangle 4219" width="30.747" height="65.638" fill="none"/>
    </clipPath>
  </defs>
  <g id="Group_8427" data-name="Group 8427" transform="translate(-1088.323 -1595)">
    <g id="Group_8426" data-name="Group 8426" transform="translate(1088.323 1595)">
      <g id="Group_1505" data-name="Group 1505">
        <g id="Group_1504" data-name="Group 1504" clip-path="url(#clip-path)">
          <path id="Path_273" data-name="Path 273" d="M357.492,84.927l-17.633-.081a4.38,4.38,0,0,0-4.3,4.456l-.015,3.2a4.378,4.378,0,0,1-4.3,4.456L296.872,96.8a4.385,4.385,0,0,1-4.263-4.5l.014-3.2a4.385,4.385,0,0,0-4.263-4.5l-6.2-.028L266.726,84.5a13.874,13.874,0,0,0-13.938,13.816l-.941,222.556a13.875,13.875,0,0,0,13.811,13.935l90.767.419a13.876,13.876,0,0,0,13.939-13.816L371.3,98.86a13.876,13.876,0,0,0-13.811-13.934" transform="translate(-22.521 -7.557)" fill="#f5f5f5"/>
          <path id="Path_274" data-name="Path 274" d="M347.7,325.154l-67.5-.311c-.7,0-1.261-.764-1.257-1.7l.075-17.658c0-.935.574-1.69,1.272-1.687l67.5.312c.7,0,1.261.764,1.257,1.7l-.075,17.656c0,.936-.573,1.692-1.271,1.688" transform="translate(-24.945 -27.167)" fill="#e0e0e0"/>
          <path id="Path_275" data-name="Path 275" d="M300.823,316.708l.211-.429a2.424,2.424,0,0,0,1.665.649c.948,0,1.361-.409,1.364-.931.005-1.451-3.112-.573-3.1-2.531,0-.779.585-1.448,1.87-1.442a2.769,2.769,0,0,1,1.565.476l-.182.444a2.525,2.525,0,0,0-1.386-.443c-.925,0-1.339.424-1.34.953-.005,1.451,3.111.588,3.1,2.515,0,.78-.6,1.442-1.892,1.436a2.669,2.669,0,0,1-1.876-.7" transform="translate(-26.901 -27.903)" fill="#fafafa"/>
          <rect id="Rectangle_4205" data-name="Rectangle 4205" width="5.291" height="0.535" transform="translate(278.847 289.472) rotate(-89.707)" fill="#fafafa"/>
          <path id="Path_276" data-name="Path 276" d="M312.88,312.12l-.022,5.291h-.441l-3.233-4.309-.018,4.293h-.535l.022-5.29h.442l3.24,4.309.018-4.293Z" transform="translate(-27.599 -27.909)" fill="#fafafa"/>
          <path id="Path_277" data-name="Path 277" d="M318.616,314.788h.513l-.008,2.019a2.711,2.711,0,1,1-1.829-4.718,2.432,2.432,0,0,1,1.874.771l-.333.354a2.015,2.015,0,0,0-1.522-.626,2.192,2.192,0,1,0,1.3,3.981Z" transform="translate(-28.133 -27.909)" fill="#fafafa"/>
          <path id="Path_278" data-name="Path 278" d="M323.266,315.2l.013-3.031h.534l-.013,3.008c-.005,1.255.555,1.831,1.538,1.836s1.555-.567,1.561-1.822l.013-3.008h.52l-.012,3.032c-.006,1.519-.79,2.3-2.083,2.3s-2.077-.8-2.071-2.314" transform="translate(-28.908 -27.915)" fill="#fafafa"/>
          <path id="Path_279" data-name="Path 279" d="M333.564,314.03c-.005,1.126-.789,1.8-2.073,1.8l-1.359-.006-.006,1.671h-.535l.022-5.291,1.893.008c1.285.006,2.063.69,2.059,1.824m-.535,0c0-.847-.529-1.332-1.539-1.338l-1.345-.006-.012,2.646,1.345.006c1.01,0,1.547-.477,1.551-1.309" transform="translate(-29.473 -27.918)" fill="#fafafa"/>
          <rect id="Rectangle_4206" data-name="Rectangle 4206" width="4.296" height="23.417" transform="matrix(0.005, -1, 1, 0.005, 245.27, 146.964)" fill="#e0e0e0"/>
          <path id="Path_280" data-name="Path 280" d="M361.437,184.185a2.078,2.078,0,0,0,.534-.126,1.44,1.44,0,0,0,.882-1.225c0-1.452-.007-3.563-.013-6.274v-5.806a1.75,1.75,0,0,0-.255-1.194,1.346,1.346,0,0,0-1.077-.555h-1.426l-13.153-.026-76.16-.282a1.232,1.232,0,0,0-1,.507,1.756,1.756,0,0,0-.236,1.19q-.007,1.386-.013,2.764-.011,2.754-.024,5.471,0,1.359-.013,2.706a7.973,7.973,0,0,0,.038,1.28,1.233,1.233,0,0,0,.711.821,1.371,1.371,0,0,0,.563.1h.666l1.329.006,2.641.013,20.222.107,34.24.209,23.083.182,6.276.074,1.632.031c.368.01.556.027.556.027s-.189.015-.556.021l-1.632.016-6.277.015-23.083-.031-34.24-.107-20.221-.08-2.642-.011L271.456,184h-.667a1.847,1.847,0,0,1-.743-.133,1.7,1.7,0,0,1-.983-1.134,2.649,2.649,0,0,1-.056-.728v-.673q0-1.348.011-2.706.011-2.717.022-5.471,0-1.378.012-2.764a6.166,6.166,0,0,1,.023-.728,1.675,1.675,0,0,1,.3-.739,1.707,1.707,0,0,1,1.389-.7l76.16.422,13.154.1,1.426.012a1.592,1.592,0,0,1,1.275.667,1.984,1.984,0,0,1,.291,1.338q0,.647-.01,1.269c-.015,1.657-.028,3.172-.04,4.536-.034,2.713-.059,4.827-.077,6.28a1.486,1.486,0,0,1-.961,1.263,1.1,1.1,0,0,1-.551.08" transform="translate(-24.056 -15.043)" fill="#e0e0e0"/>
          <rect id="Rectangle_4207" data-name="Rectangle 4207" width="4.017" height="42.836" transform="translate(251.555 163.211) rotate(-89.736)" fill="#e0e0e0"/>
          <rect id="Rectangle_4208" data-name="Rectangle 4208" width="4.297" height="23.417" transform="matrix(0.005, -1, 1, 0.005, 245.104, 186.176)" fill="#e0e0e0"/>
          <path id="Path_281" data-name="Path 281" d="M360.819,227.247a3.831,3.831,0,0,0,.54-.1,1.888,1.888,0,0,0,1.153-1.032,2.464,2.464,0,0,0,.157-1.155q0-.664-.005-1.447c0-1.048,0-2.254-.007-3.61s0-2.869,0-4.52v-1.266a1.977,1.977,0,0,0-.265-1.2,1.792,1.792,0,0,0-.99-.768,5.65,5.65,0,0,0-1.376-.078l-13.109-.026-75.9-.281a1.674,1.674,0,0,0-1.663,1.466c-.027.866-.015,1.823-.024,2.726q-.012,2.744-.024,5.452,0,1.354-.012,2.7a5.627,5.627,0,0,0,.057,1.271,1.678,1.678,0,0,0,.665.933,1.8,1.8,0,0,0,1.132.291l1.325.006,2.632.014,20.152.107,34.121.209,23,.181,6.254.074,1.627.031c.366.01.554.027.554.027s-.188.015-.555.021l-1.627.016-6.254.016-23-.032-34.122-.107-20.151-.079-2.632-.011-1.324-.005a2.285,2.285,0,0,1-1.4-.372,2.151,2.151,0,0,1-.852-1.2,5.8,5.8,0,0,1-.075-1.4q0-1.343.01-2.7.011-2.707.022-5.453c.011-.926-.007-1.807.026-2.78a2.148,2.148,0,0,1,2.135-1.883l75.9.42,13.108.1a5.694,5.694,0,0,1,1.451.1,2.037,2.037,0,0,1,1.124.883,2.221,2.221,0,0,1,.291,1.331q0,.646-.009,1.266c-.015,1.651-.029,3.161-.04,4.52s-.027,2.561-.037,3.61q-.009.783-.017,1.447a2.551,2.551,0,0,1-.188,1.193,1.923,1.923,0,0,1-1.228,1.039,1.461,1.461,0,0,1-.553.056" transform="translate(-24.039 -18.894)" fill="#e0e0e0"/>
          <rect id="Rectangle_4209" data-name="Rectangle 4209" width="4.297" height="23.417" transform="translate(244.931 227.074) rotate(-89.737)" fill="#e0e0e0"/>
          <path id="Path_282" data-name="Path 282" d="M360.628,272.16a3.834,3.834,0,0,0,.54-.1,1.888,1.888,0,0,0,1.153-1.033,2.465,2.465,0,0,0,.158-1.155q0-.664,0-1.447c0-1.048,0-2.254-.005-3.609s0-2.87,0-4.521v-1.267a1.984,1.984,0,0,0-.266-1.2,1.8,1.8,0,0,0-.99-.768,5.656,5.656,0,0,0-1.377-.078l-13.108-.026-75.9-.281a1.674,1.674,0,0,0-1.663,1.466c-.027.866-.015,1.822-.024,2.726q-.012,2.743-.024,5.452-.007,1.354-.012,2.7a5.679,5.679,0,0,0,.056,1.27,1.685,1.685,0,0,0,.665.934,1.8,1.8,0,0,0,1.133.291l1.324.006,2.632.014,20.151.107,34.121.209,23,.181,6.254.074,1.627.032c.366.009.554.026.554.026s-.188.015-.554.021l-1.627.016-6.255.016-23-.032-34.121-.107L274.918,272l-2.632-.011-1.325-.005a2.287,2.287,0,0,1-1.394-.372,2.16,2.16,0,0,1-.853-1.2,5.845,5.845,0,0,1-.075-1.4q0-1.343.011-2.7.011-2.707.022-5.453c.01-.927-.007-1.807.026-2.78a2.148,2.148,0,0,1,2.135-1.883l75.9.42,13.108.1a5.654,5.654,0,0,1,1.451.1,2.044,2.044,0,0,1,1.124.883,2.222,2.222,0,0,1,.291,1.331q0,.646-.01,1.266c-.015,1.651-.028,3.161-.039,4.52s-.027,2.561-.037,3.609q-.01.783-.018,1.446a2.547,2.547,0,0,1-.188,1.2,1.917,1.917,0,0,1-1.227,1.038,1.488,1.488,0,0,1-.554.056" transform="translate(-24.022 -22.911)" fill="#e0e0e0"/>
          <rect id="Rectangle_4210" data-name="Rectangle 4210" width="4.017" height="42.837" transform="translate(251.389 202.424) rotate(-89.736)" fill="#e0e0e0"/>
          <path id="Path_283" data-name="Path 283" d="M280,265.367a1.877,1.877,0,1,1-1.865-2.006A1.939,1.939,0,0,1,280,265.367" transform="translate(-24.704 -23.551)" fill="#e0e0e0"/>
          <path id="Path_284" data-name="Path 284" d="M286.375,265.4a1.876,1.876,0,1,1-1.864-2.006,1.938,1.938,0,0,1,1.864,2.006" transform="translate(-25.274 -23.553)" fill="#e0e0e0"/>
          <path id="Path_285" data-name="Path 285" d="M292.748,265.426a1.876,1.876,0,1,1-1.864-2.006,1.937,1.937,0,0,1,1.864,2.006" transform="translate(-25.844 -23.556)" fill="#e0e0e0"/>
          <path id="Path_286" data-name="Path 286" d="M299.121,265.455a1.877,1.877,0,1,1-1.864-2.006,1.937,1.937,0,0,1,1.864,2.006" transform="translate(-26.414 -23.559)" fill="#e0e0e0"/>
          <path id="Path_287" data-name="Path 287" d="M305.494,265.484a1.877,1.877,0,1,1-1.864-2.006,1.937,1.937,0,0,1,1.864,2.006" transform="translate(-26.984 -23.561)" fill="#e0e0e0"/>
          <path id="Path_288" data-name="Path 288" d="M311.867,265.513A1.877,1.877,0,1,1,310,263.507a1.937,1.937,0,0,1,1.865,2.006" transform="translate(-27.554 -23.564)" fill="#e0e0e0"/>
          <path id="Path_289" data-name="Path 289" d="M318.24,265.543a1.876,1.876,0,1,1-1.865-2,1.94,1.94,0,0,1,1.865,2" transform="translate(-28.123 -23.567)" fill="#e0e0e0"/>
          <path id="Path_290" data-name="Path 290" d="M324.612,265.572a1.876,1.876,0,1,1-1.864-2.005,1.938,1.938,0,0,1,1.864,2" transform="translate(-28.693 -23.569)" fill="#e0e0e0"/>
          <path id="Path_291" data-name="Path 291" d="M330.985,265.6a1.876,1.876,0,1,1-1.864-2.006,1.938,1.938,0,0,1,1.864,2.006" transform="translate(-29.263 -23.572)" fill="#e0e0e0"/>
          <path id="Path_292" data-name="Path 292" d="M321.588,120.764a3.53,3.53,0,0,0,2.1-3.266,3.319,3.319,0,1,0-6.624-.031,3.525,3.525,0,0,0,2.11,3.3c-5.1.768-4.864,6.307-4.864,6.307l12.051.056s.275-5.6-4.777-6.362" transform="translate(-28.107 -10.19)" fill="#e0e0e0"/>
          <rect id="Rectangle_4211" data-name="Rectangle 4211" width="5.138" height="42.972" transform="matrix(0.005, -1, 1, 0.005, 270.068, 125.501)" fill="#e0e0e0"/>
          <path id="Path_293" data-name="Path 293" d="M129.4,29.941a33.139,33.139,0,0,1,6.29,6.159l8.026-1.466,5.3,12.416L142.4,51.83a33.048,33.048,0,0,1,.1,8.8l6.71,4.637-5.035,12.525-8.05-1.292a33.01,33.01,0,0,1-6.159,6.286l1.465,8.027-12.414,5.3-4.782-6.61a33.084,33.084,0,0,1-8.8.1l-4.636,6.71L88.271,91.274l1.293-8.053a33.031,33.031,0,0,1-6.286-6.158L75.25,78.528l-5.3-12.416,6.613-4.781a33.116,33.116,0,0,1-.1-8.8l-6.7-4.637,5.033-12.526,8.051,1.293A33.041,33.041,0,0,1,89,30.374l-1.465-8.027,12.414-5.3,4.782,6.612a33.046,33.046,0,0,1,8.8-.1l4.636-6.709L130.7,21.889ZM115.452,43.373a14.481,14.481,0,1,0,8.038,18.835,14.481,14.481,0,0,0-8.038-18.835" transform="translate(-6.238 -1.507)" fill="#e0e0e0" fill-rule="evenodd"/>
          <path id="Path_294" data-name="Path 294" d="M151.055,77.313l-18.023-.083a4.471,4.471,0,0,0-4.4,4.542l-.015,3.26a4.47,4.47,0,0,1-4.4,4.543L89.1,89.413a4.474,4.474,0,0,1-4.357-4.583l.015-3.26A4.474,4.474,0,0,0,80.4,76.988l-6.339-.03-15.774-.072A14.161,14.161,0,0,0,44.038,90.968L43.076,317.8A14.161,14.161,0,0,0,57.192,332l92.77.427a14.162,14.162,0,0,0,14.246-14.081l.961-226.834a14.158,14.158,0,0,0-14.114-14.2" transform="translate(-3.852 -6.875)" fill="#fafafa"/>
          <rect id="Rectangle_4212" data-name="Rectangle 4212" width="91.796" height="6.141" transform="translate(53.889 224.782)" fill="#e0e0e0"/>
          <path id="Path_295" data-name="Path 295" d="M147.8,273.369c0,.221-19.594.4-43.758.4s-43.762-.179-43.762-.4,19.588-.4,43.762-.4,43.758.179,43.758.4" transform="translate(-5.391 -24.41)" fill="#e0e0e0"/>
          <path id="Path_296" data-name="Path 296" d="M147.8,113.412c0,.222-19.594.4-43.758.4s-43.762-.178-43.762-.4,19.588-.4,43.762-.4,43.758.178,43.758.4" transform="translate(-5.391 -10.106)" fill="#e0e0e0"/>
          <path id="Path_297" data-name="Path 297" d="M147.8,285.644c0,.222-19.594.4-43.758.4s-43.762-.179-43.762-.4,19.588-.4,43.762-.4,43.758.178,43.758.4" transform="translate(-5.391 -25.508)" fill="#e0e0e0"/>
          <path id="Path_298" data-name="Path 298" d="M147.8,297.921c0,.221-19.594.4-43.758.4s-43.762-.179-43.762-.4,19.588-.4,43.762-.4,43.758.179,43.758.4" transform="translate(-5.391 -26.605)" fill="#e0e0e0"/>
          <path id="Path_299" data-name="Path 299" d="M147.8,310.2c0,.221-19.594.4-43.758.4s-43.762-.18-43.762-.4,19.588-.4,43.762-.4,43.758.18,43.758.4" transform="translate(-5.391 -27.703)" fill="#e0e0e0"/>
          <path id="Path_300" data-name="Path 300" d="M147.8,322.472c0,.223-19.594.4-43.758.4s-43.762-.178-43.762-.4,19.588-.4,43.762-.4,43.758.178,43.758.4" transform="translate(-5.391 -28.801)" fill="#e0e0e0"/>
          <path id="Path_301" data-name="Path 301" d="M149.176,336.391c0,.221-19.594.4-43.758.4s-43.762-.18-43.762-.4,19.59-.4,43.762-.4,43.758.18,43.758.4" transform="translate(-5.514 -30.046)" fill="#e0e0e0"/>
          <rect id="Rectangle_4213" data-name="Rectangle 4213" width="92.027" height="89.035" transform="translate(54.89 116.052)" fill="#ebebeb"/>
          <path id="Path_302" data-name="Path 302" d="M68.117,212.359l25.458-45.817L114.4,195.827l12.652-15.551,18.824,32.083Z" transform="translate(-6.091 -14.893)" fill="#e0e0e0"/>
          <path id="Path_303" data-name="Path 303" d="M127.382,156.107a6.623,6.623,0,1,1-6.623-6.623,6.623,6.623,0,0,1,6.623,6.623" transform="translate(-10.207 -13.368)" fill="#e0e0e0"/>
          <path id="Path_304" data-name="Path 304" d="M145.821,209.791a2.774,2.774,0,0,1-.022-.366c0-.266-.012-.6-.02-1.038q-.018-1.421-.045-4.007c-.022-3.53-.056-8.637-.1-15.12-.046-13-.112-31.524-.192-53.759l.377.375-77.749.063c-.106.092.822-.824.43-.426V155.5c0,6.542-.007,12.949-.011,19.186-.015,12.469-.03,24.258-.042,35.1l-.382-.382,56.221.2,15.855.1,4.207.045,1.091.021a2.676,2.676,0,0,1,.383.023,1.886,1.886,0,0,1-.34.021l-1.05.022-4.131.045-15.77.1-56.466.194h-.382v-.384c-.013-10.845-.027-22.634-.043-35.1,0-6.237-.007-12.643-.01-19.186V135.514c-.39.385.533-.549.447-.451l77.749.062h.377v.377c-.08,22.334-.147,40.935-.192,54-.041,6.447-.076,11.525-.1,15.036q-.029,2.538-.045,3.934c-.008.415-.014.741-.02,1a1.72,1.72,0,0,1-.021.323" transform="translate(-6.039 -12.077)" fill="#e0e0e0"/>
          <path id="Path_305" data-name="Path 305" d="M370.054,28.1H269.631a3.58,3.58,0,0,1-3.579-3.58V3.58A3.58,3.58,0,0,1,269.631,0H370.054a3.581,3.581,0,0,1,3.58,3.58V24.517a3.581,3.581,0,0,1-3.58,3.58" transform="translate(-23.792)" fill="#e0e0e0"/>
          <path id="Path_306" data-name="Path 306" d="M284.2,15.688a3.531,3.531,0,0,0,2.1-3.266,3.319,3.319,0,1,0-6.624-.031,3.525,3.525,0,0,0,2.111,3.3A5.3,5.3,0,0,0,277.3,19.54a7.506,7.506,0,0,0,4.6,2.477l2.041.009a7.5,7.5,0,0,0,4.666-2.5,5.214,5.214,0,0,0-4.407-3.843" transform="translate(-24.798 -0.794)" fill="#fafafa"/>
          <rect id="Rectangle_4214" data-name="Rectangle 4214" width="26.484" height="1.986" transform="translate(272.683 7.305)" fill="#fafafa"/>
          <rect id="Rectangle_4215" data-name="Rectangle 4215" width="46.402" height="1.986" transform="translate(272.683 18.53)" fill="#fafafa"/>
          <rect id="Rectangle_4216" data-name="Rectangle 4216" width="67.246" height="1.986" transform="translate(272.683 12.781)" fill="#fafafa"/>
        </g>
      </g>
      <g id="Group_1507" data-name="Group 1507">
        <g id="Group_1506" data-name="Group 1506" clip-path="url(#clip-path)">
          <path id="Path_307" data-name="Path 307" d="M371.581,368.075c0,.131-83.188.238-185.782.238-102.629,0-185.8-.107-185.8-.238s83.17-.237,185.8-.237c102.594,0,185.782.106,185.782.237" transform="translate(0 -32.894)" fill="#263238"/>
        </g>
      </g>
      <g id="Group_1512" data-name="Group 1512">
        <g id="Group_1511" data-name="Group 1511" clip-path="url(#clip-path)">
          <path id="Path_308" data-name="Path 308" d="M379.718,344.687c-.612-2.428.992-4.853,2.783-6.6s3.931-3.313,4.872-5.633c1.523-3.759-.468-8.649,2.113-11.777,1.518-1.84,4.225-2.444,5.575-4.412a10.1,10.1,0,0,0,1.224-3.523A35.861,35.861,0,0,1,405.3,296.1a31.112,31.112,0,0,1-3.59,16.062c-1.049,1.971-2.334,3.89-2.691,6.094-.578,3.579,1.4,7.28.5,10.791-1.029,4.017-5.562,6.683-5.8,10.821-.2,3.5,2.833,6.589,2.585,10.086a9.429,9.429,0,0,1-1.581,4.141c-2.732,4.485-6.725,7.561-12.751,7.426l-7.382.217Z" transform="translate(-33.497 -26.479)" fill="#1f4790"/>
          <g id="Group_1510" data-name="Group 1510" transform="translate(341.089 269.625)" opacity="0.3">
            <g id="Group_1509" data-name="Group 1509">
              <g id="Group_1508" data-name="Group 1508" clip-path="url(#clip-path-4)">
                <path id="Path_309" data-name="Path 309" d="M379.718,344.687c-.612-2.428.992-4.853,2.783-6.6s3.931-3.313,4.872-5.633c1.523-3.759-.468-8.649,2.113-11.777,1.518-1.84,4.225-2.444,5.575-4.412a10.1,10.1,0,0,0,1.224-3.523A35.861,35.861,0,0,1,405.3,296.1a31.112,31.112,0,0,1-3.59,16.062c-1.049,1.971-2.334,3.89-2.691,6.094-.578,3.579,1.4,7.28.5,10.791-1.029,4.017-5.562,6.683-5.8,10.821-.2,3.5,2.833,6.589,2.585,10.086a9.429,9.429,0,0,1-1.581,4.141c-2.732,4.485-6.725,7.561-12.751,7.426l-7.382.217Z" transform="translate(-374.586 -296.104)"/>
              </g>
            </g>
          </g>
          <path id="Path_310" data-name="Path 310" d="M370.456,359.4a5.907,5.907,0,0,1-2.032-.056,12.321,12.321,0,0,1-2.395-.617,10.176,10.176,0,0,1-2.953-1.639,4.121,4.121,0,0,1-1.209-1.631,7.651,7.651,0,0,1-.335-2.207,21.249,21.249,0,0,0-.158-2.388,6.571,6.571,0,0,0-.889-2.378c-.861-1.534-2.3-2.989-2.754-5.068a16.737,16.737,0,0,1,.238-6.468c.355-2.212.7-4.624-.133-6.935-.779-2.313-2.385-4.406-3.18-7.013-.791-2.633-.4-5.458-.554-8.247a10.937,10.937,0,0,0-.939-4.1c-.589-1.31-1.411-2.547-2.05-3.926-1.294-2.788-1.508-5.941-1.848-9.031q-.249-2.336-.5-4.72a23.116,23.116,0,0,0-.793-4.725,41.639,41.639,0,0,0-1.74-4.577,15.162,15.162,0,0,1-.843-2.391,24,24,0,0,1-.223-2.54,29.857,29.857,0,0,1,.225-5.108c.21-1.7.527-3.389.72-5.095l.035-.294.04-.34.3.153a11.408,11.408,0,0,1,3.955,3.375,18.1,18.1,0,0,1,2.416,4.513,55.374,55.374,0,0,1,2.243,9.679,26.274,26.274,0,0,0,2.982,8.945c.8,1.318,1.774,2.524,2.622,3.812a10.431,10.431,0,0,1,1.807,4.217c.419,3.125-1.317,5.858-.974,8.624a9.579,9.579,0,0,0,1.325,3.838c.664,1.183,1.445,2.281,2.186,3.385a21.748,21.748,0,0,1,1.962,3.416,10.806,10.806,0,0,1,.885,3.7c.167,2.49-.2,4.85-.031,7.08a16.293,16.293,0,0,0,1.788,6.077c.882,1.82,1.866,3.468,2.689,5.066a25.858,25.858,0,0,1,1.1,2.358,11.521,11.521,0,0,1,.635,2.336,14.717,14.717,0,0,1,.031,4.213,10.612,10.612,0,0,1-2.143,5.361,5.073,5.073,0,0,1-.6.644,2.925,2.925,0,0,1-.487.409c-.276.2-.423.293-.423.293a9.34,9.34,0,0,0,1.434-1.41,10.684,10.684,0,0,0,2.034-5.325,14.653,14.653,0,0,0-.07-4.152,11.453,11.453,0,0,0-.64-2.283c-.31-.763-.7-1.538-1.113-2.327-.83-1.583-1.824-3.224-2.725-5.056a16.557,16.557,0,0,1-1.85-6.184c-.181-2.277.175-4.645,0-7.077a10.4,10.4,0,0,0-.87-3.581,21.345,21.345,0,0,0-1.94-3.348c-.74-1.1-1.531-2.2-2.214-3.406a9.982,9.982,0,0,1-1.386-4c-.339-2.948,1.384-5.7.957-8.6a10.016,10.016,0,0,0-1.746-4.033c-.836-1.264-1.813-2.47-2.638-3.823a26.675,26.675,0,0,1-3.052-9.093,55.164,55.164,0,0,0-2.228-9.6,17.629,17.629,0,0,0-2.352-4.393,10.939,10.939,0,0,0-3.788-3.237l.342-.187c-.011.094-.024.2-.036.3-.2,1.726-.513,3.416-.721,5.1a29.525,29.525,0,0,0-.224,5.031,24.043,24.043,0,0,0,.213,2.463,14.843,14.843,0,0,0,.815,2.306,41.837,41.837,0,0,1,1.753,4.628,23.465,23.465,0,0,1,.8,4.8q.251,2.385.5,4.723c.334,3.1.548,6.206,1.8,8.9.616,1.339,1.436,2.581,2.042,3.933a11.348,11.348,0,0,1,.965,4.255c.145,2.849-.241,5.632.514,8.16s2.349,4.619,3.15,7.006c.857,2.411.482,4.9.117,7.106a16.494,16.494,0,0,0-.275,6.347c.415,1.985,1.81,3.426,2.69,5a6.841,6.841,0,0,1,.9,2.474,21.253,21.253,0,0,1,.141,2.417,7.5,7.5,0,0,0,.3,2.147,3.944,3.944,0,0,0,1.135,1.56,10.114,10.114,0,0,0,2.883,1.647,12.654,12.654,0,0,0,2.36.655,9.43,9.43,0,0,0,1.5.154c.34-.01.516,0,.516,0" transform="translate(-30.864 -23.957)" fill="#263238"/>
          <path id="Path_311" data-name="Path 311" d="M347.874,272.753a.835.835,0,0,1,.07.223c.043.178.1.4.159.666.141.582.31,1.462.582,2.559s.946,2.337,1.511,3.864c.586,1.515,1.18,3.273,1.725,5.245s1.038,4.16,1.546,6.505a27.407,27.407,0,0,0,2.322,7.222c.6,1.2,1.273,2.419,1.806,3.75a17.385,17.385,0,0,1,1.039,4.242,85.648,85.648,0,0,0,1.541,8.939l4.077,17.079,3.418,13.93c.95,3.94,1.721,7.143,2.266,9.4l.592,2.561c.058.271.1.491.143.669a.911.911,0,0,1,.033.231.8.8,0,0,1-.08-.219l-.189-.658-.678-2.54c-.579-2.25-1.4-5.439-2.411-9.364l-3.518-13.9-4.116-17.083a84.59,84.59,0,0,1-1.537-8.975,17.014,17.014,0,0,0-1-4.139c-.514-1.3-1.178-2.508-1.777-3.723a27.543,27.543,0,0,1-2.315-7.333c-.492-2.351-.957-4.533-1.485-6.5s-1.089-3.722-1.65-5.24c-.535-1.522-1.175-2.778-1.44-3.91-.249-1.125-.385-1.994-.5-2.587l-.113-.675a.864.864,0,0,1-.023-.233" transform="translate(-31.108 -24.391)" fill="#263238"/>
          <path id="Path_312" data-name="Path 312" d="M371.019,357.151c-4.8-2.893-6.139-11.6-4.1-16.823s5.588-9.988,6.163-15.567c.442-4.289-.939-8.7.085-12.888,1.38-5.653,6.931-10.005,6.9-15.824-.017-3.264-1.858-6.347-1.691-9.608.2-4,3.293-7.155,5.214-10.668,2.942-5.377,3.17-11.754,4.2-17.8s3.372-12.507,8.749-15.449c.762,5.139,2.093,8.664,1.63,15.617-.167,2.5-3.1,7.263-3.522,12.735-.254,3.272-.437,6.547-.655,9.821a31.511,31.511,0,0,1-1.6,9.4c-.888,2.28-2.306,4.347-2.969,6.7-1.248,4.431.331,9.246-.682,13.737-.858,3.8-3.513,7.067-4.073,10.926-.788,5.422,2.693,11.081.865,16.247-.907,2.563-3.031,4.614-3.646,7.263-.477,2.055.018,4.236-.415,6.3-.7,3.326-7.064,5.877-10.456,5.652" transform="translate(-32.729 -21.688)" fill="#1f4790"/>
          <path id="Path_313" data-name="Path 313" d="M395.675,248.119a1.332,1.332,0,0,1-.023.29c-.029.216-.066.494-.113.843-.116.741-.246,1.829-.5,3.236-.278,1.414-1.015,3-1.61,4.923-.626,1.912-1.25,4.119-1.806,6.592s-1.04,5.206-1.54,8.15a34.186,34.186,0,0,1-2.524,9.21c-.685,1.537-1.452,3.075-2.031,4.715a21.214,21.214,0,0,0-1.046,5.2A105.364,105.364,0,0,1,383,302.5l-4.285,21.426-3.688,17.451c-1.061,4.941-1.922,8.949-2.526,11.756-.3,1.361-.541,2.43-.71,3.192-.081.343-.147.616-.2.827a1.264,1.264,0,0,1-.083.279,1.416,1.416,0,0,1,.035-.288c.038-.214.088-.49.15-.838.148-.765.358-1.84.624-3.209.568-2.816,1.379-6.834,2.378-11.787,1.024-4.983,2.239-10.9,3.588-17.472l4.246-21.419a106.288,106.288,0,0,0,1.482-11.186,21.6,21.6,0,0,1,1.082-5.308c.6-1.675,1.374-3.22,2.06-4.744a34.084,34.084,0,0,0,2.535-9.1c.516-2.938,1.013-5.681,1.6-8.156s1.228-4.689,1.881-6.6c.624-1.925,1.384-3.5,1.681-4.879s.445-2.48.59-3.212l.16-.835a1.318,1.318,0,0,1,.07-.282" transform="translate(-33.222 -22.188)" fill="#263238"/>
        </g>
      </g>
      <g id="Group_1514" data-name="Group 1514">
        <g id="Group_1513" data-name="Group 1513" clip-path="url(#clip-path)">
          <path id="Path_314" data-name="Path 314" d="M187.546,22.757a6.256,6.256,0,0,1,1.83.917,8.231,8.231,0,0,1,3.21,4.516,8.336,8.336,0,0,1,.172,3.885,8.46,8.46,0,1,1-15.418-6.2,8.324,8.324,0,0,1,2.813-2.685,8.222,8.222,0,0,1,5.441-1.039,6.227,6.227,0,0,1,1.956.6c-.018.056-.69-.258-1.98-.421a8.237,8.237,0,0,0-5.245,1.144,8.056,8.056,0,1,0,11.946,4.8,8.243,8.243,0,0,0-2.995-4.455c-1.045-.775-1.747-1.013-1.722-1.066" transform="translate(-15.737 -1.972)" fill="#263238"/>
          <path id="Path_315" data-name="Path 315" d="M194.056,13.66a1.726,1.726,0,0,1,.029-.289c.029-.215.069-.5.121-.873q.179-1.2.512-3.446l.046.082L187.6,6.3l.144-.043-2.63,3.839-.047.069-.085-.01a18.81,18.81,0,0,0-4.983.071l-.093.014-.056-.076L177.113,6.4l.2.056L170.239,9.5l.11-.206c.261,1.418.55,2.978.845,4.579l.022.117-.094.073a18.715,18.715,0,0,0-3.471,3.556l-.074.1-.123-.02-4.6-.731.229-.13c-.9,2.246-1.869,4.669-2.863,7.152l-.079-.264,3.831,2.642.112.077-.016.136a18.768,18.768,0,0,0,.058,4.961l.02.137-.113.082-3.771,2.731.077-.28,3.026,7.083-.259-.139,4.58-.837.141-.026.088.114a18.675,18.675,0,0,0,3.538,3.467h0c.041.1-.091-.228.093.228v.032l-.006.036-.011.072-.024.145-.046.29-.093.577-.185,1.153q-.186,1.15-.369,2.291l-.146-.258,7.148,2.874-.28.084,2.647-3.827.08-.116.14.017a18.71,18.71,0,0,0,4.96-.051l.138-.02.082.113,2.725,3.774-.271-.076,7.087-3.016-.129.239q-.423-2.332-.83-4.581l-.024-.127.1-.078a18.7,18.7,0,0,0,3.481-3.542l.075-.1.122.02,4.593.746-.214.121c1.016-2.512,1.975-4.884,2.887-7.142l.065.217-3.822-2.655-.085-.059.013-.1a18.779,18.779,0,0,0-.041-4.979l-.014-.094.077-.055,3.782-2.716-.047.168c-1.159-2.749-2.146-5.092-2.991-7.1l.117.063-4.586.807-.046.008-.028-.036A19.531,19.531,0,0,0,195,14.468l-.712-.6a1.977,1.977,0,0,1-.234-.2,2.316,2.316,0,0,1,.259.172c.167.122.417.309.738.576a18.161,18.161,0,0,1,2.65,2.718l-.074-.028,4.575-.865.083-.016.034.079,3.055,7.071.044.1-.091.066-3.763,2.741.063-.148A19.029,19.029,0,0,1,201.7,31.2l-.073-.16,3.835,2.636.119.082-.054.136-2.858,7.153-.058.147-.156-.025-4.6-.73.2-.08A19.061,19.061,0,0,1,194.5,43.99l.078-.206.842,4.579.031.171-.16.069-7.081,3.029-.166.071-.107-.146-2.732-3.771.219.093a19.132,19.132,0,0,1-5.083.058l.219-.1-2.643,3.831-.107.154-.174-.07-7.14-2.874-.176-.071.03-.187q.183-1.141.368-2.291l.185-1.152L171,44.6l.046-.289.023-.145.012-.073.005-.036v-.032a2.288,2.288,0,1,1,.091.227h0a19.111,19.111,0,0,1-3.628-3.557l.229.087-4.58.835-.186.035-.074-.174-3.02-7.085-.073-.171.15-.109,3.775-2.725-.093.219a19.246,19.246,0,0,1-.052-5.082l.1.213-3.825-2.65-.145-.1.066-.163c1-2.48,1.976-4.9,2.88-7.144l.064-.157.167.026,4.593.746-.2.079a19.054,19.054,0,0,1,3.558-3.62l-.072.189c-.29-1.6-.571-3.163-.828-4.582l-.026-.148.138-.057,7.091-3.008.125-.053.078.109,2.711,3.78-.148-.063a19.076,19.076,0,0,1,5.061-.039l-.131.059,2.662-3.817.055-.08.089.036,7.13,2.913.057.024-.011.059c-.254,1.475-.45,2.612-.585,3.4-.068.374-.121.663-.16.879a2.252,2.252,0,0,1-.066.3" transform="translate(-14.286 -0.541)" fill="#263238"/>
          <path id="Path_316" data-name="Path 316" d="M309.6,210.453a23.907,23.907,0,0,1,4.537,4.444l5.793-1.057,3.824,8.961-4.771,3.451a23.862,23.862,0,0,1,.07,6.351l4.842,3.347-3.633,9.04-5.811-.933a23.838,23.838,0,0,1-4.445,4.537l1.057,5.793-8.959,3.824-3.452-4.771a23.911,23.911,0,0,1-6.352.068l-3.345,4.843-9.042-3.632.934-5.812a23.838,23.838,0,0,1-4.537-4.445l-5.794,1.058-3.823-8.961,4.772-3.451a23.9,23.9,0,0,1-.07-6.351l-4.842-3.347,3.632-9.04,5.815.93a23.834,23.834,0,0,1,4.445-4.537l-1.058-5.793,8.96-3.824,3.452,4.772a23.865,23.865,0,0,1,6.351-.07l3.346-4.842,9.04,3.632Zm-10.07,9.694a10.452,10.452,0,1,0,5.8,13.6,10.452,10.452,0,0,0-5.8-13.6" transform="translate(-23.836 -17.975)" fill="#fafafa" fill-rule="evenodd"/>
          <path id="Path_317" data-name="Path 317" d="M301.342,221.942a8.179,8.179,0,0,1,2.3,1.18,10.535,10.535,0,0,1,4.241,10.594,10.649,10.649,0,1,1-19.41-7.8,10.51,10.51,0,0,1,3.536-3.386,10.4,10.4,0,0,1,6.857-1.328,8.167,8.167,0,0,1,2.477.739,21.038,21.038,0,0,0-2.5-.556,10.415,10.415,0,0,0-6.659,1.433,10.239,10.239,0,1,0,15.168,6.092,10.41,10.41,0,0,0-3.816-5.643,21.084,21.084,0,0,0-2.192-1.329" transform="translate(-25.645 -19.77)" fill="#263238"/>
          <path id="Path_318" data-name="Path 318" d="M309.577,210.438s.008-.121.042-.367c.037-.264.09-.629.158-1.1.151-1,.371-2.456.657-4.352l.046.082-9.057-3.59.144-.044-3.331,4.853-.047.069-.085-.01a23.829,23.829,0,0,0-6.312.086l-.093.014-.056-.077c-1.079-1.484-2.247-3.091-3.462-4.764l.2.056-8.953,3.841.11-.206c.33,1.793.694,3.768,1.066,5.792l.022.117-.094.073a23.73,23.73,0,0,0-4.4,4.506l-.074.1-.123-.02-5.812-.926.23-.13-3.624,9.044-.079-.264,4.844,3.344.112.077-.016.136a23.822,23.822,0,0,0,.074,6.29l.02.137-.113.082-4.771,3.453.077-.28,3.827,8.96-.259-.139,5.794-1.059.141-.025.088.113a23.676,23.676,0,0,0,4.487,4.4h0l.115.087-.023.141-.934,5.811-.145-.257,9.04,3.634-.28.084q1.691-2.443,3.348-4.841l.08-.116.139.017a23.67,23.67,0,0,0,6.29-.066l.138-.02.081.113,3.448,4.773-.271-.075,8.963-3.817-.129.24-1.052-5.795-.023-.127.1-.079a23.68,23.68,0,0,0,4.412-4.492l.075-.1.122.02,5.81.941-.214.121,3.648-9.034.066.217-4.836-3.355-.086-.059.013-.1a23.749,23.749,0,0,0-.056-6.308l-.013-.094.076-.056,4.781-3.437-.046.168-3.793-8.975.117.063-5.8,1.028-.046.008-.028-.036a24.554,24.554,0,0,0-3.273-3.477c-.4-.348-.7-.594-.9-.761l-.3-.252s.117.073.324.221.525.393.931.733a23.215,23.215,0,0,1,3.342,3.443l-.074-.028,5.788-1.087.083-.015.035.078,3.854,8.948.045.1-.091.066-4.762,3.464.063-.148a24.037,24.037,0,0,1,.085,6.394l-.072-.16,4.849,3.337.119.082-.054.136-3.619,9.046-.058.146-.157-.025-5.812-.925.2-.08a24.023,24.023,0,0,1-4.479,4.582l.078-.206q.523,2.845,1.064,5.792l.031.172-.16.068-8.956,3.831-.166.071-.107-.147q-1.7-2.352-3.455-4.769l.219.093a24.132,24.132,0,0,1-6.413.072l.219-.1-3.345,4.844-.107.154-.174-.07-9.042-3.63-.176-.071.03-.187q.463-2.886.933-5.812l.092.228h0A24.082,24.082,0,0,1,276.1,244.6l.229.087-5.794,1.056-.185.034-.074-.173c-1.315-3.083-2.612-6.125-3.821-8.962l-.073-.171.15-.108,4.774-3.449-.093.219a24.263,24.263,0,0,1-.066-6.411l.1.213-4.839-3.351-.146-.1.066-.164,3.641-9.037.063-.158.167.027,5.81.941-.2.079a24.069,24.069,0,0,1,4.494-4.57l-.072.189c-.366-2.025-.724-4-1.049-5.795l-.026-.148.137-.058,8.967-3.807.125-.053.078.109,3.441,4.78-.148-.063a24.063,24.063,0,0,1,6.391-.054l-.132.059,3.362-4.831.056-.079.088.036,9.024,3.673.056.023-.01.059c-.319,1.877-.564,3.319-.732,4.309-.085.479-.149.846-.2,1.111s-.078.381-.078.381" transform="translate(-23.81 -17.96)" fill="#263238"/>
        </g>
      </g>
      <g id="Group_1516" data-name="Group 1516">
        <g id="Group_1515" data-name="Group 1515" clip-path="url(#clip-path)">
          <path id="Path_319" data-name="Path 319" d="M253.709,338.9,152.7,338.84a22,22,0,0,1-21.989-22.006l.05-253.227a22,22,0,0,1,22.015-22l101.007.06a22,22,0,0,1,21.99,22.007l-.05,253.227a22,22,0,0,1-22.015,22" transform="translate(-11.689 -3.721)" fill="#263238"/>
          <path id="Path_320" data-name="Path 320" d="M254.334,51.506l-19.584-.012a4.865,4.865,0,0,0-4.756,4.969v3.552a4.864,4.864,0,0,1-4.756,4.968l-38.173-.022a4.87,4.87,0,0,1-4.754-4.974V56.435a4.869,4.869,0,0,0-4.755-4.974h-6.888l-17.14-.01a15.41,15.41,0,0,0-15.418,15.4l-.048,247.168a15.411,15.411,0,0,0,15.4,15.413l100.8.058a15.409,15.409,0,0,0,15.418-15.406l.049-247.168a15.41,15.41,0,0,0-15.4-15.412" transform="translate(-12.346 -4.601)" fill="#fff"/>
          <path id="Path_321" data-name="Path 321" d="M176.388,117.514a4.964,4.964,0,0,1,.625.444l1.756,1.356.073.056-.061.071-3.545,4.147-.006-.2,8.233,8.167-.293.005,3.5-3.839.11-.121.143.07a15.2,15.2,0,0,1,3.219,2.1,6.819,6.819,0,0,1,2.3,3.313,3.59,3.59,0,0,1,.1,1.066l-.037.541-.157.519a3.613,3.613,0,0,1-.454.976,4.775,4.775,0,0,1-.613.879,6.467,6.467,0,0,1-3.662,2.24,7.038,7.038,0,0,1-4.274-.461,7.715,7.715,0,0,1-1.813-1.1c-.553-.453-1.005-.948-1.492-1.415l-5.514-5.452c-1.754-1.738-3.422-3.391-4.983-4.94l-1.15-1.142a7.9,7.9,0,0,1-1.055-1.187,3.872,3.872,0,0,1-.676-2.909,5.678,5.678,0,0,1,3.037-3.975,6.111,6.111,0,0,1,3.769-.58,6.032,6.032,0,0,1,2.261.854,5.033,5.033,0,0,1,.507.372c.111.088.165.137.16.143a7.169,7.169,0,0,0-2.956-1.186,5.973,5.973,0,0,0-3.619.633,5.415,5.415,0,0,0-2.83,3.793,3.536,3.536,0,0,0,.647,2.647,7.649,7.649,0,0,0,1.024,1.13l1.158,1.131,5.012,4.907L180.364,136c.484.463.952.97,1.461,1.383a7.266,7.266,0,0,0,1.707,1.036,6.578,6.578,0,0,0,3.986.43,6,6,0,0,0,3.4-2.08,4.388,4.388,0,0,0,.571-.818,3.177,3.177,0,0,0,.412-.878l.141-.46.032-.473a3.172,3.172,0,0,0-.085-.939,6.4,6.4,0,0,0-2.142-3.08,14.891,14.891,0,0,0-3.106-2.047l.253-.051-3.521,3.819-.145.158-.149-.151-8.148-8.251-.1-.1.088-.1,3.629-4.074.011.127-1.7-1.422a4.691,4.691,0,0,1-.569-.515" transform="translate(-14.898 -10.379)" fill="#263238"/>
          <path id="Path_322" data-name="Path 322" d="M194.073,146.23a7.59,7.59,0,0,0,1.471-.288,4.913,4.913,0,0,0,2.979-2.869,4.848,4.848,0,0,0,.309-1.42c.031-.505-.005-1.065,0-1.634q-.023-1.72-.05-3.726c-.033-2.676-.069-5.719-.11-9.081s-.077-7.052-.12-11.007q-.015-1.483-.031-3.018a8.188,8.188,0,0,0-.325-3,4.693,4.693,0,0,0-1.916-2.327,5.026,5.026,0,0,0-3.038-.707l-28.947.259a4.679,4.679,0,0,0-4.643,4.6q.026,3.748.051,7.38c.035,4.842.069,9.512.1,13.963q.022,3.337.044,6.5a11.81,11.81,0,0,0,.207,3.04,4.717,4.717,0,0,0,4.162,3.369c.922.035,1.882,0,2.794,0l5.281-.028,15.94-.056,4.333.008,1.127.015a2.26,2.26,0,0,1,.384.021,2.306,2.306,0,0,1-.383.027l-1.127.033-4.333.08-15.939.208-5.281.058c-.925,0-1.84.042-2.826.009a5.108,5.108,0,0,1-4.522-3.633,5.438,5.438,0,0,1-.219-1.582q-.008-.779-.016-1.569-.031-3.162-.064-6.5c-.041-4.451-.085-9.121-.129-13.963q-.029-3.635-.058-7.392a5.15,5.15,0,0,1,5.11-5.07l28.948-.22a5.452,5.452,0,0,1,3.268.78,5.116,5.116,0,0,1,2.079,2.541,4.882,4.882,0,0,1,.322,1.6c.021.533.012,1.038.018,1.552q.01,1.534.019,3.018c.022,3.956.043,7.641.062,11.008s.028,6.4.04,9.082q.006,2,.011,3.726c-.007.575.023,1.113-.016,1.65a5.044,5.044,0,0,1-.341,1.473,4.974,4.974,0,0,1-3.122,2.892,3.993,3.993,0,0,1-1.5.2" transform="translate(-14.234 -9.542)" fill="#263238"/>
          <path id="Path_323" data-name="Path 323" d="M251.673,145.776l-29.463.243a4.918,4.918,0,0,1-4.959-4.878l-.244-29.463a4.92,4.92,0,0,1,4.879-4.96l29.463-.243a4.919,4.919,0,0,1,4.96,4.879l.243,29.463a4.918,4.918,0,0,1-4.878,4.96" transform="translate(-19.406 -9.521)" fill="#1f4790"/>
          <path id="Path_324" data-name="Path 324" d="M250.859,126.832a22.712,22.712,0,0,0-.527-3.182,13.092,13.092,0,0,0-4.85-7.086,12.85,12.85,0,1,0,4.9,13.458,22.575,22.575,0,0,0,.474-3.19.737.737,0,0,1,.015.213v.627a6.064,6.064,0,0,1-.072,1.017,9.247,9.247,0,0,1-.236,1.375,12.376,12.376,0,0,1-1.392,3.559,13.35,13.35,0,1,1-.112-13.557,12.448,12.448,0,0,1,1.451,3.536,9.349,9.349,0,0,1,.258,1.37,6.1,6.1,0,0,1,.088,1.017c.005.251.01.457.014.627a.722.722,0,0,1-.012.213" transform="translate(-20.062 -10.16)" fill="#fff"/>
          <path id="Path_325" data-name="Path 325" d="M250.917,127.137c0,.131-5.981.287-13.359.348s-13.363,0-13.364-.127,5.98-.287,13.36-.348,13.362,0,13.363.127" transform="translate(-20.048 -11.356)" fill="#fff"/>
          <path id="Path_326" data-name="Path 326" d="M238.893,139.986a2.83,2.83,0,0,1,.234-.539l.749-1.5a21.782,21.782,0,0,0,1.125-2.4,27.494,27.494,0,0,0,1.224-3.284,20.8,20.8,0,0,0,1.027-8.976,15.505,15.505,0,0,0-1.622-5.078,12.6,12.6,0,0,0-3.736-4.282l.271-.016c-.2.165-.426.365-.642.564a19.4,19.4,0,0,0-5.857,9.66,13.327,13.327,0,0,0,1.23,9.068c.28.606.641,1.135.939,1.658.352.49.656.972.986,1.39l.936,1.155.846.921c.5.561.948.941,1.219,1.231a3.074,3.074,0,0,1,.412.447,2.825,2.825,0,0,1-.476-.377c-.293-.268-.762-.627-1.288-1.172l-.883-.9-.975-1.141c-.344-.415-.664-.9-1.029-1.388-.314-.524-.69-1.057-.986-1.672a13.549,13.549,0,0,1-1.359-9.312,19.633,19.633,0,0,1,5.962-9.917c.224-.2.444-.4.669-.587l.137-.11.136.094a12.94,12.94,0,0,1,3.894,4.466,15.762,15.762,0,0,1,1.645,5.244,20.741,20.741,0,0,1-1.142,9.131,26.078,26.078,0,0,1-1.3,3.289,19.677,19.677,0,0,1-1.2,2.375l-.829,1.461a2.743,2.743,0,0,1-.316.493" transform="translate(-20.651 -10.144)" fill="#fff"/>
          <path id="Path_327" data-name="Path 327" d="M194.962,319.244a7.592,7.592,0,0,0,1.471-.288,4.856,4.856,0,0,0,3.288-4.29c.031-.505-.005-1.065,0-1.634-.015-1.146-.032-2.39-.05-3.725-.033-2.677-.069-5.72-.11-9.082s-.077-7.052-.12-11.007q-.015-1.483-.031-3.018a8.187,8.187,0,0,0-.325-3,4.693,4.693,0,0,0-1.916-2.327,5.026,5.026,0,0,0-3.038-.707l-28.947.259a4.679,4.679,0,0,0-4.643,4.6q.026,3.748.051,7.38c.036,4.842.069,9.513.1,13.963q.022,3.337.044,6.5a11.808,11.808,0,0,0,.207,3.04,4.717,4.717,0,0,0,4.162,3.369c.922.036,1.882,0,2.794,0l5.281-.028,15.94-.056,4.333.008,1.127.015a2.266,2.266,0,0,1,.384.021,2.315,2.315,0,0,1-.383.027l-1.127.033-4.333.08-15.939.208-5.281.059c-.925,0-1.84.041-2.825.008a5.1,5.1,0,0,1-4.523-3.633,5.435,5.435,0,0,1-.219-1.581q-.008-.78-.015-1.57-.031-3.162-.064-6.5c-.041-4.45-.085-9.121-.129-13.963q-.029-3.635-.058-7.392a5.15,5.15,0,0,1,5.11-5.07l28.948-.22a5.453,5.453,0,0,1,3.268.78,5.115,5.115,0,0,1,2.079,2.541,4.883,4.883,0,0,1,.322,1.6c.021.533.012,1.038.018,1.552q.01,1.534.019,3.018c.022,3.956.043,7.641.062,11.008s.028,6.4.04,9.082c0,1.335.008,2.58.011,3.726-.007.575.023,1.113-.016,1.65a5.043,5.043,0,0,1-.341,1.473,4.974,4.974,0,0,1-3.122,2.892,3.969,3.969,0,0,1-1.5.2" transform="translate(-14.314 -25.014)" fill="#263238"/>
          <path id="Path_328" data-name="Path 328" d="M168.227,291.563a2.525,2.525,0,0,1,.43-.028l1.3-.037,4.961-.1,17.6-.252h.215v.217c.049,5.242.106,11.128.165,17.333.052-.048-.448.454-.24.241h-.844l-.847.006-1.68.014-3.3.025-6.336.044-11.28.06h-.194V296.223c.009-1.468.015-2.632.021-3.47.005-.367.01-.663.015-.9a1.339,1.339,0,0,1,.018-.293,2.29,2.29,0,0,1,.024.333c.007.244.017.551.029.933.019.849.046,2.026.078,3.512.049,3.045.119,7.347.2,12.555l-.193-.19,11.279-.127,6.336-.061,3.3-.029,1.68-.015.847-.007h.844c.212-.214-.28.292-.23.238-.044-6.206-.085-12.091-.122-17.335l.218.214-17.464.037-5.01-.015-1.343-.016a3.82,3.82,0,0,1-.48-.021" transform="translate(-15.039 -26.035)" fill="#263238"/>
          <path id="Path_329" data-name="Path 329" d="M180.416,302.539a1.821,1.821,0,0,1,.225-.244l.651-.64,2.449-2.348,8.586-8.1.148.372-12.146.123-12.149.078.141-.374,8.719,7.959,2.487,2.308.662.628a1.821,1.821,0,0,1,.229.24,9.452,9.452,0,0,1-.9-.733l-2.53-2.192-8.956-7.892-.419-.369.56-.005,12.149-.123,12.146-.078h.56l-.412.376-8.824,8.039L181.3,301.8a9.589,9.589,0,0,1-.884.748" transform="translate(-14.989 -26.035)" fill="#263238"/>
          <path id="Path_330" data-name="Path 330" d="M177.087,300.312a43.348,43.348,0,0,1-4.175,4.863,43.485,43.485,0,0,1-4.524,4.543,43.488,43.488,0,0,1,4.176-4.864,43.463,43.463,0,0,1,4.523-4.542" transform="translate(-15.058 -26.855)" fill="#263238"/>
          <path id="Path_331" data-name="Path 331" d="M194.2,309.511a86.676,86.676,0,0,1-8.853-9.261,43.359,43.359,0,0,1,4.6,4.466,43.431,43.431,0,0,1,4.255,4.794" transform="translate(-16.574 -26.849)" fill="#263238"/>
          <path id="Path_332" data-name="Path 332" d="M194.9,261.945H165.436a4.919,4.919,0,0,1-4.919-4.919V227.562a4.92,4.92,0,0,1,4.919-4.92H194.9a4.919,4.919,0,0,1,4.919,4.92v29.464a4.919,4.919,0,0,1-4.919,4.919" transform="translate(-14.354 -19.91)" fill="#1f4790"/>
          <path id="Path_333" data-name="Path 333" d="M192.4,251.768a2.3,2.3,0,0,1-.025-.34c-.007-.249-.017-.562-.03-.951-.019-.865-.046-2.062-.079-3.569-.051-3.09-.121-7.445-.207-12.69l.2.194-22.762.229c-.054.051.443-.452.233-.237V235l.005.589.009,1.174q.01,1.168.018,2.317.016,2.3.033,4.507c.017,2.94.035,5.748.051,8.373l-.215-.211,16.38-.028,4.683.017,1.255.015a3.342,3.342,0,0,1,.448.021,2.3,2.3,0,0,1-.4.028l-1.212.035-4.634.1-16.517.243h-.213v-.215c-.027-2.625-.056-5.432-.087-8.373-.014-1.471-.027-2.976-.042-4.507q-.01-1.149-.02-2.317l-.01-1.173V234.4c-.21.212.286-.294.238-.241l22.763-.147h.2v13.015c-.009,1.489-.015,2.672-.021,3.526-.006.373-.011.675-.015.913a1.408,1.408,0,0,1-.019.3" transform="translate(-15.131 -20.927)" fill="#fafafa"/>
          <path id="Path_334" data-name="Path 334" d="M177.632,230.637a11.671,11.671,0,0,1,1.991-.141c1.263-.046,3.062-.092,5.2-.129h.119l.064.1,2.031,3.349.212.351h-.412l-2.155.021c-3.591.03-6.849.032-9.227.01h-.3l.151-.253c1.285-2.14,2.2-3.425,2.323-3.311,0,0-.219.308-.57.912l-1.458,2.569-.148-.255c2.377-.061,5.635-.114,9.226-.143l2.155-.016-.2.354-1.991-3.374.182.1c-2.143,0-3.942-.017-5.206-.043a11.63,11.63,0,0,1-1.992-.108" transform="translate(-15.663 -20.6)" fill="#fafafa"/>
          <path id="Path_335" data-name="Path 335" d="M186.225,244.972c-.047-.014.117-.452.166-1.268a5.216,5.216,0,0,0-.917-3.236,5.021,5.021,0,1,0-2.6,7.611,5.217,5.217,0,0,0,2.7-2c.46-.676.6-1.123.644-1.1.016.005-.012.117-.079.328a3.973,3.973,0,0,1-.41.877,5.2,5.2,0,0,1-2.753,2.219,5.421,5.421,0,1,1,2.767-8.115,5.207,5.207,0,0,1,.823,3.439,4.032,4.032,0,0,1-.212.945c-.076.208-.122.313-.138.308" transform="translate(-15.723 -21.269)" fill="#fafafa"/>
          <path id="Path_336" data-name="Path 336" d="M252.31,204.071l-29.464.243a4.918,4.918,0,0,1-4.959-4.878l-.244-29.464a4.92,4.92,0,0,1,4.879-4.96l29.463-.243a4.919,4.919,0,0,1,4.96,4.879l.244,29.463a4.92,4.92,0,0,1-4.879,4.96" transform="translate(-19.463 -14.734)" fill="#263238"/>
          <path id="Path_337" data-name="Path 337" d="M250.555,184.454a22.667,22.667,0,0,0-.524-3.16,13.008,13.008,0,0,0-4.816-7.035,12.759,12.759,0,1,0,4.868,13.361,22.619,22.619,0,0,0,.472-3.167.686.686,0,0,1,.015.211c0,.169,0,.373,0,.623a6.075,6.075,0,0,1-.071,1.011,9.218,9.218,0,0,1-.234,1.366,12.326,12.326,0,0,1-1.382,3.534,13.26,13.26,0,1,1-.113-13.462,12.321,12.321,0,0,1,1.441,3.51,9.1,9.1,0,0,1,.256,1.362,6,6,0,0,1,.088,1.009c0,.249.009.454.013.623a.717.717,0,0,1-.012.212" transform="translate(-20.051 -15.321)" fill="#fff"/>
          <path id="Path_338" data-name="Path 338" d="M235.3,179a6.345,6.345,0,0,1,.745.369l2.168,1.146c1.869.991,4.565,2.425,7.684,4.151l.343.19-.341.2-5.136,3-5.254,3.035-.333.193V190.9c-.015-3.534.024-6.557.053-8.65q.023-1.464.037-2.426a6.464,6.464,0,0,1,.035-.82c.013.022.028.352.049.942q.031.987.078,2.494c.064,2.117.151,5.042.194,8.457l-.335-.191,5.239-3.059,5.149-2.975v.388c-3-1.693-5.549-3.191-7.4-4.274l-2.173-1.281c-.513-.3-.8-.479-.811-.5" transform="translate(-21.03 -16.007)" fill="#fff"/>
          <path id="Path_339" data-name="Path 339" d="M194.834,207.932c0-.131.615-.242,1.375-.249s1.378.1,1.379.226-.614.242-1.375.249-1.378-.1-1.379-.226" transform="translate(-17.423 -18.572)" fill="#e0e0e0"/>
          <path id="Path_340" data-name="Path 340" d="M188.785,207.982c0-.131.615-.242,1.375-.249s1.378.1,1.38.226-.615.242-1.376.249-1.378-.1-1.379-.226" transform="translate(-16.882 -18.576)" fill="#e0e0e0"/>
          <path id="Path_341" data-name="Path 341" d="M182.737,208.032c0-.131.615-.242,1.375-.249s1.378.1,1.379.226-.614.242-1.375.249-1.378-.1-1.379-.226" transform="translate(-16.341 -18.581)" fill="#e0e0e0"/>
          <path id="Path_342" data-name="Path 342" d="M176.688,208.082c0-.131.615-.242,1.375-.249s1.378.1,1.379.226-.614.242-1.375.249-1.378-.1-1.379-.226" transform="translate(-15.8 -18.585)" fill="#e0e0e0"/>
          <path id="Path_343" data-name="Path 343" d="M170.639,208.132c0-.131.615-.242,1.375-.249s1.378.1,1.379.226-.614.242-1.375.249-1.378-.1-1.379-.226" transform="translate(-15.259 -18.59)" fill="#e0e0e0"/>
          <path id="Path_344" data-name="Path 344" d="M164.592,208.112c.039-.148.6-.148,1.373-.179.76-.006,1.378.1,1.379.226s-.615.242-1.375.249c-.753.033-1.415-.186-1.377-.3" transform="translate(-14.718 -18.594)" fill="#e0e0e0"/>
          <path id="Path_345" data-name="Path 345" d="M160.271,204.336c.131-.035.379.516.772,1.122s.784,1.067.7,1.172-.66-.233-1.1-.916-.5-1.351-.373-1.378" transform="translate(-14.327 -18.272)" fill="#e0e0e0"/>
          <path id="Path_346" data-name="Path 346" d="M160,198.307c.131,0,.242.615.249,1.375s-.1,1.378-.226,1.379-.242-.614-.249-1.375.1-1.378.226-1.379" transform="translate(-14.287 -17.733)" fill="#e0e0e0"/>
          <path id="Path_347" data-name="Path 347" d="M159.946,192.258c.131,0,.242.615.249,1.375s-.1,1.378-.226,1.379-.242-.614-.249-1.375.1-1.378.226-1.379" transform="translate(-14.283 -17.193)" fill="#e0e0e0"/>
          <path id="Path_348" data-name="Path 348" d="M159.9,186.209c.131,0,.242.615.249,1.375s-.1,1.378-.226,1.379-.242-.614-.249-1.375.1-1.378.226-1.379" transform="translate(-14.278 -16.652)" fill="#e0e0e0"/>
          <path id="Path_349" data-name="Path 349" d="M159.846,180.16c.131,0,.242.615.249,1.375s-.1,1.378-.226,1.38-.242-.615-.249-1.376.1-1.378.226-1.379" transform="translate(-14.274 -16.111)" fill="#e0e0e0"/>
          <path id="Path_350" data-name="Path 350" d="M159.8,174.111c.131,0,.242.615.249,1.375s-.1,1.378-.226,1.379-.242-.614-.249-1.375.1-1.378.226-1.379" transform="translate(-14.269 -15.57)" fill="#e0e0e0"/>
          <path id="Path_351" data-name="Path 351" d="M160.235,168.135c.119.061-.061.636-.172,1.349s-.142,1.339-.291,1.338c-.111,0-.3-.607-.177-1.412s.529-1.338.64-1.275" transform="translate(-14.268 -15.035)" fill="#e0e0e0"/>
          <path id="Path_352" data-name="Path 352" d="M164.878,165.023c0,.136-.6.222-1.29.432s-1.239.459-1.316.346.4-.572,1.18-.8,1.434-.1,1.426.023" transform="translate(-14.51 -14.744)" fill="#e0e0e0"/>
          <path id="Path_353" data-name="Path 353" d="M170.914,164.966c0,.131-.615.242-1.375.249s-1.378-.1-1.379-.226.614-.242,1.375-.249,1.378.1,1.379.226" transform="translate(-15.038 -14.732)" fill="#e0e0e0"/>
          <path id="Path_354" data-name="Path 354" d="M176.963,164.916c0,.131-.615.242-1.375.249s-1.378-.1-1.379-.226.614-.242,1.375-.249,1.378.1,1.379.226" transform="translate(-15.579 -14.727)" fill="#e0e0e0"/>
          <path id="Path_355" data-name="Path 355" d="M183.012,164.866c0,.131-.615.242-1.375.249s-1.378-.1-1.379-.226.614-.242,1.375-.249,1.378.1,1.379.226" transform="translate(-16.119 -14.723)" fill="#e0e0e0"/>
          <path id="Path_356" data-name="Path 356" d="M189.061,164.816c0,.131-.615.242-1.376.249s-1.378-.1-1.378-.226.613-.242,1.374-.249,1.378.1,1.38.226" transform="translate(-16.66 -14.718)" fill="#e0e0e0"/>
          <path id="Path_357" data-name="Path 357" d="M195.109,164.766c0,.131-.615.242-1.375.249s-1.378-.1-1.379-.226.614-.242,1.375-.249,1.378.1,1.379.226" transform="translate(-17.201 -14.714)" fill="#e0e0e0"/>
          <path id="Path_358" data-name="Path 358" d="M200.863,165.986c-.092.1-.6-.235-1.25-.538s-1.228-.484-1.211-.618.682-.157,1.413.189,1.138.879,1.048.967" transform="translate(-17.742 -14.732)" fill="#e0e0e0"/>
          <path id="Path_359" data-name="Path 359" d="M202.933,171.358c-.131,0-.242-.616-.249-1.375,0-.722-.1-1.319.032-1.36s.436.547.443,1.355c.006.762-.1,1.38-.226,1.38" transform="translate(-18.122 -15.079)" fill="#e0e0e0"/>
          <path id="Path_360" data-name="Path 360" d="M202.987,177.4c-.131,0-.242-.615-.249-1.375s.1-1.378.226-1.38.242.615.249,1.376-.1,1.378-.226,1.379" transform="translate(-18.13 -15.618)" fill="#e0e0e0"/>
          <path id="Path_361" data-name="Path 361" d="M203.037,183.455c-.131,0-.242-.615-.249-1.375s.1-1.378.226-1.379.242.614.249,1.375-.1,1.378-.226,1.379" transform="translate(-18.134 -16.159)" fill="#e0e0e0"/>
          <path id="Path_362" data-name="Path 362" d="M203.087,189.5c-.131,0-.242-.615-.249-1.375s.1-1.378.226-1.379.242.614.249,1.375-.1,1.378-.226,1.379" transform="translate(-18.139 -16.7)" fill="#e0e0e0"/>
          <path id="Path_363" data-name="Path 363" d="M203.137,195.553c-.131,0-.242-.615-.249-1.375s.1-1.378.226-1.379.242.614.249,1.375-.1,1.378-.226,1.379" transform="translate(-18.143 -17.241)" fill="#e0e0e0"/>
          <path id="Path_364" data-name="Path 364" d="M203.187,201.6c-.131,0-.242-.615-.249-1.375s.1-1.378.226-1.379.242.614.249,1.375-.1,1.378-.226,1.379" transform="translate(-18.148 -17.782)" fill="#e0e0e0"/>
          <path id="Path_365" data-name="Path 365" d="M200.739,206.87c-.07-.116.388-.508.86-1.054s.806-1.046.931-.993-.04.7-.574,1.3-1.157.853-1.217.742" transform="translate(-17.95 -18.316)" fill="#e0e0e0"/>
          <path id="Path_366" data-name="Path 366" d="M251.822,321.065c0-.131.615-.242,1.375-.249s1.378.1,1.379.226-.614.242-1.375.249-1.378-.1-1.379-.226" transform="translate(-22.519 -28.689)" fill="#e0e0e0"/>
          <path id="Path_367" data-name="Path 367" d="M245.774,321.115c0-.131.615-.242,1.375-.249s1.378.1,1.38.226-.615.242-1.376.249-1.378-.1-1.379-.226" transform="translate(-21.978 -28.693)" fill="#e0e0e0"/>
          <path id="Path_368" data-name="Path 368" d="M239.725,321.165c0-.131.615-.242,1.375-.249s1.378.1,1.379.226-.614.242-1.375.249-1.378-.1-1.379-.226" transform="translate(-21.437 -28.698)" fill="#e0e0e0"/>
          <path id="Path_369" data-name="Path 369" d="M233.676,321.215c0-.131.615-.242,1.375-.249s1.378.1,1.379.226-.614.242-1.375.249-1.378-.1-1.379-.226" transform="translate(-20.896 -28.702)" fill="#e0e0e0"/>
          <path id="Path_370" data-name="Path 370" d="M227.627,321.265c0-.131.615-.242,1.375-.249s1.378.1,1.379.226-.614.242-1.375.249-1.378-.1-1.379-.226" transform="translate(-20.355 -28.707)" fill="#e0e0e0"/>
          <path id="Path_371" data-name="Path 371" d="M221.58,321.245c.039-.147.6-.147,1.373-.179.76-.006,1.378.1,1.379.226s-.614.242-1.375.249c-.753.033-1.415-.186-1.377-.3" transform="translate(-19.814 -28.711)" fill="#e0e0e0"/>
          <path id="Path_372" data-name="Path 372" d="M217.26,317.468c.131-.035.379.516.772,1.122s.784,1.067.7,1.172-.66-.232-1.1-.915-.5-1.352-.373-1.379" transform="translate(-19.423 -28.389)" fill="#e0e0e0"/>
          <path id="Path_373" data-name="Path 373" d="M216.984,311.439c.131,0,.242.615.249,1.375s-.1,1.378-.226,1.379-.242-.614-.249-1.375.1-1.378.226-1.379" transform="translate(-19.383 -27.85)" fill="#e0e0e0"/>
          <path id="Path_374" data-name="Path 374" d="M216.934,305.391c.131,0,.242.615.249,1.375s-.1,1.378-.226,1.379-.242-.614-.249-1.375.1-1.378.226-1.379" transform="translate(-19.379 -27.309)" fill="#e0e0e0"/>
          <path id="Path_375" data-name="Path 375" d="M216.884,299.342c.131,0,.242.615.249,1.375s-.1,1.378-.226,1.379-.242-.614-.249-1.375.1-1.378.226-1.379" transform="translate(-19.374 -26.768)" fill="#e0e0e0"/>
          <path id="Path_376" data-name="Path 376" d="M216.834,293.293c.131,0,.242.615.249,1.375s-.1,1.378-.226,1.379-.242-.615-.249-1.376.1-1.378.226-1.379" transform="translate(-19.37 -26.227)" fill="#e0e0e0"/>
          <path id="Path_377" data-name="Path 377" d="M216.784,287.244c.131,0,.242.615.249,1.375s-.1,1.378-.226,1.379-.242-.614-.249-1.375.1-1.378.226-1.379" transform="translate(-19.366 -25.687)" fill="#e0e0e0"/>
          <path id="Path_378" data-name="Path 378" d="M217.223,281.268c.119.061-.062.637-.172,1.349s-.142,1.338-.291,1.338c-.111,0-.3-.607-.177-1.412s.529-1.338.64-1.275" transform="translate(-19.364 -25.152)" fill="#e0e0e0"/>
          <path id="Path_379" data-name="Path 379" d="M221.866,278.155c0,.136-.6.222-1.29.432s-1.239.458-1.316.346.4-.572,1.18-.8,1.434-.1,1.426.023" transform="translate(-19.606 -24.86)" fill="#e0e0e0"/>
          <path id="Path_380" data-name="Path 380" d="M227.9,278.1c0,.131-.615.242-1.375.249s-1.378-.1-1.379-.226.614-.242,1.375-.249,1.378.1,1.379.226" transform="translate(-20.134 -24.848)" fill="#e0e0e0"/>
          <path id="Path_381" data-name="Path 381" d="M233.951,278.048c0,.131-.615.242-1.375.249s-1.378-.1-1.379-.226.614-.242,1.375-.249,1.378.1,1.379.226" transform="translate(-20.675 -24.844)" fill="#e0e0e0"/>
          <path id="Path_382" data-name="Path 382" d="M240,278c0,.131-.615.242-1.375.249s-1.378-.1-1.379-.226.614-.242,1.375-.249S240,277.867,240,278" transform="translate(-21.216 -24.84)" fill="#e0e0e0"/>
          <path id="Path_383" data-name="Path 383" d="M246.049,277.948c0,.131-.615.242-1.375.249s-1.378-.1-1.379-.226.614-.242,1.375-.249,1.378.1,1.379.226" transform="translate(-21.756 -24.835)" fill="#e0e0e0"/>
          <path id="Path_384" data-name="Path 384" d="M252.1,277.9c0,.131-.615.242-1.375.249s-1.378-.1-1.379-.226.614-.242,1.375-.249,1.378.1,1.379.226" transform="translate(-22.297 -24.831)" fill="#e0e0e0"/>
          <path id="Path_385" data-name="Path 385" d="M257.852,279.118c-.092.1-.6-.235-1.25-.538s-1.229-.484-1.212-.618.683-.157,1.414.189,1.138.879,1.048.967" transform="translate(-22.838 -24.849)" fill="#e0e0e0"/>
          <path id="Path_386" data-name="Path 386" d="M259.921,284.491c-.131,0-.242-.616-.249-1.375,0-.722-.1-1.318.032-1.36s.436.547.443,1.355c.006.762-.1,1.38-.226,1.38" transform="translate(-23.218 -25.196)" fill="#e0e0e0"/>
          <path id="Path_387" data-name="Path 387" d="M259.976,290.538c-.132,0-.243-.615-.249-1.375s.1-1.378.225-1.38.243.615.249,1.376-.1,1.378-.225,1.379" transform="translate(-23.226 -25.735)" fill="#e0e0e0"/>
          <path id="Path_388" data-name="Path 388" d="M260.025,296.587c-.131,0-.242-.615-.249-1.375s.1-1.378.226-1.379.242.615.249,1.376-.1,1.378-.226,1.379" transform="translate(-23.23 -26.276)" fill="#e0e0e0"/>
          <path id="Path_389" data-name="Path 389" d="M260.074,302.636c-.131,0-.242-.615-.249-1.375s.1-1.378.226-1.379.242.614.249,1.375-.1,1.378-.226,1.379" transform="translate(-23.235 -26.817)" fill="#e0e0e0"/>
          <path id="Path_390" data-name="Path 390" d="M260.125,308.685c-.132,0-.243-.615-.249-1.375s.1-1.378.226-1.379.243.614.249,1.375-.1,1.378-.225,1.379" transform="translate(-23.239 -27.358)" fill="#e0e0e0"/>
          <path id="Path_391" data-name="Path 391" d="M260.174,314.734c-.131,0-.242-.615-.249-1.375s.1-1.378.226-1.379.242.614.248,1.375-.1,1.378-.226,1.379" transform="translate(-23.244 -27.899)" fill="#e0e0e0"/>
          <path id="Path_392" data-name="Path 392" d="M257.727,320c-.07-.116.388-.508.861-1.054s.806-1.046.931-.993-.04.7-.574,1.306-1.157.852-1.218.741" transform="translate(-23.046 -28.433)" fill="#e0e0e0"/>
          <path id="Path_393" data-name="Path 393" d="M251.822,265.735c0-.131.615-.242,1.375-.249s1.378.1,1.379.226-.614.242-1.375.249-1.378-.1-1.379-.226" transform="translate(-22.519 -23.741)" fill="#e0e0e0"/>
          <path id="Path_394" data-name="Path 394" d="M245.774,265.785c0-.131.615-.242,1.375-.249s1.378.1,1.38.226-.615.242-1.376.249-1.378-.1-1.379-.226" transform="translate(-21.978 -23.745)" fill="#e0e0e0"/>
          <path id="Path_395" data-name="Path 395" d="M239.725,265.835c0-.131.615-.242,1.375-.249s1.378.1,1.379.226-.614.242-1.375.249-1.378-.1-1.379-.226" transform="translate(-21.437 -23.75)" fill="#e0e0e0"/>
          <path id="Path_396" data-name="Path 396" d="M233.676,265.885c0-.131.615-.242,1.375-.249s1.378.1,1.379.226-.614.242-1.375.249-1.378-.1-1.379-.226" transform="translate(-20.896 -23.754)" fill="#e0e0e0"/>
          <path id="Path_397" data-name="Path 397" d="M227.627,265.935c0-.131.615-.242,1.375-.249s1.378.1,1.379.226-.614.242-1.375.249-1.378-.1-1.379-.226" transform="translate(-20.355 -23.759)" fill="#e0e0e0"/>
          <path id="Path_398" data-name="Path 398" d="M221.58,265.915c.039-.148.6-.148,1.373-.179.76-.006,1.378.1,1.379.226s-.614.242-1.375.249c-.753.033-1.415-.186-1.377-.3" transform="translate(-19.814 -23.763)" fill="#e0e0e0"/>
          <path id="Path_399" data-name="Path 399" d="M217.26,262.138c.131-.035.379.516.772,1.122s.784,1.067.7,1.172-.66-.233-1.1-.915-.5-1.352-.373-1.379" transform="translate(-19.423 -23.441)" fill="#e0e0e0"/>
          <path id="Path_400" data-name="Path 400" d="M216.984,256.11c.131,0,.242.615.249,1.375s-.1,1.378-.226,1.379-.242-.614-.249-1.375.1-1.378.226-1.379" transform="translate(-19.383 -22.902)" fill="#e0e0e0"/>
          <path id="Path_401" data-name="Path 401" d="M216.934,250.061c.131,0,.242.615.249,1.375s-.1,1.378-.226,1.38-.242-.615-.249-1.376.1-1.378.226-1.379" transform="translate(-19.379 -22.362)" fill="#e0e0e0"/>
          <path id="Path_402" data-name="Path 402" d="M216.884,244.012c.131,0,.242.615.249,1.375s-.1,1.378-.226,1.379-.242-.614-.249-1.375.1-1.378.226-1.379" transform="translate(-19.374 -21.821)" fill="#e0e0e0"/>
          <path id="Path_403" data-name="Path 403" d="M216.834,237.963c.131,0,.242.615.249,1.375s-.1,1.378-.226,1.379-.242-.614-.249-1.375.1-1.378.226-1.379" transform="translate(-19.37 -21.28)" fill="#e0e0e0"/>
          <path id="Path_404" data-name="Path 404" d="M216.784,231.914c.131,0,.242.615.249,1.375s-.1,1.378-.226,1.379-.242-.614-.249-1.375.1-1.378.226-1.379" transform="translate(-19.366 -20.739)" fill="#e0e0e0"/>
          <path id="Path_405" data-name="Path 405" d="M217.223,225.939c.119.061-.062.636-.172,1.349s-.142,1.339-.291,1.338c-.111,0-.3-.607-.177-1.412s.529-1.338.64-1.275" transform="translate(-19.364 -20.204)" fill="#e0e0e0"/>
          <path id="Path_406" data-name="Path 406" d="M221.866,222.825c0,.136-.6.222-1.29.432s-1.239.458-1.316.346.4-.572,1.18-.8,1.434-.1,1.426.023" transform="translate(-19.606 -19.912)" fill="#e0e0e0"/>
          <path id="Path_407" data-name="Path 407" d="M227.9,222.768c0,.131-.615.242-1.375.249s-1.378-.1-1.379-.226.614-.242,1.375-.249,1.378.1,1.379.226" transform="translate(-20.134 -19.901)" fill="#e0e0e0"/>
          <path id="Path_408" data-name="Path 408" d="M233.951,222.718c0,.131-.615.242-1.375.249s-1.378-.1-1.379-.226.614-.242,1.375-.249,1.378.1,1.379.226" transform="translate(-20.675 -19.896)" fill="#e0e0e0"/>
          <path id="Path_409" data-name="Path 409" d="M240,222.668c0,.131-.615.242-1.375.249s-1.378-.1-1.379-.226.614-.242,1.375-.249,1.378.1,1.379.226" transform="translate(-21.216 -19.892)" fill="#e0e0e0"/>
          <path id="Path_410" data-name="Path 410" d="M246.049,222.618c0,.131-.615.242-1.375.249s-1.378-.1-1.379-.226.614-.242,1.375-.249,1.378.1,1.379.226" transform="translate(-21.756 -19.887)" fill="#e0e0e0"/>
          <path id="Path_411" data-name="Path 411" d="M252.1,222.568c0,.131-.615.242-1.375.249s-1.378-.1-1.379-.226.614-.242,1.375-.249,1.378.1,1.379.226" transform="translate(-22.297 -19.883)" fill="#e0e0e0"/>
          <path id="Path_412" data-name="Path 412" d="M257.852,223.788c-.092.1-.6-.235-1.25-.538s-1.229-.484-1.212-.618.683-.157,1.414.189,1.138.879,1.048.967" transform="translate(-22.838 -19.901)" fill="#e0e0e0"/>
          <path id="Path_413" data-name="Path 413" d="M259.921,229.161c-.131,0-.242-.616-.249-1.375,0-.722-.1-1.319.032-1.36s.436.547.443,1.355c.006.762-.1,1.38-.226,1.38" transform="translate(-23.218 -20.248)" fill="#e0e0e0"/>
          <path id="Path_414" data-name="Path 414" d="M259.976,235.209c-.132,0-.243-.615-.249-1.375s.1-1.378.225-1.379.243.614.249,1.375-.1,1.378-.225,1.379" transform="translate(-23.226 -20.787)" fill="#e0e0e0"/>
          <path id="Path_415" data-name="Path 415" d="M260.025,241.258c-.131,0-.242-.615-.249-1.375s.1-1.378.226-1.379.242.614.249,1.375-.1,1.378-.226,1.379" transform="translate(-23.23 -21.328)" fill="#e0e0e0"/>
          <path id="Path_416" data-name="Path 416" d="M260.074,247.306c-.131,0-.242-.615-.249-1.375s.1-1.378.226-1.38.242.615.249,1.376-.1,1.378-.226,1.379" transform="translate(-23.235 -21.869)" fill="#e0e0e0"/>
          <path id="Path_417" data-name="Path 417" d="M260.125,253.355c-.132,0-.243-.615-.249-1.375s.1-1.378.226-1.38.243.615.249,1.376-.1,1.378-.225,1.379" transform="translate(-23.239 -22.41)" fill="#e0e0e0"/>
          <path id="Path_418" data-name="Path 418" d="M260.174,259.4c-.131,0-.242-.615-.249-1.375s.1-1.378.226-1.379.242.614.248,1.375-.1,1.378-.226,1.379" transform="translate(-23.244 -22.951)" fill="#e0e0e0"/>
          <path id="Path_419" data-name="Path 419" d="M257.727,264.673c-.07-.116.388-.508.861-1.054s.806-1.046.931-.993-.04.7-.574,1.3-1.157.853-1.218.742" transform="translate(-23.046 -23.485)" fill="#e0e0e0"/>
          <path id="Path_420" data-name="Path 420" d="M207.133,106.816a7.58,7.58,0,1,1-7.642-7.517,7.58,7.58,0,0,1,7.642,7.517" transform="translate(-17.167 -8.88)" fill="#153164"/>
          <path id="Path_421" data-name="Path 421" d="M202.876,108.483c.009,1.114-.793,1.977-2.4,1.99a3.466,3.466,0,0,1-2.406-.836l.329-.545a2.917,2.917,0,0,0,2.072.754c1.1-.009,1.708-.528,1.7-1.357-.007-.8-.573-1.318-1.811-1.308h-.475v-.5l1.827-2.328-3.406.028v-.609l4.282-.036v.485l-1.865,2.386c1.428.065,2.148.81,2.157,1.876" transform="translate(-17.712 -9.277)" fill="#fff"/>
          <path id="Path_422" data-name="Path 422" d="M199.7,335.865a1.935,1.935,0,1,1-1.951-1.919,1.935,1.935,0,0,1,1.951,1.919" transform="translate(-17.512 -29.863)" fill="#263238"/>
          <path id="Path_423" data-name="Path 423" d="M211.61,335.767a1.935,1.935,0,1,1-1.951-1.919,1.935,1.935,0,0,1,1.951,1.919" transform="translate(-18.577 -29.854)" fill="#263238"/>
          <path id="Path_424" data-name="Path 424" d="M223.518,335.669a1.935,1.935,0,1,1-1.951-1.919,1.935,1.935,0,0,1,1.951,1.919" transform="translate(-19.642 -29.845)" fill="#263238"/>
          <path id="Path_425" data-name="Path 425" d="M265.282,78.911c0,.078-2.546.163-5.687.189a54.561,54.561,0,0,1-5.69-.1,55.5,55.5,0,0,1,5.688-.189,54.521,54.521,0,0,1,5.689.1" transform="translate(-22.705 -7.047)" fill="#263238"/>
          <path id="Path_426" data-name="Path 426" d="M265.308,82.108c0,.078-2.546.163-5.687.189a56.867,56.867,0,0,1-5.69-.1c0-.078,2.546-.163,5.688-.189a54.521,54.521,0,0,1,5.689.1" transform="translate(-22.707 -7.333)" fill="#263238"/>
          <path id="Path_427" data-name="Path 427" d="M265.335,85.3c0,.078-2.546.163-5.687.189a56.855,56.855,0,0,1-5.69-.1c0-.078,2.546-.163,5.688-.188s5.688.016,5.689.1" transform="translate(-22.71 -7.619)" fill="#263238"/>
          <path id="Path_428" data-name="Path 428" d="M152.744,88.027a1.633,1.633,0,0,1,.239-.018l.659-.025,2.426-.066-.079.081q-.015-.811-.032-1.761c0-.329-.029-.633,0-1.017a.948.948,0,0,1,.83-.763c.4-.008.734-.026,1.165-.007a.963.963,0,0,1,.813.956q.015,1.233.031,2.57l-.134-.131,3.064-.033-.137.14c-.012-1.234-.023-2.51-.035-3.818q0-.489-.008-.972a.971.971,0,0,0-.424-.709l-1.339-1.32-1.292-1.276-.626-.619c-.218-.209-.382-.419-.625-.468a.8.8,0,0,0-.686.13c-.181.153-.382.378-.569.559l-1.1,1.108c-.691.717-1.416,1.377-1.935,1.991a2.151,2.151,0,0,0-.154,1.134v1.078c-.006.657-.011,1.235-.015,1.738-.006.435-.012.8-.016,1.114a3.273,3.273,0,0,1-.018.4,2.288,2.288,0,0,1-.025-.366c-.009-.305-.021-.666-.035-1.093q-.019-.762-.044-1.755-.011-.523-.023-1.1a2.319,2.319,0,0,1,.16-1.253c.571-.7,1.243-1.313,1.94-2.054l1.091-1.118c.2-.194.354-.383.593-.588a1.061,1.061,0,0,1,.906-.178,1.667,1.667,0,0,1,.745.531l.629.616,1.3,1.271,1.343,1.317a1.254,1.254,0,0,1,.51.9q0,.485.008.978c.01,1.308.02,2.583.029,3.818v.139h-.139l-3.065.019h-.133v-.133c0-.889-.007-1.747-.012-2.569a.718.718,0,0,0-.6-.726c-.345-.019-.768-.007-1.106,0a.734.734,0,0,0-.647.581c-.029.3-.007.666-.015.976V88.08h-.079l-2.474-.025-.642-.014a.948.948,0,0,1-.209-.015" transform="translate(-13.647 -7.018)" fill="#263238"/>
          <path id="Path_429" data-name="Path 429" d="M299.963,320.428l-29.464.243a4.918,4.918,0,0,1-4.959-4.878l-.24-29.463a4.92,4.92,0,0,1,4.879-4.96l29.463-.243A4.919,4.919,0,0,1,304.6,286l.244,29.463a4.92,4.92,0,0,1-4.879,4.96" transform="translate(-23.724 -25.14)" fill="#263238"/>
          <path id="Path_430" data-name="Path 430" d="M276.5,300.155c.013,0,.151.113.4.32l1.1.9,4.032,3.311.056.046-.007.076c-.192,2-.423,4.413-.684,7.123l-.287-.18,6.079-3.773.1-.06.106.046,6.55,2.88-.32.268-1.687-6.952c.024-.1-.054.212.054-.216h0l.01-.011.019-.022.038-.043.076-.086.153-.17.306-.341.608-.678,1.2-1.343,2.356-2.622.155.386-7.133-.563-.115-.009-.056-.1-3.569-6.2.339-.023-2.771,6.6-.029.071-.072.014-5.112,1-1.4.269c-.321.061-.494.092-.507.089a3.843,3.843,0,0,1,.433-.113l1.338-.32,5.2-1.21-.1.084,2.682-6.634.144-.356.2.332c1.109,1.894,2.321,3.964,3.617,6.175l-.171-.107,7.135.534.47.035-.314.352-2.35,2.628-1.2,1.344-.608.679-.3.341-.153.171-.077.086-.039.043-.019.021-.009.011v.005h0c.107-.427.03-.117.054-.212.575,2.382,1.136,4.708,1.678,6.955l.111.458-.431-.191-6.538-2.908.2-.014-6.108,3.726-.33.2.042-.382.778-7.113.049.122-4-3.523-1.029-.917a4.059,4.059,0,0,1-.329-.3" transform="translate(-24.725 -26.077)" fill="#fafafa"/>
        </g>
      </g>
      <rect id="Rectangle_4223" data-name="Rectangle 4223" width="371.836" height="335.505" fill="none"/>
    </g>
  </g>
</svg>
