<svg xmlns="http://www.w3.org/2000/svg" width="43" height="50" viewBox="0 0 43 50">
  <path id="Path_1" data-name="Path 1" d="M185.753,44.8c-5.742,1.88-10.217,3.759-9.579,11.9C181.916,55.453,187.029,52.32,185.753,44.8Zm-18.237,11.31C161.988,56.111,154,60.873,154,69.8c0,12.5,8.6,25,13.514,25,3.686,0,6.757-2.381,9.214-2.381s4.914,2.381,8.6,2.381c4.914,0,10.443-7.143,11.671-13.69-4.3-2.976-7.371-4.762-7.371-10.119,0-3.572,3.071-7.143,6.757-10.119a12.648,12.648,0,0,0-9.214-4.762c-3.686,0-7.649,2.825-10.443,2.976-2.457,0-5.528-2.976-9.214-2.976Z" transform="translate(-154.002 -44.801)" fill="#919191"/>
</svg>
