<svg id="Group_1" data-name="Group 1" xmlns="http://www.w3.org/2000/svg" width="100" height="91" viewBox="0 0 100 91">
  <g id="bank-icon" transform="translate(7 1)">
    <path id="Path_1" data-name="Path 1" d="M0,523.7H86.148v5.738H0Z" transform="translate(0 -442.29)"/>
    <path id="Path_2" data-name="Path 2" d="M31.5,249.767V255.5h76.641v-5.738h-6.815V216.738h6.815V211H31.5v5.738h6.815v33.029Zm43.074-33.029H91.265v33.029H74.574Zm-26.568,0H64.7v33.029H48.007Z" transform="translate(-26.654 -177.694)"/>
    <path id="Path_3" data-name="Path 3" d="M43.074,1,0,22.353v7.353H86.148V22.353Zm0,23.691a9.338,9.338,0,1,1,9.338-9.338A9.274,9.274,0,0,1,43.074,24.691Z"/>
    <path id="Path_4" data-name="Path 4" d="M255,52.607V49.192a6.312,6.312,0,0,1,2.508,1.077l1.077-1.615a6.746,6.746,0,0,0-3.769-1.261V46.5h-1.077v.892a4.074,4.074,0,0,0-2.877,1.077,3.238,3.238,0,0,0-1.077,2.508,3.111,3.111,0,0,0,.892,2.338,11.308,11.308,0,0,0,3.231,1.261v3.415a5.694,5.694,0,0,1-3.046-1.615L249.6,57.992a7.87,7.87,0,0,0,4.307,1.969v1.261h1.077V59.961a3.782,3.782,0,0,0,2.877-1.077,3.238,3.238,0,0,0,1.077-2.508,3.111,3.111,0,0,0-.892-2.338A6.834,6.834,0,0,0,255,52.607Zm-1.077-.185c-.723-.354-1.077-.538-1.431-.723a1.35,1.35,0,0,1-.354-.892,1.572,1.572,0,0,1,.538-1.077,8.591,8.591,0,0,1,1.261-.538Zm2.508,5.2c-.354.354-.723.354-1.431.538V54.93c.723.185,1.261.354,1.431.723a1.5,1.5,0,0,1,.354,1.077C256.969,56.915,256.784,57.269,256.43,57.622Z" transform="translate(-211.202 -38.5)"/>
  </g>
  <rect id="Rectangle_1" data-name="Rectangle 1" width="100" height="91" fill="none"/>
</svg>
