<svg xmlns="http://www.w3.org/2000/svg" width="351.102" height="239.02" viewBox="0 0 351.102 239.02">
  <g id="no-blogs-found" transform="translate(-27.413 -101.237)">
    <path id="Path_84431" data-name="Path 84431" d="M186.471,154.936l-4.529.559-1.125.143-1.125.181-2.264.37c-1.51.257-3.019.483-4.483.755l-4.446.936a115.485,115.485,0,0,0-17.36,5.095,62.843,62.843,0,0,0-11.6,5.978l-1.147.83c-.377.279-.755.581-1.087.868l-.242.211c-.068.038-.053.106-.045.174v.1l.045.309.106.694c.317,1.879.755,3.774,1.155,5.7.853,3.819,1.766,7.638,2.695,11.45l5.661,22.87c1.7,6.793,3.412,13.586,5.095,20.274,1.072,4.317,2.159,8.642,3.125,13,.491,2.181.943,4.363,1.336,6.574a52.834,52.834,0,0,1,.853,6.718,4.852,4.852,0,0,1-.166,1.645c-.121.362-.242.491-.355.438-.242-.121-.4-.845-.793-1.947a108.092,108.092,0,0,1-3.125-11.322c-1.917-8.823-4.1-17.624-6.25-26.418s-4.34-17.67-6.438-26.576c-1.276-5.329-2.574-10.763-3.88-16.235q-.476-2.061-.906-4.144c-.136-.709-.287-1.4-.393-2.136l-.083-.543c0-.234-.038-.566-.06-.845v-.657l.151-.158c.211-.211.4-.415.634-.619l.272-.257.211-.189.43-.347a10.38,10.38,0,0,1,.868-.679c.589-.43,1.17-.876,1.781-1.253,1.2-.808,2.453-1.51,3.7-2.2a91.427,91.427,0,0,1,17.4-6.793c3.019-.755,5.993-1.6,9.057-2.181,1.51-.309,3.019-.679,4.529-.928l4.582-.755c1.872-.347,3.774-.574,5.646-.808s3.774-.491,5.661-.687l5.684-.5,2.83-.249c.951-.091,1.9-.113,2.846-.174l8.6-.453a38.117,38.117,0,0,0,8.3-1.51,103.617,103.617,0,0,0,15.775-6.25c7.971-3.819,15.609-7.986,23.806-11.322,1.8-.755,3.578-1.419,5.45-2.03a45.564,45.564,0,0,1,7.51-1.9,9.058,9.058,0,0,1,3.495.038,6.883,6.883,0,0,1,1.079.279c.37.2-.159.506-1.4.883l-5.691,1.6c-7.4,2.144-14.643,5.472-21.934,9.057s-14.635,7.435-22.545,10.409a55.943,55.943,0,0,1-9.133,2.634,35,35,0,0,1-4.808.581l-4.612.249c-3.057.174-6.129.279-9.178.6s-6.114.483-9.14.928Z" transform="translate(-26.293 -6.462)" fill="#221f1f"/>
    <path id="Path_84432" data-name="Path 84432" d="M178.877,150.6c-1.51.211-2.959.513-4.438.755s-2.966.5-4.431.815l-4.393,1c-.755.166-1.51.317-2.2.506l-2.166.611a95.584,95.584,0,0,0-16.862,6.182c-1,.43-1.932,1-2.9,1.51s-1.887,1.079-2.815,1.638a40.422,40.422,0,0,0-5.223,3.774,6.2,6.2,0,0,0-.521.468l-.279.257c-.068.038,0,.113,0,.211l.083.619c.159.9.377,1.872.559,2.8.43,1.887.853,3.774,1.321,5.661.906,3.774,1.857,7.548,2.815,11.322q2.861,11.322,5.85,22.583c1.751,6.672,3.578,13.367,5.382,19.979,2.31,8.484,4.733,16.99,6.74,25.557,1.238,5.344-2.151-.966-4.77-10.756-4.634-17.36-9.291-34.72-13.669-52.284q-1.981-7.925-4.023-16.024c-.672-2.7-1.328-5.412-1.887-8.182-.068-.362-.106-.755-.166-1.132l-.1-.823v-.113l.068-.075.151-.159.294-.317.476-.46c.128-.128.264-.242.4-.362l.815-.7,1.683-1.313,1.751-1.193a78.4,78.4,0,0,1,16.643-7.918,135.541,135.541,0,0,1,17.738-4.778c3.714-.657,7.4-1.4,11.148-1.819,1.864-.226,3.729-.528,5.6-.71l5.616-.5c2.83-.309,5.676-.408,8.529-.551l4.265-.2c.755,0,1.411-.076,2.1-.121a13.609,13.609,0,0,0,2.053-.3,43.382,43.382,0,0,0,8.016-2.491c2.6-1.057,5.155-2.264,7.691-3.472,7.872-3.827,15.488-7.888,23.632-11.02,1.789-.7,3.563-1.336,5.4-1.94a55.413,55.413,0,0,1,7.4-1.895,11.413,11.413,0,0,1,3.419-.181,10.488,10.488,0,0,1,1.049.151c.755.294-2.1.921-7.072,2.31a136.86,136.86,0,0,0-21.889,8.7l-10.96,5.306a105.429,105.429,0,0,1-11.4,4.906,37.822,37.822,0,0,1-4.529,1.26c-.393.075-.755.159-1.177.219l-1.193.166c-.808.068-1.638.113-2.378.151l-9.1.453c-3.019.226-6.038.536-9.057.755s-6.038.755-9.057,1.17Z" transform="translate(-25.349 -5.829)" fill="#221f1f"/>
    <path id="Path_84433" data-name="Path 84433" d="M133.553,201.165l4.921,16.892,1.857,6.144,6.235,21.745c.921,3.215,1.879,6.438,2.823,9.624,1.215,4.091,2.506,8.189,3.389,12.371.536,2.612-1.97-.234-3.283-4.944-2.347-8.363-4.755-16.726-7.027-25.2-1.366-5.072-3.019-10.28-4.529-15.435q-2.491-8.491-5-17l-3.019-10.476-2.264-7.955c-.755-2.664-1.51-5.284-2.113-7.993a13.584,13.584,0,0,1-.294-1.827,4.19,4.19,0,0,1,.589-.853l.521-.619a27.093,27.093,0,0,1,2.264-2.264,33.521,33.521,0,0,1,5.11-3.865c.793-.513,1.6-.966,2.446-1.4,3.17-1.57,4.325-1.721,5.178-1.51a2.9,2.9,0,0,1,.566.151c.211.121,0,.377-.521.71s-1.419.755-2.529,1.3a38,38,0,0,0-9.269,6.182c-.679.642-1.351,1.306-1.962,2.008l-.438.528-.106.136h0l.174.868c.423,1.864.951,3.774,1.51,5.684,1.585,5.668,3.246,11.322,4.921,17.036Z" transform="translate(-23.991 -16.008)" fill="#221f1f"/>
    <path id="Path_84434" data-name="Path 84434" d="M166.23,302.259a24.274,24.274,0,0,0,3.917-5.865,15.978,15.978,0,0,0,.6-1.615c.189-.543.249-1.117.385-1.676a14.346,14.346,0,0,0,.174-1.713,5.954,5.954,0,0,0-.053-1.645,4.34,4.34,0,0,0-.755-2.023,1.51,1.51,0,0,0-1.419-.642,3.018,3.018,0,0,0-.845.226.264.264,0,0,0-.143.076l-.1.053-.3.317a18.029,18.029,0,0,0-1.253,1.857c-.823,1.344-1.661,2.725-2.536,4.076a71.281,71.281,0,0,1-5.774,7.737l-1.4,1.623-1.442,1.585c-.476.536-.981,1.034-1.51,1.555l-.755.755c-.226.257-.453.476-.657.755-2.129,2.657-3.321,6.272-6.038,9-.876.823-1.094.294-.83-.755a17.728,17.728,0,0,1,1.819-4.363,44.537,44.537,0,0,1,3.019-4.823,14.288,14.288,0,0,1,1.011-1.162l.966-.981c.642-.642,1.276-1.283,1.887-1.955a82.766,82.766,0,0,0,6.929-8.416c1.283-1.774,2.423-3.683,3.593-5.668.287-.491.6-.989.936-1.51a8.686,8.686,0,0,1,.6-.755c.121-.128.234-.257.377-.385a6.608,6.608,0,0,1,.559-.377,4.854,4.854,0,0,1,2.068-.5,3.343,3.343,0,0,1,2.144.83,4.755,4.755,0,0,1,1.283,1.9,8.227,8.227,0,0,1,.483,2.045,9.489,9.489,0,0,1,.053,1.034c0,.332-.045.657-.068.989l-.068.989a6.187,6.187,0,0,1-.174.966,18.115,18.115,0,0,1-3.185,7.087c-1.8,2.6-4.076,4.74-5.8,7.17a13.344,13.344,0,0,0-1.623,2.891,5.41,5.41,0,0,0-.226.755,3.969,3.969,0,0,0-.189.755,15.942,15.942,0,0,0-.113,1.645c0,2.332-.083,4.68-.3,7.012-.385,3.593-.951,7.231-2.77,10.567a15.035,15.035,0,0,1-1.344,2.083,15.552,15.552,0,0,1-1.389,1.411,12.291,12.291,0,0,1-1.11.755,2.362,2.362,0,0,1-1.51.3,1.9,1.9,0,0,1-.528-.113c-.219-.113-.106-.4.249-.793a9.452,9.452,0,0,1,.709-.649c.264-.287.581-.6.943-.921a14.341,14.341,0,0,0,2.521-3.63,23.034,23.034,0,0,0,1.51-4.363,38.646,38.646,0,0,0,.755-4.732c.151-1.608.234-3.246.264-4.9V314.29a17.585,17.585,0,0,1,.121-2.068,11.118,11.118,0,0,1,1.51-3.963,47.212,47.212,0,0,1,4.74-6.1Z" transform="translate(-28.93 -45.073)" fill="#221f1f"/>
    <path id="Path_84435" data-name="Path 84435" d="M128.2,335.324a143.754,143.754,0,0,0,3.246-14.794c.294-1.811.438-3.638.6-5.457.581-6.552,1.419-13.065,2.566-19.541.521-2.868,1.049-5.759,1.736-8.59a44.418,44.418,0,0,1,1.593-5.427,12.363,12.363,0,0,1,3.08-4.982c1.155-.8,1.132-.128.755.755s-.755,2.536-1.51,4.408a65.669,65.669,0,0,0-2.974,10.643c-.755,3.668-1.4,7.382-2,11.126-.355,2.264-.626,4.529-.845,6.861-.1,1.162-.2,2.325-.3,3.487s-.174,2.34-.294,3.517a115.829,115.829,0,0,1-2.876,15.216c-.755,3.072-1.593,6.121-2.43,9.171-.642,2.264-1.238,4.619-1.993,6.921s-1.593,4.529-2.513,6.748c-1.434,3.419-2.959,6.733-4.71,9.971-.392.709-.755,1.411-1.17,2.113-1.51,2.6-2.219,3.321-3.019,3.563a2.539,2.539,0,0,1-.536.151c-.513,0-.106-1.185.951-3.095a117.974,117.974,0,0,0,8.446-18.115c.845-2.378,1.51-4.77,2.181-7.269s1.359-4.951,1.993-7.427Z" transform="translate(-21.327 -42.897)" fill="#221f1f"/>
    <path id="Path_84436" data-name="Path 84436" d="M144.958,389.316c.37-2.03.694-4.083.974-6.144.1-.755.128-1.51.226-2.264.355-2.657.71-5.284,1.019-8,.136-1.185.2-2.385.272-3.578a13.579,13.579,0,0,1,.664-4.665c.234-.521.755-.189,1.268.332a2.665,2.665,0,0,1,.868,2.076c-.317,2.981-.6,6.106-1.193,9.2-.34,1.849-.393,3.812-.626,5.721-.249,2.1-.543,4.2-.883,6.295q-.317,1.932-.679,3.865c-.362,1.947-.815,3.887-1.291,5.812a42.865,42.865,0,0,1-1.185,4.491c-.128.325-.234.657-.377.981-.581,1.2-1.034,1.472-1.7,1.306a2.84,2.84,0,0,1-.453-.121c-.46-.226-.491-.838-.2-1.6a64.9,64.9,0,0,0,2.083-7.616c.438-2,.838-4.038,1.155-6.091Z" transform="translate(-27.969 -64.532)" fill="#221f1f"/>
    <path id="Path_84437" data-name="Path 84437" d="M135.777,377.965a24.817,24.817,0,0,1-3.019-1.276,11.937,11.937,0,0,1-1.094-.506,17.06,17.06,0,0,1-3.389-2.6c-.234-.2-.445-.453-.687-.664a8.332,8.332,0,0,1-.679-.687l-.43-.445c-.136-.166-.264-.34-.393-.513a2.6,2.6,0,0,1-.475-1.185c0-.279.566-.453,1.208-.513s1.268-.068,1.457.2a24.241,24.241,0,0,0,2.544,3.019,7.933,7.933,0,0,0,2.264,1.4,24.686,24.686,0,0,0,2.732,1.223,18.115,18.115,0,0,0,1.781.566,15.1,15.1,0,0,0,2.785.536,12.32,12.32,0,0,0,2.174-.128c.159,0,.317-.068.476-.076.589,0,.755.136.906.755a3.109,3.109,0,0,1,.091.445.913.913,0,0,1-.649,1.049,9.993,9.993,0,0,1-4.34.166,22.559,22.559,0,0,1-3.23-.755Z" transform="translate(-24.079 -65.792)" fill="#221f1f"/>
    <path id="Path_84438" data-name="Path 84438" d="M131.534,390.079c.634-2.038,1.283-4.068,1.879-6.084l.347-1.2a.618.618,0,0,0,0-.264.223.223,0,0,0-.143-.219c-.091-.023-.279.151-.355.309l-.106.272-.166.491-.234.755c-.619,2.008-1.2,4.061-1.8,6.106-.438,1.51-.868,3.019-1.344,4.529a36.984,36.984,0,0,1-1.683,4.529,8.848,8.848,0,0,1-1.253,2.045,3.773,3.773,0,0,1-.611.543,2.128,2.128,0,0,1-1.17.37,1.977,1.977,0,0,1-.709-.136l-.415-.226a2.483,2.483,0,0,1-.709-.694,3.019,3.019,0,0,1-.483-1.615,6.719,6.719,0,0,1,.128-1.283,20.823,20.823,0,0,1,.589-2.076l.264-.974.3-1.011q.309-1,.657-1.993c.468-1.313.966-2.589,1.434-3.865s.921-2.536,1.283-3.812.611-2.574.876-3.925c.128-.664.249-1.321.325-1.962a8.123,8.123,0,0,0,.083-.936,2.37,2.37,0,0,0-.045-.694s-.06,0,.091-.053a.619.619,0,0,0,.151-.091l.1-.053.075-.075h.038a.129.129,0,0,0,0-.038.754.754,0,0,0,0,.136,2.615,2.615,0,0,0,.053.264.755.755,0,0,0,.053.128h0a3.1,3.1,0,0,0-.581.506,5.072,5.072,0,0,0-.815,1.51c-.876,2.181-1.57,4.529-2.31,6.846s-1.5,4.634-2.332,6.959l-.423,1.064c-.159.37-.264.649-.559,1.238a7.125,7.125,0,0,1-.4.755l-.211.37-.234.317c-.075.106-.151.219-.234.317l-.249.249a4.576,4.576,0,0,1-.521.438,1.917,1.917,0,0,1-2.008.128,2.6,2.6,0,0,1-.951-1.781,9.057,9.057,0,0,1,.068-2.649l.083-.513.083-.453c.06-.3.121-.6.189-.9a30.751,30.751,0,0,1,1.042-3.48,20.062,20.062,0,0,1,1.51-3.344,2.725,2.725,0,0,1,.838-.951.944.944,0,0,1,.4-.151c.113,0,.159,0,.174.091s-.083.34-.106.6-.083.6-.143,1.011c-.2,1.638-.755,4.574-1.351,7.85l-.06.34v.159h0l.136-.309c.128-.279.249-.581.37-.868.476-1.185.913-2.423,1.344-3.668l2.513-7.6a34.717,34.717,0,0,1,1.51-3.925,5.482,5.482,0,0,1,.309-.566,3.638,3.638,0,0,1,.483-.626,5.531,5.531,0,0,1,1.026-.891,2.264,2.264,0,0,1,1.245-.415h.272a2.414,2.414,0,0,1,.317.076,1.653,1.653,0,0,1,.559.294,1.955,1.955,0,0,1,.574.755,3.02,3.02,0,0,1,.249.943c0,.257,0,.468,0,.672a24.605,24.605,0,0,1-.642,4.234c-.136.642-.279,1.336-.453,2.015s-.362,1.351-.574,2.015c-.6,1.872-1.321,3.691-1.993,5.495-.332.9-.657,1.8-.951,2.71q-.211.679-.408,1.359l-.385,1.427c-.143.506-.287.943-.4,1.374a5.284,5.284,0,0,0-.181,1.177,1.39,1.39,0,0,0,.045.37c0,.06,0,.1.06.1s0,0,.053.038h0c-.068.159.143-.355-.151.355h0a.106.106,0,0,0,0,.053h0a.981.981,0,0,0-.159-.445l.068-.06a3.713,3.713,0,0,0,.626-.906,13.119,13.119,0,0,0,.589-1.223c.362-.86.687-1.759,1-2.664,1.359-4,2.408-8.159,3.706-12.288l.309-.944c.128-.392.279-.808.423-1.2a7.065,7.065,0,0,1,1.019-1.947,2.7,2.7,0,0,1,1.3-.959,2.106,2.106,0,0,1,.921-.091,1.51,1.51,0,0,1,.845.4,3.072,3.072,0,0,1,.838,1.547,4.8,4.8,0,0,1,.113.928,5.185,5.185,0,0,1-.053,1.057c-.053.385-.151.755-.242,1.193l-.294,1.132-.453,1.562L133.1,393.03c-.37,1.261-.755,2.521-1.057,3.774-.159.626-.309,1.26-.445,1.895l-.121.589-.083.513a5.328,5.328,0,0,0-.068.755,1.419,1.419,0,0,0,.143.755.5.5,0,0,0,.709.038,1.819,1.819,0,0,0,.5-.6,7.668,7.668,0,0,0,.6-1.51c.272-.928.483-1.917.755-2.876.793-3.849,1.389-7.842,2.264-11.737.166-.755.347-1.51.559-2.264.106-.377.219-.755.355-1.147a5.4,5.4,0,0,1,.581-1.23,2.032,2.032,0,0,1,.362-.377,1.275,1.275,0,0,1,.408-.189,1.027,1.027,0,0,1,.309-.038,1.51,1.51,0,0,1,1.079.453,2.778,2.778,0,0,1,.634,1.457,11.97,11.97,0,0,1,.121,2.461,84.756,84.756,0,0,1-1.1,9.171c-.211,1.321-.415,2.619-.626,3.955-.815,4.944-1.079,6.4-1.51,7.337a.566.566,0,0,0-.045.332c0,.106.166.189.264.226s.249.2-.091.377a.679.679,0,0,1-.415,0,.974.974,0,0,1-.453-.287,2.121,2.121,0,0,1-.408-.8,12.643,12.643,0,0,1-.083-4.431c.309-2.747.755-5.48,1.162-8.227a72.389,72.389,0,0,0,.921-8.122,7.546,7.546,0,0,0-.113-1.706c0-.1-.068-.143,0-.174a1.645,1.645,0,0,0,.755-.536h0a.1.1,0,0,0,0,.06v.143a.378.378,0,0,0,0,.091h0c-.211-1.419-.06-.385-.106-.694a.128.128,0,0,0,0,.053.2.2,0,0,0,.045.1c0,.038.038,0,.083.113a1.351,1.351,0,0,0,.294.325c.1.045.294.249.468.37h0a5.374,5.374,0,0,0-.279.672c-.1.287-.2.6-.287.921-.181.642-.347,1.321-.5,2-.611,2.74-1.094,5.563-1.6,8.408-.2,1.057-.377,2.106-.6,3.208l-.1.43-.1.415-.189.755c-.128.528-.257,1.072-.415,1.623l-.083.294-.121.377-.249.755a14.775,14.775,0,0,1-.581,1.389,6.136,6.136,0,0,1-1.4,1.925,3.968,3.968,0,0,1-.755.483,3.582,3.582,0,0,1-.86.226,1.381,1.381,0,0,1-.5,0,1.841,1.841,0,0,1-.521-.091,2.43,2.43,0,0,1-.823-.468,2.83,2.83,0,0,1-.83-1.51,8.106,8.106,0,0,1-.053-2.6c.06-.506.136-1.019.234-1.51l.143-.755.091-.408c.113-.543.242-1.079.377-1.615.536-2.136,1.155-4.212,1.774-6.28Z" transform="translate(-22.003 -67.113)" fill="#221f1f"/>
    <path id="Path_84439" data-name="Path 84439" d="M340.177,197.793q-1.208-8.3-2.627-16.605c-.355-2.015-.755-4.015-1.132-6.038-1.268-7.08-2.619-14.16-4.249-21.134-.37-1.547-.755-3.095-1.17-4.642s-.883-3.064-1.328-4.582c-1.23-3.865-2.581-7.706-3.97-11.465-.4-1.185.226-1.306,1.193-.551a8.65,8.65,0,0,1,1.63,1.766,11.758,11.758,0,0,1,1.472,2.906l.543,1.51.476,1.51.936,3.019c.551,2.03,1.14,4.053,1.63,6.091q1.51,6.121,2.627,12.341c.921,4.959,2.045,10.069,3.019,15.133q1.51,8.363,2.785,16.756.755,5.163,1.51,10.333c.385,2.612.755,5.231,1.072,7.842l.521,3.917c.181,1.283.4,2.559.679,3.819a112.163,112.163,0,0,0,3.547,11.465c.279.845.566,1.676.815,2.544.883,3.261.823,4.423.287,5.208a3.021,3.021,0,0,1-.377.521c-.475.355-.974-.906-1.615-3.163-.974-3.359-2.3-6.793-3.434-10.393-.566-1.811-1.087-3.668-1.51-5.563-.226-.951-.4-1.91-.566-2.876l-.219-1.457-.2-1.4c-.755-5.585-1.51-11.193-2.4-16.771Z" transform="translate(-73.114 -7.618)" fill="#221f1f"/>
    <path id="Path_84440" data-name="Path 84440" d="M349.078,279.622a22.82,22.82,0,0,0-3.17-2.008,24.862,24.862,0,0,1-3.374-2.408,25.208,25.208,0,0,1-5.344-6.272,19.72,19.72,0,0,1-1.366-2.74,8.3,8.3,0,0,1-.664-3.208,3.9,3.9,0,0,1,.113-.853,2.431,2.431,0,0,1,.166-.46l.113-.234.113-.174a3.554,3.554,0,0,1,1.291-1.23,3.66,3.66,0,0,1,1.744-.347,6.041,6.041,0,0,1,1.51.332,17.088,17.088,0,0,1,4.529,2.861c1.336,1.11,2.589,2.264,3.819,3.457l1.827,1.766a15.218,15.218,0,0,0,1.819,1.57c1.2.755,2.581,1.434,3.9,2.144s2.664,1.419,3.97,2.174a45.436,45.436,0,0,1,4.921,3.17l1.155.951c.37.332.755.694,1.087,1.042a13.037,13.037,0,0,1,.974,1.177l.415.672a3.244,3.244,0,0,1,.362.7c.5,1.3-.128,1.162-.966.513s-2.264-1.585-3.872-2.891a66.727,66.727,0,0,0-9.707-6.038c-.86-.476-1.713-.928-2.6-1.449-.211-.121-.453-.279-.679-.415a6.793,6.793,0,0,1-.7-.521c-.423-.355-.755-.7-1.155-1.049-1.434-1.389-2.785-2.785-4.2-4.114a30.006,30.006,0,0,0-2.657-2.264,11.464,11.464,0,0,0-2.891-1.638,2.793,2.793,0,0,0-1.328-.181,1.246,1.246,0,0,0-.853.574c-.43.46-.257,1.653.068,2.672a18.99,18.99,0,0,0,3.9,6.446,23.707,23.707,0,0,0,5.955,4.823c.347.181.687.37,1.072.6a11.608,11.608,0,0,1,1.094.687,16.551,16.551,0,0,1,1.97,1.653,22.937,22.937,0,0,1,3.117,3.963c1.359,2.121,2.483,4.348,3.714,6.461a23.172,23.172,0,0,0,4.31,5.767,23.587,23.587,0,0,0,9.525,5.284,22.07,22.07,0,0,0,2.317.491c2.929.392,3.857.242,4.529.755a3.346,3.346,0,0,1,.483.332c.174.2-.038.4-.611.6a8.706,8.706,0,0,1-1.1.287c-.453.045-.989.083-1.593.1a20,20,0,0,1-5.336-.83,23.806,23.806,0,0,1-5.012-2.264,27.088,27.088,0,0,1-4.483-3.3,18.025,18.025,0,0,1-1.978-2.091c-.589-.755-1.125-1.51-1.63-2.264-1.51-2.317-2.7-4.7-4.023-6.936a35.3,35.3,0,0,0-2.113-3.185A17.715,17.715,0,0,0,349,279.63Z" transform="translate(-75.464 -38.853)" fill="#221f1f"/>
    <path id="Path_84441" data-name="Path 84441" d="M382.008,274.838a69.772,69.772,0,0,0,4.846,6.242c1.774,1.947,3.661,3.865,5.548,5.759,1.374,1.381,2.808,2.717,4.189,4.091q7.337,7.276,14.771,14.484c2.2,2.129,4.461,4.219,6.695,6.272,2.868,2.649,5.827,5.208,8.514,8.069.845.9.347,1.147-.755.8a12.952,12.952,0,0,1-4.446-2.815c-5.827-5.435-11.578-10.944-17.217-16.681-3.374-3.427-7.057-6.793-10.567-10.273q-2.883-2.853-5.736-5.759c-.936-.989-1.887-1.94-2.793-3.019s-1.751-2.106-2.589-3.185c-2.03-2.672-3.91-5.434-5.759-8.2-2.8-4.2-5.472-8.5-8.355-12.567a68.777,68.777,0,0,0-7.269-8.8c-.589-.589-1.185-1.125-1.8-1.676-1.14-1.019-1.947-1.585-2.468-2.061a3.389,3.389,0,0,1-.981-1.17,2.459,2.459,0,0,1-.234-.536c-.053-.257.242-.317.853-.181a8.227,8.227,0,0,1,2.5,1.215,38.215,38.215,0,0,1,7.684,7.608c2.264,2.846,4.332,5.857,6.363,8.884,3.019,4.529,5.9,9.057,9.057,13.443Z" transform="translate(-80.474 -34.899)" fill="#221f1f"/>
    <path id="Path_84442" data-name="Path 84442" d="M412.869,346.064c-.989-1.676-2.038-3.3-3.155-4.9-.408-.581-.876-1.117-1.291-1.7-1.464-2.03-3.019-4.053-4.529-6.038-.7-.876-1.449-1.721-2.2-2.536a23.494,23.494,0,0,1-2.793-3.268c-.483-.755,1.728-1.177,2.823.053a72.17,72.17,0,0,1,5.48,6.906c1,1.464,2.264,2.846,3.306,4.317,1.185,1.608,2.31,3.268,3.374,4.967l1.91,3.14a53.023,53.023,0,0,0,3.019,4.6,22.933,22.933,0,0,0,2.823,3.019l.679.589c.823.755,1.019,1.049.86,1.63a1.213,1.213,0,0,1-.106.392c-.174.392-.755.355-1.51-.143a22.046,22.046,0,0,1-5.54-5.963c-1.132-1.676-2.144-3.4-3.185-5.065Z" transform="translate(-91.076 -55.336)" fill="#221f1f"/>
    <path id="Path_84443" data-name="Path 84443" d="M420.613,329.8a22.374,22.374,0,0,1-3.019,2.385,10.647,10.647,0,0,1-1.17.755,14.973,14.973,0,0,1-4.71,1.623,13.205,13.205,0,0,1-2.264.2,4.106,4.106,0,0,1-2.838-.845c-.257-.2.083-.611.528-.951a3.772,3.772,0,0,1,.687-.423.883.883,0,0,1,.611-.106,9.639,9.639,0,0,0,4.529-.1A9.344,9.344,0,0,0,415.782,331a19.383,19.383,0,0,0,2.838-2.076,14.677,14.677,0,0,0,1.51-1.51,9.315,9.315,0,0,0,1.728-2.717,2.71,2.71,0,0,0,0-2.083.985.985,0,0,0-.091-.151c-.038-.045-.083-.083-.113-.128-.249-.309-.317-.453-.151-1,.038-.121.068-.249.106-.37a.521.521,0,0,1,.423-.377,1,1,0,0,1,.815.234,2.943,2.943,0,0,1,1.026,1.419,4.83,4.83,0,0,1,.181.845,5.86,5.86,0,0,1,0,.815,7.245,7.245,0,0,1-.936,2.778,15.022,15.022,0,0,1-2.468,3.155Z" transform="translate(-92.963 -53.784)" fill="#221f1f"/>
    <path id="Path_84444" data-name="Path 84444" d="M430.94,347.432a24.674,24.674,0,0,1-2.581-3.849c-.755-1.276-1.419-2.551-2.121-3.812s-1.389-2.5-2.144-3.646a11.841,11.841,0,0,0-1.17-1.547,2.566,2.566,0,0,0-.287-.287,1.337,1.337,0,0,0-.242-.189c-.045-.045-.053,0-.06-.038h0a.967.967,0,0,1,.045-.181.392.392,0,0,0,0-.136.5.5,0,0,0,0-.106h0l.37.083h0a.257.257,0,0,0,.083.038h.06v.06a.346.346,0,0,0,0,.136,3.191,3.191,0,0,0,.189.891,14.614,14.614,0,0,0,1.51,2.966c.626.989,1.313,1.955,2.008,2.913,1.238,1.713,2.544,3.329,3.9,5.05a12.49,12.49,0,0,1,1.819,3.019,3.713,3.713,0,0,1,.241,1.1,2.543,2.543,0,0,1-.06.755,2.083,2.083,0,0,1-.408.755,1.879,1.879,0,0,1-.657.506l-.34.143a2.331,2.331,0,0,1-.294.068,2.635,2.635,0,0,1-1.306,0,4.8,4.8,0,0,1-1.721-1.1,15.614,15.614,0,0,1-1.215-1.238,30.69,30.69,0,0,1-2.03-2.6c-1.261-1.774-2.415-3.585-3.563-5.4l-1.51-2.393-.385-.581-.2-.279-.174-.234a2.674,2.674,0,0,0-.491-.513.491.491,0,0,0-.626-.045,1.034,1.034,0,0,0-.272.611,1.7,1.7,0,0,0,0,.332v.559a7.767,7.767,0,0,0,.189,1.245,22.245,22.245,0,0,0,2.861,6.3,33.52,33.52,0,0,0,4.325,5.487c1.019,1,.521,1.4-.868.989a10.8,10.8,0,0,1-5.208-4.295,25.45,25.45,0,0,1-3.389-7.118,10.782,10.782,0,0,1-.408-2.121,2.932,2.932,0,0,0-.038-.566v-.634l.106-.9c.053-.287.151-.559.219-.845a3.831,3.831,0,0,1,.355-.755,3.326,3.326,0,0,1,.491-.581,2.264,2.264,0,0,1,1.351-.626,2.749,2.749,0,0,1,.755,0,6.729,6.729,0,0,1,.755.234c.226.136.453.309.679.46a4.291,4.291,0,0,1,.626.6,6.455,6.455,0,0,1,.891,1.094l.536.808,1,1.585,1.955,3.14a48.965,48.965,0,0,0,4.182,5.872,6.136,6.136,0,0,0,1.366,1.2,1.018,1.018,0,0,0,.189.083.332.332,0,0,0,.151,0h.113l.038.053c.091.189.249.242.083.166H430.4v-.053a1.625,1.625,0,0,0-.053-.294,5.16,5.16,0,0,0-.377-.823,12.947,12.947,0,0,0-1.193-1.736,90.932,90.932,0,0,1-5.631-7.359,25.219,25.219,0,0,1-1.827-3.23,8.3,8.3,0,0,1-.634-1.932,3.563,3.563,0,0,1,0-1.245,2.34,2.34,0,0,1,.755-1.4l.143-.121h.091a2.069,2.069,0,0,1,.861-.159,2.5,2.5,0,0,1,.415.053,2.456,2.456,0,0,1,.332.113,2.265,2.265,0,0,1,.544.294,2.4,2.4,0,0,1,.423.325,8.819,8.819,0,0,1,1.23,1.366,31.507,31.507,0,0,1,1.827,2.831c1.11,1.895,2.113,3.819,3.185,5.676a32.339,32.339,0,0,0,1.781,2.808,7.117,7.117,0,0,0,1,1.125l.234.166c.053,0,.128.068.143.06s0,0,0,.045h0l.091.181c-.068-.1-.2-.076-.174-.106a.317.317,0,0,0,0-.121,1.705,1.705,0,0,0-.075-.468,6.525,6.525,0,0,0-.423-1.155,24.3,24.3,0,0,0-1.245-2.347c-1.578-2.634-3.382-5.185-5.087-7.835-.423-.672-.838-1.344-1.23-2.068a5.957,5.957,0,0,1-.521-1.223,2.53,2.53,0,0,1-.075-.468,1.443,1.443,0,0,1,.075-.4,1.273,1.273,0,0,1,.1-.219,1.412,1.412,0,0,1,1.849-.755,3.018,3.018,0,0,1,.679.392,6.8,6.8,0,0,1,.943.906,19.263,19.263,0,0,1,1.457,1.925c.34.5.664,1,.974,1.51l.468.755c.158.242.332.536.476.755.581,1.057,1.087,2.1,1.623,3.117a26.864,26.864,0,0,0,1.706,2.9,4.28,4.28,0,0,0,.928,1.034.406.406,0,0,0,.128.068,1.445,1.445,0,0,0-.045.2v.06a.561.561,0,0,0-.06-.136.339.339,0,0,0-.076-.1h0a1.128,1.128,0,0,1,.091-.128l.189-.242.076.166h-.053a1.154,1.154,0,0,0-.151-.045h0a.552.552,0,0,0,0-.158,2.457,2.457,0,0,0-.189-.521,11.246,11.246,0,0,0-.687-1.208c-1.019-1.51-1.827-2.574-2.264-3.381a3.268,3.268,0,0,1-.566-1.932,1.51,1.51,0,0,1,.143-.7c.219-.181.423-.1.928.347a22.347,22.347,0,0,1,2.219,2.362,26.034,26.034,0,0,1,1.827,2.461,8.378,8.378,0,0,1,.808,1.585,3.714,3.714,0,0,1,.219,1.17,2.415,2.415,0,0,1,0,.4,1.542,1.542,0,0,1-.106.438,2.452,2.452,0,0,1-.558.86l.226-.272a5.292,5.292,0,0,1-.332.453,2.5,2.5,0,0,1-.551.46,2.128,2.128,0,0,1-.838.309,2.158,2.158,0,0,1-.868-.06,2.263,2.263,0,0,1-.649-.264,2.953,2.953,0,0,1-.438-.3,4.562,4.562,0,0,1-.642-.611,14.118,14.118,0,0,1-1.608-2.34c-.883-1.51-1.615-3.132-2.378-4.574-.1-.181-.189-.355-.287-.513l-.309-.506-.679-1.087c-.445-.7-.906-1.389-1.381-2.008a9.482,9.482,0,0,0-.755-.853,3.011,3.011,0,0,0-.332-.309c-.053-.053-.091-.068-.128-.106h-.038l.038-.083a1.6,1.6,0,0,0,.226-.928.7.7,0,0,0,.181.219.974.974,0,0,0,.257.189,2.076,2.076,0,0,0,.392.234h0L425.9,331h0a.43.43,0,0,0,.189.06.37.37,0,0,0,.181,0h.347a2.873,2.873,0,0,0,.355-.053l.166-.053.113-.038v.045a.264.264,0,0,0,.06.159c.06.068.06.136.106.219a36.433,36.433,0,0,0,2.181,3.54l2.445,3.668c.815,1.253,1.623,2.506,2.378,3.857a21.438,21.438,0,0,1,1.057,2.166,6.936,6.936,0,0,1,.4,1.359,3.591,3.591,0,0,1,.068.943,4.124,4.124,0,0,1-.128.664,3.1,3.1,0,0,1-.415.755l-.045.06-.06.053a4.614,4.614,0,0,1-.664.476,3.4,3.4,0,0,1-.913.242,3.857,3.857,0,0,1-.838-.1c-.2-.075-.408-.158-.6-.249a5.613,5.613,0,0,1-1.366-1.147Z" transform="translate(-94.987 -55.986)" fill="#221f1f"/>
    <path id="Path_84445" data-name="Path 84445" d="M353.556,252.63l-1.427-5.148c-.174-.626-.392-1.238-.551-1.872-.589-2.212-1.14-4.446-1.645-6.687-.2-1-.476-1.993-.672-3.019-.121-.642-.3-1.276-.362-1.947-.038-.34-.068-.672-.091-1a5.6,5.6,0,0,1,.1-1.049c.045-.347.423-.294.755.068a2.914,2.914,0,0,1,.755,1.6c.3,2.476.921,5.05,1.419,7.646.309,1.562.838,3.132,1.276,4.7l1.457,5.17.906,3.185c.445,1.615.9,3.238,1.344,4.838.355,1.245.755,2.453,1.072,3.714.06.279.136.551.2.838a3.093,3.093,0,0,1,.068,1.162.755.755,0,0,1-.34.528.953.953,0,0,1-.242.159c-.279.091-.559-.317-.7-1.019-.528-2.113-1.223-4.408-1.864-6.71l-1.51-5.155Z" transform="translate(-78.809 -31.984)" fill="#221f1f"/>
    <path id="Path_84446" data-name="Path 84446" d="M104.134,279.833l4.2-1.585c.513-.189,1-.43,1.51-.619l5.427-1.947c.8-.294,1.585-.634,2.355-.989a16.261,16.261,0,0,1,3.019-1.215c.317-.075.491.362.408.891a1.819,1.819,0,0,1-.989,1.4,52.685,52.685,0,0,1-6.28,2.264,36.778,36.778,0,0,0-3.819,1.51l-4.212,1.615-2.589,1.019c-1.3.528-2.6,1.042-3.865,1.63-.974.468-1.879,1.026-2.785,1.562-.2.113-.385.249-.581.362-.755.43-.921.423-1.389.151-.106-.068-.219-.121-.317-.189a.4.4,0,0,1-.151-.491,1.177,1.177,0,0,1,.2-.347,1.969,1.969,0,0,1,.355-.355,26.048,26.048,0,0,1,5.284-2.929c1.381-.611,2.793-1.17,4.189-1.744Z" transform="translate(-16.34 -42.233)" fill="#221f1f"/>
    <path id="Path_84447" data-name="Path 84447" d="M106.872,302.558q2.347,2.212,4.71,4.4c.581.528,1.193,1.019,1.766,1.555,2.03,1.872,4.046,3.774,6.1,5.616.913.823,1.864,1.608,2.808,2.378a32.68,32.68,0,0,1,3.57,3.019c.664.717-1.4,1.268-2.8.113-2.461-2.045-4.846-4.174-7.125-6.469-1.366-1.366-2.929-2.619-4.393-3.94l-4.793-4.408-2.929-2.732-4.461-4.1c-1.147-1.064-2.34-2.038-3.48-3.11-.257-.234-.506-.46-.755-.71-.891-.951-1.079-1.434-.815-1.947a1.191,1.191,0,0,1,.2-.317c.3-.234.755-.053,1.374.543,1.978,1.774,4.144,3.714,6.257,5.684l4.77,4.385Z" transform="translate(-16.368 -46.731)" fill="#221f1f"/>
    <path id="Path_84448" data-name="Path 84448" d="M104.469,304.59c1.555,1.427,3.117,2.853,4.695,4.257l1.759,1.51c2.03,1.819,4.046,3.646,6.091,5.434.913.755,1.857,1.555,2.793,2.264a37.033,37.033,0,0,1,3.555,2.951c.679.694-1.253,1.132-2.634,0-2.446-1.978-4.823-4.038-7.118-6.242-1.366-1.321-2.921-2.536-4.378-3.819l-4.778-4.265-2.921-2.649-4.4-3.97c-1.147-1.026-2.317-1.985-3.442-3.019-.249-.226-.5-.453-.755-.694-.883-.928-1.072-1.4-.853-1.879a1.146,1.146,0,0,1,.166-.287c.264-.226.657,0,1.3.574l6.189,5.57,4.74,4.272Z" transform="translate(-15.837 -47.291)" fill="#221f1f"/>
    <path id="Path_84449" data-name="Path 84449" d="M103.493,305.39c1.555,1.389,3.117,2.778,4.695,4.144l1.759,1.457c2.023,1.766,4.038,3.54,6.084,5.284.913.755,1.857,1.51,2.793,2.227a34.881,34.881,0,0,1,3.555,2.861c.672.672-1.238,1.147-2.619.068-2.446-1.917-4.823-3.917-7.11-6.038-1.366-1.283-2.921-2.461-4.378-3.706l-4.778-4.144-2.913-2.581-4.4-3.925c-1.14-1-2.264-1.932-3.427-2.959-.249-.219-.5-.445-.755-.679-.876-.913-1.072-1.381-.845-1.857a.958.958,0,0,1,.166-.287c.264-.219.649,0,1.283.559l6.167,5.419,4.733,4.159Z" transform="translate(-15.608 -47.555)" fill="#221f1f"/>
    <path id="Path_84450" data-name="Path 84450" d="M170.971,191.9a44.063,44.063,0,0,0-5.834,1.63,49.424,49.424,0,0,0-5.578,2.453c-1.321.679-2.589,1.464-3.834,2.264l-.566.362-.113.075V199l.143.483.279.959,1.14,3.834,2.264,7.676c.679,2.264,1.419,4.529,2.159,6.793.943,2.861,1.985,5.714,2.71,8.65.453,1.827-1.932.083-3.019-3.23-1.887-5.865-3.676-11.767-5.283-17.768-.491-1.789-1.042-3.6-1.615-5.427l-.43-1.359-.332-1.057-.083-.287-.045-.143s-.06-.106,0-.121l.476-.362.483-.347.408-.279.6-.4c.415-.264.823-.521,1.238-.755a48.458,48.458,0,0,1,11.677-5.019,39.061,39.061,0,0,1,7.8-1.359c3.9-.317,7.827-.385,11.692-.581a78.036,78.036,0,0,0,8.808-.891c.619-.128,1.238-.242,1.849-.4s1.034-.257,1.4-.377c.189-.06.362-.106.521-.143s.279-.1.408-.128a3.6,3.6,0,0,1,.642-.121,1.677,1.677,0,0,1,.513,0,4.3,4.3,0,0,1,.483.053c.219.076.189.309-.143.755-.083.1-.181.211-.3.332l-.423.294c-.159.106-.332.211-.528.325a4.743,4.743,0,0,1-.626.272,19.089,19.089,0,0,1-4.076,1.064c-1.381.242-2.77.377-4.166.506-2.793.234-5.6.332-8.4.46-2.083.091-4.159.189-6.235.325a44.291,44.291,0,0,0-6.038.755Z" transform="translate(-30.772 -20.987)" fill="#221f1f"/>
    <path id="Path_84451" data-name="Path 84451" d="M194.381,220.53a80.586,80.586,0,0,0,10.492-2.061,18.586,18.586,0,0,0,3.427-1.464c.219-.136.453-.264.664-.408l.6-.468.5-.528c.06-.075.151-.234.174-.257l.075-.091v-.128l-.075-.37-.181-.853-.37-1.7-1.51-6.793c-.453-2.008-.966-4.015-1.51-5.993-.679-2.529-1.427-5.087-1.97-7.593a.589.589,0,0,1,0-.362.461.461,0,0,1,.068-.121h0l.068-.053c.083-.053.106-.075.083-.053s-.038,0,0,0h.242a1.23,1.23,0,0,1,.46.279,6.386,6.386,0,0,1,1.811,3.147c1.366,5.208,2.544,10.439,3.555,15.768.151.793.325,1.593.5,2.4l.272,1.208.136.6.106.453a1.985,1.985,0,0,1,.091.5l-.528.853a3.019,3.019,0,0,1-.453.566,6.538,6.538,0,0,1-1.042.959c-.362.279-.755.5-1.132.755a5.572,5.572,0,0,1-1.185.581,30.57,30.57,0,0,1-5.359,1.638c-1.8.408-3.608.755-5.412,1.011L190.335,223a85.841,85.841,0,0,0-9.9,2.015,27.173,27.173,0,0,0-6.959,3.019c-.468.287-.876.626-1.321.936-1.562,1.245-1.917,1.721-2.6,1.774a3.4,3.4,0,0,1-.453.045c-.219,0-.257-.257-.113-.664a4.826,4.826,0,0,1,.355-.755,10.786,10.786,0,0,1,.7-.868,18.009,18.009,0,0,1,6.295-3.97,46.633,46.633,0,0,1,7.163-2.106c3.608-.793,7.246-1.313,10.839-1.895Z" transform="translate(-34.694 -22.067)" fill="#221f1f"/>
    <path id="Path_84452" data-name="Path 84452" d="M288.755,260.11a29.657,29.657,0,0,0-3.857,1.366c-.626.272-1.253.566-1.887.868a5.094,5.094,0,0,1-1.691.626,1.4,1.4,0,0,1-.362-.038.468.468,0,0,1-.31-.2l-.46-.6-1.26-3.774-1.064-3.291c-.559-1.789-1.162-3.57-1.661-5.382-.415-1.51-.823-3.019-1.162-4.574-.181-.755-.332-1.51-.491-2.31l-.211-1.17-.06-.3-.06-.423-.128-.845a3.818,3.818,0,0,1,.151-.838,1.607,1.607,0,0,1,.808-.37c.332-.06.71-.091,1.034-.128l.649-.053c.868-.076,1.721-.151,2.574-.242a32.169,32.169,0,0,0,5.012-.853,9.436,9.436,0,0,0,1.91-.755l1.895-1.094c1.276-.755,2.574-1.442,3.887-2.083a37.891,37.891,0,0,1,5.284-2.174,18.484,18.484,0,0,1,5.676-.943c1.215,0,1.011.491.068.981a27.173,27.173,0,0,1-4.529,1.683,48.081,48.081,0,0,0-10.122,4.529l-1.268.71a9.558,9.558,0,0,1-1.51.626,21.326,21.326,0,0,1-2.944.7c-1.947.325-3.887.475-5.8.6l-.611.038h-.174a.542.542,0,0,0-.189,0,.7.7,0,0,0,0,.174l.045.347v.257l.06.34c.091.46.166.921.272,1.381.2.928.423,1.849.649,2.77.475,1.849,1.011,3.691,1.562,5.517.483,1.645,1,3.276,1.51,4.914l1.51,4.529.076.257c.076.045.166,0,.249-.053l.242-.106.5-.242c.755-.377,1.578-.755,2.385-1.064a30.953,30.953,0,0,1,4.642-1.464c.755-.181,1.593-.325,2.393-.438s1.623-.166,2.393-.257a35.025,35.025,0,0,0,6.959-1.351,14.025,14.025,0,0,0,5.978-3.321,3.491,3.491,0,0,0,.362-.445c.076-.1.166-.211.1-.347l-.272-1.23c-.2-.9-.408-1.8-.6-2.687-.415-1.789-.823-3.57-1.23-5.359-.181-.755-.362-1.555-.543-2.347-.634-2.959-.71-3.925-.362-4.649a2.4,2.4,0,0,1,.242-.483c.309-.355.853.755,1.4,2.936.815,3.178,1.577,6.453,2.31,9.812.181.838.37,1.668.551,2.513l.317,1.51.038.309c0,.1.053.211,0,.294a4.434,4.434,0,0,1-.309.551,4.31,4.31,0,0,1-.332.468c-.083.1-.166.211-.257.3a13.4,13.4,0,0,1-4.733,3.147,30.674,30.674,0,0,1-7.782,2.03c-1.306.174-2.679.287-3.865.43a26.213,26.213,0,0,0-3.623.755Z" transform="translate(-60.488 -31.704)" fill="#221f1f"/>
    <path id="Path_84453" data-name="Path 84453" d="M263.785,328.893c-3.389,1.193-6.793,2.393-10.2,3.525s-6.936,2.113-10.446,2.974c-2.559.626-5.117,1.26-7.706,1.751a120.874,120.874,0,0,1-27.746,2.317,66.977,66.977,0,0,1-12.318-1.51,38.69,38.69,0,0,1-7.616-2.476,24.4,24.4,0,0,1-6.725-4.446c-1.223-1.177-.581-1.442.838-1.019a54.754,54.754,0,0,1,6.2,2.664,45.288,45.288,0,0,0,14.779,3.955,76.977,76.977,0,0,0,7.827.521c2.627.045,5.284,0,7.925-.121a121.607,121.607,0,0,0,19.285-2.845c3.5-.755,6.989-1.615,10.431-2.612s6.831-2.189,10.242-3.374l12.552-4.491c6.333-2.264,12.718-4.529,19.043-6.718,4.921-1.683,9.722-3.427,14.726-4.816,1.1-.3,2.181-.6,3.329-.838a15.9,15.9,0,0,1,4.657-.453,2.778,2.778,0,0,1,2.106,1.011,1.056,1.056,0,0,1,.226.755c-.045.143-.181.166-.317.181s-.317,0-.589,0a19.476,19.476,0,0,0-3.1.34,63.629,63.629,0,0,0-6.6,1.63c-2.227.657-4.468,1.374-6.725,2.113-4.529,1.51-9.057,3.072-13.647,4.695l-20.379,7.344Z" transform="translate(-37.51 -51.403)" fill="#221f1f"/>
    <path id="Path_84454" data-name="Path 84454" d="M177.192,253.147a2.113,2.113,0,0,1,.219,1.691,1.646,1.646,0,0,0-.053.476.106.106,0,0,0,.075.091,1.027,1.027,0,0,0,.642-.272c.566-.453,1.1-1.177,1.8-1.857a4.854,4.854,0,0,1,1.1-.838,2.37,2.37,0,0,1,.808-.264,2.543,2.543,0,0,1,.755,0c.476.06.868.181,1.223.257l.521.1a2.061,2.061,0,0,0,.445,0,3.585,3.585,0,0,0,1.51-.559c.551-.317,1.117-.679,1.744-1.027a7.081,7.081,0,0,1,1.049-.46,4.63,4.63,0,0,1,.619-.159,2.478,2.478,0,0,1,.347,0h.294a14.285,14.285,0,0,0,1.895-.1,8.718,8.718,0,0,0,4.015-1.4c.106-.06.2-.158.317-.174.325-.045.642.347.619.755,0,.1,0,.249-.045.279-.5.3-.657,1.079-1.283,1.313a16.7,16.7,0,0,1-3.532,1.049,8.565,8.565,0,0,1-1.457.068l-.46-.038H190a1.615,1.615,0,0,0-.626.083,6.039,6.039,0,0,0-.913.415c-.438.226-.989.574-1.691.944a5.852,5.852,0,0,1-1.245.506,2.529,2.529,0,0,1-.823.106,4.1,4.1,0,0,1-.755-.083c-.936-.174-1.834-.521-2.264-.279a8.228,8.228,0,0,0-1.8,1.51,7.153,7.153,0,0,1-1,.83,2.453,2.453,0,0,1-1.328.468,1.23,1.23,0,0,1-1.238-.755,1.434,1.434,0,0,1-.045-.657,3.022,3.022,0,0,1,.083-.4,5.711,5.711,0,0,1,.264-.71A8.674,8.674,0,0,0,177.192,253.147Z" transform="translate(-36.496 -36.146)" fill="#221f1f"/>
    <path id="Path_84455" data-name="Path 84455" d="M180.227,264.623a1.586,1.586,0,0,0,.332.423c.06,0,.1.075.151.075h.068c.053,0,.038-.038.091-.091l.045-.045a.467.467,0,0,1,.151,0,4.7,4.7,0,0,0,1.464-.264l.355-.128h.045c.06.159-.121-.34.128.347h0a2.355,2.355,0,0,0-.113-.294h0l.1-.083c.174-.151.377-.355.581-.559a10.766,10.766,0,0,1,1.2-1.057l.211-.136a1.683,1.683,0,0,1,.309-.158,1.51,1.51,0,0,1,.679-.226,5.094,5.094,0,0,1,.9.158c.891.2,1.728.528,2.219.332a9.465,9.465,0,0,0,2.2-.83c.438-.219.883-.453,1.344-.71a7.02,7.02,0,0,1,1.4-.672.872.872,0,0,1,.128-.045.436.436,0,0,1,.159.053.581.581,0,0,1,.377.664c0,.068,0,.174-.038.2-.34.181-.362.845-.7,1.019a16.663,16.663,0,0,0-1.9,1.2,4.228,4.228,0,0,1-.883.385,9.927,9.927,0,0,1-1.253.242c-.143,0-.415.068-.755.106h-.37a3.331,3.331,0,0,1-.415-.045,5.869,5.869,0,0,1-.755-.174c-.483-.136-1.011-.309-1.51-.4a1.624,1.624,0,0,0-.264,0,.106.106,0,0,0-.083,0,4.688,4.688,0,0,0-.6.468c-.43.377-.823.755-1.328,1.162-.06.053-.143.106-.219.159a1.946,1.946,0,0,1-.309.136c-.143.045-.279.091-.415.121a6.1,6.1,0,0,1-.755.143,4.8,4.8,0,0,1-1.23,0,1.616,1.616,0,0,1-.679-.242.883.883,0,0,1-.347-.634.868.868,0,0,1,.075-.377A1.677,1.677,0,0,1,180.227,264.623Z" transform="translate(-37.401 -39.093)" fill="#221f1f"/>
    <path id="Path_84456" data-name="Path 84456" d="M197.641,309.959a.71.71,0,0,1,.257-.868,1,1,0,0,1,1.1-.076,5.14,5.14,0,0,1,1.162.906l.106.106h.045l.083-.053a7.933,7.933,0,0,0,1.751-1.57,4.527,4.527,0,0,1,.815-.8l.287-.234c.121-.091.279-.219.423-.309a2.046,2.046,0,0,1,.906-.332,1.155,1.155,0,0,1,.845.242,1.381,1.381,0,0,1,.475.755,3.679,3.679,0,0,1,.1.544v.068h0l-.068-.053-.287-.189-.287-.189-.143-.091c0-.219-.136,1.645-.083.853h0a.2.2,0,0,0,0-.113.935.935,0,0,1-.075-.166,1.049,1.049,0,0,0-.091-.211,1.288,1.288,0,0,0-.106-.2c-.075-.136-.045-.091-.045-.1h.076l.46-.287a14.032,14.032,0,0,1,3.729-1.706,5.792,5.792,0,0,1,1.1-.181,5.065,5.065,0,0,1,.589,0h.46a6.711,6.711,0,0,0,1.676-.136,4.528,4.528,0,0,0,1.7-.823l1.645-1.306c.091-.076.181-.189.3-.211.34-.075.694.287.755.755,0,.106.053.257,0,.287-.43.362-.347,1.177-.845,1.51s-.928.679-1.464,1.011a5.9,5.9,0,0,1-1.781.755,5.065,5.065,0,0,1-1.51.121,7.2,7.2,0,0,1-.913-.106,3.018,3.018,0,0,0-.679-.068,6.612,6.612,0,0,0-2.476.755c-.3.143-.611.317-.936.506l-1.064.642-.143.076h-.06a.831.831,0,0,1-.272.053c0,.151-.423-.385-.619-.581h0v-.091c0-.038,0-.091-.06-.1a.181.181,0,0,0-.121,0l-.159.128c-.574.543-1.306,1.072-1.962,1.6a7.183,7.183,0,0,1-1.079.672,2.873,2.873,0,0,1-.3.143l-.445.143h-.317s-.045.038-.045-.038H200a.7.7,0,0,1-.377-.159,2.156,2.156,0,0,1-.3-.287l-.181-.189-.264-.287a2.824,2.824,0,0,0-.43-.377.823.823,0,0,0-.242-.136.324.324,0,0,0-.06-.083C198.087,309.771,197.936,309.71,197.641,309.959Z" transform="translate(-41.728 -49.528)" fill="#221f1f"/>
    <path id="Path_84457" data-name="Path 84457" d="M282.841,163.273c.385.755.408,1.245.483,1.253a.737.737,0,0,0,.385.091,2.31,2.31,0,0,0,.445-.053l.136-.053.159-.091a12.76,12.76,0,0,0,1.57-1.411,12.209,12.209,0,0,1,1.608-1.366,4.527,4.527,0,0,1,1.094-.543,4.363,4.363,0,0,1,.558-.143l.5-.106c1.14-.257,2.264-.491,3.381-.694a28.474,28.474,0,0,0,3.261-.755,14.208,14.208,0,0,0,1.811-.619,9.584,9.584,0,0,0,1.562-.883c.083-.06.143-.151.249-.158a.8.8,0,0,1,.642.755v.264c-.408.287-.483,1.034-1,1.26-.951.408-1.872.891-2.846,1.215a7.942,7.942,0,0,1-1.185.279c-.506.075-1.026.1-1.51.158l-2.566.385c-.626.106-1.321.2-2.03.37a3.073,3.073,0,0,0-.43.113,3.019,3.019,0,0,0-.408.211,6.627,6.627,0,0,0-.838.619c-.559.475-1.094,1.019-1.668,1.51a6.484,6.484,0,0,1-.928.672,2.906,2.906,0,0,1-.559.249l-.332.075h-.257a2.763,2.763,0,0,1-1.019-.106,1.4,1.4,0,0,1-.83-.664,1.306,1.306,0,0,1-.128-.755,1.859,1.859,0,0,1,.068-.309A2.166,2.166,0,0,1,282.841,163.273Z" transform="translate(-62.461 -13.855)" fill="#221f1f"/>
    <path id="Path_84458" data-name="Path 84458" d="M284.806,175a8.306,8.306,0,0,0,.468.9,2.7,2.7,0,0,1,.128.37,2.389,2.389,0,0,0,.06.272.317.317,0,0,0,.045.136c.121,0,.113,0,.234-.091a4.278,4.278,0,0,0,.672-.611,16.378,16.378,0,0,1,1.661-1.668,4.25,4.25,0,0,1,.611-.385,3.209,3.209,0,0,1,.755-.249,3.955,3.955,0,0,1,1.434,0c.868.181,1.51.475,2.091.513.823.106,1.849-.551,2.876-1.26a9.292,9.292,0,0,1,1.849-1.034,12.338,12.338,0,0,1,2-.6c.755-.174,1.51-.264,2.264-.408s1.359-.3,2-.46c.113,0,.211-.075.332-.038a.755.755,0,0,1,.438.943c0,.1-.038.257-.091.272-.528.2-.83,1-1.442,1.11a23.161,23.161,0,0,0-3.163.755l-1.155.287a7.677,7.677,0,0,0-1.419.423c-.257.083-1.011.657-2.264,1.26a6.791,6.791,0,0,1-1.049.4,3.7,3.7,0,0,1-1.351.1,20.089,20.089,0,0,1-2.264-.559,2.5,2.5,0,0,0-.845-.038,1.587,1.587,0,0,0-.332.1,2.576,2.576,0,0,0-.355.211,15.85,15.85,0,0,0-1.411,1.276,7.544,7.544,0,0,1-.7.611,3.316,3.316,0,0,1-.377.257l-.2.113a1.221,1.221,0,0,0-.264.091,1.577,1.577,0,0,1-1.472-.181,1.192,1.192,0,0,1-.309-.445,2.419,2.419,0,0,1-.038-.506,1.874,1.874,0,0,1,0-.377v-.4A2.906,2.906,0,0,1,284.806,175Z" transform="translate(-62.969 -16.954)" fill="#221f1f"/>
    <path id="Path_84459" data-name="Path 84459" d="M289.25,283.182a2.861,2.861,0,0,1,.883-.476,1.774,1.774,0,0,1,.679-.121c1.457-.1,2.8-1.034,4.363-1.811a7.329,7.329,0,0,1,4.687-.815l.257.038h.151a1,1,0,0,0,.3,0,1.833,1.833,0,0,0,.611-.189,6.643,6.643,0,0,0,1.344-.966,14.156,14.156,0,0,1,1.623-1.253,4.724,4.724,0,0,1,1.072-.438q.461-.143.928-.272c.755-.166,1.464-.279,2.144-.46a11.318,11.318,0,0,0,1.857-.6.641.641,0,0,1,.3-.113c.3,0,.589.445.543.883,0,.1,0,.249-.06.272-.491.234-.694,1.034-1.291,1.208-1.087.317-2.144.657-3.14.928-.2.045-.4.083-.6.113l-.551.083a2.823,2.823,0,0,0-1.193.506q-.226.143-.815.611a6.709,6.709,0,0,1-1.744,1.042,3.147,3.147,0,0,1-1.4.181l-.642-.106c-.166,0-.332-.075-.506-.083a5.087,5.087,0,0,0-2.181.332c-1.464.528-2.891,1.449-4.2,1.834a4.891,4.891,0,0,1-2.43.158A3.719,3.719,0,0,1,289.25,283.182Z" transform="translate(-64.206 -42.783)" fill="#221f1f"/>
    <path id="Path_84460" data-name="Path 84460" d="M292.86,294.473a6.79,6.79,0,0,0,1.162-.4c.408-.151.755-.694,1.177-1.132.211-.242.415-.491.657-.755a5.586,5.586,0,0,1,.423-.408,1.752,1.752,0,0,1,.294-.219,1.812,1.812,0,0,1,.287-.151,3.541,3.541,0,0,1,.989-.355,2.415,2.415,0,0,1,1.276.1,3.721,3.721,0,0,1,.913.543,2.671,2.671,0,0,0,.581.34,3.389,3.389,0,0,0,2.264-.234,19.756,19.756,0,0,0,2.521-1.223l1.51-.838a7.222,7.222,0,0,1,1.6-.755.755.755,0,0,1,.309-.076.588.588,0,0,1,.377.755c0,.076,0,.2-.06.219-.4.151-.453.853-.83,1.049a20.14,20.14,0,0,0-2.113,1.313,6.172,6.172,0,0,1-.921.46c-.415.166-.853.287-1.291.423-.143.053-.43.151-.83.272a6.485,6.485,0,0,1-1.577.264,3.774,3.774,0,0,1-2.121-.543c-.325-.2-.589-.415-.755-.506a.755.755,0,0,0-.536-.083,2.756,2.756,0,0,0-.755.249.754.754,0,0,0-.264.151c-.091.068-.2.174-.294.264-.408.408-.808.845-1.223,1.2a3.64,3.64,0,0,1-1.306.634,1.511,1.511,0,0,1-.755,0,1.42,1.42,0,0,1-.71-.559Z" transform="translate(-65.091 -46.02)" fill="#221f1f"/>
    <path id="Path_84461" data-name="Path 84461" d="M243.43,167.05a53.019,53.019,0,0,1,2.264,6.982c2.181,8.235,4.015,16.605,5.517,24.983,1.291,7.223,2.219,14.515,3.117,21.8.755,6.272,1.306,12.537,2.461,18.7q.861,4.627,2.045,9.171c.838,3.019,1.728,6.038,2.823,8.952a99.371,99.371,0,0,0,4.393,10.175,101.649,101.649,0,0,0,5.283,9.171,17.582,17.582,0,0,1,.974,1.51c.755,1.328.634,1.827-.2,1.042a3.381,3.381,0,0,1-.6-.589c-.393-.566-.755-1.094-1.177-1.6l-1.155-1.51c-.385-.506-.755-1.019-1.162-1.562a13.355,13.355,0,0,1-1.094-1.781c-1.336-2.362-2.566-4.785-3.774-7.231a65.561,65.561,0,0,1-3.163-7.548c-.37-1.026-.755-2.046-1.064-3.087s-.672-2.076-.943-3.125l-.543-2.015-.475-2.023c-.332-1.351-.6-2.71-.883-4.068-.377-1.857-1.434-7.171-2.2-14.19s-1.789-15.6-3.087-23.995c-.664-4.189-1.336-8.3-2.045-12.2s-1.442-7.435-2.076-10.514c-1.245-6.167-2.264-10.333-2.31-10.741C244.147,170.462,243.86,169.141,243.43,167.05Z" transform="translate(-52.97 -16.138)" fill="#221f1f"/>
    <path id="Path_84462" data-name="Path 84462" d="M256.97,334.087c-3.087,1.117-6.2,2.264-9.382,3.17s-6.363,1.789-9.578,2.536c-2.347.551-4.695,1.087-7.065,1.51-4.182.755-8.393,1.344-12.628,1.691a92.021,92.021,0,0,1-12.741.226,63.129,63.129,0,0,1-11.231-1.51,38.847,38.847,0,0,1-6.891-2.347,23.541,23.541,0,0,1-6.136-3.978c-1.14-1.027-.679-1.177.536-.687a10.048,10.048,0,0,1,1.042.483c.408.174.853.37,1.321.611s.981.491,1.51.755,1.094.581,1.7.853c1.042.543,2.144.966,3.238,1.411a29.991,29.991,0,0,0,3.4,1.064,49.821,49.821,0,0,0,7.027,1.366,71.355,71.355,0,0,0,7.208.528c2.415.076,4.846.045,7.284-.075a114.929,114.929,0,0,0,17.73-2.445,147.5,147.5,0,0,0,19.081-5.163c3.834-1.336,7.646-2.77,11.458-4.2l17.292-6.529c4.453-1.683,8.793-3.4,13.224-5.019l2.913-1.064c3.676-1.253,4.9-1.51,5.819-1.336a3.5,3.5,0,0,1,.611.121c.445.211-.981.921-3.638,1.887-7.872,2.883-16.145,6.038-24.463,9.2-6.174,2.355-12.379,4.725-18.613,7.027Z" transform="translate(-37.579 -52.635)" fill="#221f1f"/>
    <path id="Path_84463" data-name="Path 84463" d="M113.295,291.42a1.177,1.177,0,0,1-.906-.234.71.71,0,0,1-.128-.642,1.864,1.864,0,0,1,.6-.913,3.29,3.29,0,0,1,.755-.491,6.791,6.791,0,0,1,1.51-.46c.853-.166,1.7-.174,2.445-.332a7.3,7.3,0,0,0,1.811-.694l1.887-.974c.385-.2.755-.37,1.208-.559l.6-.257.317-.121.34-.06c.075,0,.151-.045.234,0,.219.091.3.46.226.755,0,.068,0,.181-.053.2-.309.068-.377.71-.664.755a6.153,6.153,0,0,0-1.51.808,3.868,3.868,0,0,1-.642.309c-.294.113-.6.189-.906.3s-.755.347-1.555.634a14.084,14.084,0,0,1-2.815.551,7.041,7.041,0,0,0-2.264.6c-.083.075-.2.121-.219.181l-.068.068v.2A1.132,1.132,0,0,0,113.295,291.42Z" transform="translate(-20.799 -45.224)" fill="#221f1f"/>
    <path id="Path_84464" data-name="Path 84464" d="M120.073,298.339c-.543-.611-.528-.876-.43-.989a3.48,3.48,0,0,1,1.17-.876,7,7,0,0,1,1.117-.34c.634-.181,1.253-.34,1.872-.468.181-.045.37-.068.543-.113a4.844,4.844,0,0,0,.5-.181s.053-.053.091,0a1.51,1.51,0,0,1,.189.755v.181c-.128.045-.143.574-.287.581a2.876,2.876,0,0,0-.755.3.755.755,0,0,1-.309.06,1.475,1.475,0,0,0-.408,0,8.151,8.151,0,0,0-1.751.46,4.961,4.961,0,0,0-.913.43c-.219.143-.332.242-.347.249S120.209,298.346,120.073,298.339Z" transform="translate(-22.603 -47.599)" fill="#221f1f"/>
    <path id="Path_84465" data-name="Path 84465" d="M56.538,309.27l-7.284.166c-.883,0-1.766.1-2.649.113l-9.359.106c-1.389,0-2.778.1-4.151.181a38.7,38.7,0,0,1-5.284.166c-1.1-.076.226-1.879,2.264-1.97,3.593-.166,7.193-.226,10.831-.128,2.174.06,4.431-.113,6.65-.174l7.321-.2,4.529-.143c2.264-.091,4.529-.174,6.793-.34,1.744-.136,3.449-.385,5.163-.619l1.117-.174c1.419-.166,1.781-.151,2.2.279a3.166,3.166,0,0,1,.272.287c.242.332-.294.755-1.381,1.027a64.16,64.16,0,0,1-9.669,1.132c-2.446.151-4.9.234-7.344.332Z" transform="translate(0 -50.25)" fill="#221f1f"/>
    <path id="Path_84466" data-name="Path 84466" d="M455.743,307.055l-7.888.106c-.959,0-1.917.083-2.876.1l-10.144.091c-1.51,0-3.019.091-4.491.181a47.069,47.069,0,0,1-5.744.181c-1.193-.075.249-1.879,2.453-1.978,3.91-.174,7.82-.242,11.76-.136,2.363.06,4.816-.106,7.223-.159l7.956-.143,4.891-.091c2.468-.06,4.951-.1,7.4-.211,1.9-.091,3.774-.287,5.653-.438.408,0,.815-.083,1.238-.106,1.547-.083,2.038,0,2.378.491a2.053,2.053,0,0,1,.227.317c.151.37-.476.7-1.608.853-3.366.453-6.914.626-10.469.755l-7.963.257Z" transform="translate(-97.29 -49.824)" fill="#221f1f"/>
    <path id="Path_84467" data-name="Path 84467" d="M109.237,159.78c-3.774.166-6.363,5.7-5.646,9.057.219,1,2.408.43,2.189-.589a6.657,6.657,0,0,1,.687-3.985c.43-.974,1.321-2.823,2.566-2.876s1.691-1.645.2-1.585Z" transform="translate(-18.651 -14.356)" fill="#221f1f"/>
    <path id="Path_84468" data-name="Path 84468" d="M102.623,155.762a13.084,13.084,0,0,0-6.144,9.012c-.106.755,2.091.385,2.181-.3a11.714,11.714,0,0,1,5.284-8.152c1.238-.755-.679-.981-1.328-.559Z" transform="translate(-16.935 -13.318)" fill="#221f1f"/>
    <path id="Path_84469" data-name="Path 84469" d="M347.575,109.109c2.544-.234,4.529,2.717,4.748,4.966.075.891,2.264.385,2.181-.589a6.473,6.473,0,0,0-6.695-5.835C346.639,107.758,346.073,109.245,347.575,109.109Z" transform="translate(-78.286 -1.568)" fill="#221f1f"/>
    <path id="Path_84470" data-name="Path 84470" d="M356.009,102.779c3.532-.581,4.2,6.484,4.74,8.778.211.921,2.4.355,2.181-.589-.808-3.51-1.562-10.507-6.695-9.661-1.14.189-1.721,1.721-.226,1.51Z" transform="translate(-80.356 0)" fill="#221f1f"/>
    <path id="Path_84471" data-name="Path 84471" d="M288,360.646a8.076,8.076,0,0,0-4.9.657,9.956,9.956,0,0,0-3.774,3.472,18.01,18.01,0,0,0-1.744,3.548c-.2.559-.385,1.117-.559,1.683a13.389,13.389,0,0,0-.415,1.728c-.1.589-.234,1.17-.287,1.766l-.1.845v.513c0,.053,0,.151.045.143a1.758,1.758,0,0,0,.34-.045h.174l.287-.06.913-.219c1.215-.287,2.453-.543,3.706-.755a31.918,31.918,0,0,1,6.74-.392,18.869,18.869,0,0,1,4.317.755,12.076,12.076,0,0,1,3.925,2.008c.755.589.279.913-.6.913a11.118,11.118,0,0,1-3.563-.672,20.153,20.153,0,0,0-7.9-.9,35.066,35.066,0,0,0-4.106.513c-.687.121-1.374.257-2.068.408l-1.042.226a9.379,9.379,0,0,1-1.811.325,1.63,1.63,0,0,1-.8-.2c-.053-.038-.136-.083-.158-.151v-.242l-.045-.491-.091-.959-.053-.476a1.842,1.842,0,0,1,0-.46c.053-.453.1-.906.151-1.359s.143-.906.219-1.359a22.56,22.56,0,0,1,1.615-5.284,14.907,14.907,0,0,1,3.593-4.982,9.948,9.948,0,0,1,5.676-2.513,8.3,8.3,0,0,1,.966-.06l.959.06h.476l.468.083.936.181a12.415,12.415,0,0,1,3.48,1.51,11.8,11.8,0,0,1,3.827,4.2,16.794,16.794,0,0,1,1.811,5.284c.06.453.143.9.189,1.344s.076.687.083.921v.347c0,.045,0,.143.045.136a.71.71,0,0,0,.174-.075c.226-.113.438-.211.649-.294a10.288,10.288,0,0,1,3.019-.521,10.157,10.157,0,0,1,1.97.121,6.876,6.876,0,0,1,2.438.861,1.6,1.6,0,0,1,.755.951,2.1,2.1,0,0,1,.121.476c0,.483-.959.272-2.43-.1a9.933,9.933,0,0,0-3.91-.2,8.584,8.584,0,0,0-.951.211l-.483.143a10.3,10.3,0,0,0-1.034.392,1.615,1.615,0,0,1-1.623.128,1.062,1.062,0,0,1-.1-.151c-.121.174-.038.053-.06.091h0V374.6l-.038-.083-.166-.332-.332-.664c0-.521,0-1.079-.053-1.593a2.55,2.55,0,0,0-.068-.755c-.076-.491-.128-.981-.242-1.464a15.576,15.576,0,0,0-.861-2.815,10.966,10.966,0,0,0-3.019-4.151,9.45,9.45,0,0,0-4.619-2.023Z" transform="translate(-60.57 -63.101)" fill="#221f1f"/>
    <path id="Path_84472" data-name="Path 84472" d="M321.292,372.288a12.071,12.071,0,0,1,.264-1.238c.106-.408.174-.823.317-1.23a17.41,17.41,0,0,1,.943-2.385,11.6,11.6,0,0,1,3.163-4.136,4.6,4.6,0,0,1,.755-.581l.823-.536.974-.355.46-.189a3.349,3.349,0,0,1,.476-.113,10.348,10.348,0,0,1,6.6.755,18.072,18.072,0,0,1,2.83,1.555,9.767,9.767,0,0,1,2.347,2.347,15.692,15.692,0,0,1,2.317,5.208,19.625,19.625,0,0,1,.589,7.1c-.091.755-.611.6-1.094,0a5.691,5.691,0,0,1-1.087-3.072c-.34-4.446-1.555-8.944-5.593-10.967a8.9,8.9,0,0,0-.891-.445,6.038,6.038,0,0,0-.913-.392,8.3,8.3,0,0,0-1.932-.423,7.639,7.639,0,0,0-1.947,0l-.944.219c-.309.075-.6.242-.9.347a8.476,8.476,0,0,0-3.261,2.763,14.384,14.384,0,0,0-1.9,4.091,20.782,20.782,0,0,0-.506,2.453c-.045.415-.136.823-.158,1.245l-.06.989a1.015,1.015,0,0,0,0,.37c.045.113.355.113.543.113h.347l.551-.053c.755-.075,1.51-.143,2.264-.189a36.336,36.336,0,0,1,11.45,1.26c.491.151.981.264,1.464.453,1.811.664,2.264,1.087,2.438,1.736a1.99,1.99,0,0,1,.083.445c0,.46-.845.415-2.121,0a36.013,36.013,0,0,0-11.933-1.962,29.5,29.5,0,0,0-3.125.211l-.815.083h-.657a4.53,4.53,0,0,1-.755,0,2,2,0,0,1-1.268-.513,1.683,1.683,0,0,1-.362-.536,4.615,4.615,0,0,1-.136-.687l.106-2.166.219-1.638Z" transform="translate(-71.974 -63.769)" fill="#221f1f"/>
    <path id="Path_84473" data-name="Path 84473" d="M268.464,382.936a3.142,3.142,0,0,1-.3.136l-.234.106-.468.2-.936.408-1.872.793-3.774,1.578c-.913.385-1.8.815-2.725,1.185-3.253,1.283-6.521,2.513-9.873,3.6-.755.234-1.51.476-2.264.7-.385.113-.755.211-1.162.309a8.673,8.673,0,0,1-1.276.226,1.706,1.706,0,0,1-1.57-.513c-.1-.121-.181-.249-.272-.377a4.275,4.275,0,0,1-.211-.385,3.982,3.982,0,0,1-.257-.687,4.943,4.943,0,0,1-.189-1.4,6.385,6.385,0,0,1,.581-2.559c.279-.6.755-.3,1.042.332a6.725,6.725,0,0,1,.6,2.393,2.756,2.756,0,0,0,.113.755,2.956,2.956,0,0,0,.113.309h0a7.537,7.537,0,0,0,1.019-.174c.755-.159,1.51-.377,2.264-.6,1.51-.453,3.1-.959,4.68-1.457,2.264-.755,4.582-1.789,6.869-2.74,2.506-1.042,5.019-2.1,7.51-3.193l2.317-1.026a17.735,17.735,0,0,1,2.491-.808,22.976,22.976,0,0,1,7.789-.468,28.686,28.686,0,0,1,5.88,1.117c.415.136.838.257,1.253.408,1.51.626,1.925,1.011,2,1.63a2.784,2.784,0,0,1,0,.423c-.053.43-.755.46-1.864.083a30,30,0,0,0-10.024-1.8,19.327,19.327,0,0,0-3.774.392,14.916,14.916,0,0,0-3.532,1.147Z" transform="translate(-52.394 -68.22)" fill="#221f1f"/>
    <path id="Path_84474" data-name="Path 84474" d="M336.157,387.7l-.951.408-.543.234-1.079.483c-.755.332-1.434.672-2.151,1.019q-2.151,1.049-4.265,2.166c-1.034.543-2.038,1.147-3.072,1.691-3.638,1.932-7.269,3.895-10.944,5.8-1.645.838-3.253,1.728-4.989,2.483-.287.121-.559.234-.891.34a3.169,3.169,0,0,1-1.313.181,1.509,1.509,0,0,1-1-.755,4.6,4.6,0,0,1-.317-.6,3.668,3.668,0,0,1-.181-.528,5.986,5.986,0,0,1,.377-3.887c.317-.717.755-.392,1.042.325a14.125,14.125,0,0,1,.657,2.725,1.764,1.764,0,0,0,.068.287.638.638,0,0,0,0,.128v.083h.045l.362-.121c1-.37,2.068-.876,3.117-1.389l6.385-3.178c2.581-1.268,5.14-2.83,7.729-4.227,2.853-1.51,5.736-3.019,8.7-4.415l1.472-.657.755-.287.687-.249.174-.053a.3.3,0,0,0,.083-.045.09.09,0,0,0,0-.075,1.273,1.273,0,0,0-.294-.166,11.087,11.087,0,0,0-1.1-.37l-.294-.083-.513-.128-1.094-.249c-1.457-.309-2.929-.566-4.393-.755a35.158,35.158,0,0,0-6.793-.113c-.491.038-.959.113-1.442.174-1.789.242-2.3.317-2.846-.083a2.449,2.449,0,0,1-.37-.264c-.332-.3.325-.981,1.766-1.359a23.45,23.45,0,0,1,6.536-.574,47.555,47.555,0,0,1,6.6.755c.755.128,1.449.279,2.166.445l1.328.317c.694.181,1.374.377,1.993.6a4.234,4.234,0,0,1,1.464.755,1.509,1.509,0,0,1,.475.83,1.139,1.139,0,0,1,0,.294.754.754,0,0,1,0,.159.815.815,0,0,1-.1.325l-.091.189-.219.234a1.178,1.178,0,0,1-.242.226l-.43.219c-.755.257-1.4.521-2.053.8Z" transform="translate(-67.894 -68.745)" fill="#221f1f"/>
    <path id="Path_84475" data-name="Path 84475" d="M159.27,202.88s7.548,20.56,7.548,24.153,2.212-5.208,22.983-6.635c0,0,8.854-.559,10.4-2.868s-3.985-21.761-3.985-21.761C190.556,197.129,169.135,193.679,159.27,202.88Z" transform="translate(-32.333 -23.181)" fill="#221f1f" opacity="0.2"/>
    <path id="Path_84476" data-name="Path 84476" d="M279.55,243.714s3.872,17.262,4.959,16.953,3.5-1.872,11.322-2.521,9.5-4.076,9.5-4.076l-3.548-16c-.634-1.887-11.722,3.381-13.179,3.955A24.6,24.6,0,0,1,279.55,243.714Z" transform="translate(-61.827 -33.453)" fill="#221f1f" opacity="0.2"/>
    <path id="Path_84477" data-name="Path 84477" d="M277,375.213s1.834-11.835,7.82-12.6,9.812,2.529,10.967,13.284a21.777,21.777,0,0,0-9.4-2.129,53.583,53.583,0,0,0-9.39,1.442Z" transform="translate(-61.202 -64.068)" fill="#221f1f" opacity="0.2"/>
    <path id="Path_84478" data-name="Path 84478" d="M323.69,376.856s.974-11.586,8.8-11.586c4.989,0,8.22,3.774,9.193,12.982a21.809,21.809,0,0,0-9.306-2.483A43.067,43.067,0,0,0,323.69,376.856Z" transform="translate(-72.651 -64.744)" fill="#221f1f" opacity="0.2"/>
    <path id="Path_84479" data-name="Path 84479" d="M180.608,211.009a37.149,37.149,0,0,0,2.612-4.793c.075-.2.136-.4.189-.589a1.851,1.851,0,0,0,.06-.279v-.158c0-.068,0-.219-.1-.226a.211.211,0,0,0-.136,0,1.064,1.064,0,0,0-.249.189,8.9,8.9,0,0,0-.883.943c-.838,1.011-1.577,2.159-2.393,3.261a32.644,32.644,0,0,1-2.31,2.876,8.9,8.9,0,0,1-1.442,1.3,4.3,4.3,0,0,1-.943.5,2.265,2.265,0,0,1-1.366.053,1.606,1.606,0,0,1-.309-.136.657.657,0,0,1-.279-.189,1.147,1.147,0,0,1-.294-.6,2.4,2.4,0,0,1,0-.694l.091-.34a2.391,2.391,0,0,1,.083-.249,11.829,11.829,0,0,1,.83-1.7c.6-1.072,1.23-2.091,1.819-3.125a16.108,16.108,0,0,0,1.344-2.8,2.574,2.574,0,0,0,.174-1.283.5.5,0,0,0-.249-.279.649.649,0,0,0-.445,0,4.068,4.068,0,0,0-1.547.891,12.544,12.544,0,0,0-1.4,1.366,14.176,14.176,0,0,0-2.227,3.185c-.159.355-.257.491-.377.46s-.219-.264-.234-.672a5.963,5.963,0,0,1,1.411-3.548,13.966,13.966,0,0,1,1.51-1.608,7.1,7.1,0,0,1,2.008-1.306,2.445,2.445,0,0,1,1.608-.136,1.751,1.751,0,0,1,.853.543l.151.181.128.211a1.155,1.155,0,0,1,.174.506,3.389,3.389,0,0,1-.083,1.411,7.75,7.75,0,0,1-.377,1.117,31.521,31.521,0,0,1-2.038,3.774c-.362.6-.755,1.185-1.057,1.781-.174.294-.332.589-.483.876-.068.151-.143.294-.2.438a2.118,2.118,0,0,0-.083.211l-.06.143c0,.106-.083.257.045.309a.423.423,0,0,0,.174,0,.377.377,0,0,0,.106,0,.808.808,0,0,0,.2-.068,5.624,5.624,0,0,0,1.759-1.434,49.878,49.878,0,0,0,3.072-4.046c.559-.755,1.117-1.51,1.759-2.264a7.548,7.548,0,0,1,1.1-1.094,2.756,2.756,0,0,1,.974-.491,1.51,1.51,0,0,1,.981.151,2.264,2.264,0,0,1,.483,1.932,6.793,6.793,0,0,1-.43,1.51,23.112,23.112,0,0,1-1.291,2.6c-.574,1.019-1.17,2.015-1.721,3.019a16.373,16.373,0,0,0-.755,1.51,6.555,6.555,0,0,0-.249.755.981.981,0,0,0,0,.445c.234.415.815.3,1.51-.2a10.387,10.387,0,0,0,1.744-1.8c1.087-1.344,2.053-2.808,3.117-4.212.423-.543.845-1.087,1.328-1.608a5.488,5.488,0,0,1,1.766-1.351,2.264,2.264,0,0,1,1.328-.143l.317.106.226.06a1.366,1.366,0,0,1,.71.521,2.068,2.068,0,0,1,.234,1.427,6.228,6.228,0,0,1-.234,1.072l-.5,1.7c-.309,1.027-.43,1.653-.528,2.076a3.019,3.019,0,0,1-.332.928c-.075.128-.106.287-.174.393s-.355.113-.611-.332a3.412,3.412,0,0,1-.234-2.113c.2-1.3.679-2.483.921-3.563a2.7,2.7,0,0,0,.083-.657.143.143,0,0,0,0-.076h0l.166-.06c.189-.083.113-.091.053.038s-.091.242-.136.189h-.06l-.219-.075a.144.144,0,0,1-.068,0h-.068a.883.883,0,0,0-.385.121,4.529,4.529,0,0,0-1.14.943,15.792,15.792,0,0,0-1.14,1.351c-.755.966-1.449,2.008-2.212,3.019a25.489,25.489,0,0,1-1.857,2.264,7.735,7.735,0,0,1-1.215,1.079,3.632,3.632,0,0,1-.377.249,2.537,2.537,0,0,1-.43.211,2.263,2.263,0,0,1-.5.174,3.018,3.018,0,0,1-.362.068h-.642a1.278,1.278,0,0,1-.317-.1l-.309-.1-.287-.159c-.091-.053-.189-.106-.272-.166l-.151-.279a1.871,1.871,0,0,1-.219-.6,2.482,2.482,0,0,1,0-.672,3.493,3.493,0,0,1,.113-.626,7.354,7.354,0,0,1,.272-.755,22.567,22.567,0,0,1,1.374-2.627Z" transform="translate(-35.119 -24.524)" fill="#221f1f"/>
    <path id="Path_84480" data-name="Path 84480" d="M293.247,254.335l-.959-2.642c-.166-.423-.332-.845-.513-1.245a4.463,4.463,0,0,0-.279-.581c-.038-.075-.128-.143-.2-.083a.756.756,0,0,0-.128.2l-.045.106a1.654,1.654,0,0,1-.1.347c-.038.143-.045.234-.068.325a1.852,1.852,0,0,0,0,.355c0,.528.1,1.125.159,1.728a8.115,8.115,0,0,1,.045,1.978,2.857,2.857,0,0,1-.189.6l-.174.3c-.075.083-.166.159-.249.242a.664.664,0,0,1-.3.166c-.106,0-.2.113-.325.1h-.634l-.468-.1a4.665,4.665,0,0,1-.483-.211,2.95,2.95,0,0,1-.755-.672,5.773,5.773,0,0,1-.755-1.562,40.1,40.1,0,0,1-.943-3.978c-.106-.347.091-.445.468-.2a3.306,3.306,0,0,1,1.049,1.638c.2.664.393,1.321.627,1.917a4.219,4.219,0,0,0,.755,1.51c.068.1.143.121.211.181s.091.068.226.083l.279.06h.143a.106.106,0,0,0,0-.068.536.536,0,0,0,0-.128,4.012,4.012,0,0,0,0-.868c-.038-.755-.242-1.615-.3-2.574a4.278,4.278,0,0,1,0-.808,6.706,6.706,0,0,1,.159-.755,3.163,3.163,0,0,1,.913-1.7,1.064,1.064,0,0,1,.913-.211,1.668,1.668,0,0,1,.815.513,4.58,4.58,0,0,1,.634.913c.1.174.143.279.2.392l.159.34c.4.891.755,1.789,1.057,2.672.2.543.408,1.079.619,1.608.106.264.219.521.34.755a1.562,1.562,0,0,0,.226.392.227.227,0,0,0,.143.091c.06,0,.1-.045.143-.068a.917.917,0,0,0,.31-.143l.174-.128a2.263,2.263,0,0,0,.166-.2,2.04,2.04,0,0,0,.287-.468,7.775,7.775,0,0,0,.574-2.393c.159-1.328.091-2.672.287-4.061a8.038,8.038,0,0,1,.166-.913,3.246,3.246,0,0,1,.483-1.17.921.921,0,0,1,.611-.34,1.426,1.426,0,0,1,.3,0c.294.053.325.543.226,1.268-.151,1.094-.143,2.264-.257,3.5a20.38,20.38,0,0,1-.559,3.94,5.282,5.282,0,0,1-.792,1.638c-.113.136-.211.272-.34.4l-.219.174-.287.211a3.775,3.775,0,0,1-.634.3,5.219,5.219,0,0,1-.611.249,1.367,1.367,0,0,1-.551-.06,1.623,1.623,0,0,1-.528-.309,3.692,3.692,0,0,1-.755-1.1c-.249-.5-.423-.936-.6-1.389Z" transform="translate(-63.373 -35.395)" fill="#221f1f"/>
    <path id="Path_84481" data-name="Path 84481" d="M285.414,371.562c-.159-.362-.121-.491-.045-.574l.8-.853c.234-.234.5-.453.755-.687l.649-.6a5.55,5.55,0,0,1,.694-.566c.143-.106.3-.189.453-.287s.287-.181.438-.264a.213.213,0,0,1,.083-.038.313.313,0,0,1,.166.234c.008.121,0,.068,0,.076a.937.937,0,0,1-.2.355,3.019,3.019,0,0,0-.513.513,1,1,0,0,1-.219.181c-.106.068-.219.121-.325.2a17.374,17.374,0,0,0-1.3,1.185c-.559.551-1.14,1.057-1.177,1.072A1.116,1.116,0,0,1,285.414,371.562Z" transform="translate(-63.238 -65.338)" fill="#221f1f"/>
    <path id="Path_84482" data-name="Path 84482" d="M289.175,371.927c-.121-.325-.083-.43,0-.491.219-.2.445-.4.679-.581s.423-.279.634-.43l1.057-.755.325-.219.294-.226s0-.038.053,0a.492.492,0,0,1,.2.234c.038.121,0,.068,0,.076s0,.272-.106.332a3.962,3.962,0,0,0-.408.393.754.754,0,0,1-.181.128l-.272.128c-.226.128-2.03,1.419-2.083,1.442A.986.986,0,0,1,289.175,371.927Z" transform="translate(-64.169 -65.71)" fill="#221f1f"/>
    <path id="Path_84483" data-name="Path 84483" d="M330.458,371.757a.5.5,0,0,1,.083-.543c.34-.309.679-.611,1.034-.906s.634-.468.951-.7a16.94,16.94,0,0,1,1.706-1.162l.536-.287.543-.226h.1a.279.279,0,0,1,.151.317c-.136.075-.143.309-.272.4s-.46.34-.679.521c-.091.068-.189.121-.287.181s-.279.106-.408.174a18.358,18.358,0,0,0-1.706,1.125c-.755.528-1.449,1.042-1.51,1.064a1.572,1.572,0,0,1-.242.045Z" transform="translate(-74.301 -65.397)" fill="#221f1f"/>
    <path id="Path_84484" data-name="Path 84484" d="M332.49,372.735a.906.906,0,0,1,.272-.415c.408-.4.823-.755,1.253-1.147a10.194,10.194,0,0,1,1.162-.891,13.592,13.592,0,0,1,2.151-1.328c.226-.113.46-.211.687-.309a3.879,3.879,0,0,1,.687-.234h.121a.277.277,0,0,1,.106.249c-.174.053-.264.242-.438.309a5.726,5.726,0,0,0-.951.445l-.37.189c-.166.075-.332.136-.5.219a17.359,17.359,0,0,0-2.128,1.351c-.906.657-1.713,1.366-1.759,1.4A2.866,2.866,0,0,1,332.49,372.735Z" transform="translate(-74.809 -65.514)" fill="#221f1f"/>
  </g>
</svg>
