<svg xmlns="http://www.w3.org/2000/svg" xmlns:xlink="http://www.w3.org/1999/xlink" width="100" height="100" viewBox="0 0 100 100">
  <defs>
    <clipPath id="clip-path">
      <rect id="Rectangle_2" data-name="Rectangle 2" width="100" height="100" fill="#fff"/>
    </clipPath>
  </defs>
  <g id="Mask_Group_3" data-name="Mask Group 3" clip-path="url(#clip-path)">
    <path id="instagram-icon" d="M62.855.9H23.9A23.021,23.021,0,0,0,.9,23.9v38.96A23.02,23.02,0,0,0,23.9,85.849h38.96A23.02,23.02,0,0,0,85.849,62.855V23.9A23.021,23.021,0,0,0,62.855.9ZM43.375,66.6A23.227,23.227,0,1,1,66.6,43.375,23.227,23.227,0,0,1,43.375,66.6ZM67.158,25.626a6.864,6.864,0,1,1,6.864-6.864,6.864,6.864,0,0,1-6.864,6.864Z" transform="translate(7.099 7.099)"/>
  </g>
</svg>
