<svg xmlns="http://www.w3.org/2000/svg" xmlns:xlink="http://www.w3.org/1999/xlink" width="100" height="100" viewBox="0 0 100 100">
  <defs>
    <clipPath id="clip-path">
      <rect id="Rectangle_3" data-name="Rectangle 3" width="100" height="100" fill="#fff"/>
    </clipPath>
  </defs>
  <g id="Mask_Group_1" data-name="Mask Group 1" clip-path="url(#clip-path)">
    <g id="Group_1" data-name="Group 1" transform="translate(-189.02 -113.578)">
      <path id="Path_3" data-name="Path 3" d="M211.61,212.156V148.022H190.3v64.134Zm-10.65-72.905a11.868,11.868,0,1,0-.143,0Z" transform="translate(0 0)" fill-rule="evenodd"/>
      <path id="Path_4" data-name="Path 4" d="M195.23,187.007h21.312V151.194a14.317,14.317,0,0,1,.7-5.2,11.648,11.648,0,0,1,10.929-7.8c7.728,0,10.8,5.879,10.8,14.505v34.31H260.3V150.233c0-19.707-10.525-28.867-24.545-28.867a21.24,21.24,0,0,0-19.353,10.8h.143v-9.294H195.23c.3,6.013,0,64.134,0,64.134Z" transform="translate(28.186 25.149)" fill-rule="evenodd"/>
    </g>
  </g>
</svg>
