<svg xmlns="http://www.w3.org/2000/svg" xmlns:xlink="http://www.w3.org/1999/xlink" width="169.934" height="55" viewBox="0 0 169.934 55">
  <defs>
    <clipPath id="clip-path">
      <rect id="Rectangle_69" data-name="Rectangle 69" width="169.934" height="55" transform="translate(0.2)" fill="#fff"/>
    </clipPath>
  </defs>
  <g id="Mask_Group_17" data-name="Mask Group 17" transform="translate(-0.2)" clip-path="url(#clip-path)">
    <g id="bobst-vector-logo" transform="translate(-20.3 -266)">
      <path id="Path_378" data-name="Path 378" d="M20.3,304.584H40.334a1.758,1.758,0,0,0,1.749-1.749V282.8H22.049a1.758,1.758,0,0,0-1.749,1.749Z" transform="translate(0 -0.574)" fill="#df001f"/>
      <path id="Path_379" data-name="Path 379" d="M251.6,289.873c0-6.377,3.189-7.873,8.522-7.873h8.606c5.361,0,8.522,1.5,8.522,7.873v6.49c0,6.377-3.189,7.873-8.522,7.873h-8.606c-5.361,0-8.522-1.5-8.522-7.873Zm5.926,4.543c0,3.16.593,4.374,3.386,4.374h7c2.794,0,3.386-1.213,3.386-4.374v-2.6c0-2.709-.593-4.374-3.725-4.374h-6.349c-3.132,0-3.725,1.665-3.725,4.374v2.6Z" transform="translate(-166.033 0)" fill="#231815"/>
      <path id="Path_380" data-name="Path 380" d="M473.89,288.434c0-3.809-.649-6.434-7.478-6.434h-8.3c-7.478,0-7.816,3.047-7.816,6.97,0,5.361,1.016,6.546,9.961,6.546,7.647,0,8.352.113,8.352,2,0,1.693-1.3,1.834-2.54,1.834h-7.28c-1.58,0-2.427-.169-2.54-2.032H450.3v1.044c0,4.712,2.173,5.869,7.562,5.869h7.2c7.9,0,9.65-.959,9.65-6.829,0-6.349-2.145-6.97-11.372-6.942-6.377.028-7.083-.028-7.083-1.919,0-1.185.9-1.693,2.257-1.693h6.575c2.427,0,2.822.508,2.878,1.749h5.954v-.169Z" transform="translate(-308.665 0)" fill="#231815"/>
      <path id="Path_381" data-name="Path 381" d="M562.73,282.828v5.22h-8.352v16.535h-5.926V288.048H540.1v-3.5a1.758,1.758,0,0,1,1.749-1.749H562.73Z" transform="translate(-373.126 -0.574)" fill="#231815"/>
      <path id="Path_382" data-name="Path 382" d="M374.776,293.679v-.085c1.665-.536,2.85-1.27,2.85-4.994,0-4.261-2.314-5.7-7.026-5.7h-15.35a1.758,1.758,0,0,0-1.75,1.75v20.034h18.906c3.386,0,5.9-.988,5.9-5.785.056-3.273-.931-4.853-3.527-5.22m-15.322-5.559h10.5c1.1,0,1.749.451,1.749,1.721,0,1.242-.649,1.693-1.749,1.693h-10.5Zm10.666,11.315H359.482v-3.414H370.12c1.27,0,2.145.339,2.145,1.806-.028,1.27-.875,1.608-2.145,1.608" transform="translate(-239.18 -0.646)" fill="#231815"/>
      <path id="Path_383" data-name="Path 383" d="M176.476,293.679v-.085c1.665-.536,2.85-1.27,2.85-4.994,0-4.261-2.314-5.7-7.026-5.7H156.95a1.758,1.758,0,0,0-1.749,1.75v20.034h18.906c3.386,0,5.9-.988,5.9-5.785.028-3.273-.931-4.853-3.527-5.22m-15.322-5.559h10.5c1.1,0,1.749.451,1.749,1.721,0,1.242-.649,1.693-1.749,1.693h-10.5Zm10.666,11.315H161.182v-3.414H171.82c1.27,0,2.145.339,2.145,1.806-.028,1.27-.875,1.608-2.145,1.608" transform="translate(-96.835 -0.646)" fill="#231815"/>
    </g>
  </g>
</svg>
