<svg xmlns="http://www.w3.org/2000/svg" width="56" height="51" viewBox="0 0 56 51">
  <g id="chatbox" transform="translate(-1432.399 -850.86)">
    <rect id="Rectangle_6272" data-name="Rectangle 6272" width="56" height="51" rx="2" transform="translate(1432.399 850.86)"/>
    <path id="chat" d="M8.13,25.325V9.868A3.3,3.3,0,0,1,11.422,6.58H31.7a3.3,3.3,0,0,1,3.292,3.288V25.325A3.3,3.3,0,0,1,31.7,28.62H20.43l-5.32,5.606a.842.842,0,0,1-1.223-1.159L19.46,27.2a.832.832,0,0,1,.61-.259H31.7a1.61,1.61,0,0,0,1.607-1.607V9.868a1.607,1.607,0,0,0-1.607-1.6H11.422a1.607,1.607,0,0,0-1.607,1.6V25.325a1.61,1.61,0,0,0,1.607,1.61h3.066a.842.842,0,1,1,0,1.685H11.422A3.3,3.3,0,0,1,8.13,25.325Zm9.39-5.579V15.818a.842.842,0,1,0-1.685,0v3.928a.842.842,0,1,0,1.685,0Zm4.9,0V15.818a.842.842,0,1,0-1.685,0v3.928a.842.842,0,1,0,1.685,0Zm4.9,0V15.818a.842.842,0,1,0-1.685,0v3.928a.842.842,0,0,0,1.685,0Z" transform="translate(1439.269 856.281)" fill="#fff"/>
  </g>
</svg>
