<?xml version="1.0" encoding="utf-8"?>
<!-- Generator: Adobe Illustrator 27.1.1, SVG Export Plug-In . SVG Version: 6.00 Build 0)  -->
<svg version="1.1" id="Layer_1" xmlns="http://www.w3.org/2000/svg" xmlns:xlink="http://www.w3.org/1999/xlink" x="0px" y="0px"
	 viewBox="0 0 394.1 373.2" style="enable-background:new 0 0 394.1 373.2;" xml:space="preserve">
<style type="text/css">
	.st0{fill:#99EFF2;}
	.st1{fill:#EA348B;}
	.st2{fill:#006DF0;}
	.st3{fill:#FFDA44;}
	.st4{fill:#91DC5A;}
	.st5{fill:#D80027;}
</style>
<g>
	<path class="st0" d="M198.1,158.7c20.3-16.5,46.2-26.4,74.5-26.4c14.9,0,29.2,2.8,42.4,7.8c0.8-5.7,1.3-11.5,1.3-17.4
		c0-65.2-52.9-118.1-118.1-118.1C132.9,4.5,80,57.4,80,122.7c0,5.9,0.4,11.7,1.3,17.4c13.2-5.1,27.4-7.8,42.4-7.8
		C151.9,132.3,177.8,142.2,198.1,158.7z"/>
	<path class="st1" d="M154.5,250.4c0-5.9,0.4-11.7,1.3-17.4c-39.1-15-68.2-50.2-74.5-92.9c-44.3,17-75.8,60-75.8,110.3
		c0,65.2,52.9,118.1,118.1,118.1c28.2,0,54.2-9.9,74.5-26.4C171.5,320.4,154.5,287.4,154.5,250.4z"/>
	<path class="st2" d="M155.7,233c4.4-29.9,20-56.1,42.4-74.3c-20.3-16.5-46.2-26.4-74.5-26.4c-14.9,0-29.2,2.8-42.4,7.8
		C87.6,182.7,116.6,217.9,155.7,233z"/>
	<path class="st3" d="M315,140.1c-6.3,42.6-35.4,77.9-74.5,92.9c0.8,5.7,1.3,11.5,1.3,17.4c0,37-17,70-43.6,91.7
		c20.3,16.5,46.2,26.4,74.5,26.4c65.2,0,118.1-52.9,118.1-118.1C390.7,200.1,359.3,157.1,315,140.1z"/>
	<path class="st4" d="M198.1,158.7c22.4,18.2,38,44.4,42.4,74.3c39.1-15,68.2-50.2,74.5-92.9c-13.2-5.1-27.4-7.8-42.4-7.8
		C244.4,132.3,218.4,142.2,198.1,158.7z"/>
	<path class="st5" d="M241.8,250.4c0-5.9-0.4-11.7-1.3-17.4c-13.2,5.1-27.4,7.8-42.4,7.8s-29.2-2.8-42.4-7.8
		c-0.8,5.7-1.3,11.5-1.3,17.4c0,37,17,70,43.6,91.7C224.7,320.4,241.8,287.4,241.8,250.4z"/>
	<path d="M198.1,158.7c-22.4,18.2-38,44.4-42.4,74.3c13.2,5.1,27.4,7.8,42.4,7.8s29.2-2.8,42.4-7.8
		C236.1,203.1,220.5,176.9,198.1,158.7z"/>
</g>
</svg>
