<svg xmlns="http://www.w3.org/2000/svg" width="78.831" height="51.505" viewBox="0 0 78.831 51.505">
  <g id="trading" transform="translate(-69.994 -97.059)">
    <path id="Path_157" data-name="Path 157" d="M274.524,97.059h-53.24a2.312,2.312,0,0,0-2.309,2.309v3.557h49.683a2.309,2.309,0,0,1,2.309,2.309v22.357h3.557a2.312,2.312,0,0,0,2.309-2.309V99.368A2.312,2.312,0,0,0,274.524,97.059Z" transform="translate(-128.008 0)"/>
    <path id="Path_158" data-name="Path 158" d="M202.344,171.55h-55.55a2.312,2.312,0,0,0-2.309,2.309v3.557h49.683a2.309,2.309,0,0,1,2.309,2.309v22.357h3.557a2.312,2.312,0,0,0,2.309-2.309Z" transform="translate(-64.004 -64.005)"/>
    <path id="Path_159" data-name="Path 159" d="M127.854,246.04H72.3a2.312,2.312,0,0,0-2.309,2.309v25.914a2.312,2.312,0,0,0,2.309,2.309h53.24a2.312,2.312,0,0,0,2.309-2.309Zm-4.707,15.266a2.309,2.309,0,0,1-2.309,2.31h-5.6a2.309,2.309,0,0,1,0-4.619h5.6A2.309,2.309,0,0,1,123.146,261.306ZM98.924,252a9.3,9.3,0,1,1-9.3,9.3A9.313,9.313,0,0,1,98.924,252Zm-24.222,9.3A2.309,2.309,0,0,1,77.011,259h5.6a2.309,2.309,0,0,1,0,4.619h-5.6A2.309,2.309,0,0,1,74.7,261.306Z" transform="translate(0 -128.009)"/>
    <path id="Path_160" data-name="Path 160" d="M251.614,325.907a4.683,4.683,0,1,1-4.683-4.683,4.683,4.683,0,0,1,4.683,4.683" transform="translate(-148.006 -192.61)"/>
  </g>
</svg>
