<svg id="Group_132" data-name="Group 132" xmlns="http://www.w3.org/2000/svg" xmlns:xlink="http://www.w3.org/1999/xlink" width="330" height="232" viewBox="0 0 330 232">
  <defs>
    <clipPath id="clip-path">
      <rect id="Rectangle_33" data-name="Rectangle 33" width="330" height="232" fill="none"/>
    </clipPath>
  </defs>
  <g id="Group_125" data-name="Group 125">
    <g id="Group_124" data-name="Group 124" clip-path="url(#clip-path)">
      <line id="Line_94" data-name="Line 94" x2="330" transform="translate(0 172.256)" fill="none" stroke="#fff" stroke-width="1"/>
    </g>
  </g>
  <line id="Line_95" data-name="Line 95" x2="323.086" transform="translate(2.433 40.26)" fill="none" stroke="#fff" stroke-width="1"/>
  <g id="Group_127" data-name="Group 127">
    <g id="Group_126" data-name="Group 126" clip-path="url(#clip-path)">
      <line id="Line_96" data-name="Line 96" x2="133.331" transform="translate(196.5 106.258)" fill="none" stroke="#fff" stroke-width="1"/>
    </g>
  </g>
  <line id="Line_97" data-name="Line 97" y2="202.059" transform="translate(273.992 10.941)" fill="none" stroke="#fff" stroke-width="1"/>
  <g id="Group_129" data-name="Group 129">
    <g id="Group_128" data-name="Group 128" clip-path="url(#clip-path)">
      <line id="Line_98" data-name="Line 98" y2="187.838" transform="translate(206.654)" fill="none" stroke="#fff" stroke-width="1"/>
      <line id="Line_99" data-name="Line 99" y2="71" transform="translate(133.316 161)" fill="none" stroke="#fff" stroke-width="1"/>
    </g>
  </g>
  <line id="Line_100" data-name="Line 100" y2="187.581" transform="translate(59.979 15.419)" fill="none" stroke="#fff" stroke-width="1"/>
  <rect id="Rectangle_36" data-name="Rectangle 36" width="15.121" height="11.687" transform="translate(239.695 201.097)" fill="#adadad"/>
  <rect id="Rectangle_37" data-name="Rectangle 37" width="11.235" height="8.684" transform="translate(22.638 119.16)" fill="#adadad"/>
  <g id="Group_131" data-name="Group 131">
    <g id="Group_130" data-name="Group 130" clip-path="url(#clip-path)">
      <line id="Line_101" data-name="Line 101" x2="60" transform="translate(12.5 106.258)" fill="none" stroke="#fff" stroke-width="1"/>
      <line id="Line_102" data-name="Line 102" y2="20.758" transform="translate(134 29.5)" fill="none" stroke="#fff" stroke-width="1"/>
      <path id="Path_190" data-name="Path 190" d="M114.71,78.213a.063.063,0,0,0,.04.01.26.26,0,0,0,.12-.02c-.06,0-.11.01-.16.01" fill="#fff" fill-rule="evenodd"/>
      <path id="Path_191" data-name="Path 191" d="M114.71,78.213a.063.063,0,0,0,.04.01.26.26,0,0,0,.12-.02c-.06,0-.11.01-.16.01m0,0a.063.063,0,0,0,.04.01.26.26,0,0,0,.12-.02c-.06,0-.11.01-.16.01m0,0a.063.063,0,0,0,.04.01.26.26,0,0,0,.12-.02c-.06,0-.11.01-.16.01m0,0a.063.063,0,0,0,.04.01.26.26,0,0,0,.12-.02c-.06,0-.11.01-.16.01m0,0a.063.063,0,0,0,.04.01.26.26,0,0,0,.12-.02c-.06,0-.11.01-.16.01m0,0a.063.063,0,0,0,.04.01.26.26,0,0,0,.12-.02c-.06,0-.11.01-.16.01m0,0a.063.063,0,0,0,.04.01.26.26,0,0,0,.12-.02c-.06,0-.11.01-.16.01m0,0a.063.063,0,0,0,.04.01.26.26,0,0,0,.12-.02c-.06,0-.11.01-.16.01m0,0a.063.063,0,0,0,.04.01.26.26,0,0,0,.12-.02c-.06,0-.11.01-.16.01m0,0a.063.063,0,0,0,.04.01.26.26,0,0,0,.12-.02c-.06,0-.11.01-.16.01m0,0a.063.063,0,0,0,.04.01.26.26,0,0,0,.12-.02c-.06,0-.11.01-.16.01m0,0a.063.063,0,0,0,.04.01.26.26,0,0,0,.12-.02c-.06,0-.11.01-.16.01m0,0a.063.063,0,0,0,.04.01.26.26,0,0,0,.12-.02c-.06,0-.11.01-.16.01"/>
      <path id="Path_192" data-name="Path 192" d="M100.77,53.913a.513.513,0,0,0-.1.29.515.515,0,0,1,.01-.13.369.369,0,0,1,.09-.16" fill="#fff" fill-rule="evenodd"/>
      <path id="Path_193" data-name="Path 193" d="M134.24,54.2a.437.437,0,0,0-.03-.16c.01.01.02.02.02.03a.515.515,0,0,1,.01.13" fill="#fff" fill-rule="evenodd"/>
      <path id="Path_194" data-name="Path 194" d="M134.23,54.073c0-.01-.01-.02-.02-.03a.437.437,0,0,1,.03.16.515.515,0,0,0-.01-.13m-33.55,0a.515.515,0,0,0-.01.13.513.513,0,0,1,.1-.29.369.369,0,0,0-.09.16"/>
      <path id="Path_195" data-name="Path 195" d="M114.87,78.2a.26.26,0,0,1-.12.02.063.063,0,0,1-.04-.01c.05,0,.1-.01.16-.01" fill="#fff" fill-rule="evenodd"/>
      <path id="Path_196" data-name="Path 196" d="M100.77,53.913a.513.513,0,0,0-.1.29.515.515,0,0,1,.01-.13.369.369,0,0,1,.09-.16" fill="#fff" fill-rule="evenodd"/>
      <path id="Path_197" data-name="Path 197" d="M134.24,54.2a.437.437,0,0,0-.03-.16c.01.01.02.02.02.03a.515.515,0,0,1,.01.13" fill="#fff" fill-rule="evenodd"/>
      <path id="Path_198" data-name="Path 198" d="M145.673,102.487a1.866,1.866,0,1,0,1.866,1.866,1.867,1.867,0,0,0-1.866-1.866m0,0a1.866,1.866,0,1,0,1.866,1.866,1.867,1.867,0,0,0-1.866-1.866m0,0a1.866,1.866,0,1,0,1.866,1.866,1.867,1.867,0,0,0-1.866-1.866m0,0a1.866,1.866,0,1,0,1.866,1.866,1.867,1.867,0,0,0-1.866-1.866m0,0a1.866,1.866,0,1,0,1.866,1.866,1.867,1.867,0,0,0-1.866-1.866m0,0a1.866,1.866,0,1,0,1.866,1.866,1.867,1.867,0,0,0-1.866-1.866m0,0a1.866,1.866,0,1,0,1.866,1.866,1.867,1.867,0,0,0-1.866-1.866m0,0a1.866,1.866,0,1,0,1.866,1.866,1.867,1.867,0,0,0-1.866-1.866m0,0a1.866,1.866,0,1,0,1.866,1.866,1.867,1.867,0,0,0-1.866-1.866m0,0a1.866,1.866,0,1,0,1.866,1.866,1.867,1.867,0,0,0-1.866-1.866m17.57-7.92h-2.778V76.735a.569.569,0,0,0-.574-.574h-5.277V67.524a.58.58,0,0,0-.574-.574h-9.363a.577.577,0,0,0-.574.574.577.577,0,0,0,.574.574h8.789v8.063H140.8a.552.552,0,0,0-.405.169.567.567,0,0,0,.405.971h18.524V94.567H141.612a.57.57,0,0,0-.422.194l-8.215,9.2a.579.579,0,0,0,0,.768l8.207,9.2a.6.6,0,0,0,.431.194h17.714V131.4H117.532a.57.57,0,1,0,0,1.14H159.9a.568.568,0,0,0,.566-.574V114.13h2.778a.58.58,0,0,0,.574-.574V95.141a.58.58,0,0,0-.574-.574m-.574,18.414h-20.8l-7.7-8.629,7.7-8.637h20.8Zm-17-6.763a1.866,1.866,0,1,0-1.866-1.866,1.877,1.877,0,0,0,1.866,1.866m0-3.732a1.866,1.866,0,1,0,1.866,1.866,1.867,1.867,0,0,0-1.866-1.866m0,0a1.866,1.866,0,1,0,1.866,1.866,1.867,1.867,0,0,0-1.866-1.866m0,0a1.866,1.866,0,1,0,1.866,1.866,1.867,1.867,0,0,0-1.866-1.866m0,0a1.866,1.866,0,1,0,1.866,1.866,1.867,1.867,0,0,0-1.866-1.866m0,0a1.866,1.866,0,1,0,1.866,1.866,1.867,1.867,0,0,0-1.866-1.866m0,0a1.866,1.866,0,1,0,1.866,1.866,1.867,1.867,0,0,0-1.866-1.866m-6.341-39.218-.051-.025a.626.626,0,0,0-.211-.042h-.008a.571.571,0,0,0-.523.346l-30.311,71.943a.543.543,0,0,0,0,.438.5.5,0,0,0,.3.313.557.557,0,0,0,.439.008.551.551,0,0,0,.312-.312l30.311-71.943a.565.565,0,0,0-.262-.726M130.29,66.95H95.833A5.142,5.142,0,0,0,90.7,72.083v51.51a8.956,8.956,0,0,0,8.941,8.942h3.5a.57.57,0,1,0,0-1.14h-3.5a7.814,7.814,0,0,1-7.793-7.8V76.068l1.993.836a5.066,5.066,0,0,0,1.993.405h30.581a.574.574,0,0,0,0-1.148H95.833a3.991,3.991,0,0,1-3.985-3.977v-.093A3.989,3.989,0,0,1,95.833,68.1H130.29a.574.574,0,1,0,0-1.148" transform="translate(6.742 6.739)" fill="#fff" fill-rule="evenodd"/>
    </g>
  </g>
</svg>
