<svg xmlns="http://www.w3.org/2000/svg" width="33.111" height="31.976" viewBox="0 0 33.111 31.976">
  <path id="console" d="M0,31.976H33.111V0H0ZM14.582,16.655a1.351,1.351,0,0,1-.132.119h.017L7.3,23.948a1.467,1.467,0,0,1-1.955.137,1.424,1.424,0,0,1-.2-2,.746.746,0,0,1,.094-.1l6.211-6.217L5.287,9.6a1.466,1.466,0,0,1-.138-1.955,1.424,1.424,0,0,1,2-.2.912.912,0,0,1,.1.094l7.3,7.306a1.28,1.28,0,0,1,.032,1.807m12.6,6.943a.333.333,0,0,1-.043.151,1.421,1.421,0,0,1-1.382,1.1H16.473a1.421,1.421,0,0,1-1.381-1.1.3.3,0,0,1-.043-.151V23.24a.323.323,0,0,1,.041-.152,1.424,1.424,0,0,1,1.382-1.1h9.287a1.421,1.421,0,0,1,1.382,1.1.32.32,0,0,1,.042.151Z" fill="#fff"/>
</svg>
