<svg xmlns="http://www.w3.org/2000/svg" width="330" height="262.962" viewBox="0 0 330 262.962">
  <g id="Group_6" data-name="Group 6" transform="translate(-1238 -47.339)">
    <g id="Advertisement" transform="translate(1218 -75.322)">
      <line id="Line_26" data-name="Line 26" x2="329.406" transform="translate(20 177.436)" fill="none" stroke="#fff" stroke-width="1"/>
      <line id="Line_27" data-name="Line 27" x2="250.357" transform="translate(99.643 257.014)" fill="none" stroke="#fff" stroke-width="1"/>
      <line id="Line_28" data-name="Line 28" x2="328.871" transform="translate(20.179 329.9)" fill="none" stroke="#fff" stroke-width="1"/>
      <line id="Line_29" data-name="Line 29" y2="262.529" transform="translate(99.541 123.094)" fill="none" stroke="#fff" stroke-width="1"/>
      <line id="Line_30" data-name="Line 30" y2="207.332" transform="translate(185.569 177.912)" fill="none" stroke="#fff" stroke-width="1"/>
      <line id="Line_31" data-name="Line 31" y2="207.332" transform="translate(268.159 122.661)" fill="none" stroke="#fff" stroke-width="1"/>
      <rect id="Rectangle_5000" data-name="Rectangle 5000" width="17" height="16" transform="translate(91.5 322.142)" fill="#b5b5b5"/>
      <rect id="Rectangle_5002" data-name="Rectangle 5002" width="17" height="16" transform="translate(329.5 178.142)" fill="#b5b5b5"/>
    </g>
    <g id="noun-contact-1562529" transform="translate(1204.691 -98.006)">
      <g id="Group_5" data-name="Group 5" transform="translate(210.293 210.943)">
        <path id="Path_1" data-name="Path 1" d="M242.377,251.432H232.155a.551.551,0,1,0,0,1.1h10.222a.551.551,0,0,0,0-1.1Z" transform="translate(-217.764 -225.136)" fill="#fff"/>
        <path id="Path_2" data-name="Path 2" d="M244.292,245.393h-6.675a.551.551,0,1,0,0,1.1h6.675a.551.551,0,0,0,0-1.1Z" transform="translate(-219.678 -223.019)" fill="#fff"/>
        <path id="Path_3" data-name="Path 3" d="M245.887,239.353h-3.72a.551.551,0,1,0,0,1.1h3.72a.551.551,0,1,0,0-1.1Z" transform="translate(-221.273 -220.902)" fill="#fff"/>
        <path id="Path_4" data-name="Path 4" d="M245.887,263.511h-3.72a.551.551,0,1,0,0,1.1h3.72a.551.551,0,1,0,0-1.1Z" transform="translate(-221.273 -229.371)" fill="#fff"/>
        <path id="Path_5" data-name="Path 5" d="M244.292,257.472h-6.675a.551.551,0,1,0,0,1.1h6.675a.551.551,0,0,0,0-1.1Z" transform="translate(-219.678 -227.254)" fill="#fff"/>
        <path id="Path_6" data-name="Path 6" d="M268.7,227.191a.493.493,0,0,0-.067-.06,2.9,2.9,0,0,0-1.887-.7h-19.09V215.993a5.054,5.054,0,0,0-5.049-5.05H215.343a5.056,5.056,0,0,0-5.05,5.05v48.425a5.055,5.055,0,0,0,5.049,5.049h27.264a5.055,5.055,0,0,0,5.049-5.049v-5.886h0v-9.387h19.089a2.918,2.918,0,0,0,2.915-2.915V229.348a2.905,2.905,0,0,0-.959-2.157Zm-1.954.343a1.808,1.808,0,0,1,.536.081l-13.262,9.5-13.263-9.5a1.814,1.814,0,0,1,.536-.081ZM211.4,215.993a3.953,3.953,0,0,1,3.949-3.949h27.264a3.953,3.953,0,0,1,3.947,3.949V218.6H211.393v-2.609Zm35.161,48.426a3.953,3.953,0,0,1-3.948,3.949H215.342a3.953,3.953,0,0,1-3.949-3.949V261.81h35.161v2.609Zm0-5.887h0v2.176H211.4V219.7h35.161v6.73H241.3a2.891,2.891,0,0,0-1.9.713l-.032.029c-.041.037-.083.072-.123.112a2.9,2.9,0,0,0-.854,2.061V246.23a2.918,2.918,0,0,0,2.915,2.915h5.261v9.387Zm22-12.3a1.816,1.816,0,0,1-1.814,1.814H241.295a1.816,1.816,0,0,1-1.814-1.814V229.347a1.8,1.8,0,0,1,.338-1.051l13.881,9.941a.673.673,0,0,0,.068.041h.007a.594.594,0,0,0,.108.039l.025.006a.557.557,0,0,0,.113.014h0a.522.522,0,0,0,.113-.014l.025-.006a.512.512,0,0,0,.108-.039h.007a.68.68,0,0,0,.068-.041l13.879-9.94a1.8,1.8,0,0,1,.338,1.05V246.23Z" transform="translate(-210.293 -210.943)" fill="#fff"/>
        <path id="Path_7" data-name="Path 7" d="M240.633,217.086h-8.138a.551.551,0,0,0,0,1.1h8.138a.551.551,0,1,0,0-1.1Z" transform="translate(-217.883 -213.096)" fill="#fff"/>
        <path id="Path_8" data-name="Path 8" d="M223.187,217.086h-2.194a.551.551,0,0,0,0,1.1h2.194a.551.551,0,1,0,0-1.1Z" transform="translate(-213.851 -213.096)" fill="#fff"/>
        <path id="Path_9" data-name="Path 9" d="M240.633,293.219h-8.138a.551.551,0,0,0,0,1.1h8.138a.551.551,0,0,0,0-1.1Z" transform="translate(-217.883 -239.785)" fill="#fff"/>
      </g>
    </g>
  </g>
</svg>
