<svg xmlns="http://www.w3.org/2000/svg" viewBox="0 0 500 500"><defs><style>.cls-1{isolation:isolate;}.cls-2{opacity:0.6;}.cls-3{mix-blend-mode:screen;}.cls-4{fill:#606060;}</style></defs><g class="cls-1"><g id="Layer_1" data-name="Layer 1"><g class="cls-2"><g class="cls-3"><path class="cls-4" d="M268.3978,214.7894a17.9947,17.9947,0,1,0,17.9945-17.9947A18.0149,18.0149,0,0,0,268.3978,214.7894Zm24.9582,0a6.9637,6.9637,0,1,1-6.9637-6.9637A6.9716,6.9716,0,0,1,293.356,214.7894Z"/><path class="cls-4" d="M254.5126,214.7894a31.88,31.88,0,1,0,31.88-31.88A31.9162,31.9162,0,0,0,254.5126,214.7894Zm58.2442,0a26.3644,26.3644,0,1,1-26.3645-26.3645A26.3941,26.3941,0,0,1,312.7568,214.7894Z"/><path class="cls-4" d="M290.0005,161.9545c-1.1941-.08-2.4081-.121-3.6082-.121h-.1368l.016,4.8792c-1.1036.0029-2.1953.0544-3.2805.1307l-.3415-4.88c-1.1991.0837-2.4079.21-3.5936.374l.6717,4.8443c-1.0892.1517-2.1685.3334-3.2332.5572l-1.0007-4.7824c-1.1751.2457-2.357.5359-3.5126.862l1.33,4.7141c-1.0562.2993-2.1.6262-3.126.9947l-1.6491-4.6072c-1.1277.4038-2.2572.8525-3.3573,1.334l1.9649,4.4892q-1.5048.66-2.9531,1.42l-2.27-4.3481c-1.0637.5552-2.1214,1.1542-3.1437,1.78l2.5579,4.1773c-.9335.5724-1.84,1.1835-2.73,1.8163l-2.8431-4.0034c-.9773.694-1.9437,1.431-2.8728,2.1906l3.1034,3.7952c-.8468.693-1.6642,1.4195-2.4618,2.1677l-3.36-3.5816c-.8751.8208-1.7331,1.6821-2.55,2.56l3.5931,3.3445q-1.1178,1.2009-2.1551,2.4742l-3.8091-3.0911c-.7562.9322-1.49,1.9023-2.1814,2.8838l4.014,2.827c-.63.8935-1.2407,1.8016-1.81,2.7384l-4.185-2.5388c-.6235,1.0274-1.2188,2.089-1.77,3.1553l4.358,2.2523c-.5023.97-.9772,1.9566-1.4141,2.9637l-4.4946-1.9444c-.4773,1.1034-.9224,2.2377-1.3227,3.3715l4.617,1.63q-.5456,1.5407-.9844,3.1289l-4.7186-1.3091c-.3211,1.1567-.606,2.34-.8466,3.5164l4.7817.9785c-.219,1.0654-.3891,2.1475-.5361,3.237l-4.8488-.65c-.1592,1.187-.28,2.3965-.3582,3.5952l4.879.32c-.0694,1.0551-.1174,2.1162-.1174,3.1885,0,.0307.0023.0607.0023.0912l-4.8785.0094c.0022,1.2017.0454,2.4158.1279,3.6086l4.88-.3379q.1149,1.6476.3373,3.2637l-4.8448.6683c.1642,1.19.3717,2.3885.6167,3.5629l4.7823-.9978c.2253,1.0762.4962,2.135.7923,3.1834l-4.7146,1.3272c.3252,1.1557.6952,2.3153,1.1,3.4464l4.608-1.6471q.5547,1.5474,1.2134,3.0429l-4.49,1.9614c.48,1.0982,1.0042,2.1946,1.5588,3.259l4.35-2.2667c.5066.97,1.0373,1.9264,1.607,2.8567l-4.1785,2.5551c.6252,1.0225,1.2941,2.0373,1.9883,3.016l4.0053-2.84c.6335.8922,1.29,1.7674,1.9812,2.6133l-3.7975,3.1013c.7585.9288,1.559,1.8437,2.3794,2.72l3.5834-3.3573q1.1222,1.1976,2.3218,2.3177l-3.3468,3.5915c.8776.8176,1.7948,1.616,2.7263,2.3728l3.0931-3.807c.8485.69,1.7242,1.3461,2.619,1.9779l-2.8295,4.0126c.9811.692,1.9987,1.3588,3.0245,1.9822l2.5421-4.1828c.9334.5679,1.8943,1.0934,2.8678,1.5983l-2.2548,4.3564c1.067.5522,2.1671,1.0748,3.27,1.5526l1.9474-4.4939q1.5026.6531,3.0566,1.2032l-1.6332,4.6153c1.1316.4005,2.292.7669,3.4493,1.0887l1.3125-4.7181c1.05.293,2.1084.5631,3.1854.785l-.9816,4.7819c1.1741.2412,2.3731.4449,3.5641.6053l.6539-4.8482q1.6161.2187,3.2642.33l-.323,4.8792c1.1705.0775,2.3621.1168,3.5417.1168h.0621v-4.8779c1.1032-.0014,2.1944-.0527,3.2792-.1274l.3352,4.88c1.1985-.0824,2.4078-.2067,3.5942-.37l-.6657-4.8456c1.0891-.15,2.1693-.3287,3.234-.551l.9946,4.7823c1.1752-.2445,2.3573-.533,3.5135-.8577l-1.3244-4.7157c1.0565-.2977,2.1008-.6245,3.1268-.9915l1.6447,4.61c1.1288-.4029,2.2585-.85,3.3578-1.33l-1.9585-4.4909q1.5055-.6585,2.9543-1.4172l2.2642,4.3514c1.0638-.5536,2.1223-1.1512,3.1459-1.7761l-2.5518-4.18c.9342-.5711,1.8406-1.1823,2.7314-1.8141l2.838,4.0071c.978-.6926,1.9454-1.4286,2.8756-2.1873l-3.0994-3.8c.8479-.6919,1.6673-1.4161,2.4657-2.1633l3.3542,3.5855c.876-.8192,1.7351-1.68,2.554-2.5573l-3.59-3.3491q1.12-1.1994,2.16-2.4706l3.8045,3.0953c.7577-.931,1.4928-1.9,2.1851-2.881l-4.0109-2.8321c.6313-.8929,1.2429-1.8,1.8133-2.7364l4.1822,2.5441c.6247-1.0267,1.2215-2.0876,1.7737-3.153l-4.3551-2.2575c.5037-.97.9787-1.9555,1.4167-2.9622l4.4932,1.9507c.4787-1.1029.9252-2.2367,1.3269-3.37l-4.6143-1.6358c.365-1.0267.6915-2.071.9872-3.1282l4.7178,1.3152c.3221-1.1559.6085-2.3385.8509-3.5152l-4.7821-.9853c.22-1.0651.3938-2.1462.542-3.2356l4.8476.6568c.1607-1.1863.2828-2.3961.3629-3.5953l-4.8793-.3258c.0723-1.0749.122-2.1559.122-3.2491l-.0007-.03,4.8769-.0031c-.0007-1.2012-.0423-2.4155-.1234-3.6092l-4.88.3318q-.113-1.6478-.3343-3.2639l4.8462-.6627c-.1628-1.19-.3687-2.3888-.6123-3.5634l-4.7819.9914c-.2242-1.0764-.4945-2.1354-.79-3.1841l4.7162-1.3208c-.3237-1.1562-.6921-2.3163-1.095-3.4481l-4.6113,1.6417q-.5529-1.5482-1.208-3.045l4.4915-1.956c-.4785-1.0992-1.0016-2.1962-1.5545-3.2605l-4.3527,2.2615c-.5056-.9711-1.0335-1.9288-1.602-2.86l4.18-2.5488c-.6241-1.0236-1.2916-2.0392-1.9843-3.0185l-4.0088,2.8351c-.6325-.8931-1.2885-1.7683-1.9789-2.6151l3.8021-3.097c-.7573-.93-1.5567-1.8459-2.3757-2.7225l-3.5874,3.3521q-1.12-1.1987-2.32-2.32l3.3519-3.5875c-.8769-.8194-1.7932-1.619-2.7234-2.3766l-3.0972,3.8025c-.8474-.6908-1.723-1.3473-2.6169-1.98l2.8349-4.0091c-.9806-.6934-1.9975-1.3617-3.0225-1.9864l-2.5479,4.181c-.9326-.5692-1.8921-1.0973-2.8651-1.6034l2.26-4.354c-1.0678-.5541-2.1674-1.0779-3.2678-1.5564l-1.9534,4.4925q-1.5016-.6546-3.0541-1.2088l1.6383-4.613c-1.1323-.4021-2.2924-.77-3.4478-1.0926l-1.3183,4.717c-1.0491-.2942-2.1081-.5647-3.1846-.788l.9879-4.7824c-1.1753-.2427-2.3742-.4478-3.5636-.61l-.66,4.8469q-1.6158-.2208-3.264-.3327Zm36.1984,52.8349a39.8065,39.8065,0,1,1-39.8066-39.8064A39.8516,39.8516,0,0,1,326.1989,214.7894Z"/></g><g class="cls-3"><path class="cls-4" d="M70.7455,401.4883A17.6027,17.6027,0,1,0,88.348,383.8854,17.6026,17.6026,0,0,0,70.7455,401.4883Z"/><path class="cls-4" d="M28.0087,401.4883a60.34,60.34,0,1,1,60.3386,60.34,60.4076,60.4076,0,0,1-60.3386-60.34m-2.4857,0a62.8252,62.8252,0,1,0,62.8243-62.8254A62.825,62.825,0,0,0,25.523,401.4883Z"/><path class="cls-4" d="M106.1841,317.5035a86.4107,86.4107,0,0,0-17.8361-1.8568l-.2059,0,.0436,10.12a75.6839,75.6839,0,0,0-15.7417,1.69l-2.1186-9.913a85.4213,85.4213,0,0,0-17.0634,5.58l4.1567,9.27a75.7557,75.7557,0,0,0-13.6711,7.95l-5.9962-8.2059A86.4454,86.4454,0,0,0,24.45,344.1662l7.5608,6.7867a76.1119,76.1119,0,0,0-9.2819,12.8134l-8.8077-5.0749a85.598,85.598,0,0,0-7.28,16.41l9.655,3.1157a75.1406,75.1406,0,0,0-3.2746,15.4805L2.9547,392.6693a87.4549,87.4549,0,0,0,.03,17.9223l10.069-1.0619a75.1161,75.1161,0,0,0,3.3226,15.466l-9.6474,3.1487a85.6156,85.6156,0,0,0,7.333,16.3836l8.7905-5.103A76.1521,76.1521,0,0,0,32.17,452.208l-7.5352,6.8078a86.4545,86.4545,0,0,0,13.3408,11.9871l5.9714-8.2272a75.7349,75.7349,0,0,0,13.6992,7.9106l-4.1248,9.2826a85.4311,85.4311,0,0,0,17.0839,5.5236l2.0846-9.9154a75.7264,75.7264,0,0,0,15.6579,1.6374c.0283,0,.0564-.0023.0848-.0023l.0108,10.1176a86.367,86.367,0,0,0,17.8345-1.8766l-2.1076-9.9141a75.0744,75.0744,0,0,0,15.0306-4.9211l4.1461,9.2739a85.947,85.947,0,0,0,15.5207-8.9963l-5.9876-8.2132a76.3465,76.3465,0,0,0,11.7506-10.5954l7.5521,6.7941a86.2136,86.2136,0,0,0,10.5446-14.513l-8.8018-5.0846a75.3376,75.3376,0,0,0,6.4477-14.4447l9.6531,3.1272a85.6869,85.6869,0,0,0,3.7054-17.5637l-10.0675-1.04a75.6662,75.6662,0,0,0-.0106-15.8314l10.0682-1.0513a85.6464,85.6464,0,0,0-3.724-17.5565l-9.65,3.1381a75.315,75.315,0,0,0-6.4612-14.4361l8.7964-5.0938a86.2577,86.2577,0,0,0-10.5572-14.5l-7.5443,6.8005A76.3475,76.3475,0,0,0,132.8179,340.25l5.98-8.22a85.9127,85.9127,0,0,0-15.5359-8.9837l-4.1354,9.2786a75.07,75.07,0,0,0-15.0389-4.9066Zm51.7229,83.9848A69.5588,69.5588,0,1,1,88.348,331.93,69.6376,69.6376,0,0,1,157.907,401.4883Z"/></g><g class="cls-3"><path class="cls-4" d="M195.1838,82.8931a49.8219,49.8219,0,1,0,49.81-49.8336A49.818,49.818,0,0,0,195.1838,82.8931Zm73.6854,0A23.8636,23.8636,0,1,1,244.9938,59.018,23.8653,23.8653,0,0,1,268.8692,82.8931Z"/><path class="cls-4" d="M244.8534,15.8552a66.9092,66.9092,0,0,0-9.7372.7258L233.4308,5.1816c-1.4747.2109-2.9493.4917-4.4006.7726l2.3174,11.2821a67.0267,67.0267,0,0,0-9.3629,2.6917L218.0289,9.0907c-1.4043.515-2.7852,1.0767-4.143,1.6619l4.5645,10.58a68.7592,68.7592,0,0,0-8.6372,4.5177l-6.0625-9.8076c-1.2639.7724-2.528,1.5916-3.7451,2.4576l6.624,9.48a60.9777,60.9777,0,0,0-7.537,6.1561L191.1577,25.71c-1.0767,1.0065-2.1535,2.0833-3.1834,3.16l8.403,7.9585a61.1619,61.1619,0,0,0-6.1793,7.5371l-9.4566-6.6711c-.8426,1.2173-1.6852,2.4812-2.481,3.7452l9.8309,6.1094a64.2357,64.2357,0,0,0-4.5409,8.6137L172.9471,51.551c-.5852,1.3811-1.1471,2.7855-1.662,4.1666L182.1225,59.72a66.2036,66.2036,0,0,0-2.7152,9.3629l-11.2822-2.364c-.3042,1.4512-.5851,2.9491-.7958,4.4237l11.3992,1.7088a69.7456,69.7456,0,0,0-.749,9.7139l-11.5164-.0468v.3745c0,1.3577.0236,2.7386.0937,4.0962l11.5163-.6086a66.0693,66.0693,0,0,0,1.2171,9.6906l-11.3289,2.2471c.3043,1.4747.6319,2.9259,1.0064,4.3773l11.1653-2.9026a68.9793,68.9793,0,0,0,3.1366,9.2223L172.6662,113.51c.5617,1.3809,1.1935,2.7384,1.8491,4.0728l10.3693-5.1029a66.8,66.8,0,0,0,4.9154,8.4032l-9.5033,6.554c.8428,1.2171,1.7324,2.4344,2.645,3.6047l9.1288-7.0925a66.2278,66.2278,0,0,0,6.5306,7.2563l-8.0052,8.333c1.0533,1.03,2.1768,2.0363,3.3,2.996l7.5372-8.7777a61.1466,61.1466,0,0,0,7.8412,5.8051l-6.1793,9.7608c1.264.7958,2.5513,1.5681,3.8622,2.2938l5.5943-10.1119a60.6492,60.6492,0,0,0,8.8478,4.0962l-4.0728,10.814c1.4045.5151,2.8322,1.0066,4.26,1.4515l3.441-11.0014a67.3013,67.3013,0,0,0,9.48,2.2237l-1.8022,11.3758c1.4745.234,2.9727.4213,4.4472.5851L238.3,149.5564a63.096,63.096,0,0,0,6.6942.3512c1.03,0,2.0365-.0234,3.043-.0936l.5151,11.54c1.4979-.07,2.9959-.1873,4.4707-.3277l-1.1705-11.47a68.81,68.81,0,0,0,9.62-1.6853l2.8087,11.1653c1.4513-.3512,2.9025-.7725,4.307-1.2173l-3.4642-11.0012a64.6276,64.6276,0,0,0,9.0585-3.6047l5.0325,10.3927c1.3341-.6553,2.6684-1.3577,3.9791-2.06l-5.641-10.1118a60.1992,60.1992,0,0,0,8.1456-5.3369l7.0455,9.1758c1.1705-.913,2.3408-1.8492,3.4643-2.8325l-7.5371-8.7541a63.9007,63.9007,0,0,0,6.9051-6.8816l8.7309,7.5838c.96-1.1235,1.9194-2.2938,2.8321-3.4642l-9.152-7.0689a67.2814,67.2814,0,0,0,5.43-8.1222l10.0414,5.6644c.7258-1.2873,1.4279-2.6217,2.0833-3.9558l-10.3693-5.0792a63.7981,63.7981,0,0,0,3.6749-9.0586l10.978,3.5111c.4447-1.4046.866-2.8557,1.24-4.3071l-11.1418-2.8556a64.7656,64.7656,0,0,0,1.7088-9.597l11.4693,1.2173c.1639-1.4747.2809-2.9727.3513-4.4709L311.9381,86.24c.07-1.1.0937-2.2237.0937-3.3472a57.85,57.85,0,0,0-.3277-6.39l11.4929-1.1c-.14-1.4747-.3277-2.9727-.5619-4.4473l-11.3757,1.7555a64.7069,64.7069,0,0,0-2.2-9.5267l11.0483-3.3706c-.4447-1.4278-.9364-2.8557-1.4513-4.2367L307.8419,59.58a69.1259,69.1259,0,0,0-4.05-8.8713l10.112-5.5474c-.7022-1.2875-1.4747-2.5982-2.2471-3.8389L301.85,47.4314a60.7886,60.7886,0,0,0-5.7582-7.8413l8.8245-7.49c-.96-1.1469-1.9662-2.247-2.9961-3.3236l-8.38,7.9583a61.76,61.76,0,0,0-7.2091-6.554l7.1391-9.1052q-1.7558-1.3695-3.5815-2.6684l-6.624,9.5031a59.4456,59.4456,0,0,0-8.38-4.9856l5.1729-10.3459c-1.3342-.679-2.7153-1.3109-4.0728-1.8961l-4.5643,10.6034a64.9655,64.9655,0,0,0-9.2224-3.1834l2.9491-11.1417c-1.4278-.3979-2.9023-.7255-4.3537-1.03L258.5,17.2129a69.4429,69.4429,0,0,0-9.6906-1.2407l.6554-11.5162c-1.4746-.07-2.9727-.117-4.4239-.117h-.2342Zm57.4878,67.0379a57.3473,57.3473,0,1,1-57.3474-57.3472A57.41,57.41,0,0,1,302.3412,82.8931Z"/></g><g class="cls-3"><path class="cls-4" d="M189.8627,422.9842a30.9784,30.9784,0,1,0,30.9711-30.9856A30.976,30.976,0,0,0,189.8627,422.9842Zm45.8163,0a14.8379,14.8379,0,1,1-14.8452-14.8452A14.8388,14.8388,0,0,1,235.679,422.9842Z"/><path class="cls-4" d="M220.7464,381.3012a41.6055,41.6055,0,0,0-6.0544.4513l-1.0479-7.0879c-.917.131-1.8338.3058-2.7362.48l1.4409,7.015a41.6539,41.6539,0,0,0-5.8216,1.6737l-2.46-6.7384c-.8732.32-1.7319.6694-2.5761,1.0331l2.8382,6.5786a42.7591,42.7591,0,0,0-5.37,2.8089l-3.77-6.0982c-.7859.48-1.5718.99-2.3286,1.5282L196.98,388.84a37.9174,37.9174,0,0,0-4.6864,3.8277l-4.9338-5.24c-.67.6259-1.339,1.2955-1.9794,1.9649l5.2249,4.9483a38.0425,38.0425,0,0,0-3.8422,4.6864l-5.88-4.1479c-.524.7568-1.0479,1.5427-1.5427,2.3287l6.1127,3.7986a39.8993,39.8993,0,0,0-2.8234,5.356l-6.593-2.8673c-.3639.8587-.7133,1.732-1.0335,2.5907l6.7386,2.4887a41.1651,41.1651,0,0,0-1.6883,5.8216l-7.015-1.47c-.1892.9023-.3638,1.8337-.4948,2.7507l7.0878,1.0624a43.3542,43.3542,0,0,0-.4657,6.04l-7.1607-.0289v.2328c0,.844.0146,1.7028.0581,2.5469l7.1608-.3785a41.0845,41.0845,0,0,0,.7566,6.0256l-7.0441,1.397c.1894.917.3931,1.82.6259,2.7217l6.9424-1.8047a42.8713,42.8713,0,0,0,1.95,5.7343l-6.593,2.7944c.3494.8586.7422,1.7028,1.15,2.5324l6.4474-3.1728a41.5562,41.5562,0,0,0,3.0564,5.2249l-5.909,4.0752c.524.7568,1.077,1.5136,1.6447,2.2412l5.6762-4.41a41.1945,41.1945,0,0,0,4.06,4.5118L187.01,458.205c.655.64,1.3535,1.2661,2.052,1.8629l4.6866-5.4577a38.0038,38.0038,0,0,0,4.8755,3.6093l-3.8422,6.0691c.7859.4948,1.5862.975,2.4013,1.4263l3.4784-6.2875a37.7275,37.7275,0,0,0,5.5014,2.5471l-2.5323,6.7239c.8733.32,1.761.6259,2.6488.9024l2.1395-6.84a41.8163,41.8163,0,0,0,5.8945,1.3827l-1.1207,7.0732c.9168.1455,1.8483.262,2.7651.364l.7133-7.1463a39.2106,39.2106,0,0,0,4.1624.2185c.64,0,1.2662-.0146,1.8921-.0583l.32,7.1752c.9314-.0437,1.8628-.1165,2.78-.2037l-.7277-7.1317a42.7844,42.7844,0,0,0,5.9817-1.0477l1.7464,6.9422c.9024-.2183,1.8047-.48,2.678-.7568l-2.1539-6.84a40.2007,40.2007,0,0,0,5.6323-2.2412l3.1291,6.4619c.83-.4076,1.6592-.8442,2.4743-1.2808l-3.5076-6.2873a37.4392,37.4392,0,0,0,5.0648-3.3184l4.3809,5.7053c.7277-.5676,1.4553-1.15,2.1539-1.7612l-4.6864-5.4431a39.7352,39.7352,0,0,0,4.2935-4.279l5.4286,4.7155c.5967-.6985,1.1935-1.4262,1.761-2.1538l-5.6906-4.3955a41.8133,41.8133,0,0,0,3.3765-5.05l6.2438,3.5221c.4511-.8.8877-1.63,1.2953-2.46l-6.4475-3.1582a39.6706,39.6706,0,0,0,2.2851-5.6323l6.8258,2.183c.2766-.8733.5385-1.7756.7714-2.678l-6.9278-1.7756a40.27,40.27,0,0,0,1.0624-5.9671l7.1315.7568c.1018-.917.1746-1.8483.2183-2.78l-7.1606-.3492c.0437-.6841.0583-1.3826.0583-2.0812a35.963,35.963,0,0,0-.2038-3.9732l7.1461-.6842c-.0874-.9168-.2037-1.8484-.3494-2.7652l-7.0732,1.0916a40.2576,40.2576,0,0,0-1.3681-5.9236l6.87-2.0958c-.2765-.8876-.5822-1.7757-.9022-2.6342l-6.7241,2.4886a43.0142,43.0142,0,0,0-2.5179-5.516l6.2873-3.4493c-.4366-.8-.9168-1.6153-1.3971-2.3869l-6.0982,3.7987a37.803,37.803,0,0,0-3.58-4.8755l5.4869-4.6574c-.5968-.7131-1.2227-1.3971-1.863-2.0667l-5.2105,4.9486a38.3787,38.3787,0,0,0-4.4824-4.0753l4.4389-5.6616q-1.0914-.8514-2.2268-1.659l-4.1187,5.9088a36.9792,36.9792,0,0,0-5.21-3.1l3.2163-6.433c-.8294-.422-1.6881-.815-2.5323-1.1788l-2.838,6.593a40.3875,40.3875,0,0,0-5.7342-1.9794l1.8336-6.9278c-.8877-.2474-1.8047-.4511-2.7069-.64l-1.4264,7.015a43.19,43.19,0,0,0-6.0254-.7714l.4076-7.1606c-.9169-.0435-1.8485-.0726-2.7507-.0726h-.1457Zm35.7449,41.683a35.6575,35.6575,0,1,1-35.6575-35.6574A35.6966,35.6966,0,0,1,256.4913,422.9842Z"/></g><g class="cls-3"><path class="cls-4" d="M218.0253,319.7281a21.36,21.36,0,1,0-21.36,21.3607A21.3845,21.3845,0,0,0,218.0253,319.7281Zm-41.5174,0a20.157,20.157,0,1,1,20.1569,20.1573A20.18,20.18,0,0,1,176.5079,319.7281Z"/><path class="cls-4" d="M214.8964,319.7281A18.2315,18.2315,0,1,0,196.6648,337.96,18.252,18.252,0,0,0,214.8964,319.7281Zm-35.26,0a17.0281,17.0281,0,1,1,17.028,17.0284A17.047,17.047,0,0,1,179.6368,319.7281Z"/><path class="cls-4" d="M208.6384,319.7281a11.9736,11.9736,0,1,0-11.9736,11.9739A11.9869,11.9869,0,0,0,208.6384,319.7281Zm-22.7437,0a10.77,10.77,0,1,1,10.77,10.77A10.7822,10.7822,0,0,1,185.8947,319.7281Z"/><path class="cls-4" d="M204.4265,319.7281a7.7616,7.7616,0,1,0-7.7617,7.7618A7.7614,7.7614,0,0,0,204.4265,319.7281Z"/><path class="cls-4" d="M203.5919,277.3157a43.39,43.39,0,0,0-6.9271-.5563l-.1061,0,.026,6.3036a36.6528,36.6528,0,0,0-7.5526.8025l-1.3073-6.1737a42.8177,42.8177,0,0,0-6.67,1.9926l2.2971,5.8891a36.5594,36.5594,0,0,0-6.7419,3.4814l-3.4667-5.2906a43.2559,43.2559,0,0,0-5.4889,4.2668l4.2694,4.6621a36.9561,36.9561,0,0,0-5.0365,5.6791l-5.1381-3.6921a43.052,43.052,0,0,0-3.59,5.9612l5.6616,2.8112a36.3879,36.3879,0,0,0-2.662,7.1072l-6.1075-1.5727a42.9649,42.9649,0,0,0-1.1812,6.8569l6.2854.5638c-.0987,1.0945-.1574,2.2-.1574,3.32a36.8664,36.8664,0,0,0,.2571,4.2729l-6.27.7273a42.9336,42.9336,0,0,0,1.3605,6.8248l6.0755-1.7357a36.44,36.44,0,0,0,2.8362,7.037l-5.586,2.9584a43.1246,43.1246,0,0,0,3.7411,5.8616l5.0375-3.821a36.9753,36.9753,0,0,0,5.19,5.5385l-4.1517,4.7765a43.24,43.24,0,0,0,5.6,4.1247l3.3259-5.3761a36.539,36.539,0,0,0,6.83,3.3084l-2.14,5.94a42.8266,42.8266,0,0,0,6.7205,1.8171l1.1458-6.21a36.6982,36.6982,0,0,0,6.6951.6235c.2927,0,.5819-.0153.873-.0222l.1478,6.3121a43.2945,43.2945,0,0,0,6.9146-.72l-1.16-6.2074a36.3672,36.3672,0,0,0,7.2721-2.1646l2.4227,5.8331a43.0039,43.0039,0,0,0,6.1852-3.181l-3.338-5.37a36.8886,36.8886,0,0,0,5.9935-4.655l4.3729,4.5754a43.3091,43.3091,0,0,0,4.6232-5.1926l-5.0442-3.81a36.71,36.71,0,0,0,3.9251-6.4962l5.7191,2.6878a42.8269,42.8269,0,0,0,2.4389-6.5241l-6.0792-1.7222a36.452,36.452,0,0,0,1.3029-7.4758l6.2981.43c.0669-.98.1009-1.9774.1009-2.9646,0-1.3272-.0616-2.6664-.1824-3.98l-6.2828.5779a36.426,36.426,0,0,0-1.4751-7.4448l6.0272-1.8647a42.854,42.854,0,0,0-2.5923-6.46L229.472,303.38a36.7542,36.7542,0,0,0-4.0794-6.3972l4.9587-3.9312a43.3176,43.3176,0,0,0-4.7434-5.0823l-4.2583,4.67a36.8694,36.8694,0,0,0-6.1089-4.5059l3.2108-5.4482a42.9421,42.9421,0,0,0-6.2657-3.0357l-2.2837,5.8938a36.3374,36.3374,0,0,0-7.3207-1.9983ZM165.293,319.7281A31.3719,31.3719,0,1,1,196.6648,351.1,31.4074,31.4074,0,0,1,165.293,319.7281Z"/></g><g class="cls-3"><path class="cls-4" d="M191.9734,206.9977A31.9332,31.9332,0,1,0,160.04,238.9311,31.9691,31.9691,0,0,0,191.9734,206.9977Zm-62.0674,0A30.1342,30.1342,0,1,1,160.04,237.1319,30.1679,30.1679,0,0,1,129.906,206.9977Z"/><path class="cls-4" d="M187.2957,206.9977A27.2556,27.2556,0,1,0,160.04,234.2534,27.2862,27.2862,0,0,0,187.2957,206.9977Zm-52.712,0A25.4565,25.4565,0,1,1,160.04,232.4542,25.4847,25.4847,0,0,1,134.5837,206.9977Z"/><path class="cls-4" d="M177.94,206.9977a17.9,17.9,0,1,0-17.9,17.9A17.92,17.92,0,0,0,177.94,206.9977Zm-34.0012,0A16.1011,16.1011,0,1,1,160.04,223.0988,16.1189,16.1189,0,0,1,143.9391,206.9977Z"/><path class="cls-4" d="M171.6435,206.9977A11.6034,11.6034,0,1,0,160.04,218.6011,11.6031,11.6031,0,0,0,171.6435,206.9977Z"/><path class="cls-4" d="M170.3957,143.5922a64.863,64.863,0,0,0-10.3558-.8317l-.1585,0,.0389,9.4235a54.8069,54.8069,0,0,0-11.291,1.2l-1.9543-9.23a64.0019,64.0019,0,0,0-9.9719,2.979l3.4342,8.8039a54.68,54.68,0,0,0-10.0792,5.2046l-5.1824-7.9093a64.66,64.66,0,0,0-8.2058,6.3789l6.3824,6.97a55.2631,55.2631,0,0,0-7.5292,8.49l-7.6815-5.5194a64.4167,64.4167,0,0,0-5.3669,8.9119l8.4643,4.2024a54.3853,54.3853,0,0,0-3.98,10.6252L97.8286,190.94a64.2284,64.2284,0,0,0-1.766,10.2507l9.3966.8431c-.1477,1.6362-.2352,3.29-.2352,4.9636a55.0549,55.0549,0,0,0,.3844,6.3877l-9.3738,1.0871a64.1413,64.1413,0,0,0,2.034,10.2029l9.0825-2.5948a54.4578,54.4578,0,0,0,4.24,10.52l-8.3509,4.4229a64.4821,64.4821,0,0,0,5.5928,8.7628l7.5309-5.7123a55.28,55.28,0,0,0,7.7583,8.28l-6.2069,7.1409a64.6428,64.6428,0,0,0,8.3717,6.1663l4.9721-8.0371A54.615,54.615,0,0,0,141.47,258.57l-3.1988,8.88a63.9979,63.9979,0,0,0,10.0468,2.7165l1.7129-9.2847a54.851,54.851,0,0,0,10.0089.9325c.4378,0,.87-.0231,1.3052-.0333l.221,9.4363a64.7064,64.7064,0,0,0,10.3373-1.077l-1.7342-9.28a54.3419,54.3419,0,0,0,10.8716-3.236l3.622,8.72a64.2788,64.2788,0,0,0,9.2467-4.7552l-4.99-8.0284a55.1423,55.1423,0,0,0,8.96-6.959l6.5371,6.84a64.7535,64.7535,0,0,0,6.9119-7.763l-7.541-5.6954a54.8832,54.8832,0,0,0,5.8677-9.7118l8.55,4.0183a64.0161,64.0161,0,0,0,3.6459-9.7535l-9.0882-2.5746a54.4963,54.4963,0,0,0,1.9479-11.1762l9.4153.6429c.1-1.4652.1507-2.9561.1507-4.4319,0-1.9841-.0917-3.9861-.2724-5.95l-9.3928.8638a54.47,54.47,0,0,0-2.205-11.13l9.0105-2.7878a64.0732,64.0732,0,0,0-3.8754-9.6576l-8.456,4.2223a54.9489,54.9489,0,0,0-6.0985-9.564L210.4,167.117a64.7558,64.7558,0,0,0-7.0913-7.5979l-6.366,6.9815a55.131,55.131,0,0,0-9.1326-6.736l4.8-8.1447a64.1828,64.1828,0,0,0-9.3672-4.5385l-3.4141,8.8112a54.3156,54.3156,0,0,0-10.9443-2.9875ZM113.14,206.9977a46.9,46.9,0,1,1,46.9,46.9A46.9532,46.9532,0,0,1,113.14,206.9977Z"/></g></g><g class="cls-3"><path class="cls-4" d="M342.816,386.0089a18.3718,18.3718,0,1,0,25.93-1.6368A18.3924,18.3924,0,0,0,342.816,386.0089ZM361.3,392.8214a7.11,7.11,0,1,1-10.0343.6337A7.1179,7.1179,0,0,1,361.3,392.8214Z"/><path class="cls-4" d="M332.18,376.6364a32.5479,32.5479,0,1,0,45.9385-2.9A32.5844,32.5844,0,0,0,332.18,376.6364Zm42.2156,1.3244a26.9171,26.9171,0,1,1-37.9909,2.3983A26.9473,26.9473,0,0,1,374.3958,377.9608Z"/><path class="cls-4" d="M351.9025,349.3282l-.4786-4.99c-1.22.1172-2.45.2776-3.658.4769l.8152,4.9388c-1.1006.1812-2.1939.4085-3.2819.6646l-1.15-4.88c-1.1925.281-2.39.607-3.5591.9681l1.4761,4.7774c-1.0643.3282-2.116.7022-3.1592,1.1036l-1.8018-4.6722c-1.1432.4411-2.2847.9267-3.3938,1.4441l2.1152,4.5331q-1.5126.704-2.9833,1.5116l-2.4179-4.372c-1.0734.5933-2.1395,1.2317-3.1686,1.8974l2.7154,4.1992c-.9347.6032-1.857,1.2315-2.7558,1.9035l-2.99-3.9923c-.98.734-1.9484,1.5125-2.8772,2.3128l3.26,3.7822q-1.2615,1.086-2.461,2.2721l-3.51-3.5526c-.8684.858-1.7209,1.759-2.5339,2.6779l3.73,3.3c-.0205.0232-.0427.0449-.0633.0683-.724.8214-1.4033,1.6667-2.0623,2.5217l-3.9532-3.0484c-.7486.9711-1.473,1.9789-2.1523,2.9956l4.1533,2.775c-.623.9335-1.2229,1.8772-1.7744,2.841l-4.3233-2.4783c-.61,1.0637-1.19,2.1622-1.7251,3.2651l4.4983,2.1824q-.7326,1.5134-1.3583,3.061l-4.6371-1.8676c-.4586,1.1387-.8834,2.308-1.2627,3.4753l4.7554,1.5446c-.3452,1.0665-.6474,2.1424-.9174,3.2248l-4.8585-1.2167c-.2977,1.1888-.5583,2.4037-.7741,3.6114l4.9192.88c-.1963,1.1018-.3414,2.21-.4621,3.32l-4.9828-.5441c-.1332,1.2184-.2259,2.4568-.2757,3.6813l5.0042.2032q-.0676,1.6753-.02,3.35l-5.01.1362c.0331,1.2237.109,2.4627.2252,3.6822l4.991-.4757c.1057,1.1115.2417,2.2195.4223,3.3222l-4.9388.8121c.1989,1.209.4414,2.4259.7216,3.6172l4.88-1.1476c.2545,1.0858.5362,2.1656.865,3.234l-4.7792,1.4731c.3605,1.17.7664,2.3425,1.2062,3.4859l4.6737-1.7986q.5985,1.5587,1.3035,3.0808l-4.5354,2.1126c.5179,1.1111,1.08,2.2176,1.6714,3.2877l4.3729-2.4157c.5369.9746,1.116,1.93,1.7232,2.872L311.155,427.47c.6652,1.03,1.3744,2.05,2.1086,3.0315l3.9949-2.9878c.6646.89,1.3685,1.7577,2.1,2.6094l-3.7843,3.2572c.7972.9262,1.6381,1.8386,2.5,2.7121l3.5551-3.5071c.78.7912,1.5815,1.5674,2.4247,2.3146l-3.306,3.7266.1051.0922c.9191.81,1.8766,1.5984,2.8453,2.3428l3.042-3.9593q1.3382,1.0266,2.7248,1.9484l-2.7664,4.1579c1.02.6789,2.0771,1.3312,3.1409,1.9383l2.4717-4.33c.9752.5559,1.969,1.0633,2.9711,1.5462l-2.1741,4.5029c1.103.5325,2.24,1.034,3.3786,1.49l1.8589-4.6394q1.5625.6244,3.1551,1.1358l-1.5363,4.76c1.1662.3766,2.3619.7174,3.5539,1.0137l1.2081-4.86c1.0865.2689,2.1781.5123,3.2768.7058l-.8707,4.9223c1.2067.2133,2.4368.3877,3.6562.5186l.5345-4.9842c1.112.1186,2.2256.2068,3.3411.25l-.1945,5.0033c1.224.0474,2.4658.0536,3.69.0181l-.1458-5.0108q1.6743-.0489,3.3423-.2107l.4853,4.989c1.2192-.1185,2.45-.2806,3.6577-.4815l-.8221-4.9388c1.1006-.1824,2.1937-.41,3.281-.6673l1.1573,4.8777c1.1912-.2827,2.388-.61,3.5571-.9728l-1.4815-4.7741c1.0637-.3294,2.1147-.7065,3.1574-1.1093l1.8078,4.67c1.1415-.4419,2.283-.9291,3.3912-1.448l-2.12-4.53q1.5113-.7061,2.9806-1.5171l2.4241,4.37c1.0725-.5949,2.1379-1.2346,3.166-1.9018l-2.7208-4.1952c.934-.6044,1.8559-1.2327,2.7541-1.9059l2.9937,3.987c.9794-.7351,1.9465-1.5146,2.8743-2.316l-3.2646-3.7787q1.2606-1.0881,2.459-2.2746l3.5135,3.548c.8683-.86,1.72-1.7618,2.5311-2.6816l-3.7336-3.294.0211-.0229c.7379-.8372,1.4293-1.6989,2.1-2.5711l3.9575,3.0439c.7481-.9726,1.4711-1.9815,2.1487-2.9987l-4.1564-2.769c.6216-.9345,1.2188-1.88,1.7691-2.8442l4.3279,2.4732c.6085-1.0651,1.1874-2.1643,1.7209-3.2669L400.7934,419.5c.4868-1.0094.9418-2.03,1.3553-3.0627l4.6385,1.8617c.4574-1.1393.8806-2.3092,1.2584-3.4771l-4.7584-1.5387c.344-1.0668.6457-2.1426.9144-3.2253l4.86,1.2107c.2963-1.189.5553-2.4042.77-3.6125l-4.9211-.8743c.1951-1.102.339-2.21.4583-3.32l4.9838.5379c.1316-1.2186.2232-2.4571.2714-3.6816l-5.0038-.1973c.0436-1.1171.0454-2.234.0135-3.35l5.01-.1423c-.0348-1.2251-.1122-2.464-.23-3.6829l-4.9894.4824c-.1073-1.1114-.2462-2.2191-.4284-3.3214l4.9388-.8183c-.2006-1.2088-.4449-2.4257-.7263-3.6165l-4.8786,1.1536c-.2561-1.0849-.5377-2.1652-.8679-3.2332l4.7761-1.4789c-.3623-1.17-.77-2.342-1.2108-3.484l-4.6715,1.8048q-.6-1.5581-1.3065-3.08l4.5317-2.1179c-.5184-1.1091-1.0819-2.2142-1.6745-3.285l-4.3715,2.421c-.5382-.9737-1.1174-1.929-1.7258-2.87l4.1976-2.718c-.6664-1.0292-1.3771-2.0483-2.1122-3.0286l-3.99,2.9918c-.6656-.8894-1.3725-1.7549-2.1052-2.6053L397.58,362.88c-.7986-.9256-1.641-1.8371-2.5032-2.7091l-3.5508,3.5113c-.78-.79-1.5815-1.5654-2.4255-2.3112l3.2924-3.7363-.0473-.042c-.9038-.7961-1.843-1.57-2.7917-2.3012l-3.0462,3.9554q-1.3364-1.0286-2.7227-1.9508l2.7715-4.1551c-1.02-.6809-2.0763-1.3345-3.1386-1.9422l-2.4758,4.3254c-.9747-.5571-1.9682-1.0647-2.97-1.5488l2.18-4.5c-1.1037-.5347-2.24-1.0375-3.3771-1.4947l-1.8643,4.6378q-1.562-.6264-3.1533-1.1416l1.5416-4.7568c-1.1673-.3785-2.3629-.7207-3.5528-1.0179l-1.2135,4.8589c-1.0865-.2705-2.1774-.5165-3.2756-.7115l.8764-4.92c-1.2067-.2149-2.4364-.3911-3.6547-.5232l-.5413,4.9834c-1.1119-.12-2.2258-.2084-3.3413-.2528l.2006-5.0038c-1.2241-.0493-2.4658-.0569-3.69-.0229l.14,5.01Q353.5707,349.1669,351.9025,349.3282Zm31.5668,18.3366a40.6408,40.6408,0,1,1-57.3608,3.6208A40.6866,40.6866,0,0,1,383.4693,367.6648Z"/><path class="cls-4" d="M317.4427,109.5849a17.9717,17.9717,0,1,0,25.3655-1.6015A17.9715,17.9715,0,0,0,317.4427,109.5849Z"/><path class="cls-4" d="M282.8036,79.0594a64.1419,64.1419,0,1,0,90.53-5.7159A64.1414,64.1414,0,0,0,282.8036,79.0594Zm88.8518-3.812a61.6045,61.6045,0,1,1-86.9478,5.49A61.6749,61.6749,0,0,1,371.6554,75.2474Z"/><path class="cls-4" d="M339.265,34.2184a88.3007,88.3007,0,0,0-18.31.1768l1.1764,10.301a77.7284,77.7284,0,0,0-15.7662,3.5018l-3.2888-9.8425a87.3893,87.3893,0,0,0-16.6759,7.6l5.2645,8.9237a76.6823,76.6823,0,0,0-12.9849,9.604l-6.9957-7.61A89.297,89.297,0,0,0,259.5639,70.58l8.4048,6.0077a76.7114,76.7114,0,0,0-7.9414,14.0681l-9.4984-4.1307a87.38,87.38,0,0,0-5.5006,17.4835l10.172,2.0583a77.7359,77.7359,0,0,0-1.54,16.08l-10.3723.095a88.2744,88.2744,0,0,0,2.0687,18.1929l10.1322-2.2381a77.3481,77.3481,0,0,0,5.1055,15.3173l-9.4408,4.2944a87.1793,87.1793,0,0,0,9.3034,15.7923l8.3141-6.1628a77.2741,77.2741,0,0,0,10.9168,11.92l-6.8642,7.7218.1578.1389a88.2165,88.2165,0,0,0,14.9156,10.6174l5.0868-9.0093a76.6451,76.6451,0,0,0,14.8312,6.3929l-3.0955,9.8986a87.7156,87.7156,0,0,0,17.9643,3.6057l.9679-10.3327a77.9718,77.9718,0,0,0,16.1537-.1654l1.1881,10.3013a88.071,88.071,0,0,0,17.8739-3.98l-3.2992-9.8393a76.9412,76.9412,0,0,0,14.6935-6.6965l5.2738,8.918A87.4392,87.4392,0,0,0,390.24,185.9956l-7.0022-7.6015a77.2526,77.2526,0,0,0,10.6942-12.1194l8.4136,5.9992c.5177-.7263,1-1.4772,1.4959-2.2192l6.0425,3.4262a42.0251,42.0251,0,0,0-2.6363,5.5989l-6.8416-2.6425c-.3343.874-.6561,1.7787-.9571,2.6818l6.9855,2.2544a40.7573,40.7573,0,0,0-1.4527,6.0082l-7.2463-1.2164c-.1515.9363-.2805,1.8917-.39,2.825l7.3038.7918a38.8328,38.8328,0,0,0-.22,6.1833l-7.3425.2636c.0389.9449.1,1.9095.19,2.8407l7.3158-.6827a38.6592,38.6592,0,0,0,1.006,6.0954l-7.1336,1.7348c.216.9234.4742,1.844.7521,2.7421l7.0035-2.1265a43.6132,43.6132,0,0,0,2.2177,5.7769l-6.6147,3.1231c.4014.8487.8231,1.6956,1.2759,2.53l6.4326-3.5011a42.5346,42.5346,0,0,0,3.33,5.2117l-5.839,4.4008c.5733.7429,1.1578,1.4955,1.7715,2.2147l5.5869-4.7217a42.5282,42.5282,0,0,0,4.3332,4.4325l-4.8559,5.465.1118.0983c.6909.6091,1.4243,1.2157,2.156,1.801l4.5213-5.76a44.0243,44.0243,0,0,0,5.1361,3.4762l-3.6428,6.336c.8188.4643,1.6588.9271,2.5058,1.3369l3.2716-6.5441a41.2789,41.2789,0,0,0,5.7282,2.3543l-2.2763,6.9659c.8922.2911,1.8153.57,2.7355.8064l1.8786-7.0984a37.778,37.778,0,0,0,6.0834,1.1424l-.8336,7.3063q1.4151.1474,2.8257.2321l.4215-7.3326a39.2078,39.2078,0,0,0,6.1841-.0959l.6509,7.3073c.9425-.08,1.8834-.182,2.8221-.3256l-1.0592-7.271a38.5842,38.5842,0,0,0,6.0335-1.3177l2.1069,7.0261c.8885-.2667,1.8066-.5668,2.6814-.8854l-2.4876-6.8862a43.8775,43.8775,0,0,0,5.6519-2.5252l3.4705,6.4449c.8247-.4416,1.6582-.9154,2.4692-1.4087l-3.8472-6.2424a41.0666,41.0666,0,0,0,5.0465-3.6137l4.6809,5.6106c.7307-.604,1.4486-1.2389,2.1343-1.8823l-5.012-5.3478a36.7065,36.7065,0,0,0,2.8382-2.9058c.4716-.535.9319-1.08,1.36-1.6336l5.7207,4.5661c.5952-.7429,1.1682-1.5056,1.7091-2.2766l-5.9733-4.2342a41.1081,41.1081,0,0,0,3.214-5.2878l6.505,3.3161c.431-.8485.8394-1.7162,1.2169-2.5718l-6.7022-2.9353a40.5118,40.5118,0,0,0,2.0519-5.8567l7.07,1.9329c.2477-.91.4735-1.8406.6682-2.7583l-7.16-1.5169a42.6732,42.6732,0,0,0,.8228-6.1472l7.3259.4742c.0561-.94.09-1.9007.1048-2.8385l-7.3414-.0526a40.5349,40.5349,0,0,0-.4-6.1753l7.2638-1.0063c-.1224-.94-.2867-1.8768-.461-2.8029l-7.2067,1.4132a38.2236,38.2236,0,0,0-1.6395-5.9607l6.9306-2.4484c-.3294-.8846-.67-1.7789-1.0306-2.6511l-6.7589,2.8376a40.9806,40.9806,0,0,0-2.8012-5.5187l6.2672-3.7859c-.4822-.8012-.9964-1.611-1.5405-2.3872L482.0369,170.4a43.7279,43.7279,0,0,0-3.8748-4.84l5.3712-4.9714c-.6434-.6857-1.3076-1.37-1.9917-2.0325l-5.0884,5.28c-.45-.456-.92-.89-1.41-1.322a40.1064,40.1064,0,0,0-3.3358-2.6422l4.2774-5.9553c-.771-.5406-1.5634-1.08-2.3637-1.5878l-3.9162,6.1743a42.7456,42.7456,0,0,0-5.448-2.9195l2.9783-6.6839c-.8666-.3873-1.7531-.7526-2.6381-1.0967l-2.599,6.86a38.55,38.55,0,0,0-5.9331-1.7625l1.58-7.164c-.9288-.2045-1.8663-.3769-2.8022-.5282L453.689,152.45a38.8411,38.8411,0,0,0-6.171-.5264l.0943-7.3439c-.9378-.0144-1.8951-.0066-2.8293.0418l.3154,7.3286a42.0114,42.0114,0,0,0-6.1559.715l-1.3709-7.2093c-.926.1742-1.8607.3806-2.7728.6066l1.7755,7.11a42.377,42.377,0,0,0-5.8681,1.939l-2.7969-6.7824c-.8721.36-1.7429.7417-2.59,1.1635l3.1638,6.5909a43.7946,43.7946,0,0,0-5.3644,3.076l-4.1-6.0685c-.7873.5338-1.5526,1.0876-2.3165,1.6622l4.4525,5.8253a41.87,41.87,0,0,0-4.647,4.1043l-5.2292-5.1235c-.6034.6174-1.1941,1.265-1.7638,1.9117l-.1572.1782,5.5045,4.8114a44.2651,44.2651,0,0,0-3.72,4.9407l-5.7589-3.72a87.3218,87.3218,0,0,0,5.9793-11.3612l-9.5049-4.1208a76.9106,76.9106,0,0,0,4.8116-15.4165l10.1742,2.0465a88.0488,88.0488,0,0,0,1.72-18.2343l-10.3709.1065a77.97,77.97,0,0,0-1.8487-16.0478l10.13-2.2493a87.7251,87.7251,0,0,0-5.8157-17.3677l-9.4357,4.3053a76.6551,76.6551,0,0,0-8.1912-13.9155l8.3063-6.171a88.186,88.186,0,0,0-12.394-13.4761l-6.8376,7.7423c-.0218-.019-.042-.04-.0636-.0587a77.2886,77.2886,0,0,0-13.0988-9.315l5.0962-9.0023a87.2215,87.2215,0,0,0-16.8144-7.3007l-3.106,9.8945a77.3189,77.3189,0,0,0-15.8334-3.1877Zm80.3391,136.1431a36.4048,36.4048,0,1,1,3.2435,51.3821A36.4448,36.4448,0,0,1,419.6041,170.3615ZM377.8789,68.1866a71.0167,71.0167,0,1,1-100.2332,6.3272A71.0975,71.0975,0,0,1,377.8789,68.1866Z"/><path class="cls-4" d="M197.7045,437.6177a50.8662,50.8662,0,1,0,71.7756-4.5308A50.8677,50.8677,0,0,0,197.7045,437.6177ZM251.9579,452.97a24.3637,24.3637,0,1,1-34.37,2.17A24.3654,24.3654,0,0,1,251.9579,452.97Z"/><path class="cls-4" d="M300.3132,448.3771l11.1464-3.9377c-.53-1.4227-1.0779-2.8609-1.6576-4.2637l-10.87,4.5636a65.9393,65.9393,0,0,0-4.5053-8.8756l10.08-6.0885c-.7757-1.2887-1.6031-2.5909-2.4776-3.84l-9.6881,6.6565a70.2929,70.2929,0,0,0-6.2313-7.785l8.6386-7.9951c-1.035-1.1028-2.1034-2.2039-3.2034-3.2688l-8.1838,8.4914c-.7236-.7332-1.4787-1.43-2.2676-2.1257a64.4132,64.4132,0,0,0-5.3647-4.25l6.8794-9.5775c-1.24-.87-2.5142-1.7376-3.8017-2.5537l-6.2984,9.93a68.7208,68.7208,0,0,0-8.7623-4.696l4.79-10.7491c-1.3937-.6231-2.8192-1.21-4.2427-1.7639l-4.18,11.0324a61.9131,61.9131,0,0,0-9.5423-2.8347l2.5407-11.5217c-1.494-.3289-3.0013-.6063-4.5068-.85L246.75,403.7228a62.3865,62.3865,0,0,0-9.9248-.8464l.152-11.8113c-1.5083-.0232-3.0484-.0106-4.55.0674l.5068,11.7863a67.6092,67.6092,0,0,0-9.9,1.15l-2.2048-11.5949c-1.4891.2807-2.9923.6125-4.4594.9757l2.8553,11.4353a68.194,68.194,0,0,0-9.4372,3.1185l-4.4982-10.908c-1.4028.5794-2.803,1.193-4.1656,1.8714l5.0883,10.6a70.4616,70.4616,0,0,0-8.6278,4.9468l-6.593-9.76c-1.2665.8589-2.4969,1.7492-3.7256,2.6734l7.1609,9.3683a67.4363,67.4363,0,0,0-7.4735,6.6013l-8.41-8.24c-.97.9926-1.92,2.0346-2.8366,3.0745l-.2528.2867,8.8526,7.738a71.1508,71.1508,0,0,0-5.983,7.946l-9.8852-6.3858c-.8342,1.2721-1.63,2.609-2.3765,3.926l10.2375,5.8046a67.596,67.596,0,0,0-4.24,9.0048l-11.003-4.25c-.5378,1.4056-1.0553,2.8606-1.5394,4.3133L170.75,450.24a65.5842,65.5842,0,0,0-2.3361,9.6631L156.76,457.9471c-.2434,1.5053-.4513,3.0423-.6273,4.5436l11.7463,1.2732a62.4232,62.4232,0,0,0-.3542,9.9444l-11.8087.4239c.0623,1.52.16,3.0714.3053,4.5692l11.7659-1.0982a62.2979,62.2979,0,0,0,1.6179,9.8027l-11.4726,2.79c.3474,1.485.7626,2.9656,1.2094,4.41l11.264-3.42a70.2645,70.2645,0,0,0,3.5663,9.29L163.3342,505.5c.645,1.3646,1.3234,2.7272,2.0518,4.07l10.3452-5.631a68.3791,68.3791,0,0,0,5.3549,8.3818l-9.3908,7.0777c.9222,1.1947,1.8621,2.4053,2.8494,3.5622l8.9855-7.5939a68.3522,68.3522,0,0,0,6.9688,7.1286l-7.81,8.7893.1795.1583c1.1115.98,2.2906,1.9548,3.4675,2.8966l7.2716-9.2635a70.8622,70.8622,0,0,0,8.26,5.5907l-5.8586,10.1905c1.3172.7462,2.6678,1.4907,4.03,2.15l5.262-10.5252a66.3318,66.3318,0,0,0,9.213,3.7869l-3.6615,11.2026c1.435.4684,2.9195.9164,4.4,1.297l3.0213-11.4165a60.6929,60.6929,0,0,0,9.7841,1.8376L226.717,550.94q2.2753.2378,4.5446.3734l.6777-11.7932a63.0337,63.0337,0,0,0,9.9462-.154l1.0464,11.7525c1.5158-.13,3.0294-.293,4.5388-.5236l-1.7034-11.694a62.1186,62.1186,0,0,0,9.7035-2.1194l3.3885,11.3c1.4293-.4288,2.9056-.9113,4.3124-1.4234l-4.0007-11.0748a70.6,70.6,0,0,0,9.09-4.0619l5.5814,10.3655c1.3265-.71,2.667-1.4721,3.9715-2.2655l-6.1875-10.0394a66.0624,66.0624,0,0,0,8.116-5.8121l7.5287,9.0234c1.1746-.9714,2.3293-1.9922,3.4321-3.0271l-8.0608-8.6007a58.9672,58.9672,0,0,0,4.5647-4.6734c.7582-.8606,1.4988-1.7369,2.1875-2.627l9.2006,7.3432c.9573-1.1949,1.8788-2.4214,2.7487-3.6615l-9.6068-6.81a66.1231,66.1231,0,0,0,5.169-8.5044l10.4619,5.3334c.693-1.3643,1.35-2.76,1.9571-4.1363l-10.7787-4.7208a65.1527,65.1527,0,0,0,3.3-9.4194l11.3712,3.109c.3984-1.4645.7613-2.96,1.0744-4.4364l-11.5151-2.4394a68.68,68.68,0,0,0,1.323-9.8869l11.782.763c.0907-1.5125.1456-3.0568.1689-4.565l-11.807-.0846a65.2092,65.2092,0,0,0-.6439-9.9321l11.6826-1.6181c-.1973-1.5111-.4613-3.0185-.7417-4.5076l-11.59,2.2724A61.4754,61.4754,0,0,0,300.3132,448.3771ZM279.7843,509.95a58.5493,58.5493,0,1,1-5.2166-82.6366A58.6137,58.6137,0,0,1,279.7843,509.95Z"/><path class="cls-4" d="M426.0011,218.1649a31.6275,31.6275,0,1,0-2.8075-44.64A31.6315,31.6315,0,0,0,426.0011,218.1649Zm30.9262-35.094a15.1488,15.1488,0,1,1-21.3707,1.349A15.15,15.15,0,0,1,456.9273,183.0709Z"/><path class="cls-4" d="M342.3435,242.7894a21.8082,21.8082,0,1,0,30.78-1.943A21.833,21.833,0,0,0,342.3435,242.7894Zm29.9676-1.0214a20.5792,20.5792,0,1,1-29.0456,1.8338A20.6025,20.6025,0,0,1,372.3111,241.768Z"/><path class="cls-4" d="M344.74,244.9015a18.6137,18.6137,0,1,0,26.2716-1.6586A18.6346,18.6346,0,0,0,344.74,244.9015Zm25.4589-.7369a17.3848,17.3848,0,1,1-24.5369,1.5491A17.4048,17.4048,0,0,1,370.199,244.1646Z"/><path class="cls-4" d="M349.5336,249.1256a12.2245,12.2245,0,1,0,17.2536-1.0893A12.2383,12.2383,0,0,0,349.5336,249.1256Zm16.4413-.1673a10.9957,10.9957,0,1,1-15.52.98A11.0081,11.0081,0,0,1,365.9749,248.9583Z"/><path class="cls-4" d="M353.4661,263.1526a7.924,7.924,0,1,0-.7063-11.1838A7.9235,7.9235,0,0,0,353.4661,263.1526Z"/><path class="cls-4" d="M392.3241,240.7508a37.1133,37.1133,0,0,0-4.109-6.5668l5.0786-3.9717a44.2367,44.2367,0,0,0-4.81-5.22l-4.3741,4.7353c-.2183-.2018-.4293-.4089-.6536-.6065a37.4909,37.4909,0,0,0-5.5493-4.0416l3.3144-5.53a43.69,43.69,0,0,0-6.374-3.1446l-2.3707,5.9942a37.2967,37.2967,0,0,0-7.4651-2.0766l1.0815-6.3627a44.1252,44.1252,0,0,0-7.0734-.6205l-.044,6.4612a37.7326,37.7326,0,0,0-7.7137.7393l-1.2794-6.3272a44.0358,44.0358,0,0,0-6.8223,1.9643l2.2818,6.0368a37.2075,37.2075,0,0,0-6.9224,3.4759l-3.4819-5.43a43.7872,43.7872,0,0,0-5.6492,4.3093l4.3121,4.79a37.5494,37.5494,0,0,0-3.0811,3.0992c-.7561.8576-1.4574,1.7444-2.1207,2.6492l-5.1951-3.8108a43.8476,43.8476,0,0,0-3.7236,6.05l5.74,2.9181a37.141,37.141,0,0,0-2.7584,7.2408l-6.2345-1.6684a43.986,43.986,0,0,0-1.2738,6.9895l6.4278.64a37.7359,37.7359,0,0,0,.0243,7.75l-6.4172.689a44.1994,44.1994,0,0,0,1.3242,6.9736l6.2265-1.7125a37.3348,37.3348,0,0,0,2.8143,7.2175l-5.7346,2.96a43.6591,43.6591,0,0,0,3.7641,6.0289l5.1687-3.8464a37.4314,37.4314,0,0,0,5.2435,5.7126l-4.2748,4.811.081.0716a44.301,44.301,0,0,0,5.6815,4.25l3.4308-5.4535a37.1151,37.1151,0,0,0,6.9565,3.4106l-2.2292,6.0562a43.8522,43.8522,0,0,0,6.8487,1.9041l1.2181-6.34a37.6733,37.6733,0,0,0,7.7208.6721l.1094,6.4512a44.2407,44.2407,0,0,0,7.0639-.6907l-1.1445-6.3586a37.502,37.502,0,0,0,7.4429-2.1466l2.4261,5.9815a43.7466,43.7466,0,0,0,6.3462-3.1985l-3.3581-5.4969a37.1811,37.1811,0,0,0,6.1551-4.7066l4.4226,4.6836c.9794-.9248,1.93-1.9092,2.8262-2.9257.6665-.7561,1.3137-1.5429,1.924-2.3389l-5.1144-3.9218a37.2231,37.2231,0,0,0,4.0483-6.6058l5.8189,2.7844a43.7378,43.7378,0,0,0,2.5358-6.6437l-6.1951-1.8016a37.4938,37.4938,0,0,0,1.3785-7.6254l6.4354.4866a44.2,44.2,0,0,0-.0363-7.0982l-6.4378.5531a37.6843,37.6843,0,0,0-1.4487-7.6112l6.1816-1.86a43.9249,43.9249,0,0,0-2.5905-6.6115Zm-9.5889,37.6336a32.0295,32.0295,0,1,1-2.8538-45.2067A32.0659,32.0659,0,0,1,382.7352,278.3844Z"/><path class="cls-4" d="M230.0972,297.2793a32.6024,32.6024,0,1,0,46.0151-2.9049A32.639,32.639,0,0,0,230.0972,297.2793Zm44.8008-1.5267a30.7655,30.7655,0,1,1-43.4227,2.7414A30.8006,30.8006,0,0,1,274.898,295.7526Z"/><path class="cls-4" d="M233.68,300.4371a27.8267,27.8267,0,1,0,39.2746-2.48A27.8576,27.8576,0,0,0,233.68,300.4371Zm38.06-1.1017a25.99,25.99,0,1,1-36.6823,2.316A26.02,26.02,0,0,1,271.7405,299.3354Z"/><path class="cls-4" d="M240.846,306.752a18.2753,18.2753,0,1,0,25.7939-1.6287A18.2956,18.2956,0,0,0,240.846,306.752Zm24.58-.2506a16.4384,16.4384,0,1,1-23.2014,1.4651A16.4575,16.4575,0,0,1,265.4256,306.5014Z"/><path class="cls-4" d="M245.6691,311.0021a11.8466,11.8466,0,1,0,16.72-1.0557A11.8466,11.8466,0,0,0,245.6691,311.0021Z"/><path class="cls-4" d="M317.35,299.881a65.5948,65.5948,0,0,0-3.8725-9.8838l-8.6609,4.2345a55.464,55.464,0,0,0-6.1431-9.8172l7.5926-5.9376a66.0493,66.0493,0,0,0-7.1912-7.8027l-6.5389,7.0786c-.3263-.3016-.6422-.6108-.9773-.9062a55.9836,55.9836,0,0,0-8.2959-6.042l4.9551-8.268a65.3608,65.3608,0,0,0-9.5291-4.7011l-3.544,8.9612a55.7675,55.7675,0,0,0-11.16-3.1042l1.6168-9.5123a65.9711,65.9711,0,0,0-10.5746-.9277l-.0659,9.6593a56.42,56.42,0,0,0-11.5316,1.1051l-1.9127-9.4589a65.8534,65.8534,0,0,0-10.1992,2.937l3.4112,9.0248a55.59,55.59,0,0,0-10.3487,5.1961l-5.2056-8.1184A65.4883,65.4883,0,0,0,210.73,270.04l6.4461,7.16a56.1627,56.1627,0,0,0-4.6063,4.6335c-1.13,1.2821-2.179,2.6076-3.17,3.9606l-7.7666-5.6969a65.6088,65.6088,0,0,0-5.5668,9.0438l8.5809,4.3623a55.5479,55.5479,0,0,0-4.1237,10.8248l-9.32-2.4942a65.7392,65.7392,0,0,0-1.9046,10.4489l9.6094.9573a56.4015,56.4015,0,0,0,.0364,11.5852l-9.5934,1.0306a66.0074,66.0074,0,0,0,1.98,10.4248l9.3084-2.56a55.82,55.82,0,0,0,4.2069,10.79l-8.5731,4.4255a65.3948,65.3948,0,0,0,5.6275,9.0129l7.727-5.75a55.9633,55.9633,0,0,0,7.8385,8.5405l-6.39,7.1922.121.1071a66.2178,66.2178,0,0,0,8.4937,6.3532l5.1293-8.1532a55.4436,55.4436,0,0,0,10.4,5.099l-3.3327,9.0539a65.4943,65.4943,0,0,0,10.2384,2.8465l1.821-9.4786a56.2891,56.2891,0,0,0,11.5425,1.0047l.1634,9.6449a66.129,66.129,0,0,0,10.56-1.0331l-1.7114-9.5056a56.08,56.08,0,0,0,11.1273-3.209l3.6269,8.9421a65.4342,65.4342,0,0,0,9.4876-4.7818l-5.02-8.2175a55.5693,55.5693,0,0,0,9.2014-7.0367l6.6117,7.002c1.4642-1.3825,2.8859-2.8539,4.2252-4.3737.9962-1.13,1.9637-2.3065,2.8761-3.4963l-7.646-5.8635a55.595,55.595,0,0,0,6.052-9.8753l8.6993,4.1626a65.3538,65.3538,0,0,0,3.7909-9.9321l-9.2614-2.6934a56.0167,56.0167,0,0,0,2.0609-11.4l9.6209.7278a66.1365,66.1365,0,0,0-.0541-10.6118l-9.6247.8268a56.2949,56.2949,0,0,0-2.166-11.3785Zm-26.8685,50.6118a47.883,47.883,0,1,1-4.2661-67.5825A47.9377,47.9377,0,0,1,290.4814,350.4928Z"/></g></g></g></svg>