<svg id="Layer_1" data-name="Layer 1" xmlns="http://www.w3.org/2000/svg" xmlns:xlink="http://www.w3.org/1999/xlink" viewBox="0 0 509.6015 462.3894"><defs><style>.cls-1{fill:none;}.cls-10,.cls-2{fill:#fff;}.cls-3,.cls-4{fill:#062a4e;}.cls-11,.cls-4{opacity:0.05;}.cls-10,.cls-11,.cls-4,.cls-9{isolation:isolate;}.cls-5{fill:#c639ed;}.cls-6{clip-path:url(#clip-path);}.cls-7{fill:#940da8;}.cls-8{fill:#f09dc3;}.cls-9{fill:#231f20;}.cls-10,.cls-9{opacity:0.15;}.cls-11{fill:#68defc;}.cls-12{fill:#3ac4ba;}.cls-13{clip-path:url(#clip-path-2);}.cls-14{fill:#3794a5;}.cls-15{fill:#326c9f;}</style><clipPath id="clip-path"><path class="cls-1" d="M408.6123,176.3031a22.7081,22.7081,0,0,1,.627,4.534c.268,8.577-2.558,17.253-6.166,25.058a99.1116,99.1116,0,0,1-21.9761,31.356c-9.9769,9.337-21.8859,13.074-33.552,19.74-3.8369,2.157-7.432,4.717-11.615,6.127-11.41,3.676-23.7919-.968-34.921-3.676-11.776-2.868-20.276-3.031-29.576-11.384-17.422-15.66-36.455-25.573-39.0139-49.809-2.341-21.811-8.378-38.818,3.518-59.759a84.9574,84.9574,0,0,1,41.252-36.662c16.961-7.193,43.337-14.826,61.885-12.253,7.675,1.066,14.915,4.252,21.988,7.352,11.883,5.293,19.635,10.538,25.992,21.382,4.26,7.266,11.039,13.16,14.633,20.831s1.138,13.981,2.2769,21.848C404.7612,166.4271,407.3963,171.0831,408.6123,176.3031Z"/></clipPath><clipPath id="clip-path-2"><path class="cls-1" d="M202.5172,300.6871a38.05,38.05,0,0,1-.5119,6.9c-2.2381,13.283-10.578,26.455-19.827,36.319-14.966,15.929-42.8,16.628-62.435,8.246-15.094-6.457-25.429-19.924-30.328-34.75-5.756-17.436-3.543-31.993,7.2-47.15,14.71-20.831,45.1-26.5,68.7149-19.715,5.27,1.519,10.681,3.1,15.068,6.286a38.6031,38.6031,0,0,1,7.892,8.381C196.07,275.6661,202.3132,288.0441,202.5172,300.6871Z"/></clipPath></defs><g id="Planets_Illustration" data-name="Planets Illustration"><circle id="Ellipse_177" data-name="Ellipse 177" class="cls-2" cx="86.0903" cy="375.4211" r="3.837"/><circle id="Ellipse_179" data-name="Ellipse 179" class="cls-2" cx="187.1422" cy="421.8762" r="1.279"/><circle id="Ellipse_180" data-name="Ellipse 180" class="cls-2" cx="55.3912" cy="281.1261" r="5.117"/><circle id="Ellipse_182" data-name="Ellipse 182" class="cls-2" cx="10.6212" cy="312.822" r="1.279"/><circle id="Ellipse_183" data-name="Ellipse 183" class="cls-2" cx="4.2252" cy="367.9622" r="1.279"/><circle id="Ellipse_184" data-name="Ellipse 184" class="cls-2" cx="281.5263" cy="288.6751" r="1.279"/><circle id="Ellipse_185" data-name="Ellipse 185" class="cls-3" cx="133.4183" cy="82.568" r="3.837"/><circle id="Ellipse_186" data-name="Ellipse 186" class="cls-3" cx="235.7492" cy="150.0701" r="6.396"/><circle id="Ellipse_187" data-name="Ellipse 187" class="cls-3" cx="234.4702" cy="35.8992" r="1.279"/><circle id="Ellipse_188" data-name="Ellipse 188" class="cls-3" cx="102.7193" cy="176.973" r="5.117"/><circle id="Ellipse_189" data-name="Ellipse 189" class="cls-3" cx="174.3502" cy="77.5601" r="1.279"/><circle id="Ellipse_190" data-name="Ellipse 190" class="cls-3" cx="57.9492" cy="144.9531" r="1.279"/><circle id="Ellipse_191" data-name="Ellipse 191" class="cls-3" cx="51.5532" cy="89.8133" r="1.279"/><circle id="Ellipse_193" data-name="Ellipse 193" class="cls-2" cx="348.3133" cy="412.1811" r="3.837"/><circle id="Ellipse_194" data-name="Ellipse 194" class="cls-3" cx="450.6452" cy="344.8961" r="6.396"/><circle id="Ellipse_195" data-name="Ellipse 195" class="cls-3" cx="449.3653" cy="458.6363" r="1.279"/><circle id="Ellipse_196" data-name="Ellipse 196" class="cls-3" cx="317.6143" cy="317.8851" r="5.117"/><circle id="Ellipse_197" data-name="Ellipse 197" class="cls-2" cx="389.2462" cy="416.9741" r="1.279"/><circle id="Ellipse_198" data-name="Ellipse 198" class="cls-3" cx="272.8443" cy="349.5821" r="1.279"/><circle id="Ellipse_199" data-name="Ellipse 199" class="cls-3" cx="266.4483" cy="404.7212" r="1.279"/><circle id="Ellipse_200" data-name="Ellipse 200" class="cls-2" cx="505.3762" cy="354.8421" r="1.279"/><g id="Planets"><g id="Palent2"><ellipse id="Ellipse_75" data-name="Ellipse 75" class="cls-4" cx="318.8682" cy="176.0841" rx="113.524" ry="108.748"/><ellipse id="Ellipse_76" data-name="Ellipse 76" class="cls-4" cx="318.8682" cy="176.0841" rx="130.447" ry="124.959"/><path id="Path_4744" data-name="Path 4744" class="cls-5" d="M408.6122,176.3041a22.7081,22.7081,0,0,1,.627,4.534c.268,8.577-2.558,17.253-6.166,25.058a99.1113,99.1113,0,0,1-21.976,31.356c-9.977,9.337-21.886,13.074-33.552,19.74-3.837,2.157-7.432,4.717-11.615,6.127-11.41,3.676-23.792-.968-34.921-3.676-11.776-2.868-20.276-3.031-29.576-11.384-17.422-15.66-36.455-25.573-39.014-49.809-2.341-21.811-8.378-38.818,3.518-59.759a84.9578,84.9578,0,0,1,41.252-36.662c16.961-7.193,43.337-14.826,61.8851-12.253,7.6749,1.066,14.9149,4.252,21.9879,7.352,11.883,5.293,19.635,10.538,25.992,21.382,4.26,7.266,11.039,13.16,14.633,20.831s1.138,13.981,2.277,21.848C404.7612,166.4281,407.3962,171.0841,408.6122,176.3041Z"/><g class="cls-6"><g id="Group_3077" data-name="Group 3077"><path id="Path_4745" data-name="Path 4745" class="cls-7" d="M201.9792,137.62c2.737-1.691,5.846-3.259,9.082-2.867,2.558.294,4.963,1.777,7.445,1.225,3.1339-.674,4.656-4.154,7.432-5.722,4.093-2.291,9.2.208,13.2,2.659l2.072,1.225c6.4,3.872,13.2,7.9,20.709,7.536,5.04-.245,8.545-3.149,13.162-4.227,4.413-1.029,9.312,2,13.482.4,1-.38,1.855-1.066,2.814-1.544,3.3-1.605,7.342-.466,10.553,1.225a6.8919,6.8919,0,0,0,3.121,1.152c2.418,0,3.8369-2.536,5.27-4.362,3.518-4.338,9.709-5.575,15.35-6.519a5.5928,5.5928,0,0,1,3.479.184c2.2639,1.225,1.5219,4.46.461,6.727a101.3644,101.3644,0,0,1-7.0231,12.253,31.5634,31.5634,0,0,1-4.4,5.82,33.3521,33.3521,0,0,1-7.854,5.146c-4.477,2.353-9.031,4.742-13.994,5.906-3.978.931-8.135,1.054-12.152,1.911-8.762,1.887-16.424,7.217-25.237,8.871-5.219.98-11.512,1.091-14.378,5.379-1.1,1.642-1.471,3.676-2.661,5.232-1.9569,2.732-5.654,3.5-8.212,5.587s-3.8369,5.1-6.14,7.266-6,3.394-9.351,4.374l-36.66,10.82c-4.937-5.465-4.822-13.479-4.439-20.683l2.558-48.437c.115-2.279.524-7.6,3.837-7.952,2.558-.27,1.688,1.764,3.351,2.781C192.77,142.5591,195.75,141.4431,201.9792,137.62Z"/><path id="Path_4746" data-name="Path 4746" class="cls-8" d="M342.8772,127.6711c10.694-3.553,22.807-1.7,33.258-5.759a16.0829,16.0829,0,0,0,8.1-5.992c1.778-2.867,1.893-6.837-.409-9.325a28.1239,28.1239,0,0,1-2.84-2.757c-3.019-4.35,3.351-10.084,1.689-15.071-7.138-1.225-15-2.206-21.182,1.409-4.669,2.732-7.483,7.658-11.947,10.685-2.9,1.973-6.4,3.051-9.21,5.171-3.8369,2.88-5.9,7.352-9.453,10.55s-10.118,4.325-12.715.4c-1.752-2.634-.755-6.065.281-9.018l5.27-14.9c1.548-4.387,3.121-9.092,1.88-13.564a32.2073,32.2073,0,0,0-20.07,8.81c-7.0739,6.862-10.2329,16.468-14.5819,25.168a7.6793,7.6793,0,0,1-2.9161,3.676c-2.5579,1.385-5.718-.208-8.6-.895-9.888-2.34-21.617,6.212-29.7.294-2.673-1.961-4.5151-5.342-7.8411-5.845s-6.242,2.291-7.125,5.342-.2559,6.286.115,9.435c.742,6.127.333,12.915-3.7349,17.718-2.0851,2.451-4.95,4.178-7.214,6.47s-3.9781,5.575-2.9161,8.577c12.037,2.622,24.79.564,36.212-3.933,6.268-2.451,13.086-6.984,12.919-13.479,0-1.85-.6909-3.737-.192-5.526.883-3.137,4.682-4.46,7.969-5.306,2.635-.674,5.436-1.348,8.046-.6s4.234,2.659,6.588,3.321c3.3641.956,6.05-.49,9.287,2.083,1.407,1.127,2.648,2.683,4.451,3.014,3.083.576,5.91-2.071,8.788-2.671,2.6221-.551,5.27,0,7.9181-.319C330.2522,134.03,336.1742,129.9131,342.8772,127.6711Z"/><path id="Path_4747" data-name="Path 4747" class="cls-8" d="M262.9052,185.6291a17.266,17.266,0,0,0,3.5561-.27c3.1209-.6,5.82-2.451,8.8-3.541,7.381-2.671,13.316,1.311,19.584,4.718a5.1232,5.1232,0,0,0,2.047.76c2.239.147,3.326-2.451,4.4391-4.325,1.791-2.965,5.117-4.791,8.3779-6.127,4.272-1.666,8.583-2.781,12.165-5.673a71.8308,71.8308,0,0,0,8.954-9.239c3.646-4.227,7.355-8.577,9.4-13.662a30.7314,30.7314,0,0,1,2.443-5.661c2.968-4.5,9.223-5.882,14.749-5.5,4.784.331,9.9,1.985,12.3951,5.918,1.676,2.634,1.893,5.894,3.185,8.737,5,11.028,13.943,3.345,18.765-2.206,6.242-7.18,19.187-6.47,24.675-14.214,2.021-2.88,2.5579-6.445,3.1079-9.876q1.2-7.9281,2.4-15.831c-9.427,2.365-19.967,5.82-23.8821,14.373-.947,2.059-1.612,4.521-3.7,5.563s-4.2849.319-6.268,1.115c-4.439,1.777-3.39,4.031-8.033,2.328-2.1-.76-6.69-4.411-8.43-5.992a26.1661,26.1661,0,0,1-2.878-3.553,28.0208,28.0208,0,0,0-9.414-7.916,10.4663,10.4663,0,0,0-7.035-1.421c-5.3,1.225-6.306,8-9.926,11.9-4.682,5.036-13.636,5.061-17.678,10.562-1.637,2.242-2.175,5.024-3.1079,7.609-2.175,6.029-7.854,5.44-12.7151,8.945-7.7639,5.612-19.1229-4.816-28.141-1.348-6.1,2.34-7.9949,9.8-12.958,13.92s-12,4.374-18.484,4.448l-5.935.074c-8.442.11-17.064.233-25.058,2.843a60.0986,60.0986,0,0,0-24.9819,16.15c-1.0751,1.225-4.4,3.541-3.837,5.44,1.113,3.921,15.119,7.707,19.187,8.087,5.935.551,12.625-2,14.812-7.352,12.42-2.451,23.741-9.8,36.417-9.888Q261.3121,185.6291,262.9052,185.6291Z"/><path id="Path_4748" data-name="Path 4748" class="cls-7" d="M289.9842,225.8441a7.225,7.225,0,0,1,7.995,6.127,7.9482,7.9482,0,0,0,.46,3.443c.947,1.679,3.39,1.862,4.848,3.149,3.39,2.978-.588,8.871,1.7651,12.658,1.279,2.022,3.8369,2.732,6.0889,3.749s4.4261,3.247,3.6841,5.428a4.1586,4.1586,0,0,1-1.816,2.046,14.9015,14.9015,0,0,1-5.564,1.777,157.2557,157.2557,0,0,1-21.0671,1.961c-9.913.343-20.223,0-29.1389-4.117-7.764-3.676-14.812-11.224-15.0431-19.85-.192-7,3.7-10.66,10.6551-9.656,5.718.833,10.9879,4.2,16.629.8,3.735-2.279,3.927-6.127,8.557-6.629,1.906-.221,4.17,1.225,6.4.943C286.3392,227.4741,288.0782,226.1141,289.9842,225.8441Z"/><path id="Path_4749" data-name="Path 4749" class="cls-8" d="M278.1652,245.5221a15.9906,15.9906,0,0,1-6.9839-1.617c-3.837-1.777-7.457-4.325-11.678-4.313-8.071,0-12.395,8.369-18.023,12.584-7.393,5.551-16.3,3.9-24.982,1.85-6.063-1.434-14.812-8.173-15.209-14.7-.422-7.021,7.675-14.532,14.237-16.211,4.323-1.1,9.785-1.225,11.832-4.975.742-1.385.857-3.076,1.829-4.313,2.354-3.014,7.675-1.507,10.822-3.774,1.535-1.115,2.277-2.978,3.671-4.252,3.2-2.9,8.365-1.838,12.574-.576l30.61,9.165c2.558.784,5.385,1.556,7.982.8,11.973-3.5,22.3209-2.99,34.869-1.225a44.0516,44.0516,0,0,0,21.41-2.458c8.289-3.125,15.823-9.386,17.908-17.681a9.2577,9.2577,0,0,1,1.752-4.46c2.737-2.867,7.56-.429,11.065,1.544,4.362,2.451,10.233,3.9,14.25,1,4.784-3.431,4.029-10.293,5.257-15.929,1.714-7.9,12.088-19.372,21.4-15.121,7.329,3.333,4.08,11.763,1.867,18.135a37.9674,37.9674,0,0,1-10.679,15.934,41.1841,41.1841,0,0,1-32.337,9.582c-4.49-.625-10.706-1.042-11.922,3.137a10.3534,10.3534,0,0,1-.6,2.279c-.678,1.225-2.251,1.556-3.441,2.316-2.379,1.544-2.9929,4.607-3.4,7.352-.767,5.1-1.6,10.317-4.247,14.8-6.831,11.592-26.593,14.361-39,13.479a1.96,1.96,0,0,1-.921-.221,1.2557,1.2557,0,0,1,0-1.838,6.1221,6.1221,0,0,1,1.778-1.14c4.2-2.279,4.874-7.769,4.451-12.364a5.47,5.47,0,0,0-.819-2.806c-4.669-6.4-11.205,4.718-12.395,7.609-2.558,6.31-6.4,7.511-13.508,4.313-3.837-1.74-8.864-3.455-12.024-.686-.947.821-1.548,1.961-2.456,2.831a7.17,7.17,0,0,1-4.937,1.948Z"/><path id="Path_4750" data-name="Path 4750" class="cls-7" d="M342.6082,156.65c-5.116,3.455-2.072,11.028-7.4439,14.581-3.4,2.23-6.089,2.206-9.0691,5.477-2.175,2.451-3.5,5.183-6.7,6.543l-7.3,3.1c-2.379,1.017-4.976,2.218-6.037,4.5-1.5219,3.259.87,7.033,3.837,9.214a20.2465,20.2465,0,0,0,13.3,3.786c3.249-.245,6.575-1.225,9.721-.453,2.392.625,4.362,2.23,6.6,3.247,5.526,2.512,12.433,1.054,17.2-2.61s7.675-9.2,9.261-14.863a10.52,10.52,0,0,1,1.394-3.529c2.379-3.247,7.585-2.536,11.4-.993s8.084,3.6,11.832,1.924,4.8859-5.906,7.931-8.344a18.1486,18.1486,0,0,1,6.4-2.83l20.703-6.133c5.833-1.728,12.881-5.024,12.574-10.869-4.5,2.671-10.348.674-15.606,1.225-5.756.662-11.346,4.485-16.872,2.83-2.9681-.894-5.2571-3.259-8.2-4.24-4.5281-1.519-9.414.515-13.9681,2.01s-10.2329,2.193-13.559-1.152c-2.187-2.218-2.558-5.514-3.978-8.234a12.6078,12.6078,0,0,0-9.862-6.506c-3.287-.319-7.125,1.1-8.007,4.154-.563,1.875,0,4.129-1.177,5.673C345.9082,155.4491,344.0022,155.7061,342.6082,156.65Z"/><path id="Path_4751" data-name="Path 4751" class="cls-9" d="M368.0123,214.7181c4.413-3.125,8.954-6.347,11.96-10.734,2.558-3.676,3.837-7.867,5.206-12.033,3.837-12.118,7.342-21.982,1.5-33.635-5.308-10.587-17.448-21.529-16.923-33.917.141-3.419,1.279-7.009-.115-10.146a13.664,13.664,0,0,0-4.183-4.632,265.7216,265.7216,0,0,0-54.875-34.211c42.4551-.882,86.2521,17.436,109.6221,51.464a101.573,101.573,0,0,1,15.8709,37.262c2.187,10.685,2.558,21.627,2.558,32.508s-.524,21.909-4.336,32.128c-4.8351,12.964-14.8511,23.833-26.862,31.307-15.1191,9.3-32.95,13.528-50.615,16.615a487.739,487.739,0,0,1-48.479,6.029c-9.376.674-19.251.993-27.719-2.929-6.2-2.867-11.0771-7.769-15.81-12.547-14.071-14.189-28.41-28.844-36.0461-46.979l58.214,17.118c16.092,4.767,24.956,5.612,40.651.257C342.4252,232.6081,355.4772,223.6141,368.0123,214.7181Z"/></g></g><path id="Path_4937" data-name="Path 4937" class="cls-10" d="M273.9852,103.3011c29.4715-11.4523,63.0548,2.15,75.01,30.382s-2.2442,60.4025-31.7157,71.8548-63.0548-2.15-75.01-30.3829S244.5137,114.7534,273.9852,103.3011Z"/><path id="Path_4938" data-name="Path 4938" class="cls-10" d="M246.7875,131.4671c3.5456-14.3914,18.5984-23.3039,33.6224-19.909s24.3266,17.8175,20.7809,32.2089-18.5984,23.3039-33.6219,19.907S243.242,145.8575,246.7875,131.4671Z"/></g><g id="Planet1"><ellipse id="Ellipse_63" data-name="Ellipse 63" class="cls-11" cx="144.5852" cy="300.6871" rx="70.954" ry="67.969"/><ellipse id="Ellipse_64" data-name="Ellipse 64" class="cls-11" cx="144.5852" cy="300.6871" rx="81.532" ry="78.102"/><path id="Path_4661" data-name="Path 4661" class="cls-12" d="M202.5173,300.6871a38.0587,38.0587,0,0,1-.512,6.9c-2.238,13.283-10.578,26.455-19.827,36.319-14.966,15.929-42.8,16.628-62.435,8.246-15.094-6.457-25.429-19.924-30.328-34.75-5.756-17.436-3.543-31.993,7.2-47.15,14.71-20.831,45.1-26.5,68.7149-19.715,5.27,1.519,10.681,3.1,15.068,6.286a38.6031,38.6031,0,0,1,7.892,8.381C196.07,275.6661,202.3132,288.0441,202.5173,300.6871Z"/><g class="cls-13"><g id="Group_3073" data-name="Group 3073"><path id="Path_4662" data-name="Path 4662" class="cls-14" d="M77.1752,284.0471a5.5142,5.5142,0,0,0,3.7,2.071c10.361,2.291,21.016-1.777,30.584-6.212a321.4357,321.4357,0,0,0,34.805-18.8c5.117-3.174,10.169-6.543,14.0711-11.028s6.728-10.072,6.5-15.929c-5,1.225-9.223,4.4-13.2771,7.474-11.1409,8.43-23.152,17.387-37.3249,18.208-5.4491.319-10.9-.625-16.36-.87-6.4-.282-12.791.6-17.806,4.8-3.0571,2.585-3.9141,5.624-4.3,9.361C77.5592,275.6541,75.9342,281.9761,77.1752,284.0471Z"/><path id="Path_4663" data-name="Path 4663" class="cls-14" d="M117.8,296.3741c-9.133,5.526-19.712,8-29.778,11.432-4.26,1.446-8.506,2.181-12.638,3.357-1.791.5-9.606,7.683-8.66,7.744,14.275.993,27.3-3.272,41.137-4.374a94.1639,94.1639,0,0,0,22.436-4.264c18.164-6.029,33.705-19.054,52.7-21.909,10.1311-1.532,20.466,0,30.7-.87,7.176-.6,15.5669-3.676,16.9-10.415.793-4.031-1.2789-8.05-3.5429-11.53-3.761-5.747-8.417-11.187-14.6211-14.471s-14.16-4.093-20.3129-.735c-4.106,2.23-7.01,6.016-10.5,9.067-11.039,9.643-27.207,11.53-39.9,19.066C133.1472,283.6061,126.3712,291.2031,117.8,296.3741Z"/><path id="Path_4664" data-name="Path 4664" class="cls-14" d="M119.1942,342.0421c-13.1369-.294-26.3119-1.642-39.231.135a11.0425,11.0425,0,0,1-6.153-.466,4.3,4.3,0,0,1-2.6349-4.9,5.8689,5.8689,0,0,1,2.175-2.536c8.493-6.494,18.368-5.955,28.627-6.127,14.505-.306,29.51,1.617,43.491-2.953,10.4119-3.394,19.187-10.146,29.2279-14.606,14.8641-6.641,31.723-7.989,48.1081-7.45a7.7341,7.7341,0,0,1,4.0929.931c1.7781,1.225,2.047,3.676,1.714,5.771-1.279,8.014-8.954,13.9-16.949,16.407s-16.629,2.451-25.084,3.272a109.861,109.861,0,0,0-22.065,4.521c-5.731,1.8-11.295,4.056-17.1,5.575C138.1,341.9311,128.66,342.2621,119.1942,342.0421Z"/><path id="Path_4665" data-name="Path 4665" class="cls-15" d="M166.7532,234.2621a24.577,24.577,0,0,1-6.4,13.1c-3.953,4.423-9.018,7.793-14.071,11.028a320.5193,320.5193,0,0,1-34.805,18.8c-9.581,4.436-20.236,8.5-30.6,6.212a5.5414,5.5414,0,0,1-3.7-2.059,3.6486,3.6486,0,0,1-.384-1.225,7.5556,7.5556,0,0,0,.384,4.019,5.5132,5.5132,0,0,0,3.7,2.071c10.361,2.291,21.016-1.777,30.6-6.212a322.6334,322.6334,0,0,0,34.805-18.8c5.117-3.174,10.156-6.543,14.07-11.028s6.741-10.072,6.5-15.929A.3864.3864,0,0,1,166.7532,234.2621Z"/><path id="Path_4666" data-name="Path 4666" class="cls-15" d="M230.6462,274.3181c-1.279,6.788-9.721,9.8-16.9,10.428-10.233.845-20.607-.674-30.7.858-19,2.867-34.537,15.929-52.7,21.921a94.7543,94.7543,0,0,1-22.436,4.252c-13.124,1.042-25.583,4.9-38.937,4.485-1.522,1.446-2.558,2.647-2.2,2.671,14.275.993,27.3-3.272,41.137-4.374a94.1639,94.1639,0,0,0,22.436-4.264c18.164-6.029,33.7051-19.054,52.7-21.909,10.144-1.532,20.466,0,30.7-.87,7.176-.6,15.567-3.676,16.9-10.415a9.7527,9.7527,0,0,0,.077-3.223C230.6973,274.0121,230.6843,274.1591,230.6462,274.3181Z"/><path id="Path_4667" data-name="Path 4667" class="cls-15" d="M228.5862,306.9611c-1.279,8.014-8.954,13.907-16.949,16.407s-16.629,2.451-25.084,3.272a111.5333,111.5333,0,0,0-22.065,4.521c-5.731,1.8-11.295,4.068-17.1,5.575-9.312,2.451-18.752,2.745-28.141,2.536-13.15-.306-26.325-1.642-39.244.123a11.1485,11.1485,0,0,1-6.191-.478,5.1285,5.1285,0,0,1-2.469-2.451l-.166.331a4.3,4.3,0,0,0,2.635,4.9,11.0418,11.0418,0,0,0,6.191.49c12.919-1.777,26.094-.429,39.244-.135,9.453.221,18.893-.11,28.141-2.524,5.807-1.519,11.372-3.774,17.1-5.575a109.8686,109.8686,0,0,1,22.091-4.5c8.417-.858,17.038-.772,25.084-3.272s15.644-8.43,16.923-16.444a8.6121,8.6121,0,0,0,0-2.806Z"/><path id="Path_4668" data-name="Path 4668" class="cls-9" d="M153.1172,350.2881c6.6-.551,9.5-5.992,13.214-11.236s6.268-11.15,9.542-16.664c2.021-3.419,4.349-6.739,5.539-10.5a33.4984,33.4984,0,0,0,1.279-9.153,127.1667,127.1667,0,0,0-2.456-28.526,32.034,32.034,0,0,0-2.379-7.818c-1.842-3.762-4.925-6.825-7.956-9.8-7.329-7.242-16.143-12.425-24.8-18.184,14.237-2.279,29,3.027,40.1271,11.837s19.021,20.831,25.353,33.219a44.8387,44.8387,0,0,1,4.656,12.376c.959,5.4.1149,10.93-1,16.309-2.251,11.028-5.667,21.9-11.87,31.393s-15.426,17.473-26.606,20.745c-17.358,5.073-35.816-1.74-54.005-2.218-6.536-.159-13.751.294-18.842-3.676-6.933-5.342-7.675-17.289-16.3-19.434,8.071-.649,15.708,3.112,23.306,5.8a107.9225,107.9225,0,0,0,43.2,5.538Z"/></g></g><path id="Path_4939" data-name="Path 4939" class="cls-10" d="M117.8854,254.3519c18.492-7.2383,39.5993,1.2539,47.1534,18.9644s-1.31,37.9325-19.7969,45.1688-39.5993-1.2539-47.1534-18.9644S99.3976,261.5873,117.8854,254.3519Z"/><path id="Path_4940" data-name="Path 4940" class="cls-10" d="M99.4907,272.7985c2.2033-9,11.606-14.5841,21.0033-12.4734s15.2234,11.118,13.0194,20.1206-11.6052,14.5812-21.0006,12.471S97.2875,281.7982,99.4907,272.7985Z"/></g></g><circle id="Ellipse_201" data-name="Ellipse 201" class="cls-3" cx="393.6379" cy="6.8938" r="4.2951"/><circle id="Ellipse_204" data-name="Ellipse 204" class="cls-3" cx="456.14" cy="110.1785" r="3.6819"/><circle id="Ellipse_202" data-name="Ellipse 202" class="cls-2" cx="490.4351" cy="389.3684" r="2.4546"/><circle id="Ellipse_203" data-name="Ellipse 203" class="cls-3" cx="481.021" cy="224.1785" r="3.6819"/></g></svg>