<svg xmlns="http://www.w3.org/2000/svg" width="330.5" height="222" viewBox="0 0 330.5 222">
  <g id="Group_100" data-name="Group 100" transform="translate(0 -39.49)">
    <g id="Group_95" data-name="Group 95">
      <g id="Group_123" data-name="Group 123">
        <line id="Line_81" data-name="Line 81" x2="327.631" transform="translate(2.368 227.746)" fill="none" stroke="#fff" stroke-width="1"/>
      </g>
    </g>
    <line id="Line_82" data-name="Line 82" x2="320.767" transform="translate(3.302 80.76)" fill="none" stroke="#fff" stroke-width="1"/>
    <g id="Group_97" data-name="Group 97">
      <g id="Group_122" data-name="Group 122">
        <line id="Line_83" data-name="Line 83" x2="146.266" transform="translate(0 163.253)" fill="none" stroke="#fff" stroke-width="1"/>
      </g>
    </g>
    <path id="Path_187" data-name="Path 187" d="M0,32.941V216.722" transform="translate(278.5 29.651)" fill="none" stroke="#fff" stroke-width="1"/>
    <path id="Path_186" data-name="Path 186" d="M0,24.714v189.9" transform="translate(60.435 34.097)" fill="none" stroke="#fff" stroke-width="1"/>
    <g id="Group_99" data-name="Group 99">
      <g id="Group_121" data-name="Group 121">
        <line id="Line_86" data-name="Line 86" y2="50" transform="translate(207.5 211.49)" fill="none" stroke="#fff" stroke-width="1"/>
        <line id="Line_93" data-name="Line 93" y2="20.5" transform="translate(207.5 70.49)" fill="none" stroke="#fff" stroke-width="1"/>
        <line id="Line_87" data-name="Line 87" y2="194" transform="translate(133.5 39.49)" fill="none" stroke="#fff" stroke-width="1"/>
        <line id="Line_88" data-name="Line 88" x2="64.234" transform="translate(266.266 163.403)" fill="none" stroke="#fff" stroke-width="1"/>
        <path id="Path_178" data-name="Path 178" d="M42,71.99a3.5,3.5,0,1,1-3.5,3.5,3.5,3.5,0,0,1,3.5-3.5" transform="translate(3 -6)" fill="#adadad"/>
        <path id="Path_179" data-name="Path 179" d="M206.058,221.246a6.5,6.5,0,1,1-6.5,6.5,6.5,6.5,0,0,1,6.5-6.5" transform="translate(73 -0.756)" fill="#adadad"/>
        <g id="Group_101" data-name="Group 101" transform="translate(0.85 20.835)">
          <path id="Path_180" data-name="Path 180" d="M210.782,167.322a1.742,1.742,0,0,1-1.687,1.724h-.019a1.708,1.708,0,0,1-1.194-.483,1.742,1.742,0,0,1-.512-1.2,1.715,1.715,0,0,1,1.687-1.724h.019a1.713,1.713,0,0,1,1.706,1.687" transform="translate(-2.583 -4.355)" fill="#fff"/>
          <path id="Path_181" data-name="Path 181" d="M224.97,161.841a.425.425,0,0,1-.426.426H192.177a.431.431,0,1,1-.009-.862h32.386a.431.431,0,0,1,.417.436" transform="translate(-1.763 -4.133)" fill="#fff"/>
          <path id="Path_182" data-name="Path 182" d="M214.426,99.267a.478.478,0,0,1-.493.464l-23.119.009a5.691,5.691,0,0,0-4.368,1.488,5.312,5.312,0,0,0-1.488,4.15v4.861a.465.465,0,0,1-.464.464.528.528,0,0,1-.332-.133.488.488,0,0,1-.123-.37l-.009-4.927a5.446,5.446,0,0,1,0-.786,6.138,6.138,0,0,1,6.149-5.732c.123,0,.265.009.464.019h23.318a.482.482,0,0,1,.332.142.52.52,0,0,1,.133.351" transform="translate(-1.358 -0.845)" fill="#fff"/>
          <path id="Path_183" data-name="Path 183" d="M231.826,165.444v.019a6.586,6.586,0,0,1-1.876,4.8,7.015,7.015,0,0,1-4.88,1.914c-5.429-.038-12.953-.038-18.448-.038-3.894,0-7.912,0-11.891.038l-4.036.038a6.153,6.153,0,0,1-6.348-4.567,7.828,7.828,0,0,1-.265-2.151v-11.1a.453.453,0,0,1,.455-.445.472.472,0,0,1,.464.417v11.067a6.554,6.554,0,0,0,.218,1.971,5.39,5.39,0,0,0,5.552,3.847l3.923-.038q2.985,0,5.969-.019h.976c1.658-.009,3.316-.019,4.984-.019,5.505,0,13.047,0,18.467.038a6.085,6.085,0,0,0,4.216-1.677,5.96,5.96,0,0,0,1.6-4.131c-.038-6.794-.038-13.673-.038-20.324V126.719a.485.485,0,0,1,.455-.474.463.463,0,0,1,.464.455v18.429c-.047,8.007-.038,14.459.038,20.315" transform="translate(-1.361 -2.288)" fill="#fff"/>
          <path id="Path_184" data-name="Path 184" d="M192.2,144.749l-.161-.36a1.364,1.364,0,0,0-.284-.294l-2.407-2.056a3.228,3.228,0,0,1-.569-.569c-.161-.3.009-.663.426-1.355a1.578,1.578,0,0,1,.114-.218c.038-.076.076-.133.114-.208a13.184,13.184,0,0,0,1.26-3.544,16.833,16.833,0,0,0,.038-7.277,16.6,16.6,0,0,0-19.661-12.555,16.5,16.5,0,0,0,3.591,32.613h.009a16.551,16.551,0,0,0,3.591-.4,17.26,17.26,0,0,0,4.937-1.971l.066-.038h.322a18.459,18.459,0,0,0,2.037.322,15.32,15.32,0,0,0,5.666-.673,1.239,1.239,0,0,0,.966-1.052v-.047a.885.885,0,0,0-.057-.322m-1.222.521a14.271,14.271,0,0,1-5.249.616,18.121,18.121,0,0,1-1.81-.294,1.711,1.711,0,0,0-.569-.076H183l-.294.171a15.421,15.421,0,0,1-7.969,2.217,15.527,15.527,0,0,1-15.094-19.291,15.423,15.423,0,0,1,7.068-9.56,15.653,15.653,0,0,1,4.624-1.848A15.181,15.181,0,0,1,183,119.327l.843.531h-.076A15.45,15.45,0,0,1,189.8,135.9a13.338,13.338,0,0,1-1.146,3.278l-.294.445c-.426.692-.9,1.469-.436,2.3a2.9,2.9,0,0,0,.8.834l2.738,2.359Z" transform="translate(0 -1.747)" fill="#fff"/>
          <path id="Path_185" data-name="Path 185" d="M254.523,95.153a16.483,16.483,0,1,0-31.969,8.044,17.008,17.008,0,0,0,3.3,6.49,13.333,13.333,0,0,0,2.719,2.6,1.454,1.454,0,0,0,.2.133c.057.047.133.095.2.152.682.426.995.673.985,1.014a3.322,3.322,0,0,1-.256.767l-1.222,2.918a1.147,1.147,0,0,0-.123.388l.019.388a.816.816,0,0,0,.085.322l.028.038a1.233,1.233,0,0,0,1.336.5,15.255,15.255,0,0,0,5.363-1.933,19.882,19.882,0,0,0,1.677-1.2l.284-.142h.076a17.157,17.157,0,0,0,5.3-.455,16.5,16.5,0,0,0,3.392-1.251l.009-.009a16.4,16.4,0,0,0,8.6-18.761m-.6,5.173a15.53,15.53,0,0,1-16.657,14.307l-.341-.019-.3.152a1.558,1.558,0,0,0-.474.322,17.837,17.837,0,0,1-1.488,1.071,14.3,14.3,0,0,1-4.965,1.81l-.5.076,1.383-3.335a2.909,2.909,0,0,0,.341-1.1c.038-.957-.73-1.44-1.421-1.867l-.464-.265a13.373,13.373,0,0,1-2.492-2.416,15.438,15.438,0,0,1-1.81-17.036l-.066.028.512-.853a16.521,16.521,0,0,1,6.263-5.931,16.772,16.772,0,0,1,3.212-1.194,15.881,15.881,0,0,1,4.956-.426,15.556,15.556,0,0,1,14.317,16.676" transform="translate(-3.355)" fill="#fff"/>
          <line id="Line_89" data-name="Line 89" x2="12.674" transform="translate(228.731 96.896)" fill="none" stroke="#fff" stroke-linecap="round" stroke-miterlimit="10" stroke-width="1"/>
          <line id="Line_90" data-name="Line 90" x2="12.674" transform="translate(228.731 102.225)" fill="none" stroke="#fff" stroke-linecap="round" stroke-miterlimit="10" stroke-width="1"/>
          <line id="Line_91" data-name="Line 91" x2="12.674" transform="translate(168.864 128.433)" fill="none" stroke="#fff" stroke-linecap="round" stroke-miterlimit="10" stroke-width="1"/>
          <line id="Line_92" data-name="Line 92" x2="12.674" transform="translate(168.864 133.761)" fill="none" stroke="#fff" stroke-linecap="round" stroke-miterlimit="10" stroke-width="1"/>
        </g>
      </g>
    </g>
  </g>
</svg>
