<svg xmlns="http://www.w3.org/2000/svg" xmlns:xlink="http://www.w3.org/1999/xlink" width="100" height="100" viewBox="0 0 100 100">
  <defs>
    <clipPath id="clip-path">
      <rect id="Rectangle_3" data-name="Rectangle 3" width="100" height="100" fill="#fff"/>
    </clipPath>
  </defs>
  <g id="Mask_Group_3" data-name="Mask Group 3" clip-path="url(#clip-path)">
    <g id="Group_161" data-name="Group 161" transform="translate(-1240.734 -2614.368)">
      <path id="Path_133" data-name="Path 133" d="M271.766,390.68l5.335,27.78-19.551-12.179L238,418.46l5.335-27.78a4.555,4.555,0,0,1,1.587.769l2.98,2.612a5.19,5.19,0,0,0,4.776.949l3.753-1.277a4.479,4.479,0,0,1,2.241,0l3.753,1.277a5.192,5.192,0,0,0,4.776-.949l2.98-2.611a4.542,4.542,0,0,1,1.585-.769Z" transform="translate(1032.912 2294.199)" fill="#9a9a9a" fill-rule="evenodd"/>
      <path id="Path_134" data-name="Path 134" d="M187.909,71.4a3.432,3.432,0,0,0,3.034-.6l2.98-2.613a6.168,6.168,0,0,1,3.122-1.294L201,66.632a3.433,3.433,0,0,0,2.572-1.719l1.754-3.548a6.158,6.158,0,0,1,2.4-2.4l3.548-1.754a3.432,3.432,0,0,0,1.719-2.572l.261-3.954a6.155,6.155,0,0,1,1.294-3.122l2.612-2.98a3.433,3.433,0,0,0,.6-3.034L216.484,37.8a6.164,6.164,0,0,1,0-3.382l1.277-3.753a3.433,3.433,0,0,0-.6-3.034l-2.611-2.98a6.155,6.155,0,0,1-1.294-3.122l-.261-3.956A3.432,3.432,0,0,0,211.272,15l-3.548-1.754a6.158,6.158,0,0,1-2.391-2.391l-1.754-3.548a3.43,3.43,0,0,0-2.572-1.719l-3.954-.261a6.156,6.156,0,0,1-3.122-1.294l-2.98-2.611a3.433,3.433,0,0,0-3.04-.613l-3.753,1.277a6.164,6.164,0,0,1-3.382,0L177.022.807a3.432,3.432,0,0,0-3.034.6l-2.98,2.611a6.156,6.156,0,0,1-3.122,1.294l-3.954.261A3.43,3.43,0,0,0,161.359,7.3L159.6,10.844a6.164,6.164,0,0,1-2.392,2.391l-3.548,1.754a3.432,3.432,0,0,0-1.719,2.572l-.261,3.956a6.158,6.158,0,0,1-1.294,3.122l-2.611,2.98a3.435,3.435,0,0,0-.6,3.034l1.277,3.753a6.163,6.163,0,0,1,0,3.382l-1.277,3.753a3.432,3.432,0,0,0,.6,3.034l2.612,2.98a6.156,6.156,0,0,1,1.294,3.122l.261,3.954a3.432,3.432,0,0,0,1.719,2.572l3.548,1.754a6.16,6.16,0,0,1,2.391,2.391l1.754,3.548a3.432,3.432,0,0,0,2.572,1.719l3.954.261a6.161,6.161,0,0,1,3.122,1.294l2.98,2.613a3.433,3.433,0,0,0,3.034.6l3.753-1.277a6.164,6.164,0,0,1,3.382,0Zm-5.449-8.638A26.661,26.661,0,1,0,155.8,36.106a26.662,26.662,0,0,0,26.657,26.66Z" transform="translate(1107.998 2616.124)" fill="#9a9a9a" fill-rule="evenodd"/>
      <path id="Path_176" data-name="Path 176" d="M23.194,17.958a8.09,8.09,0,0,0-11.232-4.069l-2.3,1.238a3.386,3.386,0,0,1-4.684-1.68,3.6,3.6,0,0,1,1.68-4.334L9.314,7.692a2.423,2.423,0,0,1,2.918.531.677.677,0,0,0,.8.177l3.007-1.591a.71.71,0,0,0,.265-.974A7.041,7.041,0,0,0,7.544,3.359L5.953.351A.632.632,0,0,0,5.068.086L2.06,1.68a.632.632,0,0,0-.265.884L3.385,5.572A8.09,8.09,0,0,0,1.351,16.628,8.277,8.277,0,0,0,12.138,19.1l1.946-1.062a3.386,3.386,0,0,1,4.684,1.68,3.6,3.6,0,0,1-1.68,4.334l-2.654,1.419a2.423,2.423,0,0,1-2.918-.531.677.677,0,0,0-.8-.177L7.711,26.36a.71.71,0,0,0-.265.972A7.041,7.041,0,0,0,16.2,29.809l1.591,3.007a.632.632,0,0,0,.884.265l3.007-1.591a.632.632,0,0,0,.265-.884l-1.581-3.1a8.185,8.185,0,0,0,2.83-9.552Z" transform="translate(1288.197 2632.156) rotate(28.999)" fill="#9a9a9a"/>
    </g>
  </g>
</svg>
