<svg id="Layer_1" data-name="Layer 1" xmlns="http://www.w3.org/2000/svg" xmlns:xlink="http://www.w3.org/1999/xlink" viewBox="0 0 429 300"><defs><style>.cls-1,.cls-3{fill:#f2b6b6;}.cls-1{clip-path:url(#clip-path);}.cls-2{fill:none;}.cls-4{clip-path:url(#clip-path-2);}.cls-5{clip-path:url(#clip-path-3);}.cls-6,.cls-73{fill:#fff;}.cls-7{clip-path:url(#clip-path-4);}.cls-8{clip-path:url(#clip-path-5);}.cls-9{fill:#d8d8d8;}.cls-10{clip-path:url(#clip-path-6);}.cls-11{clip-path:url(#clip-path-7);}.cls-12{clip-path:url(#clip-path-8);}.cls-13{clip-path:url(#clip-path-9);}.cls-14{clip-path:url(#clip-path-10);}.cls-15{clip-path:url(#clip-path-11);}.cls-16{clip-path:url(#clip-path-12);}.cls-17{clip-path:url(#clip-path-13);}.cls-18{clip-path:url(#clip-path-14);}.cls-19{clip-path:url(#clip-path-15);}.cls-20{clip-path:url(#clip-path-16);}.cls-21{clip-path:url(#clip-path-17);}.cls-22{clip-path:url(#clip-path-18);}.cls-23{clip-path:url(#clip-path-19);}.cls-24{clip-path:url(#clip-path-20);}.cls-25{clip-path:url(#clip-path-21);}.cls-26{clip-path:url(#clip-path-22);}.cls-27{clip-path:url(#clip-path-23);}.cls-28{clip-path:url(#clip-path-24);}.cls-29{clip-path:url(#clip-path-25);}.cls-30{clip-path:url(#clip-path-26);}.cls-31{clip-path:url(#clip-path-27);}.cls-32{clip-path:url(#clip-path-28);}.cls-33{clip-path:url(#clip-path-29);}.cls-34{clip-path:url(#clip-path-30);}.cls-35{clip-path:url(#clip-path-31);}.cls-36{clip-path:url(#clip-path-32);}.cls-37{clip-path:url(#clip-path-33);}.cls-38{clip-path:url(#clip-path-34);}.cls-39{clip-path:url(#clip-path-35);}.cls-40{clip-path:url(#clip-path-36);}.cls-41{clip-path:url(#clip-path-37);}.cls-42{clip-path:url(#clip-path-38);}.cls-43{clip-path:url(#clip-path-39);}.cls-44{clip-path:url(#clip-path-40);}.cls-45{clip-path:url(#clip-path-41);}.cls-46{clip-path:url(#clip-path-42);}.cls-47{clip-path:url(#clip-path-43);}.cls-48{clip-path:url(#clip-path-44);}.cls-49{clip-path:url(#clip-path-45);}.cls-50{clip-path:url(#clip-path-46);}.cls-51{clip-path:url(#clip-path-47);}.cls-52{clip-path:url(#clip-path-48);}.cls-53{clip-path:url(#clip-path-49);}.cls-54{clip-path:url(#clip-path-50);}.cls-55{clip-path:url(#clip-path-51);}.cls-56{clip-path:url(#clip-path-52);}.cls-57{clip-path:url(#clip-path-53);}.cls-58{clip-path:url(#clip-path-54);}.cls-59{clip-path:url(#clip-path-55);}.cls-60{clip-path:url(#clip-path-56);}.cls-61{clip-path:url(#clip-path-57);}.cls-62{clip-path:url(#clip-path-58);}.cls-63{clip-path:url(#clip-path-59);}.cls-64{clip-path:url(#clip-path-60);}.cls-65{clip-path:url(#clip-path-61);}.cls-66{clip-path:url(#clip-path-62);}.cls-67{clip-path:url(#clip-path-63);}.cls-68{clip-path:url(#clip-path-64);}.cls-69{clip-path:url(#clip-path-65);}.cls-70{clip-path:url(#clip-path-66);}.cls-71{clip-path:url(#clip-path-67);}.cls-72{fill:#333;stroke-width:1.34px;}.cls-72,.cls-73{stroke:#333;stroke-linecap:round;stroke-linejoin:round;}.cls-73{stroke-width:0.86px;}</style><clipPath id="clip-path"/><clipPath id="clip-path-2"><path class="cls-1" d="M55.49,189.11q-.27,3.63-.27,7.32a100,100,0,0,0,97.38,99.91V243.21a46.72,46.72,0,0,1-43.33-54.1Z"/></clipPath><clipPath id="clip-path-3"><path class="cls-2" d="M85.17,196.07a12.84,12.84,0,0,0-2.48,2.26c-5.15,6.22-1.74,15.39,10.77,25.45q30.27,24.33,30.51,67a99.44,99.44,0,0,1-25.24-12.57A77.05,77.05,0,0,0,92,250.79c-5.05-10.89-13-20.28-24.38-27.89A85.66,85.66,0,0,1,57.51,215a99.89,99.89,0,0,1-1.74-18.58q0-3.39.23-6.77H72l13.22,6.41ZM109.7,208a.54.54,0,0,0,.77-.62,46.3,46.3,0,0,1-1.25-10.73c0-.85,0-1.7.07-2.55a.56.56,0,0,0-.42-.56c-9.29-2.22-18.38-1.16-23.7,2.56L109.7,208ZM87.46,196c5.08-2.64,12.78-3.31,20.71-1.5,0,.72,0,1.43,0,2.15a47.71,47.71,0,0,0,1,9.87L87.46,196Zm0,0-15.14-7.35a.53.53,0,0,0-.24-.06H55.49a.56.56,0,0,0-.55.51c-.18,2.45-.26,4.9-.26,7.36a101.53,101.53,0,0,0,1.78,19,.54.54,0,0,0,.17.3,85.77,85.77,0,0,0,10.42,8.11c11.22,7.5,19,16.74,24,27.44a75.93,75.93,0,0,1,6.61,27.35.57.57,0,0,0,.24.41,100.27,100.27,0,0,0,26.47,13.1.55.55,0,0,0,.71-.52q0-43.78-30.92-68.66c-12.1-9.73-15.28-18.28-10.61-23.9A12.55,12.55,0,0,1,87.46,196Zm54.63,46a116.18,116.18,0,0,0,2.46,13.44c3.3,13.86.28,37.12-5.62,39.11-.93-.15-1.86-.32-2.79-.5a10.73,10.73,0,0,1-2.58-2.46c-2.08-2.62-3.14-7.35-3.42-14.43-.21-5.43-.06-10,.61-22.71.22-4.25.34-6.67.44-9.32.12-2.8.19-5.34.22-7.74A46.85,46.85,0,0,0,142.09,242Zm-11.76-5.58c0,2.67-.11,5.5-.23,8.67-.11,2.64-.23,5.05-.45,9.31-.67,12.76-.82,17.33-.61,22.81.29,7.29,1.39,12.21,3.66,15.06a11.47,11.47,0,0,0,3,2.77.67.67,0,0,0,.18.07c1,.2,2,.38,3.06.55a.65.65,0,0,0,.24,0c3.49-1,6-7.18,7.17-16.22,1.09-8.33.85-17.8-.68-24.24a113.78,113.78,0,0,1-2.48-13.66.56.56,0,0,0-.4-.47,46.09,46.09,0,0,1-11.58-5.1.55.55,0,0,0-.83.47Z"/></clipPath><clipPath id="clip-path-4"><path class="cls-2" d="M292.79,166.39v-2.86l39.13,39.13h-2.86l-36.27-36.27Zm0,10.74v-2.87l28.4,28.4h-2.86l-25.54-25.53Zm0,10.73V185l17.66,17.66h-2.86l-14.8-14.8Zm0,10.73v-2.86l6.93,6.93h-2.86l-4.07-4.07Zm0-43.24v-2.86L343,202.66H340.1l-47.31-47.31Zm0-11v-2.86L354,202.66h-2.86l-58.35-58.35Zm0-11v-2.86l72.26,72.25h-2.87l-69.39-69.39Zm0-11v-2.86l83.3,83.29h-2.87l-80.43-80.43Zm.69-10.35h2.87l87.23,87.23V202l-90.1-90.09Zm11,0h2.86l76.19,76.19v2.86l-79.05-79.05Zm11,0h2.86L383.58,177v2.87l-68-68Zm11,0h2.86L383.58,166v2.87l-57-57Zm11,0h2.86l43.07,43.06v2.86l-45.93-45.92Zm11,0h2.86l32,32v2.86l-34.89-34.88Zm11,0h2.86l21,21v2.86l-23.85-23.84Zm11,0h2.86l9.95,9.94v2.86l-12.81-12.8Zm11,0h1.77v1.76l-1.77-1.76Z"/></clipPath><clipPath id="clip-path-5"><path class="cls-2" d="M302,192.41a54.18,54.18,0,1,1,54.17-54.18A54.18,54.18,0,0,1,302,192.41Z"/></clipPath><clipPath id="clip-path-6"><path class="cls-2" d="M342.07,102.66q9.56,27,12.33,46.78A53.4,53.4,0,0,1,345,170.25q-2.62-12.12-5.55-33.6v-.05a136.33,136.33,0,0,0-19.53-45.89l8.78,1a53.75,53.75,0,0,1,13.41,10.94ZM316.28,85.53a.59.59,0,0,0-.3-.21,55.35,55.35,0,0,0-11-1.73.55.55,0,0,0-.53.79c.8,1.65,1.56,3.26,2.3,4.82l13.11,1.51q-1.74-2.61-3.6-5.18Zm-9.51,3.67a245,245,0,0,1,10.91,26.49c0,.09.06.18.1.28A73.4,73.4,0,0,1,321,132c.41,4.22.52,7.33.63,14.17.08,5.69.19,8,.58,10.2.52,2.93,1.52,4.65,3.3,5.23,6.31,2.05,7.85,11.32,4.78,22.2A53.22,53.22,0,0,1,311.59,191a66.6,66.6,0,0,1-.94-13.26c0-4.44.17-7.81.68-17.55.23-4.25.34-6.67.45-9.32.51-12.67.25-21.62-1.18-29.15-1.78-9.39-5.37-15.71-11.29-18.76-11.79-6.08-26-6.36-33.55-1.1A10.21,10.21,0,0,0,261.29,113c1.13,5,5.36,10.59,12.76,16.53q28.54,23,30.38,62.23c-.82,0-1.65.06-2.48.06a53.34,53.34,0,0,1-22.47-4.92c-.46-10.24-2.19-19.42-6-28.31-4.86-11.48-12.8-21.38-24.46-29.38a53.69,53.69,0,0,1,37.4-42.38l20.3,2.33Zm37.38,82.45a.55.55,0,0,0,1,.22,54.49,54.49,0,0,0,10.37-22.3.4.4,0,0,0,0-.19q-2.79-19.94-12.43-47.19a.52.52,0,0,0-.1-.18,54.88,54.88,0,0,0-13.86-11.3.86.86,0,0,0-.21-.07l-11.26-1.29a135.33,135.33,0,0,1,20.69,47.47q3.07,22.55,5.82,34.83ZM307.5,88.18l-1.63-3.43a52.86,52.86,0,0,1,9.64,1.59c.72,1,1.43,2,2.13,3L307.5,88.18Zm-21-2.41a.41.41,0,0,0-.22,0,54.78,54.78,0,0,0-38.34,43.63.53.53,0,0,0,.23.54c11.65,7.91,19.54,17.72,24.36,29.1,3.75,8.84,5.45,18,5.88,28.26a.55.55,0,0,0,.32.48A54.53,54.53,0,0,0,302,193q1.55,0,3.09-.09a.54.54,0,0,0,.51-.57q-1.68-40.16-30.81-63.58c-13.8-11.09-15.95-20.64-8.35-26,7.15-5,21-4.73,32.41,1.17,5.57,2.87,9,8.91,10.72,18,1.41,7.42,1.67,16.3,1.16,28.9-.1,2.64-.22,5-.44,9.31-.51,9.75-.66,13.13-.69,17.59a65.06,65.06,0,0,0,1.07,14,.56.56,0,0,0,.63.42A54.28,54.28,0,0,0,331,184.59a.53.53,0,0,0,.24-.31c3.29-11.47,1.67-21.44-5.44-23.75-1.3-.42-2.1-1.81-2.56-4.38a66,66,0,0,1-.57-10c-.1-6.88-.21-10-.63-14.26a73.93,73.93,0,0,0-3.26-16.25c0-.09-.06-.18-.1-.28A247.49,247.49,0,0,0,307.5,88.18l-21-2.41Z"/></clipPath><clipPath id="clip-path-7"><path class="cls-2" d="M76.07,50.58A42.45,42.45,0,0,0,74.86,40.4H72.69c-19.17-1.47-28.3-6.91-27-16.42.93-7.09,8.79-8.45,16.72-3.56,6.24,3.85,11.06,10.47,13.35,18.89H92.4a.55.55,0,1,1,0,1.09H76a43.65,43.65,0,0,1,1.17,10.18V67.34c0,2.25-1.38,3.6-3.91,4.24-1.81.45-3.58.54-7.84.54s-5.87.09-7.56.51c-2.09.53-3.09,1.49-3.09,3.17s1,2.68,3.1,3.26c1.7.47,3.57.61,7.56.67h.29c4.16.07,5.89.18,7.65.63,2.46.63,3.8,1.89,3.8,4s-1.32,3.37-3.74,4.07c-1.74.5-3.46.66-7.57.85l-.41,0c-3.95.19-5.85.4-7.56.94-2.1.66-3.12,1.74-3.12,3.48s1,2.81,3.11,3.43a27.79,27.79,0,0,0,7.55.68h1.31a35.16,35.16,0,0,1,7,.36c2.23.44,3.46,1.4,3.46,3.09s-1.4,2.86-3.93,3.4a42.91,42.91,0,0,1-7.85.6,41.15,41.15,0,0,0-7.57.56c-2.08.44-3.05,1.16-3.05,2.28,0,2.74,1.09,3.45,4.24,3.73l.4,0c2.4.2,3.36.44,4.14,1.41,1.49,1.85,2.29,16.21,2.55,44.06a.55.55,0,0,1-1.1,0c-.25-27.07-1.07-41.85-2.31-43.38-.51-.63-1.3-.84-3.37-1l-.41,0a7.16,7.16,0,0,1-3.51-.92,4.28,4.28,0,0,1-1.73-3.9c0-1.78,1.4-2.82,3.92-3.35a41.69,41.69,0,0,1,7.82-.59,40.44,40.44,0,0,0,7.6-.58c2.09-.44,3.07-1.18,3.07-2.32s-.81-1.66-2.58-2a34.64,34.64,0,0,0-6.76-.34H65.41a28.42,28.42,0,0,1-7.85-.73c-2.51-.74-3.9-2.18-3.9-4.48S55,90,57.55,89.19c1.83-.58,3.79-.79,7.84-1l.41,0c4-.19,5.69-.35,7.32-.82,2-.57,2.95-1.5,2.95-3s-1-2.41-3-2.93c-1.65-.42-3.34-.52-7.4-.59H65.4c-4.09-.07-6-.2-7.83-.71-2.53-.7-3.91-2.07-3.91-4.32s1.39-3.6,3.92-4.23c1.81-.46,3.58-.55,7.83-.55s5.88-.08,7.57-.51c2.09-.53,3.09-1.49,3.09-3.17V50.58ZM72.75,39.31h1.82c-2.25-8-6.86-14.29-12.79-18C54.43,16.82,47.53,18,46.73,24.13c-1.14,8.64,7.42,13.74,26,15.18Z"/></clipPath><clipPath id="clip-path-8"><path class="cls-2" d="M65.84,172.82a4.21,4.21,0,1,1,4.21-4.21,4.21,4.21,0,0,1-4.21,4.21Zm0-1.09a3.12,3.12,0,1,0-3.11-3.12,3.12,3.12,0,0,0,3.11,3.12Z"/></clipPath><clipPath id="clip-path-9"><path class="cls-2" d="M103.91,42.88a4.21,4.21,0,1,1,4.21-4.21,4.22,4.22,0,0,1-4.21,4.21Zm0-1.1a3.12,3.12,0,1,0-3.11-3.11,3.11,3.11,0,0,0,3.11,3.11Z"/></clipPath><clipPath id="clip-path-10"><path class="cls-2" d="M291.5,59.06a.55.55,0,0,1-1.07-.26,63.28,63.28,0,0,1,3.79-11.73c1.29-2.6,2.65-3.59,4-2.46,2.25,1.9,3.35,5.74,4.71,14,0,.29.09.59.15,1,0-.06.12.74.16,1a55.6,55.6,0,0,0,1.86,8.85c.8,2.35,1.71,3.4,2.82,3.3,1.34-.14,2.65-1.61,4-4.41a74.89,74.89,0,0,0,3.5-9.89l.31-1a94.89,94.89,0,0,1,3.2-9.34c1.29-3.07,2.6-5.08,4.09-6.06,1.25-.82,2.06,0,2.41,1.83a37.63,37.63,0,0,1,.42,5.65c0,1,0,1.23.06,1.68.22,5.72.83,8.39,2.15,8.39s2.31-1.29,3.74-4.19c.41-.83,1.85-4,2.05-4.4,2.57-5.43,4.81-8.24,8.19-9,3.9-.92,8.17,3,12.93,11.69a.55.55,0,1,1-1,.53c-4.54-8.25-8.49-11.92-11.72-11.16-2.94.69-5,3.3-7.45,8.44-.19.41-1.64,3.57-2.05,4.41-1.62,3.28-2.93,4.81-4.73,4.81-1.35,0-2.16-1.16-2.63-3.21a35,35,0,0,1-.62-6.24c0-.45,0-.7-.06-1.68a35.45,35.45,0,0,0-.4-5.48c-.22-1.15-.4-1.34-.73-1.12-1.26.83-2.46,2.68-3.68,5.57a93.93,93.93,0,0,0-3.16,9.24l-.31,1a74.07,74.07,0,0,1-3.56,10c-1.47,3.13-3,4.86-4.85,5s-3-1.26-4-4a56.13,56.13,0,0,1-1.9-9c0-.22-.17-1-.16-1-.06-.39-.11-.68-.16-1-1.3-8-2.38-11.74-4.33-13.39-.55-.47-1.28.06-2.29,2.1a62.51,62.51,0,0,0-3.71,11.51Z"/></clipPath><clipPath id="clip-path-11"><path class="cls-2" d="M171.26,134.39a4.4,4.4,0,1,1,4.21-4.39,4.31,4.31,0,0,1-4.21,4.39Zm0-.37a4,4,0,1,0-3.84-4,3.94,3.94,0,0,0,3.84,4Z"/></clipPath><clipPath id="clip-path-12"><path class="cls-2" d="M275.33,111.63q13,9.59,14.26,37.55t0,53.7q-6.78,18.17-14.26,0t-6.39-74.53l6.39-16.72Z"/></clipPath><clipPath id="clip-path-13"><path class="cls-2" d="M269.12,128.38q-1.08,56.31,6.38,74.44c4.92,11.94,9.45,12,13.91,0q1.26-25.72,0-53.67-1.26-27.68-14-37.26l-6.29,16.46Zm6.32-16.89q13.06,9.63,14.33,37.68t0,53.72c-4.59,12.32-9.56,12.32-14.61.06s-7.13-37-6.4-74.61l6.4-16.77a.17.17,0,0,1,.28-.08Z"/></clipPath><clipPath id="clip-path-14"><path class="cls-2" d="M289.59,202.88q-6.78,18.17-14.26,0c-4.69-11.37,9.53-82.71,7.46-54q-1.05,14.55,6.8,54Z"/></clipPath><clipPath id="clip-path-15"><path class="cls-2" d="M282.1,144c-.52,4.49-1.22,8.72-1.82,12.23-2.32,13.74-4.21,35.88-2.1,42.14,1.4,4.17-.83,14.1,13.25,38-11.15,13.36-19.63,13.36-32.39,15.34-19.14,3-69.39-.08-73-1.25s5.36-17.94,7-25.38,10.63-36.45,0-48.46-17.47-51.31-10.66-60.31c3.17-4.19,20.5-7.42,39.39-8.94V86.25h23.43v20.24c13.23,0,24.49,1.16,28.82,3.7a15.57,15.57,0,0,1,6.44,7.89"/></clipPath><clipPath id="clip-path-16"><path class="cls-2" d="M280.8,213.58a58.35,58.35,0,0,1-1.65-7.27c-.15-.91-.27-1.78-.38-2.76-.06-.53-.23-2.11-.25-2.24a14.09,14.09,0,0,0-.52-2.87c-1.9-5.65-.63-26,2.1-42.22.91-5.37,1.39-8.5,1.82-12.22.3-.15.37-.06.36,0-.43,3.73-.91,6.86-1.82,12.24-2.72,16.12-4,36.48-2.11,42.05a14.15,14.15,0,0,1,.53,2.94c0,.13.19,1.71.25,2.24.12,1,.23,1.84.38,2.75a57.44,57.44,0,0,0,1.64,7.21c1.94,6.58,5.26,14.06,10.44,22.87-4.12,5.13-8,8.42-12.14,10.6s-8,3.19-15.64,4.31l-2.32.34-2.42.36c-8.57,1.33-24.11,1.57-42.36.93-14.53-.51-28.76-1.55-30.74-2.18-1.2-.39-1.26-2.13-.44-5.14A92.86,92.86,0,0,1,189,236c2.54-6.39,3.39-8.69,3.89-10.94.09-.38,1.8-7.22,2.43-10a110,110,0,0,0,2.51-15.91c.72-10-.72-17.63-4.9-22.35-10.64-12-17.56-51.43-10.66-60.54,3-4,18.67-7.33,39.35-9v-21q0-.09,23.61-.18.09,0,.18,20.24c14.13,0,24.63,1.32,28.73,3.72a15.74,15.74,0,0,1,6.52,8c-.19.28-.3.24-.34.14a15.33,15.33,0,0,0-6.37-7.8c-4-2.37-14.57-3.64-28.72-3.68q-.11,0-.19-20.23H222v21c-20.78,1.84-36.52,5.22-39.42,9-6.78,9,.11,48.17,10.65,60.08,4.26,4.81,5.71,12.57,5,22.62a109.26,109.26,0,0,1-2.51,16c-.63,2.83-2.35,9.67-2.43,10-.51,2.28-1.36,4.59-3.82,10.76a90.45,90.45,0,0,0-3.52,9.71c-.77,2.82-.72,4.4.19,4.7,1.93.62,16.17,1.66,30.64,2.17,18.23.63,33.75.4,42.29-.93l2.42-.36,2.33-.34c7.6-1.12,11.32-2,15.52-4.27s7.88-5.38,11.93-10.21a103.39,103.39,0,0,1-10.41-22.83Z"/></clipPath><clipPath id="clip-path-17"><path class="cls-2" d="M282.1,144c-.52,4.49-1.22,8.72-1.82,12.23-2.32,13.74-4.21,35.88-2.1,42.14,1.4,4.17-.83,14.1,13.25,38-17.4,13.74-23.18-5.43-23.18-26.55,0-43.46,1.45-102.23,5.78-99.69a15.57,15.57,0,0,1,6.44,7.89L282.1,144Z"/></clipPath><clipPath id="clip-path-18"><path class="cls-2" d="M243,108.76c4.77,0,15.35-24.41,15.35-38.06s-13.6-22.15-27.25-22.15-9.9,23.3-6.81,37.11c1.59,7,4.38,12.93,8,17,.2.22,1.7.13,1.91.34s.51.58.85.91l.43.41c2.87,2.68,5.59,4.46,7.48,4.46Z"/></clipPath><clipPath id="clip-path-19"><path class="cls-2" d="M215.77,256c-19.13,3-26.12-1.23-29.75-5.46s5.36-17.94,7-25.38,10.63-36.45,0-48.46-17.47-51.31-10.66-60.31c3.17-4.19,20.5-7.42,39.39-8.94q19.31,22.09,21.23,41.66c1.39,14.15.06,29.29-2.65,43.59C234,226.32,220,255.33,215.77,256Z"/></clipPath><clipPath id="clip-path-20"><path class="cls-2" d="M182.54,116.48c-6.78,9,.11,48.17,10.65,60.08,4.26,4.81,5.71,12.57,5,22.62a109.26,109.26,0,0,1-2.51,16c-.63,2.83-2.35,9.67-2.43,10-.51,2.27-1.27,4.17-3.82,10l-.41.92a56,56,0,0,0-3.19,8.52c-.7,2.75-.62,4.67.35,5.8a16.78,16.78,0,0,0,9,5.38c5,1.32,11.75,1.4,20.62,0,2.06-.32,6.67-8,11.35-19.17a227.54,227.54,0,0,0,13.08-44c2.94-15.54,3.95-30.33,2.65-43.54q-1.91-19.47-21.13-41.49c-20.57,1.66-36.26,5-39.16,8.86ZM215.8,256.16c-8.91,1.39-15.69,1.3-20.76,0a17.18,17.18,0,0,1-9.16-5.49c-1.06-1.24-1.15-3.28-.43-6.13a57.73,57.73,0,0,1,3.22-8.57c.12-.28.25-.57.4-.93,2.54-5.78,3.3-7.68,3.8-9.91.09-.38,1.8-7.22,2.43-10a110,110,0,0,0,2.51-15.91c.72-10-.72-17.63-4.9-22.35-10.64-12-17.56-51.43-10.66-60.54,3-4,18.76-7.35,39.52-9,13,14.82,20.14,28.74,21.42,41.82,1.3,13.26.3,28.08-2.65,43.65a226.86,226.86,0,0,1-13.11,44.05c-4.74,11.35-9.36,19-11.63,19.39Z"/></clipPath><clipPath id="clip-path-21"><path class="cls-2" d="M193.05,225.14c1.67-7.45,10.63-36.45,0-48.46s-2.18-24,4.64-33c1.59-3.11,3.29,27.23,11.39,41.52,5.86,10.33,33.66-13.13,27.88-1.73-18.13,35.73-45.58,49.12-43.91,41.68Z"/></clipPath><clipPath id="clip-path-22"><path class="cls-2" d="M203.61,109.72c-1.32.21-1.63.82-1.13,2a24,24,0,0,0,3.86,5.29c1,1.18,6,6.72,7.34,8.26,3.41,3.88,6.3,7.39,9.06,11.06,1.09,1.45,2.15,2.9,3.16,4.36.38.54,1.27.87,3.54,1.43l.15,0c2.54.63,3.51,1,3.95,1.74.34.58-.25,1.21-2.51,3.16-1.92,1.66-2.61,2.41-2.43,2.73,7.37,13.45,11.58,27,11.92,41,2.68-14.86,3.55-29,2.31-41.7q-1.91-19.47-21.13-41.49c-6.47.52-12.64,1.24-18.09,2.1Zm-.06-.36c5.49-.87,11.7-1.59,18.22-2.11a.18.18,0,0,1,.15.06q19.35,22.14,21.27,41.76c1.3,13.26.3,28.08-2.65,43.65a.18.18,0,0,1-.36,0c0-14.62-4.24-28.71-11.91-42.7-.32-.6.3-1.27,2.49-3.16,2-1.7,2.64-2.42,2.46-2.73-.36-.61-1.31-1-3.71-1.56l-.15,0c-2.41-.59-3.31-.92-3.76-1.57q-1.51-2.17-3.15-4.35c-2.76-3.66-5.65-7.16-9-11-1.34-1.54-6.31-7.08-7.33-8.26-2.22-2.57-3.43-4.19-3.93-5.39-.59-1.42-.14-2.28,1.41-2.52Z"/></clipPath><clipPath id="clip-path-23"><path class="cls-2" d="M282.18,143.26c-.52,4.77-1.27,9.29-1.9,13-2.32,13.74-4.21,35.88-2.1,42.14,1.4,4.17,5.64,15.22,23.57,38.47-2.14,2.76-4,4.65-14.82,2.76s-16.21-23.08-21.35-87.84q-2.41-30.47-20.37-45.29c13.23,0,24.49,1.16,28.82,3.7a15.24,15.24,0,0,1,6.18,7.28c.7.37,1.13,1.73,1.31,4.08q.39,5.07.66,21.71Z"/></clipPath><clipPath id="clip-path-24"><path class="cls-2" d="M283.61,210.56A69.16,69.16,0,0,1,278,198.44c-1.9-5.65-.63-26,2.1-42.22,1-5.71,1.47-9,1.9-13a.18.18,0,0,1,.2-.16.19.19,0,0,1,.17.2c-.44,4-.94,7.29-1.91,13-2.72,16.12-4,36.48-2.11,42.05a68.72,68.72,0,0,0,5.58,12,224.47,224.47,0,0,0,18,26.37c-1.44,2.09-2.42,2.9-4.26,3.41-2.26.63-5.6.54-10.73-.36-11-1.93-16.43-24.08-21.5-88q-2.4-30.39-20.31-45.16a.19.19,0,0,1,.12-.33c14.22,0,24.79,1.32,28.91,3.73a15.48,15.48,0,0,1,6.26,7.36c-.19.28-.29.24-.33.15a15.1,15.1,0,0,0-6.12-7.19c-4-2.34-14.32-3.61-28.22-3.68q17.67,14.89,20.06,45.09c5.05,63.67,10.51,85.8,21.19,87.68,5.09.89,8.38,1,10.57.37a6.93,6.93,0,0,0,4-2.95,223.19,223.19,0,0,1-17.91-26.3Z"/></clipPath><clipPath id="clip-path-25"><path class="cls-2" d="M245.21,106.49c5.17-1.66,4.14-1.33,8.84-.84,4.25.44,20.33,18.72,21.06,29.15.26,3.7-7,2.28-7,4.21s7.6,2.81,7,6.17c-2.32,13.74-1.08,16.45-6.21,41.66-1.15-9.94-2.24-21.55-3.32-35.06q-2.41-30.47-20.37-45.29Z"/></clipPath><clipPath id="clip-path-26"><path class="cls-2" d="M265.77,151.76c1,13.16,2.09,24.35,3.18,33.91a251.92,251.92,0,0,0,4.4-28.44c0-.35.06-.63.09-.9.45-4.34.83-7.28,1.49-11.18.23-1.36-.84-2.3-3.4-3.52l-.5-.23-.25-.12-.24-.11-.93-.45c-1.16-.6-1.71-1.09-1.71-1.71,0-.79.69-1.08,2.65-1.42l.51-.09.5-.09c2.42-.46,3.47-1.13,3.37-2.6-.33-4.7-3.9-11.48-9.17-18.22-4.65-5.93-9.69-10.54-11.72-10.76l-1.48-.16-1.09-.14a9.44,9.44,0,0,0-1.54-.09c-.85,0-1.46.2-4.35,1.12q17.79,14.88,20.19,45.2Zm-15.86-46.68a10.07,10.07,0,0,1,1.6.09l1.1.13c.51.07,1,.12,1.46.17,2.18.23,7.27,4.88,12,10.9,5.31,6.78,8.91,13.63,9.24,18.42.13,1.73-1.08,2.48-3.66,3l-.51.09-.5.09c-1.74.3-2.36.55-2.36,1.06s.48.85,1.52,1.38l.91.45.25.11.25.12.5.23c2.71,1.29,3.87,2.32,3.6,3.91-.66,3.89-1,6.82-1.49,11.16,0,.27-.05.55-.09.9a254.9,254.9,0,0,1-4.63,29.61.19.19,0,0,1-.37,0c-1.13-9.81-2.22-21.38-3.31-35.07q-2.4-30.39-20.31-45.16a.19.19,0,0,1,.06-.32c3.2-1,3.83-1.19,4.76-1.23Z"/></clipPath><clipPath id="clip-path-27"><path class="cls-2" d="M233.93,166.52q10.33-5.61,12.49-6.81c4.37-2.44,21.74-10.44,24.77-10.44h17.45L284.87,154l-8.7,1.29,4.79,4.47q-14.1,13.65-15.82,14.76t1.91-7l-3.89-1q-7.56,3.58-10.88,3.58c-1.08,0-6.35,5.63-13.39,13.06-14.6,15.41-12.06-12.8-5-16.64Z"/></clipPath><clipPath id="clip-path-28"><path class="cls-2" d="M271.19,149.46c-2.53,0-18.67,7.06-24.69,10.41q-2.15,1.2-12.49,6.81c-3.26,1.77-5.88,9.4-5.56,15.37.16,2.95,1.05,4.9,2.56,5.37,1.76.56,4.37-.82,7.75-4.39,10.47-11.05,12.52-13.11,13.52-13.11,2.18,0,5.79-1.19,10.8-3.57,0,0,1.37.31,4,1a.19.19,0,0,1,.12.26,46.86,46.86,0,0,0-2.29,5.74,2.7,2.7,0,0,0-.15,1.07c0,.05.06.05.26-.08q1.69-1.08,15.65-14.6l-4.64-4.34a.18.18,0,0,1,.1-.31l8.62-1.28,3.49-4.32Zm13.65,4.31-.11.07,0-.06Zm-32.56,16.52c-.82,0-3.26,2.44-13.26,13-3.46,3.66-6.19,5.1-8.12,4.49-1.7-.53-2.64-2.62-2.81-5.7-.33-6.09,2.33-13.86,5.75-15.72q10.33-5.59,12.49-6.8c6.07-3.39,22.24-10.46,24.86-10.46h17.45a.18.18,0,0,1,.14.3L285,154.07s-2.83.45-8.43,1.29l4.5,4.22a.18.18,0,0,1,0,.26Q267,173.54,265.24,174.62c-.38.24-.69.23-.8-.12a2.52,2.52,0,0,1,.14-1.27,43.7,43.7,0,0,1,2.22-5.61l-3.62-.91q-7.55,3.57-10.9,3.58Z"/></clipPath><clipPath id="clip-path-29"><path class="cls-2" d="M197.54,143.66q1.91,12.17,6.43,39.06,27.93-15.1,35-18.92c3.95-2.14,10.94,11.1,6.25,16-14.05,14.74-42.2,42.3-51.18,38.64-12-4.88-23.94-57-23.94-70.32s8.46-31.7,14-33c2-.49,4.09,1.55,6,4.93"/></clipPath><clipPath id="clip-path-30"><path class="cls-2" d="M238.85,163.64c2-1.08,4.79,1.42,6.61,5.44,1.92,4.24,2,8.56-.14,10.86a348.65,348.65,0,0,1-27.51,26.23c-11.42,9.53-19.71,14.15-23.88,12.45-5.49-2.24-11.35-14.33-16.57-32.14-4.28-14.62-7.48-31.32-7.48-38.35,0-12.87,8.26-31.8,14.15-33.22,2-.49,4.13,1.33,6.22,5-.16.3-.27.27-.32.19-2-3.56-4-5.28-5.81-4.84-5.68,1.36-13.87,20.14-13.87,32.86,0,7,3.19,23.66,7.46,38.25,5.18,17.68,11,29.72,16.36,31.9,4,1.62,12.21-3,23.5-12.39a346.13,346.13,0,0,0,27.48-26.2c2.07-2.17,1.94-6.34.08-10.45-1.74-3.85-4.39-6.22-6.11-5.28q-7,3.82-35,18.92a.19.19,0,0,1-.27-.13q-4.51-26.9-6.44-39.06c.26-.23.35-.16.37-.06q1.91,12.1,6.39,38.81l34.74-18.8Z"/></clipPath><clipPath id="clip-path-31"><path class="cls-2" d="M305.22,194.38c.4-1.48-.93-2.88-4-4.2S294,187,288.69,184.73l-2,13.74H302l3.27-4.09Z"/></clipPath><clipPath id="clip-path-32"><path class="cls-2" d="M290.3,131.26a2.24,2.24,0,0,1,1.61-1.16l37.5-5.8a.75.75,0,0,1,.8.45l.79,2L303.27,179.8l-38.51,6-1.61-1.3a.74.74,0,0,1-.19-.91l27.34-52.29Zm0,0a2.24,2.24,0,0,1,1.61-1.16l37.5-5.8a.75.75,0,0,1,.8.45l.79,2L303.27,179.8l-38.51,6-1.61-1.3a.74.74,0,0,1-.19-.91l27.34-52.29Z"/></clipPath><clipPath id="clip-path-33"><path class="cls-2" d="M290.14,131.17a2.39,2.39,0,0,1,1.75-1.25l37.5-5.8a.92.92,0,0,1,1,.57l.79,2s-9.23,17.77-27.74,53.21q0,.06-38.64,6.06s-.62-.44-1.75-1.34a.91.91,0,0,1-.24-1.13l27.34-52.3Zm39.9-6.35a.55.55,0,0,0-.6-.34l-37.5,5.8a2,2,0,0,0-1.47,1.06l-27.35,52.3a.55.55,0,0,0,.15.68l1.54,1.24,38.34-5.93,27.65-52.9-.76-1.91Z"/></clipPath><clipPath id="clip-path-34"><path class="cls-2" d="M291.4,133.08a2.23,2.23,0,0,1,1.61-1.15l37.09-5.77a.71.71,0,0,1,.43.06.75.75,0,0,1,.34,1l-26.5,54.43-39.23,4.14a.69.69,0,0,1-.42-.08.75.75,0,0,1-.31-1l27-51.62Z"/></clipPath><clipPath id="clip-path-35"><path class="cls-2" d="M291.24,133a2.4,2.4,0,0,1,1.74-1.25L330.07,126a.91.91,0,0,1,1,1.3l-26.5,54.43s-13.14,1.45-39.37,4.24a.86.86,0,0,1-.52-.1.91.91,0,0,1-.39-1.23l27-51.62Zm13.11,48.45-.15.1.05-.09Zm26.35-54.33a.54.54,0,0,0-.25-.73.51.51,0,0,0-.32,0L293,132.11a2,2,0,0,0-1.47,1.06l-27,51.62a.55.55,0,0,0,.23.74.56.56,0,0,0,.31.06l39.13-4.13,26.45-54.34Z"/></clipPath><clipPath id="clip-path-36"><path class="cls-2" d="M295,136.77a2,2,0,0,0,1.71-1.28c.25-.71-.11-1.28-.8-1.28a2,2,0,0,0-1.72,1.28.87.87,0,0,0,.81,1.28Z"/></clipPath><clipPath id="clip-path-37"><path class="cls-2" d="M291.27,182.34a64.56,64.56,0,0,0-6.92,9.13c-1.58,2.88-1.87,22.62,9.17,11.31q11-11.31,14.9-20.44l5.39-12.87,4.8-14.5q-2.81-1.64-4.8,2.07a76.89,76.89,0,0,1-5.39,8.34q-.85-25.08-2.51-25.08t-4,22.06q-5.13-19.2-6.7-18.88t.89,20.91q-7.74-14.52-9.11-13.76c-1.37.77,4.24,17.23,4.24,18.84s-9.28-7-10.23-5.77q-.94,1.25,6,10.75a9.65,9.65,0,0,0,1.41,4,14.3,14.3,0,0,0,2.83,3.88Z"/></clipPath><clipPath id="clip-path-38"><path class="cls-2" d="M288.28,178.55a10.12,10.12,0,0,1-1.43-4c-4.7-6.44-6.67-10-6-10.92.5-.65,1.92.18,5.33,2.69l.27.2c2.45,1.8,2.64,1.94,3.36,2.41a5.06,5.06,0,0,0,1.06.56c.17.06.18.06.18,0a19.46,19.46,0,0,0-.69-2.9c-.26-.91-1.37-4.76-1.53-5.34l-.31-1.08c-1.75-6.22-2.36-9.26-1.62-9.68,1.06-.59,3.89,3.62,8.9,13-1.58-13.42-1.83-19.91-.63-20.15s3.31,5.59,6.66,18.06c1.52-14.38,2.78-21.24,4-21.24s2.09,7.94,2.67,24.72a74.23,74.23,0,0,0,5.07-7.89c1.37-2.55,3.08-3.28,5.05-2.14a.18.18,0,0,1,.09.21L314,169.54l-5.39,12.87q-3.88,9.17-14.94,20.49c-5,5.11-8.24,4.44-9.62-.41-1-3.52-.79-9.37.16-11.11a64,64,0,0,1,6.82-9,14.63,14.63,0,0,1-2.73-3.8ZM314,157.12a76.26,76.26,0,0,1-5.4,8.37.18.18,0,0,1-.33-.1q-.44-12.54-1.06-18.8a41,41,0,0,0-.67-4.68c-.22-.95-.46-1.43-.6-1.43-.93,0-2.28,7.54-3.78,21.9a.18.18,0,0,1-.36,0c-3.33-12.48-5.62-18.93-6.49-18.75s-.56,7.32,1,20.71a.19.19,0,0,1-.35.11c-5-9.42-8.11-14.1-8.85-13.69-.47.26.21,3.61,1.79,9.26l.31,1.08c.16.58,1.27,4.43,1.53,5.34a17.57,17.57,0,0,1,.7,3c0,.36-.28.45-.65.33a5.48,5.48,0,0,1-1.14-.61c-.74-.47-.93-.6-3.39-2.42l-.26-.19c-3-2.18-4.56-3.12-4.82-2.77-.55.72,1.46,4.33,6,10.53a9.9,9.9,0,0,0,1.42,4,14,14,0,0,0,2.79,3.83.2.2,0,0,1,0,.26,63.41,63.41,0,0,0-6.9,9.1c-.9,1.64-1.11,7.4-.13,10.83,1.31,4.57,4.22,5.16,9,.26q11-11.29,14.87-20.38l5.38-12.86,4.76-14.36c-1.71-.92-3.16-.25-4.42,2.07Z"/></clipPath><clipPath id="clip-path-39"><path class="cls-2" d="M288.41,184.7c-5,4.19-10.8,9-10.8,10.85,0,4.36,6.21,16.44,8,17.39,3.28-.72,11-4.34,19.67-18.51.74-1.22-3.36,4.07-10.17,2.7-7.91-1.58-6.19-12.83-6.67-12.43Z"/></clipPath><clipPath id="clip-path-40"><path class="cls-2" d="M288.63,184.64a.81.81,0,0,1,.05.21c0,.14,0,.31,0,.69a20.36,20.36,0,0,0,.62,5.42c.88,3.24,2.7,5.37,5.79,6a11,11,0,0,0,7.84-1.3,14,14,0,0,0,1.87-1.27,2.35,2.35,0,0,1,.4-.29.2.2,0,0,1,.28.25,1.6,1.6,0,0,1-.11.19c-3.93,6.45-7.93,11.16-11.88,14.34a20.2,20.2,0,0,1-7.9,4.25.2.2,0,0,1-.13,0c-2.09-1.13-8.06-13.54-8.06-17.55,0-1.42,2.56-4,8.29-8.83l.71-.6.94-.79.46-.38.46-.39a.22.22,0,0,1,.34.08Zm-.33.16h0Zm-.23.43-.47.38-.93.79-.71.6c-5.56,4.7-8.16,7.31-8.16,8.55,0,3.85,5.79,15.94,7.81,17.2a20.14,20.14,0,0,0,7.68-4.16,54.25,54.25,0,0,0,11.45-13.68,13.4,13.4,0,0,1-1.6,1.05,11.39,11.39,0,0,1-8.1,1.35c-3.24-.65-5.15-2.89-6.06-6.26a20.56,20.56,0,0,1-.64-5.5c0-.26,0-.42,0-.54l-.25.22Zm17.31,9.19Zm-.23-.19h0Z"/></clipPath><clipPath id="clip-path-41"><path class="cls-2" d="M246.32,106.73c-4.15,0-12.21-5.76-19.59-13.78-8-8.66-13.19-17.75-13.19-24.09A24.9,24.9,0,0,1,238.44,44c14.87,0,27.43,9.43,27.43,22.34,0,6.67-2.63,16.68-6.54,25.31-4.18,9.23-9,15.11-13,15.11Z"/></clipPath><clipPath id="clip-path-42"><path class="cls-2" d="M246.32,106.36c3.82,0,8.55-5.79,12.68-14.89,3.89-8.59,6.5-18.55,6.5-25.16,0-12.68-12.38-22-27.06-22a24.52,24.52,0,0,0-24.53,24.52c0,6.22,5.18,15.24,13.09,23.84,7.31,8,15.31,13.66,19.32,13.66Z"/></clipPath><clipPath id="clip-path-43"><path class="cls-2" d="M253.08,75.64a.18.18,0,0,1-.19.18.18.18,0,0,1-.18-.18.92.92,0,1,0-1.83,0,.18.18,0,0,1-.36,0,1.28,1.28,0,1,1,2.56,0Z"/></clipPath><clipPath id="clip-path-44"><path class="cls-2" d="M245.81,93a.18.18,0,0,1,.26-.26c2.48,2.38,4.66,3,6.55,1.8a.19.19,0,0,1,.25.06.17.17,0,0,1-.06.25c-2.06,1.27-4.4.64-7-1.85Z"/></clipPath><clipPath id="clip-path-45"><path class="cls-2" d="M251.84,77.77l4.3,11.5a.17.17,0,0,1-.14.24l-5.27.88a.18.18,0,0,1-.21-.15.18.18,0,0,1,.15-.21l5.05-.84L251.5,77.9h0"/></clipPath><clipPath id="clip-path-46"><path class="cls-2" d="M243.19,78.2a1.65,1.65,0,1,0-1.64-1.65,1.65,1.65,0,0,0,1.64,1.65Z"/></clipPath><clipPath id="clip-path-47"><path class="cls-2" d="M259.67,79.3A1.65,1.65,0,1,0,258,77.65a1.64,1.64,0,0,0,1.65,1.65Z"/></clipPath><clipPath id="clip-path-48"><path class="cls-2" d="M227.22,74.79l1.57-5.71c1,.41,2.48-.59,4.31-3s3-5.82,3.47-10.27q16.65,5.66,23,3.57t6.28,8q12.63-22.54,7.73-29.77c-4.91-7.22-14.95-3.1-24.59-4.5C237.81,31.56,217.82,31,211.6,43Q200,65.44,209.35,73.27q-11.13-7.47-13,1.52T200.7,97Q188.67,99.9,193,113t11.34,20.2q-5.85,3.84,0,10.17c5.85,6.32-3.65,9.63-1.59,16.62s19.63-1.61,20.33-9.11a14.15,14.15,0,0,0-4.9-12.52q10-5.79,9-11.38t-9-14.87q9-1.81,9-8.49t-9-17.37a4.45,4.45,0,0,0,2.34,2,2.73,2.73,0,0,0,2.56,0Q218,67.44,220.53,67.44t6.69,7.35Z"/></clipPath><clipPath id="clip-path-49"><path class="cls-2" d="M223.61,71.19l-.8,11.32c-2,.46-3.88-.39-5.56-2.55-2.52-3.24-1.06-10.36,1.12-11.13,1.46-.51,3.2.28,5.24,2.36Z"/></clipPath><clipPath id="clip-path-50"><path class="cls-2" d="M223.47,71.32c-2-2-3.68-2.8-5.06-2.31-1,.34-1.87,2.19-2.2,4.49-.35,2.49,0,4.9,1.17,6.35,1.64,2.11,3.42,2.93,5.37,2.48a.18.18,0,1,1,.08.36c-2.1.48-4-.4-5.74-2.62-2.4-3.08-1.35-10.51,1.2-11.41,1.54-.54,3.35.27,5.44,2.4a.18.18,0,0,1,0,.26.18.18,0,0,1-.25,0Z"/></clipPath><clipPath id="clip-path-51"><path class="cls-2" d="M221.91,76.08c-1.14-1.89-2-2.58-2.48-2.2a.18.18,0,1,1-.22-.29c.77-.58,1.76.23,3,2.3a.19.19,0,0,1-.06.25.19.19,0,0,1-.25-.06Z"/></clipPath><clipPath id="clip-path-52"><path class="cls-2" d="M220.2,72.59c-1.28,1.06-1.44,3-.42,5.8a.19.19,0,0,1-.11.23.18.18,0,0,1-.24-.11c-1.06-3-.89-5,.54-6.2a.18.18,0,0,1,.26,0,.19.19,0,0,1,0,.26Z"/></clipPath><clipPath id="clip-path-53"><path class="cls-2" d="M231.63,73.43a.18.18,0,1,1-.13.34l-8.69-3.45a.19.19,0,0,1-.1-.24A.18.18,0,0,1,223,70l8.68,3.45Z"/></clipPath><clipPath id="clip-path-54"><path class="cls-2" d="M250.52,113.71c1.94.69,6.26,5.9,11.81,19.45-1.73-9.35-9-18.74-9.63-19.45s-7.53-7.23-7.53-7.23.77,5,1.87,5.94,1.54.6,3.48,1.29Z"/></clipPath><clipPath id="clip-path-55"><path class="cls-2" d="M227.26,114.42a.19.19,0,0,1-.06-.25.2.2,0,0,1,.26-.06l.2.12.59.32a21.64,21.64,0,0,0,2.14,1,16.92,16.92,0,0,0,8.47,1.29,10.24,10.24,0,0,0,4-1.44.18.18,0,0,1,.26.06.19.19,0,0,1-.06.25,10.68,10.68,0,0,1-4.2,1.49,17.31,17.31,0,0,1-8.66-1.31,22.23,22.23,0,0,1-2.17-1c-.23-.11-.43-.22-.6-.32l-.22-.13Z"/></clipPath><clipPath id="clip-path-56"><path class="cls-2" d="M244.81,114.77a.18.18,0,0,1-.25-.07.19.19,0,0,1,.07-.25c1.72-.92,2.57-1.75,2.57-2.44a.18.18,0,1,1,.36,0c0,.88-.92,1.78-2.75,2.76Z"/></clipPath><clipPath id="clip-path-57"><path class="cls-2" d="M225.36,100.31a.18.18,0,0,1-.06-.25.19.19,0,0,1,.26,0l.24.15.69.41c.72.43,1.5.86,2.29,1.25s1.54.74,2.26,1c1.84.71,3.3,1,4.2.66a.18.18,0,1,1,.12.34c-1,.36-2.54.09-4.45-.66-.73-.29-1.5-.63-2.29-1s-1.58-.83-2.32-1.26l-.69-.42-.25-.16Z"/></clipPath><clipPath id="clip-path-58"><path class="cls-2" d="M189,117.82a.18.18,0,1,1-.08-.36l12.29-2.78a.19.19,0,0,1,.22.14.18.18,0,0,1-.14.22L189,117.82Z"/></clipPath><clipPath id="clip-path-59"><path class="cls-2" d="M269.57,163.57a.17.17,0,0,1,.08-.24.19.19,0,0,1,.25.08l1.7,3.39a.19.19,0,0,1-.09.25.17.17,0,0,1-.24-.08l-1.7-3.4Z"/></clipPath><clipPath id="clip-path-60"><path class="cls-2" d="M271.78,160.67a.19.19,0,0,1,0-.26.18.18,0,0,1,.26.05l1.57,2.23a.19.19,0,0,1,0,.25.18.18,0,0,1-.25,0l-1.57-2.23Z"/></clipPath><clipPath id="clip-path-61"><path class="cls-2" d="M274,158.1a.18.18,0,0,1,.06-.25.17.17,0,0,1,.25.05l1.27,2a.18.18,0,0,1-.05.25.18.18,0,0,1-.25-.05l-1.28-2Z"/></clipPath><clipPath id="clip-path-62"><path class="cls-2" d="M149.54,257.37q40.53-18.31,40.58-80.55l-1.07-.44c-1-.39-2-.82-3.23-1.29-3.41-1.33-7-2.66-10.73-3.91-10.54-3.55-19.48-5.68-25.55-5.68-4.14,0-9.66,1-16.23,2.81-3,.82-6.1,1.79-9.32,2.87-3.69,1.25-7.32,2.58-10.74,3.91L110,176.38l-.88.36q-.24,62.37,40.39,80.63ZM109,176.4l.88-.36c1-.39,2-.82,3.23-1.29,3.42-1.33,7-2.67,10.75-3.91,3.23-1.09,6.36-2.06,9.34-2.88,6.6-1.82,12.15-2.82,16.33-2.82,6.12,0,15.09,2.13,25.66,5.7,3.7,1.24,7.34,2.58,10.76,3.91,1.19.47,2.28.9,3.23,1.29l.87.36.29.12q.19,62.88-40.74,81.21-41.09-18.39-41-81a1,1,0,0,1,.42-.3Z"/></clipPath><clipPath id="clip-path-63"><path class="cls-2" d="M117.2,184q.15,49.36,32.46,63.9a52.26,52.26,0,0,0,9-5.17A51.4,51.4,0,0,1,148.19,249q-32.46-14.61-32.46-64.4l1.47-.6Z"/></clipPath><clipPath id="clip-path-64"><path class="cls-2" d="M342.21,277.7a1.47,1.47,0,1,1,1.47,1.46,1.47,1.47,0,0,1-1.47-1.46Zm0-10.25a1.47,1.47,0,1,1,1.47,1.46,1.46,1.46,0,0,1-1.47-1.46Zm0-10.25a1.47,1.47,0,1,1,1.47,1.46,1.46,1.46,0,0,1-1.47-1.46Zm0-10.25a1.47,1.47,0,1,1,1.47,1.46,1.46,1.46,0,0,1-1.47-1.46Zm0-10.25a1.47,1.47,0,1,1,1.47,1.47,1.46,1.46,0,0,1-1.47-1.47Zm0-10.25a1.47,1.47,0,1,1,1.47,1.47,1.46,1.46,0,0,1-1.47-1.47ZM332,277.7a1.47,1.47,0,1,1,2.93,0,1.47,1.47,0,0,1-2.93,0Zm-10.25,0a1.47,1.47,0,1,1,2.93,0,1.47,1.47,0,0,1-2.93,0ZM332,267.45a1.47,1.47,0,1,1,1.47,1.46,1.46,1.46,0,0,1-1.47-1.46Zm-10.25,0a1.47,1.47,0,1,1,1.47,1.46,1.46,1.46,0,0,1-1.47-1.46ZM332,257.2a1.47,1.47,0,1,1,1.47,1.46A1.46,1.46,0,0,1,332,257.2Zm-10.25,0a1.47,1.47,0,1,1,1.47,1.46,1.46,1.46,0,0,1-1.47-1.46ZM332,247a1.47,1.47,0,1,1,1.47,1.46A1.46,1.46,0,0,1,332,247Zm-10.25,0a1.47,1.47,0,1,1,1.47,1.46,1.46,1.46,0,0,1-1.47-1.46ZM332,236.7a1.47,1.47,0,1,1,1.47,1.47A1.46,1.46,0,0,1,332,236.7Zm-10.25,0a1.47,1.47,0,1,1,1.47,1.47,1.46,1.46,0,0,1-1.47-1.47ZM332,226.45a1.47,1.47,0,1,1,1.47,1.47,1.46,1.46,0,0,1-1.47-1.47Zm-10.25,0a1.47,1.47,0,1,1,1.47,1.47,1.46,1.46,0,0,1-1.47-1.47ZM311.46,277.7a1.47,1.47,0,1,1,2.93,0,1.47,1.47,0,0,1-2.93,0Zm-10.25,0a1.47,1.47,0,1,1,2.93,0,1.47,1.47,0,0,1-2.93,0Zm10.25-10.25a1.47,1.47,0,1,1,1.47,1.46,1.46,1.46,0,0,1-1.47-1.46Zm-10.25,0a1.47,1.47,0,1,1,1.47,1.46,1.46,1.46,0,0,1-1.47-1.46Zm10.25-10.25a1.47,1.47,0,1,1,1.47,1.46,1.46,1.46,0,0,1-1.47-1.46Zm-10.25,0a1.47,1.47,0,1,1,1.47,1.46,1.46,1.46,0,0,1-1.47-1.46ZM311.46,247a1.47,1.47,0,1,1,1.47,1.46,1.46,1.46,0,0,1-1.47-1.46Zm-10.25,0a1.47,1.47,0,1,1,1.47,1.46,1.46,1.46,0,0,1-1.47-1.46Zm10.25-10.25a1.47,1.47,0,1,1,1.47,1.47,1.46,1.46,0,0,1-1.47-1.47Zm-10.25,0a1.47,1.47,0,1,1,1.47,1.47,1.46,1.46,0,0,1-1.47-1.47Zm10.25-10.25a1.47,1.47,0,1,1,1.47,1.47,1.46,1.46,0,0,1-1.47-1.47Zm-10.25,0a1.47,1.47,0,1,1,1.47,1.47,1.46,1.46,0,0,1-1.47-1.47ZM291,277.7a1.47,1.47,0,1,1,2.93,0,1.47,1.47,0,0,1-2.93,0Zm-10.25,0a1.47,1.47,0,1,1,2.93,0,1.47,1.47,0,0,1-2.93,0ZM291,267.45a1.47,1.47,0,1,1,1.47,1.46,1.46,1.46,0,0,1-1.47-1.46Zm-10.25,0a1.47,1.47,0,1,1,1.47,1.46,1.46,1.46,0,0,1-1.47-1.46ZM291,257.2a1.47,1.47,0,1,1,1.47,1.46A1.46,1.46,0,0,1,291,257.2Zm-10.25,0a1.47,1.47,0,1,1,1.47,1.46,1.46,1.46,0,0,1-1.47-1.46ZM291,247a1.47,1.47,0,1,1,1.47,1.46A1.46,1.46,0,0,1,291,247Zm-10.25,0a1.47,1.47,0,1,1,1.47,1.46,1.46,1.46,0,0,1-1.47-1.46ZM291,236.7a1.47,1.47,0,1,1,1.47,1.47A1.46,1.46,0,0,1,291,236.7Zm-10.25,0a1.47,1.47,0,1,1,1.47,1.47,1.46,1.46,0,0,1-1.47-1.47ZM291,226.45a1.47,1.47,0,1,1,1.47,1.47,1.46,1.46,0,0,1-1.47-1.47Zm-10.25,0a1.47,1.47,0,1,1,1.47,1.47,1.46,1.46,0,0,1-1.47-1.47Z"/></clipPath><clipPath id="clip-path-65"><polygon class="cls-2" points="314.39 215.83 307.92 212.91 265.86 215.83 259.85 261.34 265.86 264.52 314.39 264.52 314.39 215.83 314.39 215.83"/></clipPath><clipPath id="clip-path-66"><rect class="cls-2" x="259.85" y="212.54" width="48.32" height="48.32"/></clipPath><clipPath id="clip-path-67"><path class="cls-2" d="M308,212.72v48H260v-48Zm.18-.36H259.85a.18.18,0,0,0-.18.18v48.32a.18.18,0,0,0,.18.18h48.32a.18.18,0,0,0,.18-.18V212.54a.18.18,0,0,0-.18-.18Z"/></clipPath></defs><path class="cls-3" d="M55.49,189.11q-.27,3.63-.27,7.32a100,100,0,0,0,97.38,99.91V243.21a46.72,46.72,0,0,1-43.33-54.1Z"/><g class="cls-4"><rect class="cls-3" x="53.39" y="187.28" width="101.03" height="110.88"/></g><g class="cls-5"><rect class="cls-6" x="52.85" y="186.73" width="95.96" height="110.71"/></g><g class="cls-7"><rect x="290.96" y="110.05" width="94.44" height="94.44"/></g><g class="cls-8"><rect class="cls-9" x="245.94" y="82.23" width="112.01" height="112.01"/></g><g class="cls-10"><rect class="cls-6" x="246.09" y="81.76" width="111.25" height="113.03"/></g><g class="cls-11"><rect x="43.69" y="15.69" width="51.08" height="144.05"/></g><g class="cls-12"><rect x="59.8" y="162.57" width="12.08" height="12.08"/></g><g class="cls-13"><rect x="97.87" y="32.63" width="12.08" height="12.08"/></g><g class="cls-14"><rect x="288.58" y="39.92" width="68.24" height="35.76"/></g><rect x="122.4" y="123.77" width="12.08" height="12.45"/><g class="cls-15"><rect x="165.22" y="123.77" width="12.08" height="12.45"/></g><g class="cls-16"><rect class="cls-6" x="266.97" y="109.8" width="25.08" height="103.99"/></g><g class="cls-17"><rect x="266.79" y="109.62" width="25.44" height="104.35"/></g><g class="cls-18"><rect x="272.54" y="140.29" width="18.87" height="73.51"/></g><g class="cls-19"><rect class="cls-6" x="177.83" y="84.42" width="115.43" height="170.44"/></g><g class="cls-20"><rect x="177.65" y="84.24" width="115.77" height="170.81"/></g><g class="cls-21"><rect x="266.42" y="108.28" width="26.84" height="134.62"/><rect x="266.42" y="108.28" width="26.84" height="134.62"/></g><g class="cls-22"><rect class="cls-6" x="219.55" y="46.72" width="40.65" height="63.87"/></g><g class="cls-23"><rect class="cls-6" x="177.83" y="105.6" width="67.56" height="153.21"/></g><g class="cls-24"><rect x="177.65" y="105.42" width="67.93" height="153.58"/></g><g class="cls-25"><rect x="186.18" y="141.61" width="53.39" height="87.34"/></g><g class="cls-26"><rect x="200.06" y="105.42" width="45.52" height="89.28"/></g><g class="cls-27"><rect class="cls-6" x="243.38" y="104.66" width="60.2" height="137.55"/></g><g class="cls-28"><rect x="243.19" y="104.47" width="60.53" height="137.92"/></g><g class="cls-29"><rect class="cls-6" x="243.38" y="103.42" width="33.6" height="85.25"/></g><g class="cls-30"><rect x="243.19" y="103.24" width="33.97" height="85.61"/></g><g class="cls-31"><rect class="cls-6" x="226.42" y="147.44" width="64.05" height="42.11"/></g><g class="cls-32"><rect x="226.23" y="147.26" width="64.42" height="42.48"/></g><g class="cls-33"><rect class="cls-6" x="168.23" y="113.19" width="80.34" height="107.42"/></g><g class="cls-34"><rect x="168.05" y="113" width="80.71" height="107.79"/></g><g class="cls-35"><rect x="284.83" y="182.9" width="22.29" height="17.4"/></g><g class="cls-36"><rect class="cls-6" x="261.05" y="122.46" width="71.78" height="65.12"/></g><g class="cls-37"><rect x="260.87" y="122.28" width="72.13" height="65.49"/></g><g class="cls-38"><rect class="cls-6" x="262.5" y="124.32" width="70.27" height="63.29"/></g><g class="cls-39"><rect x="262.32" y="124.13" width="70.64" height="63.65"/></g><g class="cls-40"><rect x="292.26" y="132.38" width="6.34" height="6.22"/></g><g class="cls-41"><rect class="cls-6" x="279.1" y="138.47" width="41.35" height="69.6"/></g><g class="cls-42"><rect x="278.92" y="138.29" width="41.7" height="69.98"/></g><g class="cls-43"><rect class="cls-6" x="275.78" y="182.86" width="31.38" height="31.91"/></g><g class="cls-44"><rect x="275.6" y="182.67" width="31.75" height="32.28"/></g><g class="cls-45"><rect x="211.71" y="42.14" width="55.98" height="66.42"/></g><g class="cls-46"><rect class="cls-6" x="212.08" y="42.51" width="55.25" height="65.69"/></g><g class="cls-47"><rect x="248.68" y="72.53" width="6.22" height="5.12"/></g><g class="cls-48"><rect x="243.93" y="90.83" width="10.8" height="6.46"/></g><g class="cls-49"><rect x="248.68" y="75.82" width="9.3" height="16.4"/></g><g class="cls-50"><rect x="239.72" y="73.07" width="6.96" height="6.96"/></g><g class="cls-51"><rect x="256.19" y="74.17" width="6.96" height="6.96"/></g><g class="cls-52"><rect x="190.03" y="30.49" width="86.73" height="133.94"/></g><g class="cls-53"><rect class="cls-6" x="214.09" y="66.85" width="11.35" height="17.61"/></g><g class="cls-54"><rect x="213.91" y="66.67" width="11.7" height="17.98"/></g><g class="cls-55"><rect x="217.3" y="71.58" width="6.77" height="6.42"/></g><g class="cls-56"><rect x="216.92" y="70.44" width="5.18" height="10.03"/></g><g class="cls-57"><rect x="220.86" y="68.13" width="12.71" height="7.48"/></g><g class="cls-58"><rect x="243.34" y="104.65" width="20.81" height="30.35"/></g><g class="cls-59"><rect x="225.35" y="112.25" width="19.68" height="6.86"/></g><g class="cls-60"><rect x="242.71" y="109.99" width="6.69" height="6.63"/></g><g class="cls-61"><rect x="223.44" y="98.15" width="13.87" height="7.68"/></g><g class="cls-62"><rect x="186.98" y="112.85" width="16.31" height="6.8"/></g><g class="cls-63"><rect x="267.72" y="161.48" width="5.73" height="7.42"/></g><g class="cls-64"><rect x="269.92" y="158.55" width="5.59" height="6.26"/></g><g class="cls-65"><rect x="272.11" y="155.99" width="5.3" height="5.99"/></g><g class="cls-66"><rect x="106.76" y="163.31" width="85.42" height="96.26"/></g><g class="cls-67"><rect x="113.9" y="182.2" width="46.59" height="68.66"/></g><g class="cls-68"><rect x="278.88" y="223.16" width="68.09" height="57.84"/></g><g class="cls-69"><rect class="cls-3" x="258.02" y="211.08" width="58.2" height="55.27"/></g><g class="cls-70"><rect class="cls-6" x="258.02" y="210.71" width="51.98" height="51.98"/></g><g class="cls-71"><rect x="257.84" y="210.53" width="52.35" height="52.35"/></g><path class="cls-72" d="M154,39.26c0-8.15-6.3-14.76-14.07-14.76s-14.07,6.61-14.07,14.76h8.32a5.76,5.76,0,1,1,11.5,0,6.08,6.08,0,0,1-2.92,5.24h0A14.68,14.68,0,0,0,136.66,52h0a15.88,15.88,0,0,0-.81,3.38h0V58h8.5V55.36h0A6,6,0,0,1,147,52h0A14.88,14.88,0,0,0,154,39.26Z"/><rect class="cls-72" x="135.86" y="61.36" width="8.5" height="7.37"/><path class="cls-73" d="M170.27,59a9,9,0,1,0-18.07,0h5.34a3.7,3.7,0,1,1,7.39,0,3.92,3.92,0,0,1-1.88,3.37h0a9.4,9.4,0,0,0-3.89,4.8h0a9.82,9.82,0,0,0-.52,2.17h0v1.68h5.45V69.38h0a3.9,3.9,0,0,1,1.72-2.17h0A9.55,9.55,0,0,0,170.27,59Z"/><rect class="cls-73" x="158.64" y="73.24" width="5.46" height="4.73"/></svg>