<svg xmlns="http://www.w3.org/2000/svg" width="31.999" height="42.023" viewBox="0 0 31.999 42.023"><defs><style>.a{fill:none;stroke:#ff1743;stroke-linejoin:round;stroke-width:2px;}</style></defs><g transform="translate(-240.018 -234.985)"><path class="a" d="M270.951,259.82l-.028-.391c-.458-5.965-3.236-9.7-5.686-13-2.269-3.054-4.228-5.691-4.228-9.583a.834.834,0,0,0-1.318-.678,21.194,21.194,0,0,0-7.823,11.307,36.9,36.9,0,0,0-.857,8.452c-3.4-.726-4.168-5.81-4.176-5.865a.839.839,0,0,0-.434-.618.828.828,0,0,0-.755-.014c-.179.086-4.374,2.218-4.619,10.732-.017.283-.017.566-.017.85a15,15,0,1,0,30,0C271.008,260.594,270.98,260.207,270.951,259.82Zm-14.942,15.628a5.254,5.254,0,0,1-5.075-5.406c0-.1,0-.2.007-.33a6.84,6.84,0,0,1,.534-2.686,3.091,3.091,0,0,0,2.793,2.023.846.846,0,0,0,.846-.846,16.907,16.907,0,0,1,.324-3.847,8.173,8.173,0,0,1,1.713-3.243,10.9,10.9,0,0,0,1.743,3.2,9.639,9.639,0,0,1,2.169,5.281c.01.146.021.292.021.449A5.254,5.254,0,0,1,256.009,275.448Z"/></g></svg>