<svg xmlns="http://www.w3.org/2000/svg" width="40" height="40" viewBox="0 0 40 40"><defs><style>.a{fill:#d2a500;}</style></defs><g transform="translate(-345.091 -240.901)"><path class="a" d="M372.178,253.022a.781.781,0,1,0,.781.781A.781.781,0,0,0,372.178,253.022Z"/><path class="a" d="M357.983,267.217a.781.781,0,1,0,.781.781A.781.781,0,0,0,357.983,267.217Z"/><path class="a" d="M384.109,245.707a.781.781,0,0,0-.731.211l-3.239,3.264h-1.553l-1.709-1.771v-1.574l3.192-3.24a.781.781,0,0,0-.307-1.289,7.817,7.817,0,0,0-8.837,2.848,7.721,7.721,0,0,0-1.2,6.582l-5.755,5.754-9.587-9.609V245a.781.781,0,0,0-.38-.67l-5.524-3.315a.781.781,0,0,0-.954.118l-2.21,2.209a.783.783,0,0,0-.117.955l3.314,5.524a.781.781,0,0,0,.67.379h1.885l9.588,9.609-5.732,5.733a7.818,7.818,0,0,0-9.43,10.042.781.781,0,0,0,1.295.3l3.239-3.264h1.561l1.779,1.779v1.561L350.1,279.2a.781.781,0,0,0,.3,1.3,7.819,7.819,0,0,0,10.042-9.43l4.6-4.6,1.054,1.146-.484.484a.781.781,0,0,0,1.105,1.105l.439-.439,9.895,10.749.023.023a4.687,4.687,0,1,0,6.629-6.629l-.024-.023L372.917,263l.434-.433a.781.781,0,0,0-1.105-1.105l-.481.481-1.148-1.054,4.627-4.626a7.816,7.816,0,0,0,9.428-10.042A.779.779,0,0,0,384.109,245.707Zm-32.17,3.158a.771.771,0,0,0-.552-.222H349.62l-2.773-4.629,1.346-1.347,4.622,2.774v1.767a.781.781,0,0,0,.228.551l9.817,9.839-1.1,1.105ZM371.811,264.1l10.8,9.91a3.125,3.125,0,0,1-4.421,4.419l-9.928-10.784Zm-1.152-1.058-3.453,3.453-1.055-1.146,3.36-3.36Zm6.609-8.083a6.241,6.241,0,0,1-2-.325.781.781,0,0,0-.8.188c-3.916,3.916-12.356,12.355-15.463,15.463a.781.781,0,0,0-.188.8,6.257,6.257,0,0,1-5.925,8.247,6.426,6.426,0,0,1-.681-.037l2.481-2.462a.781.781,0,0,0,.231-.555v-2.21a.781.781,0,0,0-.228-.552l-2.237-2.237a.784.784,0,0,0-.552-.229H349.7a.783.783,0,0,0-.554.231l-2.462,2.482a6.256,6.256,0,0,1,8.21-6.606.781.781,0,0,0,.8-.188c.043-.042,15.452-15.452,15.463-15.463a.781.781,0,0,0,.188-.8,6.255,6.255,0,0,1,5.924-8.246,6.549,6.549,0,0,1,.7.038l-2.43,2.466a.783.783,0,0,0-.225.548v2.211a.778.778,0,0,0,.22.542l2.158,2.237a.782.782,0,0,0,.562.238h2.21a.783.783,0,0,0,.555-.231l2.462-2.481a6.444,6.444,0,0,1,.036.682A6.256,6.256,0,0,1,377.268,254.963Z"/><path class="a" d="M369.416,255.46l-9.776,9.776a.781.781,0,0,0,1.1,1.105l9.776-9.776a.781.781,0,0,0-1.105-1.1Z"/><path class="a" d="M379.288,276.214a.782.782,0,1,0,1.1-1.107l-7.042-7.019a.781.781,0,1,0-1.1,1.106Z"/></g></svg>