<svg xmlns="http://www.w3.org/2000/svg" width="42.976" height="42.024" viewBox="0 0 42.976 42.024"><defs><style>.a,.b{fill:none;stroke:#4e99c4;stroke-width:2.024px;}.a{stroke-miterlimit:10;}.b{stroke-linecap:round;stroke-linejoin:round;}</style></defs><g transform="translate(-296.861 -238.121)"><path class="a" d="M318.376,239.133a20,20,0,1,0-.166,40c11.553.027,20.6-8.761,20.614-20.027C338.841,248,329.782,239.15,318.376,239.133Z"/><path class="a" d="M333.3,259.184c-.011,7.934-6.85,14.564-15.011,14.55a14.926,14.926,0,0,1-14.886-14.77c.022-7.773,6.911-14.45,14.889-14.431A14.925,14.925,0,0,1,333.3,259.184Z"/><path class="b" d="M316.317,255.828l-3.457-2.884c-.08-.067-.164-.13-.242-.2a.611.611,0,0,1,.04-1.043,9.48,9.48,0,0,1,4.424-1.747,10.634,10.634,0,0,1,1.854-.07,1.94,1.94,0,0,1,1.913,2.011c0,1.442,0,2.885.055,4.348.046-.092.1-.182.137-.277q.811-1.906,1.62-3.815c.369-.871.667-.948,1.425-.365a9.252,9.252,0,0,1,3.441,5.1,1.918,1.918,0,0,1-1.335,2.349q-1.97.63-3.944,1.257a.5.5,0,0,0-.256.173c.729.059,1.458.12,2.188.175.815.062,1.631.113,2.446.18.741.061.95.374.7,1.067a9.466,9.466,0,0,1-4.068,4.972,2.006,2.006,0,0,1-2.576-.546c-.806-1.068-1.6-2.147-2.4-3.22a.657.657,0,0,0-.313-.25q.267,1.1.534,2.2c.187.764.379,1.526.564,2.29.134.556-.12.882-.708.879a9.65,9.65,0,0,1-6.243-2.262,1.9,1.9,0,0,1-.251-2.534c.776-1.058,1.564-2.107,2.347-3.16a.908.908,0,0,0,.2-.409c-.118.062-.238.119-.352.187q-1.754,1.048-3.507,2.1c-.738.442-1.045.328-1.3-.471a8.941,8.941,0,0,1,.192-6.024,2.007,2.007,0,0,1,2.653-1.268c1.39.435,2.778.879,4.167,1.319Zm2,6.779a3.473,3.473,0,1,0-3.546-3.5A3.32,3.32,0,0,0,318.313,262.607Z"/></g></svg>