<svg xmlns="http://www.w3.org/2000/svg" width="330.5" height="270.49" viewBox="0 0 330.5 270.49">
  <g id="Group_76" data-name="Group 76" transform="translate(0 -17.49)">
    <g id="Group_71" data-name="Group 71">
      <g id="Group_112" data-name="Group 112">
        <line id="Line_55" data-name="Line 55" x2="327.631" transform="translate(2.368 227.746)" fill="none" stroke="#fff" stroke-width="1"/>
      </g>
    </g>
    <line id="Line_56" data-name="Line 56" x2="320.767" transform="translate(3.302 68.76)" fill="none" stroke="#fff" stroke-width="1"/>
    <g id="Group_73" data-name="Group 73">
      <g id="Group_114" data-name="Group 114">
        <line id="Line_57" data-name="Line 57" x2="147.5" transform="translate(0 143.253)" fill="none" stroke="#fff" stroke-width="1"/>
      </g>
    </g>
    <line id="Line_58" data-name="Line 58" y2="190.883" transform="translate(278.869 55.49)" fill="none" stroke="#fff" stroke-width="1"/>
    <line id="Line_59" data-name="Line 59" y2="202.22" transform="translate(60.435 46.49)" fill="none" stroke="#fff" stroke-width="1"/>
    <g id="Group_75" data-name="Group 75">
      <g id="Group_113" data-name="Group 113">
        <line id="Line_60" data-name="Line 60" y2="76.49" transform="translate(206.058 211.49)" fill="none" stroke="#fff" stroke-width="1"/>
        <line id="Line_61" data-name="Line 61" y2="197.123" transform="translate(133.246 17.49)" fill="none" stroke="#fff" stroke-width="1"/>
        <line id="Line_62" data-name="Line 62" x2="63" transform="translate(267.5 143.403)" fill="none" stroke="#fff" stroke-width="1"/>
        <path id="Path_144" data-name="Path 144" d="M42,71.99a3.5,3.5,0,1,1-3.5,3.5,3.5,3.5,0,0,1,3.5-3.5" transform="translate(-2 11)" fill="#adadad"/>
        <path id="Path_145" data-name="Path 145" d="M225,206.99a6.5,6.5,0,1,1-6.5,6.5,6.5,6.5,0,0,1,6.5-6.5" transform="translate(3.953 37)" fill="#b1b1b1"/>
        <path id="Path_148" data-name="Path 148" d="M246.073,157.766a.868.868,0,0,1-.2-.35,2.429,2.429,0,0,1,.2.35" fill="#fff"/>
        <path id="Path_149" data-name="Path 149" d="M245.873,157.416a.868.868,0,0,0,.2.35,2.429,2.429,0,0,0-.2-.35" fill="#fff"/>
        <path id="Path_150" data-name="Path 150" d="M245.873,157.416a.868.868,0,0,0,.2.35,2.429,2.429,0,0,0-.2-.35m0,0a.868.868,0,0,0,.2.35,2.429,2.429,0,0,0-.2-.35m0,0a.868.868,0,0,0,.2.35,2.429,2.429,0,0,0-.2-.35m0,0a.868.868,0,0,0,.2.35,2.429,2.429,0,0,0-.2-.35m0,0a.868.868,0,0,0,.2.35,2.429,2.429,0,0,0-.2-.35m0,0a.868.868,0,0,0,.2.35,2.429,2.429,0,0,0-.2-.35m0,0a.868.868,0,0,0,.2.35,2.429,2.429,0,0,0-.2-.35m0,0a.868.868,0,0,0,.2.35,2.429,2.429,0,0,0-.2-.35m0,0a.868.868,0,0,0,.2.35,2.429,2.429,0,0,0-.2-.35m0,0a.868.868,0,0,0,.2.35,2.429,2.429,0,0,0-.2-.35m0,0a.868.868,0,0,0,.2.35,2.429,2.429,0,0,0-.2-.35m0,0a.868.868,0,0,0,.2.35,2.429,2.429,0,0,0-.2-.35m0,0a.868.868,0,0,0,.2.35,2.429,2.429,0,0,0-.2-.35m0,0a.868.868,0,0,0,.2.35,2.429,2.429,0,0,0-.2-.35m0,0a.868.868,0,0,0,.2.35,2.429,2.429,0,0,0-.2-.35m0,0a.868.868,0,0,0,.2.35,2.429,2.429,0,0,0-.2-.35m0,0a.868.868,0,0,0,.2.35,2.429,2.429,0,0,0-.2-.35m0,0a.868.868,0,0,0,.2.35,2.429,2.429,0,0,0-.2-.35m0,0a.868.868,0,0,0,.2.35,2.429,2.429,0,0,0-.2-.35m0,0a.868.868,0,0,0,.2.35,2.429,2.429,0,0,0-.2-.35m0,0a.868.868,0,0,0,.2.35,2.429,2.429,0,0,0-.2-.35m0,0a.868.868,0,0,0,.2.35,2.429,2.429,0,0,0-.2-.35m0,0a.868.868,0,0,0,.2.35,2.429,2.429,0,0,0-.2-.35m0,0a.868.868,0,0,0,.2.35,2.429,2.429,0,0,0-.2-.35m0,0a.868.868,0,0,0,.2.35,2.429,2.429,0,0,0-.2-.35m0,0a.868.868,0,0,0,.2.35,2.429,2.429,0,0,0-.2-.35m0,0a.868.868,0,0,0,.2.35,2.429,2.429,0,0,0-.2-.35m0,0a.868.868,0,0,0,.2.35,2.429,2.429,0,0,0-.2-.35m0,0a.868.868,0,0,0,.2.35,2.429,2.429,0,0,0-.2-.35m0,0a.868.868,0,0,0,.2.35,2.429,2.429,0,0,0-.2-.35m0,0a.868.868,0,0,0,.2.35,2.429,2.429,0,0,0-.2-.35m0,0a.868.868,0,0,0,.2.35,2.429,2.429,0,0,0-.2-.35m0,0a.868.868,0,0,0,.2.35,2.429,2.429,0,0,0-.2-.35m0,0a.868.868,0,0,0,.2.35,2.429,2.429,0,0,0-.2-.35m0,0a.868.868,0,0,0,.2.35,2.429,2.429,0,0,0-.2-.35m0,0a.868.868,0,0,0,.2.35,2.429,2.429,0,0,0-.2-.35m0,0a.868.868,0,0,0,.2.35,2.429,2.429,0,0,0-.2-.35"/>
        <g id="Group_111" data-name="Group 111" transform="translate(6.491 26.551)">
          <path id="Path_153" data-name="Path 153" d="M215.71,109.131v19.334a.559.559,0,0,1-.146.38.531.531,0,0,1-.364.17l-.057.4.008-.4h-.024a.564.564,0,0,1-.558-.566V109.7H196.385v18.752a.566.566,0,1,1-1.132,0V109.115a.544.544,0,0,1,.566-.55h19.334a.545.545,0,0,1,.558.566" transform="translate(-2.668 -5.656)" fill="#fff"/>
          <g id="Group_110" data-name="Group 110" transform="translate(156.562 79.066)">
            <path id="Path_146" data-name="Path 146" d="M196.477,152.866a6.224,6.224,0,1,0,6.224,6.224,6.232,6.232,0,0,0-6.224-6.224m0,11.4a5.092,5.092,0,1,1,5.092-5.092,5.1,5.1,0,0,1-5.092,5.092" transform="translate(-159.376 -93.216)" fill="#fff"/>
            <path id="Path_147" data-name="Path 147" d="M186.1,162.767a.571.571,0,0,1,0,.8,6,6,0,0,1-4.227,1.746h-.1a6.224,6.224,0,0,1,.008-12.447h.008A6.187,6.187,0,0,1,186.1,154.6a.566.566,0,0,1,0,.808.566.566,0,0,1-.808-.016,5.186,5.186,0,0,0-3.516-1.4,5.092,5.092,0,0,0,.008,10.184,5.194,5.194,0,0,0,3.516-1.414.576.576,0,0,1,.8,0" transform="translate(-158.201 -93.216)" fill="#fff"/>
            <path id="Path_151" data-name="Path 151" d="M225.176,157.132a.562.562,0,0,1-.5.566H209.819a.566.566,0,0,1,0-1.132H224.65a.515.515,0,0,1,.356.137.54.54,0,0,1,.17.428" transform="translate(-160.654 -93.925)" fill="#fff"/>
            <path id="Path_152" data-name="Path 152" d="M245.3,137.663c-.009-.145-.027-.291-.045-.436-.009-.186-.036-.38-.063-.566s-.036-.4-.072-.59a4.974,4.974,0,0,0-.063-.525c-.018-.154-.036-.3-.054-.445a66.694,66.694,0,0,0-3.59-14.209,9.952,9.952,0,0,0-9.239-5.706h-7.071v-5.254a.628.628,0,0,0-1.251,0v23.844a3.985,3.985,0,0,1-4.138,3.718H157.184a.564.564,0,0,0-.621.55v6a4.287,4.287,0,0,0,1.484,3.233,5.443,5.443,0,0,0,3.545,1.293h7.467a.569.569,0,1,0,0-1.132h-7.467a3.924,3.924,0,0,1-2.672-1,3.2,3.2,0,0,1-1.107-2.392v-5.415h61.9a5.616,5.616,0,0,0,3.779-1.406,4.477,4.477,0,0,0,1.529-3.362V116.317h6.936a8.918,8.918,0,0,1,8.241,5.019,63.755,63.755,0,0,1,3.545,13.732c.018.129.036.267.054.4s.036.267.054.4H232.034a.569.569,0,1,0,0,1.132h11.947c.018.129.027.267.045.4s.027.267.036.4a59.724,59.724,0,0,1,.3,6.224v3.476h-6.414a4.347,4.347,0,0,0-.3-.4,3.687,3.687,0,0,0-.342-.388,7.225,7.225,0,0,0-5.272-2.2c-3.815,0-6.927,2.789-6.927,6.224s3.113,6.224,6.927,6.224c3.805-.016,6.918-2.813,6.927-6.224a5.608,5.608,0,0,0-.153-1.293,3,3,0,0,0-.108-.4,3.16,3.16,0,0,0-.153-.4h6.432a.69.69,0,0,0,.468-.194.556.556,0,0,0,.18-.436V143.96c-.009-2.11-.108-4.211-.324-6.3m-13.27,18.259c-3.122,0-5.668-2.287-5.668-5.092s2.546-5.092,5.668-5.092h.126a5.881,5.881,0,0,1,3.94,1.511,1.684,1.684,0,0,1,.126.129,2.666,2.666,0,0,1,.306.315,4.2,4.2,0,0,1,.378.5v.008a1.923,1.923,0,0,1,.18.283,3.491,3.491,0,0,1,.27.55v.008a3.241,3.241,0,0,1,.144.412,4.43,4.43,0,0,1,.2,1.374,5.408,5.408,0,0,1-5.668,5.092" transform="translate(-156.562 -84.875)" fill="#fff"/>
            <path id="Path_154" data-name="Path 154" d="M200.3,79.632v19.3a.527.527,0,0,1-.533.5h-.04a.52.52,0,0,1-.388-.137.6.6,0,0,1-.17-.428V80.2H180.986V98.949a.562.562,0,1,1-1.123,0V79.616a.5.5,0,0,1,.137-.38.568.568,0,0,1,.428-.17h19.35a.539.539,0,0,1,.525.566" transform="translate(-158.17 -79.066)" fill="#fff"/>
          </g>
          <path id="Path_155" data-name="Path 155" d="M184.71,109.132v19.31a.587.587,0,0,1-.574.574h-.008a.564.564,0,0,1-.558-.566V109.7H165.385v18.768a.516.516,0,0,1-.137.38.575.575,0,0,1-.436.17.554.554,0,0,1-.558-.566V109.116a.544.544,0,0,1,.566-.55h19.358a.551.551,0,0,1,.533.566" transform="translate(-1.475 -5.656)" fill="#fff"/>
        </g>
      </g>
    </g>
  </g>
</svg>
