<?xml version="1.0" encoding="utf-8"?>
<!-- Generator: Adobe Illustrator 27.0.1, SVG Export Plug-In . SVG Version: 6.00 Build 0)  -->
<svg version="1.1" id="Layer_1" xmlns="http://www.w3.org/2000/svg" xmlns:xlink="http://www.w3.org/1999/xlink" x="0px" y="0px"
	 viewBox="0 0 820 312" style="enable-background:new 0 0 820 312;" xml:space="preserve">
<style type="text/css">
	.st0{fill:#225DC0;}
</style>
<g>
	<g>
		<path class="st0" d="M435.3,92c30.4,0,60.8,0,91.3,0c1,0.3,2,0.7,3,0.9c12.7,2.2,21.1,11.9,21.2,24.8c0.1,6.8,0.1,13.6,0,20.4
			c-0.1,8.6-5.9,15.9-14.1,18.1c-0.7,0.2-1.4,0.6-2.8,1.1c1.1,0.5,1.6,0.8,2.1,0.9c9.5,2.5,14.8,9.2,14.9,19c0,6.8,0.1,13.6,0,20.4
			c-0.1,11.2-8.1,21.1-18.8,23.7c-1.8,0.4-3.5,0.8-5.3,1.2c-30.4,0-60.8,0-91.3,0c0.1-1.2,0.3-2.3,0.3-3.5c0-41.2,0-82.4,0-123.6
			C435.6,94.3,435.4,93.2,435.3,92z M460.8,117.7c0,8.6-0.1,16.8,0.2,25c0,0.8,2.1,2.1,3.3,2.1c19.4,0.1,38.8,0.1,58.2,0.1
			c2.7,0,3.7-1.1,3.6-3.8c-0.1-6.3-0.2-12.6,0-18.9c0.1-3.6-1-4.7-4.6-4.7c-18.7,0.2-37.5,0.1-56.2,0.1
			C464,117.7,462.7,117.7,460.8,117.7z M460.8,196.9c21.5,0,42.1,0,62.8-0.1c0.8,0,2.2-1.7,2.3-2.7c0.3-4.2,0.1-8.4,0.1-12.6
			c0-11.8,0-11.8-11.6-11.8c-16.5,0-33,0-49.5,0c-1.7,0-4-0.5-4.1,2.4C460.8,180.2,460.8,188.3,460.8,196.9z"/>
		<path class="st0" d="M317.3,92c30.4,0,60.8,0,91.3,0c0,7.1-0.3,14.2,0,21.2c0.1,3.7-1.2,4.6-4.7,4.5c-26.6-0.1-53.2-0.1-79.8-0.1
			c-1.7,0-3.3,0-5.4,0c0,7.6,0,14.6,0,21.7c0,5.5,0,5.5,5.6,5.5c22.4,0,44.8,0.1,67.2-0.1c3.5,0,4.6,1,4.4,4.5
			c-0.3,5-0.1,10-0.1,14.9c0,5.5,0,5.6-5.5,5.6c-22.4,0-44.8,0.1-67.2-0.1c-3.4,0-4.7,0.8-4.5,4.4c0.3,4.6,0.1,9.2,0.1,13.8
			c0,2.9,0,5.9,0,9.1c2.5,0,4.1,0,5.8,0c26.5,0,52.9,0.1,79.4-0.1c3.5,0,4.8,0.8,4.7,4.5c-0.3,7.1,0,14.1,0,21.2
			c-30.4,0-60.8,0-91.3,0c-0.6-0.3-1.2-0.7-1.8-0.8c-14.7-3.2-22-11.6-22.2-26.6c-0.3-25.3-0.2-50.6,0-75.9
			c0.1-13.4,7.3-22.9,18.7-26C313.8,92.9,315.6,92.5,317.3,92z"/>
		<path class="st0" d="M601.4,92c30.7,0,61.4,0,92.1,0c-0.1,6.9-0.5,13.9-0.2,20.8c0.2,4.1-1.1,5-5,5c-26.9-0.2-53.7,0-80.6-0.2
			c-4.1,0-5.2,1.2-5,5.1c0.3,5.4,0.1,10.7,0.1,16.1c0,6,0,6,6,6c22.3,0,44.6,0.1,66.8-0.1c3.5,0,4.6,1,4.4,4.5
			c-0.3,5.1-0.1,10.2-0.1,15.3c0,5.1,0,5.2-5.1,5.2c-22.4,0-44.8,0.1-67.2-0.1c-3.8,0-5.1,1.1-4.9,4.9c0.3,5.8,0.3,11.5,0,17.3
			c-0.2,3.9,0.9,5.1,5,5.1c27.1-0.2,54.3,0,81.4-0.2c3.2,0,4.3,0.9,4.2,4.2c-0.2,7.2,0.1,14.4,0.2,21.6c-30.7,0-61.4,0-92.1,0
			c-0.8-0.3-1.7-0.8-2.5-0.9c-12.7-2.4-20.8-11.8-20.8-24.7c-0.1-26.6-0.1-53.2,0-79.8c0.1-12.3,8.4-22,20.4-24.3
			C599.4,92.8,600.4,92.3,601.4,92z"/>
		<path class="st0" d="M32.5,92c26.2,0,52.5,0,78.7,0c-0.1,7.2-0.4,14.4-0.2,21.6c0.1,3.3-1,4.2-4.2,4.2c-22.7-0.1-45.3-0.1-68-0.1
			c-1.5,0-3,0-4.6,0c0,26.7,0,52.8,0,78.7c0.5,0.2,0.6,0.3,0.7,0.3c20.4,0.1,40.9,0.1,61.3,0.2c2.4,0,2.7-1.3,2.7-3.3
			c0-6.4-0.2-12.9,0.1-19.3c0.2-3.6-1.1-4.8-4.7-4.7c-10.1,0.2-20.2,0-30.3,0.1c-2.6,0-3.8-0.6-3.7-3.5c0.2-6,0.2-12.1,0-18.1
			c-0.1-2.7,1-3.4,3.4-3.3c18.7,0.1,37.5,0.1,56.2,0c2.6,0,3.7,0.7,3.7,3.5c-0.1,16.8,0,33.6-0.2,50.3c-0.1,10.1-7,19-16.6,22.1
			c-2.2,0.7-4.5,1.2-6.8,1.9c-22.6,0-45.1,0-67.7,0c-1.1-0.3-2.2-0.8-3.3-1c-9.8-1.9-16.4-7.5-19.3-17.1c-0.6-2.1-1.1-4.2-1.7-6.3
			c0-27.3,0-54.5,0-81.8c0.3-1.1,0.8-2.2,1-3.3c2-10.2,8-16.6,17.8-19.7C28.7,92.8,30.6,92.5,32.5,92z"/>
		<path class="st0" d="M241.8,222.6c-22.6,0-45.1,0-67.7,0c-1-0.3-1.9-0.8-3-0.9c-12.3-1.9-20.3-10.7-20.4-23.1
			c-0.1-27.7-0.1-55.3,0-83c0-10.9,6.8-19.2,17.3-22.1c2-0.5,4-1,6-1.5c22.6,0,45.1,0,67.7,0c0.9,0.3,1.7,0.7,2.6,0.8
			c11.7,1,21.2,9.1,21.4,25c0.3,26.3,0.2,52.6,0,78.9c-0.1,12.8-6.6,21.4-17.6,24.4C246.1,221.7,244,222.1,241.8,222.6z
			 M240.4,196.9c0.2-1.7,0.4-3,0.4-4.3c0-23.6,0-47.2,0.1-70.8c0-3.2-1-4.2-4.3-4.2c-18.9,0.1-37.8,0.1-56.6,0
			c-3.4,0-4.6,0.8-4.5,4.4c0.1,23.5,0.1,46.9,0,70.4c0,3.7,1.1,4.6,4.7,4.6c18.7-0.2,37.5-0.1,56.2-0.1
			C237.6,196.9,238.9,196.9,240.4,196.9z"/>
		<path class="st0" d="M744.6,92c0,33,0,66.1,0,99.1c0,5.8,0,5.8,5.8,5.8c19.3,0,38.6,0.1,57.8-0.1c3.5,0,4.8,0.8,4.7,4.5
			c-0.2,7.1,0,14.2,0.1,21.2c-23.1,0-46.2,0-69.2,0c-1.9-0.5-3.8-1-5.6-1.5c-11.2-3.1-18.4-12.9-18.4-24.9c0-33,0-66.1,0-99.1
			c0-1.7-0.2-3.4-0.3-5.1C727.8,92,736.2,92,744.6,92z"/>
	</g>
</g>
</svg>
