<svg id="Layer_1" data-name="Layer 1" xmlns="http://www.w3.org/2000/svg" viewBox="0 0 36 36.8"><defs><style>.cls-1{fill:#fbbc05;}.cls-1,.cls-2,.cls-3,.cls-4{fill-rule:evenodd;}.cls-2{fill:#ea4335;}.cls-3{fill:#34a853;}.cls-4{fill:#4285f4;}</style></defs><path class="cls-1" d="M7.5,22.6a9.7,9.7,0,0,1,.6-3.4L1.9,14.5a18.4,18.4,0,0,0,0,16.2L8.1,26a9.7,9.7,0,0,1-.6-3.4" transform="translate(0 -4.2)"/><path class="cls-2" d="M18.4,11.7a10.6,10.6,0,0,1,6.8,2.5l5.3-5.4A18.3,18.3,0,0,0,4.6,10.5a15.6,15.6,0,0,0-2.7,4l6.2,4.7a10.8,10.8,0,0,1,10.3-7.5" transform="translate(0 -4.2)"/><path class="cls-3" d="M18.4,33.5A10.8,10.8,0,0,1,8.1,26L1.9,30.7A18.4,18.4,0,0,0,18.4,41a17.8,17.8,0,0,0,12-4.6l-5.9-4.5a11.6,11.6,0,0,1-6.1,1.6" transform="translate(0 -4.2)"/><path class="cls-4" d="M36,22.6a18.6,18.6,0,0,0-.4-3.3H18.4v7.1h9.9a8.5,8.5,0,0,1-3.8,5.5l5.9,4.5A18.3,18.3,0,0,0,36,22.6" transform="translate(0 -4.2)"/></svg>