<svg xmlns="http://www.w3.org/2000/svg" width="101" height="101" viewBox="0 0 101 101">
  <g id="icon" transform="translate(-1910.819 -1722.819)">
    <g id="Ellipse_61" data-name="Ellipse 61" transform="translate(1910.819 1722.819)" fill="none" stroke="#fff" stroke-width="6">
      <circle cx="50.5" cy="50.5" r="50.5" stroke="none"/>
      <circle cx="50.5" cy="50.5" r="47.5" fill="none"/>
    </g>
    <g id="noun-hand-shake-4366209" transform="translate(1932.706 1753.915)">
      <path id="Path_17527" data-name="Path 17527" d="M285.738,361.745c1.115-1.245,1.679-2.2,1.657-2.824-.008-.241-.09-.553-.641-1.04-.923-.816-2.03-.069-2.794.7-.007.008-2.117,2.164-2.233,2.289-.646.74-2.484,3.039-1.461,4.138a1.136,1.136,0,0,0,.919.464c.84,0,1.873-.907,2.7-1.756.075-.089,1.649-1.791,1.853-1.974Z" transform="translate(-259.753 -328.915)" fill="#fff"/>
      <path id="Path_17528" data-name="Path 17528" d="M114.144,110.932c-.711-1.114-2.525-1.383-3.168-.066-.515.918-1.832,3.6-3.1,6.2-.891,1.817-1.932,4.1-2.693,5.707a1.8,1.8,0,0,0,3.255,1.548c1.462-3.074,4.511-9.454,5.719-11.708a1.578,1.578,0,0,0-.009-1.683Z" transform="translate(-105.005 -109.967)" fill="#fff"/>
      <path id="Path_17529" data-name="Path 17529" d="M319.6,398.018a1.358,1.358,0,0,0-.892-.391,2.135,2.135,0,0,0-1.329.657c-.256.284-1.61,1.719-1.877,1.994-.694.823-1.489,2.029-.837,2.654.965.928,2.225.072,4.069-1.717a3.369,3.369,0,0,0,1.359-2.277,1.238,1.238,0,0,0-.492-.921Z" transform="translate(-290.229 -364.384)" fill="#fff"/>
      <path id="Path_17530" data-name="Path 17530" d="M211.763,302.118a1.9,1.9,0,0,0,.483-1.424,2,2,0,0,0-1.01-1.321,2.1,2.1,0,0,0-2.716.438,11.513,11.513,0,0,0-3.183,4.544,1.707,1.707,0,0,0,.383,1.808.931.931,0,0,0,.793.375c1.546-.035,4.143-3.108,5.251-4.42Z" transform="translate(-193.653 -277.188)" fill="#fff"/>
      <path id="Path_17531" data-name="Path 17531" d="M247.013,329.483a4.432,4.432,0,0,0,1.225-2.7,1.991,1.991,0,0,0-.839-1.512,1.466,1.466,0,0,0-.946-.349c-1.216,0-2.6,1.445-3.854,2.875l-.352.4c-1.515,1.71-2.56,3.14-1.142,4.672a1.379,1.379,0,0,0,1.05.528c1.105,0,2.48-1.381,3.44-2.42.007-.009,1.1-1.174,1.418-1.492Z" transform="translate(-224.79 -300.074)" fill="#fff"/>
      <path id="Path_17532" data-name="Path 17532" d="M358.978,422.392c-.111.129-1.009,1.035-1.02,1.023a5.366,5.366,0,0,0,.6.564,1.813,1.813,0,0,0,.73.392,1.338,1.338,0,0,0,1.227-.505c.261-.262.925-.936-.657-2.836a5.546,5.546,0,0,1-.884,1.363Z" transform="translate(-328.739 -385.083)" fill="#fff"/>
      <path id="Path_17533" data-name="Path 17533" d="M521.041,122.911c-.841-1.687-2.03-4.138-2.928-5.97-1.273-2.6-2.589-5.285-3.083-6.161a1.5,1.5,0,0,0-1.308-.938,2.176,2.176,0,0,0-1.881.963,1.577,1.577,0,0,0-.008,1.683c1.216,2.271,4.459,8.892,5.983,12.016a1.8,1.8,0,1,0,3.225-1.593Z" transform="translate(-464.63 -109.839)" fill="#fff"/>
      <path id="Path_17534" data-name="Path 17534" d="M247.419,128.341c-4.116-1.508-9.425-2.826-13.971.365-.621.436-1.485.931-2.485,1.5-2.811,1.61-7.514,4.3-6.57,6.282a1.2,1.2,0,0,0,.717.676c1.593.547,5.358-1.355,8.993-3.194,5.795-2.932,12.386,4.425,14.552,6.843,1.348,1.5,2.576,3.115,3.872,4.658.785.934,1.515,1.806,2.148,2.628,2.457-2.154,3.956-3.723,4.435-4.653a12.979,12.979,0,0,1,2.847-3.967c-1.25-2.553-4.161-8.473-5.495-11-1.5.338-5.679,1.089-9.042-.14Z" transform="translate(-210.492 -124.791)" fill="#fff"/>
      <path id="Path_17535" data-name="Path 17535" d="M179.4,148.965c-1.966-2.2-7.952-8.873-12.665-6.487-4.972,2.513-8.14,3.987-10.215,3.279a2.752,2.752,0,0,1-1.631-1.489c-1.575-3.3,3.5-6.207,7.21-8.33.766-.439,1.443-.828,1.975-1.169a16.323,16.323,0,0,0-2.237.669,12.955,12.955,0,0,1-4.4.687,22.126,22.126,0,0,1-4.652-.526c-1.34,2.54-4.237,8.435-5.484,10.98a13,13,0,0,1,2.847,3.967,38.221,38.221,0,0,0,4.345,4.812c1.487-1.945,3.785-4.287,6.366-2.6a3.485,3.485,0,0,1,1.71,2.413,2.872,2.872,0,0,1,.009.342,3.038,3.038,0,0,1,3.44.347,3.524,3.524,0,0,1,1.421,2.687,3.714,3.714,0,0,1-.029.589,2.855,2.855,0,0,1,3.051.541,3.038,3.038,0,0,1,1.173,2.169,3.54,3.54,0,0,1-.455,1.73,3.176,3.176,0,0,1,2.537,2.1c.891.97,2.506,2.715,3.7,2.719a1.08,1.08,0,0,0,.835-.407c.842-.906-.258-2.627-1.033-3.619-.182-.233-1.793-2-2.214-2.448-1-1.065-2.129-2.266-2.779-2.955a.788.788,0,0,1,1.15-1.077c1.277,1.36,4.386,4.676,4.566,4.879.961,1.04,2.35,2.439,3.462,2.443a1.354,1.354,0,0,0,1.046-.527c1.091-1.178-.639-3.551-1.778-4.791-.154-.155-2.63-2.868-3.212-3.442-.749-.738-1.428-1.37-1.44-1.382a.789.789,0,0,1,1.074-1.156c.044.041.572.533,1.211,1.157.673.657,2.709,2.9,3.076,3.286.184.178.372.37.563.578,1.519,1.489,2.853,2.328,3.791,2.35a1.206,1.206,0,0,0,.965-.417c1.133-1.224.487-2.584-3.458-7.28-1.285-1.53-2.5-3.133-3.84-4.62Z" transform="translate(-142.413 -131.89)" fill="#fff"/>
    </g>
  </g>
</svg>
