<svg xmlns="http://www.w3.org/2000/svg" width="49.208" height="49.244" viewBox="0 0 49.208 49.244">
  <g id="Group_58" data-name="Group 58" transform="translate(-2380.284 177.999)">
    <path id="Path_13" data-name="Path 13" d="M145.247,44.79a1.173,1.173,0,0,0-1.063,1.173V47.8a11.3,11.3,0,0,0-1.246.531l-1.3-1.3a1.173,1.173,0,0,0-1.649,0l-3.646,3.628a1.173,1.173,0,0,0,0,1.667l1.283,1.283a11.409,11.409,0,0,0-.531,1.283h-1.8a1.172,1.172,0,0,0-1.173,1.173v5.13a1.173,1.173,0,0,0,1.178,1.17h1.8a11.345,11.345,0,0,0,.531,1.264l-1.283,1.283a1.173,1.173,0,0,0,0,1.667l3.646,3.628a1.172,1.172,0,0,0,1.649,0l1.264-1.264a11.326,11.326,0,0,0,1.283.531v1.814a1.173,1.173,0,0,0,1.173,1.173h5.149a1.172,1.172,0,0,0,1.173-1.173V69.469a11.435,11.435,0,0,0,1.283-.513l1.246,1.246a1.172,1.172,0,0,0,1.649,0l3.628-3.628a1.173,1.173,0,0,0,.018-1.649l-1.264-1.3a11.383,11.383,0,0,0,.531-1.264h1.8a1.173,1.173,0,0,0,1.173-1.173v-5.13a1.173,1.173,0,0,0-1.173-1.173h-1.8a11.4,11.4,0,0,0-.531-1.283l1.264-1.3a1.173,1.173,0,0,0-.018-1.649l-3.628-3.628a1.173,1.173,0,0,0-1.649,0l-1.283,1.283a11.339,11.339,0,0,0-1.246-.513V45.962a1.172,1.172,0,0,0-1.173-1.173h-5.259Zm1.283,2.345h2.8v1.429a1.172,1.172,0,0,0,.879,1.136,8.984,8.984,0,0,1,2.382,1.008,1.173,1.173,0,0,0,1.429-.183l1.008-1.008,1.979,1.979-.987,1a1.172,1.172,0,0,0-.165,1.411,9.122,9.122,0,0,1,1.008,2.419,1.172,1.172,0,0,0,1.136.9h1.393v2.785H158a1.172,1.172,0,0,0-1.136.879,9.037,9.037,0,0,1-1.008,2.419,1.172,1.172,0,0,0,.165,1.411l.989,1.008-1.979,1.979-.971-.971a1.172,1.172,0,0,0-1.429-.165,9.1,9.1,0,0,1-2.419.989,1.173,1.173,0,0,0-.879,1.136v1.411h-2.8V68.7a1.173,1.173,0,0,0-.88-1.136,9.017,9.017,0,0,1-2.418-1.008,1.173,1.173,0,0,0-1.429.165l-.989.99-1.979-1.979.989-.989a1.173,1.173,0,0,0,.183-1.429A9.063,9.063,0,0,1,139,60.9a1.173,1.173,0,0,0-1.136-.879H136.47V57.23h1.393a1.173,1.173,0,0,0,1.136-.9,9.15,9.15,0,0,1,1.008-2.419,1.173,1.173,0,0,0-.183-1.429l-.989-.989,1.979-1.979,1.026,1.008a1.172,1.172,0,0,0,1.429.183,8.935,8.935,0,0,1,2.381-1,1.173,1.173,0,0,0,.88-1.136Zm1.411,5.808a5.689,5.689,0,1,0,5.68,5.68,5.689,5.689,0,0,0-5.68-5.68Zm0,2.345a3.344,3.344,0,1,1-3.344,3.344,3.344,3.344,0,0,1,3.344-3.344ZM131.286,71.8a10.106,10.106,0,0,0-5.149,1.466,1.173,1.173,0,1,0,1.191,2.015,7.759,7.759,0,0,1,3.958-1.136,8.385,8.385,0,0,1,5.735,2.272,1.174,1.174,0,0,0,.807.311l5.515-.036a1.308,1.308,0,0,1,1.045.348,1.006,1.006,0,0,1,.256.733c-.013.572-.254,1.136-1.3,1.136H135.5a1.173,1.173,0,1,0,0,2.346h7.842a3.6,3.6,0,0,0,3.646-3.426,3.376,3.376,0,0,0-.916-2.418,3.737,3.737,0,0,0-2.73-1.063h-.018l-5.112.037a10.676,10.676,0,0,0-6.926-2.584Zm28.82.018a5.345,5.345,0,0,0-2.327.586L150.8,75.956a1.173,1.173,0,1,0,1.063,2.089l6.981-3.554a2.066,2.066,0,0,1,2.675.293c.437.658.22,1.583-.788,2.181l-.018.018L145.87,86H129.654L121.94,72.658a1.173,1.173,0,0,0-1.594-.44L115.4,75.076a1.146,1.146,0,0,0-.11.055,1.172,1.172,0,0,0-.312,1.539l9.674,16.764a1.173,1.173,0,0,0,1.613.44l4.929-2.858a1.172,1.172,0,0,0,.44-1.594l-.623-1.081H146.2a1.171,1.171,0,0,0,.623-.183L161.919,79l.018-.018a3.965,3.965,0,0,0,1.539-5.5,3.726,3.726,0,0,0-2.584-1.613,4.716,4.716,0,0,0-.788-.055Zm-39.613,3.023,8.52,14.75L126.1,91.256l-8.5-14.731Z" transform="translate(2265.469 -222.788)"/>
  </g>
</svg>
