<svg xmlns="http://www.w3.org/2000/svg" xmlns:xlink="http://www.w3.org/1999/xlink" width="204" height="55" viewBox="0 0 204 55">
  <defs>
    <clipPath id="clip-path">
      <rect id="Rectangle_63" data-name="Rectangle 63" width="204" height="55" transform="translate(0.1)" fill="#fff"/>
    </clipPath>
    <clipPath id="clip-path-2">
      <rect id="Rectangle_52" data-name="Rectangle 52" width="204" height="22" transform="translate(0.1 0.105)" fill="#fff"/>
    </clipPath>
  </defs>
  <g id="Mask_Group_13" data-name="Mask Group 13" transform="translate(-0.1)" clip-path="url(#clip-path)">
    <g id="Mask_Group_1" data-name="Mask Group 1" transform="translate(0 16.895)" clip-path="url(#clip-path-2)">
      <g id="heidel-logo" transform="translate(-0.003 0.45)">
        <path id="Path_332" data-name="Path 332" d="M59.126,28.923A.511.511,0,0,0,58.6,28.4H54.718a.511.511,0,0,0-.523.523V36.47H45.9V41.4h8.294v7.547a.511.511,0,0,0,.523.523H58.6a.511.511,0,0,0,.523-.523Z" transform="translate(-32.3 -27.877)" fill="#004077"/>
        <path id="Path_333" data-name="Path 333" d="M44.232,36.293H39.3V30.166a2.466,2.466,0,0,1,4.932,0h0Z" transform="translate(-30.632 -27.7)" fill="#009e3d"/>
        <path id="Path_334" data-name="Path 334" d="M44.232,45.8H39.3v7.547a.511.511,0,0,0,.523.523h3.886a.511.511,0,0,0,.523-.523V45.8Z" transform="translate(-30.632 -32.275)" fill="#009fe3"/>
        <path id="Path_335" data-name="Path 335" d="M181.57,45.262a.511.511,0,0,0-.523-.523h-9.415V28.823a.511.511,0,0,0-.523-.523h-3.886a.511.511,0,0,0-.523.523V49a.511.511,0,0,0,.523.523h13.824A.511.511,0,0,0,181.57,49Z" transform="translate(-62.833 -27.852)" fill="#004077"/>
        <path id="Path_336" data-name="Path 336" d="M117.243,28.3h-8.22a.511.511,0,0,0-.523.523V49a.511.511,0,0,0,.523.523h8.07c6.5,0,10.91-4.483,10.91-10.611.075-6.277-4.334-10.611-10.76-10.611m5.679,10.686a5.766,5.766,0,0,1-6.053,6.053h-3.363V32.858h3.363a5.785,5.785,0,0,1,6.053,6.127" transform="translate(-48.123 -27.852)" fill="#004077"/>
        <path id="Path_337" data-name="Path 337" d="M101.532,28.923a.511.511,0,0,0-.523-.523H97.123a.511.511,0,0,0-.523.523v20.1a.511.511,0,0,0,.523.523h3.886a.511.511,0,0,0,.523-.523Z" transform="translate(-45.115 -27.877)" fill="#004077"/>
        <path id="Path_338" data-name="Path 338" d="M85.139,28.3H69.223a.511.511,0,0,0-.523.523v3.736a.511.511,0,0,0,.523.523H85.065a.511.511,0,0,0,.523-.523V28.823a.447.447,0,0,0-.448-.523" transform="translate(-38.063 -27.852)" fill="#004077"/>
        <path id="Path_339" data-name="Path 339" d="M85.139,39.3H69.223a.511.511,0,0,0-.523.523v3.736a.511.511,0,0,0,.523.523H85.065a.511.511,0,0,0,.523-.523V39.823a.42.42,0,0,0-.448-.523" transform="translate(-38.063 -30.632)" fill="#004077"/>
        <path id="Path_340" data-name="Path 340" d="M85.662,50.823a.511.511,0,0,0-.523-.523H69.223a.511.511,0,0,0-.523.523v3.736a.511.511,0,0,0,.523.523H85.065a.511.511,0,0,0,.523-.523V50.823Z" transform="translate(-38.063 -33.412)" fill="#004077"/>
        <path id="Path_341" data-name="Path 341" d="M155.265,28.3H139.423a.511.511,0,0,0-.523.523v3.736a.511.511,0,0,0,.523.523h15.842a.511.511,0,0,0,.523-.523V28.823a.561.561,0,0,0-.523-.523" transform="translate(-55.806 -27.852)" fill="#004077"/>
        <path id="Path_342" data-name="Path 342" d="M155.265,39.3H139.423a.511.511,0,0,0-.523.523v3.736a.511.511,0,0,0,.523.523h15.842a.511.511,0,0,0,.523-.523V39.823a.511.511,0,0,0-.523-.523" transform="translate(-55.806 -30.632)" fill="#004077"/>
        <path id="Path_343" data-name="Path 343" d="M155.788,50.823a.511.511,0,0,0-.523-.523H139.423a.511.511,0,0,0-.523.523v3.736a.511.511,0,0,0,.523.523h15.842a.511.511,0,0,0,.523-.523Z" transform="translate(-55.806 -33.412)" fill="#004077"/>
        <path id="Path_344" data-name="Path 344" d="M205.646,38.388a5.012,5.012,0,0,0,2.466-4.483c0-2.69-2.092-5.6-7.024-5.6h-9.565a.511.511,0,0,0-.523.523V49a.511.511,0,0,0,.523.523h10.461c3.811,0,7.1-2.242,7.1-5.978.075-2.316-.9-4.035-3.437-5.156m-9.938-5.679h5.305a2.114,2.114,0,0,1,2.242,2.018,2.07,2.07,0,0,1-2.242,2.018h-5.305Zm5.978,12.4h-5.978V40.928h5.978a2.111,2.111,0,1,1,0,4.185" transform="translate(-68.975 -27.852)" fill="#004077"/>
        <path id="Path_345" data-name="Path 345" d="M293.65,37.415a.511.511,0,0,0-.523-.523H284.31a.511.511,0,0,0-.523.523V40.7a.511.511,0,0,0,.523.523h4.484v2.914a7.437,7.437,0,0,1-4.11,1.2,6.4,6.4,0,0,1-.3-12.778,7.255,7.255,0,0,1,5.081,1.719.571.571,0,0,0,.374.149.411.411,0,0,0,.374-.224l2.316-2.989a.483.483,0,0,0,.149-.374.635.635,0,0,0-.224-.374C290.138,28.6,287.9,28,284.534,28A10.94,10.94,0,0,0,273.4,38.985c0,6.352,4.633,10.91,11.134,10.91a13.5,13.5,0,0,0,8.519-2.914,1.6,1.6,0,0,0,.6-1.27Z" transform="translate(-89.802 -27.776)" fill="#004077"/>
        <path id="Path_346" data-name="Path 346" d="M236.188,28.923a.511.511,0,0,0-.523-.523H219.823a.511.511,0,0,0-.523.523v3.736a.511.511,0,0,0,.523.523h15.842a.511.511,0,0,0,.523-.523Z" transform="translate(-76.128 -27.877)" fill="#004077"/>
        <path id="Path_347" data-name="Path 347" d="M236.188,39.823a.511.511,0,0,0-.523-.523H219.823a.511.511,0,0,0-.523.523v3.736a.511.511,0,0,0,.523.523h15.842a.511.511,0,0,0,.523-.523Z" transform="translate(-76.128 -30.632)" fill="#004077"/>
        <path id="Path_348" data-name="Path 348" d="M236.188,50.823a.511.511,0,0,0-.523-.523H219.823a.511.511,0,0,0-.523.523v3.736a.511.511,0,0,0,.523.523h15.842a.511.511,0,0,0,.523-.523Z" transform="translate(-76.128 -33.412)" fill="#004077"/>
        <path id="Path_349" data-name="Path 349" d="M265.258,49.522a.532.532,0,0,0,.448-.224.638.638,0,0,0,0-.523L260.252,41a6.006,6.006,0,0,0,4.185-5.978c0-2.69-1.644-6.725-6.651-6.725H247.623a.511.511,0,0,0-.523.523V49a.511.511,0,0,0,.523.523h3.886a.511.511,0,0,0,.523-.523V41.3h2.69l5.231,7.622a1.288,1.288,0,0,0,1.046.6ZM252.032,32.709h5.53a2.232,2.232,0,0,1,2.167,2.242,2.12,2.12,0,0,1-2.167,2.167h-5.53Z" transform="translate(-83.154 -27.852)" fill="#004077"/>
        <rect id="Rectangle_51" data-name="Rectangle 51" width="4.932" height="4.932" transform="translate(8.593 8.593)" fill="#003330"/>
        <path id="Path_350" data-name="Path 350" d="M36.293,39.2v4.932H30.166a2.466,2.466,0,0,1,0-4.932h6.127Z" transform="translate(-27.7 -30.607)" fill="#fec700"/>
      </g>
    </g>
  </g>
</svg>
