<svg xmlns="http://www.w3.org/2000/svg" xmlns:xlink="http://www.w3.org/1999/xlink" width="830" height="90" viewBox="0 0 830 90">
  <defs>
    <clipPath id="clip-path">
      <rect id="Rectangle_2" data-name="Rectangle 2" width="830" height="90" fill="#fff"/>
    </clipPath>
  </defs>
  <g id="Mask_Group_1" data-name="Mask Group 1" clip-path="url(#clip-path)">
    <g id="Heidelberger-Druckmaschinen" transform="translate(-27.7 -27.7)">
      <path id="Path_11" data-name="Path 11" d="M99.718,30.528A2.078,2.078,0,0,0,97.589,28.4H81.778a2.078,2.078,0,0,0-2.128,2.128V61.238H45.9V81.305H79.65v30.709a2.078,2.078,0,0,0,2.128,2.128H97.589a2.078,2.078,0,0,0,2.128-2.128Z" transform="translate(37.138 1.428)" fill="#004077"/>
      <path id="Path_12" data-name="Path 12" d="M59.368,62.666H39.3V37.734a10.034,10.034,0,0,1,20.068,0h0Z" transform="translate(23.67 0)" fill="#009e3d"/>
      <path id="Path_13" data-name="Path 13" d="M59.368,45.8H39.3V76.509a2.078,2.078,0,0,0,2.128,2.128H57.239a2.078,2.078,0,0,0,2.128-2.128V45.8Z" transform="translate(23.67 36.934)" fill="#009fe3"/>
      <path id="Path_14" data-name="Path 14" d="M227.207,97.32a2.078,2.078,0,0,0-2.128-2.128H186.768V30.428a2.078,2.078,0,0,0-2.128-2.128H168.828a2.078,2.078,0,0,0-2.128,2.128v82.095a2.078,2.078,0,0,0,2.128,2.128h56.25a2.078,2.078,0,0,0,2.128-2.128Z" transform="translate(283.635 1.224)" fill="#004077"/>
      <path id="Path_15" data-name="Path 15" d="M144.074,28.3H110.628a2.078,2.078,0,0,0-2.128,2.128v82.095a2.078,2.078,0,0,0,2.128,2.128h32.838c26.453,0,44.392-18.243,44.392-43.176.3-25.541-17.635-43.176-43.784-43.176m23.108,43.48c0,14.595-10.034,24.628-24.628,24.628H128.872V46.847h13.682c13.986,0,24.628,9.426,24.628,24.932" transform="translate(164.876 1.224)" fill="#004077"/>
      <path id="Path_16" data-name="Path 16" d="M116.668,30.528a2.078,2.078,0,0,0-2.128-2.128H98.728A2.078,2.078,0,0,0,96.6,30.528v81.791a2.078,2.078,0,0,0,2.128,2.128h15.811a2.078,2.078,0,0,0,2.128-2.128Z" transform="translate(140.593 1.428)" fill="#004077"/>
      <path id="Path_17" data-name="Path 17" d="M135.592,28.3H70.828A2.078,2.078,0,0,0,68.7,30.428v15.2a2.078,2.078,0,0,0,2.128,2.128h64.459a2.078,2.078,0,0,0,2.128-2.128v-15.2a1.82,1.82,0,0,0-1.824-2.128" transform="translate(83.662 1.224)" fill="#004077"/>
      <path id="Path_18" data-name="Path 18" d="M135.592,39.3H70.828A2.078,2.078,0,0,0,68.7,41.428v15.2a2.078,2.078,0,0,0,2.128,2.128h64.459a2.078,2.078,0,0,0,2.128-2.128v-15.2a1.711,1.711,0,0,0-1.824-2.128" transform="translate(83.662 23.67)" fill="#004077"/>
      <path id="Path_19" data-name="Path 19" d="M137.72,52.428a2.078,2.078,0,0,0-2.128-2.128H70.828A2.078,2.078,0,0,0,68.7,52.428v15.2a2.078,2.078,0,0,0,2.128,2.128h64.459a2.078,2.078,0,0,0,2.128-2.128v-15.2Z" transform="translate(83.662 46.116)" fill="#004077"/>
      <path id="Path_20" data-name="Path 20" d="M205.488,28.3H141.028a2.078,2.078,0,0,0-2.128,2.128v15.2a2.078,2.078,0,0,0,2.128,2.128h64.459a2.078,2.078,0,0,0,2.128-2.128v-15.2a2.285,2.285,0,0,0-2.128-2.128" transform="translate(226.908 1.224)" fill="#004077"/>
      <path id="Path_21" data-name="Path 21" d="M205.488,39.3H141.028a2.078,2.078,0,0,0-2.128,2.128v15.2a2.078,2.078,0,0,0,2.128,2.128h64.459a2.078,2.078,0,0,0,2.128-2.128v-15.2a2.078,2.078,0,0,0-2.128-2.128" transform="translate(226.908 23.67)" fill="#004077"/>
      <path id="Path_22" data-name="Path 22" d="M207.616,52.428a2.078,2.078,0,0,0-2.128-2.128H141.028a2.078,2.078,0,0,0-2.128,2.128v15.2a2.078,2.078,0,0,0,2.128,2.128h64.459a2.078,2.078,0,0,0,2.128-2.128Z" transform="translate(226.908 46.116)" fill="#004077"/>
      <path id="Path_23" data-name="Path 23" d="M250.595,69.347A20.393,20.393,0,0,0,260.628,51.1c0-10.946-8.514-22.8-28.581-22.8H193.128A2.078,2.078,0,0,0,191,30.428v82.095a2.078,2.078,0,0,0,2.128,2.128H235.7c15.507,0,28.885-9.122,28.885-24.324.3-9.426-3.649-16.419-13.987-20.98M210.155,46.239h21.588c5.169,0,9.122,3.649,9.122,8.209s-3.649,8.209-9.122,8.209H210.155ZM234.48,96.712H210.155V79.685H234.48c6.385,0,9.73,4.561,9.73,8.514s-3.345,8.514-9.73,8.514" transform="translate(333.22 1.224)" fill="#004077"/>
      <path id="Path_24" data-name="Path 24" d="M355.8,66.311a2.078,2.078,0,0,0-2.128-2.128H317.792a2.078,2.078,0,0,0-2.128,2.128V79.689a2.078,2.078,0,0,0,2.128,2.128h18.243V93.676c-3.649,2.736-10.338,4.865-16.723,4.865-14.291,0-25.541-10.946-25.541-26.149,0-14.9,11.858-25.845,24.324-25.845,7.905,0,13.987,1.52,20.676,6.993a2.322,2.322,0,0,0,1.52.608,1.672,1.672,0,0,0,1.52-.912l9.426-12.162a1.965,1.965,0,0,0,.608-1.52,2.585,2.585,0,0,0-.912-1.52C341.508,30.432,332.386,28,318.7,28c-24.628,0-45.3,18.851-45.3,44.7s18.851,44.392,45.3,44.392a54.927,54.927,0,0,0,34.662-11.858,6.5,6.5,0,0,0,2.432-5.169Z" transform="translate(501.361 0.612)" fill="#004077"/>
      <path id="Path_25" data-name="Path 25" d="M288.016,30.528a2.078,2.078,0,0,0-2.128-2.128H221.428a2.078,2.078,0,0,0-2.128,2.128v15.2a2.078,2.078,0,0,0,2.128,2.128h64.459a2.078,2.078,0,0,0,2.128-2.128Z" transform="translate(390.968 1.428)" fill="#004077"/>
      <path id="Path_26" data-name="Path 26" d="M288.016,41.428a2.078,2.078,0,0,0-2.128-2.128H221.428a2.078,2.078,0,0,0-2.128,2.128v15.2a2.078,2.078,0,0,0,2.128,2.128h64.459a2.078,2.078,0,0,0,2.128-2.128Z" transform="translate(390.968 23.67)" fill="#004077"/>
      <path id="Path_27" data-name="Path 27" d="M288.016,52.428a2.078,2.078,0,0,0-2.128-2.128H221.428a2.078,2.078,0,0,0-2.128,2.128v15.2a2.078,2.078,0,0,0,2.128,2.128h64.459a2.078,2.078,0,0,0,2.128-2.128Z" transform="translate(390.968 46.116)" fill="#004077"/>
      <path id="Path_28" data-name="Path 28" d="M320.985,114.651a2.167,2.167,0,0,0,1.824-.912,2.6,2.6,0,0,0,0-2.128l-22.2-31.622c11.25-3.953,17.027-13.074,17.027-24.324,0-10.946-6.689-27.365-27.061-27.365H249.228a2.078,2.078,0,0,0-2.128,2.128v82.095a2.078,2.078,0,0,0,2.128,2.128h15.811a2.078,2.078,0,0,0,2.128-2.128V81.205h10.946L299.4,112.219a5.239,5.239,0,0,0,4.257,2.432ZM267.168,46.239h22.5c5.169,0,8.818,4.561,8.818,9.122a8.628,8.628,0,0,1-8.818,8.818h-22.5Z" transform="translate(447.695 1.224)" fill="#004077"/>
      <rect id="Rectangle_1" data-name="Rectangle 1" width="20.068" height="20.068" transform="translate(62.666 62.666)" fill="#003330"/>
      <path id="Path_29" data-name="Path 29" d="M62.666,39.2V59.268H37.734a10.034,10.034,0,0,1,0-20.068H62.666Z" transform="translate(0 23.466)" fill="#fec700"/>
    </g>
  </g>
</svg>
