<svg xmlns="http://www.w3.org/2000/svg" xmlns:xlink="http://www.w3.org/1999/xlink" width="145" height="55" viewBox="0 0 145 55">
  <defs>
    <clipPath id="clip-path">
      <rect id="Rectangle_64" data-name="Rectangle 64" width="145" height="55" transform="translate(-0.1)" fill="#fff"/>
    </clipPath>
  </defs>
  <g id="Mask_Group_12" data-name="Mask Group 12" transform="translate(0.1)" clip-path="url(#clip-path)">
    <g id="Group_169" data-name="Group 169" transform="translate(-77.658 -112.159)">
      <path id="Path_389" data-name="Path 389" d="M9.257,0C9.238,1.537,9.215,3.074,9.2,4.612c-.008.995,0,1.99,0,2.992.1-.011.153,0,.167-.021a6.268,6.268,0,0,1,4.553-2.53,8.5,8.5,0,0,1,6.351,1.132,6.4,6.4,0,0,1,2.962,5.352c.049,4.62.016,9.24.014,13.86,0,.121-.02.242-.034.4H14.332V24.98c0-3.2.006-6.41,0-9.614a2.808,2.808,0,0,0-2.375-2.976A2.515,2.515,0,0,0,9.2,14.7q0,5.151,0,10.3v.781H.038C.024,25.585,0,25.4,0,25.222Q0,12.767,0,.311C0,.208.011.1.017,0Z" transform="translate(78.695 127.684)" fill="#e61003"/>
      <rect id="Rectangle_73" data-name="Rectangle 73" width="9.24" height="3.467" transform="translate(144.392 127.684)" fill="#e61003"/>
      <path id="Path_390" data-name="Path 390" d="M988.735,47.99v3.139c.226-.3.344-.45.46-.6a8.1,8.1,0,0,1,9.839-2.237,5.722,5.722,0,0,1,2.818,4.469,12.148,12.148,0,0,1,.14,1.987c.012,4.036.007,8.072.006,12.108,0,.144-.015.288-.025.476h-8.221c-.016-.255-.044-.515-.045-.775,0-2.85,0-5.7-.005-8.551,0-1.4-.487-2.2-1.609-2.5a3.178,3.178,0,0,0-2.983.647,1.586,1.586,0,0,0-.514,1.339c.009,3.058-.014,6.116-.029,9.174,0,.207-.026.413-.043.666h-7.945V47.99Z" transform="translate(-779.442 86.141)" fill="#e61003"/>
      <path id="Path_391" data-name="Path 391" d="M815.433,44.862a10.973,10.973,0,0,1-21.937-.573c.081-5.634,4.969-10.424,11.25-10.356a10.863,10.863,0,0,1,10.687,10.929m-8.006-.2c0-1.644.009-3.287,0-4.931a2.531,2.531,0,0,0-1.531-2.567,3.474,3.474,0,0,0-3.5.287,2.269,2.269,0,0,0-.994,1.862q-.014,5.274,0,10.548a2.511,2.511,0,0,0,1.182,2.082,3.728,3.728,0,0,0,2.037.409,2.718,2.718,0,0,0,2.818-2.821c-.044-1.622-.01-3.245-.01-4.868" transform="translate(-615.719 97.989)" fill="#e61003"/>
      <path id="Path_392" data-name="Path 392" d="M210.955,34.772a10.811,10.811,0,0,1,10.909,10.893c.046,5.777-4.988,10.6-10.958,10.6a10.926,10.926,0,0,1-11.011-11.124c.085-5.606,5.074-10.366,11.061-10.367m2.863,10.723c0-1.707.006-3.413,0-5.12a2.468,2.468,0,0,0-1.39-2.339,3.512,3.512,0,0,0-3.248.009A2.389,2.389,0,0,0,207.8,40.26q-.027,5.151,0,10.3a2.311,2.311,0,0,0,1.349,2.225,5.084,5.084,0,0,0,1.918.356,2.575,2.575,0,0,0,2.754-2.715c.011-1.644,0-3.288,0-4.932" transform="translate(-96.239 97.254)" fill="#e61003"/>
      <path id="Path_393" data-name="Path 393" d="M638.837,51.786c0,1.305.011,2.571-.013,3.837a1.127,1.127,0,0,1-.278.538q-4.348,6.016-8.7,12.027c-.116.161-.218.332-.388.592h8.918V71.1h-21.14c.049-.941-.2-1.858.492-2.794,3.221-4.341,6.365-8.74,9.537-13.118.156-.215.309-.433.553-.775H617.248v-2.63Z" transform="translate(-461.462 82.364)" fill="#e61003"/>
      <path id="Path_394" data-name="Path 394" d="M402.537,54.259A11.6,11.6,0,0,0,396.951,56a.894.894,0,0,0-.51.889c.017,3.369.009,6.738.009,10.107v.728h-9.2V48.4h9.159v1.978a12.671,12.671,0,0,1,6.124-2.456Z" transform="translate(-260.204 85.746)" fill="#e61003"/>
      <rect id="Rectangle_74" data-name="Rectangle 74" width="9.136" height="19.354" transform="translate(144.425 134.137)" fill="#e61003"/>
    </g>
  </g>
</svg>
