<svg id="Layer_1" data-name="Layer 1" xmlns="http://www.w3.org/2000/svg" viewBox="0 0 100 100"><defs><style>.cls-1{fill:#fff;}</style></defs><path class="cls-1" d="M72.5177.901H27.4823A26.6111,26.6111,0,0,0,.901,27.4823V72.5184A26.611,26.611,0,0,0,27.4823,99.099H72.5184A26.6108,26.6108,0,0,0,99.099,72.5184V27.4823A26.6111,26.6111,0,0,0,72.5177.901ZM50,76.85A26.85,26.85,0,1,1,76.85,50,26.88,26.88,0,0,1,50,76.85ZM77.4923,29.4819A7.9343,7.9343,0,1,1,85.427,21.548,7.9423,7.9423,0,0,1,77.4923,29.4819Z"/></svg>