<svg id="Group_15" data-name="Group 15" xmlns="http://www.w3.org/2000/svg" xmlns:xlink="http://www.w3.org/1999/xlink" width="330" height="279.38" viewBox="0 0 330 279.38">
  <defs>
    <clipPath id="clip-path">
      <rect id="Rectangle_5" data-name="Rectangle 5" width="330" height="279.38" fill="none"/>
    </clipPath>
  </defs>
  <g id="Group_8" data-name="Group 8">
    <g id="Group_7" data-name="Group 7" clip-path="url(#clip-path)">
      <line id="Line_1" data-name="Line 1" x2="330" transform="translate(0 184.583)" fill="none" stroke="#fff" stroke-width="1"/>
    </g>
  </g>
  <line id="Line_2" data-name="Line 2" x2="323.086" transform="translate(2.433 72.587)" fill="none" stroke="#fff" stroke-width="1"/>
  <g id="Group_10" data-name="Group 10">
    <g id="Group_9" data-name="Group 9" clip-path="url(#clip-path)">
      <line id="Line_3" data-name="Line 3" x2="169.331" transform="translate(160.5 128.585)" fill="none" stroke="#fff" stroke-width="1"/>
    </g>
  </g>
  <line id="Line_4" data-name="Line 4" y2="218.289" transform="translate(279.992 43.268)" fill="none" stroke="#fff" stroke-width="1"/>
  <g id="Group_12" data-name="Group 12">
    <g id="Group_11" data-name="Group 11" clip-path="url(#clip-path)">
      <line id="Line_5" data-name="Line 5" y2="216.165" transform="translate(206.654)" fill="none" stroke="#fff" stroke-width="1"/>
      <line id="Line_6" data-name="Line 6" y2="94.19" transform="translate(133.316 185.19)" fill="none" stroke="#fff" stroke-width="1"/>
    </g>
  </g>
  <line id="Line_7" data-name="Line 7" y2="216.165" transform="translate(59.979 47.746)" fill="none" stroke="#fff" stroke-width="1"/>
  <rect id="Rectangle_8" data-name="Rectangle 8" width="16.556" height="14.271" transform="translate(165 205.312)" fill="#adadad"/>
  <rect id="Rectangle_9" data-name="Rectangle 9" width="15.121" height="11.687" transform="translate(299.695 37.424)" fill="#adadad"/>
  <rect id="Rectangle_10" data-name="Rectangle 10" width="11.235" height="8.684" transform="translate(22.638 151.487)" fill="#adadad"/>
  <g id="Group_14" data-name="Group 14">
    <g id="Group_13" data-name="Group 13" clip-path="url(#clip-path)">
      <line id="Line_8" data-name="Line 8" x2="60" transform="translate(0.5 128.585)" fill="none" stroke="#fff" stroke-width="1"/>
      <path id="Path_90" data-name="Path 90" d="M114.71,110.54a.06.06,0,0,0,.04.01.254.254,0,0,0,.12-.02c-.06,0-.11.01-.16.01" fill="#fff" fill-rule="evenodd"/>
      <path id="Path_91" data-name="Path 91" d="M114.71,110.54a.06.06,0,0,0,.04.01.254.254,0,0,0,.12-.02c-.06,0-.11.01-.16.01m0,0a.06.06,0,0,0,.04.01.254.254,0,0,0,.12-.02c-.06,0-.11.01-.16.01m0,0a.06.06,0,0,0,.04.01.254.254,0,0,0,.12-.02c-.06,0-.11.01-.16.01m0,0a.06.06,0,0,0,.04.01.254.254,0,0,0,.12-.02c-.06,0-.11.01-.16.01m0,0a.06.06,0,0,0,.04.01.254.254,0,0,0,.12-.02c-.06,0-.11.01-.16.01m0,0a.06.06,0,0,0,.04.01.254.254,0,0,0,.12-.02c-.06,0-.11.01-.16.01m0,0a.06.06,0,0,0,.04.01.254.254,0,0,0,.12-.02c-.06,0-.11.01-.16.01m0,0a.06.06,0,0,0,.04.01.254.254,0,0,0,.12-.02c-.06,0-.11.01-.16.01m0,0a.06.06,0,0,0,.04.01.254.254,0,0,0,.12-.02c-.06,0-.11.01-.16.01m0,0a.06.06,0,0,0,.04.01.254.254,0,0,0,.12-.02c-.06,0-.11.01-.16.01m0,0a.06.06,0,0,0,.04.01.254.254,0,0,0,.12-.02c-.06,0-.11.01-.16.01m0,0a.06.06,0,0,0,.04.01.254.254,0,0,0,.12-.02c-.06,0-.11.01-.16.01m0,0a.06.06,0,0,0,.04.01.254.254,0,0,0,.12-.02c-.06,0-.11.01-.16.01"/>
      <path id="Path_92" data-name="Path 92" d="M100.77,86.24a.508.508,0,0,0-.1.29.528.528,0,0,1,.01-.13.367.367,0,0,1,.09-.16" fill="#fff" fill-rule="evenodd"/>
      <path id="Path_93" data-name="Path 93" d="M134.24,86.53a.453.453,0,0,0-.03-.16c.01.01.02.02.02.03a.528.528,0,0,1,.01.13" fill="#fff" fill-rule="evenodd"/>
      <path id="Path_94" data-name="Path 94" d="M134.23,86.4c0-.01-.01-.02-.02-.03a.453.453,0,0,1,.03.16.528.528,0,0,0-.01-.13m-33.55,0a.528.528,0,0,0-.01.13.508.508,0,0,1,.1-.29.367.367,0,0,0-.09.16"/>
      <path id="Path_95" data-name="Path 95" d="M114.87,110.53a.254.254,0,0,1-.12.02.06.06,0,0,1-.04-.01c.05,0,.1-.01.16-.01" fill="#fff" fill-rule="evenodd"/>
      <path id="Path_96" data-name="Path 96" d="M134.71,119.79a23.293,23.293,0,0,0-6.56-7.47,15.2,15.2,0,0,0-6.27-2.64c-.14-.03-.28-.05-.42-.07a3.175,3.175,0,0,0-.43-.06l.22-.39.22-.37,12.09-20.92.23-.4.34-.6.04-.06c.01-.02.02-.03.02-.05a.261.261,0,0,0,.03-.08.389.389,0,0,0,.02-.15.453.453,0,0,0-.03-.16.348.348,0,0,0-.07-.15.3.3,0,0,0-.08-.08.12.12,0,0,0-.05-.05c-.01-.01-.02-.01-.03-.02l-.01-.01a.142.142,0,0,0-.06-.02c-.01-.01-.02-.01-.04-.02l-.7-.24-.45-.15-4.28-1.47a.5.5,0,0,0-.34,0l-5.25,1.8-5.23-1.8a.555.555,0,0,0-.36,0l-5.22,1.8-5.24-1.8a.555.555,0,0,0-.36,0l-4.25,1.46-.44.15-.72.25a.161.161,0,0,0-.07.04c-.01,0-.01.01-.02.01a.01.01,0,0,0-.01.01.236.236,0,0,0-.09.08.27.27,0,0,0-.07.08.508.508,0,0,0-.1.29.456.456,0,0,0,.05.23c0,.02.01.03.02.05l.04.06.34.6.23.4,12.08,20.92.22.38.21.37c-.14.02-.28.03-.42.06s-.28.04-.42.07a15.4,15.4,0,0,0-6.27,2.65,23.4,23.4,0,0,0-6.56,7.47,44.472,44.472,0,0,0-5.36,21.59c0,6.55,1.39,12.51,3.93,16.78,2.93,4.89,7.24,7.48,12.49,7.48h12.41c5.24,0,9.56-2.59,12.48-7.48,2.54-4.25,3.94-10.21,3.94-16.78a44.565,44.565,0,0,0-5.37-21.59m-32.3-32.24-.21-.35v-.01l-.2-.35.39-.13.38-.13,3.87-1.33,5.23,1.8a.555.555,0,0,0,.36,0l5.23-1.8,5.23,1.8a.555.555,0,0,0,.36,0l5.23-1.8,3.85,1.32.39.13h.01l.37.14-.4.7-12.2,21.12-.23.39-.23.4c-.14-.01-.29-.02-.44-.02a2.62,2.62,0,0,0-.28-.01H115.5c-.15.01-.3.01-.45.02l-.23-.39-.22-.39Zm32.79,70.06c-2.72,4.6-6.61,6.93-11.54,6.93H111.25c-11.32,0-15.34-12.47-15.34-23.15,0-14.27,6.56-29,17.68-30.72.15-.03.3-.05.45-.07l.67-.06c.05,0,.1-.01.16-.01h.03c.21-.02.42-.02.64-.03h3.84c.26.01.52.02.78.04.23.01.46.04.69.06h.01c.15.02.3.04.45.07,11.12,1.72,17.68,16.45,17.68,30.72,0,6.35-1.34,12.11-3.79,16.22" fill="#fff" fill-rule="evenodd"/>
      <path id="Path_97" data-name="Path 97" d="M123.77,143.24a6.326,6.326,0,0,1-4.98,6.17,2.569,2.569,0,0,1-.4.07,1.752,1.752,0,0,1-.4.05v2.31a.52.52,0,0,1-.15.38.546.546,0,0,1-.38.16h-.01a.537.537,0,0,1-.38-.15.57.57,0,0,1-.16-.39v-2.31a2.572,2.572,0,0,1-.4-.05,2.793,2.793,0,0,1-.4-.07,6.355,6.355,0,0,1-4.98-6.17.55.55,0,0,1,1.1,0,5.223,5.223,0,0,0,4.14,5.11,2.321,2.321,0,0,0,.46.07,3.281,3.281,0,0,0,.63.05,4.211,4.211,0,0,0,.62-.04,3.4,3.4,0,0,0,.46-.08,5.215,5.215,0,0,0,4.15-5.11c0-3.7-2.03-4.44-5.38-5.24-2.89-.7-6.17-1.49-6.17-6.29a6.277,6.277,0,0,1,4.97-6.09,8.278,8.278,0,0,1,.8-.12v-2.29a.54.54,0,1,1,1.08,0v2.29a1.752,1.752,0,0,1,.4.05,2.568,2.568,0,0,1,.4.06,6.259,6.259,0,0,1,4.98,6.09.54.54,0,1,1-1.08,0,5.232,5.232,0,0,0-4.09-5.1,2.032,2.032,0,0,0-.43-.07,4.165,4.165,0,0,0-.71-.06h-.01a4.2,4.2,0,0,0-.72.06,2.042,2.042,0,0,0-.43.08,5.222,5.222,0,0,0-4.07,5.09c0,3.78,2.03,4.46,5.35,5.24,2.9.69,6.19,1.46,6.19,6.3" fill="#fff" fill-rule="evenodd"/>
      <path id="Path_98" data-name="Path 98" d="M100.77,86.24a.508.508,0,0,0-.1.29.528.528,0,0,1,.01-.13.367.367,0,0,1,.09-.16" fill="#fff" fill-rule="evenodd"/>
      <path id="Path_99" data-name="Path 99" d="M134.24,86.53a.453.453,0,0,0-.03-.16c.01.01.02.02.02.03a.528.528,0,0,1,.01.13" fill="#fff" fill-rule="evenodd"/>
    </g>
  </g>
</svg>
