<?xml version="1.0" encoding="utf-8"?>
<!-- Generator: Adobe Illustrator 27.0.1, SVG Export Plug-In . SVG Version: 6.00 Build 0)  -->
<svg version="1.1" id="Layer_1" xmlns="http://www.w3.org/2000/svg" xmlns:xlink="http://www.w3.org/1999/xlink" x="0px" y="0px"
	 viewBox="0 0 2500 2500" style="enable-background:new 0 0 2500 2500;" xml:space="preserve">
<style type="text/css">
	.st0{fill-rule:evenodd;clip-rule:evenodd;fill:#505E86;stroke:#505E86;stroke-width:5.6029;stroke-miterlimit:33.89;}
	.st1{fill-rule:evenodd;clip-rule:evenodd;fill:#505E86;}
</style>
<g>
	<path class="st0" d="M400.7,1209.5h16.9v40h17.7l77-40h30.8l-87.8,46.2l90.1,49.3h-30l-78.6-42.4h-19.3v42.4h-16.9L400.7,1209.5
		L400.7,1209.5z M698,1276.5c0,9.2-3.8,17-10,21.6c-6.2,4.6-16.2,6.9-28.5,6.9h-94.7v-95.5h90.9c12.3,0,21.6,1.5,27.7,6.2
		c6.9,4.6,10,11.6,10,20.8s-4.6,15.4-13.1,18.5c4.6,0.8,8.5,3.1,11.6,6.9C695.7,1265.7,698,1270.3,698,1276.5z M675.7,1236.4
		c0-4.6-1.5-7.7-3.9-10.8c-3.9-2.3-9.2-3.9-16.2-3.9h-73.2v27h73.2c7.7,0,13.1-0.8,15.4-3.1C674.1,1243.6,675.8,1240.1,675.7,1236.4
		L675.7,1236.4z M582.5,1261.8v30h77c6.9,0,11.6-1.5,15.4-3.9c3.1-3.1,5.4-6.9,5.4-11.6c0-3.9-2.3-7.7-5.4-10.8
		c-3.9-2.3-8.5-3.9-15.4-3.9L582.5,1261.8L582.5,1261.8L582.5,1261.8z M808.2,1209.5l63.2,95.5h-20l-14.6-21.6h-84.7l-13.9,21.6
		h-19.3l62.4-95.5H808.2L808.2,1209.5z M829,1270.3l-31.6-50.1h-4.6l-32.3,50.1H829z M890.6,1250.3h59.3v12.3h-59.3V1250.3z
		 M973,1305v-95.5h97c10,0,18.5,2.3,24.6,6.9c6.2,5.4,9.2,13.1,9.2,23.1c0,10-3.1,17.7-9.2,23.1c-6.2,4.6-14.6,6.9-25.4,6.9h-78.6
		v35.4L973,1305L973,1305L973,1305z M990.7,1257.2h78.6c5.4,0,9.2-1.5,12.3-4.6c3.1-2.3,4.6-6.9,4.6-13.1c0-6.2-1.5-10.8-4.6-13.1
		c-3.1-3.1-6.9-4.6-12.3-4.6h-78.6V1257.2L990.7,1257.2z M1128.6,1209.5h17.7v82.4h90.9v13.1h-108.6V1209.5L1128.6,1209.5z
		 M1338.9,1209.5l62.4,95.5h-20l-13.9-21.6h-84.7l-13.9,21.6h-20.1l62.4-95.5H1338.9L1338.9,1209.5z M1359.6,1270.3l-32.3-50.1h-4.6
		l-32.3,50.1H1359.6L1359.6,1270.3z M1422.8,1209.5h25.4l101.7,83.2v-83.2h17.7v95.5h-26.2l-100.9-84v84h-17.7V1209.5z
		 M1602.2,1209.5h113.2v12.3h-95.5v27.7h92.4v13.1h-92.4v29.3h95.5v13.1h-113.2L1602.2,1209.5L1602.2,1209.5z M1747,1209.5h124v12.3
		h-53.2v83.2h-17.7v-83.2H1747L1747,1209.5L1747,1209.5z M1975,1209.5l63.1,95.5h-20l-14.6-21.6h-84.7l-13.9,21.6h-19.2l62.4-95.5
		H1975L1975,1209.5z M1995.8,1270.3l-31.6-50.1h-4.6l-32.3,50.1H1995.8z M2225.4,1209.5l63.1,95.5h-20l-14.6-21.6h-84.7l-13.9,21.6
		H2136l62.4-95.5H2225.4L2225.4,1209.5z M2246.1,1270.3l-31.6-50.1h-4.6l-32.3,50.1H2246.1z M2322.4,1257.2
		c0,17.7,2.3,27.7,6.9,31.6c4.6,3.1,20,4.6,45.4,4.6c24.6,0,39.3-0.8,44.7-3.1c5.4-3.1,7.7-10,7.7-21.6h-57v-13.1h74.7v13.1
		c0,16.2-3.9,27-12.3,30.8c-8.5,4.6-27.7,6.9-57.8,6.9c-30.8,0-50.1-3.1-58.5-8.5c-7.7-6.2-11.6-19.2-11.6-41.6
		c0-21.6,3.9-34.7,11.6-40.8c7.7-5.4,27.7-6.9,58.5-6.9c30,0,49.3,0.8,57.8,4.6c8.5,3.1,12.3,12.3,12.3,27h-17.7
		c0-9.2-2.3-14.6-8.5-17c-5.4-1.5-20-3.1-43.9-3.1c-26.2,0-40.8,2.3-45.4,5.4C2324.7,1228.7,2322.4,1239.5,2322.4,1257.2
		L2322.4,1257.2z"/>
	<path class="st1" d="M55.1,1303.7h133.6c5.7,33.3,35,59.1,70.1,59.1c35.5,0,64.8-25.8,70.1-59.1h21v-25.4h-21.5
		c-6.1-32.4-35-57-69.6-57c-21.5,0-41.2,9.6-53.9,25c7.2-11.4,11-24.6,10.9-38.1c0-39-32-71-71.4-71c-39,0-71,32-71,71
		c0,35,25.4,64,58.3,70.1H55.1L55.1,1303.7L55.1,1303.7z M216.3,1303.7h85.4c-5.5,19.1-23,32.4-42.9,32.4
		C238.7,1336.1,221.2,1322.1,216.3,1303.7z M300.9,1278.3h-84.1c6.1-17.5,22.8-30.2,42-30.2C277.9,1248,294.9,1260.2,300.9,1278.3z
		 M189.2,1278.3h-31.5c16.1-3.1,30.6-11.6,41.2-24.1C194.4,1261.6,190.9,1269.5,189.2,1278.3z M144.5,1164.4l18.8,32.9l19.3,32.9
		h-25.4l-2.6-5.7h-19.7l-3.1,5.7h-25.4l19.3-32.9L144.5,1164.4L144.5,1164.4z M147.1,1193.3l6.6,10.9l6.6,10.9h-25.8l10.5-7.9
		L147.1,1193.3z M158.5,1228.8l-2.2-4.4l6.1-4.8l3.5,4.8L158.5,1228.8z M109,1228.3l35-60l-0.4,16.6l-21.9,38.1L109,1228.3
		L109,1228.3z M144.5,1252.4c24.5,0,44.7-19.7,44.7-44.3c0-24.1-20.2-44.2-44.7-44.2c-24.1,0-44.2,20.2-44.2,44.2
		C100.3,1232.7,120.4,1252.4,144.5,1252.4z"/>
</g>
</svg>
