<svg xmlns="http://www.w3.org/2000/svg" xmlns:xlink="http://www.w3.org/1999/xlink" width="144.421" height="55" viewBox="0 0 144.421 55">
  <defs>
    <clipPath id="clip-path">
      <rect id="Rectangle_72" data-name="Rectangle 72" width="144.421" height="55" transform="translate(0.3)" fill="#fff"/>
    </clipPath>
  </defs>
  <g id="Mask_Group_14" data-name="Mask Group 14" transform="translate(-0.3)" clip-path="url(#clip-path)">
    <path id="Logo_Kolbus" d="M0,27.519V15.868A15.883,15.883,0,0,0,15.868,0H27.519A27.57,27.57,0,0,1,0,27.519ZM18.783,23.3A29.53,29.53,0,0,1,6.852,29.1a15.888,15.888,0,0,1,9.016,14.3H27.519A27.427,27.427,0,0,0,18.783,23.3Zm34.13,8.424-9.129-10.5,7.781-9.563h-5.81l-6.989,8.863V11.656H33.349V31.721h5.417V22.658l7.628,9.062Zm8.8.623c6.127,0,11.074-4.452,11.074-10.6s-4.952-10.6-11.074-10.6-11.14,4.447-11.14,10.6,4.988,10.6,11.14,10.6Zm0-4.253c-3.38,0-5.386-2.507-5.386-6.351s2.006-6.356,5.386-6.356,5.32,2.486,5.32,6.356-1.976,6.341-5.32,6.341ZM90.5,31.772h9.236c5.049,0,7.025-2.64,7.025-5.887a5.386,5.386,0,0,0-3.247-4.983,5.106,5.106,0,0,0,2.17-3.947c0-2.88-1.741-5.254-6.29-5.254H90.5Zm5.422-12.253v-4.37H98.1c1.6,0,2.44.771,2.44,2.211s-.837,2.17-2.44,2.17Zm0,8.8v-5.34h2.44c2.109,0,3.145.9,3.145,2.675s-1.021,2.675-3.145,2.675Zm22.26,4.018c5.417,0,9.7-3.063,9.7-9.838V11.7h-5.32V22.2c0,3.548-1.4,5.453-4.314,5.453s-4.284-1.9-4.284-5.453V11.7h-5.483v10.8c0,6.79,4.314,9.838,9.7,9.838Zm18.645-.138c4.084,0,7.893-1.772,7.893-6.489,0-3.615-2.042-5.718-7.056-6.892-2.272-.511-2.874-1.1-2.874-2.042s.9-1.608,2.338-1.608a11.232,11.232,0,0,1,5.555,1.741l1.1-3.63a11.773,11.773,0,0,0-6.591-2.042c-4.478,0-7.357,2.374-7.357,6.019,0,2.977,1.573,5.417,6.157,6.489,2.874.669,3.742,1.2,3.742,2.507,0,1.4-1.271,2.042-2.91,2.042a10.007,10.007,0,0,1-6.321-2.675l-1.2,4A11.651,11.651,0,0,0,136.828,32.2Zm-62.287-.434H88.489V27.677H79.963V11.692H74.541Z" transform="translate(0 6)" fill="#003570"/>
  </g>
</svg>
