<svg xmlns="http://www.w3.org/2000/svg" xmlns:xlink="http://www.w3.org/1999/xlink" width="205.471" height="55" viewBox="0 0 205.471 55">
  <defs>
    <clipPath id="clip-path">
      <rect id="Rectangle_68" data-name="Rectangle 68" width="205.471" height="55" transform="translate(0.1)" fill="#fff"/>
    </clipPath>
    <clipPath id="clip-path-2">
      <rect id="Rectangle_58" data-name="Rectangle 58" width="205.571" height="22.663" fill="#fff"/>
    </clipPath>
  </defs>
  <g id="Mask_Group_18" data-name="Mask Group 18" transform="translate(-0.1)" clip-path="url(#clip-path)">
    <g id="Mask_Group_6" data-name="Mask Group 6" transform="translate(0 16)" clip-path="url(#clip-path-2)">
      <g id="Komori-01" transform="translate(0)">
        <path id="Path_372" data-name="Path 372" d="M305.1,137.7h-5.3V115.258a1.469,1.469,0,0,1,.357-.076c2.649,0,5.273-.025,7.922.025a1.3,1.3,0,0,1,.841.484c3.846,4.891,7.667,9.807,11.514,14.7.229.306.459.586.764.943.993-1.274,1.961-2.5,2.9-3.694,3.108-3.974,6.19-7.922,9.272-11.9a1.277,1.277,0,0,1,1.146-.56c2.42.025,4.84,0,7.234,0h.815v22.492h-5.247V121.04a7.25,7.25,0,0,0-.56.611c-4,5.171-8,10.316-11.972,15.487a1.343,1.343,0,0,1-1.274.611c-1.579-.026-3.159-.026-4.712,0a1.276,1.276,0,0,1-1.146-.56c-3.948-5.146-7.922-10.266-11.87-15.386a1.645,1.645,0,0,0-.662-.56Q305.086,129.459,305.1,137.7Z" transform="translate(-224.605 -115.13)" fill="#00317b"/>
        <path id="Path_373" data-name="Path 373" d="M160.781,137.794c-4.127,0-8.228-.076-12.354.026a5.511,5.511,0,0,1-5.731-5.731c.076-3.744,0-7.463.025-11.208a5.322,5.322,0,0,1,5.68-5.68h24.861a5.309,5.309,0,0,1,5.68,5.68c0,3.77.025,7.514,0,11.284a5.308,5.308,0,0,1-5.629,5.63ZM148.146,120.7v11.539h25.142V120.7Z" transform="translate(-107.517 -115.149)" fill="#00317b"/>
        <path id="Path_374" data-name="Path 374" d="M497.5,137.738H485.074a5.261,5.261,0,0,1-5.63-5.553c-.026-3.846-.026-7.667,0-11.514A5.221,5.221,0,0,1,485,115.144q12.494-.038,25.014,0a5.282,5.282,0,0,1,5.6,5.655v11.284a5.315,5.315,0,0,1-5.63,5.655ZM484.87,120.646v11.539h25.142V120.646Z" transform="translate(-358.474 -115.093)" fill="#00317b"/>
        <path id="Path_375" data-name="Path 375" d="M640.061,137.718H634.1V115.2h30.313c3.592,0,5.757,2.165,5.782,5.731v1.91c-.026,1.783-.637,3.133-2.649,3.566.2.127.28.2.382.255a3.015,3.015,0,0,1,2.242,3.082c.025,2.649,0,5.273,0,7.973h-5.5v-9.5H640.061Zm25.167-18.06H640.214v3.77h25.014Z" transform="translate(-473.749 -115.149)" fill="#00317b"/>
        <path id="Path_376" data-name="Path 376" d="M18,126.333c7.489,3.77,14.851,7.489,22.187,11.183-.025.051-.025.1-.051.153H37.664c-2.8,0-5.579.025-8.381-.025a3.216,3.216,0,0,1-1.376-.331c-5.808-2.955-11.616-5.935-17.423-8.89-.229-.1-.459-.2-.764-.331v9.629H4.6V115.151H9.669v9.476c.357-.178.637-.306.892-.433,5.655-2.929,11.31-5.833,16.99-8.763a2.1,2.1,0,0,1,.841-.306c3.617-.025,7.209-.025,11-.025C32.238,118.87,25.207,122.564,18,126.333Z" transform="translate(-4.6 -115.075)" fill="#00317b"/>
        <path id="Path_377" data-name="Path 377" d="M793.633,137.594H787.8V115h5.833Z" transform="translate(-588.298 -115)" fill="#00317b"/>
      </g>
    </g>
  </g>
</svg>
