<svg xmlns="http://www.w3.org/2000/svg" width="429" height="319.607" viewBox="0 0 429 319.607">
  <g id="illus" transform="translate(-19.058 -81.046)">
    <path id="Path_19431" data-name="Path 19431" d="M274.132,314.31h0a2.26,2.26,0,0,0-1.78,1.513c0,.125-.071.445.739.73a.988.988,0,0,0,.89-.151,1.4,1.4,0,0,0,.578-1.094C274.55,314.649,274.408,314.31,274.132,314.31Zm0,0h0a2.26,2.26,0,0,0-1.78,1.513c0,.125-.071.445.739.73a.988.988,0,0,0,.89-.151,1.4,1.4,0,0,0,.578-1.094C274.55,314.649,274.408,314.31,274.132,314.31Zm0,0h0a2.26,2.26,0,0,0-1.78,1.513c0,.125-.071.445.739.73a.988.988,0,0,0,.89-.151,1.4,1.4,0,0,0,.578-1.094C274.55,314.649,274.408,314.31,274.132,314.31Zm0,0h0a2.26,2.26,0,0,0-1.78,1.513c0,.125-.071.445.739.73a.988.988,0,0,0,.89-.151,1.4,1.4,0,0,0,.578-1.094C274.55,314.649,274.408,314.31,274.132,314.31Zm13.036-20.119s-14.237-9.743-14.744-8.9c-3.559,5.73-12.582,8.48-12.582,8.48s-10.375,39.152-8.685,57.74c2.038,22.343,29.56,30.022,40.522,29.64l10.037,1.272c2.669-29.773-13.454-71.132-14.54-88.234Zm-12.146,23.66a2.785,2.785,0,0,1-1.611.525,2.67,2.67,0,0,1-.89-.142c-2.091-.712-2-2.251-1.922-2.669a3.977,3.977,0,0,1,3.559-3h0c1.059,0,2.189.747,2.171,2.785A3.2,3.2,0,0,1,275.022,317.852Zm.792-11.505a2.5,2.5,0,0,1-1.735.685,2.882,2.882,0,0,1-1-.178,2.723,2.723,0,0,1-1.843-3.043,3.025,3.025,0,0,1,2.669-2.732,3.2,3.2,0,0,1,.979.071,2.527,2.527,0,0,1,1.78,1.9,3.5,3.5,0,0,1-.881,3.337Zm-1.646,8.008h0a2.26,2.26,0,0,0-1.78,1.513c0,.125-.071.445.739.73a.988.988,0,0,0,.89-.151,1.4,1.4,0,0,0,.578-1.094c-.045-.7-.187-1.041-.463-1.041Zm0,0h0a2.26,2.26,0,0,0-1.78,1.513c0,.125-.071.445.739.73a.988.988,0,0,0,.89-.151,1.4,1.4,0,0,0,.578-1.094c-.045-.7-.187-1.041-.463-1.041Zm0,0h0a2.26,2.26,0,0,0-1.78,1.513c0,.125-.071.445.739.73a.988.988,0,0,0,.89-.151,1.4,1.4,0,0,0,.578-1.094c-.045-.7-.187-1.041-.463-1.041Z" transform="translate(-25.554 -22.499)" fill="#fff"/>
    <path id="Path_19432" data-name="Path 19432" d="M145.66,252.279a22.984,22.984,0,0,1-5.339,7.466,24.6,24.6,0,0,1-2.572,2.153,34.561,34.561,0,0,1-10.589,4.849l-1.237.356a7.188,7.188,0,0,0-1.086.409,3.559,3.559,0,0,0-1.584,1.441,9.85,9.85,0,0,0-.836,2.883,13.516,13.516,0,0,1-.943,3.194c-.311.641-.658.356-.89-.311a6.487,6.487,0,0,1-.071-2.874,13.347,13.347,0,0,1,1.005-3.435,5.437,5.437,0,0,1,3.025-2.669l.89-.285.783-.214c.516-.142,1.041-.267,1.548-.436,1.041-.3,2.064-.65,3.079-1.023a25.385,25.385,0,0,0,6.8-3.969,22.112,22.112,0,0,0,5.615-6.531,24.239,24.239,0,0,0,2.029-4.965l.329-1.139a3.151,3.151,0,0,1,.32-.774.641.641,0,0,1,.276-.258c.089-.116.24-.1.365-.125h3.168a5.686,5.686,0,0,0,2.669-.632.836.836,0,0,0,.383-.89,3.71,3.71,0,0,0-.587-1.219c-.569-.819-1.264-1.593-1.958-2.411-.3-.365-.614-.712-.89-1.1-1.077-1.477-1.183-2.216-.89-2.714a1.539,1.539,0,0,1,.214-.32c.311-.231.658.32,1.361,1.264,1.032,1.441,2.456,2.714,3.657,4.565a7.6,7.6,0,0,1,.418.756,3.355,3.355,0,0,1,.3,1.032,2.4,2.4,0,0,1-1.005,2.322,4.823,4.823,0,0,1-1.78.765,11.151,11.151,0,0,1-1.655.222c-.552,0-1.086.044-1.611.044H147.28l-.08.258-.463,1.459a26.177,26.177,0,0,1-1.059,2.892Z" transform="translate(-11.165 -17.149)" fill="#fff"/>
    <path id="Path_19433" data-name="Path 19433" d="M143.25,229.569a.623.623,0,0,1,.071-.712c0-.08.249-.125.3-.071l.285.347a8.659,8.659,0,0,0,1.032,1.522c.294.294.543.605.81.89a2.919,2.919,0,0,0,.89.578,2.091,2.091,0,0,0,.89.1,1.224,1.224,0,0,0,.427-.053h.285c.08,0,.08-.062.142-.08a1.228,1.228,0,0,0,.116-.614.418.418,0,0,0,0-.267c-.044-.071-.1-.489-.222-.961s-.267-.943-.294-1.059a13.344,13.344,0,0,0-.436-1.708c0-.089-.08-.16-.062-.258a.747.747,0,0,0-.125-.552c-.1-.231-.2-.463-.285-.712a1.1,1.1,0,0,1,0-.427c0-.133.187-.178.231-.16s.151-.062.222-.116a.214.214,0,0,1,.071-.053,6.229,6.229,0,0,1,1.237,1.335,3.753,3.753,0,0,0,.187.338l.365.756c.258.561.5,1.175.543,1.308a1.584,1.584,0,0,1,.08.418,8.6,8.6,0,0,1,.267,1.014,4.78,4.78,0,0,1,.125,1.139,2.287,2.287,0,0,1-.5,1.495c-.08.08-.169.178-.249.276a1.868,1.868,0,0,1-.641.481,3.639,3.639,0,0,1-1.78.267,3.977,3.977,0,0,1-1.2-.3.89.89,0,0,1-.187-.125,1.958,1.958,0,0,0-.222-.151,5.632,5.632,0,0,1-1.78-1.931c-.107-.169-.374-1.041-.445-1.237S143.3,229.658,143.25,229.569Z" transform="translate(-13.675 -15.884)" fill="#fff"/>
    <path id="Path_19434" data-name="Path 19434" d="M106.238,233.579c3.23,9.557-11.238,23.331-23.918,25.048-10.526,1.433-21.765-2.269-28.857-10.277-9.788-11.051-4.743-27.344,3.337-38,12.511-16.5,31.642-29.907,52.277-29.809,10.277.053,13.347,3.853,17.672,5.152,9.281-8.142,31.7-12.8,34.97,5.2,1.984,10.918-9.21,19.3-20.59,20.572-14.379,1.611-17.458-3.915-19.576-5.205-2.527-1.691-10.073,11.906-11.336,12.876-2.919-2.839-9.147-4.6-12.546-1.593C88.113,226,103.044,234.584,106.238,233.579Z" transform="translate(-3.198 -10.737)" fill="#fff"/>
    <path id="Path_19435" data-name="Path 19435" d="M143.108,179.635a32.256,32.256,0,0,0-11.977,4.022,26.061,26.061,0,0,0-2.669,1.78,6.838,6.838,0,0,0-.614.48l-.507.418-.294.24c-.1.08-.187.214-.32.116l-1.272-.427-.8-.338c-2.091-.961-3.906-2.064-5.882-2.821a29.364,29.364,0,0,0-12.529-1.619,51.973,51.973,0,0,0-12.653,2.3,65.757,65.757,0,0,0-16.906,8.382A82.235,82.235,0,0,0,64,202.939c-.961,1.006-1.931,2-2.83,3.07l-1.379,1.575-1.308,1.628a45.925,45.925,0,0,0-4.716,6.852A38.351,38.351,0,0,0,48.7,231.7a24.274,24.274,0,0,0,.783,8.133l.285.988a5.392,5.392,0,0,0,.347.961l.828,1.869,1.041,1.78a16.758,16.758,0,0,0,1.255,1.637,29.6,29.6,0,0,0,11.7,8.631,33.394,33.394,0,0,0,14.344,2.491c6.229-.151,12.19-2.945,17.111-6.78a32.149,32.149,0,0,0,6.478-6.709,15.323,15.323,0,0,0,3.159-8.444c-.053-1.851-.338-2.669-.125-2.669s.756.828,1.023,2.563a10.883,10.883,0,0,1-.071,3.15,15.705,15.705,0,0,1-1.264,3.9,25.9,25.9,0,0,1-6.229,8.106,38.059,38.059,0,0,1-8.3,5.615,27.584,27.584,0,0,1-9.69,2.856,33.812,33.812,0,0,1-10.028-.427,34.266,34.266,0,0,1-9.5-3.266,31.4,31.4,0,0,1-8.106-5.98,18.973,18.973,0,0,1-1.673-1.9l-.792-1.014-.383-.507-.329-.561-.65-1.1a6.852,6.852,0,0,1-.6-1.13c-.329-.792-.721-1.557-.979-2.376a24.977,24.977,0,0,1-1.166-10.064,35.308,35.308,0,0,1,2.3-9.788,46.653,46.653,0,0,1,5.713-10.607,86.945,86.945,0,0,1,7.795-9.281,79.523,79.523,0,0,1,19.2-14.878c7.821-4.209,16.577-7.038,25.555-7.118a28.216,28.216,0,0,1,13.134,2.438c1.023.463,2.011.988,2.981,1.495.489.249.97.48,1.459.7l.73.3.454.151c.053,0,.1-.053.142-.08l.2-.16c.214-.187.445-.365.667-.525.454-.347.89-.667,1.388-.979a31.845,31.845,0,0,1,2.919-1.691,35.086,35.086,0,0,1,7.777-2.83,28.252,28.252,0,0,1,8.257-.73,16.906,16.906,0,0,1,7.955,2.509,12.341,12.341,0,0,1,3.132,2.83,13.951,13.951,0,0,1,2.118,3.639,18.686,18.686,0,0,1,1.335,6.229,14.379,14.379,0,0,1-1.344,6.229,14.094,14.094,0,0,1-.721,1.415l-.89,1.335a21.274,21.274,0,0,1-2.073,2.394,24.028,24.028,0,0,1-2.385,2.073,26.631,26.631,0,0,1-2.669,1.708c-.89.552-1.86.961-2.794,1.424a15.521,15.521,0,0,1-2.945,1.068,28.883,28.883,0,0,1-6.113,1.237,30.345,30.345,0,0,1-12.351-.89,15.341,15.341,0,0,1-3.791-1.869,19.856,19.856,0,0,1-1.655-1.272,17.191,17.191,0,0,0-1.486-1.21.587.587,0,0,0-.489,0,2.544,2.544,0,0,0-.658.356,8.728,8.728,0,0,0-1.29,1.166,31.956,31.956,0,0,0-2.287,2.821c-1.442,1.967-2.767,4.031-4.12,6.077l-.516.774-.267.383-.3.436a6.779,6.779,0,0,1-.89,1.023l-.125.125s-.08.089-.133,0l-.258-.2-.534-.4c-.089-.062-.187-.151-.276-.222l-.24-.178c-.116-.08-.231-.178-.356-.249s-.481-.32-.739-.454a12.69,12.69,0,0,0-1.575-.739,9.245,9.245,0,0,0-6.594-.3,4.966,4.966,0,0,0-.81.418,8.286,8.286,0,0,0-.721.561l-.694.676-.614.73a6.638,6.638,0,0,0-1.442,3.363,5.855,5.855,0,0,0,.578,3.052,10.046,10.046,0,0,0,1.513,2.278,17.094,17.094,0,0,0,3.177,2.776,26.509,26.509,0,0,0,4.12,2.3,4.271,4.271,0,0,0,1.415.356c.276,0,.24.125-.178.285a4.583,4.583,0,0,1-2.136-.089,13.988,13.988,0,0,1-3.452-1.4,16.132,16.132,0,0,1-4.111-3.212,9.218,9.218,0,0,1-2.545-5.241A7.119,7.119,0,0,1,94,220.94a9.031,9.031,0,0,1,1.5-2.607,12.773,12.773,0,0,1,.988-1.086c.178-.169.338-.347.534-.507l.632-.489a7.741,7.741,0,0,1,2.91-1.157,11.665,11.665,0,0,1,5.935.632,12.537,12.537,0,0,1,2.669,1.317,4.92,4.92,0,0,1,.632.427l.142.107c0,.044.062,0,.089,0l.578-.89.774-1.157,1.548-2.34c1.05-1.557,2.127-3.123,3.328-4.636a20.13,20.13,0,0,1,2.011-2.207,6.53,6.53,0,0,1,1.344-1.005,2.588,2.588,0,0,1,.472-.214,2.065,2.065,0,0,1,.614-.151,2.028,2.028,0,0,1,.694,0,6.335,6.335,0,0,1,.641.249,7.749,7.749,0,0,1,.783.587l.623.534c.392.338.774.658,1.166.961a14.709,14.709,0,0,0,2.5,1.53,18.438,18.438,0,0,0,5.775,1.513,31.785,31.785,0,0,0,6.175.053,30.9,30.9,0,0,0,6.1-.988,25.377,25.377,0,0,0,10.945-6.077,15.545,15.545,0,0,0,3.559-5.019,12.911,12.911,0,0,0,1.014-5.926c-.311-4.093-2.171-8.222-5.561-10.455a13,13,0,0,0-2.669-1.406,16.85,16.85,0,0,0-3-.774,21.908,21.908,0,0,0-6.291-.062Z" transform="translate(-3.086 -10.662)" fill="#fff"/>
    <path id="Path_19436" data-name="Path 19436" d="M58.861,348.2q5.926-11.665,11.7-23.447,2.109-4.3,4.2-8.587c2.509-5.027,5.027-10.055,7.635-15.038,1.308-2.5,2.669-4.983,4.022-7.43a50.851,50.851,0,0,1,4.663-7.163,6.945,6.945,0,0,1,.721-.73,5.015,5.015,0,0,1,.454-.338,2.4,2.4,0,0,1,.641-.249,5.81,5.81,0,0,1,2.091.133,17.716,17.716,0,0,1,3.559,1.4c1.139.552,2.242,1.157,3.337,1.78a23.315,23.315,0,0,0,3.275,1.557,55.773,55.773,0,0,0,9.094,2.438c3.07.516,6.229.89,9.165.107.89-.267,1.281-.356,1.335-.187s-.276.561-1.032,1.041a9.592,9.592,0,0,1-3.47,1.121,18.989,18.989,0,0,1-5.143-.089,53.6,53.6,0,0,1-9.628-2.456l-1.166-.427a10.975,10.975,0,0,1-1.21-.516c-.774-.374-1.495-.765-2.207-1.157-1.424-.792-2.821-1.566-4.236-2.2a13.023,13.023,0,0,0-2.109-.747l-.507-.107h-.9c.053.294-.071-.4-.053-.311v.053a1.987,1.987,0,0,0,0,.2v.071h0a.132.132,0,0,0-.1.062,7.625,7.625,0,0,0-1.406,1.513c-.463.623-.89,1.272-1.344,1.949-1.735,2.669-3.319,5.535-4.894,8.391C81.6,305.69,78.1,313.075,74.557,320.194q-5.864,11.826-11.728,23.669-3.648,7.261-7.368,14.486c-3.773,7.3-7.679,14.566-11.683,21.667-3.132,5.508-6.229,10.909-9.708,16.15-.765,1.148-1.522,2.278-2.34,3.408-3.079,4.182-4.36,5.339-5.428,5.828a5.245,5.245,0,0,1-.721.329c-.6.1.7-1.53,2.936-4.52,3.31-4.449,6.362-9.281,9.343-14.237s5.873-10.188,8.729-15.376c4.191-7.715,8.249-15.554,12.208-23.429Z" transform="translate(-0.703 -22.492)" fill="#fff"/>
    <path id="Path_19437" data-name="Path 19437" d="M130.917,312.53a17.287,17.287,0,0,0,2.536-3.506c.285-.454.436-.979.685-1.45a37.766,37.766,0,0,0,2.047-5.4c.231-.828.427-1.682.587-2.527a19.579,19.579,0,0,1,.721-3.239c.258-.658,1.646.534,1.4,1.78a35.594,35.594,0,0,1-1.931,6.629c-.276.65-.489,1.317-.756,1.993l-.383,1.005-.445.988c-.32.73-.765,1.4-1.148,2.091l-.676.979a8.429,8.429,0,0,1-.73.952,14.415,14.415,0,0,1-.988,1.095l-1.068,1.014a20.269,20.269,0,0,1-3.7,2.4c-1,.561-2,1.014-3.043,1.477-.231.08-.463.169-.7.24-.89.267-1.2.231-1.486-.151a1.727,1.727,0,0,1-.187-.258c-.16-.311.133-.685.721-.943a37.738,37.738,0,0,0,5.2-2.509,15.359,15.359,0,0,0,3.319-2.669Z" transform="translate(-11.299 -23.709)" fill="#fff"/>
    <path id="Path_19438" data-name="Path 19438" d="M122.228,370.7a39.293,39.293,0,0,0,9.049.943c3.1,0,6.229-.089,9.307-.276,2.269-.142,4.529-.365,6.8-.543L159.4,369.79c2-.16,4.013-.32,6.033-.427a46.692,46.692,0,0,1,6.113,0,41.521,41.521,0,0,1,5.339,1.086c1.78.463,3.461.988,5.152,1.593a33.975,33.975,0,0,1,6.3,2.928,12.546,12.546,0,0,1,4.992,5.019c.614,1.433.08,1.3-.792.445a32.153,32.153,0,0,0-4.511-3.479,31.045,31.045,0,0,0-5.971-3.016,56.32,56.32,0,0,0-6.5-2.082c-1.1-.276-2.225-.543-3.319-.73a19.95,19.95,0,0,0-3.31-.222c-2.278,0-4.609.133-6.932.276-5.57.347-11.363,1.068-17.084,1.513-3.141.24-6.3.445-9.468.543a75.713,75.713,0,0,1-9.521-.222,21.419,21.419,0,0,1-5.837-1.29,6.149,6.149,0,0,1-2.572-1.869,5.018,5.018,0,0,1-.774-3.114,19,19,0,0,1,.756-4.449c.392-1.433.89-2.839,1.335-4.236.988-2.758,1.975-5.526,2.963-8.266a71.924,71.924,0,0,0,3.381-12.876c.125-.961.2-1.9.258-2.865.107-1.78,0-2.945,0-3.764a6.381,6.381,0,0,1,0-1.014,3.444,3.444,0,0,1,.1-.721,3.667,3.667,0,0,1,.16-.587c.125-.222.347,0,.641.65a9.921,9.921,0,0,1,.7,3.123,36.908,36.908,0,0,1-1.717,12.413c-1.13,4.049-2.669,8.053-4.066,12.03a58.728,58.728,0,0,0-2.669,8.854,11.1,11.1,0,0,0-.187,2.127,3.452,3.452,0,0,0,.427,1.673,6.122,6.122,0,0,0,3.4,1.86Z" transform="translate(-10.761 -27.197)" fill="#fff"/>
    <path id="Path_19439" data-name="Path 19439" d="M190.207,386c-.222.107-.418-.044-.623-.365a.6.6,0,0,1,0-.463,3.557,3.557,0,0,1,.365-.214,16.015,16.015,0,0,1,1.842-.3,5.222,5.222,0,0,1,1.344,0,8.5,8.5,0,0,1,2.767.694,2.8,2.8,0,0,1,.569.329,15.58,15.58,0,0,1,1.637,1.486,1.717,1.717,0,0,0,.267.24,9.843,9.843,0,0,1,1.353,1.78c.24.507.516.988.792,1.468.044.071.107.125.107.214a.89.89,0,0,0,.231.472c.133.187.294.365.418.578a1.352,1.352,0,0,1,.125.365c0,.116-.142.214-.187.2s-.125.1-.178.16,0,.053-.062.062a7.5,7.5,0,0,1-1.361-.952c-.062,0-1.379-1.655-1.513-1.824a1.237,1.237,0,0,1-.178-.32l-.534-.658c-.276-.294-.534-.587-.561-.6a3.764,3.764,0,0,1-.569-.676.418.418,0,0,0-.125-.125c-.2-.151-.409-.267-.605-.427a2.645,2.645,0,0,0-.667-.347,6.8,6.8,0,0,0-.756-.231l-.133-.053a1.356,1.356,0,0,0-.178-.053,6.869,6.869,0,0,0-.97-.142,4.137,4.137,0,0,0-1,0,8.335,8.335,0,0,0-1.086-.1C190.545,386.238,190.3,385.963,190.207,386Z" transform="translate(-18.785 -33.449)" fill="#fff"/>
    <path id="Path_19440" data-name="Path 19440" d="M188.31,388.712c-.222,0-.374-.151-.472-.5a.614.614,0,0,1,.1-.454,2.788,2.788,0,0,1,.392-.16c.08,0,1.281,0,1.691.062a7.427,7.427,0,0,1,1.175.142l1.183.2a6.4,6.4,0,0,1,1.29.329,2.429,2.429,0,0,1,.552.267,16.414,16.414,0,0,1,1.673,1.219.89.89,0,0,0,.285.2,3.667,3.667,0,0,1,.774.836,8.344,8.344,0,0,1,.561.89c.214.5.463.97.694,1.45,0,.071.1.125.08.214a.721.721,0,0,0,.178.472c.107.2.222.4.311.605a1.568,1.568,0,0,1,.053.365c0,.116-.187.178-.222.16s-.142.071-.2.125a.214.214,0,0,1-.071.053,8.477,8.477,0,0,1-1.13-1l-.614-.81-.7-.89a1.389,1.389,0,0,1-.16-.3l-.16-.214c-.08-.1-.187-.231-.3-.347-.24-.249-.507-.454-.516-.472a3.489,3.489,0,0,1-.587-.561.338.338,0,0,0-.125-.1,8.184,8.184,0,0,0-1.255-.614,3.48,3.48,0,0,0-.739-.16.68.68,0,0,1-.142-.053.712.712,0,0,0-.178-.062c-.65-.1-1.281-.276-1.931-.338-.151,0-.836-.285-1.005-.294S188.408,388.686,188.31,388.712Z" transform="translate(-18.596 -33.778)" fill="#fff"/>
    <path id="Path_19441" data-name="Path 19441" d="M192.5,395.5a1.486,1.486,0,0,1,.89.89c.062.134-.044.374-.187.365a3.451,3.451,0,0,1-.89-.08,31.384,31.384,0,0,1-3.39-1.53c-.774-.392-1.5-.836-2.207-1.228a6.762,6.762,0,0,0-.988-.463,2.137,2.137,0,0,0-.383-.062H184.8c-.783.071-1.619.214-2.474.356-.374.053-.765.107-1.148.133-1.326.107-2.669.3-3.977.454a3.187,3.187,0,0,0-.658.116,14.7,14.7,0,0,1-2.2.2,20.661,20.661,0,0,1-2.3,0,33.337,33.337,0,0,1-3.515-.605,1.246,1.246,0,0,1-.489-.133,3.115,3.115,0,0,0-1.032-.365,8.011,8.011,0,0,1-1.433-.489,4.9,4.9,0,0,1-.65-.4c-.187-.125,0-.267.071-.267.231,0,.1-.133.1-.214v-.089a3.967,3.967,0,0,1,.472,0l.988.16c.73.089,1.495.142,1.637.187a6.6,6.6,0,0,0,.667.1c.392,0,.89.125,1.441.151a22.8,22.8,0,0,0,2.411.053,6.527,6.527,0,0,1,.721,0,13.984,13.984,0,0,0,1.726-.116c.836-.116,1.664-.178,1.78-.2a16.706,16.706,0,0,1,2.011-.151,1.6,1.6,0,0,0,.409-.044c1.148-.187,2.3-.338,3.488-.5.605-.08,1.219-.187,1.869-.231h.374a5.134,5.134,0,0,1,1.78.4,10.684,10.684,0,0,1,1.005.561c.623.391,1.219.783,1.833,1.139.276.169,1.522,1.086,1.86,1.228A10.839,10.839,0,0,0,192.5,395.5Z" transform="translate(-16.063 -34.208)" fill="#fff"/>
    <path id="Path_19442" data-name="Path 19442" d="M162.8,360.892c-3.417.276-6.843.658-10.251,1.1l-3.719.569c-4.378.632-8.738,1.37-13.054,2.3-.961.2-1.922.436-2.865.694s-1.9.489-2.821.792c-1.192.365-2.376.747-3.559,1.183l-3.488,1.246c-.73.24-.819-.178-.374-.819a5.962,5.962,0,0,1,2.847-1.993,86.96,86.96,0,0,1,15.127-3.657c3.07-.481,6.229-1.121,9.379-1.575,3.444-.516,6.914-.89,10.384-1.272,2.136-.2,4.28-.374,6.433-.472.828,0,1.637-.053,2.491,0a6.55,6.55,0,0,1,1.264.16,9.46,9.46,0,0,1,1.228.285,22.78,22.78,0,0,1,4.574,1.913c2.233,1.21,4.316,2.563,6.371,3.915l1.361.89c1.682,1.077,2.162,1.4,2.367,1.984a3.046,3.046,0,0,1,.142.392c.071.392-.89.356-2.269-.374-2.02-1.068-3.871-2.385-5.784-3.559a31.761,31.761,0,0,0-5.935-3.105,10.782,10.782,0,0,0-1.148-.374,9.34,9.34,0,0,0-1.175-.276,5.107,5.107,0,0,0-1.148-.133h-1.219c-1.691,0-3.417.16-5.134.3Z" transform="translate(-11.386 -30.624)" fill="#fff"/>
    <path id="Path_19443" data-name="Path 19443" d="M114.456,409.289a81.38,81.38,0,0,1-12.529,8.062c-1.619.8-3.2,1.691-4.867,2.394a98.769,98.769,0,0,1-18.108,5.98l-4.138.89c-1.379.3-2.776.507-4.147.774a73.525,73.525,0,0,1-10.678,1.21c-2.233.08.489-1.78,4.529-2.136a135.058,135.058,0,0,0,21.356-4.182,83.03,83.03,0,0,0,12.457-4.858,82.344,82.344,0,0,0,12.662-7.483,77.31,77.31,0,0,0,7.021-5.73,61.485,61.485,0,0,0,8.96-10.349,38.191,38.191,0,0,0,4.583-9.307l.32-1.077c.08-.356.16-.721.249-1.086.16-.676.214-1.237.3-1.708s.107-.89.133-1.148a4.165,4.165,0,0,1,.107-.765,5.048,5.048,0,0,1,.16-.543c.071-.16.125-.365.2-.48s.329,0,.6.507a5.82,5.82,0,0,1,.347,2.589,25.413,25.413,0,0,1-3.016,9.485,49.405,49.405,0,0,1-5.588,8.444A69.859,69.859,0,0,1,114.6,409.333Z" transform="translate(-4.422 -32.687)" fill="#fff"/>
    <path id="Path_19444" data-name="Path 19444" d="M105.621,310.654c0,3.221-1.842,5.5-5.277,4.075-2-.828-3.212-2.216-3.016-4.369C97.924,303.624,105.621,303.864,105.621,310.654Z" transform="translate(-8.622 -24.724)" fill="#fff"/>
    <path id="Path_19445" data-name="Path 19445" d="M108.422,341.057c0,7.786-11.069,4-8.124-2.8C102.372,333.475,108.422,335.967,108.422,341.057Z" transform="translate(-8.897 -28.059)" fill="#fff"/>
    <path id="Path_19446" data-name="Path 19446" d="M72.831,370.942a3.843,3.843,0,0,1-.712,1.308c-3.782,4.591-10.09-2.509-6.229-6.7C69.361,361.777,74.05,367.089,72.831,370.942Z" transform="translate(-5.027 -31.206)" fill="#fff"/>
    <path id="Path_19447" data-name="Path 19447" d="M105.455,392.18a3.96,3.96,0,0,1-3.4,2.518c-2.465.267-4.022-1.006-4.066-3.479-.071-4.262,4.574-7.012,6.914-3.488a4.885,4.885,0,0,1,.552,4.449Z" transform="translate(-8.697 -33.615)" fill="#fff"/>
    <path id="Path_19448" data-name="Path 19448" d="M63.415,414.359a3.96,3.96,0,0,1-3.4,2.518c-2.465.276-4.031-1.006-4.066-3.479-.071-4.262,4.565-7.012,6.914-3.488a4.912,4.912,0,0,1,.552,4.449Z" transform="translate(-4.065 -36.059)" fill="#fff"/>
    <path id="Path_19449" data-name="Path 19449" d="M122.273,293.427c-1.219-.383-2.42-.81-3.559-1.246-.436-.151-.89-.276-1.308-.445-1.5-.6-2.99-1.255-4.449-1.9-.658-.294-1.335-.543-2-.783a11.566,11.566,0,0,1-2.518-1.041c-.489-.311.774-1.539,1.78-1.157a52.687,52.687,0,0,1,5.072,2.287,27.137,27.137,0,0,0,3.168,1.228c1.175.427,2.349.89,3.559,1.228.73.24,1.468.454,2.207.65a21.453,21.453,0,0,0,3.39.641,9.843,9.843,0,0,0,2.572-.142,3.356,3.356,0,0,0,.516-.125c.641-.151.828-.125,1.13.24a2.865,2.865,0,0,1,.214.249c.2.276,0,.685-.569.934a10.046,10.046,0,0,1-5.339.3,33.517,33.517,0,0,1-3.791-.89Z" transform="translate(-9.836 -22.669)" fill="#fff"/>
    <path id="Path_19450" data-name="Path 19450" d="M111.281,240.878c-.632-.116-1.255-.258-1.878-.418-.231-.062-.463-.071-.694-.151a13.5,13.5,0,0,1-2.314-.988c-.329-.16-.667-.329-1.014-.472a2.438,2.438,0,0,1-1.183-.89c-.16-.258,1.192-1.246,1.5-1.023l2.082,1.29a5.126,5.126,0,0,0,1.513.5c.578.151,1.157.3,1.78.409.374.071.739.133,1.112.178a13.546,13.546,0,0,0,1.7.142,9.391,9.391,0,0,0,1.317-.187c.1,0,.187-.044.285-.053.365,0,.48.08.552.525a.591.591,0,0,0,.053.3.658.658,0,0,1-.383.73,6.514,6.514,0,0,1-2.491.3,13.942,13.942,0,0,1-1.913-.2Z" transform="translate(-9.38 -17.173)" fill="#fff"/>
    <path id="Path_19451" data-name="Path 19451" d="M30.636,346.659q2.669-6.166,5.526-12.262c.685-1.486,1.361-2.981,2.091-4.449.632-1.3,1.335-2.572,2.011-3.853l1.1-1.9a20.053,20.053,0,0,1,1.308-1.86,10.936,10.936,0,0,1,8.24-3.47A11.7,11.7,0,0,1,58.22,321.9a19.38,19.38,0,0,1,5.463,8.32c.365.97-.1.988-.828.374a8.008,8.008,0,0,1-1.219-1.361,20.467,20.467,0,0,1-1.388-2.029l-.294-.516-.347-.481-.685-.988a5.578,5.578,0,0,0-.747-.89l-.783-.89a11.07,11.07,0,0,0-3.764-2.429,9.352,9.352,0,0,0-8.578,1.21c-1.513,1-2.394,2.8-3.408,4.565s-1.851,3.648-2.723,5.49q-2.91,6.086-5.615,12.271c-1.1,2.545-2.216,5.081-3.275,7.644-1.628,3.862-3.23,7.768-4.734,11.657-1.148,3.025-2.18,6.033-3.186,9.058-.214.667-.427,1.326-.65,1.993-.828,2.5-1.139,3.239-1.726,3.666a3.05,3.05,0,0,1-.392.285c-.392.169-.409-.979.116-2.865A176.9,176.9,0,0,1,25.4,359.071q2.509-6.184,5.179-12.422Z" transform="translate(0 -26.204)" fill="#fff"/>
    <path id="Path_19452" data-name="Path 19452" d="M222.965,374.006l7.119-30.254,2.554-11.078,1.37-5.7-13.347,5.908-3.559,1.575H217v.089l-.062.294-.214,1.005-.463,1.984q-.961,3.969-1.975,7.884c-1.459,5.73-2.927,11.5-4.387,17.182-1.86,7.305-3.666,14.664-5.766,21.9-1.317,4.511-1.335-1.655.89-10.055l5.846-22.352,2.91-11.194c.472-1.869.943-3.746,1.388-5.615l.338-1.557.133-.65a3.5,3.5,0,0,1,.578-.285l.836-.374,2.669-1.157,7.537-3.328,9.041-4.075c-1.014,4.36-2.029,8.738-3.043,13.08l-7.118,30.494-2.18,9.4-1.112,4.734-.525,2.349-.249,1.157a3.247,3.247,0,0,1-.214.89l-.747.392-19.976,10.411-6.887-.89c-7.448-.952-14.762-1.78-22.139-2.572l-4.849-.507c-6.077-.641-8.008-.89-9.254-1.388a6.715,6.715,0,0,1-.89-.311c-.311-.16.169-.338,1.326-.427a43.688,43.688,0,0,1,5.116.169c6.086.489,12.279,1.175,18.57,1.9l9.477,1.157,9.2,1.192,2.767-1.459,13.934-7.3,2.936-1.539.107-.534.214-.961.427-1.922,1.78-7.661Z" transform="translate(-15.202 -26.787)" fill="#fff"/>
    <path id="Path_19453" data-name="Path 19453" d="M276.015,268.634a14.851,14.851,0,0,1-3.088,1.379,11.825,11.825,0,0,1-3.4.561,16.559,16.559,0,0,1-6.5-1.379,15.207,15.207,0,0,1-4.066-2.669,21.106,21.106,0,0,1-4.645-6.976,41.491,41.491,0,0,1-2.4-7.884c-.5-2.367-.89-4.769-1.228-7.118-.214-1.522-.409-3.043-.578-4.574s-.294-3.061-.507-4.449c-.169-.792.231-.952.89-.231a8.008,8.008,0,0,1,1.388,3.969c.667,6.229,1.3,12.351,3.283,18.188a18.481,18.481,0,0,0,6.229,8.978,13.169,13.169,0,0,0,5.49,2.322,9.508,9.508,0,0,0,1.513.2,10.8,10.8,0,0,0,1.513.053,9.468,9.468,0,0,0,2.919-.552,13.687,13.687,0,0,0,3.319-1.717,20.679,20.679,0,0,0,2.945-2.42,43.092,43.092,0,0,0,7.065-9.281,64.828,64.828,0,0,0,3.871-8.1c.231-.614.463-1.21.694-1.833.89-2.287,1.148-2.99,1.726-3.372a2.267,2.267,0,0,1,.392-.258c.383-.16.436.943-.107,2.714a57.7,57.7,0,0,1-7.448,15.26,40.531,40.531,0,0,1-4.084,5.1,23.92,23.92,0,0,1-5.134,4.227Z" transform="translate(-25.399 -16.945)" fill="#fff"/>
    <path id="Path_19454" data-name="Path 19454" d="M311.285,230.991a9.718,9.718,0,0,1-.125,2.616,3.334,3.334,0,0,1-.2.7l-.267.605a8.009,8.009,0,0,1-.65,1.139,8.255,8.255,0,0,1-1.2,1.459,10.438,10.438,0,0,1-5.855,2.563,14.966,14.966,0,0,1-2.821.071,7.056,7.056,0,0,1-3.461-.934c-.329-.2-.08-.561.365-.827a2.189,2.189,0,0,1,1.593-.3,11.63,11.63,0,0,0,6.229,0,7.377,7.377,0,0,0,4.387-3.9,3.321,3.321,0,0,0,.329-.943,7.03,7.03,0,0,0,.089-1.077,12.566,12.566,0,0,0-.294-2.75,9.423,9.423,0,0,0-1.628-3.817,2.349,2.349,0,0,0-2.367-1.032,3.2,3.2,0,0,0-.525.2c-.65.329-.89.454-1.335.214l-.294-.151c-.285-.2-.2-.694.427-1.192a3.72,3.72,0,0,1,1.78-.774,3.47,3.47,0,0,1,2.091.409,6.434,6.434,0,0,1,2.474,2.821,14.407,14.407,0,0,1,1.326,4.921Z" transform="translate(-30.576 -15.624)" fill="#fff"/>
    <path id="Path_19455" data-name="Path 19455" d="M254.887,232.295a15.129,15.129,0,0,1-2.554-.4,11.566,11.566,0,0,1-1.3-.418,9.091,9.091,0,0,1-1.228-.667,8.4,8.4,0,0,1-3.07-4.351,15.369,15.369,0,0,1-.774-3.639,25.894,25.894,0,0,1,.338-6.38l.142-.783v-.214l.062-.285.133-.578.133-.569v-.142c0-.062.089,0,.133,0h1.477c1.059,0,2.082.1,3.132.169,1.842.142,3.693.276,5.526.489a23.055,23.055,0,0,1,6.976,1.575c.694.311.418.658-.3.89a7.323,7.323,0,0,1-3.114,0,63.585,63.585,0,0,0-6.941-1.014c-1.183-.116-2.358-.222-3.559-.311l-1.78-.116a1.475,1.475,0,0,1-.276-.045c-.062,0-.071.151-.116.231a1.833,1.833,0,0,0-.08.3l-.1.516c-.08.347-.125.7-.178,1.05a21.357,21.357,0,0,0-.178,2.136,20.563,20.563,0,0,0,.249,4.262,9.789,9.789,0,0,0,1.593,4.191,5.668,5.668,0,0,0,3.63,2.242,9.788,9.788,0,0,0,5.579-.133,8.008,8.008,0,0,0,3.453-2.429,14.976,14.976,0,0,0,2.251-3.737,25.581,25.581,0,0,0,1.1-3.23c.16-.561.276-1.059.436-1.691l.32-1.255.089-.32v-.16h.169l.667.142,1.78.356c1.851.392,2.42.632,2.714,1.157a1.78,1.78,0,0,1,.2.356c.107.374-.712.48-2.091.267l-1.539-.249-.383-.062h-.365v.3h0l-.044.2c-.142.525-.276,1.05-.436,1.575a22.157,22.157,0,0,1-2.758,6.229,10.607,10.607,0,0,1-3.96,3.63,9.859,9.859,0,0,1-5.294.988Z" transform="translate(-24.995 -14.632)" fill="#fff"/>
    <path id="Path_19456" data-name="Path 19456" d="M275.788,226.095c-.142,2.669.169,5.392,1.708,7.359a2.422,2.422,0,0,0,.454.5,6.021,6.021,0,0,0,.5.454,9.239,9.239,0,0,0,1.157.747,8.836,8.836,0,0,0,4.7,1.388,7.715,7.715,0,0,0,4.591-1.673,12.777,12.777,0,0,0,3.008-3.426,35.457,35.457,0,0,0,2.483-5.339c.24-.569.632-.392.89.249a4.031,4.031,0,0,1-.187,2.892,18.81,18.81,0,0,1-3.559,5.544,10.091,10.091,0,0,1-5.953,3.23,9.663,9.663,0,0,1-2.091.08,8.25,8.25,0,0,1-1.032-.151,6.228,6.228,0,0,1-1.014-.222,12.991,12.991,0,0,1-3.711-1.78,8.213,8.213,0,0,1-2.75-3.639,12.992,12.992,0,0,1-.89-4.342,26.419,26.419,0,0,1,.392-5.339c.116-.65.231-1.308.374-1.958l.276-1.2.16-.667a4.657,4.657,0,0,1,.694,0l1.21.089.979.089,1.966.2a57.65,57.65,0,0,1,6.033.89,13.432,13.432,0,0,1,1.317.3c1.637.463,2.109.89,2.251,1.388a1.485,1.485,0,0,1,.08.374c0,.383-.7.32-1.824,0a71.184,71.184,0,0,0-10.767-1.619h-.641v.1l-.089.427c-.071.338-.142.676-.2,1.014a28.707,28.707,0,0,0-.507,4.04Z" transform="translate(-28.1 -15.177)" fill="#fff"/>
    <path id="Path_19457" data-name="Path 19457" d="M263.036,234.969c.258-.952.543-1.886.828-2.821.107-.338.169-.685.276-1.023.4-1.192.836-2.358,1.246-3.559.178-.516.32-1.059.454-1.593a6.328,6.328,0,0,1,.676-1.984c.133-.222.516,0,.845.3a1.228,1.228,0,0,1,.507,1.121,27.667,27.667,0,0,1-1.468,4.022,19.665,19.665,0,0,0-.774,2.518c-.285.89-.561,1.851-.819,2.776-.151.569-.3,1.139-.418,1.708l-.1.578a1.362,1.362,0,0,0,0,.383c0,.053,0,.142.071.16l.187.044.454.071c.694.107,1.388.116,2.073.169h.463c.561.08.721.222.756.676a1.263,1.263,0,0,1,0,.311c0,.347-.276.587-.712.614a11.5,11.5,0,0,1-1.913-.062,5.9,5.9,0,0,1-.97-.125l-.765-.125a1.361,1.361,0,0,1-.445-.125,1.53,1.53,0,0,1-.383-.187,1.5,1.5,0,0,1-.507-1.121,7.53,7.53,0,0,1,.1-1.228c.089-.525.2-1.014.311-1.5Z" transform="translate(-26.835 -15.74)" fill="#fff"/>
    <path id="Path_19458" data-name="Path 19458" d="M254.711,225.649a3.248,3.248,0,0,1,.614,1.984,2.082,2.082,0,0,1-.133.89,1.379,1.379,0,0,1-.276.409,1.139,1.139,0,0,1-.4.311,1.477,1.477,0,0,1-.89.16,2.269,2.269,0,0,1-1.228-.516,2.358,2.358,0,0,1-.756-.89,1.246,1.246,0,0,1,.365-1.566c.142-.1.418.249.694.578a4.869,4.869,0,0,0,.392.427c.089.107.249.16.107.1a.285.285,0,0,0-.125,0h.214a1.166,1.166,0,0,0,.267.392.276.276,0,0,0,.089.071v.071h0v-.053a.676.676,0,0,1,0-.187v-.267a1.37,1.37,0,0,0-.116-.516.721.721,0,0,0-.329-.4.472.472,0,0,0-.632.089c-.08.151,0,.294.178.418s.08.053.107.089.08.249-.222.587l-.2.231a.6.6,0,0,1-.783.187,1.708,1.708,0,0,1-.73-1.441,1.958,1.958,0,0,1,1.157-1.717,2.26,2.26,0,0,1,1.468-.1,2.34,2.34,0,0,1,1.13.747Z" transform="translate(-25.548 -15.852)" fill="#fff"/>
    <path id="Path_19459" data-name="Path 19459" d="M280.426,227.724a2.785,2.785,0,0,1,.694,2.055,2.857,2.857,0,0,1-.071.765,1.877,1.877,0,0,1-.988,1.183,1.78,1.78,0,0,1-1.486,0,1.548,1.548,0,0,1-.89-1.086,1.326,1.326,0,0,1,.543-1.424c.133-.071.418.249.685.587s.5.667.525.694h-.071a1.112,1.112,0,0,0-.267,0h-.08a.064.064,0,0,0,.062-.053.4.4,0,0,0,.089-.125v-.062a.2.2,0,0,0,.071.133c.125.116.178,0,.231-.285a1.86,1.86,0,0,0,0-.516,1.29,1.29,0,0,0-.089-.463c-.062-.151-.125-.249-.258-.267a.507.507,0,0,0-.578.294c-.053.187.107.32.258.427s.089,0,.116.071c.16.1.125.222-.116.605l-.16.267a.578.578,0,0,1-.739.3,1.682,1.682,0,0,1-.952-1.255,1.958,1.958,0,0,1,.667-1.851,2.136,2.136,0,0,1,1.353-.534,2.029,2.029,0,0,1,1.441.534Z" transform="translate(-28.413 -16.103)" fill="#fff"/>
    <path id="Path_19460" data-name="Path 19460" d="M230.944,173.186a17.194,17.194,0,0,0-5.855,8.9,24.2,24.2,0,0,0-1.041,5.339,20.706,20.706,0,0,0,.222,5.455,13.632,13.632,0,0,0,3.328,6.976c3.088,3.47,7.724,5.41,12.4,6.131a19.966,19.966,0,0,0,3.559.285,14.433,14.433,0,0,0,1.78-.062l1.78-.231a35.593,35.593,0,0,0,6.869-2.1,64.068,64.068,0,0,0,11.274-6.229,132.575,132.575,0,0,0,12.947-10.2c1.281-1.13,1.424-.667.65.632a22.869,22.869,0,0,1-5.036,5.463q-3.319,2.669-6.887,5.09a73.918,73.918,0,0,1-7.359,4.449,47.887,47.887,0,0,1-7.964,3.408,24.025,24.025,0,0,1-8.7,1.353,28.75,28.75,0,0,1-10.331-2.474,17.4,17.4,0,0,1-8.1-7.119,16.434,16.434,0,0,1-1.833-5.695,24.782,24.782,0,0,1-.1-5.908,24.354,24.354,0,0,1,3.9-11.034,12.608,12.608,0,0,1,1.121-1.45,11.988,11.988,0,0,1,1.281-1.326,12.622,12.622,0,0,1,1.4-1.148,14.14,14.14,0,0,1,1.45-1.068,25.751,25.751,0,0,1,6.4-3.283,24.978,24.978,0,0,1,5.339-1.237,28.023,28.023,0,0,1,5.463,0,34.116,34.116,0,0,1,10.42,2.8,50.845,50.845,0,0,1,13.774,9.041c.89.828,1.78,1.646,2.58,2.554a22.707,22.707,0,0,1,2.963,3.844,4.7,4.7,0,0,1,.756,2.064,4.1,4.1,0,0,1,0,.7c-.142.534-1.059-1-3.114-3.452a52.3,52.3,0,0,0-10.971-9.654,39.152,39.152,0,0,0-13.623-5.855,24.709,24.709,0,0,0-5.472-.534,20.466,20.466,0,0,0-5.437.667,23.224,23.224,0,0,0-5.143,1.9c-.8.463-1.628.89-2.385,1.4l-1.148.765-1.086.89Z" transform="translate(-22.407 -9.357)" fill="#fff"/>
    <path id="Path_19461" data-name="Path 19461" d="M303.482,189.511a21.355,21.355,0,0,0-6.736-1.094,13.97,13.97,0,0,0-6.5,1.433,3.879,3.879,0,0,0-1.539,1.424,3.4,3.4,0,0,0-.249,2.038,18.688,18.688,0,0,0,1.246,4.2,39.884,39.884,0,0,0,1.966,4.075,47.391,47.391,0,0,0,5.134,7.5,28.207,28.207,0,0,0,5.926,5.339,14.113,14.113,0,0,0,4.547,1.975,8.142,8.142,0,0,0,4.725-.311c.89-.356,1.077.044.383.819a2.714,2.714,0,0,1-.712.6,4.345,4.345,0,0,1-1.077.534,5.17,5.17,0,0,1-1.406.311H308.4a6.569,6.569,0,0,1-.819-.089,13.961,13.961,0,0,1-5.339-2.109,25.806,25.806,0,0,1-4.324-3.5,42.115,42.115,0,0,1-6.629-8.693,52.057,52.057,0,0,1-3.025-5.917,23.137,23.137,0,0,1-1.13-3.23,8.536,8.536,0,0,1-.2-.89,7.124,7.124,0,0,1-.125-.89,4.681,4.681,0,0,1,.178-1.931l.178-.507c.089-.169.187-.329.285-.489a4.2,4.2,0,0,1,.7-.819,7.234,7.234,0,0,1,1.655-1.139,13.506,13.506,0,0,1,3.63-1.166,21.258,21.258,0,0,1,7.43.071,23.135,23.135,0,0,1,8.435,3.47,24.648,24.648,0,0,1,8.809,10.349,12.208,12.208,0,0,1,.934,5.277,15.732,15.732,0,0,1-1.041,5.223,12.92,12.92,0,0,1-1.05,2.144,7.831,7.831,0,0,1-2.144,2.358,2.109,2.109,0,0,1-1.388.472,1.994,1.994,0,0,1-.489,0c-.2-.08-.089-.338.249-.7.169-.169.392-.383.632-.667l.409-.427.427-.525a13.543,13.543,0,0,0,2.75-8.124,10.518,10.518,0,0,0-.739-4.244,23.925,23.925,0,0,0-2.322-3.969,21.355,21.355,0,0,0-10.874-8.062Z" transform="translate(-29.5 -11.641)" fill="#fff"/>
    <path id="Path_19462" data-name="Path 19462" d="M269.613,388.591l.1.062c.836.587.561,2.02.454,2.411a13.582,13.582,0,0,1-.525,1.637,26.016,26.016,0,0,1-1.388,2.981,27.175,27.175,0,0,1-3.711,5.392,12.833,12.833,0,0,1-1.833,1.691,5.335,5.335,0,0,1-.641.436l-.222.133H260a107.891,107.891,0,0,1-16.408-1.281c-1.2-.178-2.4-.427-3.559-.632a36.459,36.459,0,0,1-3.559-.792,32.388,32.388,0,0,1-8.809-3.239c-.89-.472-.525-.792.392-.81a7.119,7.119,0,0,1,1.735.2,14.1,14.1,0,0,1,2.278.632,79.462,79.462,0,0,0,18.188,3.888c1.878.2,3.8.32,5.73.365h4.369a7.411,7.411,0,0,0,1.112,0,1.886,1.886,0,0,0,.222-.151l.294-.2c.187-.16.383-.311.57-.48.365-.338.721-.7,1.059-1.086a22.247,22.247,0,0,0,1.86-2.483,27.512,27.512,0,0,0,2.847-5.552,9.544,9.544,0,0,0,.338-1.21,2.063,2.063,0,0,0,.044-.267.968.968,0,0,0,0-.16.276.276,0,0,0-.142-.258l-.952-.667c-.347-.249-.721-.454-1.077-.685-.721-.454-1.486-.845-2.233-1.255a74.433,74.433,0,0,0-10.945-4.538c-2.9-.952-5.819-1.682-8.765-2.34l-1.94-.4c-2.429-.516-3.177-.721-3.63-1.255a2.081,2.081,0,0,1-.3-.356c-.2-.365.89-.516,2.714-.24a82,82,0,0,1,16.453,4.449c2.02.765,4.022,1.611,5.98,2.58.988.463,1.949,1,2.91,1.53l1.415.89c.24.151.463.32.694.472l.792.552Z" transform="translate(-22.93 -32.714)" fill="#fff"/>
    <path id="Path_19463" data-name="Path 19463" d="M228.705,300.1a80.545,80.545,0,0,1,10.26-11.63,48.883,48.883,0,0,1,6.166-4.8,31.393,31.393,0,0,1,7.056-3.488l2.251-.641a2.071,2.071,0,0,1,.472,0,1.139,1.139,0,0,1,.463.045.952.952,0,0,1,.427.2,1.058,1.058,0,0,1,.338.32,2.892,2.892,0,0,1,.534,1.611,13.418,13.418,0,0,1-.125,2.429,43.656,43.656,0,0,1-.89,4.52c-1.522,6.433-3.328,12.742-4.885,19.122s-2.981,12.769-4.022,19.238a112.527,112.527,0,0,0-1.495,17.316c0,7.359.961,14.833,3.9,21.534.97,2.038.472,2.011-.8.427a23.135,23.135,0,0,1-3.8-9.29,78.756,78.756,0,0,1-.418-23.037,180.764,180.764,0,0,1,4.164-22.61c1.086-4.449,2.242-9,3.408-13.543.578-2.278,1.148-4.556,1.726-6.834s1.086-4.565,1.433-6.825a12.941,12.941,0,0,0,.169-2.225,4.278,4.278,0,0,0-.053-.454.392.392,0,0,0-.062-.187.276.276,0,0,0-.347-.116l-1.433.409-.756.214-.739.294-1.468.605c-.5.187-.952.48-1.424.712l-1.415.747-1.344.89a27.936,27.936,0,0,0-2.625,1.851,61.781,61.781,0,0,0-9.263,8.978,103.768,103.768,0,0,0-10.8,15.492,133.658,133.658,0,0,0-11.648,26.125,100.748,100.748,0,0,0-2.8,10.607,78.657,78.657,0,0,0-1.522,10.758c-.08.8-.08,1.584-.1,2.376a23.51,23.51,0,0,0,0,2.376c.062.8,0,1.415.053,2.038s.089,1.183.133,1.691c.053,1.032.178,1.842.267,2.518a21.353,21.353,0,0,1,.2,2.83,6.4,6.4,0,0,1-.062.888c-.08.331-.356-.07-.774-1.111a11.006,11.006,0,0,1-.641-2.047,20.324,20.324,0,0,1-.525-2.945,47.161,47.161,0,0,1-.08-10.09,77.786,77.786,0,0,1,1.557-10.153,121.468,121.468,0,0,1,6.229-19.861A131.327,131.327,0,0,1,228.616,300.1Z" transform="translate(-20.551 -21.871)" fill="#fff"/>
    <path id="Path_19464" data-name="Path 19464" d="M318.445,404.355a39.72,39.72,0,0,0-6.967-6.1c-.89-.65-1.913-1.2-2.883-1.78a15.456,15.456,0,0,0-5.392-2.055,37.463,37.463,0,0,0-5.98.071,51.484,51.484,0,0,1-5.5.089,19.132,19.132,0,0,1-6.923-1.45c-.676-.294-.409-.65.294-.845a7.118,7.118,0,0,1,3.079,0,29.214,29.214,0,0,0,6.736.6c2.3,0,4.645-.258,7.118-.151a14.238,14.238,0,0,1,4.449.952,27.47,27.47,0,0,1,4.031,2.011,44.493,44.493,0,0,1,7.652,5.988c.7.694,1.379,1.424,2.02,2.18a12.8,12.8,0,0,1,.89,1.21l.418.641a3.185,3.185,0,0,1,.187.347l.24.472v.08a2.064,2.064,0,0,1,.187,1.433,1.1,1.1,0,0,1-1.094.747,2.545,2.545,0,0,1-1.468-.347,11.132,11.132,0,0,1-1.032-.739c-1.175-.952-2.3-1.931-3.417-2.892l-2.127-1.78-1.059-.89-.534-.418-.258-.187a.249.249,0,0,0-.134-.071l-1.228-.347-1.45-.409c-1.78-.543-2.331-.836-2.563-1.379a1.582,1.582,0,0,1-.151-.365c-.053-.374.774-.409,2.1-.089l1.9.481,2.011.552c.16.053.285.169.436.231a2.466,2.466,0,0,1,.276.2l.436.338.836.685,1.655,1.388,3.3,2.8,1.1.89.48.365h0a2.715,2.715,0,0,0-.258-.454c-.16-.231-.294-.472-.472-.7-.356-.463-.73-.89-1.139-1.37Z" transform="translate(-29.238 -34.276)" fill="#fff"/>
    <path id="Path_19465" data-name="Path 19465" d="M291.441,294.252c-.97-2.669-1.984-5.259-3.079-7.813-.276-.632-.569-1.21-.89-1.869l-.062-.116-.1-.214-.2-.445a3.2,3.2,0,0,1-.187-.89,1.628,1.628,0,0,1,.16-.792,1.477,1.477,0,0,1,.6-.552,2.412,2.412,0,0,1,.828-.214h.961a6.993,6.993,0,0,1,1.148.187c.721.151,1.433.347,2.136.534a26.561,26.561,0,0,1,7.8,3.915,38.592,38.592,0,0,1,6.327,5.891,62.564,62.564,0,0,1,7.119,10.277,124.968,124.968,0,0,1,8.676,20.074c2.367,6.878,4.324,13.881,6.1,20.92,1.575,6.229,3.025,12.564,4.449,18.793q1.344,6.006,2.669,12.021c.445,2,.89,4,1.388,5.988a58.735,58.735,0,0,0,1.637,5.837c.427,1.157.623,1.611.454,1.682s-.676-.347-1.272-1.308c-1.219-1.9-2.616-5.721-3.666-10.34-3.622-16.381-6.825-32.781-11.826-48.851-2.99-9.583-6.9-19.4-12.457-28.011a53.882,53.882,0,0,0-5.072-6.682,32.471,32.471,0,0,0-6.229-5.508,25.223,25.223,0,0,0-3.6-2.047,23.192,23.192,0,0,0-3.9-1.344,17.259,17.259,0,0,0-1.993-.409,1.548,1.548,0,0,0-.454,0,.231.231,0,0,0-.187.125.321.321,0,0,0,0,.222,2,2,0,0,0,.071.214l.142.294.48.952c.32.658.6,1.326.89,1.975,2.669,6.5,4.983,13.125,7.056,19.807a272.686,272.686,0,0,1,7.59,30.85c.365,2.02.721,4.022,1.086,6.024l.89,6.006c.329,1.993.543,4,.774,6.006s.507,4.013.641,6.033c.133,1.78.267,3.515.409,5.339.053.828.1,1.593.151,2.287s0,1.335,0,1.922v2.865a12.812,12.812,0,0,1-.365,3.15,8.324,8.324,0,0,1-.285.943c-.329.632-.667-2.073-.89-6.914-.044-1.78-.222-3.559-.374-5.41s-.24-3.648-.418-5.428-.418-3.666-.632-5.508l-.32-2.776c-.133-.89-.276-1.851-.409-2.776l-.828-5.57c-.329-1.851-.667-3.711-1-5.579s-.721-3.719-1.1-5.579-.747-3.719-1.21-5.57a266.787,266.787,0,0,0-9.628-32.594Z" transform="translate(-29.516 -22.071)" fill="#fff"/>
    <path id="Path_19466" data-name="Path 19466" d="M276.519,288.444c-.819-.641-1.619-1.3-2.4-1.949l-1.548-1.29-.133.169-.276.4-.329.445a30.145,30.145,0,0,1-1.975,2.4,18.125,18.125,0,0,1-9.37,5.57,12.457,12.457,0,0,1-4.93-.053,11.986,11.986,0,0,1-5.552-2.83c-.48-.436-.125-.7.543-.721a5.784,5.784,0,0,1,2.572.712,11.087,11.087,0,0,0,5.339,1.433,12.458,12.458,0,0,0,5.446-1.4,18.623,18.623,0,0,0,5.535-4.663c.418-.489.828-1,1.219-1.513l.285-.392.338-.489.89-1.379c.463.3.934.65,1.388.988l.943.756,1.664,1.37a44.064,44.064,0,0,0,4.066,3.017,19.834,19.834,0,0,0,6.878,3.043,9.788,9.788,0,0,0,5.508-.48c.365-.178.73-.32,1.086-.534,1.326-.721,1.717-1,2.278-.845a1.53,1.53,0,0,1,.374.1c.169.08.169.276,0,.561a3.675,3.675,0,0,1-1.005,1.05,10.162,10.162,0,0,1-5.5,1.966,14.041,14.041,0,0,1-5.882-1.032,31.243,31.243,0,0,1-7.421-4.378Z" transform="translate(-25.423 -22.241)" fill="#fff"/>
    <path id="Path_19467" data-name="Path 19467" d="M369.662,419.848a20.376,20.376,0,0,1,3.559,1.335c.4.187.819.329,1.21.534,1.388.694,2.732,1.468,4.066,2.225.6.347,1.21.65,1.78.952a8.22,8.22,0,0,1,2.278,1.37c.2.2-.08.525-.507.747a1.5,1.5,0,0,1-1.379.125c-1.495-.845-3.016-1.708-4.493-2.669a22.343,22.343,0,0,0-2.883-1.442,30.347,30.347,0,0,0-3.23-1.352c-.623-.2-1.415-.338-2.136-.569a29.359,29.359,0,0,1-3.194-1.246c-.81-.356-1.62-.65-2.411-1.032l-.525-.249c-.632-.365-.756-.6-.632-1.05a.976.976,0,0,1,.089-.3c.151-.311.534-.383,1.005-.2,1.4.543,2.767,1.228,4.191,1.78a18.142,18.142,0,0,0,3.212,1.005Z" transform="translate(-37.691 -37.009)" fill="#fff"/>
    <path id="Path_19468" data-name="Path 19468" d="M407.9,411.5a4.094,4.094,0,0,1,1.166.783,1.451,1.451,0,0,1,.445.952,1.121,1.121,0,0,1-.409.89l-1.219.65c-.356.169-.632.276-.943.418s-.623.267-.89.383l-1.486.721c-.712.365-1.406.774-2.118,1.148-2.527,1.308-5.054,2.669-7.546,4.031-1.1.614-2.189,1.272-3.257,1.94a38.635,38.635,0,0,1-4.164,2.483c-.89.427-.658-1.611.89-2.589,2.821-1.726,5.695-3.346,8.693-4.823,1.78-.89,3.559-1.966,5.339-2.919,1-.516,2-1.032,3.025-1.513.258-.133.445-.2.667-.311l.561-.24.356-.116c.116,0,.249-.178.133-.276a1.139,1.139,0,0,0-.365-.267l-.2-.107-.311-.142c-.623-.267-1.264-.507-1.9-.739l-5.793-2.1c-1.522-.552-3.043-1.032-4.538-1.726-.329-.16-.658-.311-.979-.5-1.2-.712-1.477-1.237-1.344-1.735a1.165,1.165,0,0,1,.116-.338c.214-.294.658-.089,1.415.329a29.815,29.815,0,0,0,3.791,1.664c1.353.516,2.75,1.005,4.164,1.495l3.168,1.112,1.6.587.8.311.418.178c.249.107.489.2.73.329Z" transform="translate(-40.537 -35.731)" fill="#fff"/>
    <path id="Path_19469" data-name="Path 19469" d="M377.362,408.659c-1.317.507-2.669.979-3.969,1.441-.481.169-.952.383-1.433.552-1.717.569-3.452,1.077-5.179,1.6-.774.222-1.53.5-2.278.756-.489.169-.97.356-1.468.507a4.841,4.841,0,0,1-1.646.258.338.338,0,0,1-.142,0,.685.685,0,0,1-.267-.133c-.116-.116-.089-.2,0-.249a1.015,1.015,0,0,0,.249-.187,1.922,1.922,0,0,0,.142-.3,1.682,1.682,0,0,1,1.032-1.068c1.922-.561,3.906-1.175,5.935-1.655a34.623,34.623,0,0,0,3.613-1.237c1.317-.463,2.669-.89,3.942-1.433.81-.311,1.611-.623,2.411-.952,1.2-.507,2.411-1.014,3.559-1.619a20.463,20.463,0,0,0,2.483-1.611c.169-.125.32-.267.5-.392.632-.463.89-.525,1.281-.294a3.03,3.03,0,0,1,.294.151c.285.2.214.658-.258,1.121a17.8,17.8,0,0,1-4.823,3.105c-1.29.623-2.607,1.166-3.924,1.708Z" transform="translate(-37.667 -35.421)" fill="#fff"/>
    <path id="Path_19470" data-name="Path 19470" d="M379.1,420.183l-1.575-.89c-.187-.107-.4-.169-.6-.276-.667-.383-1.326-.8-2-1.175a5.457,5.457,0,0,0-.943-.4,2.714,2.714,0,0,1-1.192-.552c-.2-.214.765-1.539,1.228-1.353a9.459,9.459,0,0,1,2.34,1.335,8.847,8.847,0,0,0,1.468.765l1.6.89.979.534c.507.249,1,.534,1.522.747a11.5,11.5,0,0,0,1.264.365.428.428,0,0,1,.285.071c.329.133.418.311.267.73a2.711,2.711,0,0,1-.116.285.73.73,0,0,1-.65.481,6.8,6.8,0,0,1-2.278-.685c-.543-.249-1.077-.543-1.619-.81Z" transform="translate(-38.973 -36.854)" fill="#fff"/>
    <path id="Path_19471" data-name="Path 19471" d="M385.514,416.4l-1.112-.667c-.142-.08-.294-.116-.427-.2-.48-.294-.943-.614-1.424-.89a3.213,3.213,0,0,0-.676-.285,1.559,1.559,0,0,1-.89-.4c-.249-.294.739-1.548,1.077-1.415a4.974,4.974,0,0,1,1.646,1.014,4.289,4.289,0,0,0,1.05.569l1.13.65.7.392a8.756,8.756,0,0,0,1.086.534,5.433,5.433,0,0,0,.934.187,1.423,1.423,0,0,1,.2,0c.249.08.276.214.151.641l-.089.294c-.116.32-.32.543-.534.561a3.488,3.488,0,0,1-1.708-.374c-.4-.169-.783-.383-1.175-.578Z" transform="translate(-39.875 -36.525)" fill="#fff"/>
    <path id="Path_19472" data-name="Path 19472" d="M276.814,433.335c-9.263-.383-18.526-.774-27.78-.97-4.627-.107-9.254-.071-13.9-.071H221.227l-20.288.062H138.385c-2.945,0-5.944.142-8.9.24-10.562.383-21.2.89-31.686,1.353-6.736.276-13.5.534-20.261.614-3.39,0-6.771,0-10.162-.071a66.733,66.733,0,0,1-10.171-.934,8.2,8.2,0,0,1-2.278-.747c-.463-.294-.623-.463-.552-.516a1.877,1.877,0,0,1,.89.125c.5.062,1.183.187,2.064.24,3.559.276,10.019.133,17.8.1,13.73-.1,27.486-.756,41.261-1.308,6.9-.276,13.8-.569,20.733-.7s13.854,0,20.8,0c16.6.071,33.893-.062,50.88-.089h28.029c9.334-.1,18.686.187,28.038.534l34.471,1.433c17.387.712,34.872,1.433,52.134,1.637,6.718.071,13.347.053,19.985-.133,3.31-.1,6.611-.249,9.9-.48a91.76,91.76,0,0,0,9.788-1.13c.7-.142,1.388-.32,2.082-.472.365-.08.578-.187.89-.276a6.1,6.1,0,0,0,.774-.276.24.24,0,0,0,.116-.32,1.008,1.008,0,0,0-.089-.169c0-.062-.133-.187-.24-.311a12.646,12.646,0,0,0-1.468-1.459c-2.02-1.726-3.9-3.016-5.428-4.12s-2.794-1.975-3.826-2.669a27.959,27.959,0,0,1-4.013-3.283,8.267,8.267,0,0,1-1.13-1.184c-.231-.472.383,0,2.091,1.023s4.333,2.669,7.67,4.9c1.237.836,2.465,1.691,3.675,2.607a23.421,23.421,0,0,1,3.47,3.034,5.474,5.474,0,0,1,.427.552,3.311,3.311,0,0,1,.427.89,1.557,1.557,0,0,1-.472,1.7,1.993,1.993,0,0,1-.685.329l-.658.24-.658.24-.329.116-.285.071c-.756.169-1.522.374-2.287.516l-2.287.383a174.646,174.646,0,0,1-18.464,1.255c-12.4.285-24.959.044-37.532-.294-18.686-.534-37.417-1.406-56.112-2.162Z" transform="translate(-3.89 -37.105)" fill="#fff"/>
    <path id="Path_19473" data-name="Path 19473" d="M357.149,403.062l-9.619-.65-3.506-.2-12.351-.979c-1.833-.151-3.666-.249-5.481-.338-2.331-.107-4.68-.142-7-.481-1.441-.2.507-1.682,3.194-1.522,4.752.285,9.5.65,14.281,1.166,2.865.3,5.855.409,8.791.605l9.672.641,5.962.347c3.008.151,6.033.311,9.014.365h3.461l3.426-.116c.5,0,.988-.071,1.495-.089,1.886-.062,2.367-.1,2.865.32a2.116,2.116,0,0,1,.329.258c.267.3-.48.712-1.931.934a90.943,90.943,0,0,1-12.876.249c-3.239-.1-6.487-.285-9.726-.454Z" transform="translate(-33.016 -35.02)" fill="#fff"/>
    <path id="Path_19474" data-name="Path 19474" d="M264.977,254.57c-.214-.062-.231-.3-.1-.623a.721.721,0,0,1,.338-.32,2.333,2.333,0,0,1,.365,0,6.88,6.88,0,0,0,1.175.507c.276.1.552.178.819.294a6.611,6.611,0,0,0,1.708.338,1.78,1.78,0,0,1,.374,0,2.269,2.269,0,0,0,1.29-.116.164.164,0,0,0,.187-.107c.044-.107,1.059-.614,1.157-.739a1.592,1.592,0,0,0,.481-.294,2.492,2.492,0,0,0,.436-.383s.053-.1.133-.107a.757.757,0,0,0,.32-.24,3.737,3.737,0,0,1,.32-.445.89.89,0,0,1,.276-.178.214.214,0,0,1,.24.08c0,.107.125.071.2.089a.1.1,0,0,1,.071,0,3.674,3.674,0,0,1-.169,1.406,4.5,4.5,0,0,1-.543.828,7.37,7.37,0,0,1-.774.89.766.766,0,0,1-.3.16,7.659,7.659,0,0,1-.694.454,6.349,6.349,0,0,1-.756.356,1.9,1.9,0,0,1-.943.116.444.444,0,0,0-.187,0,2.669,2.669,0,0,1-.792,0,3.842,3.842,0,0,1-.783-.089,3.416,3.416,0,0,1-.783-.125.453.453,0,0,1-.133-.062l-.169-.062a10.215,10.215,0,0,1-1.726-.676,6.909,6.909,0,0,1-.765-.623C265.138,254.953,265.031,254.606,264.977,254.57Z" transform="translate(-27.077 -18.853)" fill="#fff"/>
    <path id="Path_19475" data-name="Path 19475" d="M137.009,215.185a12.405,12.405,0,0,1,1.869-.747c.231-.071.436-.2.676-.258a10.374,10.374,0,0,1,2.572-.24c.4.044.783,0,1.2.071a1.78,1.78,0,0,1,1.513.747c.107.169-.294.463-.7.756s-.721.605-.819.578a9.992,9.992,0,0,0-1.9-.374,3.9,3.9,0,0,0-1.468.294,12.462,12.462,0,0,0-1.6.6,5.518,5.518,0,0,0-.89.507,4.884,4.884,0,0,0-1.2,1.005,2.358,2.358,0,0,0-.4,1.05v.222c0,.249-.169.276-.694.276h-.347a.64.64,0,0,1-.721-.587,3.648,3.648,0,0,1,1.255-2.669,9.235,9.235,0,0,1,1.7-1.228Z" transform="translate(-12.675 -14.642)" fill="#fff"/>
    <path id="Path_19476" data-name="Path 19476" d="M141.852,258.324a3.648,3.648,0,0,1-1.37-.89c-.125-.142-.311-.231-.409-.392a5.17,5.17,0,0,1-.694-1.78,6.849,6.849,0,0,0-.151-.765,2.126,2.126,0,0,1,.08-1c0-.1,0-.08.044,0s.3.151.472.267c.658.392,1.077.676,1.255,1.139.107.285.409.418.605.605a8,8,0,0,0,.694.641,2.615,2.615,0,0,0,.525.329,2.233,2.233,0,0,0,.943.267c.258,0,.5-.08.792-.08h.187c.24,0,.374.053.427,0h0a.89.89,0,0,0-.142.276,5.053,5.053,0,0,1-.614.89,3.56,3.56,0,0,1-.445.356,2.391,2.391,0,0,1-.534.24,2.83,2.83,0,0,1-1.717,0Z" transform="translate(-13.238 -18.995)" fill="#fff"/>
    <path id="Path_19477" data-name="Path 19477" d="M392.551,265.139a18.285,18.285,0,0,1-5.143-3.648A17.92,17.92,0,0,1,384,256.232a24.019,24.019,0,0,1-1.4-4.3,43.333,43.333,0,0,1,.16-15.563c.383-2.26.845-4.511,1.379-6.727a46.712,46.712,0,0,1,2.669-8.346c.774-1.646,1.361,1.059.374,4.164a79.5,79.5,0,0,0-3.559,17.111,30.048,30.048,0,0,0,.988,10.562,19.041,19.041,0,0,0,2.376,5.25,16.153,16.153,0,0,0,1.833,2.216,22.129,22.129,0,0,0,2.225,1.833,18,18,0,0,0,6.629,2.6,25,25,0,0,0,10.882-.543,29.774,29.774,0,0,0,7.7-3.31l1.539-1c1.878-1.3,2.438-1.735,3.132-1.708a2.451,2.451,0,0,1,.454,0c.4.1-.125.97-1.486,2.127a29.542,29.542,0,0,1-14.958,6.229,26.88,26.88,0,0,1-6.229,0,23.552,23.552,0,0,1-3.114-.632,15.729,15.729,0,0,1-1.522-.463l-1.477-.605Z" transform="translate(-39.989 -15.399)" fill="#fff"/>
    <path id="Path_19478" data-name="Path 19478" d="M449.813,309.369A138.337,138.337,0,0,0,441.7,297.41c-1.468-1.913-2.963-3.8-4.538-5.624-.792-.89-1.593-1.78-2.411-2.669l-1.219-1.317-.632-.632-.32-.311-.534-.507-.623-3.328a36.875,36.875,0,0,0-1.646-5.49c-.32-.89-.792-1.726-1.175-2.589-.231-.409-.489-.81-.721-1.21l-.365-.605c-.125-.2-.276-.374-.418-.561a13,13,0,0,0-3.675-3.559,10.492,10.492,0,0,0-2.278-1.086,9.585,9.585,0,0,0-1.21-.294,4.9,4.9,0,0,0-.605-.08h-.383l-.667.392-.89.463c-.587.294-1.175.578-1.78.836a36.073,36.073,0,0,1-3.639,1.4,34.828,34.828,0,0,1-7.617,1.584,28.474,28.474,0,0,1-3.9.107,17.919,17.919,0,0,1-1.949-.133l-.97-.107a5.339,5.339,0,0,0-.828,0,3.9,3.9,0,0,0-2.741,1.619,11.318,11.318,0,0,0-1.691,3.177,20.616,20.616,0,0,0-1.05,4.342,13.961,13.961,0,0,0,0,4.387,11.461,11.461,0,0,0,1.824,3.906,10.144,10.144,0,0,0,3.248,2.8c3.283,1.78,7.261,2.073,11.06,1.833a54.428,54.428,0,0,0,11.363-2.118c2.3-.694,2.162-.2.311.89a27.8,27.8,0,0,1-10.1,2.972,31.963,31.963,0,0,1-6.229.089,19.042,19.042,0,0,1-6.149-1.5,12.127,12.127,0,0,1-5.063-4.093,12.456,12.456,0,0,1-1.522-2.91l-.249-.774-.125-.392-.1-.454a9.97,9.97,0,0,1-.151-1.664,22.5,22.5,0,0,1,.89-6.229,13.632,13.632,0,0,1,2.936-5.748,6.645,6.645,0,0,1,1.406-1.1,5.019,5.019,0,0,1,1.78-.578,8.012,8.012,0,0,1,1.726.071l1.45.16a31.266,31.266,0,0,0,5.837-.142A32.833,32.833,0,0,0,412,269.088a32.043,32.043,0,0,0,3.2-1.281c.525-.231,1.041-.5,1.557-.756l.756-.418c.267-.16.409-.231.89-.552h.747l.525.053a10,10,0,0,1,1.032.178,11.663,11.663,0,0,1,1.975.65,13.686,13.686,0,0,1,3.426,2.233,18.606,18.606,0,0,1,4.556,6.54,23.819,23.819,0,0,1,.979,2.474,20.673,20.673,0,0,1,.765,2.527,23.486,23.486,0,0,1,.614,2.572l.436,2.331.836.819,1.005.908c.641.667,1.264,1.353,1.886,2.047,1.237,1.379,2.429,2.8,3.6,4.236,2.322,2.883,4.52,5.873,6.594,8.9a145.927,145.927,0,0,1,10.055,17.36,153.049,153.049,0,0,1,10.571,28.4A159.274,159.274,0,0,1,472.3,371.1c.151,1.7.4,3.346.489,5.063a63.608,63.608,0,0,1,.214,6.754,11.15,11.15,0,0,1-.383,3.008,6.778,6.778,0,0,1-.285.89c-.338.605-.632-1.975-.89-6.585a160.952,160.952,0,0,0-8.08-41.643,147.1,147.1,0,0,0-13.605-29.221Z" transform="translate(-40.801 -20.388)" fill="#fff"/>
    <path id="Path_19479" data-name="Path 19479" d="M430.127,234.756c.08-.641,12.742,4.591,15.839-9.477.934-4.271-4.627-7.421-8.471-6.335-3.043.89-2.669,4.707-4.974,5.09-5.09-.632-2.527-11.221-3.719-14.682-2.518-7.341-9.788-7.279-15.937-4.921-10.2,3.9-19.781,13.392-31.491,9.832-7.839-2.385-12.324-11.959-12.4-19.442-.142-12.066,12.653-22.432,23.358-25.591,23.331-6.878,40.451,8.409,41.884,9.236,2.447,1.415,5.259-.89,8.142-1.379,18.846-3.088,32.033,17.8,28.474,35.4-1.949,9.788-15.714,17.592-13.347,24.514,1.584,4.627,14.424,10.882,10.74,25.03-4.209,16.132-22.984,20.59-37.417,10.3,0,0-4.262-17.191-14.379-16.444C416.45,255.889,428.614,246.929,430.127,234.756Z" transform="translate(-38.555 -9.521)" fill="#fff"/>
    <path id="Path_19480" data-name="Path 19480" d="M469.165,198.239a32.22,32.22,0,0,0-2.954-7.368,29.035,29.035,0,0,0-4.707-6.362,21.961,21.961,0,0,0-13.819-6.78c-.65-.071-1.3-.053-1.958-.089a8.025,8.025,0,0,0-1.958.125,19.187,19.187,0,0,0-1.9.276,15.307,15.307,0,0,0-1.842.605,11.772,11.772,0,0,1-4.3,1.094,4.218,4.218,0,0,1-2.394-.8L431.65,177.7a51.32,51.32,0,0,0-6.852-4.244c-1.183-.65-2.429-1.166-3.648-1.726l-1.878-.73a20.03,20.03,0,0,0-1.9-.658,41.6,41.6,0,0,0-23.135-.792,33.368,33.368,0,0,0-9.53,3.817,37.16,37.16,0,0,0-8.133,6.318,26.544,26.544,0,0,0-5.668,8.453,17.957,17.957,0,0,0-.961,9.966,23.928,23.928,0,0,0,3.808,9.423,15.127,15.127,0,0,0,7.848,6.042,18.686,18.686,0,0,0,10.073.044,45.585,45.585,0,0,0,9.539-4.084c2.741-1.468,5.455-3.052,8.311-4.449.7-.347,1.433-.676,2.171-.97s1.477-.587,2.242-.836a20.144,20.144,0,0,1,4.725-.952,12.191,12.191,0,0,1,4.85.578,8.818,8.818,0,0,1,4.031,2.865,10.738,10.738,0,0,1,1.281,2.118l.463,1.13a6.005,6.005,0,0,1,.276,1.255,40.589,40.589,0,0,1,.133,4.734,23.573,23.573,0,0,0,.481,5.766,3.648,3.648,0,0,0,1.3,2.109,1.976,1.976,0,0,0,.516.249,1.1,1.1,0,0,0,.294.08h.338l.222-.116.2-.16.2-.214c.507-.641.845-1.619,1.441-2.536a4.4,4.4,0,0,1,2.732-2.029,8.213,8.213,0,0,1,6.229,1.183,6.993,6.993,0,0,1,2.3,2.349,5.018,5.018,0,0,1,.641,3.319,16.565,16.565,0,0,1-.836,3.016,14.37,14.37,0,0,1-1.379,2.8,10.269,10.269,0,0,1-4.805,4.049,13.178,13.178,0,0,1-6.158.765,16.551,16.551,0,0,1-2.669-.48,3.877,3.877,0,0,1-.534-.16h0v-.151c0-.044,0-.133-.071-.16h0l.062.142c.062.142.053-.044.116-.062a3.222,3.222,0,0,1,.676-.053h2.456a16.292,16.292,0,0,0,3.63-.427,9.513,9.513,0,0,0,4.013-2.038,10.882,10.882,0,0,0,2.91-4.449,19.084,19.084,0,0,0,.828-2.91,3.248,3.248,0,0,0-.445-2.411,6.309,6.309,0,0,0-4.209-2.669,5.277,5.277,0,0,0-2.483.089,2.544,2.544,0,0,0-.89.5,4.235,4.235,0,0,0-.721.934c-.222.374-.427.828-.685,1.3a5.713,5.713,0,0,1-1.1,1.548,4.441,4.441,0,0,1-.454.356c-.178.1-.356.2-.543.276a2.063,2.063,0,0,1-.3.089l-.4.107c-.125.062-.249,0-.374,0l-.329-.062a4.031,4.031,0,0,1-1.86-.97,6.229,6.229,0,0,1-1.664-3.292,19.52,19.52,0,0,1-.365-3.221c-.08-2.1,0-4.155-.053-6.086a10.151,10.151,0,0,0-.151-1.344,2.368,2.368,0,0,0-.169-.578l-.258-.641a8.713,8.713,0,0,0-1.4-2.3,7.519,7.519,0,0,0-4.618-2.4,14.389,14.389,0,0,0-5.615.4,29.132,29.132,0,0,0-5.5,2.082c-1.78.89-3.559,1.78-5.339,2.785a66.546,66.546,0,0,1-11.221,5.339,23.49,23.49,0,0,1-6.229,1.166,20.048,20.048,0,0,1-6.371-.836,14.949,14.949,0,0,1-5.6-3.266,20.706,20.706,0,0,1-3.969-5.019,26.694,26.694,0,0,1-2.741-7.118,21.028,21.028,0,0,1-.391-7.688,20.635,20.635,0,0,1,2.563-7.305,29.024,29.024,0,0,1,4.636-6.158,40.246,40.246,0,0,1,12.618-8.693l1.78-.721,1.833-.614c1.237-.356,2.491-.623,3.728-.89l.934-.222.952-.133,1.9-.258a28.659,28.659,0,0,1,3.817-.285A43.6,43.6,0,0,1,419.62,169.4a54.1,54.1,0,0,1,14.557,8.124,3.32,3.32,0,0,0,3.319.347c1.246-.383,2.509-.988,3.933-1.361a22.085,22.085,0,0,1,8.507-.116,24.47,24.47,0,0,1,14.237,8.578,33.866,33.866,0,0,1,7.679,18.917,28.866,28.866,0,0,1-.943,10.3,29.183,29.183,0,0,1-5.392,8.8c-1.628,2.011-3.355,3.924-4.885,5.944a20.168,20.168,0,0,0-2.029,3.15,6.994,6.994,0,0,0-.89,3.435,5.437,5.437,0,0,0,1.433,3.159c.765.97,1.682,1.886,2.554,2.83a37.292,37.292,0,0,1,4.876,6.1,18.446,18.446,0,0,1,2.669,7.4,19.22,19.22,0,0,1-.792,7.795l-.614,1.86a17.02,17.02,0,0,1-.819,1.78A20.73,20.73,0,0,1,465,269.8a18.38,18.38,0,0,1-1.264,1.495l-.658.739a8.44,8.44,0,0,1-.73.65l-1.486,1.281-1.646,1.059a10.127,10.127,0,0,1-1.7.89,19.173,19.173,0,0,1-1.78.783l-1.833.605-.454.151-.472.1-.943.187a23.757,23.757,0,0,1-3.791.48c-.641.062-1.272,0-1.913,0a13.68,13.68,0,0,1-1.9-.116,24.2,24.2,0,0,1-3.737-.676c-.614-.16-1.237-.285-1.833-.481l-1.78-.658-.89-.329c-.294-.133-.569-.276-.89-.418l-1.7-.836a16.578,16.578,0,0,1-1.619-.97l-1.78-1.121-.2-.739-.151-.507-.32-1.014c-.231-.667-.472-1.326-.73-1.984a35.587,35.587,0,0,0-1.78-3.826,18.775,18.775,0,0,0-5.143-6.38,7.955,7.955,0,0,0-4.672-1.637h-3.052a3.557,3.557,0,0,1,.587-.5l.721-.552c.489-.383.97-.756,1.406-1.13l.676-.57.329-.285.214-.2.756-.7A41.109,41.109,0,0,0,426.988,242c.712-1.281,1.121-2.358,1.539-3.221a21.034,21.034,0,0,0,.89-2.242c.231-.641.454-1.4.623-1.78s.2-.187.2.285a5.661,5.661,0,0,1-.071,1,7.947,7.947,0,0,1-.24,1.513,27,27,0,0,1-4.574,9.913,42.2,42.2,0,0,1-3.942,4.921c-.7.765-1.459,1.495-2.225,2.207l-.365.338-.08.125-.062.044h.605l.356.107a10.01,10.01,0,0,1,2.856,1.344,16.773,16.773,0,0,1,4.3,4.387,31.377,31.377,0,0,1,2.928,5.294c.409.89.783,1.86,1.121,2.812.169.472.329.952.489,1.433l.32,1.077,2.3,1.45,2.741,1.37,2.883,1.068c1,.24,1.984.534,2.981.739a23.651,23.651,0,0,0,12.119-.845l.73-.24c.231-.1.454-.222.685-.329l1.388-.658a13.078,13.078,0,0,0,1.3-.8,13.667,13.667,0,0,0,1.264-.89l1.166-1,.578-.5.507-.569L463.3,269.2a13.782,13.782,0,0,0,.89-1.255c.276-.427.587-.836.836-1.29l.667-1.379a17.357,17.357,0,0,0,1.1-2.883l.24-.739c.071-.249.107-.5.16-.756l.294-1.5c.1-.507.08-1.023.133-1.53a7.819,7.819,0,0,0,0-1.513,15.731,15.731,0,0,0-2.136-7.341,33.343,33.343,0,0,0-4.894-6.3c-.943-1.014-1.913-1.975-2.839-3.141a8.719,8.719,0,0,1-1.264-2.011,5.641,5.641,0,0,1-.472-2.465,9.422,9.422,0,0,1,1.37-4.449,27.907,27.907,0,0,1,2.447-3.559c1.78-2.207,3.6-4.253,5.268-6.389a25.636,25.636,0,0,0,4.058-6.789,13.347,13.347,0,0,0,.516-1.833c.107-.658.249-1.308.311-1.967a27.225,27.225,0,0,0,.222-3.986,31.367,31.367,0,0,0-1.095-7.919Z" transform="translate(-38.468 -9.433)" fill="#fff"/>
    <path id="Path_19481" data-name="Path 19481" d="M394.664,270.274c-8.008,3.791-5.668,12.208-6.558,14.068s-5.339,1.78-5.339,1.78c-5.784-.133-8.346-6.273-6.229-11.123,1.958-4.52,8.124-7.012,8.774-12.2C385.312,262.773,391.87,271.173,394.664,270.274Z" transform="translate(-39.308 -20.027)" fill="#fff"/>
    <path id="Path_19482" data-name="Path 19482" d="M378.482,273.517a7.821,7.821,0,0,0-1.041,8.338,6.131,6.131,0,0,0,2.1,2.34,7.741,7.741,0,0,0,5.588.89,3.4,3.4,0,0,0,2.287-1.059,3.454,3.454,0,0,0,.231-1.272l.08-1.593a18.239,18.239,0,0,1,1.005-5.766,10.4,10.4,0,0,1,2.011-3.275,8.963,8.963,0,0,1,1.459-1.264,7.736,7.736,0,0,1,.8-.525l.89-.409c.721-.329.783.125.427.792a12.29,12.29,0,0,1-1.949,2.385,9.882,9.882,0,0,0-1.059,1.228,10.679,10.679,0,0,0-.792,1.433,11.967,11.967,0,0,0-.89,3.23c-.169,1.148-.214,2.331-.285,3.559a3.4,3.4,0,0,1-.107,1.014,3.228,3.228,0,0,1-.116.57,2.669,2.669,0,0,1-.267.658,3.56,3.56,0,0,1-1.975,1.433,10.679,10.679,0,0,1-2.411.472,11.739,11.739,0,0,1-2.438,0,7.278,7.278,0,0,1-4.52-2.109,8.373,8.373,0,0,1-2.331-4.867,9.663,9.663,0,0,1,.819-5.25,17.379,17.379,0,0,1,4.031-4.921,30.314,30.314,0,0,0,2.99-3.15,8.975,8.975,0,0,0,1.121-1.78l.116-.231a2.031,2.031,0,0,0,.133-.392l.222-.819c.16-.543.231-1.086.347-1.637.044,0,.116.089.187.169l.214.267c.543.685,1.1,1.361,1.673,1.993.4.436.8.89,1.219,1.272.828.828,1.682,1.619,2.572,2.349.4.32.8.605,1.21.89.756.516,1.255.774,1.575.961a2.27,2.27,0,0,1,.685.534c.089.089.222.16.311.24s.053.365-.418.516a2.9,2.9,0,0,1-1.922-.276,16.906,16.906,0,0,1-4.333-3.194c-.65-.614-1.264-1.264-1.869-1.922l-.222-.258-.062-.062h0l-.08.187c-.125.24-.231.489-.365.721-1.9,3.266-4.93,5.1-6.78,7.572Z" transform="translate(-39.232 -19.888)" fill="#fff"/>
    <path id="Path_19483" data-name="Path 19483" d="M383.321,338.934q1.335-4.262,2.812-8.444c.347-1.023.667-2.055,1.041-3.061,1.317-3.559,2.723-7.119,4.147-10.678.623-1.566,1.219-3.15,1.78-4.716a62.349,62.349,0,0,1,2.394-6c.6-1.2,1.459.97.561,3.275-1.584,4.084-3.221,8.133-4.965,12.19-1.041,2.429-1.886,5.045-2.794,7.581-.988,2.794-1.949,5.606-2.839,8.435-.561,1.735-1.086,3.488-1.575,5.241-.756,2.669-1.459,5.339-2.038,8.008-.214,1.05-.4,2.091-.578,3.123l-.454,3.123-.187,1.37c-.249,1.717-.445,2.242-.943,2.545a2.723,2.723,0,0,1-.338.2c-.365.116-.534-.632-.427-1.913a76.388,76.388,0,0,1,1.993-11.665c.685-2.919,1.5-5.81,2.358-8.676Z" transform="translate(-39.648 -24.753)" fill="#fff"/>
    <path id="Path_19484" data-name="Path 19484" d="M397.375,369.054a16.114,16.114,0,0,1,5.081,3.052c1.477,1.246,2.812,2.58,4.129,3.9.961.961,1.958,1.886,2.927,2.821a48.2,48.2,0,0,0,11.336,8.435,38.33,38.33,0,0,0,5.81,2.385c2.554.819,5.188,1.344,7.8,1.958.81.2.641.605-.142.89a6.816,6.816,0,0,1-3.728.089,41.046,41.046,0,0,1-15.42-6.967,72.346,72.346,0,0,1-7.919-6.683c-1.344-1.317-2.669-2.669-4-3.942a23.535,23.535,0,0,0-4.289-3.4,10.527,10.527,0,0,0-3.025-1.237,10.916,10.916,0,0,0-1.611-.2,5.34,5.34,0,0,0-1.584.142,21.292,21.292,0,0,0-4.769,1.78c-.774.392-1.522.819-2.26,1.264l-1.077.7-.516.374-.311.24a2.127,2.127,0,0,0-.7.8.176.176,0,0,0,.151.187h.285a5.339,5.339,0,0,0,.543-.053,4.751,4.751,0,0,0,.489-.1,8.07,8.07,0,0,0,.89-.249,15.831,15.831,0,0,0,1.78-.7c.516-.231,1.023-.5,1.566-.747,2.02-.943,2.883-1,3.435-.658a1.645,1.645,0,0,1,.356.24c.249.329-.543.65-1.913,1.308-1.032.489-2.091,1.094-3.266,1.6a13.832,13.832,0,0,1-1.851.667l-.5.125-.249.062-.427.053-.89.116h-.828a2.18,2.18,0,0,1-1.246-.267.72.72,0,0,1-.392-.3,1.112,1.112,0,0,1-.24-.543,1.611,1.611,0,0,1,.2-1.05l.169-.285.258-.3a5.542,5.542,0,0,1,.605-.605c.2-.2.472-.392.7-.587l.338-.258.2-.142.81-.569c.552-.356,1.112-.7,1.673-1.023a27.724,27.724,0,0,1,5.339-2.429,9.12,9.12,0,0,1,3.141-.5,11.335,11.335,0,0,1,3.079.525Z" transform="translate(-39.857 -31.667)" fill="#fff"/>
    <path id="Path_19485" data-name="Path 19485" d="M391.241,376.294c.142-.2.392-.151.7.044.1.062.249.329.222.4a2.291,2.291,0,0,1-.2.392c-.044.071-.961.836-1.246,1.121a9.778,9.778,0,0,1-.89.739,14.082,14.082,0,0,0-1.691,1.539,2.5,2.5,0,0,1-.347.338,2.171,2.171,0,0,0-.765,1.264.64.64,0,0,0,0,.294c0,.169-.222,1.691-.24,1.9a9.384,9.384,0,0,0-.214,1.513v.231a.641.641,0,0,0-.071.489,5.859,5.859,0,0,1,0,.685,1.353,1.353,0,0,1-.107.356c-.044.107-.24.08-.267.053s-.16,0-.24,0h-.08a7.031,7.031,0,0,1-.569-1.459,1.69,1.69,0,0,0-.044-.338,5.473,5.473,0,0,1-.071-.747,11.866,11.866,0,0,1,0-1.255,1.058,1.058,0,0,1,.071-.365,16.908,16.908,0,0,1,.214-1.78,5.534,5.534,0,0,1,.178-.569,1.53,1.53,0,0,1,.32-.516.952.952,0,0,0,.133-.2,5.6,5.6,0,0,1,1.2-1.406c.223-.2.427-.427.65-.623a.664.664,0,0,1,.133-.08.81.81,0,0,0,.169-.116c.525-.472,1.112-.836,1.637-1.281.125-.107.828-.409.97-.516S391.179,376.374,391.241,376.294Z" transform="translate(-40.334 -32.518)" fill="#fff"/>
    <path id="Path_19486" data-name="Path 19486" d="M389.213,389.138c.071.214-.062.4-.294.552-.071.053-.285,0-.32,0s-.116-.231-.169-.347-.24-1.192-.365-1.593a7.317,7.317,0,0,1-.16-1.175,10.377,10.377,0,0,1,.089-2.554,2.988,2.988,0,0,1,.187-.587c.32-.685.605-1.166.89-1.78a.792.792,0,0,0,.142-.3,3.676,3.676,0,0,1,.614-.89,4.884,4.884,0,0,1,.828-.792,9.208,9.208,0,0,1,1.53-.783c.071,0,.133-.089.222-.071a.89.89,0,0,0,.507-.125,4.445,4.445,0,0,1,.667-.214,1.068,1.068,0,0,1,.374,0c.107,0,.133.214.107.249s0,.151.08.222v.08a10.859,10.859,0,0,1-1.094.934,1.858,1.858,0,0,0-.24.151c-.151.1-.329.231-.507.365a6.548,6.548,0,0,0-.756.676.934.934,0,0,1-.24.178,7.255,7.255,0,0,0-.828,1.166,3.071,3.071,0,0,1-.489.694.4.4,0,0,0-.1.151,6.5,6.5,0,0,0-.472,1.281,4.075,4.075,0,0,0-.071.739v.142a1.113,1.113,0,0,0,0,.169,14.987,14.987,0,0,0,.053,1.886c0,.142-.089.89-.071,1.05S389.186,389.049,389.213,389.138Z" transform="translate(-40.637 -32.771)" fill="#fff"/>
    <path id="Path_19487" data-name="Path 19487" d="M393.915,383.223c.107-.116.276-.044.454.107a.445.445,0,0,1,.1.294c-.044.089-.08.178-.125.249a3.291,3.291,0,0,0-.294.3,5.072,5.072,0,0,0-.285.472c-.116.178-.231.338-.356.5a6.015,6.015,0,0,0-.6,1.112,2.036,2.036,0,0,1-.16.258,2.242,2.242,0,0,0-.383.979.267.267,0,0,0,0,.187,5.336,5.336,0,0,1-.178,1.2c-.133.3-.24.623-.347.943a.15.15,0,0,1-.062.142.544.544,0,0,0-.151.294,2.012,2.012,0,0,1-.125.418.6.6,0,0,1-.178.2c-.062.062-.258,0-.276,0h-.329a4.45,4.45,0,0,1-.3-.97s0-1.246.044-1.424a.543.543,0,0,1,.071-.222s.089-1.059.116-1.1a1.237,1.237,0,0,1,.249-.614.222.222,0,0,0,.053-.125,4.453,4.453,0,0,1,.472-1.05c.1-.169.187-.356.294-.525s.053-.053.08-.08l.1-.1a6.626,6.626,0,0,1,1-1.068c.062-.116.632-.222.73-.285S393.87,383.267,393.915,383.223Z" transform="translate(-40.908 -33.289)" fill="#fff"/>
    <path id="Path_19488" data-name="Path 19488" d="M398.676,286.063a9.629,9.629,0,0,1-.783-1.842,4.536,4.536,0,0,1-.231-.694,5.944,5.944,0,0,1,0-2.625,4.079,4.079,0,0,1,.134-.569c.062-.187.089-.392.16-.57s.178-.48.294-.712a1.824,1.824,0,0,1,.534-.543c.133-.089.427.231.676.6s.472.739.365.89a7.188,7.188,0,0,0-.747,1.886,2.874,2.874,0,0,0,.178,1.406,7.5,7.5,0,0,0,.578,1.557,7.116,7.116,0,0,0,.534.89,5.9,5.9,0,0,0,1.032,1.219,4.512,4.512,0,0,0,1.077.578l.24.089c.285.125.311.267.187.7a.927.927,0,0,1-.089.294.6.6,0,0,1-.685.454,4.4,4.4,0,0,1-2.314-1.37,9.714,9.714,0,0,1-1.21-1.619Z" transform="translate(-41.701 -21.756)" fill="#fff"/>
    <path id="Path_19489" data-name="Path 19489" d="M409.032,285.037a7.847,7.847,0,0,1-.792-1.655,3.291,3.291,0,0,1-.231-.623,6.229,6.229,0,0,1-.107-2.331,10.034,10.034,0,0,1,.125-1.023,3.916,3.916,0,0,1,.125-.667,1.45,1.45,0,0,1,.365-.569c.107-.1.463.142.792.427s.632.6.569.747a17.3,17.3,0,0,0-.48,1.824,2.572,2.572,0,0,0,.214,1.255,5.987,5.987,0,0,0,.561,1.335,4.873,4.873,0,0,0,.507.756,4.448,4.448,0,0,0,1.014.943,2.98,2.98,0,0,0,1.005.276,1.892,1.892,0,0,0,.222,0c.267,0,.311.169.276.623v.3a.614.614,0,0,1-.516.614,3.479,3.479,0,0,1-2.376-.845,6.756,6.756,0,0,1-1.281-1.388Z" transform="translate(-42.838 -21.718)" fill="#fff"/>
    <path id="Path_19490" data-name="Path 19490" d="M425.708,403.017A11.565,11.565,0,0,0,426.9,401.3a6.9,6.9,0,0,0,.311-.694,11.678,11.678,0,0,0,.97-2.58,5.711,5.711,0,0,0,.142-1.228,4.867,4.867,0,0,1,.1-1.6c.116-.329,1.708.1,1.708.783a8.649,8.649,0,0,1-.747,3.479c-.294.667-.463,1.388-.783,2.055a12.015,12.015,0,0,1-1.255,2.047c-.285.4-.614.765-.89,1.13-.489.543-1.023,1.05-1.53,1.557s-.73.836-1.112,1.255a3.576,3.576,0,0,1-.249.267c-.347.3-.525.3-.89,0a1.656,1.656,0,0,1-.231-.2.65.65,0,0,1-.08-.89,17.794,17.794,0,0,1,1.913-2.153,16.9,16.9,0,0,0,1.415-1.575Z" transform="translate(-44.423 -34.602)" fill="#fff"/>
    <path id="Path_19491" data-name="Path 19491" d="M431.27,376.586c0-1.557,0-3.132-.053-4.7,0-.569-.107-1.139-.142-1.708-.116-2.02-.258-4.04-.516-6.051a26.076,26.076,0,0,0-.48-2.669c-.258-1.1-.614-2.233-.792-3.248-.053-.267.32-.5.836-.347a1.9,1.9,0,0,1,1.246,1.308,34.561,34.561,0,0,1,1,7.118c.053,1.442.3,2.91.4,4.369.1,1.611.151,3.221.151,4.832,0,1,0,1.984-.062,2.981a36.787,36.787,0,0,1-.489,4.511,9.922,9.922,0,0,1-1.094,3.488,3.374,3.374,0,0,1-.578.721,2.056,2.056,0,0,1-1.183.552.739.739,0,0,1-.6-.365,1.477,1.477,0,0,1-.142-.294.543.543,0,0,1,.151-.472,1.026,1.026,0,0,1,.2-.187c.08-.053.142-.151.231-.2a4.1,4.1,0,0,0,1.086-2.1,18.091,18.091,0,0,0,.525-2.919,42.029,42.029,0,0,0,.258-4.645Z" transform="translate(-45.144 -30.496)" fill="#fff"/>
    <path id="Path_19492" data-name="Path 19492" d="M397.259,367.609c.89-.792,6.433-6.825,4.182-8.667-1.673-1.361-6.674,3.782-7.385,5.108l1.913.943-2.109,2.616Z" transform="translate(-41.298 -30.595)" fill="#fff"/>
    <path id="Path_19493" data-name="Path 19493" d="M377.679,392.322s-1.869.294-1.869-.605c0-1.673,10.838-14.468,10.838-14.468l3.283-1.708S379.538,390.044,377.679,392.322Z" transform="translate(-39.309 -32.449)" fill="#fff"/>
    <path id="Path_19494" data-name="Path 19494" d="M460.955,416.166c-1.4,0-2.794-.1-4.191-.2a9.805,9.805,0,0,1-1.53-.08c-1.78-.169-3.559-.472-5.339-.81-.783-.187-1.584-.294-2.358-.463-.507-.116-1.014-.2-1.522-.329a8,8,0,0,1-1.441-.587c-.561-.311.792-1.548,1.78-1.219,1.877.543,3.817.961,5.81,1.424a25.459,25.459,0,0,0,3.711.4c1.379.089,2.758.169,4.138.214.89,0,1.708.044,2.563,0,1.29,0,2.589,0,3.88-.1,1-.062,1.966-.231,2.963-.347.214,0,.436-.062.658-.071.819-.062,1.1.071,1.272.507a2.046,2.046,0,0,1,.107.3c.071.347-.267.623-.836.73a36.827,36.827,0,0,1-5.463.578c-1.4.062-2.812.071-4.218.062Z" transform="translate(-46.871 -36.513)" fill="#fff"/>
    <path id="Path_19495" data-name="Path 19495" d="M495.481,346.579a115.8,115.8,0,0,0-2.011-13.347c-.356-1.6-.8-3.177-1.264-4.734a29.873,29.873,0,0,0-3.346-7.8,8.9,8.9,0,0,0-2.812-2.874,4.9,4.9,0,0,0-1.78-.65,3.937,3.937,0,0,0-.97,0,4.057,4.057,0,0,0-.988.125,6.131,6.131,0,0,0-3.07,1.717,10.678,10.678,0,0,0-2.118,2.981,29.008,29.008,0,0,0-2.465,9.272c-.116.988-.543.89-.89-.044a8.133,8.133,0,0,1-.16-4.556,23.53,23.53,0,0,1,1.708-5.019,12.911,12.911,0,0,1,3.328-4.378,7.946,7.946,0,0,1,5.446-1.78,6.344,6.344,0,0,1,2.821.89,9.04,9.04,0,0,1,2.127,1.842,22.033,22.033,0,0,1,3.248,5.561,44.826,44.826,0,0,1,2.055,6.015,99.98,99.98,0,0,1,2.474,13.579c.338,2.812.587,5.624.792,8.435.3,4.262.427,8.56.481,12.8,0,3.3.089,6.531-.053,9.788,0,.721-.062,1.424-.125,2.153-.24,2.669-.552,3.559-1.094,4.031a2.135,2.135,0,0,1-.365.311c-.4.169-.409-.89-.276-2.839.374-5.713.365-11.817.187-17.921-.142-4.538-.418-9.094-.89-13.623Z" transform="translate(-50.058 -25.831)" fill="#fff"/>
    <path id="Path_19496" data-name="Path 19496" d="M393.342,232.663a2.509,2.509,0,0,1-1.3-1.379l-.214-.489-.107-.32c-.062-.2-.116-.409-.169-.614a5.17,5.17,0,0,1-.214-1.023,2.346,2.346,0,0,1,.044-.561,3.626,3.626,0,0,1,.2-.6,3.042,3.042,0,0,1,.392-.489,1.779,1.779,0,0,1,.534-.311,2.909,2.909,0,0,1,1.931,0,9.715,9.715,0,0,1,1.406.578,2.456,2.456,0,0,1,1.379,1.442c.071.231-.356.347-.792.427l-.605.1c-.178,0-.32,0-.383-.062a4.707,4.707,0,0,0-2.144-1.094.24.24,0,0,0-.3.107.578.578,0,0,0,0,.214,1.345,1.345,0,0,0,0,.347,5.59,5.59,0,0,0,.249,1.014l.107.329a1.236,1.236,0,0,0,.107.249c.071.178.294.365.472.222l.08-.08a1.059,1.059,0,0,0-.1-1.112.374.374,0,0,0-.383-.125h0c.044.089-.062-.116-.053-.089h0c0,.044.08.089.071.089a.679.679,0,0,0,0,.142v.151c0,.044,0,.178-.32.543a1.662,1.662,0,0,0-.178.258.445.445,0,0,1-.418.214.765.765,0,0,1-.543-.427,1.9,1.9,0,0,1-.178-1.281,1.673,1.673,0,0,1,.356-.747,1.924,1.924,0,0,1,.409-.347,1.3,1.3,0,0,1,.347-.142,1.708,1.708,0,0,1,1.5.3,2.794,2.794,0,0,1,1,1.78,2.9,2.9,0,0,1-.213,1.78,1.993,1.993,0,0,1-.89.89,1.655,1.655,0,0,1-1.077.053Z" transform="translate(-41.02 -16.051)" fill="#fff"/>
    <path id="Path_19497" data-name="Path 19497" d="M407.052,234.553a2.545,2.545,0,0,1-1.3-1.379l-.214-.489-.107-.32c-.062-.2-.116-.409-.169-.614a5.132,5.132,0,0,1-.214-1.032,2.274,2.274,0,0,1,.044-.552,3.629,3.629,0,0,1,.2-.6,2.672,2.672,0,0,1,.392-.489,1.78,1.78,0,0,1,.534-.311,2.91,2.91,0,0,1,1.931,0,9.714,9.714,0,0,1,1.406.578,2.456,2.456,0,0,1,1.379,1.442c.071.231-.356.347-.792.427l-.605.089c-.187,0-.32,0-.383-.053a4.814,4.814,0,0,0-2.144-1.1.24.24,0,0,0-.3.116.543.543,0,0,0,0,.214,1.344,1.344,0,0,0,0,.347,5.338,5.338,0,0,0,.249,1.006l.107.338a1.5,1.5,0,0,0,.107.249c.071.178.294.365.472.222l.08-.089a1.05,1.05,0,0,0-.1-1.1.356.356,0,0,0-.383-.125h0c.044.089-.062-.116-.053-.089h0s.08.089.071.089a.654.654,0,0,0,0,.142c0,.071,0,.107.044.151s-.044.178-.329.543a2.587,2.587,0,0,0-.169.258.445.445,0,0,1-.418.214.765.765,0,0,1-.543-.427,1.9,1.9,0,0,1-.178-1.281,1.628,1.628,0,0,1,.356-.747,1.7,1.7,0,0,1,.409-.347,1.3,1.3,0,0,1,.347-.142,1.709,1.709,0,0,1,1.5.3,2.794,2.794,0,0,1,1,1.78,2.927,2.927,0,0,1-.214,1.78,1.931,1.931,0,0,1-.89.89,1.6,1.6,0,0,1-1.077.062Z" transform="translate(-42.531 -16.259)" fill="#fff"/>
    <path id="Path_19498" data-name="Path 19498" d="M407.92,222.853c-.107.231-.347-.142-.73-.765a3.149,3.149,0,0,1-.32-.952,3.1,3.1,0,0,1,.2-.65,6.478,6.478,0,0,1,1.726-1.005,3.238,3.238,0,0,1,1.3-.294,15.766,15.766,0,0,1,2.6.071,1.192,1.192,0,0,1,.534.2,4.654,4.654,0,0,0,1.78.65.32.32,0,0,0,.329,0c.24-.178,1.886.445,2.047.65.418.463.89.89,1.237,1.317.062.062.16.062.142.24a.516.516,0,0,0,.231.587,1.5,1.5,0,0,1,.418.641,1.657,1.657,0,0,1,0,.552c0,.169-.347.472-.409.489a2.217,2.217,0,0,0-.365.427c-.116.151-.089.116-.133.151a10.93,10.93,0,0,1-1.628.276s-.374-.125-.765-.24a5.58,5.58,0,0,0-.89-.2c-.1,0-.151-.116-.214-.2a13.025,13.025,0,0,0-1.317-.187c-.231-.125-.507,0-.676-.418,0-.071-.089-.071-.133-.08a5.776,5.776,0,0,1-1.264-.392,2.758,2.758,0,0,0-.658-.116l-.107-.08c-.036-.027-.1-.089-.151-.089a4.4,4.4,0,0,0-1.522-.053c-.107,0-.7-.276-.819-.2S407.964,222.755,407.92,222.853Z" transform="translate(-42.732 -15.219)" fill="#fff"/>
    <path id="Path_19499" data-name="Path 19499" d="M390.435,218.265c-.071.24-.356-.1-.81-.667a2.918,2.918,0,0,1-.445-.89,3.558,3.558,0,0,1,.125-.667,6.8,6.8,0,0,1,1.584-1.219,3.337,3.337,0,0,1,1.255-.454,16.017,16.017,0,0,1,2.58-.258,1.139,1.139,0,0,1,.561.142,4.7,4.7,0,0,0,1.878.409c.107,0,.2.053.329-.053a5.6,5.6,0,0,1,2.118.383c.472.409.952.739,1.388,1.148.062.053.169,0,.169.222,0,.409.169.436.3.552a1.522,1.522,0,0,1,.5.578,1.717,1.717,0,0,1,.062.543,1.173,1.173,0,0,1-.338.552,2.993,2.993,0,0,0-.32.463,1.089,1.089,0,0,1-.107.169,11.32,11.32,0,0,1-1.575.48s-.392-.08-.792-.142a4.544,4.544,0,0,0-.89-.089c-.1,0-.16-.1-.231-.178q-.667-.033-1.335,0c-.24-.1-.507,0-.721-.329a.133.133,0,0,0-.142-.062,5.854,5.854,0,0,1-1.3-.231,2.811,2.811,0,0,0-.667,0c-.044,0-.08-.053-.125-.071s-.107-.071-.151-.071a4.5,4.5,0,0,0-1.522.142c-.107,0-.73-.187-.836-.089S390.47,218.159,390.435,218.265Z" transform="translate(-40.782 -14.662)" fill="#fff"/>
    <path id="Path_19500" data-name="Path 19500" d="M392.386,243.9a3.132,3.132,0,0,1-1.05-1.78,2.67,2.67,0,0,1,.507-2.038,6.554,6.554,0,0,1,.774-.943,24.573,24.573,0,0,1,2.99-2.429l1.388-1.005a6,6,0,0,1,1.878-1.077c.445-.107.694,1.566.044,1.967-1.183.712-2.3,1.424-3.488,2.18a12.138,12.138,0,0,0-1.886,1.78,2.4,2.4,0,0,0-.6.89.988.988,0,0,0,.169.845,3.274,3.274,0,0,0,1.166.97,7.368,7.368,0,0,0,2.429.8,5.917,5.917,0,0,0,1.949-.089l.383-.116c.472-.107.587-.053.89.32a2.672,2.672,0,0,1,.2.249c.214.276.071.676-.418.89a6.745,6.745,0,0,1-4.289.116,7.617,7.617,0,0,1-3.043-1.5Z" transform="translate(-41.016 -16.922)" fill="#fff"/>
    <path id="Path_19501" data-name="Path 19501" d="M395.807,255.826c-.178-.062-.116-.285.116-.534a1.184,1.184,0,0,1,.4-.231h.285a2.323,2.323,0,0,0,.7.249,3.166,3.166,0,0,1,.5.133,5.561,5.561,0,0,0,1.13.178.889.889,0,0,1,.258.062,1.068,1.068,0,0,0,.81,0,.1.1,0,0,0,.1-.08,1.192,1.192,0,0,1,.3-.2c.142-.089.3-.2.356-.222a4.322,4.322,0,0,0,.8-.383.155.155,0,0,1,.133-.053.575.575,0,0,0,.311-.1,1.575,1.575,0,0,1,.356-.214,1.068,1.068,0,0,1,.285,0c.089,0,.2.187.2.222s.107.142.169.2a.16.16,0,0,1,.062.071,2.9,2.9,0,0,1-.285.89l-.4.463a5.678,5.678,0,0,1-.543.561.472.472,0,0,1-.231.116,4.762,4.762,0,0,1-.534.356,4.135,4.135,0,0,1-.623.258,1.175,1.175,0,0,1-.721,0,.267.267,0,0,0-.142,0,3.453,3.453,0,0,1-1.095-.125l-.552-.089-.089-.053c-.044,0-.08-.053-.116-.062a7.121,7.121,0,0,1-1.281-.525c-.116,0-.454-.48-.543-.561S395.861,255.87,395.807,255.826Z" transform="translate(-41.501 -19.103)" fill="#fff"/>
    <path id="Path_19502" data-name="Path 19502" d="M411.783,312.133a23.137,23.137,0,0,1-3.23.267H407.37a22.142,22.142,0,0,1-4.075-.667c-.587-.142-1.184-.276-1.78-.392a8.462,8.462,0,0,1-2.2-.65c-.427-.231.552-1.37,1.37-1.139l4.36,1.2a11.611,11.611,0,0,0,2.732.249,19.416,19.416,0,0,0,3.043-.187c.623-.071,1.246-.2,1.869-.329a22.942,22.942,0,0,0,2.776-.783,19.747,19.747,0,0,0,2.011-.943c.151-.071.285-.16.436-.222.552-.258.765-.24,1.032.062.062.071.133.133.187.2.169.249,0,.57-.356.819a15.591,15.591,0,0,1-3.853,1.735,24.8,24.8,0,0,1-3.159.774Z" transform="translate(-41.888 -25.047)" fill="#fff"/>
    <path id="Path_19503" data-name="Path 19503" d="M218.156,133.985A76.648,76.648,0,0,0,229.324,123.4c1.2-1.45,2.376-2.91,3.444-4.449a70.482,70.482,0,0,0,9.45-17.4c.249-.694.534-1.379.747-2.082l.6-2.136.578-2.127c.142-.721.276-1.441.409-2.162.169-.89.365-1.842.489-2.767l.3-2.8c.285-1.851.258-3.728.48-5.6.116-1.166.667-1.023,1.157,0a8.339,8.339,0,0,1,.65,2.118,9.44,9.44,0,0,1,.125,3.043,60.952,60.952,0,0,1-6.86,22.637,97.819,97.819,0,0,1-7.706,12.271A79.451,79.451,0,0,1,222.134,133.5a75.117,75.117,0,0,1-7.893,5.819c-1.05.65-2.1,1.317-3.168,1.949l-3.283,1.78a46.832,46.832,0,0,1-6.86,2.839,93.512,93.512,0,0,0-10.429,3.915c-.721.347-1.406.721-2.1,1.121s-1.157.7-1.611.952-.783.489-1.094.65a2.829,2.829,0,0,1-1.45.445,3.213,3.213,0,0,1-.6,0c-.258-.062-.214-.365.125-.89a6.729,6.729,0,0,1,.73-.89,13.95,13.95,0,0,1,1.192-1.014,34.587,34.587,0,0,1,9.485-4.609c3.328-1.157,6.682-2.118,9.788-3.515a76.186,76.186,0,0,0,13.16-8.062Z" transform="translate(-18.117)" fill="#fff"/>
    <path id="Path_19504" data-name="Path 19504" d="M177.345,169.82c-.836-.044-1.673-.089-2.5-.089-.3,0-.605.062-.89.062a29.366,29.366,0,0,0-3.194.1,6.5,6.5,0,0,0-1.37.3,4.574,4.574,0,0,1-1.708.472c-.4,0-.658-2.1.1-2.376a10.206,10.206,0,0,1,3.969-.472,21.278,21.278,0,0,0,2.376-.142h2.607l1.593.053c.8,0,1.611.08,2.4.053a18.458,18.458,0,0,0,1.833-.24,3.118,3.118,0,0,1,.4-.062c.507,0,.658.116.756.694,0,.125.053.258.062.392a.836.836,0,0,1-.543.89,10.625,10.625,0,0,1-3.346.409h-2.527Z" transform="translate(-16.334 -9.524)" fill="#fff"/>
    <path id="Path_19505" data-name="Path 19505" d="M179.815,205.215l1.486-7.795c.178-.943.294-1.9.472-2.847l.97-5.01c.338-1.655.658-3.31.89-4.974a28.419,28.419,0,0,0,.285-4.449,27.433,27.433,0,0,0-.73-5.419c-.107-.534.409-.721,1.086-.409a3.168,3.168,0,0,1,1.682,2.394,24.14,24.14,0,0,1,0,6.229,46.762,46.762,0,0,1-1.059,5.917c-.569,2.314-.845,4.734-1.272,7.119l-1.459,7.857-.89,4.832c-.418,2.438-.89,4.885-1.139,7.323-.231,1.9-.294,3.773-.4,5.65a9.723,9.723,0,0,1-.053,1.246c-.116,1.539-.294,2.02-.89,2.3a2.789,2.789,0,0,1-.409.187c-.454.116-.756-.552-.792-1.708a66.148,66.148,0,0,1,.819-10.562c.374-2.669.836-5.285,1.29-7.919Z" transform="translate(-17.468 -10.26)" fill="#fff"/>
    <path id="Path_19506" data-name="Path 19506" d="M315.381,136.554A79.913,79.913,0,0,1,304.151,125.3c-1.2-1.513-2.474-2.972-3.559-4.6a73.577,73.577,0,0,1-9.049-18.179c-.24-.721-.516-1.424-.73-2.144l-.605-2.18-.623-2.171c-.16-.739-.311-1.477-.472-2.207-.187-.943-.427-1.878-.6-2.821l-.392-2.874a34.777,34.777,0,0,1-.249-5.775c0-1.2.578-1.023,1.157,0a8.9,8.9,0,0,1,.81,2.02,23.659,23.659,0,0,1,.534,2.865,75.081,75.081,0,0,0,5.953,21.97,69.853,69.853,0,0,0,7.279,12.084,78.838,78.838,0,0,0,10.509,11.381,69.219,69.219,0,0,0,7.608,5.864l3.07,1.967,3.194,1.78a39.444,39.444,0,0,0,6.674,2.785c3.559,1.166,7.225,1.993,10.776,3.47.774.329,1.539.658,2.3,1.068s1.264.747,1.78,1.041a11.985,11.985,0,0,1,1.059.89,2.456,2.456,0,0,1,.81,1.379,2.359,2.359,0,0,1,.08.569c0,.258-.356.258-.89,0-.267-.107-.561-.285-.934-.48s-.783-.436-1.246-.721a44.2,44.2,0,0,0-9.245-3.595,85.341,85.341,0,0,1-10.126-3.559,74.523,74.523,0,0,1-13.667-8.56Z" transform="translate(-29.617 -0.051)" fill="#fff"/>
    <path id="Path_19507" data-name="Path 19507" d="M363.807,167.557c.89.1,1.717.214,2.572.347a6.762,6.762,0,0,1,.943.089c1.1.2,2.2.48,3.283.774.48.125.97.214,1.459.294a3.764,3.764,0,0,1,1.842.569c.329.258-.89,2.038-1.45,1.869a30.255,30.255,0,0,1-3.435-1.077,9.85,9.85,0,0,0-2.233-.374c-.828-.116-1.664-.24-2.509-.329-.516-.053-1.032-.116-1.548-.142a21.131,21.131,0,0,0-2.367-.089,14.028,14.028,0,0,0-1.78.294c-.125,0-.258.062-.392.071-.5.053-.658-.089-.774-.658a2.773,2.773,0,0,1-.08-.392.836.836,0,0,1,.5-.943,9.486,9.486,0,0,1,3.4-.481c.89,0,1.735.062,2.607.125Z" transform="translate(-37.272 -9.512)" fill="#fff"/>
    <path id="Path_19508" data-name="Path 19508" d="M359.615,206.072l-1.059-7.857c-.133-.961-.32-1.9-.445-2.865l-.632-5.045c-.222-1.691-.436-3.39-.6-5.108-.133-1.513-.276-3.052-.32-4.583a12.457,12.457,0,0,1,.89-5.953c.285-.6.747-.258,1.086.392a4.449,4.449,0,0,1,.481,2.536c-.445,3.559,0,7.439.329,11.354.214,2.349.685,4.8,1.014,7.172l1.112,7.91.685,4.867c.329,2.465.667,4.938,1,7.385.276,1.9.641,3.746.943,5.624.062.418.142.819.2,1.246.187,1.548.071,2.064-.463,2.447a2.486,2.486,0,0,1-.374.249c-.418.178-.836-.418-1.068-1.53-.685-3.319-1.175-6.816-1.682-10.34Z" transform="translate(-37.182 -10.281)" fill="#fff"/>
    <path id="Path_19509" data-name="Path 19509" d="M279.131,212.511c-.249.231-.507-.133-.774-.89a2.669,2.669,0,0,1-.08-1.086,3.714,3.714,0,0,1,.383-.57c.08-.071,1.486-.614,1.984-.845a5.045,5.045,0,0,1,1.477-.356,28.663,28.663,0,0,1,3.212-.2,1.976,1.976,0,0,1,.739.142,18.1,18.1,0,0,0,2.572.632.739.739,0,0,0,.48,0,3.4,3.4,0,0,1,1.522.4,4.832,4.832,0,0,1,1.406.89,11.33,11.33,0,0,1,1.361,2.225c0,.116.142.187.08.365a.783.783,0,0,0,.116.774,2.75,2.75,0,0,1,.214.97,1.985,1.985,0,0,1-.187.578c-.071.178-.516.294-.587.276a1.913,1.913,0,0,0-.516.214l-.178.089a6.606,6.606,0,0,1-.89-.365c-.374-.214-.845-.285-.89-.356l-.214-.2c-.125-.116-.329-.214-.507-.347a3.56,3.56,0,0,0-.561-.276c-.16-.08-.267-.151-.32-.142s-.142-.133-.2-.231a5.97,5.97,0,0,0-1.415-.32c-.258-.133-.578-.053-.828-.427-.044-.071-.107-.071-.169-.08a10.389,10.389,0,0,1-1.691-.347,5.34,5.34,0,0,0-.89,0c-.053,0-.107-.045-.169-.071a.489.489,0,0,0-.214-.062,11.864,11.864,0,0,0-2.3.107,7.386,7.386,0,0,0-1.29-.187C279.594,212.876,279.229,212.413,279.131,212.511Z" transform="translate(-28.56 -14.05)" fill="#fff"/>
    <path id="Path_19510" data-name="Path 19510" d="M268.8,208.037c.356.089.311.561-.071,1.121a2.669,2.669,0,0,1-.747.587l-.578.116a7.519,7.519,0,0,0-1.513-.24,3.372,3.372,0,0,1-1.121-.2,16.526,16.526,0,0,0-2.394-.454,1.584,1.584,0,0,1-.552-.169,3.906,3.906,0,0,0-1.931-.338.489.489,0,0,0-.338.089,6.478,6.478,0,0,1-2.2.071,16.012,16.012,0,0,0-1.78-.5.262.262,0,0,1-.258-.116c-.2-.32-.374-.249-.561-.267a3.728,3.728,0,0,1-.756-.125,1.424,1.424,0,0,1-.418-.32c-.133-.116-.133-.578-.107-.632a1.322,1.322,0,0,0-.062-.543.986.986,0,0,1,0-.2,7.413,7.413,0,0,1,1.664-1.148c.044-.044,2.349-.383,2.616-.418a.712.712,0,0,1,.418.089c.062,0,1.922-.169,2-.142a1.98,1.98,0,0,1,1.139.3.32.32,0,0,0,.231.062,8.6,8.6,0,0,1,1.975.418c.329.107.676.116,1.014.2a.942.942,0,0,1,.178.107.712.712,0,0,0,.214.116,24.754,24.754,0,0,1,2.438.836c.2.08.89.819,1.139.97S268.68,208.01,268.8,208.037Z" transform="translate(-25.823 -13.58)" fill="#fff"/>
    <path id="Path_19511" data-name="Path 19511" d="M288.572,192.127a8.124,8.124,0,0,1,.721-4.342c.481-1.068,1.735-3.426,3.221-2.714.383.187,1.78-.409,1.246-.676-1.6-.765-3.408.125-4.529,1.317a8.765,8.765,0,0,0-2.207,6.825c.053.418,1.611.089,1.548-.409Z" transform="translate(-29.52 -11.356)" fill="#fff"/>
    <path id="Path_19512" data-name="Path 19512" d="M286.014,188.279c1.192-3.844,2.251-6.923-.97-10.073-.365-.356-1.78.214-1.45.578,3.132,3.07,2.029,6.024.89,9.708-.151.489,1.388.276,1.539-.214Z" transform="translate(-29.143 -10.693)" fill="#fff"/>
    <path id="Path_19513" data-name="Path 19513" d="M279.709,187.679c-6.941,7.03-26.926,20.368-37,20.11-5.908-.151-12.457-2.385-15.554-7.6-3.613-6.015-3.826-16.675,2.491-22.664C246.662,161.385,273.392,180.329,279.709,187.679Z" transform="translate(-22.651 -9.933)" fill="#fff"/>
    <path id="Path_19514" data-name="Path 19514" d="M312.607,216.743c-9.85,5.41-23.562-16.123-23.438-21.453-.436-4.316,17.974-7.83,26.748,8.151C317.972,207.177,317.029,214.323,312.607,216.743Z" transform="translate(-29.762 -12.187)" fill="#fff"/>
    <path id="Path_19515" data-name="Path 19515" d="M183.213,402.772l10.179,1.477,3.719.489,3.791.587,7.946-3.977c1.78-.89,3.47-1.78,5.179-2.741,2.189-1.192,4.342-2.465,6.629-3.47,1.433-.623.436,1.717-2.1,3.061-4.449,2.4-9.023,4.707-13.668,6.9l-1.735.89L201.2,406.99l-5.721-.774-10.251-1.468-6.309-.89c-3.186-.427-6.389-.89-9.557-1.2-2.474-.267-4.9-.418-7.341-.578l-1.6-.089a13.587,13.587,0,0,1-2.109-.24,1.646,1.646,0,0,1-.89-.454,1.966,1.966,0,0,1-.3-.311c-.116-.169,0-.32.418-.445a4.63,4.63,0,0,1,.747-.16h1a129.858,129.858,0,0,1,13.668,1.077c3.426.418,6.86.89,10.3,1.335Z" transform="translate(-15.207 -34.597)" fill="#fff"/>
    <path id="Path_19516" data-name="Path 19516" d="M277.3,307.218a.89.89,0,0,1-.952.133,1,1,0,0,1-.65-1.148,1.281,1.281,0,0,1,1.086-1.175h.125a1.239,1.239,0,0,1,.267,0,.739.739,0,0,1,.534.605,1.708,1.708,0,0,1-.409,1.584Z" transform="translate(-28.276 -24.679)" fill="#fff"/>
    <path id="Path_19517" data-name="Path 19517" d="M247.835,407.291q-2.669-.36-5.339-.89c-.641-.133-1.3-.214-1.949-.356-1.13-.249-2.26-.561-3.381-.89s-2.242-.641-3.337-1.059-1.966-.641-2.927-1.014a14.745,14.745,0,0,1-3.622-1.637c-.685-.454,1.005-1.424,2.3-.819,2.367,1.014,4.778,1.958,7.288,2.8a16.91,16.91,0,0,0,2.322.641c.792.187,1.6.338,2.394.48s1.78.356,2.669.489,1.78.294,2.669.409c1.086.16,2.189.276,3.283.383,1.664.16,3.346.294,5,.32,1.29,0,2.563-.08,3.835-.16.285,0,.552-.044.836-.053,1.05-.044,1.4.062,1.628.507a2.314,2.314,0,0,1,.142.3c.1.338-.311.623-1.086.739a38.532,38.532,0,0,1-7.2.231c-1.78-.071-3.639-.249-5.455-.445Z" transform="translate(-22.926 -35.192)" fill="#fff"/>
    <path id="Path_19518" data-name="Path 19518" d="M291.044,407.071l-4.5-.142H284.9l-5.81-.222h-2.572a19.371,19.371,0,0,1-3.292,0c-.676-.089.187-1.468,1.45-1.486,2.233,0,4.449.044,6.727.24,1.344.116,2.75.053,4.129.08l4.556.116a10.4,10.4,0,0,1,1.441.071,12.661,12.661,0,0,1,1.433.24,23.606,23.606,0,0,1,4.12,1.308,29.669,29.669,0,0,1,3.025,1.361l.641.356c.774.489.934.774.89,1.175a2.319,2.319,0,0,1-.053.285c-.116.285-.552.258-1.1-.044a38.4,38.4,0,0,0-5.25-2.349,17.8,17.8,0,0,0-4.155-.934Z" transform="translate(-27.979 -35.719)" fill="#fff"/>
    <path id="Path_19519" data-name="Path 19519" d="M368.637,421.993a20.6,20.6,0,0,1,3.506,1.308c.409.178.819.329,1.219.525,1.388.694,2.732,1.441,4.066,2.2.6.338,1.21.65,1.78.952a9.068,9.068,0,0,1,2.269,1.353c.214.2,0,.472-.427.65a1.486,1.486,0,0,1-1.317,0c-1.5-.845-3.034-1.708-4.529-2.669a27.286,27.286,0,0,0-2.892-1.433,31.725,31.725,0,0,0-3.257-1.335c-.623-.2-1.415-.329-2.135-.561a25.9,25.9,0,0,1-3.186-1.228c-.8-.356-1.611-.667-2.394-1.059-.169-.089-.347-.16-.516-.258-.623-.356-.756-.578-.667-.979a1.307,1.307,0,0,1,.071-.267c.116-.276.472-.311.943-.116,1.379.578,2.758,1.281,4.191,1.851a18.279,18.279,0,0,0,3.248,1.006Z" transform="translate(-37.582 -37.232)" fill="#fff"/>
    <path id="Path_19520" data-name="Path 19520" d="M400.074,421.825l-3.292,1.717c-.392.214-.765.463-1.166.676l-4.173,2.225c-.614.338-1.219.712-1.78,1.086a13.811,13.811,0,0,1-2.314,1.379c-.525.2-.641-1.344.24-1.886a43.056,43.056,0,0,1,4.849-2.669c1.005-.463,1.966-1.1,2.954-1.646l3.283-1.78,2.029-1.077,3.07-1.628c.774-.445,1.513-.89,2.3-1.379l.507-.3c.667-.329.961-.32,1.228,0,.062.071.133.133.187.2.16.249,0,.6-.454.89a44.816,44.816,0,0,1-4.173,2.465l-3.266,1.78Z" transform="translate(-40.536 -36.94)" fill="#fff"/>
    <path id="Path_19521" data-name="Path 19521" d="M303.969,410.686c-1.2-.658-2.394-1.326-3.559-2.064-.641-.409-1.121-.747-1.7-1.077a18.436,18.436,0,0,0-1.78-.89c-.89-.4-1.78-.721-2.669-1.032-.4-.142-.81-.276-1.21-.4a10.78,10.78,0,0,0-1.112-.267l-2.589-.071-5.259-.125h-4.663a55.515,55.515,0,0,1-5.962,0c-1.237-.116.329-1.717,2.616-1.78,4.058,0,8.106.044,12.182.276,1.246.071,2.429.071,3.764.1a6.889,6.889,0,0,1,1.068.187l.943.258c.623.187,1.228.392,1.824.623a25.912,25.912,0,0,1,3.835,1.78,8.874,8.874,0,0,1,.89.561c.276.2.543.365.845.543.569.347,1.166.685,1.78,1.023q2.2,1.228,4.449,2.376l1.1.552c.32.16.65.32,1,.472l.525.222.267.089c.08,0,.249,0,.151-.071a6.3,6.3,0,0,0-.721-.836c-.383-.392-.81-.765-1.166-1.068s-1.406-1.272-1.824-1.628l-.2-.053c-.418-.142-.836-.258-1.246-.418-1.53-.6-1.984-1.005-2.064-1.566a1.4,1.4,0,0,1,0-.374c.089-.365.7-.258,1.78.107l1.2.4,1.459.454,1.664,1.5.427.392.7.685c.481.472.961.952,1.415,1.424a13.881,13.881,0,0,1,1.2,1.361,1.779,1.779,0,0,1,.418.89.543.543,0,0,1-.2.436l-.08.089-.062.071h0c-.133-.089.178.125.142.107h0a1.5,1.5,0,0,1-.151.231.89.89,0,0,1-.623.151h-.32l-.169-.044-.667-.16-.347-.089-.436-.2-.89-.374c-.578-.24-1.219-.569-1.824-.845l-.8-.392-.472-.231-.89-.472-1.842-.961Z" transform="translate(-27.984 -35.473)" fill="#fff"/>
    <path id="Path_19522" data-name="Path 19522" d="M317.31,408.016l1.477,1.486a20.723,20.723,0,0,1,2.02,2.251,1.69,1.69,0,0,1,.24.73.632.632,0,0,1,0,.329,1.888,1.888,0,0,1-.3.24.73.73,0,0,1-.347.151,4.573,4.573,0,0,1-1.726-.062c-.329-.1-.65-.169-.97-.276l-.383-.169-.294-.133a20.136,20.136,0,0,1-2.216-1.308l-2-1.326a13.642,13.642,0,0,1-2.4-1.86c-.445-.454,1.032-1.05,1.949-.356,1.628,1.21,3.221,2.429,4.9,3.452a3.705,3.705,0,0,0,.587.311l.169.089h.107a1.353,1.353,0,0,0,.454.08h.24v-.071a3.178,3.178,0,0,0-.409-.534l-.071-.089-.187-.178-.356-.374-.739-.73c-.614-.605-1.228-1.2-1.851-1.78l-1.406-1.308-.7-.641-.658-.569h0l-1.388-.418c-.48-.142-.961-.285-1.441-.454-.214-.08-.427-.142-.632-.231-.774-.338-.979-.578-.943-1a1.379,1.379,0,0,1,0-.276c.1-.294.48-.329,1.023-.151l4.084,1.3,1.148.988c1.05.89,2.073,1.886,3.1,2.847Z" transform="translate(-31.84 -35.446)" fill="#fff"/>
    <path id="Path_19523" data-name="Path 19523" d="M324.415,410.772a1.664,1.664,0,0,1-.142.89.929.929,0,0,1-.676.507l-.3.062a2.931,2.931,0,0,1-.392,0,9.015,9.015,0,0,1-1.993-.623,6.148,6.148,0,0,0-.721-.214,1.451,1.451,0,0,1-.89-.436c-.071-.1.151-.4.391-.667s.507-.525.632-.481a9.366,9.366,0,0,1,1.557.739,1.343,1.343,0,0,0,.258.116l.169.053a.766.766,0,0,1,.187,0h0a.5.5,0,0,0,.258.044.187.187,0,0,0,.1-.2.827.827,0,0,0-.053-.347,2.494,2.494,0,0,0-.2-.418,2.358,2.358,0,0,0-.988-1.023c-.044,0-.107-.071-.151-.116-.187-.151-.16-.267.071-.569l.169-.125a.578.578,0,0,1,.632-.231,3.159,3.159,0,0,1,1.361,1.246c.071.1.125.2.187.3s.089.178.214.409a4.51,4.51,0,0,1,.365,1.13Z" transform="translate(-33.081 -35.994)" fill="#fff"/>
    <path id="Path_19524" data-name="Path 19524" d="M114.555,412.4a81.864,81.864,0,0,1-12.564,8.053c-1.628.8-3.212,1.7-4.876,2.4A99.262,99.262,0,0,1,78.972,428.8l-4.138.89c-1.379.294-2.776.507-4.147.765a70.154,70.154,0,0,1-10.678,1.219c-2.242.053.472-2,4.5-2.385a138.962,138.962,0,0,0,21.2-4.138,80.7,80.7,0,0,0,12.457-4.841,82.823,82.823,0,0,0,12.653-7.457,77.232,77.232,0,0,0,7.021-5.721,60.507,60.507,0,0,0,8.952-10.322,37.879,37.879,0,0,0,4.556-9.3c.1-.365.2-.721.3-1.077s.169-.721.249-1.086c.16-.667.214-1.228.3-1.691s.107-.836.142-1.139a3.31,3.31,0,0,1,.133-.756,2.99,2.99,0,0,1,.2-.543,4.359,4.359,0,0,1,.231-.5c.151-.2.374-.044.658.5a5.722,5.722,0,0,1,.391,2.616,25.27,25.27,0,0,1-2.99,9.583,49.1,49.1,0,0,1-5.588,8.471,69.806,69.806,0,0,1-10.8,10.58Z" transform="translate(-4.423 -33.011)" fill="#fff"/>
    <path id="Path_19525" data-name="Path 19525" d="M279.075,435.407c-9.147-.383-18.295-.774-27.442-1-4.565-.125-9.129-.133-13.721-.125H224.174l-20.039.062h-53c-5.9,0-11.763-.062-17.636.16-10.438.347-20.928.89-31.295,1.388-6.656.294-13.347.578-20.021.685-3.337.044-6.683.053-10.028-.044a63.006,63.006,0,0,1-10.055-.943,8.222,8.222,0,0,1-2.242-.756c-.463-.294-.614-.463-.543-.516a1.85,1.85,0,0,1,.89.125c.489.071,1.166.187,2.038.249,3.47.3,9.895.151,17.538.089,13.561-.142,27.148-.89,40.762-1.433,6.816-.285,13.623-.6,20.466-.641l20.537.071c16.408.071,33.484-.062,50.266-.089H239.5c9.236-.071,18.473.276,27.7.614l34.044,1.415c17.182.712,34.445,1.406,51.5,1.593,6.638.071,13.2.044,19.736-.16a138.44,138.44,0,0,0,19.442-1.655l2.038-.481.819-.276c.258-.1.605-.187.632-.258a.54.54,0,0,0,0-.356l-.142-.2c-.08-.116-.187-.24-.294-.365a16.245,16.245,0,0,0-1.486-1.424c-2.02-1.7-3.862-2.972-5.383-4.058l-3.782-2.669a26.364,26.364,0,0,1-3.96-3.257,8.072,8.072,0,0,1-1-1.175c-.231-.472.383,0,2.064,1.005s4.289,2.616,7.581,4.841c1.219.828,2.438,1.673,3.639,2.563a26.438,26.438,0,0,1,3.488,3,5.34,5.34,0,0,1,.89,1.2,1.78,1.78,0,0,1,0,1.78,1.879,1.879,0,0,1-.311.338.89.89,0,0,1-.356.2l-.641.24-1.308.48-2.26.525-2.26.383a163.842,163.842,0,0,1-18.241,1.3c-12.253.3-24.657.08-37.079-.249-18.446-.507-36.963-1.361-55.427-2.118Z" transform="translate(-4.434 -37.325)" fill="#fff"/>
    <path id="Path_19526" data-name="Path 19526" d="M178.42,372.994a2.554,2.554,0,0,1,1.708,2.349c0,.329-.48.8-.747.712-.516-.178-1.041-.311-1.557-.436a14.509,14.509,0,0,0-2.821-.89,22.174,22.174,0,0,0-4.075-.534c-1.708-.053-3.426-.116-5.179-.125a96.871,96.871,0,0,0-10.834.607c-.8.079-1.606.123-2.425.132a65.1,65.1,0,0,0-8.391.783,5.607,5.607,0,0,0-1.379.294,39.447,39.447,0,0,1-4.583.73c-2.127.276-4.333.409-4.841.4-2.527-.071-5.072-.1-7.661-.427a3.247,3.247,0,0,1-1.1-.214,9.218,9.218,0,0,0-2.367-.676,7.848,7.848,0,0,1-3.248-1.611,4.058,4.058,0,0,1-.952-1.646c-.169-.534.374-.463.489-.365.365.32.338-.125.48-.24a.365.365,0,0,1,.16-.107,6.677,6.677,0,0,0,.65.445,7.116,7.116,0,0,0,1.691.507,25.9,25.9,0,0,0,3.221.16s.569.044,1.388.044a29.879,29.879,0,0,0,3.052-.116c2.278-.16,4.68-.5,5.17-.578a9.192,9.192,0,0,1,1.566-.062c.231,0,7.2-1.077,7.492-1.121a23.43,23.43,0,0,1,4.4-.329,4.232,4.232,0,0,0,.89-.062c2.509-.356,5.054-.516,7.608-.658l3.924-.285h1.611a66.622,66.622,0,0,1,9.477.329,17.647,17.647,0,0,1,2.483.587c1.059.32,2.118.73,2.536.89S178.028,372.833,178.42,372.994Z" transform="translate(-10.895 -31.798)" fill="#fff"/>
  </g>
</svg>
