<svg xmlns="http://www.w3.org/2000/svg" width="385.71" height="200.427" viewBox="0 0 385.71 200.427">
  <g id="Side_illus" data-name="Side illus" transform="translate(-533.205 -232.131)">
    <path id="Path_19294" data-name="Path 19294" d="M533.379,428.1c38.793,14.425,79.383-14.165,99.929-33.913,22.649-21.771,37.264-46.778,55.785-70.182,19.538-24.685,44.546-47.389,82.082-59.988,23.966-8.045,51.545-6.931,77.38-8.972,26.484-2.092,49.7-10.908,70.113-22.479" fill="none" stroke="#fff" stroke-width="1"/>
    <path id="Path_19292" data-name="Path 19292" d="M557.322,294.1l3.077-1.739,12.833-7.253L638.253,310.7l-15.909,7.609" transform="translate(69.762 64.593)" fill="#1f4790"/>
    <path id="Path_19293" data-name="Path 19293" d="M601.217,247.767l3.077-1.739,12.832-7.253,65.021,25.594-15.91,7.609" transform="translate(124.805 14.161)" fill="#f1cabf"/>
    <g id="Ellipse_7" data-name="Ellipse 7" transform="translate(777.666 325.758)" fill="#fff" stroke="#707070" stroke-width="1">
      <circle cx="24.5" cy="24.5" r="24.5" stroke="none"/>
      <circle cx="24.5" cy="24.5" r="24" fill="none"/>
    </g>
  </g>
</svg>
