<svg xmlns="http://www.w3.org/2000/svg" xmlns:xlink="http://www.w3.org/1999/xlink" width="203.89" height="55" viewBox="0 0 203.89 55">
  <defs>
    <clipPath id="clip-path">
      <rect id="Rectangle_65" data-name="Rectangle 65" width="203.89" height="55" fill="#fff"/>
    </clipPath>
    <clipPath id="clip-path-2">
      <rect id="Rectangle_60" data-name="Rectangle 60" width="203.89" height="28.295" fill="#fff"/>
    </clipPath>
  </defs>
  <g id="Mask_Group_11" data-name="Mask Group 11" clip-path="url(#clip-path)">
    <g id="Mask_Group_7" data-name="Mask Group 7" transform="translate(0 13)" clip-path="url(#clip-path-2)">
      <g id="g11" transform="translate(0.333)">
        <path id="path43" d="M84.842-271.15c-1.244-1.847-3.212-2.81-6.1-2.81a8.589,8.589,0,0,0-5.821,2.368L72-273.8l-4.5.321v21.517h6.222v-15.415a4.186,4.186,0,0,1,3.332-1.525c2.328,0,3.252.963,3.252,2.931V-252h6.182v-15.054a3.952,3.952,0,0,1,3.332-1.887c2.369,0,3.292,1.084,3.292,3.131V-252h6.182v-13.89c0-5.1-2.971-8.109-7.949-8.109a8.319,8.319,0,0,0-6.5,2.85" transform="translate(-67.5 279.493)" fill="#868d91"/>
        <path id="path47" d="M336.523-273.759l-4.9.321v21.517h6.222v-11.8c.723-3.051,2.65-4.536,5.259-4.536a12.585,12.585,0,0,1,2.569.281l.442-5.7a11.155,11.155,0,0,0-2.69-.321,7.091,7.091,0,0,0-6.343,3.533Z" transform="translate(-248.348 279.493)" fill="#868d91"/>
        <path id="path51" d="M464.75-292.152v27.1h6.222v-27.572Z" transform="translate(-339.404 292.625)" fill="#868d91"/>
        <path id="path63" d="M259.536-273.759l-4.536.321v21.517h6.262V-267.3a5.122,5.122,0,0,1,3.774-1.566c2.69,0,3.573.963,3.573,3.171v13.769h6.263V-265.69c0-5.219-3.091-8.31-8.149-8.31a9.775,9.775,0,0,0-6.222,2.409Z" transform="translate(-195.914 279.493)" fill="#868d91"/>
        <path id="path67" d="M662.736-265.046h4.978v-27.579l-6.222.473v7.22a9.418,9.418,0,0,0-5.58-1.815c-5.7,0-8.912,3.867-8.912,11.047,0,7.5,2.971,11.047,8.992,11.047a8.3,8.3,0,0,0,6.1-2.288Zm-1.2-5.8a4.52,4.52,0,0,1-3.854,1.657c-3.252,0-4.255-1.5-4.255-6.313,0-4.577,1.044-6.234,4.3-6.234a5.251,5.251,0,0,1,3.814,1.342Z" transform="translate(-464.402 292.625)" fill="#868d91"/>
        <path id="path71" d="M577.411-273.759l-4.536.321v21.517h6.263V-267.3a5.122,5.122,0,0,1,3.773-1.566c2.69,0,3.613.963,3.613,3.171v13.769h6.262V-265.69c0-5.219-3.091-8.31-8.189-8.31a9.775,9.775,0,0,0-6.222,2.409Z" transform="translate(-414.082 279.493)" fill="#868d91"/>
        <path id="path75" d="M192.109-258.018c-.482.8-1.686,1.807-4.175,1.807-1.927,0-3.212-.4-3.212-2.449,0-2.007,1.566-2.449,3.934-2.449h3.452Zm6.182-6.664c0-6.222-3.252-9.193-10.277-9.193a43.806,43.806,0,0,0-7.587.642l.522,4.817a44.966,44.966,0,0,1,6.1-.522c4.055,0,5.058,1.084,5.058,2.73v.723h-4.536c-5.981,0-9.073,2.73-9.073,7.025,0,4.5,2.89,6.985,7.547,6.985,3.292,0,5.219-1,6.463-2.328l.6,1.967h5.219v-12.846Z" transform="translate(-143.521 279.408)" fill="#868d91"/>
        <path id="path79" d="M386.9-263.648a5.637,5.637,0,0,1,5.58-5.66,5.671,5.671,0,0,1,5.62,5.66,5.645,5.645,0,0,1-5.62,5.66,5.637,5.637,0,0,1-5.58-5.66m-6.022,0a11.582,11.582,0,0,0,11.6,11.6,11.582,11.582,0,0,0,11.6-11.6,11.582,11.582,0,0,0-11.6-11.6,11.582,11.582,0,0,0-11.6,11.6" transform="translate(-282.158 280.342)" fill="#005078"/>
        <path id="path83" d="M510.069-258.018c-.482.8-1.726,1.807-4.175,1.807-1.927,0-3.212-.4-3.212-2.449,0-2.007,1.566-2.449,3.934-2.449h3.452Zm6.222-6.664c0-6.222-3.252-9.193-10.277-9.193a43.8,43.8,0,0,0-7.587.642l.522,4.817a44.965,44.965,0,0,1,6.1-.522c4.055,0,5.058,1.084,5.058,2.73v.723h-4.536c-5.981,0-9.073,2.73-9.073,7.025,0,4.5,2.89,6.985,7.547,6.985,3.292,0,5.219-1,6.463-2.328l.6,1.967h5.219v-12.846Z" transform="translate(-361.311 279.408)" fill="#868d91"/>
      </g>
    </g>
  </g>
</svg>
