<svg xmlns="http://www.w3.org/2000/svg" xmlns:xlink="http://www.w3.org/1999/xlink" width="120.058" height="55" viewBox="0 0 120.058 55">
  <defs>
    <clipPath id="clip-path">
      <rect id="Rectangle_70" data-name="Rectangle 70" width="120.058" height="55" transform="translate(0.3)" fill="#fff"/>
    </clipPath>
    <clipPath id="clip-path-2">
      <rect id="Rectangle_59" data-name="Rectangle 59" width="119.658" height="23.64" fill="none"/>
    </clipPath>
  </defs>
  <g id="Mask_Group_16" data-name="Mask Group 16" transform="translate(-0.3)" clip-path="url(#clip-path)">
    <g id="Group_166" data-name="Group 166" transform="translate(0.7 16)">
      <g id="Group_165" data-name="Group 165" clip-path="url(#clip-path-2)">
        <path id="Path_384" data-name="Path 384" d="M0,0C2.657.008,5.315.038,7.971.007a1.226,1.226,0,0,1,1.217.7Q13.724,8.258,18.3,15.78c.136.225.277.447.475.767.21-.325.357-.542.493-.766Q23.833,8.251,28.385.713A1.22,1.22,0,0,1,29.6.007c2.607.04,5.214.017,7.893.017V23.58H31.774V6.28l-.167-.069c-.141.206-.293.406-.423.62Q26.292,14.9,21.416,22.98a1.137,1.137,0,0,1-1.178.652,28.848,28.848,0,0,0-2.9,0,1.135,1.135,0,0,1-1.177-.652Q11.317,14.923,6.428,6.9a1.794,1.794,0,0,0-.566-.639V23.64H0Z" fill="#00327d"/>
        <path id="Path_385" data-name="Path 385" d="M673.5,12.17c1.782.274,3.266,1.1,3.508,2.976A20.659,20.659,0,0,1,677,20.535a4.1,4.1,0,0,1-4.143,3.39q-15.239.029-30.479.008a3.407,3.407,0,0,1-.345-.04V.342h.8q14.531,0,29.063,0a4.348,4.348,0,0,1,4.568,4.064,24.028,24.028,0,0,1,0,3.709,4.366,4.366,0,0,1-2.624,3.775c-.11.056-.215.119-.32.184-.015.009-.013.046-.024.094m-1.977,2.3H647.858v4.545c.261.014.457.033.653.033q11.133,0,22.266,0c.1,0,.227.038.292-.01.166-.122.43-.279.434-.427.033-1.357.02-2.716.02-4.142M670.8,5.261H647.84V9.609H670.8Z" transform="translate(-597.429 -0.318)" fill="#00327d"/>
        <path id="Path_386" data-name="Path 386" d="M1242.1.341q6.3,0,12.593,0A4.446,4.446,0,0,1,1259.385,5q.025,7.172,0,14.344a4.438,4.438,0,0,1-4.614,4.59q-12.668.011-25.335,0a4.393,4.393,0,0,1-4.592-4.585q-.021-7.172,0-14.344a4.4,4.4,0,0,1,4.736-4.662H1242.1m-11.4,18.673h22.772V5.256h-22.772Z" transform="translate(-1139.74 -0.317)" fill="#00327d"/>
      </g>
    </g>
  </g>
</svg>
