<?xml version="1.0" encoding="utf-8"?>
<!-- Generator: Adobe Illustrator 25.4.1, SVG Export Plug-In . SVG Version: 6.00 Build 0)  -->
<svg version="1.1" id="Layer_1" xmlns="http://www.w3.org/2000/svg" xmlns:xlink="http://www.w3.org/1999/xlink" x="0px" y="0px"
	 viewBox="0 0 400 76" style="enable-background:new 0 0 400 76;" xml:space="preserve">
<style type="text/css">
	.st0{clip-path:url(#SVGID_00000038384051505507664070000016593133063425595833_);}
	.st1{enable-background:new    ;}
	.st2{fill:#EADA31;}
	.st3{fill:#CC1B6C;}
	.st4{fill:#010101;}
	.st5{opacity:0.999;fill:#1E91D0;enable-background:new    ;}
</style>
<g>
	<g>
		<g>
			<defs>
				<rect id="SVGID_1_" width="400" height="76"/>
			</defs>
			<clipPath id="SVGID_00000149374935439571679870000004350558761048539309_">
				<use xlink:href="#SVGID_1_"  style="overflow:visible;"/>
			</clipPath>
			<g id="Mask_Group_1" style="clip-path:url(#SVGID_00000149374935439571679870000004350558761048539309_);">
				<g>
					<g id="logo">
						<g id="Group_8635" transform="translate(1.047 0.686)">
							<g id="Group_8634" transform="translate(0 0)">
								<g id="Group_8618" transform="translate(73.247 0.382)">
									<g id="Group_68" transform="translate(0)">
										<g class="st1">
											<path d="M44,53h-7.6V32.5c0-2.2,0.1-4.7,0.3-7.3h-0.2c-0.4,2.1-0.8,3.6-1.1,4.5l-8,23.3H21l-8.2-23.1
												c-0.2-0.6-0.6-2.2-1.1-4.8h-0.2c0.2,3.4,0.3,6.3,0.3,8.9v19h-7V18.7h11.3l7,20.3c0.6,1.6,1,3.3,1.2,4.9h0.1
												c0.4-1.9,0.9-3.5,1.4-5l7-20.3h11V53H44z"/>
											<path d="M71.5,53h-7.2v-3.5h-0.1c-1.6,2.7-4.1,4.1-7.3,4.1c-2.4,0-4.2-0.7-5.6-2c-1.4-1.3-2-3.1-2-5.4
												c0-4.8,2.8-7.5,8.4-8.2l6.7-0.9c0-2.7-1.5-4-4.4-4s-5.7,0.9-8.3,2.6V30c1.1-0.5,2.5-1,4.3-1.4s3.5-0.6,5-0.6
												c7,0,10.5,3.5,10.5,10.5V53z M64.4,43v-1.7L59.9,42c-2.5,0.3-3.7,1.4-3.7,3.3c0,0.9,0.3,1.6,0.9,2.1
												c0.6,0.6,1.4,0.8,2.4,0.8c1.4,0,2.6-0.5,3.5-1.5C63.9,45.8,64.4,44.5,64.4,43z"/>
											<path d="M96,52.1c-1.7,1-4.2,1.5-7.4,1.5c-3.8,0-6.8-1.1-9.1-3.4C77.1,47.9,76,45,76,41.3c0-4.2,1.2-7.4,3.7-9.8
												s5.8-3.6,10-3.6c2.9,0,5,0.4,6.3,1.1v6.4c-1.6-1.2-3.3-1.8-5.3-1.8c-2.2,0-3.9,0.6-5.2,1.9c-1.3,1.3-1.9,3-1.9,5.3
												c0,2.2,0.6,3.9,1.8,5.1c1.2,1.2,2.9,1.9,5,1.9c1.9,0,3.7-0.6,5.5-1.8L96,52.1L96,52.1z"/>
											<path d="M124.5,53H117V39.1c0-3.6-1.3-5.4-3.9-5.4c-1.3,0-2.4,0.5-3.3,1.5c-0.8,1-1.2,2.3-1.2,3.8v14H101V16.7h7.6v15.4
												h0.1c1.9-2.8,4.4-4.2,7.5-4.2c5.6,0,8.3,3.3,8.3,10V53z"/>
											<path d="M134.3,24.6c-1.3,0-2.3-0.4-3.1-1.1c-0.8-0.8-1.2-1.7-1.2-2.8c0-1.1,0.4-2.1,1.2-2.8s1.9-1.1,3.1-1.1
												c1.3,0,2.3,0.4,3.1,1.1s1.2,1.6,1.2,2.8c0,1.1-0.4,2.1-1.2,2.8C136.6,24.3,135.6,24.6,134.3,24.6z M138,53h-7.6V28.5h7.6
												V53z"/>
											<path d="M168,53h-7.5V39.4c0-3.8-1.4-5.7-4.1-5.7c-1.3,0-2.4,0.5-3.2,1.5s-1.3,2.3-1.3,3.8v14h-7.6V28.5h7.6v3.9h0.1
												c1.8-3,4.4-4.5,7.9-4.5c5.4,0,8.1,3.4,8.1,10.1V53z"/>
											<path d="M196,42.9h-16c0.3,3.6,2.5,5.3,6.7,5.3c2.7,0,5.1-0.6,7.1-1.9v5.5c-2.3,1.2-5.2,1.8-8.8,1.8c-4,0-7-1.1-9.2-3.3
												s-3.3-5.3-3.3-9.2c0-4.1,1.2-7.3,3.5-9.7c2.4-2.4,5.3-3.6,8.7-3.6c3.6,0,6.3,1.1,8.3,3.2s2.9,5,2.9,8.6v3.3
												C195.9,42.9,196,42.9,196,42.9z M189,38.3c0-3.5-1.4-5.3-4.3-5.3c-1.2,0-2.3,0.5-3.1,1.5c-0.9,1-1.4,2.3-1.6,3.8H189z"/>
											<path d="M208.8,53V18.7H221c12.2,0,18.3,5.6,18.3,16.7c0,5.3-1.7,9.6-5,12.8S226.5,53,221,53H208.8z M216.5,25v21.7h3.8
												c3.3,0,6-1,7.9-3s2.9-4.7,2.9-8.2c0-3.3-0.9-5.8-2.8-7.7c-1.9-1.9-4.5-2.8-8-2.8H216.5z"/>
											<path d="M264.6,53h-7.2v-3.5h-0.1c-1.6,2.7-4.1,4.1-7.3,4.1c-2.4,0-4.2-0.7-5.6-2c-1.4-1.3-2-3.1-2-5.4
												c0-4.8,2.8-7.5,8.4-8.2l6.7-0.9c0-2.7-1.5-4-4.4-4s-5.7,0.9-8.3,2.6V30c1.1-0.5,2.5-1,4.3-1.4s3.5-0.6,5-0.6
												c7,0,10.5,3.5,10.5,10.5L264.6,53L264.6,53z M257.5,43v-1.7L253,42c-2.5,0.3-3.7,1.4-3.7,3.3c0,0.9,0.3,1.6,0.9,2.1
												c0.6,0.6,1.4,0.8,2.4,0.8c1.4,0,2.6-0.5,3.5-1.5C257,45.8,257.5,44.5,257.5,43z"/>
											<path d="M278.1,53h-7.6V16.7h7.6V53z"/>
											<path d="M304.9,53h-7.2v-3.5h-0.1c-1.6,2.7-4.1,4.1-7.3,4.1c-2.4,0-4.2-0.7-5.6-2s-2-3.1-2-5.4c0-4.8,2.8-7.5,8.4-8.2
												l6.7-0.9c0-2.7-1.5-4-4.4-4s-5.7,0.9-8.3,2.6V30c1.1-0.5,2.5-1,4.3-1.4s3.5-0.6,5-0.6c7,0,10.5,3.5,10.5,10.5V53z
												 M297.8,43v-1.7l-4.5,0.6c-2.5,0.3-3.7,1.4-3.7,3.3c0,0.9,0.3,1.6,0.9,2.1c0.6,0.6,1.4,0.8,2.4,0.8
												c1.4,0,2.6-0.5,3.5-1.5C297.3,45.8,297.8,44.5,297.8,43z"/>
											<path d="M318.4,53h-7.6V16.7h7.6V53z"/>
										</g>
									</g>
								</g>
								<g id="Group_32_00000036970200331037500130000007476264123010841477_">
									<path id="Path_16-2_00000066512503773195213700000004056650673465429143_" class="st2" d="M22.1,74.1l39.6-14.6l-13.3-5.4
										L0,68.1L22.1,74.1z"/>
									<path id="Path_14-2_00000163764871973726318990000013314777616519444885_" class="st3" d="M61.7,15l-13.4,2.9L0,6.3L22,0
										L61.7,15z"/>
									<path id="Path_13-2_00000139294307484830448890000003953100109077931916_" class="st4" d="M22,0v74.1l-22-6V6.3L22,0z"/>
									<path id="Path_15-2_00000146460817796745534240000005682981325438730380_" class="st5" d="M48.3,54.1V17.9L61.7,15v44.6
										L48.3,54.1z"/>
								</g>
							</g>
						</g>
					</g>
				</g>
			</g>
		</g>
	</g>
</g>
</svg>
