<svg xmlns="http://www.w3.org/2000/svg" xmlns:xlink="http://www.w3.org/1999/xlink" width="358" height="544" viewBox="0 0 358 544">
  <defs>
    <clipPath id="clip-path">
      <rect id="Rectangle_4744" data-name="Rectangle 4744" width="358" height="544" transform="translate(40.082 -34.038)"/>
    </clipPath>
    <clipPath id="clip-path-2">
      <path id="Path_19651" data-name="Path 19651" d="M0,0H163.088V163.088H0Z"/>
    </clipPath>
  </defs>
  <g id="_1" data-name="1" transform="translate(-40.082 34.038)" clip-path="url(#clip-path)">
    <g id="Group_10088" data-name="Group 10088" transform="translate(-0.983 158.457)" clip-path="url(#clip-path-2)">
      <g id="Group_10046" data-name="Group 10046" transform="translate(80.212 94.597) rotate(-45)">
        <g id="Group_10045" data-name="Group 10045" transform="translate(0 0)">
          <path id="Path_19629" data-name="Path 19629" d="M9.79,5.141a71.711,71.711,0,0,1,5.923,4.99A10.912,10.912,0,0,1,19.472,16c1.007,3.456-1.516,5.691-4.571,4.486a10.035,10.035,0,0,1-5.885-3.5A60.738,60.738,0,0,1,4.3,9.2L1.008,5.45S-1,2.6.652,1.043C2.676-.936,4.291.27,5.621,1.626A51.685,51.685,0,0,0,9.79,5.141" fill="#343635"/>
        </g>
      </g>
      <g id="Group_10048" data-name="Group 10048" transform="translate(62.917 94.109) rotate(-45)">
        <g id="Group_10047" data-name="Group 10047" transform="translate(0 0)">
          <path id="Path_19630" data-name="Path 19630" d="M0,10.68,13.7,22.821l4.973,4.3c2.881,1.745,8.935-3.3,7.112-6.658L21.8,14.293,10.881,0Z" transform="translate(0)" fill="#6b6c6e"/>
        </g>
      </g>
      <g id="Group_10050" data-name="Group 10050" transform="translate(80.314 67.433) rotate(-45)">
        <g id="Group_10049" data-name="Group 10049" transform="translate(0 0)">
          <path id="Path_19631" data-name="Path 19631" d="M9.79,5.141a71.711,71.711,0,0,1,5.923,4.99A10.912,10.912,0,0,1,19.472,16c1.007,3.456-1.516,5.691-4.571,4.486a10.035,10.035,0,0,1-5.885-3.5A60.73,60.73,0,0,1,4.3,9.2L1.008,5.45S-1,2.6.652,1.043C2.676-.936,4.291.27,5.621,1.626A51.685,51.685,0,0,0,9.79,5.141" fill="#343635"/>
        </g>
      </g>
      <g id="Group_10052" data-name="Group 10052" transform="translate(67.402 66.588) rotate(-45)">
        <g id="Group_10051" data-name="Group 10051" transform="translate(0 0)">
          <path id="Path_19632" data-name="Path 19632" d="M0,10.68l9.013,7.6,7.64,5.955c3.746-1.138,5.836-3.949,5.526-5.649l-5.205-8.4L10.881,0Z" fill="#6b6c6e"/>
        </g>
      </g>
      <g id="Group_10066" data-name="Group 10066" transform="translate(100.051 56.069)">
        <g id="Group_10054" data-name="Group 10054" transform="translate(0 25.576) rotate(-45)">
          <g id="Group_10053" data-name="Group 10053" transform="translate(0 0)">
            <path id="Path_19633" data-name="Path 19633" d="M0,21.216,21.216,0,36.17,14.954,14.954,36.17Z" fill="#6b6c6e"/>
          </g>
        </g>
        <g id="Group_10065" data-name="Group 10065" transform="translate(0.001 25.576) rotate(-45)">
          <g id="Group_10055" data-name="Group 10055" transform="translate(0 0)">
            <path id="Path_19634" data-name="Path 19634" d="M36.17,14.954,14.954,36.17,0,21.216,21.216,0Z" transform="translate(0 0)" fill="#6b6c6e"/>
          </g>
          <g id="Group_10056" data-name="Group 10056" transform="translate(3.185 3.185)">
            <path id="Path_19635" data-name="Path 19635" d="M0,17.973,17.973,0,29.8,11.828,11.828,29.8Z" transform="translate(0 0)" fill="#343635"/>
          </g>
          <g id="Group_10064" data-name="Group 10064" transform="translate(5.773 5.772)">
            <g id="Group_10060" data-name="Group 10060" transform="translate(0 0)">
              <g id="Group_10057" data-name="Group 10057" transform="translate(12.797 0)">
                <path id="Path_19636" data-name="Path 19636" d="M11.828,11.828,0,0" transform="translate(0 0)" fill="rgba(0,0,0,0)" stroke="#6b6c6e" stroke-width="0.15"/>
              </g>
              <g id="Group_10058" data-name="Group 10058" transform="translate(6.399 6.399)">
                <path id="Path_19637" data-name="Path 19637" d="M11.828,11.828,0,0" transform="translate(0 0)" fill="rgba(0,0,0,0)" stroke="#6b6c6e" stroke-width="0.15"/>
              </g>
              <g id="Group_10059" data-name="Group 10059" transform="translate(0 12.797)">
                <path id="Path_19638" data-name="Path 19638" d="M11.828,11.828,0,0" transform="translate(0 0)" fill="rgba(0,0,0,0)" stroke="#6b6c6e" stroke-width="0.15"/>
              </g>
            </g>
            <g id="Group_10063" data-name="Group 10063" transform="translate(1.194 1.193)">
              <g id="Group_10061" data-name="Group 10061" transform="translate(4.266 4.266)">
                <path id="Path_19639" data-name="Path 19639" d="M0,17.973,17.973,0" transform="translate(0 0)" fill="rgba(0,0,0,0)" stroke="#6b6c6e" stroke-width="0.15"/>
              </g>
              <g id="Group_10062" data-name="Group 10062" transform="translate(0 0)">
                <path id="Path_19640" data-name="Path 19640" d="M0,17.973,17.973,0" transform="translate(0 0)" fill="rgba(0,0,0,0)" stroke="#6b6c6e" stroke-width="0.15"/>
              </g>
            </g>
          </g>
        </g>
      </g>
      <g id="Group_10068" data-name="Group 10068" transform="translate(43.612 81.768) rotate(-45)">
        <g id="Group_10067" data-name="Group 10067" transform="translate(0 0)">
          <path id="Path_19641" data-name="Path 19641" d="M69.483,12.946c-.452-1.237-5.145-3.618-9.988-5.792a2.119,2.119,0,0,0-1-1.171c-2.01-.9-12.213-4.228-12.213-4.228s-9.21-3.668-15.2-.4l-.109-.007-.168.165h0C24.838,5.051,15.7,15.527,12.5,18.665S1.386,31.161.15,34.868,5.732,57.211,5.732,57.211,10.971,67.8,13.767,69.73,36,74.442,36,74.442l.9-7.4S23.044,64.311,20.754,61.3c-.512-.672-1.356-4-2.093-7.27a45.19,45.19,0,0,0-.874-6.579,3.88,3.88,0,0,1,1.192-1.7L36.328,32.523l.6-.42c3.5-2.465,12.1-15.883,13.06-16.661,1.206-.03,3.752,1.322,5.238,1.629a.889.889,0,0,0,.653-.261,44.312,44.312,0,0,1,5.724,3.1C64.517,22,72.93,19.3,69.483,12.946Z" fill="#eada31"/>
        </g>
      </g>
      <g id="Group_10070" data-name="Group 10070" transform="translate(111.101 77.446) rotate(-45)">
        <g id="Group_10069" data-name="Group 10069" transform="translate(0 0)">
          <path id="Path_19642" data-name="Path 19642" d="M12.035,0l0,1.206-.9-.3,1.925,5.9L6.247,4.9l3.67,9.963-3.074-.413,1.709,6.74-6.2-1.649.688,2.234L0,20.542l1.38,4.4" fill="rgba(0,0,0,0)" stroke="#06b5b1" stroke-linecap="round" stroke-linejoin="round" stroke-width="0.6"/>
        </g>
      </g>
      <g id="Group_10072" data-name="Group 10072" transform="translate(115.643 103.908) rotate(-45)">
        <g id="Group_10071" data-name="Group 10071" transform="translate(0 0)">
          <path id="Path_19643" data-name="Path 19643" d="M.959,1.534,3.859.75A8.934,8.934,0,0,1,6.433.128c1.876-.259,2.721-.174,4.04.725a23.756,23.756,0,0,1,2.792,2.373l-1.654.984L10.079,3.048s-1.562-.594-2.391-.035.176,1.214.176,1.214l2.978,1.52S13.175,4.126,13.9,4.62,13.158,8.43,10.894,9.3a10.636,10.636,0,0,1-4.678.54S3.142,8.226,2.351,7.973A24.239,24.239,0,0,1,0,6.855Z" fill="#c77157"/>
        </g>
      </g>
      <g id="Group_10077" data-name="Group 10077" transform="translate(122.767 89.998) rotate(32.2)">
        <g id="Group_10074" data-name="Group 10074" transform="translate(0 8.442) rotate(-45)">
          <g id="Group_10073" data-name="Group 10073" transform="translate(0 0)">
            <path id="Path_19644" data-name="Path 19644" d="M0,10.6,10.6,0l.808.808-10.6,10.6Z" fill="#d1d5d9"/>
          </g>
        </g>
        <g id="Group_10076" data-name="Group 10076" transform="translate(7.284 0.78) rotate(-45)">
          <g id="Group_10075" data-name="Group 10075" transform="translate(0 0)">
            <path id="Path_19645" data-name="Path 19645" d="M1.1,0,0,.3.808,1.1Z" fill="#b1b4b8"/>
          </g>
        </g>
      </g>
      <g id="Group_10079" data-name="Group 10079" transform="translate(96.286 47.403) rotate(-45)">
        <g id="Group_10078" data-name="Group 10078" transform="translate(0 0)">
          <path id="Path_19646" data-name="Path 19646" d="M.622,19.932.5,27.14a13.665,13.665,0,0,0-.482,2.6,6.628,6.628,0,0,0,.941,4A24,24,0,0,0,3.483,36.4s1,.1.493-1.274A4.643,4.643,0,0,0,2.8,33.207a4.353,4.353,0,0,1-.178-2.749c.469-1.154,1.667-1.068,2.6.122a10.829,10.829,0,0,1,.932,1.19c.963,1.344.382,1.977.382,1.977l3.016,3.016a4.589,4.589,0,0,0,1.386-2.537c.235-1.545.639-3.456.288-4.7a15.093,15.093,0,0,0-4.35-4.087S11.129,2.319,7.937,0" fill="#c77157"/>
        </g>
      </g>
      <g id="Group_10081" data-name="Group 10081" transform="translate(82.295 49.466) rotate(-45)">
        <g id="Group_10080" data-name="Group 10080" transform="translate(0 0)">
          <path id="Path_19647" data-name="Path 19647" d="M1.3,5.3,4.308,0S19.746,4.074,21.063,9.254s-1.55,20.684-1.55,20.684H11.837s.452-5.114.684-8.28c.216-2.951.919-6.02-7.492-9.1S1.3,5.3,1.3,5.3Z" fill="#eada31"/>
        </g>
      </g>
      <g id="Group_10083" data-name="Group 10083" transform="translate(111.835 62.265) rotate(-45)">
        <g id="Group_10082" data-name="Group 10082" transform="translate(0 0)">
          <path id="Path_19648" data-name="Path 19648" d="M6.582,3.273H0V0H7.007Z" transform="translate(0 0)" fill="#b2a696"/>
        </g>
      </g>
      <g id="Group_10085" data-name="Group 10085" transform="translate(113.394 60.197) rotate(-45)">
        <g id="Group_10084" data-name="Group 10084" transform="translate(0 0)">
          <path id="Path_19649" data-name="Path 19649" d="M4.105,3.924H.791A.791.791,0,0,1,0,3.133V.791A.791.791,0,0,1,.791,0H4.105A.791.791,0,0,1,4.9.791V3.133A.791.791,0,0,1,4.105,3.924Z" transform="translate(0)" fill="#d0d2d3"/>
        </g>
      </g>
      <g id="Group_10087" data-name="Group 10087" transform="translate(55.5 81.544) rotate(-45)">
        <g id="Group_10086" data-name="Group 10086" transform="translate(0 0)">
          <path id="Path_19650" data-name="Path 19650" d="M31.443,31.443a18.424,18.424,0,1,1,0-26.056,18.445,18.445,0,0,1,0,26.056" fill="#161d1e"/>
        </g>
      </g>
    </g>
    <g id="Group_10090" data-name="Group 10090" transform="translate(89.38 54.967)">
      <g id="Group_10089" data-name="Group 10089" transform="translate(0 0)">
        <path id="Path_19652" data-name="Path 19652" d="M-161.078-269.742c55.688,0,117.36,15.352,161.214,65.139C45.314-153.357,52.556-79.229,36.215-24.06,31.535-8.261,19.983,29.793-26.3,61.533-62.376,86.268-116.565,97.169-162.5,97.169h-1.026" transform="translate(163.522 269.742)" fill="rgba(0,0,0,0)" stroke="#000" stroke-width="160"/>
      </g>
    </g>
  </g>
</svg>
