<svg xmlns="http://www.w3.org/2000/svg" xmlns:xlink="http://www.w3.org/1999/xlink" width="249.2" height="55" viewBox="0 0 249.2 55">
  <defs>
    <clipPath id="clip-path">
      <rect id="Rectangle_67" data-name="Rectangle 67" width="249.2" height="55" transform="translate(20.3)" fill="#fff"/>
    </clipPath>
    <clipPath id="clip-path-2">
      <rect id="Rectangle_57" data-name="Rectangle 57" width="325.702" height="39.751" transform="translate(0 -0.188)" fill="#fff"/>
    </clipPath>
  </defs>
  <g id="Mask_Group_9" data-name="Mask Group 9" transform="translate(-20.3)" clip-path="url(#clip-path)">
    <g id="Mask_Group_5" data-name="Mask Group 5" transform="translate(-2.544 8.254)" clip-path="url(#clip-path-2)">
      <g id="Muller_Martini-logo-01" data-name="Muller Martini-logo-01" transform="translate(0.465 0.053)">
        <path id="Path_355" data-name="Path 355" d="M314.263,123.705c.6-2.046,1.123-3.932,1.645-5.778.12-.361.2-.762.321-1.123.4-1.4.4-1.4,1.886-1.4h3.731v11.956h-3.29V118.69c-.08,0-.12-.04-.2-.04-.12.4-.281.8-.4,1.2-.722,2.327-1.444,4.614-2.127,6.941a.773.773,0,0,1-.883.642c-2.448.04-2.448.04-3.17-2.327-.682-2.167-1.324-4.333-2.167-6.5v8.747H306.6V115.4c1.645,0,3.33,0,4.975.04.16,0,.361.4.441.682.642,2.167,1.284,4.373,1.926,6.54C314.023,122.943,314.1,123.224,314.263,123.705Z" transform="translate(-185.351 -112.11)"/>
        <path id="Path_356" data-name="Path 356" d="M118.106,127.456h-3.25V118.67a1.734,1.734,0,0,1-.2-.04c-.08.281-.2.562-.281.843-.762,2.447-1.525,4.895-2.287,7.383-.16.481-.321.682-.843.682-.762-.04-1.565,0-2.407,0-.923-3.009-1.846-5.938-2.768-8.907h-.16v8.827H102.9V115.5h3.812c1.444,0,1.444,0,1.846,1.364.642,2.207,1.244,4.454,1.926,6.861.12-.361.241-.562.281-.722.642-2.247,1.324-4.494,1.926-6.741.16-.562.361-.762.963-.762,1.485.04,2.929,0,4.454,0Z" transform="translate(-63.38 -112.17)"/>
        <path id="Path_357" data-name="Path 357" d="M469.116,115.465v11.956c-1.525,0-3.009.04-4.454-.04-.241,0-.562-.361-.682-.642-1.083-2.528-2.167-5.055-3.37-7.583v8.185H457.4V115.385c1.525,0,3.049-.04,4.574.04.2,0,.481.4.6.642.963,2.247,1.926,4.494,2.889,6.781a1.746,1.746,0,0,0,.522.722v-8.1Z" transform="translate(-275.646 -112.095)"/>
        <path id="Path_358" data-name="Path 358" d="M267.725,121.3a2.721,2.721,0,0,1,2.126,2.488c.2,1.083.361,2.167.562,3.33H266.8c-.16-.923-.321-1.886-.481-2.809-.321-1.725-.441-1.846-2.247-1.846-.281,0-.522.04-.883.04v4.654H259.5V115.32a2.161,2.161,0,0,1,.4-.12c2.327,0,4.614,0,6.941.08a4.026,4.026,0,0,1,1.645.441,2.708,2.708,0,0,1,1.685,2.488,2.928,2.928,0,0,1-1.6,2.728A6.609,6.609,0,0,0,267.725,121.3Zm-4.534-.8a21.232,21.232,0,0,0,2.407-.241,1.253,1.253,0,0,0,1.043-1.364,1.114,1.114,0,0,0-1.043-1.244c-.762-.12-1.565-.16-2.407-.241Z" transform="translate(-157.148 -111.99)"/>
        <path id="Path_359" data-name="Path 359" d="M386.831,127.156H383.1V115.24c.321,0,.642-.04.963-.04,2.207.04,4.413,0,6.58.08a3.153,3.153,0,0,1,3.009,2.207,2.933,2.933,0,0,1-1.2,3.21,7.9,7.9,0,0,1-1.163.6,2.767,2.767,0,0,1,2.167,2.528c.2,1.043.361,2.126.562,3.33H390.4c-.161-.8-.281-1.565-.441-2.367-.4-2.367-.6-2.528-3.17-2.287C386.831,124.027,386.831,125.511,386.831,127.156Zm.04-6.7a20.51,20.51,0,0,0,2.367-.241,1.228,1.228,0,0,0,1.043-1.364,1.173,1.173,0,0,0-1-1.284c-.762-.12-1.565-.161-2.407-.241Z" transform="translate(-231.157 -111.99)"/>
        <path id="Path_360" data-name="Path 360" d="M146.92,115.5h3.571c0,.321.04.6.04.923,0,2.407,0,4.775.04,7.182.04,1.4.722,1.966,2.046,1.886a1.636,1.636,0,0,0,1.565-1.244,7.262,7.262,0,0,0,.161-1.6V115.5h3.571v2.688c0,1.765.04,3.531-.08,5.3a3.947,3.947,0,0,1-3.571,4.012,11.762,11.762,0,0,1-3.932.04,3.61,3.61,0,0,1-3.41-3.611C146.8,121.2,146.92,118.389,146.92,115.5Z" transform="translate(-89.706 -112.17)"/>
        <path id="Path_361" data-name="Path 361" d="M360.48,127.371c-1.083,0-2.207.04-3.33-.04-.2,0-.441-.321-.562-.522-.281-.642-.321-1.565-.762-1.846-.562-.321-1.444-.12-2.207-.16h-.08c-2.006,0-2.046,0-2.648,1.886a.829.829,0,0,1-.963.682c-.883-.04-1.725,0-2.728,0,.08-.321.16-.562.241-.8,1.284-3.491,2.568-6.981,3.812-10.472.2-.562.441-.843,1.083-.8,1.043.08,2.086,0,3.17.04a.959.959,0,0,1,.762.4c1.444,3.771,2.809,7.583,4.213,11.355C360.521,127.171,360.48,127.251,360.48,127.371Zm-5.176-4.694c-.522-1.645-1.043-3.25-1.6-5.055-.562,1.846-1.043,3.41-1.565,5.055Z" transform="translate(-209.661 -112.044)"/>
        <path id="Path_362" data-name="Path 362" d="M232.3,127.456V115.5h8.907v2.247h-5.376v2.528h5.136v2.247h-5.136v2.688h5.537v2.247Z" transform="translate(-140.861 -112.17)"/>
        <path id="Path_363" data-name="Path 363" d="M419,127.516h-3.731v-9.669H411.7V115.6h10.793v2.247h-3.531C419,121.1,419,124.266,419,127.516Z" transform="translate(-248.282 -112.23)"/>
        <path id="Path_364" data-name="Path 364" d="M189.307,125.25v2.207H180.4V115.5h3.611v9.75Z" transform="translate(-109.785 -112.17)"/>
        <path id="Path_365" data-name="Path 365" d="M206.4,115.5h3.611v9.71h5.256v2.207H206.4Z" transform="translate(-125.353 -112.17)"/>
        <path id="Path_366" data-name="Path 366" d="M492.9,115.5h3.611v11.916H492.9Z" transform="translate(-296.903 -112.17)"/>
        <path id="Path_367" data-name="Path 367" d="M442.3,115.5h3.571v11.916H442.3Z" transform="translate(-266.604 -112.17)"/>
        <path id="Path_368" data-name="Path 368" d="M165.448,109.447H162.8V107.2h2.648Z" transform="translate(-99.246 -107.2)"/>
        <path id="Path_369" data-name="Path 369" d="M154.848,107.2v2.247H152.2V107.2Z" transform="translate(-92.899 -107.2)"/>
        <path id="Path_370" data-name="Path 370" d="M643.549,115.4H558.811L529,151.671h16.33l21.024-24.435h77.2S643.188,115.4,643.549,115.4Z" transform="translate(-318.519 -112.11)" fill="#008dcd"/>
        <path id="Path_371" data-name="Path 371" d="M240.921,115.4H224.23l-20.3,24.394H4.4v11.876H210.548Z" transform="translate(-4.4 -112.11)" fill="#004494"/>
      </g>
    </g>
  </g>
</svg>
