<svg xmlns="http://www.w3.org/2000/svg" width="42.78" height="43" viewBox="0 0 42.78 43">
  <g id="New_Machine" data-name="New Machine" transform="translate(-0.65 -1.168)">
    <path id="Path_106" data-name="Path 106" d="M43.523,1.518H1V37.007H12.187v3.726a3.533,3.533,0,0,0,7.065,0V37.007H43.523Zm-.981.98V6.681H1.981V2.5ZM18.271,40.732a2.552,2.552,0,0,1-5.1,0V34.523a.726.726,0,0,1,.72-.719h.851v-2.81c.327,0,.654.065.981.065a4.945,4.945,0,0,0,.981-.065V33.8h.916a.726.726,0,0,1,.72.719v6.209ZM15.72,30.079A9.673,9.673,0,1,1,25.4,20.406,9.7,9.7,0,0,1,15.72,30.079Zm3.533,5.947v-1.5a1.718,1.718,0,0,0-1.636-1.7V30.863a10.663,10.663,0,1,0-3.924,0v1.961a1.719,1.719,0,0,0-1.636,1.7v1.5H1.982V7.661H42.608V36.026Z" transform="translate(-0.222 -0.222)" fill="#fff"/>
    <rect id="Rectangle_4941" data-name="Rectangle 4941" width="9" height="5" transform="translate(29.65 10.168)" fill="#fff"/>
    <path id="Path_107" data-name="Path 107" d="M43.43,1.3V1.168H.65V36.913H11.837v3.6a3.661,3.661,0,0,0,7.322,0v-3.6H43.429V1.3ZM17.986,40.382h-.065v.128a2.423,2.423,0,0,1-4.846,0V34.3a.6.6,0,0,1,.591-.591h.979V30.9c.114.005.23.017.35.029h0c.161.016.33.033.5.033H15.5a5.867,5.867,0,0,0,.847-.042V33.71h1.044a.6.6,0,0,1,.591.591ZM42.192,2.4V6.331H1.888V2.4ZM15.5,29.729a9.545,9.545,0,1,1,9.554-9.545A9.569,9.569,0,0,1,15.5,29.729Zm3.661,5.947V34.3a1.84,1.84,0,0,0-1.636-1.815V30.747a10.792,10.792,0,1,0-4.181,0v1.739A1.841,1.841,0,0,0,11.707,34.3v1.375H1.889V7.568h40.37V35.676Z" fill="none"/>
    <path id="Path_108" data-name="Path 108" d="M98.8,8.649h.981v.98H98.8Z" transform="translate(-62.168 -4.739)" fill="#fff"/>
    <path id="Path_109" data-name="Path 109" d="M98.574,8.3h-.128V9.536h1.238V8.3h-1.11Z" transform="translate(-61.946 -4.517)" fill="none"/>
    <path id="Path_110" data-name="Path 110" d="M92.015,8.649H93v.98h-.981Z" transform="translate(-57.872 -4.739)" fill="#fff"/>
    <path id="Path_111" data-name="Path 111" d="M91.793,8.3h-.128V9.536H92.9V8.3h-1.11Z" transform="translate(-57.651 -4.517)" fill="none"/>
    <path id="Path_112" data-name="Path 112" d="M105.4,8.649h.981v.98H105.4Z" transform="translate(-66.351 -4.739)" fill="#fff"/>
    <path id="Path_113" data-name="Path 113" d="M105.178,8.3h-.128V9.536h1.238V8.3h-1.11Z" transform="translate(-66.129 -4.517)" fill="none"/>
    <path id="Path_114" data-name="Path 114" d="M11.529,8.649H37.763v.98H11.529Z" transform="translate(-6.891 -4.739)" fill="#fff"/>
    <path id="Path_115" data-name="Path 115" d="M11.308,8.3h-.128V9.536H37.67V8.3H11.308Z" transform="translate(-6.669 -4.517)" fill="none"/>
    <path id="Path_116" data-name="Path 116" d="M33.915,41.238l1.57-.327V38.166l-1.57-.261a6.155,6.155,0,0,0-.654-1.5l.916-1.307-1.963-1.961-1.308.915a10.459,10.459,0,0,0-1.5-.654l-.327-1.568H26.326l-.262,1.568a4.395,4.395,0,0,0-1.5.654l-1.374-.915-1.963,1.961.916,1.307a10.438,10.438,0,0,0-.654,1.5l-1.57.327v2.745l1.57.261a6.155,6.155,0,0,0,.654,1.5l-.916,1.373,1.963,1.9,1.308-.915a10.456,10.456,0,0,0,1.5.654l.327,1.568h2.748l.262-1.568a6.166,6.166,0,0,0,1.5-.654l1.308.915,1.9-1.961-.916-1.307a3.7,3.7,0,0,0,.785-1.5ZM33,40.715a6.274,6.274,0,0,1-.72,1.83l-.2.261.85,1.176-.785.784-1.178-.784-.327.2a8.552,8.552,0,0,1-1.766.784l-.327.066-.262,1.438H27.177l-.262-1.438-.327-.066a6.288,6.288,0,0,1-1.832-.719l-.262-.2-1.178.85-.785-.784.785-1.176-.2-.261a8.538,8.538,0,0,1-.785-1.765v-.458L20.9,40.192V39.081l1.439-.261.066-.327a6.274,6.274,0,0,1,.72-1.83l.2-.261-.851-1.176.785-.784,1.178.784.262-.2a6.094,6.094,0,0,1,1.766-.784l.327-.066.262-1.438h1.112l.262,1.438.327.066a6.288,6.288,0,0,1,1.832.719l.262.2,1.178-.85.785.784-.785,1.176.2.261A6.082,6.082,0,0,1,33,38.3l.066.327,1.439.261V40l-1.439.261Z" transform="translate(-12.203 -19.42)" fill="#fff"/>
    <path id="Path_117" data-name="Path 117" d="M33.07,42.526a3.829,3.829,0,0,0,.728-1.4l1.492-.311.1-.021V37.835l-.107-.018L33.8,37.57a6.311,6.311,0,0,0-.606-1.383l.869-1.241.062-.088-.076-.076-1.963-1.961-.076-.076-.088.062-1.242.869a10.7,10.7,0,0,0-1.386-.6l-.313-1.5-.021-.1H26l-.018.107-.248,1.486a4.523,4.523,0,0,0-1.393.6l-1.3-.867-.087-.058-.074.074-1.963,1.961-.076.076.062.088.87,1.241a10.676,10.676,0,0,0-.6,1.384l-1.5.312-.1.021v2.958l.107.018,1.488.248a6.316,6.316,0,0,0,.607,1.385L20.9,43.821l-.059.089.077.074,1.963,1.9.076.073.087-.061,1.242-.869a10.7,10.7,0,0,0,1.386.6l.313,1.5.021.1h2.961l.018-.107.248-1.487a6.325,6.325,0,0,0,1.385-.605l1.242.869.09.063.076-.079,1.9-1.961.074-.076-.061-.087Zm-1.31-.019-.057.076.055.077.786,1.088-.633.633-1.09-.726-.068-.045-.07.042-.327.2h0a8.411,8.411,0,0,1-1.731.769l-.319.064-.085.017-.016.086-.242,1.332h-.9l-.242-1.332L26.8,44.7l-.085-.017-.327-.066h0a6.149,6.149,0,0,1-1.787-.7l-.255-.191-.075-.057-.077.055-1.089.786-.633-.633.727-1.089.05-.076-.055-.073-.193-.257a8.384,8.384,0,0,1-.763-1.713v-.544l-.105-.019L20.8,39.863v-.9l1.334-.242.086-.016.017-.085.066-.327h0a6.136,6.136,0,0,1,.7-1.785l.191-.254.057-.076L23.2,36.1l-.787-1.088.633-.633,1.09.726.076.05.073-.054.262-.2a5.446,5.446,0,0,1,1.585-.717l.138-.046.319-.064.085-.017.016-.086.242-1.332h.9l.242,1.332.016.086.085.017.327.066h0a6.149,6.149,0,0,1,1.787.7l.255.191.075.057.077-.055,1.089-.786.633.633-.727,1.089-.05.076.055.073.2.261h0a5.435,5.435,0,0,1,.718,1.583l.046.138.064.319.017.085.086.016,1.334.242v.9l-1.334.242-.091.017-.013.091-.065.454a6.14,6.14,0,0,1-.7,1.782Z" transform="translate(-11.981 -19.198)" fill="none"/>
    <path id="Path_118" data-name="Path 118" d="M35.05,43.594a3.573,3.573,0,0,0-3.533,3.529,3.5,3.5,0,0,0,3.533,3.464,3.575,3.575,0,0,0,2.486-1.046,3.248,3.248,0,0,0,.981-2.484A3.406,3.406,0,0,0,35.05,43.594Zm1.832,5.228a2.529,2.529,0,0,1-1.766.719v0a2.456,2.456,0,1,1,1.766-.719Z" transform="translate(-19.552 -26.873)" fill="#fff"/>
    <path id="Path_119" data-name="Path 119" d="M34.829,43.244a3.7,3.7,0,0,0-2.577,1.083l5.153,5.083a3.378,3.378,0,0,0,1.019-2.577A3.534,3.534,0,0,0,34.829,43.244Zm-2.577,1.083A3.7,3.7,0,0,0,31.168,46.9a3.631,3.631,0,0,0,3.661,3.592,3.7,3.7,0,0,0,2.577-1.083Zm4.318,4.183a2.367,2.367,0,1,1,.682-1.674A2.4,2.4,0,0,1,36.569,48.51Z" transform="translate(-19.331 -26.652)" fill="none"/>
    <path id="Path_120" data-name="Path 120" d="M77.2,30.5H88.653V24.16H77.2Zm.982-5.359h9.486V29.52H78.186Z" transform="translate(-48.491 -14.564)" fill="#fff"/>
    <path id="Path_121" data-name="Path 121" d="M76.854,30.278v.128H88.559v-6.6H76.854v6.468Zm1.238-5.231h9.229V29.17H78.092Z" transform="translate(-48.269 -14.342)" fill="none"/>
    <path id="Path_122" data-name="Path 122" d="M78.453,48.585h10.86v.98H78.453Z" transform="translate(-49.282 -30.035)" fill="#fff"/>
    <path id="Path_123" data-name="Path 123" d="M78.231,48.235H78.1v1.237H89.22V48.235H78.231Z" transform="translate(-49.061 -29.813)" fill="none"/>
    <path id="Path_124" data-name="Path 124" d="M75.24,60.174H87.277v.98H75.24Z" transform="translate(-47.247 -37.376)" fill="#fff"/>
    <path id="Path_125" data-name="Path 125" d="M75.019,59.824H74.89v1.237H87.184V59.824H75.019Z" transform="translate(-47.025 -37.154)" fill="none"/>
    <path id="Path_126" data-name="Path 126" d="M70.244,71.762H84.179v.98H70.244Z" transform="translate(-44.082 -44.716)" fill="#fff"/>
    <path id="Path_127" data-name="Path 127" d="M70.022,71.412h-.128v1.237H84.085V71.412H70.022Z" transform="translate(-43.861 -44.494)" fill="none"/>
    <path id="Path_128" data-name="Path 128" d="M58.285,83.531H76.6v.98H58.285Z" transform="translate(-36.507 -52.171)" fill="#fff"/>
    <path id="Path_129" data-name="Path 129" d="M58.064,83.181h-.128v1.237H76.509V83.181H58.064Z" transform="translate(-36.286 -51.949)" fill="none"/>
  </g>
</svg>
