<svg xmlns="http://www.w3.org/2000/svg" width="328" height="219.8" viewBox="0 0 328 219.8">
  <g id="New_Machinery" data-name="New Machinery" transform="translate(-223.766 -207.644)">
    <line id="Line_74" data-name="Line 74" x2="327.631" transform="translate(224.134 406.481)" fill="none" stroke="#fff" stroke-width="1"/>
    <line id="Line_75" data-name="Line 75" x2="320.767" transform="translate(225.068 237.494)" fill="none" stroke="#fff" stroke-width="1"/>
    <line id="Line_76" data-name="Line 76" x2="276.904" transform="translate(223.766 346.798)" fill="none" stroke="#fff" stroke-width="1"/>
    <line id="Line_77" data-name="Line 77" y2="216.722" transform="translate(500.635 208.385)" fill="none" stroke="#fff" stroke-width="1"/>
    <line id="Line_78" data-name="Line 78" y2="214.613" transform="translate(282.201 212.831)" fill="none" stroke="#fff" stroke-width="1"/>
    <line id="Line_79" data-name="Line 79" y2="214.613" transform="translate(367.065 207.644)" fill="none" stroke="#fff" stroke-width="1"/>
    <g id="noun-easy-installation-4502615" transform="translate(395.266 255.345)">
      <g id="Group_90" data-name="Group 90" transform="translate(4.399 4.399)">
        <g id="Group_89" data-name="Group 89">
          <path id="Path_489" data-name="Path 489" d="M57.562,73.507,65.955,81.9,81.2,66.651l-3.893-3.894L66.367,73.7a.581.581,0,0,1-.822,0l-4.088-4.088Zm8.393,9.8a.579.579,0,0,1-.411-.17L56.33,73.918a.579.579,0,0,1,0-.822l4.715-4.716a.582.582,0,0,1,.822,0l4.088,4.087L76.9,61.524a.581.581,0,0,1,.822,0l4.717,4.716a.584.584,0,0,1,0,.822L66.367,83.133A.582.582,0,0,1,65.955,83.3Z" transform="translate(-36.241 -39.186)" fill="#fff" fill-rule="evenodd"/>
          <path id="Path_490" data-name="Path 490" d="M30.7,65.122a.58.58,0,0,1,.284.075,25.048,25.048,0,0,0,5.545,2.3.581.581,0,0,1,.425.56v5.6a1.622,1.622,0,0,0,1.62,1.621h9.456a1.622,1.622,0,0,0,1.62-1.62v-5.6a.582.582,0,0,1,.425-.56,25,25,0,0,0,5.545-2.3.581.581,0,0,1,.7.1l3.964,3.963a1.621,1.621,0,0,0,2.291,0l6.686-6.686a1.626,1.626,0,0,0,0-2.291l-3.964-3.964a.581.581,0,0,1-.1-.7,24.922,24.922,0,0,0,2.3-5.544.583.583,0,0,1,.56-.425h5.6a1.622,1.622,0,0,0,1.62-1.62V38.573a1.622,1.622,0,0,0-1.62-1.62h-5.6a.58.58,0,0,1-.56-.425,25.058,25.058,0,0,0-2.3-5.545.581.581,0,0,1,.1-.7l3.964-3.964a1.623,1.623,0,0,0,0-2.291l-6.686-6.686a1.626,1.626,0,0,0-2.291,0L56.316,21.31a.581.581,0,0,1-.7.1,24.981,24.981,0,0,0-5.543-2.3.582.582,0,0,1-.425-.56v-5.6a1.622,1.622,0,0,0-1.62-1.62H38.575a1.622,1.622,0,0,0-1.62,1.621v5.6a.582.582,0,0,1-.426.56,24.971,24.971,0,0,0-5.545,2.3.582.582,0,0,1-.7-.1l-3.964-3.964a1.628,1.628,0,0,0-2.292,0l-6.685,6.685a1.621,1.621,0,0,0,0,2.292l3.962,3.963a.58.58,0,0,1,.1.7,24.993,24.993,0,0,0-2.3,5.545.583.583,0,0,1-.56.425h-5.6a1.622,1.622,0,0,0-1.62,1.62v9.455a1.622,1.622,0,0,0,1.62,1.621h5.6a.583.583,0,0,1,.56.425,25.007,25.007,0,0,0,2.3,5.545.58.58,0,0,1-.1.7l-3.962,3.963a1.621,1.621,0,0,0,0,2.292l6.685,6.685a1.627,1.627,0,0,0,2.292,0l3.964-3.964A.581.581,0,0,1,30.7,65.122Zm17.33,11.321H38.575a2.786,2.786,0,0,1-2.783-2.783V68.494a26.159,26.159,0,0,1-4.99-2.069l-3.655,3.655a2.791,2.791,0,0,1-3.937,0l-6.685-6.686a2.787,2.787,0,0,1,0-3.936L20.179,55.8a26.177,26.177,0,0,1-2.07-4.991H12.943a2.787,2.787,0,0,1-2.783-2.783V38.573a2.786,2.786,0,0,1,2.783-2.783h5.166a26.136,26.136,0,0,1,2.07-4.991l-3.653-3.654a2.786,2.786,0,0,1,0-3.936l6.685-6.686a2.791,2.791,0,0,1,3.936,0L30.8,20.178a26.12,26.12,0,0,1,4.99-2.069V12.942a2.786,2.786,0,0,1,2.783-2.783h9.456a2.787,2.787,0,0,1,2.783,2.783v5.166a26.191,26.191,0,0,1,4.99,2.07l3.655-3.655a2.789,2.789,0,0,1,3.935,0l6.686,6.685a2.786,2.786,0,0,1,0,3.936L66.425,30.8a26.085,26.085,0,0,1,2.07,4.991h5.166a2.786,2.786,0,0,1,2.783,2.783v9.455a2.786,2.786,0,0,1-2.783,2.783H68.5a26.164,26.164,0,0,1-2.07,4.99l3.655,3.655a2.788,2.788,0,0,1,0,3.936l-6.686,6.686a2.786,2.786,0,0,1-3.935,0L55.8,66.425a26.17,26.17,0,0,1-4.991,2.07V73.66a2.787,2.787,0,0,1-2.783,2.784Z" transform="translate(-10.16 -10.159)" fill="#fff" fill-rule="evenodd"/>
          <path id="Path_491" data-name="Path 491" d="M60.671,41.955A18.715,18.715,0,1,0,79.387,60.67,18.737,18.737,0,0,0,60.671,41.955Zm0,38.593A19.878,19.878,0,1,1,80.55,60.67,19.9,19.9,0,0,1,60.671,80.548Z" transform="translate(-27.529 -27.528)" fill="#fff" fill-rule="evenodd"/>
        </g>
      </g>
      <rect id="Rectangle_5020" data-name="Rectangle 5020" width="75.082" height="75.082" fill="none"/>
    </g>
    <rect id="Rectangle_5021" data-name="Rectangle 5021" width="17" height="18" transform="translate(276.266 265.538)" fill="#adadad"/>
    <rect id="Rectangle_5022" data-name="Rectangle 5022" width="17" height="18" transform="translate(522.266 404.538)" fill="#adadad"/>
  </g>
</svg>
