<svg xmlns="http://www.w3.org/2000/svg" width="330.5" height="262" viewBox="0 0 330.5 262">
  <g id="Newsletter" transform="translate(-221.766 -181.21)">
    <line id="Line_80" data-name="Line 80" x2="327.631" transform="translate(224.134 396.466)" fill="none" stroke="#fff" stroke-width="1"/>
    <line id="Line_81" data-name="Line 81" x2="320.767" transform="translate(225.068 227.48)" fill="none" stroke="#fff" stroke-width="1"/>
    <line id="Line_82" data-name="Line 82" x2="146.266" transform="translate(221.766 311.973)" fill="none" stroke="#fff" stroke-width="1"/>
    <line id="Line_83" data-name="Line 83" y2="216.722" transform="translate(500.635 198.371)" fill="none" stroke="#fff" stroke-width="1"/>
    <line id="Line_84" data-name="Line 84" y2="214.613" transform="translate(282.201 202.817)" fill="none" stroke="#fff" stroke-width="1"/>
    <line id="Line_85" data-name="Line 85" y2="99" transform="translate(427.824 344.21)" fill="none" stroke="#fff" stroke-width="1"/>
    <line id="Line_86" data-name="Line 86" y2="202.123" transform="translate(355.012 181.21)" fill="none" stroke="#fff" stroke-width="1"/>
    <line id="Line_158" data-name="Line 158" x2="64.234" transform="translate(488.032 312.123)" fill="none" stroke="#fff" stroke-width="1"/>
    <circle id="Ellipse_24" data-name="Ellipse 24" cx="3.5" cy="3.5" r="3.5" transform="translate(260.266 240.71)" fill="#adadad"/>
    <circle id="Ellipse_25" data-name="Ellipse 25" cx="6.5" cy="6.5" r="6.5" transform="translate(440.266 375.71)" fill="#adadad"/>
    <g id="Group_106" data-name="Group 106" transform="translate(760.314 -109.056)">
      <path id="Path_540" data-name="Path 540" d="M-359,396.42a10.042,10.042,0,0,1,.784-1.748,3.59,3.59,0,0,1,3.131-1.521h4.413c.012-.257.031-.477.031-.7v-21.46a4.269,4.269,0,0,1,.734-2.683,3.852,3.852,0,0,1,3.28-1.567q6.1.007,12.2,0h16.939a3.739,3.739,0,0,1,3.867,2.775,5.182,5.182,0,0,1,.171,1.4q.015,10.756.007,21.512v.717h.573c1.263,0,2.525-.007,3.788,0a3.773,3.773,0,0,1,2.866,1.1,3.773,3.773,0,0,1,1.1,2.869q.01,9.73,0,19.461a3.771,3.771,0,0,1-3.12,3.969.782.782,0,0,0-.141.067h-47.36a13.156,13.156,0,0,1-1.784-.82A3.8,3.8,0,0,1-359,417.36Zm26.97-28.6h-14.521a2.725,2.725,0,0,0-2.217.783,2.725,2.725,0,0,0-.783,2.217q0,13.887-.008,27.775a.754.754,0,0,0,.381.724q7.748,5.107,15.48,10.236a2.738,2.738,0,0,0,3.286.009q7.756-5.141,15.524-10.265a.747.747,0,0,0,.377-.727c-.021-1.63-.024-3.261-.023-4.891q0-11.283.011-22.566a5.348,5.348,0,0,0-.127-1.3,2.7,2.7,0,0,0-2.859-2q-7.261,0-14.521,0Zm-24.341,51.38.006.158a12.394,12.394,0,0,0,1.525.189c3.876.016,7.752.009,11.628.009q16.943,0,33.886-.008a13.424,13.424,0,0,0,1.577-.183.587.587,0,0,0-.234-.341l-17.045-11.3a.5.5,0,0,0-.653.014c-1.351.911-2.715,1.8-4.073,2.7a3.808,3.808,0,0,1-4.566.006c-1.327-.885-2.669-1.747-3.984-2.649a.693.693,0,0,0-.922,0q-8.358,5.568-16.733,11.108C-356.1,419-356.234,419.1-356.371,419.2Zm49.571-.683a2.53,2.53,0,0,0,.61-1.735q.01-9.889,0-19.779a2.521,2.521,0,0,0-.628-1.765l-17.548,11.639Zm-32.934-11.656L-357.3,395.238a2.758,2.758,0,0,0-.629,1.933q0,3.077,0,6.154v13.2a2.757,2.757,0,0,0,.618,1.974ZM-350.671,394.2c-1.906.137-3.8-.21-5.657.234l-.018.151,5.675,3.756Zm37.254,4.121,5.654-3.749-.043-.154c-1.853-.4-3.733-.1-5.611-.21Z" fill="#fff"/>
      <path id="Path_541" data-name="Path 541" d="M-247.65,420.665h-13.094c-.739,0-1.026-.153-.983-.558.065-.616.556-.528.966-.528h26.293c.729,0,1.027.159.985.564-.063.623-.563.521-.968.521Q-241.05,420.669-247.65,420.665Z" transform="translate(-84.451 -45.868)" fill="#fff"/>
      <path id="Path_542" data-name="Path 542" d="M-247.46,558.047h-13.094a1.4,1.4,0,0,1-.618-.057.714.714,0,0,1-.372-.478.8.8,0,0,1,.353-.5.981.981,0,0,1,.511-.061h26.452c.123,0,.28-.042.361.018.2.148.507.339.512.521s-.287.4-.494.53c-.128.08-.341.025-.517.025Z" transform="translate(-84.614 -165.131)" fill="#fff"/>
      <path id="Path_543" data-name="Path 543" d="M-247.381,447.166h13.1c.175,0,.386-.052.517.026.183.109.42.313.426.484s-.212.393-.384.525c-.1.079-.3.034-.462.034h-26.507c-.174,0-.392.036-.511-.051a.761.761,0,0,1-.331-.513.737.737,0,0,1,.385-.468,1.3,1.3,0,0,1,.569-.035Z" transform="translate(-84.62 -69.81)" fill="#fff"/>
      <path id="Path_544" data-name="Path 544" d="M-247.619,475.688h-13.147c-.4,0-.906.122-.97-.51-.041-.409.248-.565.981-.565h26.294c.409,0,.9-.1.968.522.044.411-.225.554-.979.554Z" transform="translate(-84.443 -93.648)" fill="#fff"/>
      <path id="Path_545" data-name="Path 545" d="M-247.6,502.162h13.147c.4,0,.9-.116.974.51.045.41-.246.568-.978.568h-26.294c-.41,0-.9.094-.971-.519-.047-.412.228-.56.975-.56Z" transform="translate(-84.453 -117.568)" fill="#fff"/>
      <path id="Path_546" data-name="Path 546" d="M-247.573,530.7h-13.1c-.175,0-.384.055-.518-.021a1.013,1.013,0,0,1-.488-.491c-.079-.317.159-.513.486-.548a3.952,3.952,0,0,1,.42-.008h26.4a3.781,3.781,0,0,1,.42.008c.327.037.563.237.481.553-.051.2-.294.376-.493.487-.135.075-.343.02-.518.02Z" transform="translate(-84.487 -141.422)" fill="#fff"/>
    </g>
  </g>
</svg>
