<svg xmlns="http://www.w3.org/2000/svg" xmlns:xlink="http://www.w3.org/1999/xlink" width="391" height="371" viewBox="0 0 391 371">
  <defs>
    <clipPath id="clip-path">
      <rect id="Rectangle_76" data-name="Rectangle 76" width="391" height="371" transform="translate(0.167 0.398)" fill="#fff"/>
    </clipPath>
  </defs>
  <g id="no-machine-found" transform="translate(-0.167 -0.398)" clip-path="url(#clip-path)">
    <path id="Path_447" data-name="Path 447" d="M132.848,81.829c.468,0,.937-.467,1.248-1.09a6.808,6.808,0,0,1,1.4-1.713,1.458,1.458,0,0,1,1.561-.156l.624.623a3.5,3.5,0,0,1,.78,1.713,1.68,1.68,0,0,1,.157.779c0,.312.156.467.156.935v.467h-.313a1.978,1.978,0,0,1-.935-.156,4.569,4.569,0,0,1-1.405-.312,6.763,6.763,0,0,1-1.872-.779c-.467,0-.935-.467-1.4-.312q-.7,0-.935,1.4a4.741,4.741,0,0,0,1.872,3.738,6.5,6.5,0,0,0,2.5,1.4c.467.156.78.312,1.248.467l.311.156.624.156c.313,0,.781.156,1.248.156a4.959,4.959,0,0,0,4.37-1.869,5.954,5.954,0,0,0,.935-2.492V82.452a5.54,5.54,0,0,0-.311-1.558c-.157-.467-.313-.935-.468-1.558a9.516,9.516,0,0,0-2.029-3.427,6.145,6.145,0,0,0-3.9-2.181,6.039,6.039,0,0,0-6.241,3.115,6.578,6.578,0,0,0-.468,4.05A1.463,1.463,0,0,0,132.848,81.829Z" transform="translate(83.805 46.98)" fill="#1f4790"/>
    <path id="Path_448" data-name="Path 448" d="M135.9,34.946c.468,0,.937-.467,1.248-1.09a6.819,6.819,0,0,1,1.405-1.713,1.455,1.455,0,0,1,1.559-.156c.157.156.313.312.624.623a3.517,3.517,0,0,1,.781,1.713,1.7,1.7,0,0,1,.156.779c0,.312.156.467.156.935V36.5h-.311a1.985,1.985,0,0,1-.937-.156,4.559,4.559,0,0,1-1.4-.311,6.743,6.743,0,0,1-1.872-.779c-.468,0-.937-.467-1.405-.312q-.7,0-.935,1.4a4.751,4.751,0,0,0,1.872,3.738,6.5,6.5,0,0,0,2.5,1.4c.468.156.78.312,1.248.467l.313.156.624.156c.311,0,.78.156,1.248.156a4.957,4.957,0,0,0,4.368-1.869,5.931,5.931,0,0,0,.935-2.492V35.569a5.54,5.54,0,0,0-.311-1.558c-.156-.467-.313-.935-.468-1.558a9.536,9.536,0,0,0-2.028-3.427,6.153,6.153,0,0,0-3.9-2.181,6.039,6.039,0,0,0-6.241,3.115,6.592,6.592,0,0,0-.468,4.05A1.465,1.465,0,0,0,135.9,34.946Z" transform="translate(85.75 17.07)" fill="#a8a8a8"/>
    <path id="Path_449" data-name="Path 449" d="M93.988,85.258a1.555,1.555,0,0,0,.624.779,4.92,4.92,0,0,0,2.652,1.4c.624.156,1.872.467,2.028-.156.156-.467-.312-1.246-.624-1.713-.78-1.4-2.34-3.271-4.057-3.115C93.364,82.61,93.364,84.012,93.988,85.258Z" transform="translate(59.63 52.586)" fill="#fff"/>
    <path id="Path_450" data-name="Path 450" d="M94.314,85.749a2.454,2.454,0,0,0-.156-.623V84.5c0-.312.156-.467.468-.623.156-.156.312,0,.468.156l.468.467c.312.312,1.092.779,1.716,1.4.156.156.312.312.312.467.156.156.156.312.312.467l.156.312s.156.312.156.156H97.123A6.714,6.714,0,0,1,95.251,87a5.94,5.94,0,0,1-.936-.779c.156-.312,0-.467,0-.467a1.2,1.2,0,0,0,.156.467,3.593,3.593,0,0,0,.78,1.09,4.888,4.888,0,0,0,1.716,1.246c.156.156.312.156.624.156s.312.156.78.156a1.516,1.516,0,0,0,1.872-.934v-.623a.935.935,0,0,0-.156-.623c0-.312-.156-.312-.156-.467l-.156-.467c-.156-.156-.156-.467-.312-.623s-.156-.467-.312-.623a5.206,5.206,0,0,0-2.808-2.648,3.022,3.022,0,0,0-2.028,0,1.85,1.85,0,0,0-1.248,1.558,3.034,3.034,0,0,0,.156,1.246c.156.312.156.467.312.623A3.477,3.477,0,0,1,94.314,85.749Z" transform="translate(59.304 52.095)" fill="#1b1b1b"/>
    <path id="Path_451" data-name="Path 451" d="M87,70.892c-.624-3.738,2.34-6.386,6.4-5.919a14.077,14.077,0,0,1,9.986,8.256c1.4,3.894-.78,7.321-4.525,7.321a7.4,7.4,0,0,0-2.652.156c-1.716.467-2.028,2.648-1.248,4.673a22.132,22.132,0,0,0,3.9,5.763" transform="translate(55.382 41.406)" fill="#fff"/>
    <path id="Path_452" data-name="Path 452" d="M98.888,91.4l-.312-.312c-.156-.312-.468-.623-.78-1.09s-.624-1.09-1.092-1.713c-.312-.779-.78-1.558-1.092-2.336a3.925,3.925,0,0,1-.156-2.648,1.1,1.1,0,0,1,.624-.779c.156-.156.468-.156,1.092-.156a11.635,11.635,0,0,0,2.34,0,7.689,7.689,0,0,0,2.652-.935,6.161,6.161,0,0,0,2.809-4.985,6.046,6.046,0,0,0-.312-2.336,7.821,7.821,0,0,0-.78-2.025,15.586,15.586,0,0,0-3.121-3.894,15.026,15.026,0,0,0-3.9-2.492,8.958,8.958,0,0,0-3.9-.935,6.223,6.223,0,0,0-3.433.779A4.251,4.251,0,0,0,87.5,67.566a3.766,3.766,0,0,0-.624,2.025v1.246c0,.312,0,.467.156.467v-.467a3.864,3.864,0,0,1,.156-1.246,5.981,5.981,0,0,1,.78-1.869,4.183,4.183,0,0,1,2.028-1.558,6.908,6.908,0,0,1,3.12-.312A10.191,10.191,0,0,1,96.548,67.1a14.211,14.211,0,0,1,5.617,6.075,3,3,0,0,1,.468,1.558,2.649,2.649,0,0,1,0,1.558,4.352,4.352,0,0,1-1.716,2.8,2.639,2.639,0,0,1-1.56.467c-.468.156-1.092,0-1.872.156a4.668,4.668,0,0,0-2.652.779,3.2,3.2,0,0,0-1.248,2.337,5.589,5.589,0,0,0,.936,3.738A13.551,13.551,0,0,0,97.8,90.308Z" transform="translate(55.354 41.305)" fill="#1b1b1b"/>
    <path id="Path_453" data-name="Path 453" d="M178,250.875c62.255,0,112.808-16.2,112.808-34.736s-50.4-33.49-112.652-33.645c-62.254,0-112.807,14.8-112.807,33.334C65.19,234.365,115.587,250.72,178,250.875Z" transform="translate(41.619 116.413)" fill="#1b1b1b"/>
    <path id="Path_454" data-name="Path 454" d="M66.83,231.909c.156-.311-1.092-1.245-3.12-3.271a23.245,23.245,0,0,1-3.433-4.049A10.668,10.668,0,0,1,58.4,218.2a11.071,11.071,0,0,1,3.9-7.166,33.441,33.441,0,0,1,8.738-6.075,121.374,121.374,0,0,1,25.276-9.189c19.5-4.986,43.843-8.413,70.992-9.191a362.781,362.781,0,0,1,42.751,1.089,279.927,279.927,0,0,1,45.56,7.322,115.12,115.12,0,0,1,17.944,5.92c5.617,2.336,11.235,5.3,15.6,9.191a21,21,0,0,1,1.872,1.869c.311.311.468.622.78.934a2.51,2.51,0,0,1,.624,1.091,9.3,9.3,0,0,1,1.561,4.206c.311,2.8-1.248,5.762-3.589,8.255a32.428,32.428,0,0,1-8.581,6.386,73.064,73.064,0,0,1-9.987,4.673A167.308,167.308,0,0,1,251.1,243.9a195.987,195.987,0,0,1-20.44,3.893,377.6,377.6,0,0,1-71.616,3.273,396.155,396.155,0,0,1-47.588-4.986c-11.078-1.869-17.163-3.271-17.319-2.8s5.773,2.647,16.695,5.3a296.581,296.581,0,0,0,47.9,6.853,356.953,356.953,0,0,0,72.709-2.18,204.48,204.48,0,0,0,20.907-3.9,141.75,141.75,0,0,0,21.533-6.542,72.943,72.943,0,0,0,10.609-4.984,49.069,49.069,0,0,0,9.985-7.477,21.14,21.14,0,0,0,3.9-5.607,12.546,12.546,0,0,0,1.248-7.166,14.378,14.378,0,0,0-2.341-6.853l-.935-1.4a8.661,8.661,0,0,0-1.092-1.4c-.781-.778-1.561-1.713-2.341-2.336-5.305-4.829-11.39-7.788-17.32-10.281a155.291,155.291,0,0,0-18.722-6.231,265.628,265.628,0,0,0-46.652-7.32,411.712,411.712,0,0,0-43.532-.78c-27.618,1.091-52.113,4.984-71.929,10.593a118.046,118.046,0,0,0-25.9,10.28,35.527,35.527,0,0,0-9.205,7.166c-2.5,2.649-4.213,6.075-4.213,9.191a12.509,12.509,0,0,0,2.809,7.633,22.811,22.811,0,0,0,4.057,3.893C65.113,231.6,66.674,232.222,66.83,231.909Z" transform="translate(35.3 115.285)" fill="#1b1b1b"/>
    <path id="Path_455" data-name="Path 455" d="M79.315,82.408c-.468,0-1.4,4.361-1.092,12.461a79.741,79.741,0,0,0,9.986,33.022,60.014,60.014,0,0,0,6.709,9.658,46.911,46.911,0,0,0,9.674,8.567,26.236,26.236,0,0,0,13.574,4.673,22.281,22.281,0,0,0,14.978-4.673,31.829,31.829,0,0,0,9.674-12.928,55.359,55.359,0,0,0,4.057-15.888,75.909,75.909,0,0,0-.156-16.823,95.342,95.342,0,0,0-3.9-16.979,86.176,86.176,0,0,0-5.772-12.773,82.586,82.586,0,0,0-8.114-11.683A44.206,44.206,0,0,0,114.89,47.984a30.844,30.844,0,0,0-17.475-2.8,33.235,33.235,0,0,0-15.447,6.854A38.3,38.3,0,0,0,71.826,64.339a44.549,44.549,0,0,0-4.681,14.175,68.285,68.285,0,0,0-.624,13.708,106.922,106.922,0,0,0,1.716,12.617c.468,2.025.936,3.894,1.4,5.763.624,1.869,1.092,3.738,1.716,5.452a60.639,60.639,0,0,0,9.83,17.29,53.575,53.575,0,0,0,11.078,10.125c6.865,4.517,11.546,5.3,11.546,4.829.156-.467-3.9-2.025-9.986-6.855a56.952,56.952,0,0,1-9.674-10.28A59.661,59.661,0,0,1,75.571,114.5c-.624-1.558-.936-3.427-1.56-5.14-.468-1.869-.78-3.583-1.092-5.608a94.556,94.556,0,0,1-1.4-11.838c-.312-8.256.78-17.134,5.149-25.079A35.269,35.269,0,0,1,85.556,56.4a27.161,27.161,0,0,1,12.794-5.608,24.506,24.506,0,0,1,14.043,2.337,37.489,37.489,0,0,1,12.17,9.658A61.067,61.067,0,0,1,131.9,73.374a81.225,81.225,0,0,1,5.461,11.838,79.538,79.538,0,0,1,3.744,15.733,74.486,74.486,0,0,1,.313,15.577,47.2,47.2,0,0,1-3.433,14.175,26.673,26.673,0,0,1-7.8,10.747,17.018,17.018,0,0,1-11.389,3.739,24.066,24.066,0,0,1-11.234-3.739,41.144,41.144,0,0,1-8.894-7.476,67.068,67.068,0,0,1-6.553-8.723,74.478,74.478,0,0,1-7.8-17.134,90.814,90.814,0,0,1-3.277-13.863C79.628,86.77,79.783,82.408,79.315,82.408Z" transform="translate(42.317 28.643)" fill="#1b1b1b"/>
    <path id="Path_456" data-name="Path 456" d="M185.546,255.321c2.183-.778-.313-2.336-.624-4.051-6.242-28.661-28.086-54.985-33.547-83.8a44.633,44.633,0,0,1-17.007,11.682c-10.453,3.738-22.155-1.246-22.155-1.246.468,14.486,9.518,27.259,15.29,40.5,4.213,9.657,7.646,26.792,8.581,37.383C135.929,255.788,158.552,265.289,185.546,255.321Z" transform="translate(71.518 106.828)" fill="#fff"/>
    <path id="Path_457" data-name="Path 457" d="M186.663,256.784c2.341-1.091,1.092-2.96.156-4.673a35.682,35.682,0,0,1-1.248-4.362c-.468-1.558-.78-3.115-1.248-4.517a126.069,126.069,0,0,0-7.178-17.913c-5.617-12.15-12.326-23.988-17.475-36.449a111.564,111.564,0,0,1-6.709-21.185,1.256,1.256,0,0,0-2.028-.467,39.1,39.1,0,0,1-16.227,11.215c-6.865,2.493-15.135,1.713-21.844-1.091a1.094,1.094,0,0,0-1.4,1.091c.468,11.526,5.929,21.808,10.922,31.776a110.712,110.712,0,0,1,6.553,14.643,121.17,121.17,0,0,1,3.744,14.8,147.981,147.981,0,0,1,2.5,16.666,1.029,1.029,0,0,0,.935,1.091,55.33,55.33,0,0,0,14.979,3.582,77.563,77.563,0,0,0,35.262-4.049c1.405-.467.78-2.8-.624-2.182a72.827,72.827,0,0,1-34.638,3.9,56.825,56.825,0,0,1-14.355-3.427c.313.311.624.778.937,1.089a154.641,154.641,0,0,0-5.461-29.128c-3.12-10.437-8.737-19.47-13.107-29.285-2.807-6.229-4.992-12.616-5.148-19.47-.468.311-.937.78-1.4,1.091,7.02,2.8,15.914,3.738,23.092,1.091a42.584,42.584,0,0,0,17.318-11.839c-.624-.156-1.248-.311-2.028-.467C155.769,192.918,170.9,213.792,179.8,237c1.248,3.271,2.341,6.542,3.278,9.97.468,1.556.78,3.271,1.248,4.829a4.651,4.651,0,0,0,.624,1.558c.156.311,1.092,1.245.624,1.4C184.009,255.382,185.257,257.406,186.663,256.784Z" transform="translate(71.026 106.456)" fill="#1b1b1b"/>
    <path id="Path_458" data-name="Path 458" d="M112.853,179.639c-.468-.156-.78-.624-.624-.935.624-1.713,3.432-6.231,15.446-9.5,15.135-4.206,22-3.893,24.34-1.4C154.2,170.137,135.165,186.648,112.853,179.639Z" transform="translate(71.503 105.873)" fill="#1b1b1b"/>
    <path id="Path_459" data-name="Path 459" d="M120.052,179.457s3.12,2.182,9.205-.311c5.929-2.491,7.957-6.386,7.957-6.386l-7.8-9.191L118.8,167.308l-.781,2.025Z" transform="translate(75.225 104.34)" fill="#fff"/>
    <path id="Path_460" data-name="Path 460" d="M123.585,148.655c.467-.622-1.874-2.96-6.242-6.853a57.324,57.324,0,0,1-7.178-6.853,25.125,25.125,0,0,1-3.276-4.673,9.158,9.158,0,0,0-.624-1.246v-.311c0-.156,0-.311.156-.311s.157,0,.313.156l.311.156.468.311c.313.156.78.467,1.093.622,1.559.935,3.276,2.026,4.992,3.271,3.433,2.337,7.333,4.517,11.235,6.7.624.311,1.248.778,1.872,1.089l1.715,1.246,1.405,1.4a10.943,10.943,0,0,1,1.248,1.558,17.233,17.233,0,0,1,2.183,4.517c.468,1.713.781,3.427,1.093,5.14a81.344,81.344,0,0,1,.468,10.593v4.984a13.428,13.428,0,0,0,.156,2.493,13.638,13.638,0,0,0,.313,2.491,44.671,44.671,0,0,0,2.183,8.724,39.033,39.033,0,0,0,5.929,11.059c1.717,2.336,3.12,3.271,3.589,2.958.313-.311-.311-1.713-1.4-4.36a77.911,77.911,0,0,1-3.9-11.059,38.653,38.653,0,0,1-1.248-7.944c0-.78-.156-1.4-.156-2.182V170c0-1.558.156-3.271.156-4.984a90.8,90.8,0,0,0-.156-11.215,47.4,47.4,0,0,0-1.093-6.231,20.665,20.665,0,0,0-2.965-6.231,26.681,26.681,0,0,0-1.715-2.182,24.359,24.359,0,0,1-2.029-2.025c-.78-.622-1.4-1.091-2.183-1.713q-1.172-.7-2.341-1.4c-4.057-2.18-7.646-4.206-11.079-6.386a59.023,59.023,0,0,0-5.3-3.115c-.468-.311-.937-.467-1.405-.778l-.78-.313-1.093-.467c-.467-.156-.935-.156-1.248-.311l-.624-.156H105.8a12.1,12.1,0,0,0-2.341.311,3.963,3.963,0,0,0-2.183,2.025,4.489,4.489,0,0,0-.468,2.8,10.823,10.823,0,0,0,.937,2.96,8.453,8.453,0,0,0,.935,1.713,25.575,25.575,0,0,0,4.368,5.3,36.894,36.894,0,0,0,8.581,6.542C120.308,147.566,123.117,149.123,123.585,148.655Z" transform="translate(64.203 78.131)" fill="#1b1b1b"/>
    <path id="Path_461" data-name="Path 461" d="M109.233,155.259c-1.715,1.247,2.029,7.477,7.49,15.109a144828.424,144828.424,0,0,0,1.559,2.182c.781.934,1.405,1.869,2.029,2.647a7.746,7.746,0,0,0,1.091,1.247s.157,0,.157.467c.311.624.467,1.4.78,2.182.156.778.468,1.558.624,2.18.78,2.8,1.4,4.517,2.5,4.517.937,0,1.717-1.869,1.872-4.984a14.941,14.941,0,0,0,0-2.649,13.679,13.679,0,0,0-.468-3.271,7.476,7.476,0,0,0-1.091-2.336,8.566,8.566,0,0,0-.937-1.247l-1.872-2.8a4.663,4.663,0,0,1-.78-1.091c-.313-.311-.468-.778-.781-1.089C115.786,159.153,110.793,154.169,109.233,155.259Z" transform="translate(69.349 98.943)" fill="#1b1b1b"/>
    <path id="Path_462" data-name="Path 462" d="M101.364,145.178c-.467-.311-.935-.156-1.716.624A5.72,5.72,0,0,0,98.4,149.7a9.058,9.058,0,0,0,2.028,5.451,24.764,24.764,0,0,0,4.524,4.518q.7.469,1.405.935l.467.156.624.156c.313.156.781.311,1.093.467a8.621,8.621,0,0,0,2.809.313,5.231,5.231,0,0,0,2.341-.78,4.374,4.374,0,0,0,2.183-3.738,13.843,13.843,0,0,0-.467-2.182c-.313-.778-.624-1.4-.937-2.024a4.308,4.308,0,0,0-.935-1.246c-.313-.311-.468-.622-.781-.934-2.183-2.182-4.213-2.493-4.68-1.713s.311,2.18,1.248,4.2c.156.311.156.468.311.78s.313.622.156.778c0,.311,0,.311-.156.311-.156.157-.468,0-.311-.156h-.157a6.362,6.362,0,0,1-.624-.467,21.5,21.5,0,0,1-3.9-3.271,9.18,9.18,0,0,1-2.028-2.649,12.992,12.992,0,0,1-.626-2.336C101.988,145.958,101.833,145.334,101.364,145.178Z" transform="translate(62.707 92.512)" fill="#1b1b1b"/>
    <path id="Path_463" data-name="Path 463" d="M114.136,148.1c.78-.624-.468-3.271-3.432-7.322-.781-.935-1.561-2.025-2.653-3.115a17.836,17.836,0,0,0-1.717-1.713,6.789,6.789,0,0,0-1.091-.935c-.468-.467-1.25-.622-1.874-1.089a4.819,4.819,0,0,0-4.368.467,5.987,5.987,0,0,0-1.716,1.713,6.726,6.726,0,0,0-.624,1.091c-.156.467-.312.622-.312.934a22.793,22.793,0,0,0-.78,3.115c0,.468-.156.935-.156,1.558,0,.468-.156,1.091-.156,1.558a7.567,7.567,0,0,0,.156,1.869c.156.313.156.624.312.935l.312.778a11.477,11.477,0,0,0,1.872,2.493l1.872,1.869c1.4,1.246,2.809,2.337,4.056,3.427.313.313.624.468.937.78l.468.467c.156.156.467.311.624.467a7.877,7.877,0,0,0,2.5,1.4,14.143,14.143,0,0,0,5.148,1.558,4.25,4.25,0,0,0,1.4,0c.468,0,.937-.156,1.561-.156a7.057,7.057,0,0,0,2.965-1.713,9.316,9.316,0,0,0,.935-1.713,1.958,1.958,0,0,0,.157-.935v-.934a3.143,3.143,0,0,0-.468-1.713,2.517,2.517,0,0,0-.624-1.091,11.12,11.12,0,0,0-2.341-2.8c-1.4-1.245-2.5-1.713-2.965-1.245-.311.311,0,1.4.624,2.958.313.78.78,1.715,1.093,2.649,0,.311.156.467.156.78v.311c0,.156-.156.467-.311.467s-.313.156-.468,0h-.468a.94.94,0,0,1-.624-.156,18.732,18.732,0,0,1-3.276-1.4,13.346,13.346,0,0,1-1.561-1.091c-.156-.156-.311-.156-.311-.311l-.468-.311c-.313-.311-.624-.622-.937-.935-1.248-1.089-2.652-2.18-3.744-3.271a14.543,14.543,0,0,1-1.56-1.558,8.5,8.5,0,0,1-1.092-1.4,20.84,20.84,0,0,1,.78-4.829.543.543,0,0,1,.156-.311v-.156a.153.153,0,0,1,.156-.156h.156c.312.156.468.311.78.467a11.065,11.065,0,0,1,1.561,1.246c1.093.78,2.028,1.713,2.965,2.493C111.171,146.852,113.512,148.566,114.136,148.1Z" transform="translate(60.701 85.231)" fill="#1b1b1b"/>
    <path id="Path_464" data-name="Path 464" d="M116.9,141.821c.78-.622-.468-3.271-3.433-7.322-.78-.934-1.561-2.024-2.652-3.115a18.022,18.022,0,0,0-1.717-1.713,6.8,6.8,0,0,0-1.093-.934c-.468-.468-1.248-.624-1.872-1.091a4.83,4.83,0,0,0-4.368.467,6,6,0,0,0-1.717,1.713,6.857,6.857,0,0,0-.624,1.091c-.156.467-.312.622-.312.935a22.694,22.694,0,0,0-.78,3.115c0,.467-.156.934-.156,1.558,0,.467-.156,1.089-.156,1.558a7.572,7.572,0,0,0,.156,1.869c.156.311.156.622.312.934l.312.78a11.462,11.462,0,0,0,1.872,2.491l1.872,1.871c1.561,1.4,3.276,2.647,4.681,3.893a6.7,6.7,0,0,1,1.091.935l1.405.934a23.352,23.352,0,0,0,2.807,1.4,11.436,11.436,0,0,0,6.085.935c2.809-.311,4.837-2.649,4.681-4.829a5.528,5.528,0,0,0-.311-1.558,10.924,10.924,0,0,0-.468-1.246,3.983,3.983,0,0,0-1.093-1.558,12.231,12.231,0,0,0-2.028-2.025c-1.248-1.246-2.185-1.558-2.5-1.091-.313.311-.157,1.091.467,2.493.313.622.624,1.4.937,2.18s.624,1.869.468,2.025a1.067,1.067,0,0,1-.781.467,7.692,7.692,0,0,1-3.432-1.089c-.624-.311-1.248-.78-1.872-1.091-.313-.156-.624-.467-.937-.622l-.935-.935c-1.405-1.246-2.965-2.491-4.37-3.738a14.879,14.879,0,0,1-1.559-1.558,8.66,8.66,0,0,1-1.093-1.4,20.886,20.886,0,0,1,.78-4.829.542.542,0,0,1,.157-.311v-.156a.153.153,0,0,1,.156-.157h.156c.313.157.468.313.78.468a10.835,10.835,0,0,1,1.561,1.246c1.093.778,2.028,1.713,2.965,2.491C113.935,140.419,116.275,142.288,116.9,141.821Z" transform="translate(62.464 81.227)" fill="#1b1b1b"/>
    <path id="Path_465" data-name="Path 465" d="M97.543,108.347l11.7,29.752,10.141,4.829-8.581-38.32S107.061,108.659,97.543,108.347Z" transform="translate(62.16 66.725)" fill="#1b1b1b"/>
    <path id="Path_466" data-name="Path 466" d="M108.022,133.423l13.261,34.425,1.405.622-5.15-27.881Z" transform="translate(68.845 85.108)" fill="#1b1b1b"/>
    <path id="Path_467" data-name="Path 467" d="M214.824,142.817l36.043-4.829s5.617,33.8,2.963,45.484c-23.559,4.362-41.5,6.7-41.5,6.7s11.078-13.4,4.213-42.058" transform="translate(135.387 88.02)" fill="#e2e2e2"/>
    <path id="Path_468" data-name="Path 468" d="M217.851,148.78c-.156,0-.156,1.091.156,3.115q.236,1.4.468,3.739a41.57,41.57,0,0,1,.468,4.984,57.16,57.16,0,0,1-.468,13.4,52.84,52.84,0,0,1-1.872,7.944,43.273,43.273,0,0,1-1.559,4.051q-.236.467-.468.935l-.313.467v.156c0,.156-.156.156-.156.311l-.468.467-.624.935c-.156.311-.468.622-.78,1.091-.624.778-1.092,1.4-1.717,2.18.937-.156,2.341-.311,3.433-.467s2.183-.311,3.432-.468a33.894,33.894,0,0,0,3.9-.622c2.652-.467,5.461-.778,8.268-1.246,5.618-.934,11.548-1.869,17.633-2.96,2.183-.467,4.368-.778,6.4-1.089.313,0,1.717-.311,2.652-.468l.468-2.647c.156-1.091.156-2.182.313-3.427a135.14,135.14,0,0,0-.468-16.045c-.468-5.14-1.093-9.969-1.717-14.642-.311-2.336-.624-4.518-.935-6.7-.157-1.4-.468-2.8-.624-4.206V137.1a.153.153,0,0,0-.157-.156l-.78.156-1.4.156c-.624.156-1.248.156-1.717.311-4.057.624-7.8,1.091-11.235,1.713-13.729,2.026-22,3.584-22,4.051s8.426-.311,22.157-1.869q5.147-.7,11.233-1.4c.468,0,.937-.156,1.4-.156h.157v.622c0,.467.156,1.091.156,1.558.311,2.182.624,4.362.937,6.7.624,4.517,1.091,9.5,1.559,14.488a127.942,127.942,0,0,1,.468,15.575c-.156,1.091-.156,2.182-.313,3.115-.156.78,0,.468-.156.468,0,0,.156,0-.468.156-2.183.311-4.213.778-6.4,1.089-6.085,1.091-12.014,2.026-17.631,2.96-4.526.78-8.894,1.4-12.951,2.026a.548.548,0,0,0,.157-.313l.311-.778c.156-.311.313-.78.468-1.091.624-1.4,1.248-2.96,1.717-4.362A44.869,44.869,0,0,0,220.5,173.7a50.649,50.649,0,0,0-.157-13.864c-.156-1.869-.624-3.582-.78-4.984-.311-1.4-.624-2.647-.937-3.582C218.32,149.715,218.007,148.78,217.851,148.78Z" transform="translate(134.233 87.353)" fill="#1b1b1b"/>
    <path id="Path_469" data-name="Path 469" d="M144.852,145.112s9.985-24.455,46.339-27.57l24.964,28.35S171.533,161,176.057,177.2c-30.893-17.757-31.362-26.635-31.362-26.635" transform="translate(92.241 74.977)" fill="#e2e2e2"/>
    <path id="Path_470" data-name="Path 470" d="M144.821,151.075c-.157,0-.157,1.247.78,2.96a28,28,0,0,0,5.305,6.855,78.586,78.586,0,0,0,10.3,8.566c2.183,1.558,4.368,3.115,6.865,4.673l3.744,2.337c.781.467,4.057,2.491,6.4,3.738-.156-.78-.313-1.713-.468-2.493s-.156-1.558-.313-2.336v-.935l.157-.467a2.893,2.893,0,0,1,.311-1.091,14.207,14.207,0,0,1,2.341-4.2,31.687,31.687,0,0,1,7.957-7.01,112.959,112.959,0,0,1,21.22-10.9c1.093-.467,2.341-.934,3.433-1.4l1.717-.622,2.965-1.091,1.559-.622-5.772-6.542c-4.057-4.673-8.114-9.191-12.014-13.552-1.872-2.18-3.744-4.2-5.617-6.386-.937-1.091-1.874-2.18-2.809-3.115l-.624-.778-.156-.156h-.624l-1.405.156c-.624.156-1.4.156-2.028.311a82.557,82.557,0,0,0-14.822,3.427l-3.278,1.4c-.468.156-1.092.467-1.559.622a14.256,14.256,0,0,1-1.561.78,25.024,25.024,0,0,0-2.809,1.558c-.935.622-1.715,1.091-2.652,1.713-.468.311-.78.467-1.248.778a6.892,6.892,0,0,0-1.093.935,26.726,26.726,0,0,0-2.183,1.713c-1.25,1.246-2.654,2.337-3.746,3.427a51.2,51.2,0,0,0-5.148,6.231c-2.341,3.739-3.12,6.075-2.965,6.231s1.248-2.025,3.9-5.451a42.648,42.648,0,0,1,5.305-5.764,39.709,39.709,0,0,1,3.744-3.115c.781-.467,1.405-1.091,2.185-1.558.311-.311.78-.467,1.092-.778.468-.313.78-.468,1.248-.78a21.646,21.646,0,0,0,2.5-1.558l2.809-1.4c.467-.156.935-.467,1.4-.622a16.642,16.642,0,0,1,1.559-.624c1.093-.467,2.029-.778,3.122-1.245a64.748,64.748,0,0,1,14.353-3.115,7.772,7.772,0,0,0,1.872-.313h.624c.937.935,1.717,2.026,2.653,2.96,1.872,2.026,3.744,4.206,5.617,6.386,3.744,4.362,7.8,8.879,11.859,13.552L213,144.846l.624.778-.468.156-1.715.624c-1.093.467-2.341.934-3.433,1.4a109.629,109.629,0,0,0-21.688,11.372c-3.12,2.336-6.241,4.673-8.426,7.787a15.364,15.364,0,0,0-2.652,4.986,4.546,4.546,0,0,0-.313,1.4l-.156.778v.935c.624.467-3.276-1.871-5.461-3.271-2.5-1.4-4.681-2.96-6.865-4.362a96.148,96.148,0,0,1-10.3-7.944,43.5,43.5,0,0,1-5.617-6.075C145.29,152.01,144.977,151.075,144.821,151.075Z" transform="translate(92.271 74.309)"/>
    <path id="Path_471" data-name="Path 471" d="M184.227,75.508s29.177,12.773,48.524-9.034c5.774,16.355,20.751,20.561,29.332,22.275-28.553,23.832-40.566,33.023-40.566,33.023S201.7,112.269,187.5,83.92" transform="translate(117.46 42.397)" fill="#e2e2e2"/>
    <path id="Path_472" data-name="Path 472" d="M187.168,84.951c-.156.156.624,2.337,2.809,6.386a85.79,85.79,0,0,0,10.766,15.733,78.109,78.109,0,0,0,9.517,9.5c1.872,1.558,3.9,3.115,5.929,4.673,1.092.779,2.185,1.4,3.433,2.18l1.559.78c.313.311.468-.156.781-.313l.78-.622c.624-.467,1.093-.934,1.717-1.4,8.426-6.854,17.787-14.33,27.616-22.275,2.029-1.558,3.9-3.271,5.929-4.829,1.093-.935,2.185-1.869,3.433-2.8.935-.779,2.028-1.558,2.965-2.337l.78-.623.156-.156h0l-.468-.156L263,88.222l-2.341-.467-1.715-.467a8.944,8.944,0,0,1-2.185-.623c-1.4-.467-2.965-.935-4.213-1.4a33.034,33.034,0,0,1-7.646-4.206,23.192,23.192,0,0,1-5.928-5.763c-.937-1.09-1.561-2.181-2.341-3.271a16.991,16.991,0,0,0-.937-1.713q-.233-.467-.469-.935l-.467-1.246-.781-1.713-.311-.935-.156-.467-.157-.156a.152.152,0,0,0-.156.156l-2.652,2.648-1.405,1.4a10,10,0,0,1-1.4,1.246,34.248,34.248,0,0,1-2.807,2.181c-.937.623-2.029,1.246-2.965,1.869a35.028,35.028,0,0,1-12.17,4.05,50.532,50.532,0,0,1-10.611.467,37.54,37.54,0,0,1-4.368-.467,34.881,34.881,0,0,0-3.589-.623c-4.368-.935-6.709-1.713-6.709-1.4-.156.156,2.028,1.4,6.4,2.648,1.093.312,2.341.623,3.589.935a35.315,35.315,0,0,0,4.526.623,43.818,43.818,0,0,0,11.077,0,36.527,36.527,0,0,0,12.95-4.05l3.278-1.869c1.092-.779,2.028-1.558,3.12-2.337a6.118,6.118,0,0,0,1.561-1.246,9.992,9.992,0,0,1,1.4-1.246l.156-.156a.153.153,0,0,0,.156.156l.313.623q.233.467.468.935.467.935.935,1.869a29.362,29.362,0,0,0,2.5,3.583,36.386,36.386,0,0,0,6.553,6.386,42.257,42.257,0,0,0,12.794,6.075,13.018,13.018,0,0,0,2.341.623l.624.156-2.5,2.025c-2.028,1.558-3.9,3.115-5.929,4.829-9.829,8.1-19.035,15.577-27.46,22.43-.468.467-.937.779-1.4,1.246-.157.156,0,.156-.313,0a37.321,37.321,0,0,1-3.276-2.025,55.805,55.805,0,0,1-5.774-4.361,106.715,106.715,0,0,1-9.517-9.034,126.729,126.729,0,0,1-11.39-14.954C188.573,86.976,187.325,84.8,187.168,84.951Z" transform="translate(117.64 41.366)" fill="#1b1b1b"/>
    <path id="Path_473" data-name="Path 473" d="M57.122,143.746l28.241-7.009s-22,41.745-28.241,23.053-5.929-25.7-5.929-25.7L.953,135.335s1.4,38.007,26.681,35.514,29.645-5.14,29.645-5.14" transform="translate(0.539 85.533)" fill="#e2e2e2"/>
    <path id="Path_474" data-name="Path 474" d="M57.757,166.5c-.156-.156-2.808.778-7.957,1.558s-12.794,1.713-22.156,2.491a18.235,18.235,0,0,1-13.574-4.516c-3.9-3.584-6.709-9.035-8.425-14.954a58.331,58.331,0,0,1-2.028-9.346c-.156-.778-.156-1.713-.312-2.491a13.481,13.481,0,0,1-.156-1.715H6.112c7.021-.156,14.355-.311,21.844-.622,2.965-.156,6.085-.156,9.05-.311s5.929-.156,9.05-.311a20.968,20.968,0,0,0,3.121-.156h1.56l.156,1.4a17.356,17.356,0,0,1,.312,2.649,49.76,49.76,0,0,0,1.092,5.14c.78,3.428,1.716,6.7,2.653,9.97.468,1.558.936,3.115,1.56,4.673a11.959,11.959,0,0,0,2.5,4.829,5.259,5.259,0,0,0,2.652,1.713,5.322,5.322,0,0,0,1.56.156c.468-.156.936-.156,1.4-.311a12.883,12.883,0,0,0,4.369-2.493,41.889,41.889,0,0,0,6.241-6.7c1.716-2.337,3.433-4.518,4.837-6.853,1.4-2.182,2.808-4.517,4.057-6.544.624-1.245,1.248-2.336,1.872-3.427.468-.934.936-1.713,1.4-2.647l.624-1.246.312-.624c-.156,0-.468.157-.624.157-.936.156-1.872.467-2.653.622s-1.716.467-2.5.622c-1.092.311-2.028.468-2.965.78-1.872.467-3.745,1.089-5.461,1.4-3.433.934-6.241,1.713-8.738,2.491-4.681,1.4-7.333,2.182-7.177,2.493,0,.156,2.652-.311,7.489-1.246,2.5-.467,5.3-1.246,8.894-2.025,1.716-.468,3.589-.78,5.461-1.246a20.625,20.625,0,0,0,2.964-.78,2.9,2.9,0,0,0,1.092-.311h.156v.156l-.156.313-.312.467a27.253,27.253,0,0,1-1.716,2.8c-1.248,2.025-2.653,4.2-4.057,6.386s-3.12,4.36-4.837,6.542a31.23,31.23,0,0,1-5.929,6.075,9.941,9.941,0,0,1-3.433,2.025,2.679,2.679,0,0,1-2.965-.78,6.413,6.413,0,0,1-1.092-1.713,16.824,16.824,0,0,1-.78-2.18l-1.4-4.673c-.936-3.115-1.872-6.386-2.652-9.657-.312-1.713-.78-3.271-.936-4.984a13.627,13.627,0,0,1-.312-2.493c0-.467-.156-.778-.156-1.4v-2.8c-2.5,0-4.993.156-7.645.156-2.965.156-6.085.156-9.05.311s-5.929.156-9.05.311c-7.489.156-14.822.467-21.844.622a15.021,15.021,0,0,0-2.652.157H.027c-.156,0,0,.156,0,.311v1.246a32.682,32.682,0,0,0,.312,3.271c.156.934.156,1.713.312,2.491a64.31,64.31,0,0,0,2.184,9.813c1.872,6.231,4.837,11.995,9.362,16.044a18.909,18.909,0,0,0,7.489,4.206,19.184,19.184,0,0,0,7.8.624A171.586,171.586,0,0,0,49.8,168.99C55.261,168.212,57.913,166.809,57.757,166.5Z" transform="translate(-0.096 84.744)"/>
    <path id="Path_475" data-name="Path 475" d="M232.249,145.77c0-.624-2.807-.935-6.4-.935h-.937c-3.589,0-6.4.311-6.4.935s2.807.778,6.4.934h.937C229.442,146.548,232.249,146.237,232.249,145.77Z" transform="translate(139.338 92.388)" fill="#1b1b1b"/>
    <path id="Path_476" data-name="Path 476" d="M239.676,149.123c-.156-.622-3.9,0-8.892.311h-1.561c-4.992.313-8.737.157-8.892.78,0,.467,3.9,1.246,8.892,1.091h1.561C236.089,150.836,239.833,149.591,239.676,149.123Z" transform="translate(140.492 94.954)" fill="#1b1b1b"/>
    <path id="Path_477" data-name="Path 477" d="M177.877,128.3c.467-.467-.624-1.869-2.185-3.427-.156,0-.156-.156-.313-.156l-.156-.156c-1.559-1.558-2.965-2.493-3.432-2.025s.624,1.713,2.183,3.427c.156,0,.156.156.313.156l.156.156C176,127.674,177.564,128.765,177.877,128.3Z" transform="translate(109.457 78.084)"/>
    <path id="Path_478" data-name="Path 478" d="M181.267,138.195c.468-.467-1.872-3.427-5.15-7.322a2.148,2.148,0,0,1-.467-.622,2.12,2.12,0,0,1-.468-.622c-3.278-3.739-6.085-6.542-6.553-6.075-.468.311,1.872,3.427,5.15,7.32a2.182,2.182,0,0,1,.467.624,2.12,2.12,0,0,1,.468.622C177.989,135.859,180.8,138.506,181.267,138.195Z" transform="translate(107.471 78.779)"/>
    <path id="Path_479" data-name="Path 479" d="M154.427,139.588c1.561-1.246,1.405-2.8.468-4.2l-.156-.157-.156-.156c-1.093-1.245-2.654-1.869-4.213-.622a2.97,2.97,0,0,0-.468,4.206l.156.156.156.156C151.463,140.213,153.024,140.679,154.427,139.588Z" transform="translate(95.147 85.329)"/>
    <path id="Path_480" data-name="Path 480" d="M24.343,140.605c-.156-.622-3.745-.311-8.581-.156H14.2c-4.837.313-8.581.313-8.581.935s3.745.935,8.581.778h1.56C20.755,141.852,24.343,141.073,24.343,140.605Z" transform="translate(3.517 89.452)"/>
    <path id="Path_481" data-name="Path 481" d="M34.24,144.155c-.156-.622-5.3.311-12.17.78H19.886c-6.865.467-12.17.156-12.17.778,0,.467,5.3,1.4,12.326,1.091h2.184C29.091,146.179,34.4,144.622,34.24,144.155Z" transform="translate(4.854 91.822)"/>
    <path id="Path_482" data-name="Path 482" d="M40.008,143.135c0,2.025.624,2.8,1.56,2.96h.312c.936-.156,1.56-.935,1.56-2.96,0-1.869-.624-2.8-1.56-2.96h-.312C40.788,140.331,40.008,141.266,40.008,143.135Z" transform="translate(25.455 89.415)"/>
    <path id="Path_483" data-name="Path 483" d="M228.943,82.789c0-.623-3.9-.935-8.426-3.271-.156-.156-.468-.156-.624-.312l-.624-.312c-4.368-2.336-7.022-5.452-7.49-4.984-.467.312,1.874,3.894,6.553,6.542.313.156.468.312.781.312.311.156.467.312.78.312C224.73,83.412,229.1,83.256,228.943,82.789Z" transform="translate(135 47.111)" fill="#1b1b1b"/>
    <path id="Path_484" data-name="Path 484" d="M220.786,86.11c.156-.623-2.965-1.713-6.085-4.362l-.468-.467-.468-.467c-3.12-2.8-4.837-5.608-5.305-5.3-.467.156.781,3.583,4.213,6.7l.468.467.468.467C217.2,85.954,220.786,86.733,220.786,86.11Z" transform="translate(132.859 48.152)" fill="#1b1b1b"/>
    <path id="Path_485" data-name="Path 485" d="M169.617,47.214c.468,0,.937-.467,1.248-1.09a6.818,6.818,0,0,1,1.405-1.713,1.455,1.455,0,0,1,1.559-.156l.624.623a3.517,3.517,0,0,1,.781,1.713,1.7,1.7,0,0,1,.156.779c0,.312.156.467.156.935v.467h-.311a1.985,1.985,0,0,1-.937-.156,4.548,4.548,0,0,1-1.4-.312,6.743,6.743,0,0,1-1.872-.779,10.01,10.01,0,0,0-1.405-.312q-.7,0-.935,1.4a4.745,4.745,0,0,0,1.872,3.738,6.5,6.5,0,0,0,2.5,1.4c.468.156.78.312,1.248.467l.313.156.624.156c.311,0,.78.156,1.248.156a4.957,4.957,0,0,0,4.368-1.869,5.931,5.931,0,0,0,.935-2.492V47.837a5.54,5.54,0,0,0-.311-1.558c-.156-.467-.313-.935-.468-1.558a9.537,9.537,0,0,0-2.028-3.427,6.154,6.154,0,0,0-3.9-2.181,6.039,6.039,0,0,0-6.241,3.115,6.592,6.592,0,0,0-.468,4.05C168.681,47.058,169.305,47.369,169.617,47.214Z" transform="translate(107.262 24.896)" fill="#a8a8a8"/>
    <path id="Path_486" data-name="Path 486" d="M183,0c-2.029,0-2.809,3.583-2.965,8.256V9.5c.156,4.673.935,8.256,2.965,8.256,1.872,0,2.807-3.583,2.965-8.256V8.256C185.808,3.583,184.873,0,183,0Z" transform="translate(114.786 -0.01)" fill="#a8a8a8"/>
    <path id="Path_487" data-name="Path 487" d="M137.043,114.537c-1.872.78-2.341,2.026-2.029,3.271v.313c.624,1.245,1.717,1.869,3.589,1.089a2.773,2.773,0,0,0,2.029-3.271.153.153,0,0,0-.157-.156v-.156C140.008,114.381,138.758,113.759,137.043,114.537Z" transform="translate(86.008 72.84)" fill="#a8a8a8"/>
    <path id="Path_488" data-name="Path 488" d="M86.017,152.455c0,2.025.936,2.8,2.184,2.96h.312c1.248-.156,2.184-.935,2.184-2.96,0-1.869-.936-2.8-2.184-2.96H88.2C86.953,149.651,86.017,150.586,86.017,152.455Z" transform="translate(54.807 95.361)" fill="#a8a8a8"/>
    <path id="Path_489" data-name="Path 489" d="M27.712,77.689a2.322,2.322,0,0,0,0,2.8,9.7,9.7,0,0,0,3.745,3.115l.468.156.468.156a11.438,11.438,0,0,0,4.837.623c1.248-.312,2.028-.935,2.184-2.025.156-1.869-2.184-2.959-4.837-4.206l-.468-.156C31.3,77.221,28.96,76.287,27.712,77.689Z" transform="translate(17.312 49.096)" fill="#1f4790"/>
    <path id="Path_490" data-name="Path 490" d="M43.449,29.861c-2.028,0-2.808,1.713-2.964,3.894v.623c.156,2.181.936,3.894,2.964,3.894,1.872,0,2.809-1.713,2.965-3.894v-.623C46.257,31.418,45.321,29.861,43.449,29.861Z" transform="translate(25.759 19.04)" fill="#a8a8a8"/>
    <path id="Path_491" data-name="Path 491" d="M225.39,20.731c-2.028,0-2.807,1.558-2.965,3.427v.623c.157,1.869.937,3.427,2.965,3.427,1.872,0,2.809-1.558,2.965-3.427v-.623C228.2,22.289,227.262,20.731,225.39,20.731Z" transform="translate(141.829 13.216)" fill="#1f4790"/>
    <path id="Path_492" data-name="Path 492" d="M113.939,16.167c-2.028,0-2.807.156-2.965.467.157.312.937.467,2.965.467,1.872,0,2.809-.156,2.965-.467C116.748,16.322,115.811,16.167,113.939,16.167Z" transform="translate(70.728 10.304)" fill="#a8a8a8"/>
    <path id="Path_493" data-name="Path 493" d="M222.056,118.747c.78,1.869,2.028,2.337,3.276,1.869a.153.153,0,0,0,.157-.156h.156c1.093-.622,1.717-1.713,1.093-3.582a2.669,2.669,0,0,0-3.278-1.869.152.152,0,0,0-.156.156h-.156C221.9,115.787,221.432,117.034,222.056,118.747Z" transform="translate(141.418 73.303)" fill="#a8a8a8"/>
    <path id="Path_494" data-name="Path 494" d="M186.182,168.667c.624,1.871,2.965,2.026,5.774,1.091.156,0,.311-.156.468-.156s.311-.156.467-.156c2.654-1.091,4.37-2.649,3.746-4.517-.624-1.713-2.965-1.869-5.774-1.091-.156,0-.311.156-.468.156s-.311.157-.467.157C187.274,165.241,185.558,166.8,186.182,168.667Z" transform="translate(118.625 104.226)" fill="#a8a8a8"/>
    <path id="Path_495" data-name="Path 495" d="M105.926,24.737c0,2.025,1.559,2.8,3.433,2.959h.624c1.872-.156,3.432-.935,3.432-2.959,0-1.869-1.559-2.8-3.432-2.96h-.624C107.485,21.933,105.926,22.868,105.926,24.737Z" transform="translate(67.508 13.883)" fill="#1f4790"/>
    <path id="Path_496" data-name="Path 496" d="M68.978,141.756c2.028,0,2.808-1.558,2.964-3.427v-.624c-.156-1.869-.936-3.427-2.964-3.427-1.872,0-2.809,1.558-2.965,3.427v.624C66.169,140.2,67.105,141.756,68.978,141.756Z" transform="translate(42.045 85.654)" fill="#1f4790"/>
    <path id="Path_497" data-name="Path 497" d="M35.436,183.647c0,2.024,3.589,2.8,8.113,2.96H44.8c4.681-.156,8.113-.935,8.113-2.96,0-1.869-3.589-2.8-8.113-2.96H43.549C39.024,180.843,35.436,181.778,35.436,183.647Z" transform="translate(22.538 115.26)" fill="#1f4790"/>
  </g>
</svg>
