<svg xmlns="http://www.w3.org/2000/svg" xmlns:xlink="http://www.w3.org/1999/xlink" width="101.141" height="55" viewBox="0 0 101.141 55">
  <defs>
    <clipPath id="clip-path">
      <rect id="Rectangle_66" data-name="Rectangle 66" width="101.141" height="55" transform="translate(-0.2)" fill="#fff"/>
    </clipPath>
    <clipPath id="clip-path-2">
      <rect id="Rectangle_56" data-name="Rectangle 56" width="100.941" height="55" fill="#fff"/>
    </clipPath>
  </defs>
  <g id="Mask_Group_10" data-name="Mask Group 10" transform="translate(0.2)" clip-path="url(#clip-path)">
    <g id="Mask_Group_4" data-name="Mask Group 4" clip-path="url(#clip-path-2)">
      <g id="Group_164" data-name="Group 164" transform="translate(0 0)">
        <path id="Path_353" data-name="Path 353" d="M100.432,88.111V88.1h3.941v.012l6.842,10.336H107.3C105.011,94.986,102.716,91.563,100.432,88.111ZM79.689,50.427,93.606,71.453v5.911L79.689,56.337Zm0-6.98L93.606,64.474v5.911L79.689,49.358Zm25.336,44.664V88.1h3.941v.012l6.842,10.336H111.9C109.607,94.988,107.309,91.561,105.025,88.111Z" transform="translate(-38.891 -43.447)" fill="#cc2229" fill-rule="evenodd"/>
        <path id="Path_354" data-name="Path 354" d="M8.5,105.582h7.984V98.115H19.7v-.006c.253.029.72,0,.981,0a6.654,6.654,0,0,0,.581-13.284H8.5V81.568H21.125a7.946,7.946,0,0,1,.945.049,9.864,9.864,0,0,1,6.569,3.937A13.8,13.8,0,0,1,49.3,86.1V67.8L63.219,88.829v9.162l11.218-16.95,16.235,24.53h8.841l-6.3-9.513h3.912l0,0h3.011v-.011c.07,0,.141,0,.213,0a5.636,5.636,0,0,0,5.681-5.615,5.726,5.726,0,0,0-5.883-5.614L87.691,84.82V81.567h12.478a8.865,8.865,0,0,1,.685,17.714v.027c-.5.045-1.048,0-1.572,0l6.312,9.536H88.928L74.439,86.952,66.8,98.5h2.593v.012l6.843,10.336H52.192v-3.262H70.162l-2.531-3.824H59.958V89.992L52.565,78.643V95.1h0A13.835,13.835,0,0,1,25.81,99.96a9.889,9.889,0,0,1-5.138,1.432c-.243,0-.661-.009-.922-.026v7.477H8.5v-3.26Zm40.8-10.6a10.569,10.569,0,0,0-19.076-6.251,9.87,9.87,0,0,1-1.748,8.878A10.574,10.574,0,0,0,49.3,94.979Z" transform="translate(-8.504 -53.844)" fill-rule="evenodd"/>
      </g>
    </g>
  </g>
</svg>
