<svg id="Group_31" data-name="Group 31" xmlns="http://www.w3.org/2000/svg" xmlns:xlink="http://www.w3.org/1999/xlink" width="329.999" height="262.15" viewBox="0 0 329.999 262.15">
  <defs>
    <clipPath id="clip-path">
      <rect id="Rectangle_16" data-name="Rectangle 16" width="329.999" height="262.15" fill="none"/>
    </clipPath>
  </defs>
  <g id="Group_26" data-name="Group 26">
    <g id="Group_25" data-name="Group 25" clip-path="url(#clip-path)">
      <line id="Line_17" data-name="Line 17" x2="327.631" transform="translate(2.368 238.223)" fill="none" stroke="#fff" stroke-width="1"/>
    </g>
  </g>
  <line id="Line_18" data-name="Line 18" x2="320.767" transform="translate(3.302 69.236)" fill="none" stroke="#fff" stroke-width="1"/>
  <g id="Group_28" data-name="Group 28">
    <g id="Group_27" data-name="Group 27" clip-path="url(#clip-path)">
      <line id="Line_19" data-name="Line 19" x2="323.904" transform="translate(0 143.73)" fill="none" stroke="#fff" stroke-width="1"/>
    </g>
  </g>
  <line id="Line_20" data-name="Line 20" y2="216.722" transform="translate(289.242 38.646)" fill="none" stroke="#fff" stroke-width="1"/>
  <g id="Group_30" data-name="Group 30">
    <g id="Group_29" data-name="Group 29" clip-path="url(#clip-path)">
      <line id="Line_21" data-name="Line 21" y2="214.613" transform="translate(39.688 47.537)" fill="none" stroke="#fff" stroke-width="1"/>
      <line id="Line_22" data-name="Line 22" y2="214.613" transform="translate(191.873)" fill="none" stroke="#fff" stroke-width="1"/>
      <path id="Path_105" data-name="Path 105" d="M263.5,49.629h7a1,1,0,0,1,1,1v6a1,1,0,0,1-1,1h-7a1,1,0,0,1-1-1v-6a1,1,0,0,1,1-1" fill="#adadad"/>
      <path id="Path_106" data-name="Path 106" d="M45.5,72.629h7a1,1,0,0,1,1,1v6a1,1,0,0,1-1,1h-7a1,1,0,0,1-1-1v-6a1,1,0,0,1,1-1" fill="#adadad"/>
      <path id="Path_107" data-name="Path 107" d="M206.5,233.629h7a1,1,0,0,1,1,1v6a1,1,0,0,1-1,1h-7a1,1,0,0,1-1-1v-6a1,1,0,0,1,1-1" fill="#adadad"/>
      <path id="Path_108" data-name="Path 108" d="M99.945,164.987h-.05a4.635,4.635,0,0,0-.04,9.27h.05a4.635,4.635,0,0,0,.04-9.27m.01,7.98a3.38,3.38,0,0,1-2.4-5.75,3.411,3.411,0,0,1,2.39-1h.01a3.4,3.4,0,0,1,3.37,3.37,3.387,3.387,0,0,1-3.37,3.38m-.01,6.6h-.05a4.635,4.635,0,0,0-.04,9.27,4.635,4.635,0,0,0,.09-9.27m0,7.99a3.361,3.361,0,0,1-3.36-3.36,3.326,3.326,0,0,1,.98-2.38,3.36,3.36,0,0,1,2.38-.99,3.315,3.315,0,0,1,2.37.99,3.359,3.359,0,0,1-2.37,5.74m0,6.62h-.05a4.635,4.635,0,0,0-.04,9.27h.04a4.635,4.635,0,0,0,.05-9.27m2.38,7.01a3.366,3.366,0,1,1-4.76-4.76,3.42,3.42,0,0,1,2.38-.99,3.315,3.315,0,0,1,2.37.99,3.368,3.368,0,0,1,.01,4.76m-2.38,7.63h-.03a4.62,4.62,0,0,0-.03,9.24h.03a4.62,4.62,0,0,0,.03-9.24m0,7.96a3.372,3.372,0,0,1-3.37-3.37,3.38,3.38,0,0,1,3.37-3.36,3.365,3.365,0,0,1,0,6.73m36.79-3.98h-26.4a.643.643,0,0,0,.2,1.27h26.21a.68.68,0,0,0,.61-.66.65.65,0,0,0-.62-.61m0-14.6h-26.31a.66.66,0,0,0-.56.7.605.605,0,0,0,.68.53h26.2a.637.637,0,0,0,.62-.62.667.667,0,0,0-.63-.61m.01-29.19h-26.3a.657.657,0,0,0-.58.68.666.666,0,0,0,.69.56h26.19a.668.668,0,0,0,.62-.63.642.642,0,0,0-.62-.61m-.01,14.61h-26.4a.621.621,0,0,0-.39.24.613.613,0,0,0-.12.47.633.633,0,0,0,.7.53l26.22-.01a.613.613,0,0,0,.59-.63.63.63,0,0,0-.6-.6m0,0h-26.4a.621.621,0,0,0-.39.24.613.613,0,0,0-.12.47.633.633,0,0,0,.7.53l26.22-.01a.613.613,0,0,0,.59-.63.63.63,0,0,0-.6-.6m.01-14.61h-26.3a.657.657,0,0,0-.58.68.666.666,0,0,0,.69.56h26.19a.668.668,0,0,0,.62-.63.642.642,0,0,0-.62-.61m-.01,29.19h-26.31a.66.66,0,0,0-.56.7.605.605,0,0,0,.68.53h26.2a.637.637,0,0,0,.62-.62.667.667,0,0,0-.63-.61m0,14.6h-26.4a.643.643,0,0,0,.2,1.27h26.21a.68.68,0,0,0,.61-.66.65.65,0,0,0-.62-.61m-36.79-3.98h-.03a4.62,4.62,0,0,0-.03,9.24h.03a4.62,4.62,0,0,0,.03-9.24m0,7.96a3.372,3.372,0,0,1-3.37-3.37,3.38,3.38,0,0,1,3.37-3.36,3.365,3.365,0,0,1,0,6.73m0-22.6h-.05a4.635,4.635,0,0,0-.04,9.27h.04a4.635,4.635,0,0,0,.05-9.27m2.38,7.01a3.366,3.366,0,1,1-4.76-4.76,3.42,3.42,0,0,1,2.38-.99,3.315,3.315,0,0,1,2.37.99,3.368,3.368,0,0,1,.01,4.76m-2.38-21.62h-.05a4.635,4.635,0,0,0-.04,9.27,4.635,4.635,0,0,0,.09-9.27m0,7.99a3.361,3.361,0,0,1-3.36-3.36,3.326,3.326,0,0,1,.98-2.38,3.36,3.36,0,0,1,2.38-.99,3.315,3.315,0,0,1,2.37.99,3.359,3.359,0,0,1-2.37,5.74m0-22.57h-.05a4.635,4.635,0,0,0-.04,9.27h.05a4.635,4.635,0,0,0,.04-9.27m.01,7.98a3.38,3.38,0,0,1-2.4-5.75,3.411,3.411,0,0,1,2.39-1h.01a3.4,3.4,0,0,1,3.37,3.37,3.387,3.387,0,0,1-3.37,3.38m-.01,6.6h-.05a4.635,4.635,0,0,0-.04,9.27,4.635,4.635,0,0,0,.09-9.27m0,7.99a3.361,3.361,0,0,1-3.36-3.36,3.326,3.326,0,0,1,.98-2.38,3.36,3.36,0,0,1,2.38-.99,3.315,3.315,0,0,1,2.37.99,3.359,3.359,0,0,1-2.37,5.74m0-22.57h-.05a4.635,4.635,0,0,0-.04,9.27h.05a4.635,4.635,0,0,0,.04-9.27m.01,7.98a3.38,3.38,0,0,1-2.4-5.75,3.411,3.411,0,0,1,2.39-1h.01a3.4,3.4,0,0,1,3.37,3.37,3.387,3.387,0,0,1-3.37,3.38m-.01,21.21h-.05a4.635,4.635,0,0,0-.04,9.27h.04a4.635,4.635,0,0,0,.05-9.27m2.38,7.01a3.366,3.366,0,1,1-4.76-4.76,3.42,3.42,0,0,1,2.38-.99,3.315,3.315,0,0,1,2.37.99,3.368,3.368,0,0,1,.01,4.76m-2.38,7.63h-.03a4.62,4.62,0,0,0-.03,9.24h.03a4.62,4.62,0,0,0,.03-9.24m0,7.96a3.372,3.372,0,0,1-3.37-3.37,3.38,3.38,0,0,1,3.37-3.36,3.365,3.365,0,0,1,0,6.73m36.79-3.98h-26.4a.643.643,0,0,0,.2,1.27h26.21a.68.68,0,0,0,.61-.66.65.65,0,0,0-.62-.61m0-14.6h-26.31a.66.66,0,0,0-.56.7.605.605,0,0,0,.68.53h26.2a.637.637,0,0,0,.62-.62.667.667,0,0,0-.63-.61m.01-29.19h-26.3a.657.657,0,0,0-.58.68.666.666,0,0,0,.69.56h26.19a.668.668,0,0,0,.62-.63.642.642,0,0,0-.62-.61m-.01,14.61h-26.4a.621.621,0,0,0-.39.24.613.613,0,0,0-.12.47.633.633,0,0,0,.7.53l26.22-.01a.613.613,0,0,0,.59-.63.63.63,0,0,0-.6-.6m0,0h-26.4a.621.621,0,0,0-.39.24.613.613,0,0,0-.12.47.633.633,0,0,0,.7.53l26.22-.01a.613.613,0,0,0,.59-.63.63.63,0,0,0-.6-.6m.01-14.61h-26.3a.657.657,0,0,0-.58.68.666.666,0,0,0,.69.56h26.19a.668.668,0,0,0,.62-.63.642.642,0,0,0-.62-.61m-.01,29.19h-26.31a.66.66,0,0,0-.56.7.605.605,0,0,0,.68.53h26.2a.637.637,0,0,0,.62-.62.667.667,0,0,0-.63-.61m0,14.6h-26.4a.643.643,0,0,0,.2,1.27h26.21a.68.68,0,0,0,.61-.66.65.65,0,0,0-.62-.61m-36.79-3.98h-.03a4.62,4.62,0,0,0-.03,9.24h.03a4.62,4.62,0,0,0,.03-9.24m0,7.96a3.372,3.372,0,0,1-3.37-3.37,3.38,3.38,0,0,1,3.37-3.36,3.365,3.365,0,0,1,0,6.73m0-51.79h-.05a4.635,4.635,0,0,0-.04,9.27h.05a4.635,4.635,0,0,0,.04-9.27m.01,7.98a3.38,3.38,0,0,1-2.4-5.75,3.411,3.411,0,0,1,2.39-1h.01a3.4,3.4,0,0,1,3.37,3.37,3.387,3.387,0,0,1-3.37,3.38m-.01,6.6h-.05a4.635,4.635,0,0,0-.04,9.27,4.635,4.635,0,0,0,.09-9.27m0,7.99a3.361,3.361,0,0,1-3.36-3.36,3.326,3.326,0,0,1,.98-2.38,3.36,3.36,0,0,1,2.38-.99,3.315,3.315,0,0,1,2.37.99,3.359,3.359,0,0,1-2.37,5.74m0,6.62h-.05a4.635,4.635,0,0,0-.04,9.27h.04a4.635,4.635,0,0,0,.05-9.27m2.38,7.01a3.366,3.366,0,1,1-4.76-4.76,3.42,3.42,0,0,1,2.38-.99,3.315,3.315,0,0,1,2.37.99,3.368,3.368,0,0,1,.01,4.76m-2.38-7.01h-.05a4.635,4.635,0,0,0-.04,9.27h.04a4.635,4.635,0,0,0,.05-9.27m2.38,7.01a3.366,3.366,0,1,1-4.76-4.76,3.42,3.42,0,0,1,2.38-.99,3.315,3.315,0,0,1,2.37.99,3.368,3.368,0,0,1,.01,4.76m-2.38-21.62h-.05a4.635,4.635,0,0,0-.04,9.27,4.635,4.635,0,0,0,.09-9.27m0,7.99a3.361,3.361,0,0,1-3.36-3.36,3.326,3.326,0,0,1,.98-2.38,3.36,3.36,0,0,1,2.38-.99,3.315,3.315,0,0,1,2.37.99,3.359,3.359,0,0,1-2.37,5.74m0-22.57h-.05a4.635,4.635,0,0,0-.04,9.27h.05a4.635,4.635,0,0,0,.04-9.27m.01,7.98a3.38,3.38,0,0,1-2.4-5.75,3.411,3.411,0,0,1,2.39-1h.01a3.4,3.4,0,0,1,3.37,3.37,3.387,3.387,0,0,1-3.37,3.38m-.01,35.85h-.03a4.62,4.62,0,0,0-.03,9.24h.03a4.62,4.62,0,0,0,.03-9.24m0,7.96a3.372,3.372,0,0,1-3.37-3.37,3.38,3.38,0,0,1,3.37-3.36,3.365,3.365,0,0,1,0,6.73m36.79-3.98h-26.4a.643.643,0,0,0,.2,1.27h26.21a.68.68,0,0,0,.61-.66.65.65,0,0,0-.62-.61m0-14.6h-26.31a.66.66,0,0,0-.56.7.605.605,0,0,0,.68.53h26.2a.637.637,0,0,0,.62-.62.667.667,0,0,0-.63-.61m.01-29.19h-26.3a.657.657,0,0,0-.58.68.666.666,0,0,0,.69.56h26.19a.668.668,0,0,0,.62-.63.642.642,0,0,0-.62-.61m-.01,14.61h-26.4a.621.621,0,0,0-.39.24.613.613,0,0,0-.12.47.633.633,0,0,0,.7.53l26.22-.01a.613.613,0,0,0,.59-.63.63.63,0,0,0-.6-.6m0,0h-26.4a.621.621,0,0,0-.39.24.613.613,0,0,0-.12.47.633.633,0,0,0,.7.53l26.22-.01a.613.613,0,0,0,.59-.63.63.63,0,0,0-.6-.6m.01-14.61h-26.3a.657.657,0,0,0-.58.68.666.666,0,0,0,.69.56h26.19a.668.668,0,0,0,.62-.63.642.642,0,0,0-.62-.61m-.01,29.19h-26.31a.66.66,0,0,0-.56.7.605.605,0,0,0,.68.53h26.2a.637.637,0,0,0,.62-.62.667.667,0,0,0-.63-.61m0,14.6h-26.4a.643.643,0,0,0,.2,1.27h26.21a.68.68,0,0,0,.61-.66.65.65,0,0,0-.62-.61m-36.79-3.98h-.03a4.62,4.62,0,0,0-.03,9.24h.03a4.62,4.62,0,0,0,.03-9.24m0,7.96a3.372,3.372,0,0,1-3.37-3.37,3.38,3.38,0,0,1,3.37-3.36,3.365,3.365,0,0,1,0,6.73m0-51.79h-.05a4.635,4.635,0,0,0-.04,9.27h.05a4.635,4.635,0,0,0,.04-9.27m.01,7.98a3.38,3.38,0,0,1-2.4-5.75,3.411,3.411,0,0,1,2.39-1h.01a3.4,3.4,0,0,1,3.37,3.37,3.387,3.387,0,0,1-3.37,3.38m-.01,6.6h-.05a4.635,4.635,0,0,0-.04,9.27,4.635,4.635,0,0,0,.09-9.27m0,7.99a3.361,3.361,0,0,1-3.36-3.36,3.326,3.326,0,0,1,.98-2.38,3.36,3.36,0,0,1,2.38-.99,3.315,3.315,0,0,1,2.37.99,3.359,3.359,0,0,1-2.37,5.74m0,6.62h-.05a4.635,4.635,0,0,0-.04,9.27h.04a4.635,4.635,0,0,0,.05-9.27m2.38,7.01a3.366,3.366,0,1,1-4.76-4.76,3.42,3.42,0,0,1,2.38-.99,3.315,3.315,0,0,1,2.37.99,3.368,3.368,0,0,1,.01,4.76m-2.38,7.63h-.03a4.62,4.62,0,0,0-.03,9.24h.03a4.62,4.62,0,0,0,.03-9.24m0,7.96a3.372,3.372,0,0,1-3.37-3.37,3.38,3.38,0,0,1,3.37-3.36,3.365,3.365,0,0,1,0,6.73m0-22.6h-.05a4.635,4.635,0,0,0-.04,9.27h.04a4.635,4.635,0,0,0,.05-9.27m2.38,7.01a3.366,3.366,0,1,1-4.76-4.76,3.42,3.42,0,0,1,2.38-.99,3.315,3.315,0,0,1,2.37.99,3.368,3.368,0,0,1,.01,4.76m-2.38-21.62h-.05a4.635,4.635,0,0,0-.04,9.27,4.635,4.635,0,0,0,.09-9.27m0,7.99a3.361,3.361,0,0,1-3.36-3.36,3.326,3.326,0,0,1,.98-2.38,3.36,3.36,0,0,1,2.38-.99,3.315,3.315,0,0,1,2.37.99,3.359,3.359,0,0,1-2.37,5.74m0-22.57h-.05a4.635,4.635,0,0,0-.04,9.27h.05a4.635,4.635,0,0,0,.04-9.27m.01,7.98a3.38,3.38,0,0,1-2.4-5.75,3.411,3.411,0,0,1,2.39-1h.01a3.4,3.4,0,0,1,3.37,3.37,3.387,3.387,0,0,1-3.37,3.38m36.78,39.83h-26.4a.643.643,0,0,0,.2,1.27h26.21a.68.68,0,0,0,.61-.66.65.65,0,0,0-.62-.61m0-14.6h-26.31a.66.66,0,0,0-.56.7.605.605,0,0,0,.68.53h26.2a.637.637,0,0,0,.62-.62.667.667,0,0,0-.63-.61m.01-29.19h-26.3a.657.657,0,0,0-.58.68.666.666,0,0,0,.69.56h26.19a.668.668,0,0,0,.62-.63.642.642,0,0,0-.62-.61m-.01,14.61h-26.4a.621.621,0,0,0-.39.24.613.613,0,0,0-.12.47.633.633,0,0,0,.7.53l26.22-.01a.613.613,0,0,0,.59-.63.63.63,0,0,0-.6-.6m0,0h-26.4a.621.621,0,0,0-.39.24.613.613,0,0,0-.12.47.633.633,0,0,0,.7.53l26.22-.01a.613.613,0,0,0,.59-.63.63.63,0,0,0-.6-.6m.01-14.61h-26.3a.657.657,0,0,0-.58.68.666.666,0,0,0,.69.56h26.19a.668.668,0,0,0,.62-.63.642.642,0,0,0-.62-.61m-.01,29.19h-26.31a.66.66,0,0,0-.56.7.605.605,0,0,0,.68.53h26.2a.637.637,0,0,0,.62-.62.667.667,0,0,0-.63-.61m0,14.6h-26.4a.643.643,0,0,0,.2,1.27h26.21a.68.68,0,0,0,.61-.66.65.65,0,0,0-.62-.61m-36.79-47.81h-.05a4.635,4.635,0,0,0-.04,9.27h.05a4.635,4.635,0,0,0,.04-9.27m.01,7.98a3.38,3.38,0,0,1-2.4-5.75,3.411,3.411,0,0,1,2.39-1h.01a3.4,3.4,0,0,1,3.37,3.37,3.387,3.387,0,0,1-3.37,3.38m-.01,6.6h-.05a4.635,4.635,0,0,0-.04,9.27,4.635,4.635,0,0,0,.09-9.27m0,7.99a3.361,3.361,0,0,1-3.36-3.36,3.326,3.326,0,0,1,.98-2.38,3.36,3.36,0,0,1,2.38-.99,3.315,3.315,0,0,1,2.37.99,3.359,3.359,0,0,1-2.37,5.74m0,6.62h-.05a4.635,4.635,0,0,0-.04,9.27h.04a4.635,4.635,0,0,0,.05-9.27m2.38,7.01a3.366,3.366,0,1,1-4.76-4.76,3.42,3.42,0,0,1,2.38-.99,3.315,3.315,0,0,1,2.37.99,3.368,3.368,0,0,1,.01,4.76m-2.38,7.63h-.03a4.62,4.62,0,0,0-.03,9.24h.03a4.62,4.62,0,0,0,.03-9.24m0,7.96a3.372,3.372,0,0,1-3.37-3.37,3.38,3.38,0,0,1,3.37-3.36,3.365,3.365,0,0,1,0,6.73m0-7.96h-.03a4.62,4.62,0,0,0-.03,9.24h.03a4.62,4.62,0,0,0,.03-9.24m0,7.96a3.372,3.372,0,0,1-3.37-3.37,3.38,3.38,0,0,1,3.37-3.36,3.365,3.365,0,0,1,0,6.73m0-22.6h-.05a4.635,4.635,0,0,0-.04,9.27h.04a4.635,4.635,0,0,0,.05-9.27m2.38,7.01a3.366,3.366,0,1,1-4.76-4.76,3.42,3.42,0,0,1,2.38-.99,3.315,3.315,0,0,1,2.37.99,3.368,3.368,0,0,1,.01,4.76m-2.38-21.62h-.05a4.635,4.635,0,0,0-.04,9.27,4.635,4.635,0,0,0,.09-9.27m0,7.99a3.361,3.361,0,0,1-3.36-3.36,3.326,3.326,0,0,1,.98-2.38,3.36,3.36,0,0,1,2.38-.99,3.315,3.315,0,0,1,2.37.99,3.359,3.359,0,0,1-2.37,5.74m0-22.57h-.05a4.635,4.635,0,0,0-.04,9.27h.05a4.635,4.635,0,0,0,.04-9.27m.01,7.98a3.38,3.38,0,0,1-2.4-5.75,3.411,3.411,0,0,1,2.39-1h.01a3.4,3.4,0,0,1,3.37,3.37,3.387,3.387,0,0,1-3.37,3.38m36.78,39.83h-26.4a.643.643,0,0,0,.2,1.27h26.21a.68.68,0,0,0,.61-.66.65.65,0,0,0-.62-.61m0-14.6h-26.31a.66.66,0,0,0-.56.7.605.605,0,0,0,.68.53h26.2a.637.637,0,0,0,.62-.62.667.667,0,0,0-.63-.61m.01-29.19h-26.3a.657.657,0,0,0-.58.68.666.666,0,0,0,.69.56h26.19a.668.668,0,0,0,.62-.63.642.642,0,0,0-.62-.61m-.01,14.61h-26.4a.621.621,0,0,0-.39.24.613.613,0,0,0-.12.47.633.633,0,0,0,.7.53l26.22-.01a.613.613,0,0,0,.59-.63.63.63,0,0,0-.6-.6m0,0h-26.4a.621.621,0,0,0-.39.24.613.613,0,0,0-.12.47.633.633,0,0,0,.7.53l26.22-.01a.613.613,0,0,0,.59-.63.63.63,0,0,0-.6-.6m.01-14.61h-26.3a.657.657,0,0,0-.58.68.666.666,0,0,0,.69.56h26.19a.668.668,0,0,0,.62-.63.642.642,0,0,0-.62-.61m-.01,29.19h-26.31a.66.66,0,0,0-.56.7.605.605,0,0,0,.68.53h26.2a.637.637,0,0,0,.62-.62.667.667,0,0,0-.63-.61m0,14.6h-26.4a.643.643,0,0,0,.2,1.27h26.21a.68.68,0,0,0,.61-.66.65.65,0,0,0-.62-.61m-36.79-47.81h-.05a4.635,4.635,0,0,0-.04,9.27h.05a4.635,4.635,0,0,0,.04-9.27m.01,7.98a3.38,3.38,0,0,1-2.4-5.75,3.411,3.411,0,0,1,2.39-1h.01a3.4,3.4,0,0,1,3.37,3.37,3.387,3.387,0,0,1-3.37,3.38m-.01,6.6h-.05a4.635,4.635,0,0,0-.04,9.27,4.635,4.635,0,0,0,.09-9.27m0,7.99a3.361,3.361,0,0,1-3.36-3.36,3.326,3.326,0,0,1,.98-2.38,3.36,3.36,0,0,1,2.38-.99,3.315,3.315,0,0,1,2.37.99,3.359,3.359,0,0,1-2.37,5.74m0,6.62h-.05a4.635,4.635,0,0,0-.04,9.27h.04a4.635,4.635,0,0,0,.05-9.27m2.38,7.01a3.366,3.366,0,1,1-4.76-4.76,3.42,3.42,0,0,1,2.38-.99,3.315,3.315,0,0,1,2.37.99,3.368,3.368,0,0,1,.01,4.76m-2.38,7.63h-.03a4.62,4.62,0,0,0-.03,9.24h.03a4.62,4.62,0,0,0,.03-9.24m0,7.96a3.372,3.372,0,0,1-3.37-3.37,3.38,3.38,0,0,1,3.37-3.36,3.365,3.365,0,0,1,0,6.73m0-7.96h-.03a4.62,4.62,0,0,0-.03,9.24h.03a4.62,4.62,0,0,0,.03-9.24m0,7.96a3.372,3.372,0,0,1-3.37-3.37,3.38,3.38,0,0,1,3.37-3.36,3.365,3.365,0,0,1,0,6.73m0-22.6h-.05a4.635,4.635,0,0,0-.04,9.27h.04a4.635,4.635,0,0,0,.05-9.27m2.38,7.01a3.366,3.366,0,1,1-4.76-4.76,3.42,3.42,0,0,1,2.38-.99,3.315,3.315,0,0,1,2.37.99,3.368,3.368,0,0,1,.01,4.76m-2.38-21.62h-.05a4.635,4.635,0,0,0-.04,9.27,4.635,4.635,0,0,0,.09-9.27m0,7.99a3.361,3.361,0,0,1-3.36-3.36,3.326,3.326,0,0,1,.98-2.38,3.36,3.36,0,0,1,2.38-.99,3.315,3.315,0,0,1,2.37.99,3.359,3.359,0,0,1-2.37,5.74m0-22.57h-.05a4.635,4.635,0,0,0-.04,9.27h.05a4.635,4.635,0,0,0,.04-9.27m.01,7.98a3.38,3.38,0,0,1-2.4-5.75,3.411,3.411,0,0,1,2.39-1h.01a3.4,3.4,0,0,1,3.37,3.37,3.387,3.387,0,0,1-3.37,3.38m36.78,39.83h-26.4a.643.643,0,0,0,.2,1.27h26.21a.68.68,0,0,0,.61-.66.65.65,0,0,0-.62-.61m0-14.6h-26.31a.66.66,0,0,0-.56.7.605.605,0,0,0,.68.53h26.2a.637.637,0,0,0,.62-.62.667.667,0,0,0-.63-.61m.01-29.19h-26.3a.657.657,0,0,0-.58.68.666.666,0,0,0,.69.56h26.19a.668.668,0,0,0,.62-.63.642.642,0,0,0-.62-.61m-.01,14.61h-26.4a.621.621,0,0,0-.39.24.613.613,0,0,0-.12.47.633.633,0,0,0,.7.53l26.22-.01a.613.613,0,0,0,.59-.63.63.63,0,0,0-.6-.6m0,0h-26.4a.621.621,0,0,0-.39.24.613.613,0,0,0-.12.47.633.633,0,0,0,.7.53l26.22-.01a.613.613,0,0,0,.59-.63.63.63,0,0,0-.6-.6m.01-14.61h-26.3a.657.657,0,0,0-.58.68.666.666,0,0,0,.69.56h26.19a.668.668,0,0,0,.62-.63.642.642,0,0,0-.62-.61m-.01,29.19h-26.31a.66.66,0,0,0-.56.7.605.605,0,0,0,.68.53h26.2a.637.637,0,0,0,.62-.62.667.667,0,0,0-.63-.61m0,14.6h-26.4a.643.643,0,0,0,.2,1.27h26.21a.68.68,0,0,0,.61-.66.65.65,0,0,0-.62-.61m-36.79-47.81h-.05a4.635,4.635,0,0,0-.04,9.27h.05a4.635,4.635,0,0,0,.04-9.27m.01,7.98a3.38,3.38,0,0,1-2.4-5.75,3.411,3.411,0,0,1,2.39-1h.01a3.4,3.4,0,0,1,3.37,3.37,3.387,3.387,0,0,1-3.37,3.38m-.01,6.6h-.05a4.635,4.635,0,0,0-.04,9.27,4.635,4.635,0,0,0,.09-9.27m0,7.99a3.361,3.361,0,0,1-3.36-3.36,3.326,3.326,0,0,1,.98-2.38,3.36,3.36,0,0,1,2.38-.99,3.315,3.315,0,0,1,2.37.99,3.359,3.359,0,0,1-2.37,5.74m0,6.62h-.05a4.635,4.635,0,0,0-.04,9.27h.04a4.635,4.635,0,0,0,.05-9.27m2.38,7.01a3.366,3.366,0,1,1-4.76-4.76,3.42,3.42,0,0,1,2.38-.99,3.315,3.315,0,0,1,2.37.99,3.368,3.368,0,0,1,.01,4.76m-2.38,7.63h-.03a4.62,4.62,0,0,0-.03,9.24h.03a4.62,4.62,0,0,0,.03-9.24m0,7.96a3.372,3.372,0,0,1-3.37-3.37,3.38,3.38,0,0,1,3.37-3.36,3.365,3.365,0,0,1,0,6.73m0-7.96h-.03a4.62,4.62,0,0,0-.03,9.24h.03a4.62,4.62,0,0,0,.03-9.24m0,7.96a3.372,3.372,0,0,1-3.37-3.37,3.38,3.38,0,0,1,3.37-3.36,3.365,3.365,0,0,1,0,6.73m0-22.6h-.05a4.635,4.635,0,0,0-.04,9.27h.04a4.635,4.635,0,0,0,.05-9.27m2.38,7.01a3.366,3.366,0,1,1-4.76-4.76,3.42,3.42,0,0,1,2.38-.99,3.315,3.315,0,0,1,2.37.99,3.368,3.368,0,0,1,.01,4.76m-2.38-21.62h-.05a4.635,4.635,0,0,0-.04,9.27,4.635,4.635,0,0,0,.09-9.27m0,7.99a3.361,3.361,0,0,1-3.36-3.36,3.326,3.326,0,0,1,.98-2.38,3.36,3.36,0,0,1,2.38-.99,3.315,3.315,0,0,1,2.37.99,3.359,3.359,0,0,1-2.37,5.74m0-22.57h-.05a4.635,4.635,0,0,0-.04,9.27h.05a4.635,4.635,0,0,0,.04-9.27m.01,7.98a3.38,3.38,0,0,1-2.4-5.75,3.411,3.411,0,0,1,2.39-1h.01a3.4,3.4,0,0,1,3.37,3.37,3.387,3.387,0,0,1-3.37,3.38m36.78,39.83h-26.4a.643.643,0,0,0,.2,1.27h26.21a.68.68,0,0,0,.61-.66.65.65,0,0,0-.62-.61m0-14.6h-26.31a.66.66,0,0,0-.56.7.605.605,0,0,0,.68.53h26.2a.637.637,0,0,0,.62-.62.667.667,0,0,0-.63-.61m.01-29.19h-26.3a.657.657,0,0,0-.58.68.666.666,0,0,0,.69.56h26.19a.668.668,0,0,0,.62-.63.642.642,0,0,0-.62-.61m-.01,14.61h-26.4a.621.621,0,0,0-.39.24.613.613,0,0,0-.12.47.633.633,0,0,0,.7.53l26.22-.01a.613.613,0,0,0,.59-.63.63.63,0,0,0-.6-.6m-26.21,1.24,26.22-.01a.613.613,0,0,0,.59-.63.63.63,0,0,0-.6-.6h-26.4a.621.621,0,0,0-.39.24.613.613,0,0,0-.12.47.633.633,0,0,0,.7.53m.03-14.61h26.19a.668.668,0,0,0,.62-.63.642.642,0,0,0-.62-.61h-26.3a.657.657,0,0,0-.58.68.666.666,0,0,0,.69.56m26.18,27.95h-26.31a.66.66,0,0,0-.56.7.605.605,0,0,0,.68.53h26.2a.637.637,0,0,0,.62-.62.667.667,0,0,0-.63-.61m0,14.6h-26.4a.643.643,0,0,0,.2,1.27h26.21a.68.68,0,0,0,.61-.66.65.65,0,0,0-.62-.61m-36.79-47.81h-.05a4.635,4.635,0,0,0-.04,9.27h.05a4.635,4.635,0,0,0,.04-9.27m.01,7.98a3.38,3.38,0,0,1-2.4-5.75,3.411,3.411,0,0,1,2.39-1h.01a3.4,3.4,0,0,1,3.37,3.37,3.387,3.387,0,0,1-3.37,3.38m-.01,6.6h-.05a4.635,4.635,0,0,0-.04,9.27,4.635,4.635,0,0,0,.09-9.27m0,7.99a3.361,3.361,0,0,1-3.36-3.36,3.326,3.326,0,0,1,.98-2.38,3.36,3.36,0,0,1,2.38-.99,3.315,3.315,0,0,1,2.37.99,3.359,3.359,0,0,1-2.37,5.74m0,6.62h-.05a4.635,4.635,0,0,0-.04,9.27h.04a4.635,4.635,0,0,0,.05-9.27m2.38,7.01a3.366,3.366,0,1,1-4.76-4.76,3.42,3.42,0,0,1,2.38-.99,3.315,3.315,0,0,1,2.37.99,3.368,3.368,0,0,1,.01,4.76m-2.38,7.63h-.03a4.62,4.62,0,0,0-.03,9.24h.03a4.62,4.62,0,0,0,.03-9.24m0,7.96a3.372,3.372,0,0,1-3.37-3.37,3.38,3.38,0,0,1,3.37-3.36,3.365,3.365,0,0,1,0,6.73m37.06-61.85H96.425a7.031,7.031,0,0,0-7,7.02V221.1a7.008,7.008,0,0,0,6.98,7.02h40.6a7.008,7.008,0,0,0,7-7v-59.17a7.031,7.031,0,0,0-7-7.02m5.78,7.02V221.1a5.759,5.759,0,0,1-5.72,5.79H96.425a5.77,5.77,0,0,1-5.78-5.77v-59.17a5.736,5.736,0,0,1,5.74-5.75l.04-.01h40.58a5.74,5.74,0,0,1,5.78,5.67l-.3.09Zm-32.26,22.91,26.22-.01a.613.613,0,0,0,.59-.63.63.63,0,0,0-.6-.6h-26.4a.621.621,0,0,0-.39.24.613.613,0,0,0-.12.47.633.633,0,0,0,.7.53m26.22-15.85h-26.3a.657.657,0,0,0-.58.68.666.666,0,0,0,.69.56h26.19a.668.668,0,0,0,.62-.63.642.642,0,0,0-.62-.61m-.01,29.19h-26.31a.66.66,0,0,0-.56.7.605.605,0,0,0,.68.53h26.2a.637.637,0,0,0,.62-.62.667.667,0,0,0-.63-.61m0,14.6h-26.4a.643.643,0,0,0,.2,1.27h26.21a.68.68,0,0,0,.61-.66.65.65,0,0,0-.62-.61m-36.79-47.81h-.05a4.635,4.635,0,0,0-.04,9.27h.05a4.635,4.635,0,0,0,.04-9.27m.01,7.98a3.38,3.38,0,0,1-2.4-5.75,3.411,3.411,0,0,1,2.39-1h.01a3.4,3.4,0,0,1,3.37,3.37,3.387,3.387,0,0,1-3.37,3.38m-.01,6.6h-.05a4.635,4.635,0,0,0-.04,9.27,4.635,4.635,0,0,0,.09-9.27m0,7.99a3.361,3.361,0,0,1-3.36-3.36,3.326,3.326,0,0,1,.98-2.38,3.36,3.36,0,0,1,2.38-.99,3.315,3.315,0,0,1,2.37.99,3.359,3.359,0,0,1-2.37,5.74m0,6.62h-.05a4.635,4.635,0,0,0-.04,9.27h.04a4.635,4.635,0,0,0,.05-9.27m2.38,7.01a3.366,3.366,0,1,1-4.76-4.76,3.42,3.42,0,0,1,2.38-.99,3.315,3.315,0,0,1,2.37.99,3.368,3.368,0,0,1,.01,4.76m-2.38,7.63h-.03a4.62,4.62,0,0,0-.03,9.24h.03a4.62,4.62,0,0,0,.03-9.24m0,7.96a3.372,3.372,0,0,1-3.37-3.37,3.38,3.38,0,0,1,3.37-3.36,3.365,3.365,0,0,1,0,6.73m0-7.96h-.03a4.62,4.62,0,0,0-.03,9.24h.03a4.62,4.62,0,0,0,.03-9.24m0,7.96a3.372,3.372,0,0,1-3.37-3.37,3.38,3.38,0,0,1,3.37-3.36,3.365,3.365,0,0,1,0,6.73m0-22.6h-.05a4.635,4.635,0,0,0-.04,9.27h.04a4.635,4.635,0,0,0,.05-9.27m2.38,7.01a3.366,3.366,0,1,1-4.76-4.76,3.42,3.42,0,0,1,2.38-.99,3.315,3.315,0,0,1,2.37.99,3.368,3.368,0,0,1,.01,4.76m-2.38-21.62h-.05a4.635,4.635,0,0,0-.04,9.27,4.635,4.635,0,0,0,.09-9.27m0,7.99a3.361,3.361,0,0,1-3.36-3.36,3.326,3.326,0,0,1,.98-2.38,3.36,3.36,0,0,1,2.38-.99,3.315,3.315,0,0,1,2.37.99,3.359,3.359,0,0,1-2.37,5.74m0-22.57h-.05a4.635,4.635,0,0,0-.04,9.27h.05a4.635,4.635,0,0,0,.04-9.27m.01,7.98a3.38,3.38,0,0,1-2.4-5.75,3.411,3.411,0,0,1,2.39-1h.01a3.4,3.4,0,0,1,3.37,3.37,3.387,3.387,0,0,1-3.37,3.38m36.78,39.83h-26.4a.643.643,0,0,0,.2,1.27h26.21a.68.68,0,0,0,.61-.66.65.65,0,0,0-.62-.61m0-14.6h-26.31a.66.66,0,0,0-.56.7.605.605,0,0,0,.68.53h26.2a.637.637,0,0,0,.62-.62.667.667,0,0,0-.63-.61m.01-29.19h-26.3a.657.657,0,0,0-.58.68.666.666,0,0,0,.69.56h26.19a.668.668,0,0,0,.62-.63.642.642,0,0,0-.62-.61m-.01,14.61h-26.4a.621.621,0,0,0-.39.24.613.613,0,0,0-.12.47.633.633,0,0,0,.7.53l26.22-.01a.613.613,0,0,0,.59-.63.63.63,0,0,0-.6-.6m0,0h-26.4a.621.621,0,0,0-.39.24.613.613,0,0,0-.12.47.633.633,0,0,0,.7.53l26.22-.01a.613.613,0,0,0,.59-.63.63.63,0,0,0-.6-.6m.01-14.61h-26.3a.657.657,0,0,0-.58.68.666.666,0,0,0,.69.56h26.19a.668.668,0,0,0,.62-.63.642.642,0,0,0-.62-.61m-.01,29.19h-26.31a.66.66,0,0,0-.56.7.605.605,0,0,0,.68.53h26.2a.637.637,0,0,0,.62-.62.667.667,0,0,0-.63-.61m0,14.6h-26.4a.643.643,0,0,0,.2,1.27h26.21a.68.68,0,0,0,.61-.66.65.65,0,0,0-.62-.61m-36.79-47.81h-.05a4.635,4.635,0,0,0-.04,9.27h.05a4.635,4.635,0,0,0,.04-9.27m.01,7.98a3.38,3.38,0,0,1-2.4-5.75,3.411,3.411,0,0,1,2.39-1h.01a3.4,3.4,0,0,1,3.37,3.37,3.387,3.387,0,0,1-3.37,3.38m-.01,6.6h-.05a4.635,4.635,0,0,0-.04,9.27,4.635,4.635,0,0,0,.09-9.27m0,7.99a3.361,3.361,0,0,1-3.36-3.36,3.326,3.326,0,0,1,.98-2.38,3.36,3.36,0,0,1,2.38-.99,3.315,3.315,0,0,1,2.37.99,3.359,3.359,0,0,1-2.37,5.74m0,6.62h-.05a4.635,4.635,0,0,0-.04,9.27h.04a4.635,4.635,0,0,0,.05-9.27m2.38,7.01a3.366,3.366,0,1,1-4.76-4.76,3.42,3.42,0,0,1,2.38-.99,3.315,3.315,0,0,1,2.37.99,3.368,3.368,0,0,1,.01,4.76m-2.38,7.63h-.03a4.62,4.62,0,0,0-.03,9.24h.03a4.62,4.62,0,0,0,.03-9.24m0,7.96a3.372,3.372,0,0,1-3.37-3.37,3.38,3.38,0,0,1,3.37-3.36,3.365,3.365,0,0,1,0,6.73m0-7.96h-.03a4.62,4.62,0,0,0-.03,9.24h.03a4.62,4.62,0,0,0,.03-9.24m0,7.96a3.372,3.372,0,0,1-3.37-3.37,3.38,3.38,0,0,1,3.37-3.36,3.365,3.365,0,0,1,0,6.73m0-22.6h-.05a4.635,4.635,0,0,0-.04,9.27h.04a4.635,4.635,0,0,0,.05-9.27m2.38,7.01a3.366,3.366,0,1,1-4.76-4.76,3.42,3.42,0,0,1,2.38-.99,3.315,3.315,0,0,1,2.37.99,3.368,3.368,0,0,1,.01,4.76m-2.38-21.62h-.05a4.635,4.635,0,0,0-.04,9.27,4.635,4.635,0,0,0,.09-9.27m0,7.99a3.361,3.361,0,0,1-3.36-3.36,3.326,3.326,0,0,1,.98-2.38,3.36,3.36,0,0,1,2.38-.99,3.315,3.315,0,0,1,2.37.99,3.359,3.359,0,0,1-2.37,5.74m0-22.57h-.05a4.635,4.635,0,0,0-.04,9.27h.05a4.635,4.635,0,0,0,.04-9.27m.01,7.98a3.38,3.38,0,0,1-2.4-5.75,3.411,3.411,0,0,1,2.39-1h.01a3.4,3.4,0,0,1,3.37,3.37,3.387,3.387,0,0,1-3.37,3.38m36.78,39.83h-26.4a.643.643,0,0,0,.2,1.27h26.21a.68.68,0,0,0,.61-.66.65.65,0,0,0-.62-.61m0-14.6h-26.31a.66.66,0,0,0-.56.7.605.605,0,0,0,.68.53h26.2a.637.637,0,0,0,.62-.62.667.667,0,0,0-.63-.61m.01-29.19h-26.3a.657.657,0,0,0-.58.68.666.666,0,0,0,.69.56h26.19a.668.668,0,0,0,.62-.63.642.642,0,0,0-.62-.61m-.01,14.61h-26.4a.621.621,0,0,0-.39.24.613.613,0,0,0-.12.47.633.633,0,0,0,.7.53l26.22-.01a.613.613,0,0,0,.59-.63.63.63,0,0,0-.6-.6m0,0h-26.4a.621.621,0,0,0-.39.24.613.613,0,0,0-.12.47.633.633,0,0,0,.7.53l26.22-.01a.613.613,0,0,0,.59-.63.63.63,0,0,0-.6-.6m.01-14.61h-26.3a.657.657,0,0,0-.58.68.666.666,0,0,0,.69.56h26.19a.668.668,0,0,0,.62-.63.642.642,0,0,0-.62-.61m-.01,29.19h-26.31a.66.66,0,0,0-.56.7.605.605,0,0,0,.68.53h26.2a.637.637,0,0,0,.62-.62.667.667,0,0,0-.63-.61m0,14.6h-26.4a.643.643,0,0,0,.2,1.27h26.21a.68.68,0,0,0,.61-.66.65.65,0,0,0-.62-.61m-36.79-47.81h-.05a4.635,4.635,0,0,0-.04,9.27h.05a4.635,4.635,0,0,0,.04-9.27m.01,7.98a3.38,3.38,0,0,1-2.4-5.75,3.411,3.411,0,0,1,2.39-1h.01a3.4,3.4,0,0,1,3.37,3.37,3.387,3.387,0,0,1-3.37,3.38m-.01,6.6h-.05a4.635,4.635,0,0,0-.04,9.27,4.635,4.635,0,0,0,.09-9.27m0,7.99a3.361,3.361,0,0,1-3.36-3.36,3.326,3.326,0,0,1,.98-2.38,3.36,3.36,0,0,1,2.38-.99,3.315,3.315,0,0,1,2.37.99,3.359,3.359,0,0,1-2.37,5.74m0,6.62h-.05a4.635,4.635,0,0,0-.04,9.27h.04a4.635,4.635,0,0,0,.05-9.27m2.38,7.01a3.366,3.366,0,1,1-4.76-4.76,3.42,3.42,0,0,1,2.38-.99,3.315,3.315,0,0,1,2.37.99,3.368,3.368,0,0,1,.01,4.76m-2.38,7.63h-.03a4.62,4.62,0,0,0-.03,9.24h.03a4.62,4.62,0,0,0,.03-9.24m0,7.96a3.372,3.372,0,0,1-3.37-3.37,3.38,3.38,0,0,1,3.37-3.36,3.365,3.365,0,0,1,0,6.73m0-7.96h-.03a4.62,4.62,0,0,0-.03,9.24h.03a4.62,4.62,0,0,0,.03-9.24m0,7.96a3.372,3.372,0,0,1-3.37-3.37,3.38,3.38,0,0,1,3.37-3.36,3.365,3.365,0,0,1,0,6.73m0-22.6h-.05a4.635,4.635,0,0,0-.04,9.27h.04a4.635,4.635,0,0,0,.05-9.27m2.38,7.01a3.366,3.366,0,1,1-4.76-4.76,3.42,3.42,0,0,1,2.38-.99,3.315,3.315,0,0,1,2.37.99,3.368,3.368,0,0,1,.01,4.76m-2.38-21.62h-.05a4.635,4.635,0,0,0-.04,9.27,4.635,4.635,0,0,0,.09-9.27m0,7.99a3.361,3.361,0,0,1-3.36-3.36,3.326,3.326,0,0,1,.98-2.38,3.36,3.36,0,0,1,2.38-.99,3.315,3.315,0,0,1,2.37.99,3.359,3.359,0,0,1-2.37,5.74m0-22.57h-.05a4.635,4.635,0,0,0-.04,9.27h.05a4.635,4.635,0,0,0,.04-9.27m.01,7.98a3.38,3.38,0,0,1-2.4-5.75,3.411,3.411,0,0,1,2.39-1h.01a3.4,3.4,0,0,1,3.37,3.37,3.387,3.387,0,0,1-3.37,3.38m36.78,39.83h-26.4a.643.643,0,0,0,.2,1.27h26.21a.68.68,0,0,0,.61-.66.65.65,0,0,0-.62-.61m0-14.6h-26.31a.66.66,0,0,0-.56.7.605.605,0,0,0,.68.53h26.2a.637.637,0,0,0,.62-.62.667.667,0,0,0-.63-.61m.01-29.19h-26.3a.657.657,0,0,0-.58.68.666.666,0,0,0,.69.56h26.19a.668.668,0,0,0,.62-.63.642.642,0,0,0-.62-.61m-.01,14.61h-26.4a.621.621,0,0,0-.39.24.613.613,0,0,0-.12.47.633.633,0,0,0,.7.53l26.22-.01a.613.613,0,0,0,.59-.63.63.63,0,0,0-.6-.6m0,0h-26.4a.621.621,0,0,0-.39.24.613.613,0,0,0-.12.47.633.633,0,0,0,.7.53l26.22-.01a.613.613,0,0,0,.59-.63.63.63,0,0,0-.6-.6m.01-14.61h-26.3a.657.657,0,0,0-.58.68.666.666,0,0,0,.69.56h26.19a.668.668,0,0,0,.62-.63.642.642,0,0,0-.62-.61m-.01,29.19h-26.31a.66.66,0,0,0-.56.7.605.605,0,0,0,.68.53h26.2a.637.637,0,0,0,.62-.62.667.667,0,0,0-.63-.61m0,14.6h-26.4a.643.643,0,0,0,.2,1.27h26.21a.68.68,0,0,0,.61-.66.65.65,0,0,0-.62-.61m-36.79-47.81h-.05a4.635,4.635,0,0,0-.04,9.27h.05a4.635,4.635,0,0,0,.04-9.27m.01,7.98a3.38,3.38,0,0,1-2.4-5.75,3.411,3.411,0,0,1,2.39-1h.01a3.4,3.4,0,0,1,3.37,3.37,3.387,3.387,0,0,1-3.37,3.38m-.01,6.6h-.05a4.635,4.635,0,0,0-.04,9.27,4.635,4.635,0,0,0,.09-9.27m0,7.99a3.361,3.361,0,0,1-3.36-3.36,3.326,3.326,0,0,1,.98-2.38,3.36,3.36,0,0,1,2.38-.99,3.315,3.315,0,0,1,2.37.99,3.359,3.359,0,0,1-2.37,5.74m0,6.62h-.05a4.635,4.635,0,0,0-.04,9.27h.04a4.635,4.635,0,0,0,.05-9.27m2.38,7.01a3.366,3.366,0,1,1-4.76-4.76,3.42,3.42,0,0,1,2.38-.99,3.315,3.315,0,0,1,2.37.99,3.368,3.368,0,0,1,.01,4.76m-2.38,7.63h-.03a4.62,4.62,0,0,0-.03,9.24h.03a4.62,4.62,0,0,0,.03-9.24m0,7.96a3.372,3.372,0,0,1-3.37-3.37,3.38,3.38,0,0,1,3.37-3.36,3.365,3.365,0,0,1,0,6.73m0-7.96h-.03a4.62,4.62,0,0,0-.03,9.24h.03a4.62,4.62,0,0,0,.03-9.24m0,7.96a3.372,3.372,0,0,1-3.37-3.37,3.38,3.38,0,0,1,3.37-3.36,3.365,3.365,0,0,1,0,6.73m0-22.6h-.05a4.635,4.635,0,0,0-.04,9.27h.04a4.635,4.635,0,0,0,.05-9.27m2.38,7.01a3.366,3.366,0,1,1-4.76-4.76,3.42,3.42,0,0,1,2.38-.99,3.315,3.315,0,0,1,2.37.99,3.368,3.368,0,0,1,.01,4.76m-2.38-21.62h-.05a4.635,4.635,0,0,0-.04,9.27,4.635,4.635,0,0,0,.09-9.27m0,7.99a3.361,3.361,0,0,1-3.36-3.36,3.326,3.326,0,0,1,.98-2.38,3.36,3.36,0,0,1,2.38-.99,3.315,3.315,0,0,1,2.37.99,3.359,3.359,0,0,1-2.37,5.74m0-22.57h-.05a4.635,4.635,0,0,0-.04,9.27h.05a4.635,4.635,0,0,0,.04-9.27m.01,7.98a3.38,3.38,0,0,1-2.4-5.75,3.411,3.411,0,0,1,2.39-1h.01a3.4,3.4,0,0,1,3.37,3.37,3.387,3.387,0,0,1-3.37,3.38m36.78,39.83h-26.4a.643.643,0,0,0,.2,1.27h26.21a.68.68,0,0,0,.61-.66.65.65,0,0,0-.62-.61m0-14.6h-26.31a.66.66,0,0,0-.56.7.605.605,0,0,0,.68.53h26.2a.637.637,0,0,0,.62-.62.667.667,0,0,0-.63-.61m.01-29.19h-26.3a.657.657,0,0,0-.58.68.666.666,0,0,0,.69.56h26.19a.668.668,0,0,0,.62-.63.642.642,0,0,0-.62-.61m-.01,14.61h-26.4a.621.621,0,0,0-.39.24.613.613,0,0,0-.12.47.633.633,0,0,0,.7.53l26.22-.01a.613.613,0,0,0,.59-.63.63.63,0,0,0-.6-.6m0,0h-26.4a.621.621,0,0,0-.39.24.613.613,0,0,0-.12.47.633.633,0,0,0,.7.53l26.22-.01a.613.613,0,0,0,.59-.63.63.63,0,0,0-.6-.6m.01-14.61h-26.3a.657.657,0,0,0-.58.68.666.666,0,0,0,.69.56h26.19a.668.668,0,0,0,.62-.63.642.642,0,0,0-.62-.61m-.01,29.19h-26.31a.66.66,0,0,0-.56.7.605.605,0,0,0,.68.53h26.2a.637.637,0,0,0,.62-.62.667.667,0,0,0-.63-.61m0,14.6h-26.4a.643.643,0,0,0,.2,1.27h26.21a.68.68,0,0,0,.61-.66.65.65,0,0,0-.62-.61m-36.79-3.98h-.03a4.62,4.62,0,0,0-.03,9.24h.03a4.62,4.62,0,0,0,.03-9.24m0,7.96a3.372,3.372,0,0,1-3.37-3.37,3.38,3.38,0,0,1,3.37-3.36,3.365,3.365,0,0,1,0,6.73m0-51.79h-.05a4.635,4.635,0,0,0-.04,9.27h.05a4.635,4.635,0,0,0,.04-9.27m.01,7.98a3.38,3.38,0,0,1-2.4-5.75,3.411,3.411,0,0,1,2.39-1h.01a3.4,3.4,0,0,1,3.37,3.37,3.387,3.387,0,0,1-3.37,3.38m-.01,6.6h-.05a4.635,4.635,0,0,0-.04,9.27,4.635,4.635,0,0,0,.09-9.27m0,7.99a3.361,3.361,0,0,1-3.36-3.36,3.326,3.326,0,0,1,.98-2.38,3.36,3.36,0,0,1,2.38-.99,3.315,3.315,0,0,1,2.37.99,3.359,3.359,0,0,1-2.37,5.74m0,6.62h-.05a4.635,4.635,0,0,0-.04,9.27h.04a4.635,4.635,0,0,0,.05-9.27m2.38,7.01a3.366,3.366,0,1,1-4.76-4.76,3.42,3.42,0,0,1,2.38-.99,3.315,3.315,0,0,1,2.37.99,3.368,3.368,0,0,1,.01,4.76m-2.38-7.01h-.05a4.635,4.635,0,0,0-.04,9.27h.04a4.635,4.635,0,0,0,.05-9.27m2.38,7.01a3.366,3.366,0,1,1-4.76-4.76,3.42,3.42,0,0,1,2.38-.99,3.315,3.315,0,0,1,2.37.99,3.368,3.368,0,0,1,.01,4.76m-2.38-21.62h-.05a4.635,4.635,0,0,0-.04,9.27,4.635,4.635,0,0,0,.09-9.27m0,7.99a3.361,3.361,0,0,1-3.36-3.36,3.326,3.326,0,0,1,.98-2.38,3.36,3.36,0,0,1,2.38-.99,3.315,3.315,0,0,1,2.37.99,3.359,3.359,0,0,1-2.37,5.74m0-22.57h-.05a4.635,4.635,0,0,0-.04,9.27h.05a4.635,4.635,0,0,0,.04-9.27m.01,7.98a3.38,3.38,0,0,1-2.4-5.75,3.411,3.411,0,0,1,2.39-1h.01a3.4,3.4,0,0,1,3.37,3.37,3.387,3.387,0,0,1-3.37,3.38m-.01,35.85h-.03a4.62,4.62,0,0,0-.03,9.24h.03a4.62,4.62,0,0,0,.03-9.24m0,7.96a3.372,3.372,0,0,1-3.37-3.37,3.38,3.38,0,0,1,3.37-3.36,3.365,3.365,0,0,1,0,6.73m36.79-3.98h-26.4a.643.643,0,0,0,.2,1.27h26.21a.68.68,0,0,0,.61-.66.65.65,0,0,0-.62-.61m0-14.6h-26.31a.66.66,0,0,0-.56.7.605.605,0,0,0,.68.53h26.2a.637.637,0,0,0,.62-.62.667.667,0,0,0-.63-.61m.01-29.19h-26.3a.657.657,0,0,0-.58.68.666.666,0,0,0,.69.56h26.19a.668.668,0,0,0,.62-.63.642.642,0,0,0-.62-.61m-.01,14.61h-26.4a.621.621,0,0,0-.39.24.613.613,0,0,0-.12.47.633.633,0,0,0,.7.53l26.22-.01a.613.613,0,0,0,.59-.63.63.63,0,0,0-.6-.6m0,0h-26.4a.621.621,0,0,0-.39.24.613.613,0,0,0-.12.47.633.633,0,0,0,.7.53l26.22-.01a.613.613,0,0,0,.59-.63.63.63,0,0,0-.6-.6m.01-14.61h-26.3a.657.657,0,0,0-.58.68.666.666,0,0,0,.69.56h26.19a.668.668,0,0,0,.62-.63.642.642,0,0,0-.62-.61m-.01,29.19h-26.31a.66.66,0,0,0-.56.7.605.605,0,0,0,.68.53h26.2a.637.637,0,0,0,.62-.62.667.667,0,0,0-.63-.61m0,14.6h-26.4a.643.643,0,0,0,.2,1.27h26.21a.68.68,0,0,0,.61-.66.65.65,0,0,0-.62-.61m-36.79-3.98h-.03a4.62,4.62,0,0,0-.03,9.24h.03a4.62,4.62,0,0,0,.03-9.24m0,7.96a3.372,3.372,0,0,1-3.37-3.37,3.38,3.38,0,0,1,3.37-3.36,3.365,3.365,0,0,1,0,6.73m0-51.79h-.05a4.635,4.635,0,0,0-.04,9.27h.05a4.635,4.635,0,0,0,.04-9.27m.01,7.98a3.38,3.38,0,0,1-2.4-5.75,3.411,3.411,0,0,1,2.39-1h.01a3.4,3.4,0,0,1,3.37,3.37,3.387,3.387,0,0,1-3.37,3.38m-.01,6.6h-.05a4.635,4.635,0,0,0-.04,9.27,4.635,4.635,0,0,0,.09-9.27m0,7.99a3.361,3.361,0,0,1-3.36-3.36,3.326,3.326,0,0,1,.98-2.38,3.36,3.36,0,0,1,2.38-.99,3.315,3.315,0,0,1,2.37.99,3.359,3.359,0,0,1-2.37,5.74m0,6.62h-.05a4.635,4.635,0,0,0-.04,9.27h.04a4.635,4.635,0,0,0,.05-9.27m2.38,7.01a3.366,3.366,0,1,1-4.76-4.76,3.42,3.42,0,0,1,2.38-.99,3.315,3.315,0,0,1,2.37.99,3.368,3.368,0,0,1,.01,4.76m-2.38-21.62h-.05a4.635,4.635,0,0,0-.04,9.27,4.635,4.635,0,0,0,.09-9.27m0,7.99a3.361,3.361,0,0,1-3.36-3.36,3.326,3.326,0,0,1,.98-2.38,3.36,3.36,0,0,1,2.38-.99,3.315,3.315,0,0,1,2.37.99,3.359,3.359,0,0,1-2.37,5.74m0-22.57h-.05a4.635,4.635,0,0,0-.04,9.27h.05a4.635,4.635,0,0,0,.04-9.27m.01,7.98a3.38,3.38,0,0,1-2.4-5.75,3.411,3.411,0,0,1,2.39-1h.01a3.4,3.4,0,0,1,3.37,3.37,3.387,3.387,0,0,1-3.37,3.38m-.01,21.21h-.05a4.635,4.635,0,0,0-.04,9.27h.04a4.635,4.635,0,0,0,.05-9.27m2.38,7.01a3.366,3.366,0,1,1-4.76-4.76,3.42,3.42,0,0,1,2.38-.99,3.315,3.315,0,0,1,2.37.99,3.368,3.368,0,0,1,.01,4.76m-2.38,7.63h-.03a4.62,4.62,0,0,0-.03,9.24h.03a4.62,4.62,0,0,0,.03-9.24m0,7.96a3.372,3.372,0,0,1-3.37-3.37,3.38,3.38,0,0,1,3.37-3.36,3.365,3.365,0,0,1,0,6.73m36.79-3.98h-26.4a.643.643,0,0,0,.2,1.27h26.21a.68.68,0,0,0,.61-.66.65.65,0,0,0-.62-.61m0-14.6h-26.31a.66.66,0,0,0-.56.7.605.605,0,0,0,.68.53h26.2a.637.637,0,0,0,.62-.62.667.667,0,0,0-.63-.61m.01-29.19h-26.3a.657.657,0,0,0-.58.68.666.666,0,0,0,.69.56h26.19a.668.668,0,0,0,.62-.63.642.642,0,0,0-.62-.61m-.01,14.61h-26.4a.621.621,0,0,0-.39.24.613.613,0,0,0-.12.47.633.633,0,0,0,.7.53l26.22-.01a.613.613,0,0,0,.59-.63.63.63,0,0,0-.6-.6m0,0h-26.4a.621.621,0,0,0-.39.24.613.613,0,0,0-.12.47.633.633,0,0,0,.7.53l26.22-.01a.613.613,0,0,0,.59-.63m-.59-15.21s-26.89.33-26.88.68a.666.666,0,0,0,.69.56h26.19a.668.668,0,0,0,.62-.63.642.642,0,0,0-.62-.61m-.01,29.19h-26.31a.66.66,0,0,0-.56.7.605.605,0,0,0,.68.53h26.2a.637.637,0,0,0,.62-.62.667.667,0,0,0-.63-.61m0,14.6h-26.4a.643.643,0,0,0,.2,1.27h26.21a.68.68,0,0,0,.61-.66.65.65,0,0,0-.62-.61m-36.79-3.98h-.03a4.62,4.62,0,0,0-.03,9.24h.03a4.62,4.62,0,0,0,.03-9.24m0,7.96a3.372,3.372,0,0,1-3.37-3.37,3.38,3.38,0,0,1,3.37-3.36,3.365,3.365,0,0,1,0,6.73m0-22.6h-.05a4.635,4.635,0,0,0-.04,9.27h.04a4.635,4.635,0,0,0,.05-9.27m2.38,7.01a3.366,3.366,0,1,1-4.76-4.76,3.42,3.42,0,0,1,2.38-.99,3.315,3.315,0,0,1,2.37.99,3.368,3.368,0,0,1,.01,4.76m-2.38-21.62h-.05a4.635,4.635,0,0,0-.04,9.27,4.635,4.635,0,0,0,.09-9.27m0,7.99a3.361,3.361,0,0,1-3.36-3.36,3.326,3.326,0,0,1,.98-2.38,3.36,3.36,0,0,1,2.38-.99,3.315,3.315,0,0,1,2.37.99,3.359,3.359,0,0,1-2.37,5.74m0-22.57h-.05a4.635,4.635,0,0,0-.04,9.27h.05a4.635,4.635,0,0,0,.04-9.27m.01,7.98a3.38,3.38,0,0,1-2.4-5.75,3.411,3.411,0,0,1,2.39-1h.01a3.4,3.4,0,0,1,3.37,3.37,3.387,3.387,0,0,1-3.37,3.38m-.01-7.98h-.05a4.635,4.635,0,0,0-.04,9.27h.05a4.635,4.635,0,0,0,.04-9.27m.01,7.98a3.38,3.38,0,0,1-2.4-5.75,3.411,3.411,0,0,1,2.39-1h.01a3.4,3.4,0,0,1,3.37,3.37,3.387,3.387,0,0,1-3.37,3.38m-.01,6.6h-.05a4.635,4.635,0,0,0-.04,9.27,4.635,4.635,0,0,0,.09-9.27m0,7.99a3.361,3.361,0,0,1-3.36-3.36,3.326,3.326,0,0,1,.98-2.38,3.36,3.36,0,0,1,2.38-.99,3.315,3.315,0,0,1,2.37.99,3.359,3.359,0,0,1-2.37,5.74m0,6.62h-.05a4.635,4.635,0,0,0-.04,9.27h.04a4.635,4.635,0,0,0,.05-9.27m2.38,7.01a3.366,3.366,0,1,1-4.76-4.76,3.42,3.42,0,0,1,2.38-.99,3.315,3.315,0,0,1,2.37.99,3.368,3.368,0,0,1,.01,4.76m-2.38,7.63h-.03a4.62,4.62,0,0,0-.03,9.24h.03a4.62,4.62,0,0,0,.03-9.24m0,7.96a3.372,3.372,0,0,1-3.37-3.37,3.38,3.38,0,0,1,3.37-3.36,3.365,3.365,0,0,1,0,6.73m36.79-3.98h-26.4a.643.643,0,0,0,.2,1.27h26.21a.68.68,0,0,0,.61-.66.65.65,0,0,0-.62-.61m0-14.6h-26.31a.66.66,0,0,0-.56.7.605.605,0,0,0,.68.53h26.2a.637.637,0,0,0,.62-.62.667.667,0,0,0-.63-.61m.01-29.19c-26.64.04-26.89.33-26.88.68a.666.666,0,0,0,.69.56h26.19a.668.668,0,0,0,.62-.63.642.642,0,0,0-.62-.61m-.01,14.61h-26.4a.621.621,0,0,0-.39.24.613.613,0,0,0-.12.47.633.633,0,0,0,.7.53l26.22-.01a.613.613,0,0,0,.59-.63.63.63,0,0,0-.6-.6m-36.79-18.63h-.05a4.635,4.635,0,0,0-.04,9.27h.05a4.635,4.635,0,0,0,.04-9.27m.01,7.98a3.38,3.38,0,0,1-2.4-5.75,3.411,3.411,0,0,1,2.39-1h.01a3.4,3.4,0,0,1,3.37,3.37,3.387,3.387,0,0,1-3.37,3.38m36.79-3.96c-26.64.04-26.53,1.26,0,1.24a.668.668,0,0,0,.62-.63.642.642,0,0,0-.62-.61m-36.8,10.56h-.05a4.635,4.635,0,0,0-.04,9.27,4.635,4.635,0,0,0,.09-9.27m0,7.99a3.361,3.361,0,0,1-3.36-3.36,3.326,3.326,0,0,1,.98-2.38,3.36,3.36,0,0,1,2.38-.99,3.315,3.315,0,0,1,2.37.99,3.359,3.359,0,0,1-2.37,5.74m36.79-3.94h-26.4a.621.621,0,0,0-.39.24.613.613,0,0,0-.12.47.633.633,0,0,0,.7.53l26.22-.01a.613.613,0,0,0,.59-.63.63.63,0,0,0-.6-.6m-36.79,10.56h-.05a4.635,4.635,0,0,0-.04,9.27h.04a4.635,4.635,0,0,0,.05-9.27m2.38,7.01a3.366,3.366,0,1,1-4.76-4.76,3.42,3.42,0,0,1,2.38-.99,3.315,3.315,0,0,1,2.37.99,3.368,3.368,0,0,1,.01,4.76m34.41-2.99h-26.31a.66.66,0,0,0-.56.7.605.605,0,0,0,.68.53h26.2a.637.637,0,0,0,.62-.62.667.667,0,0,0-.63-.61m-36.79,10.62h-.03a4.62,4.62,0,0,0-.03,9.24h.03a4.62,4.62,0,0,0,.03-9.24m0,7.96a3.372,3.372,0,0,1-3.37-3.37,3.38,3.38,0,0,1,3.37-3.36,3.365,3.365,0,0,1,0,6.73m36.79-3.98h-26.4a.643.643,0,0,0,.2,1.27h26.21a.68.68,0,0,0,.61-.66.65.65,0,0,0-.62-.61" fill="#fff"/>
    </g>
  </g>
</svg>
