<svg xmlns="http://www.w3.org/2000/svg" width="202.867" height="197.438" viewBox="0 0 202.867 197.438">
  <g id="illustration-1" transform="translate(-97.664 -34.414)">
    <path id="Path_20391" data-name="Path 20391" d="M286.417,218.3c-1.817-2.03-3.737-2.53-5.816-1.652q-3.441,1.451-6.862,2.95c-2.33,1.024-3.114.559-3.007-2.026.322-7.843.645-15.693,1.074-23.533.5-9.1,1.131-18.2,1.65-27.3.375-6.573.659-13.151,1-19.727.041-.788.182-1.572.316-2.658l-5.662-1.817c-.892,7.606-1.746,14.93-2.605,22.252l-.477-.041c.347-4.934.7-9.871,1.054-14.966-1.889-.689-3.91-1.421-5.929-2.164-.727-.269-1.47-.542-.991-1.624,2.343.936,4.668,1.865,7.192,2.872.234-1.77.5-3.381.611-5,.022-.316-.524-.842-.915-.983-2.294-.829-4.626-1.548-6.922-2.366a4.387,4.387,0,0,1-1.115-.882c.105-.144.212-.289.317-.435q4.3,1.423,8.581,2.836c.306-.614.586-1.173,1.019-2.046-2.253-.477-4.475-.9-6.67-1.441-.6-.149-1.724.14-1.58-1.366,2.764.63,5.623.845,8.054,1.977,1.947.908,3.53.583,5.315.232,5.26-1.035,10.513-2.125,15.793-3.057a10.026,10.026,0,0,1,3.849.209c1.828.416,3.577,1.173,5.394,1.655a1.666,1.666,0,0,1,1.424,2.118c-.842,8.566-1.7,17.131-2.4,25.708q-1.75,21.231-3.28,42.481c-.152,2.172-.9,3.285-3.027,3.847-2.153.567-4.2,1.531-6.564,2.423a6.988,6.988,0,0,0,.956.857c.856.493,1.751.919,2.605,1.412,1.137.659,1.164,1.432,0,2.071-1.236.678-2.542,1.222-3.822,1.81q-55.306,25.28-110.609,50.561c-2.61,1.19-5.2,2.413-7.814,3.608a4.7,4.7,0,0,1-1.322.446c-1.668.22-2.159-.193-2.145-1.878.057-6.823.151-13.644.209-20.462.079-9.409.108-18.816.212-28.227.121-11.006.3-22.008.451-33.014.027-1.925,0-1.917-1.875-1.592-8.526,1.481-17.056,2.938-25.578,4.453a1.3,1.3,0,0,0-.8.95c-.162,6.521-.256,13.047-.388,19.568-.03,1.479.135,1.7,1.589,1.418,3.365-.645,6.717-1.355,10.078-2.026a12.453,12.453,0,0,1,2.082-.316c.458-.011,1.258.105,1.324.333.225.773-.308,1.159-1.071,1.3-2.029.389-4.048.824-6.071,1.231-2.487.5-4.984.959-7.465,1.489a2.448,2.448,0,0,1-2.374-.675c-3.822-3.266-7.755-6.407-11.654-9.58a2.437,2.437,0,0,0-.612-.207c-.05,1.121-.14,2.164-.14,3.21,0,4.222.072,8.448,0,12.672-.022,1.288-.5,2.564-.628,3.857-.419,4.277-.777,8.561-1.148,12.838-.133,1.526-.627,1.817-1.931.959-1.719-1.135-3.374-2.371-5.066-3.566.264-1.044.658-.817,1.266-.367,1.408,1.049,2.88,2.019,4.324,3.023l.44-.237c.09-3.114.185-6.231.254-9.341a.782.782,0,0,0-.286-.59c-1.47-.884-2.958-1.734-4.879-2.845V236.5c-.182.006-.363.011-.542.016a9.366,9.366,0,0,1-.177-1.24c-.058-2.861-.068-5.725-.149-8.582-.228-7.955-.492-15.911-.707-23.866a11.367,11.367,0,0,1,.383-2.118c-2.922-2.346-6.106-4.9-9.283-7.46a20.211,20.211,0,0,0-1.925-1.636c-2.528-1.536-3.015-3.781-2.994-6.595.058-7.933-.177-15.87-.286-23.8-.03-2.087.331-2.382,2.346-2.677,6.933-1.016,13.857-2.1,20.784-3.14,1.906-.286,3.814-.572,5.727-.779,1.068-.118,1.577-.51,1.584-1.671q.08-10.093.276-20.181a1.469,1.469,0,0,0-1.179-1.625,10.421,10.421,0,0,1-2.712-1.437c1.413-.84,2.346.793,3.8.653.038-.448.105-.933.115-1.413.068-4.329.121-8.658.187-12.984a5.3,5.3,0,0,1,.124-1.4c.074-.25.443-.617.627-.587a1.118,1.118,0,0,1,.785.594,4.984,4.984,0,0,1,.124,1.536c-.094,7.76-.209,15.522-.3,23.28-.053,4.605-.061,9.214-.13,13.82a2.162,2.162,0,0,0,1.154,2.187q12.173,7,24.307,14.064c.28.16.586.27,1.094.5a11.254,11.254,0,0,0,.177-1.418q-.141-26.533-.265-53.07c0-.5.539-1,.826-1.5.292.495.837.988.845,1.489q.139,13.333.13,26.673a2.692,2.692,0,0,0,1.512,2.715c1.526.813,3.026,1.677,4.8,2.665.047-.716.1-1.193.105-1.671q.247-17.925.5-35.844a14.954,14.954,0,0,1,.443-2.445c.248,0,.5.006.746.009a15.229,15.229,0,0,1,.458,2.706c-.077,9.362-.2,18.722-.316,28.085-.027,2.208-.053,4.419-.066,6.629,0,.407.068.813.126,1.454,2.264-.364,4.376-.78,6.506-1.032,5.32-.627,10.648-1.178,15.974-1.76,1.4-.152,2.8-.394,4.2-.44a4.708,4.708,0,0,1,1.647.622c-.488.338-.945.909-1.473.981-5.967.8-11.946,1.528-17.921,2.275-2.475.308-4.968.5-7.415.956a10.639,10.639,0,0,1-7.829-1.792c-.5-.312-1.043-.567-1.911-1.035v3q.016,11.072.052,22.148a1.3,1.3,0,0,0,.378.97c1.666,1.029,3.376,1.988,5.348,3.13.312-8.622-.331-16.937.25-25.219.185-.017.369-.036.554-.052a15.839,15.839,0,0,1,.374,2.487c-.036,4.222-.193,8.446-.2,12.669,0,3.239.165,6.476.24,9.715.017.831.316.961,1.153.815,7.969-1.393,15.947-2.721,23.923-4.068,4.6.934,8.829-1.032,13.222-1.729,4.45-.707,8.872-1.594,13.316-2.363,6.484-1.126,12.973-2.216,19.46-3.324.5-.085,1-.212,1.509-.32-.523-1.969-.223-2.418,1.812-2.731,4.7-.721,9.4-1.413,14.09-2.164a2.748,2.748,0,0,1,3.118,1.19c1.08,1.584,2.457,2.965,3.624,4.5.777,1.018,1.533,2,.98,3.552-.3.829.155,1.93.286,2.9.292,2.2.1,2.545-2.04,3.042-14.38,3.313-28.771,6.567-43.141,9.922-12.273,2.867-24.529,5.83-36.776,8.8a7.9,7.9,0,0,1-5.216-.323c-2.249-.956-4.56-1.765-6.849-2.632-.424-.157-.867-.276-1.344-.426v84.5q60.215-27.524,120.124-54.9Zm-125.45-43.241a6.245,6.245,0,0,0-.71-.619c-10.155-5.907-20.3-11.827-30.494-17.671a4.751,4.751,0,0,0-2.812-.471c-6.754.933-13.493,1.968-20.237,2.974-1.693.253-3.385.518-5.337.815,3.618,3.007,6.994,5.816,10.373,8.627-.13.166-.264.331-.394.5-4.079-2.337-7.152-6.121-11.354-8.417a2.437,2.437,0,0,0-.192.57c.014,8.653.017,17.307.1,25.957a2.628,2.628,0,0,0,.919,1.756c3.17,2.577,6.314,5.2,9.644,7.565a202.743,202.743,0,0,1,17.656,14.434c1.767,1.583,3.607,3.086,5.626,4.808.113-.777.232-1.267.248-1.76.157-4.414.328-8.825.43-13.237.074-3.287.027-6.576.094-9.859.009-.426.388-.848.594-1.27a5.458,5.458,0,0,1,.6,1.35,14.338,14.338,0,0,1,.027,2.123c9.873-1.724,19.573-3.422,29.246-5.11-.152-3.583-.333-7-.426-10.431-.035-1.19-.388-1.424-1.54-1.087-1.8.524-3.654.884-5.5,1.242q-10.312,2-20.636,3.932c-1.069.2-1.625.554-1.434,1.729a6.118,6.118,0,0,1-.105,1.424l-.462.061c-.214-.691-.426-1.38-.653-2.114a2.859,2.859,0,0,0-1,.133c-1.267.678-2.272.281-3.329-.546-1.438-1.127-3-2.1-4.477-3.178a7.466,7.466,0,0,1-.98-1.054c.108-.129.218-.256.328-.388a21.164,21.164,0,0,1,1.911,1c1.412.925,2.757,1.957,4.2,2.834a6.752,6.752,0,0,0,1.873.5c.151-.253.3-.509.451-.758-.928-.718-1.858-1.438-2.861-2.216.313-.118.41-.192.479-.173a.993.993,0,0,1,.5.225c1.382,1.781,3,1.36,4.934.933,7.62-1.682,15.294-3.115,22.946-4.651.528-.11,1.038-.281,1.756-.476ZM298.7,140.5a38.131,38.131,0,0,1-4.437.871,75.425,75.425,0,0,0-17.07,3.428c-.694.217-.986.432-1.022,1.2-.383,8.456-.809,16.905-1.214,25.361-.022.441.047.889.09,1.583,2.41-.733,4.616-1.407,6.849-2.087.182,1.727.182,1.727-1.2,2.164-1.525.482-3.027,1.043-4.574,1.418a1.675,1.675,0,0,0-1.437,1.886c-.088,2.767-.275,5.53-.411,8.3q-.773,15.708-1.533,31.414c-.025.493,0,.986,0,1.548a3.146,3.146,0,0,0,.752-.047c5.716-2.291,11.447-4.544,17.128-6.917,1.677-.7,3-1.85,2.465-4.04a3.509,3.509,0,0,1,.031-1.121q1.472-16.273,2.932-32.545c.124-1.416.016-2.852.016-4.444-1.256.336-2.186.583-3.122.835-.327-1.884-.344-1.974,1.31-2.341a2.012,2.012,0,0,0,1.787-2.076c.638-5.932,1.372-11.852,2.046-17.78.242-2.088.4-4.189.623-6.6Zm-53.476,29.739a54.965,54.965,0,0,1-4.458-3.845c-1.365-1.454-2.72-1.693-4.689-1.322-13.534,2.553-27.094,4.942-40.648,7.393-.513.093-1.011.281-1.754.495a56.888,56.888,0,0,1,4.214,5.067c1.245,1.9,2.649,2.107,4.736,1.639,11.323-2.538,22.682-4.918,34.021-7.383,2.743-.6,5.46-1.3,8.578-2.043Zm-67.066,20.085c.915-.165,1.511-.248,2.093-.385q38.826-9.016,77.651-18.037c2.161-.5,2.107-.493,1.862-2.68-.119-1.071-.468-1.35-1.528-1.079-3.6.923-7.222,1.76-10.83,2.647a3.4,3.4,0,0,0-.835.435,8.345,8.345,0,0,1-1.979,1.118c-3.156.754-6.328,1.468-9.517,2.065-12.188,2.275-24.119,5.736-36.414,7.568-6.4.955-12.662,2.831-18.975,4.345a1.821,1.821,0,0,0-1.179.967,18,18,0,0,0-.349,3.035Zm19.433-10.05c-2.066-2.461-3.894-4.585-5.662-6.758a2.288,2.288,0,0,0-2.445-.9c-6.473,1.143-12.955,2.223-19.433,3.337a11.207,11.207,0,0,0-1.283.378,2.561,2.561,0,0,0,.292.565c2.729,2.439,5.442,4.9,8.228,7.272a2.258,2.258,0,0,0,1.7.322c4.863-1.043,9.709-2.15,14.561-3.249,1.223-.283,2.44-.584,4.04-.967Zm-84.428,21.206v2.542c0,6.094-.035,12.185.016,18.276.011,1.292-.113,2.888.561,3.806,1.288,1.767,3.448,2.509,5.621,3.4.232-2,.567-3.711.608-5.435.129-5.442.149-10.886.2-16.332a1.059,1.059,0,0,0-.232-.746c-2.156-1.784-4.335-3.542-6.771-5.516ZM259.24,166.069c-1.457-2.071-2.684-3.9-4.023-5.643a1.806,1.806,0,0,0-1.452-.518c-4.131.6-8.249,1.27-12.367,1.936a4.2,4.2,0,0,0-.835.265c1.837,2,3.624,4.04,5.551,5.948a2.682,2.682,0,0,0,2.081.6c3.126-.606,6.221-1.371,9.326-2.088.48-.115.953-.273,1.721-.5Zm-83.355,24.309c1.142-3.018.86-4.266-1.251-6.162q-3.4-3.067-6.818-6.121c-.391-.352-.831-.65-1.619-1.258.177,3.494.312,6.524.513,9.553a1.2,1.2,0,0,0,.681.8c2.793,1.082,5.606,2.112,8.493,3.191Zm95.647-48.515c0,.09.011.182.016.272,1.076.4,2.164.765,3.219,1.209a4.546,4.546,0,0,0,3.235.129c4.849-1.409,9.7-2.834,14.826-2.974a24.443,24.443,0,0,0,4-.762c-2.465-.941-4.736-2.211-7.451-1.592-3.61.824-7.269,1.443-10.9,2.186-2.326.479-4.634,1.022-6.951,1.533Z" transform="translate(0 -43.737)" fill="#fff" fill-rule="evenodd"/>
    <path id="Path_20392" data-name="Path 20392" d="M261.643,67.43H285.75c.047-.214.1-.427.146-.644a5.005,5.005,0,0,0-1.512-.606c-3.428-.152-6.862-.225-10.292-.333q-8.176-.264-16.354-.542a1.362,1.362,0,0,1-.689-.105,11.222,11.222,0,0,1-1.043-.9c.419-.292.817-.809,1.255-.842,1.441-.108,2.9-.041,3.96-.041.889-1.826,1.735-3.5,2.519-5.2.6-1.308,1.121-2.657,1.688-3.981.2-.473.462-.925.671-1.4.333-.757.8-.909,1.572-.535,1.865.9,1.947.909.862,2.717-.749,1.251-1.812,2.319-2.559,3.571-.685,1.146-1.112,2.44-1.7,3.645a8.592,8.592,0,0,1-.933,1.231c1.691.133,3.373.328,5.061.385,5.265.171,10.533.265,15.8.437,2.9.094,2.971.115,3.781,2.836.3.991.8,1.229,1.712,1.46q8,2.04,15.949,4.268a1.981,1.981,0,0,0,2.662-1c1.127-1.9,2.387-3.721,3.634-5.543a13.394,13.394,0,0,1,1.376-1.479l.559.22a6.3,6.3,0,0,1-.441,2.077c-1.5,2.39-3.109,4.708-4.689,7.046a1.847,1.847,0,0,1-2.263.619q-7.843-2.049-15.693-4.076c-.529-.14-1.058-.275-1.795-.466,2.594,8.778,5.12,17.34,7.747,26.229.367-.795.664-1.335.871-1.909.3-.835.515-1.7.809-2.542.374-1.074.9-1.985.225-3.287a2.1,2.1,0,0,1,1.977-2.955c1.182.14,2.559,2.57,2.088,3.676q-1.01,2.374-2.008,4.75c-.746,1.774-1.361,3.615-2.272,5.3a3.9,3.9,0,0,0-.177,3.48,16.857,16.857,0,0,1,.634,1.859,5.035,5.035,0,0,1,.017,1.182l-.495.108c-.4-1.055-.793-2.112-1.189-3.181-2.395,2.065-.3,3.924.24,5.881q8.87-1.081,17.744-2.161c2.8-.342,5.592-.736,8.395-1.024,1.25-.129,1.743-.6,1.746-1.925.014-4.51.036-9.024.276-13.525.311-5.768.84-11.521,1.267-17.279.176-2.374.427-4.75.457-7.127.011-.876.328-1.083,1-1.159,1.168-.13,2.336-.265,3.508-.339q6.962-.445,13.928-.848c1.236-.068,1.686.5,1.688,2.029q.014,9.3,0,18.6c0,2.22-.009,2.252,2.082,2.778a1.946,1.946,0,0,1,1.5,2.1,23.444,23.444,0,0,0,.592,4.682c.463-.727.944-1.445,1.385-2.184.749-1.247,1.511-2.49,2.2-3.773.369-.694.939-1.335.187-2.278-.556-.7.118-2.231.952-2.487a1.854,1.854,0,0,1,2.431.817,1.787,1.787,0,0,1-.452,2.6,5.355,5.355,0,0,0-1.178,1.6c-1.54,2.633-2.866,5.419-4.637,7.886a4.059,4.059,0,0,0-.214,4.676c.63,1.209.95,2.2.077,3.36a.948.948,0,0,0-.162.645c.342,2.6.686,5.193,1.083,7.782A13.335,13.335,0,0,0,354,114.3a11.736,11.736,0,0,0-2.211.842,2.194,2.194,0,0,0-1.013,1.4c-.2,2.055-.22,4.127-.339,6.19a7.675,7.675,0,0,1-.3,1.313c-.149-.014-.3-.027-.451-.042a10.842,10.842,0,0,1-.1-1.272c.089-2.629.24-5.26.281-7.89.017-1.142.691-1.421,1.807-1.531-.261-2.8-.518-5.54-.78-8.321-1.317-.353-2.61-.711-3.91-1.039-.311-.079-.8-.218-.945-.072-1.738,1.735-4.065,1.245-6.115,1.515-12.824,1.688-25.664,3.238-38.505,4.806-1.438.176-2.9.176-4.346.3a2.041,2.041,0,0,0-1.008.331c-1.945,1.454-3.846.681-5.716-.121a1.7,1.7,0,0,1-.733-.972c-.586-1.735,1.2-5.119,2.943-5.669,1.449-.457,3.338-5.26,2.737-6.639s-.983-2.823-1.465-4.257c-.986-.009-1.738,1.823-2.663.493a3.62,3.62,0,0,1-.1-2.633c.078-.3,1.179-.338,1.969-.534-.342-1.162-.749-2.589-1.179-4.007-1.616-5.307-3.285-10.6-4.833-15.933a2.049,2.049,0,0,0-2.395-1.812c-5.868.079-11.739-.035-17.61-.053-1.429,0-2.864.115-4.29.069a4.079,4.079,0,0,1-1.325-.57c.077-.25.16-.5.242-.757Zm64.442,37.648,19.556-2.018c.046-.446.094-.955.162-1.635-2.223,1.52-3.472,1.63-4.832.559-1.755-1.382-2.454-3.026-1.894-4.455.884-2.253,2.387-3.542,4.18-3.305a4.314,4.314,0,0,1,2.476,1.105,19.476,19.476,0,0,1,2.052,3.363c1.226-.5,2.451-1.9,2.33-2.831-.256-1.993-.578-3.981-.738-5.981-.085-1.069-.567-1.454-1.548-1.609-2-.317-2.046-.432-2.04-2.431.022-6.256,0-12.512.066-18.768.016-1.33-.338-1.826-1.759-1.715-4.832.375-9.666.655-14.5.914-.919.05-1.159.389-1.218,1.27-.426,6.421-.967,12.832-1.365,19.254-.374,6.033-.619,12.077-.928,18.281Zm-35.279,5,.443-.068a3.534,3.534,0,0,1,.2-1.335c.627-1,1.2-2.454,2.114-2.762a2.771,2.771,0,0,0,1.85-1.927c.98-2.283,2.013-4.543,2.974-6.83.914-2.175,1.766-4.373,2.674-6.629-.5-.1-.762-.16-.842-.176-2.117,5.108-4.205,10.139-6.353,15.319-1.313-1.008-1.906-.575-2.294.443a23.543,23.543,0,0,0-.934,2.492,4.59,4.59,0,0,0,.166,1.473ZM346.284,97.56a3.469,3.469,0,0,0-4.651-1.914c-.873.385-1.941,3.235-1.531,4.075a2.7,2.7,0,0,0,3.656,1.314,9.375,9.375,0,0,1-.8-.768,2.994,2.994,0,0,1,.473-3.71c1.19-1.2,1.65.041,2.322.627.107.091.231.162.531.377Zm-53.958,11.668c.269.7.492,1.365.523,1.355a8.141,8.141,0,0,0,2.732-.983,1.556,1.556,0,0,0,.1-2.374c-.352-.342-1.1-.323-1.682-.358-.176-.011-.375.347-.562.535.339.3.686.6,1.022.908.061.057.074.165.129.3-.218,1.132-.958,1.16-2.266.62Zm58.762-8.971c-.2.03-.4.057-.594.085a13.277,13.277,0,0,0-1.36,2.223c-.333.884.22,1.449,1.094,1.138.623-.223,1.448-.8,1.551-1.333.122-.634-.43-1.4-.692-2.114Zm-3.5,3.073c.7-1.5,1.333-2.85,1.961-4.2-1.635.765-2.709,1.842-2.674,3.563,0,.247.532.482.713.633ZM300.659,86.8c-1.032.586-1.548,1.313-.867,2.217a1.6,1.6,0,0,0,1.572.1C302.361,88.1,301.265,87.531,300.659,86.8Zm42.719,12.7.526.3c.966-.1,1.3-.758,1.22-1.635-.022-.234-.468-.432-.718-.645q-.513.992-1.028,1.983Zm13.669-13.565c.471-.535.956-.851,1.017-1.237.047-.281-.471-.65-.736-.981a5.009,5.009,0,0,0-.988,1.107C356.258,84.993,356.695,85.409,357.047,85.937Z" transform="translate(-94.691 -10.585)" fill="#fff" fill-rule="evenodd"/>
    <path id="Path_20393" data-name="Path 20393" d="M174.667,442.409c-1.683.853-3.118,1.619-4.583,2.316q-3.686,1.76-7.41,3.447c-1.168.526-2.34,1.38-3.591.22-1.36,2.093-1.142,5.263.353,6.314,1.154.813,4.73-.317,5.948-1.878,1.148-1.473.909-3.038-.721-4.409.815-.749,1.278-.022,1.661.44a3.971,3.971,0,0,1-.882,5.408,10.426,10.426,0,0,1-3.695,1.652c-3.244.655-6.413-3.233-5.321-6.38.243-.7.559-1.385.914-2.264-1.138-.711-2.316-1.441-3.488-2.181-1.62-1.024-3.282-1.988-4.835-3.109a2.884,2.884,0,0,0-3.4-.144,4.12,4.12,0,0,1-4.684-.5c-1.49-1.05-1.094-2.721-.435-4.354-1.985-1.076-3.916-2.112-5.84-3.166a9.508,9.508,0,0,1-1.421-.9c-.328-.269-.856-.774-.779-.964a3.18,3.18,0,0,1,1.154-1.647c4.849-2.457,9.754-4.811,14.628-7.22a72.9,72.9,0,0,0,7.181-3.966q-7.295,1.828-14.584,3.654c-.041-.14-.083-.281-.124-.424,1.344-.462,2.673-.981,4.034-1.376q5.481-1.588,10.987-3.073c.608-.162,1.522-.54,1.256,1.112,5.581-2.558,11-5.037,16.42-7.523.113.248.225.5.338.743-6.392,3.09-12.87,6-19.344,8.935s-12.723,6.4-19.265,9.72c1.7,1.168,3.266,2.33,4.916,3.365,4.009,2.517,8.052,4.979,12.091,7.454,2.239,1.371,4.505,2.706,6.742,4.081a1.934,1.934,0,0,0,2.143,0q5.613-2.61,11.4-4.839c2.415-.939,2.5-.806,2.481-3.422-.035-4.558-.162-9.115-.157-13.674,0-3.568.144-7.138.237-10.706a9.181,9.181,0,0,1,.165-1.817c.066-.286.41-.507.628-.757.176.292.495.583.5.876.022,1.454-.053,2.908-.069,4.362-.068,6.433-.149,12.87-.181,19.3-.017,3.61.027,7.223.093,10.835.041,2.228.207,4.46.229,6.692,0,.388-.432.779-.664,1.167a3.555,3.555,0,0,1-.524-1.148c-.152-2.95-.245-5.9-.363-8.858-.013-.358-.069-.722-.14-1.4Zm-28.72-1.745.176-.441a25.567,25.567,0,0,0-2.483-1.333c-.311-.13-.779.126-1.173.2.223.322.385.831.681.928a27.457,27.457,0,0,0,2.8.642Zm-12.761-8.485,1.942.752c.587.225,1.178.448,1.765.675-2.643-2.231-2.946-2.341-3.707-1.427Z" transform="translate(-20.804 -224.954)" fill="#fff" fill-rule="evenodd"/>
    <path id="Path_20394" data-name="Path 20394" d="M158,79.123c.7.276,1.079.452,1.47.575,6.375,1.969,12.756,3.915,19.121,5.918,1.094.344,1.6-.025,2.12-.941,1.644-2.9,3.37-5.747,5.073-8.611a2.609,2.609,0,0,1,.681-.884,4.961,4.961,0,0,1,1.2-.424c.03.466.254,1.039.061,1.377-2.057,3.582-4.18,7.127-6.286,10.681a1.6,1.6,0,0,1-2.033.8q-11.244-3.436-22.49-6.868c-.98-.3-1.317-.9-.773-1.776q2.494-4,5.1-7.933c.165-.248.71-.243,1.079-.356.09.378.349.817.237,1.121a9.681,9.681,0,0,1-1.018,1.832c-1.127,1.774-2.275,3.533-3.542,5.493Z" transform="translate(-34.816 -21.686)" fill="#fff" fill-rule="evenodd"/>
    <path id="Path_20395" data-name="Path 20395" d="M238.826,366.935a34.7,34.7,0,0,1,2.976,3.791,2.34,2.34,0,0,1-.272,2.1c-.243.322-1.3.2-1.917.016a16.6,16.6,0,0,1-2.247-1.127,4.483,4.483,0,0,1-2.768-4.595c.14-2.665.372-5.328.451-8a3.233,3.233,0,0,0-.634-1.961,2.163,2.163,0,0,1-.16-2.932c.3-.421.572-.86.857-1.286,1.035-1.548,1.639-1.781,3.411-1.328,1.8.462,3.492,2.823,3.016,4.461a11.562,11.562,0,0,1-1.339,2.238,4.714,4.714,0,0,0-.763,1.641c-.273,2.467-.44,4.942-.609,6.98Zm-1.3-8.558-.572-.644c-.133.016-.265.034-.4.047q-.259,1.953-.52,3.9c.115.017.228.036.339.05a16.682,16.682,0,0,1,.349-2.319c.115-.4.542-.711.829-1.065a83.949,83.949,0,0,1-1.1,9.3c-.407,1.831.581,2.114,1.639,2.724.817.471,1.289.306,1.485-.637a3.508,3.508,0,0,0-.323-.289c-1.105-.722-2.7-1.231-1.209-3.026.17-.2.058-.638.085-.967.14-1.679.187-3.373.452-5.034.166-1.052-.009-1.719-1.06-2.043Zm2.3-3.985c-.912-1.138-1.966-1.881-3.12-1.258a4.221,4.221,0,0,0-1.745,2.343c-.11.363,1,1.094,1.683,1.787.57-1.759,1.4-2.779,3.181-2.872Zm.6,2.2c-.54-.5-1.039-1.085-1.131-1.029a11.44,11.44,0,0,0-1.492,1.292c.336.323.774.972.983.9A6.744,6.744,0,0,0,240.423,356.587Z" transform="translate(-81.385 -189.57)" fill="#fff" fill-rule="evenodd"/>
    <path id="Path_20396" data-name="Path 20396" d="M408.591,114.938q0,7.681,0,15.367a2.7,2.7,0,0,1-.077,1.112,5.38,5.38,0,0,1-.887,1.047c-.261-.336-.732-.661-.749-1.011-.093-1.969-.118-3.944-.088-5.917q.172-12.959.414-25.921c.017-.815-.455-2.278,1-2.139,1.121.108.645,1.405.645,2.233q0,7.615,0,15.228c-.088,0-.173,0-.261,0Z" transform="translate(-184.855 -37.706)" fill="#fff" fill-rule="evenodd"/>
    <path id="Path_20397" data-name="Path 20397" d="M323.312,176.072c.129,3.415-2.244,4.513-4.858,4.47a5.121,5.121,0,0,1-4.635-4.948c.1-2.528,2.044-4.6,4.227-4.513,3.228.126,5.385,2.17,5.267,4.99Zm-4.455-3.781a2.8,2.8,0,0,0-3.425,1.3,5.36,5.36,0,0,0,.006,4.516,3.094,3.094,0,0,0,3.244,1.094c-2.429-2.275-2.4-3.648.174-6.908Zm2.481,3.546a5.9,5.9,0,0,0-.193-1.509c-.176-.389-.534-.952-.84-.97a1.851,1.851,0,0,0-1.489.542,5.943,5.943,0,0,0-.8,2.627,1.966,1.966,0,0,0,1.022,1.531,1.546,1.546,0,0,0,2.068-.956,6.159,6.159,0,0,0,.228-1.264Z" transform="translate(-129.263 -81.728)" fill="#fff" fill-rule="evenodd"/>
    <path id="Path_20398" data-name="Path 20398" d="M361.8,225.841h2.8c-.832,1.6-1.914.887-2.922.738-.167.177-.364.372-.545.581-2.695,3.136-6.184,1.551-8.066-.876-.977-1.261-.443-2.627.333-3.8.725-1.091,1.686-1.947,3.151-1.641a4,4,0,0,1,1.135.612c.193.118.363.407.535.4,2.8-.1,3.411,1.767,3.582,3.985Zm-4.224,2.283a15.39,15.39,0,0,0,2.814-2.041c.934-1.05.327-2.825-.892-2.852-2.112-.047-3.8.71-3.656,3.235C355.9,227.507,356.391,227.87,357.572,228.124Zm-1.476-6.091a3.011,3.011,0,0,0-2.45,2.643c-.119.576.385,1.278.681,2.153.678-1.84,1.192-3.236,1.768-4.8Z" transform="translate(-152.415 -111.45)" fill="#fff" fill-rule="evenodd"/>
    <path id="Path_20399" data-name="Path 20399" d="M178.4,65.168q12.855,2.593,25.713,5.182c-.031.25-.061.5-.093.749a25.151,25.151,0,0,1-2.845-.237q-10.573-2.054-21.131-4.189a11.591,11.591,0,0,1-1.9-.741c.085-.253.173-.509.261-.763Z" transform="translate(-48.127 -18.391)" fill="#fff" fill-rule="evenodd"/>
    <path id="Path_20400" data-name="Path 20400" d="M366.927,74.151a21.582,21.582,0,0,1-2.577-.171q-10.926-1.969-21.847-4.02c-.805-.152-1.859-.2-2.19-1.62,9.07,1.735,17.905,3.428,26.738,5.12-.041.231-.083.462-.124.691Z" transform="translate(-145.108 -20.288)" fill="#fff" fill-rule="evenodd"/>
    <path id="Path_20401" data-name="Path 20401" d="M518.71,177.241a8.928,8.928,0,0,1-1.4-.149c-1.36-.36-2.683-.9-4.064-1.137-1.818-.317-3.674-.421-5.513-.617-.038.171-.072.339-.108.513l7.539,2.319c-.05.182-.1.364-.151.546-5.176-.622-9.966-3.52-15.4-2.954,1.184-.253,2.363-.551,3.557-.747,1.922-.317,3.847-.639,5.783-.821a18.8,18.8,0,0,1,4.326,0c.736.1,1.346.928,2.085,1.27a26.187,26.187,0,0,0,2.528.84,8.4,8.4,0,0,1,.941.462c-.042.154-.08.314-.122.474Z" transform="translate(-240.373 -83.516)" fill="#fff" fill-rule="evenodd"/>
    <path id="Path_20402" data-name="Path 20402" d="M190.247,45.817a12.946,12.946,0,0,1,.743-1.9c.919-1.58,1.942-3.095,2.855-4.679.3-.515.992-1.237-.347-1.7q-2.365,3.7-4.751,7.435l-.383-.182a2.552,2.552,0,0,1,.187-.777c1.173-1.916,2.377-3.811,3.561-5.72.4-.644,1.071-1.3.068-1.9.878-3.539,2.864-1.325,4.574-.934.011,1.512-.837,2.435-1.832,3.547a33.3,33.3,0,0,0-3.389,5.483c-.29.495-.531,1.022-.8,1.533-.165-.064-.327-.132-.488-.2Z" transform="translate(-54.24)" fill="#fff" fill-rule="evenodd"/>
    <path id="Path_20403" data-name="Path 20403" d="M336.05,80.478c2.019-.477,20.485,3.354,21.066,4.318C355.211,85.445,336.865,81.764,336.05,80.478Z" transform="translate(-142.559 -27.523)" fill="#fff" fill-rule="evenodd"/>
    <path id="Path_20404" data-name="Path 20404" d="M250.566,93.984l-.945.378c-.3.121-.6.239-.7.28.212,1.4.407,2.685.637,4.21.25-.063,1.051-.141,1.063-.284.1-1.237.058-2.487.058-3.893.141.061.459.2.777.336.435.187.881.542,1.3.523.8-.041,1.039.322.967.988-.068.614.375,1.421-.732,1.691a7.9,7.9,0,0,0-1.668.981,4.226,4.226,0,0,1-1.222.51c-.5.093-1.032-.009-1.542.047-1.675.187-2.41-.234-3.031-1.869a2.592,2.592,0,0,1,1.016-3.181,5.511,5.511,0,0,1,3.867-1.2c.047.16.1.319.151.482Zm-1.52,3.274c-.732-.785-1.25-1.341-1.765-1.9-.38.493-1.137,1.055-1.058,1.459a6.2,6.2,0,0,0,1.218,1.947c.446-.421.9-.842,1.6-1.511Z" transform="translate(-88.305 -35.335)" fill="#fff" fill-rule="evenodd"/>
    <path id="Path_20405" data-name="Path 20405" d="M436.23,212.411c.009-2.462,1.335-3.717,3.244-3.579.229.016.547.031.659.176.747.959,1.85,1.881,2.044,2.96a4.869,4.869,0,0,1-1.142,3.115c-.991,1.4-2.542,1.242-3.442-.2-.579-.926-1.058-1.914-1.365-2.475Zm5-.882c-1.755-.09-2.771.539-2.987,1.878-.058.369.011.986.24,1.121a1.381,1.381,0,0,0,1.266.02c.9-.769,1.781-1.631,1.481-3.02Z" transform="translate(-202.469 -104.299)" fill="#fff" fill-rule="evenodd"/>
    <path id="Path_20406" data-name="Path 20406" d="M359.475,79.618a13.942,13.942,0,0,1-2.258-.016q-8.378-1.474-16.737-3.051a2.953,2.953,0,0,1-1.429-1.016c3.3-.334,19.336,2.954,20.424,4.083Z" transform="translate(-144.354 -24.577)" fill="#fff" fill-rule="evenodd"/>
    <path id="Path_20407" data-name="Path 20407" d="M353.587,48.383c-1.349.068-2.066-.837-1.715-1.837.248-.707.583-1.39.78-2.112.108-.391-.068-.857.02-1.261a5.571,5.571,0,0,1,.644-1.832c.137-.212.785-.113,1.2-.11a5.324,5.324,0,0,1,.821.133c1.23.2,1.558.966.98,2.055-.694,1.3-1.272,2.657-1.952,3.965a6.032,6.032,0,0,1-.779,1Z" transform="translate(-151.968 -4.061)" fill="#fff" fill-rule="evenodd"/>
    <path id="Path_20408" data-name="Path 20408" d="M419.235,99.065c-1.958-.074-2.776-1.126-2.731-3.338.027-1.211,1.7-2.663,3.8-2.591,1.162.041,2.217,1.506,2.164,2.99-.074,2.048-1.142,3.018-3.233,2.939ZM417.94,98l.8.188a7.178,7.178,0,0,0,.821-2.223c.011-.306-.975-.65-1.5-.977-.146.108-.3.217-.441.327q.165,1.343.328,2.685Zm2.5-.273a2.222,2.222,0,0,0,.845-2.638c-.239-.466-.837-.746-1.273-1.107-.077.108-.152.217-.232.327A2.708,2.708,0,0,1,420.438,97.726Z" transform="translate(-190.671 -35.115)" fill="#fff" fill-rule="evenodd"/>
    <path id="Path_20409" data-name="Path 20409" d="M161.97,123.455V98.224h.576v25.243c-.19,0-.382-.008-.576-.013Z" transform="translate(-38.456 -38.159)" fill="#fff" fill-rule="evenodd"/>
    <path id="Path_20410" data-name="Path 20410" d="M371.932,218.628c0-.611-.149-1.09.027-1.335a5.394,5.394,0,0,1,3.893-2.242c1.085-.124,2.684,1.427,2.872,2.5a5.859,5.859,0,0,0,.637,1.506,10.157,10.157,0,0,1,.63,1.068,2.285,2.285,0,0,1-1.178,2.949c-1.143.426-1.6-.576-2.077-1.242a1.782,1.782,0,0,1,.559-2.762c.225-.165.455-.32.674-.471-.539-3.177-1.92-3.221-6.036.027Zm6.59.714a7.267,7.267,0,0,0-1.132,1.693c-.066.234.473.638.738.964a6.892,6.892,0,0,0,.972-1.361c.091-.226-.264-.636-.578-1.3Z" transform="translate(-163.982 -108.02)" fill="#fff" fill-rule="evenodd"/>
    <path id="Path_20411" data-name="Path 20411" d="M197.988,78.02c-2.924-.1-15.431-3.778-16.214-4.926a6.243,6.243,0,0,1,1.377.014c4.351,1.118,8.705,2.238,13.035,3.436.713.2,1.859.168,1.8,1.476Z" transform="translate(-50.299 -23.111)" fill="#fff" fill-rule="evenodd"/>
    <path id="Path_20412" data-name="Path 20412" d="M192.287,84.212c-5.285-1.559-10.569-3.114-15.844-4.7-.162-.047-.2-.513-.405-1.1,5.543,1.573,10.783,3.053,16.015,4.568.229.068.369.443.551.678-.1.185-.21.372-.317.559Z" transform="translate(-46.869 -26.308)" fill="#fff" fill-rule="evenodd"/>
    <path id="Path_20413" data-name="Path 20413" d="M435.928,61.315c-.6,1.916-1.646,3.134-2.71,3,.606-1.511,1.142-3.021,1.807-4.475.642-1.4,1.449-2.729,2.114-4.122.375-.788.944-1.22,1.6-.6.526.493,1.209,1.594,1,1.967-.862,1.54-1.58,3.345-3.6,3.847.856-1.281,1.7-2.569,2.57-3.841.608-.892-.035-1.08-.51-1.3-.725,1.553-1.424,3.012-2.085,4.486a4.92,4.92,0,0,0-.192,1.041Z" transform="translate(-200.668 -12.205)" fill="#fff" fill-rule="evenodd"/>
    <path id="Path_20414" data-name="Path 20414" d="M506.3,254.956c.727-.228,1.338-.419,1.925-.6.121-1.429.234-2.768.347-4.1,2.976.71,5.865,1.4,8.814,2.1.118.876-.291.936-1.065.757-2.222-.513-4.46-.95-6.79-1.438-.083.784-.165,1.553-.234,2.19l2.165.491c-3.026,1.548-4.524,1.652-5.163.6Z" transform="translate(-244.372 -129.077)" fill="#fff" fill-rule="evenodd"/>
    <path id="Path_20415" data-name="Path 20415" d="M416.962,212.416c-1.445-1.963-3.629-2.156-5.045-.468a2.195,2.195,0,0,0-.272,2.839,9.335,9.335,0,0,0,2.206,1.647c.347.245.7.484,1.055.725-.389.16-.835.529-1.159.441a4.3,4.3,0,0,1-3.053-2.976,3.421,3.421,0,0,1,.986-4.064,3.36,3.36,0,0,1,4.153-.531,22.952,22.952,0,0,1,2.542,2.088l-.317.482-1.126-.2Z" transform="translate(-187.036 -104.723)" fill="#fff" fill-rule="evenodd"/>
    <path id="Path_20416" data-name="Path 20416" d="M423.539,216.67c.2.2.372.529.592.562,1.4.212,1.675,1.222,1.66,2.357a2.843,2.843,0,0,1-2.33,2.159c-1.236.069-1.485-.966-1.826-1.812-.5-1.247.248-2.041,1.142-2.737.245-.193.535-.333.8-.507,0,0-.033-.022-.033-.022Zm0,1.085c-.426.933-1.584,1.592-.617,2.622a2.776,2.776,0,0,0,1.682-.95c.666-1.046-.424-1.208-1.065-1.672Z" transform="translate(-193.645 -108.992)" fill="#fff" fill-rule="evenodd"/>
    <path id="Path_20417" data-name="Path 20417" d="M366.14,163.3c4.832.645,9.25,2.757,13.842,4.144-.518.7-.944.722-2.148.275-2.8-1.039-5.606-2.062-8.431-3.026-1.1-.375-2.267-.575-3.4-.851.049-.181.094-.361.141-.542Z" transform="translate(-160.469 -77.076)" fill="#fff" fill-rule="evenodd"/>
    <path id="Path_20418" data-name="Path 20418" d="M423.716,60.327c.3.118.628.243.944.367.6-1.178,1.164-2.278,1.723-3.376.166.053.333.11.5.166.518,1.372-.686,2.407-1.148,3.542-.146.364-1,.468-1.548.628-.2.057-.448-.119-.67-.108-1.27.069-1.335-.653-.945-1.533.43-.972.98-1.894,1.548-2.979C425.26,58.386,423.852,59.231,423.716,60.327Z" transform="translate(-194.176 -13.528)" fill="#fff" fill-rule="evenodd"/>
    <path id="Path_20419" data-name="Path 20419" d="M165.981,63.79c-1.611-.311-2.965-.57-4.474-.86-.166,2.123-.328,4.2-.493,6.281-.177-.011-.356-.022-.531-.035,0-2.093-.057-4.191.058-6.278.017-.339.837-.944,1.222-.9a26.224,26.224,0,0,1,3.817.862c.143.036.193.419.4.928Z" transform="translate(-37.559 -16.496)" fill="#fff" fill-rule="evenodd"/>
    <path id="Path_20420" data-name="Path 20420" d="M496.184,222.033c2.319-1.195,4.631-2.41,6.972-3.563a3.261,3.261,0,0,1,1.245-.046c-.24.344-.407.832-.738,1.011-2.1,1.132-4.214,2.223-6.361,3.25-.316.151-.826-.113-1.25-.187.042-.152.086-.311.132-.466Z" transform="translate(-238.244 -110.018)" fill="#fff" fill-rule="evenodd"/>
    <path id="Path_20421" data-name="Path 20421" d="M410.335,84.183a2.15,2.15,0,0,1-2.586,1.916,2.182,2.182,0,0,1-1.454-1.39,2.006,2.006,0,0,1,1.949-2.457A1.854,1.854,0,0,1,410.335,84.183Zm-2.872.8c1.278.378,1.636-.482,2.1-1.4C407.641,83.078,407.242,83.364,407.463,84.981Z" transform="translate(-184.533 -28.606)" fill="#fff" fill-rule="evenodd"/>
    <path id="Path_20422" data-name="Path 20422" d="M428.5,49.7c.966.375,1.7.661,2.434.95-.057.2-.115.4-.171.594-1.044-.269-2.1-.509-3.122-.829a.755.755,0,0,1-.22-.694c.32-.59.722-1.588,1.115-1.594a8.384,8.384,0,0,1,2.881.721c.171.061.166.614.24.941a2.625,2.625,0,0,1-.912-.286c-.729-.6-1.394-1.033-2.245.2Z" transform="translate(-197.188 -8.198)" fill="#fff" fill-rule="evenodd"/>
    <path id="Path_20423" data-name="Path 20423" d="M507.055,196.933a3.58,3.58,0,0,1-.948-.011c-1.941-.674-3.878-1.36-5.8-2.087-.24-.093-.391-.426-.583-.648.22-.1.488-.331.653-.275q3.107,1.081,6.177,2.253c.19.077.279.419.5.768Z" transform="translate(-240.44 -95.377)" fill="#fff" fill-rule="evenodd"/>
    <path id="Path_20424" data-name="Path 20424" d="M241.367,80.3c.966-.36,1.492.286,1.795,1.168a2.779,2.779,0,0,1-1.776,3.249c-1.018.375-1.418.173-1.909-1.079,1.278.336,2.373-.036,2.7-1.222.157-.561-.491-1.347-.81-2.117Z" transform="translate(-84.807 -27.379)" fill="#fff" fill-rule="evenodd"/>
    <path id="Path_20425" data-name="Path 20425" d="M350.8,58.48c.352.578.768.966.7,1.2a15.473,15.473,0,0,1-1.105,2.56.787.787,0,0,1-.758.177.866.866,0,0,1-.218-.788c.36-.944.806-1.856,1.387-3.148Z" transform="translate(-150.534 -14.392)" fill="#fff" fill-rule="evenodd"/>
    <path id="Path_20426" data-name="Path 20426" d="M324.374,64.457c-1.536.948-4.588.84-5.617,0Z" transform="translate(-132.218 -17.966)" fill="#fff" fill-rule="evenodd"/>
    <path id="Path_20427" data-name="Path 20427" d="M422.975,69.641a2.177,2.177,0,0,1-1.7,3.21C421.855,71.755,422.358,70.812,422.975,69.641Z" transform="translate(-193.527 -21.066)" fill="#fff" fill-rule="evenodd"/>
    <path id="Path_20428" data-name="Path 20428" d="M318.93,70.3q-.2,1.731-.389,3.464l-.524-.047c.162-1.148.327-2.3.487-3.447.143.009.284.019.427.03Z" transform="translate(-131.775 -21.445)" fill="#fff" fill-rule="evenodd"/>
    <path id="Path_20429" data-name="Path 20429" d="M563.976,270.668a33.556,33.556,0,0,1,3.032,3.893,2.519,2.519,0,0,1-.394,2.1c-.193.29-1.187.254-1.719.069a21.668,21.668,0,0,1-2.348-1.236,4.518,4.518,0,0,1-2.814-4.573c.133-2.716.372-5.427.466-8.142a2.908,2.908,0,0,0-.6-1.828,2.152,2.152,0,0,1-.146-3.038,11.673,11.673,0,0,0,.923-1.412c.831-1.522,2.494-1.873,4.284-.5,1.247.955,2.591,1.922,2.024,3.786a13.1,13.1,0,0,1-1.206,2.156,6.425,6.425,0,0,0-.92,2c-.289,2.366-.422,4.753-.579,6.717Zm.727,2.823a2.558,2.558,0,0,0-.3-.281c-1.071-.733-2.735-1.209-1.214-3.018.17-.2.058-.639.083-.966a28.588,28.588,0,0,1,.352-4.2c.374-1.641.047-2.779-1.9-3.6-.188,1.372-.369,2.674-.546,3.977.105.017.209.036.316.052q.278-1.59.556-3.177l.559.077c-.4,3.451-.8,6.9-1.2,10.447,1.639,1.727,2.671,1.971,3.3.689Zm-2.977-12.3c.623-1.925,1.476-2.965,3.178-3.057-.752-1.121-1.81-1.776-2.891-1.289a4.1,4.1,0,0,0-1.891,2.233C559.985,259.469,561,260.273,561.726,261.188Zm2.282.823a7.047,7.047,0,0,0,1.126-1.767c.058-.243-.562-.653-.878-.986a6.985,6.985,0,0,0-1.261,1.391C562.907,260.823,563.5,261.352,564.008,262.011Z" transform="translate(-275.823 -132.002)" fill="#fff" fill-rule="evenodd"/>
    <path id="Path_20430" data-name="Path 20430" d="M321.252,280.879a2.452,2.452,0,0,1-2.409,2.04c-.831-.035-2.657-1.854-2.658-2.654,0-1.142,1.3-2.005,3.031-2.008,1.266,0,2.019.97,2.037,2.622Z" transform="translate(-130.679 -145.822)" fill="#fff" fill-rule="evenodd"/>
    <path id="Path_20431" data-name="Path 20431" d="M481.98,245.569c2.393-1.131,2.435-1.11,3.153.358.347.711.212,1.142-.515,1.434C483.373,247.858,482.632,247.381,481.98,245.569Z" transform="translate(-229.828 -125.796)" fill="#fff" fill-rule="evenodd"/>
  </g>
</svg>
