<svg xmlns="http://www.w3.org/2000/svg" width="428" height="250.215" viewBox="0 0 428 250.215">
  <g id="Group_10231" data-name="Group 10231" transform="translate(-1012 -1735.902)">
    <g id="Group_10183" data-name="Group 10183" transform="translate(1061.87 1762.305)">
      <path id="Path_19710" data-name="Path 19710" d="M469.02,679.576c20.685,14.523,57.688,28.584,99.435,34.688,54.159,7.9,116.273,2.459,161.116-32.663,2.633-2.054,5.208-4.224,7.725-6.481,88.557-80.109-3.125-211.281-101.229-155.879-62.953,35.556-92.984,48.517-174.539,9.084C395.276,496.3,349.739,595.706,469.02,679.576Z" transform="translate(-394.986 -505.988)" fill="#f6f6f6"/>
    </g>
    <g id="Group_10184" data-name="Group 10184" transform="translate(1012.987 1736.942)">
      <path id="Path_19711" data-name="Path 19711" d="M1300.794,446.857c3.3-15.449,58.614-23.694,76.811-24.938s39.143-.26,38.652,12.961-2.257,54.1-2.633,85.288a70.551,70.551,0,0,1,10.386-2.98,14.98,14.98,0,0,0-2.43-6.712c-2.748-4.108-3.24-9.084-1.794-9.663h0c3.038-5.179,17.821-5.323,22.942-3.067l2.17,1.128h0a1.684,1.684,0,0,1,2.2-.521c3.356,1.3-1.1,10.242-3.963,14.032a17.057,17.057,0,0,0-2.228,3.7c.434.029.9.058,1.331.116,13.887,1.389,15.16,8.853,8.245,12.527,3.385,1.562,4.34,5.323-1.244,9.518a4.05,4.05,0,0,1,1.389,7.117,11.869,11.869,0,0,1-2.748,1.678c4.658,1.909,3.964,5.5-2.025,8.158-.463.2-.926.376-1.389.55,5.67,15.767,24.07,38.883,19.875,67.987-4.195,29.133-22.392,34.486-37.147,33.3-9.026-.723-20.193-6.6-27.513-16.259,0,0-59.048,26.472-72.761,28.468s-17.474-3.5-20.454-12.064C1303.542,648.649,1295.354,472.374,1300.794,446.857Z" transform="translate(-1298.971 -421.519)" fill="#fff"/>
    </g>
    <g id="Group_10185" data-name="Group 10185" transform="translate(1035.884 1758.703)">
      <path id="Path_19712" data-name="Path 19712" d="M1508.914,702.048c2.864,0,6.914-1.157,12.7-3.53,18.834-7.753,44.958-17.04,45.219-17.127a1.016,1.016,0,1,0-.694-1.909c-.26.087-26.443,9.4-45.306,17.185-7.84,3.24-12.3,4.108-14.437,2.835-2.025-1.215-2.372-4.774-2.864-9.692-.116-1.128-.232-2.286-.376-3.5-3.472-29.856-7.291-125.994-5.323-149.919.926-11.167,2.083-17.127,6.22-20.83,4.137-3.674,11.369-5.352,24.475-8.419l6.6-1.533c22.334-5.207,38.478-9,43.107-5.323a3.7,3.7,0,0,1,1.33,3.125v72.963a1.013,1.013,0,0,0,2.026,0v-73.05a5.687,5.687,0,0,0-2.083-4.716c-5.381-4.282-21.09-.607-44.814,4.947l-6.6,1.533c-13.453,3.125-20.83,4.831-25.372,8.882-4.658,4.137-5.931,10.444-6.886,22.19-1.967,24.013,1.852,120.41,5.352,150.324.145,1.215.26,2.372.376,3.472.55,5.5.926,9.489,3.848,11.225A6.406,6.406,0,0,0,1508.914,702.048Z" transform="translate(-1495.3 -496.737)" fill="#202d37"/>
    </g>
    <g id="Group_10186" data-name="Group 10186" transform="translate(1012 1735.902)">
      <path id="Path_19713" data-name="Path 19713" d="M1487.484,668.14a36.2,36.2,0,0,0,5.323-.434c13.684-2,70.62-27.455,73.021-28.526a1.01,1.01,0,0,0-.81-1.852c-.579.26-59.077,26.414-72.5,28.381-13.568,1.967-16.693-3.732-19.355-11.4-1.447-4.137-4.224-50.166-5.96-98.538-2.112-58.932-2.025-100.534.289-111.3,1.331-6.191,12.411-12.093,32.055-17.011a282.8,282.8,0,0,1,43.83-7.117c18.313-1.244,30.088.521,34.977,5.236a8.4,8.4,0,0,1,2.6,6.683c-.058,1.852-.173,4.253-.289,7.088-.694,17.966-2.025,51.41-2.372,78.229a1.006,1.006,0,0,0,1.012,1.013h0a1.006,1.006,0,0,0,1.012-1.013c.347-26.79,1.649-60.2,2.372-78.171.116-2.835.2-5.236.29-7.088a10.367,10.367,0,0,0-3.211-8.187c-5.381-5.236-17.33-7.117-36.511-5.815-14.552.984-74.092,8.708-77.737,25.748-3.356,15.738-1.331,83.436-.318,111.789,1.591,43.975,4.4,94.314,6.075,99.117,1.389,3.964,3.153,7.985,6.567,10.473C1480.309,667.272,1483.433,668.14,1487.484,668.14Z" transform="translate(-1463.671 -417.924)" fill="#202d37"/>
    </g>
    <g id="Group_10188" data-name="Group 10188" transform="translate(1105.942 1835.448)">
      <g id="Group_10187" data-name="Group 10187">
        <path id="Path_19714" data-name="Path 19714" d="M1321.074,841.154a71.989,71.989,0,0,0,5.671-15.941c3.761-3.009,5.873-7.638,6.538-14.581a56.575,56.575,0,0,0,8.275-.231h0c-5.15,3.067-4.658,8.39.549,9.171l-.087.579c-1.417.55-1.967,4.34.637,5.352-6.249,6.046,1.041,9.4,8.853,6.625,5.67,15.767,24.07,38.883,19.875,67.987-4.195,29.133-22.392,34.485-37.147,33.3-9.026-.723-20.194-6.6-27.513-16.259a37.652,37.652,0,0,1-6.683-13.858,36.079,36.079,0,0,1-1.071-8.795C1299.058,867.683,1312.135,859.235,1321.074,841.154Z" transform="translate(-1298.971 -810.4)" fill="#de3232"/>
      </g>
    </g>
    <g id="Group_10189" data-name="Group 10189" transform="translate(1192.943 1782.707)">
      <path id="Path_19715" data-name="Path 19715" d="M545.609,723.167c.984,2.951,14.928,4.34,20.165,4.745l-.058.81c-4.513,0-14.842.347-14.842,3.5.029,3.935,16.057,3.616,16.057,3.616,4.658,9.6,14.668,10.733,15.073,10.791s1.533,3.182,1.852,4.774h0c-2,.608-3.211.868-3.211.868s1.765,4.918,2.864,8.65,1.475,6.481-.665,9.055c-3.067,3.674.781,17.764,5.555,31.1,54.158,7.9,116.273,2.459,161.116-32.663-13.453-36.366-34.225-59.163-38.681-67.958-1.157-2.257-4.021-26.992-2.633-42.094,4.05,1.765,12.006,3.443,15.912-.781,5.179-5.642-2.141-13.482-8.911-11.948h-.029c-.058.029-.144.029-.2.058a7.4,7.4,0,0,0-4.484,4.079c-1.042,2.257-4.339,4.195-5.063-.347s-2.748-5.063-3.7-5.786c-.984-.723-1.909-5.208,0-6.828a5.231,5.231,0,0,1-6.394-5.728c-2.488,2.054-8.534,1.707-10.444-2.98a6.021,6.021,0,0,1-7.175,1.447c-15.594,8.158-31.072,17.3-30.985,18.545.087,1.331,18.863,9.229,18.863,9.055s1.042,41.458.463,43.685c-9.807,10.473-22.826,27.426-33.357,71.835,0,.058-.029.087-.029.145-.029.173-.087.347-.116.521-1.5,6.1-5.121,11.4-11.167-.2v.232c-4.8-9.258-9.461-16.519-11.63-16.086,0,0-1.765-8.535-4.629-17.677a85.67,85.67,0,0,0-5.931-14.755c-9.258-16.838-19.21-23.492-33.242-27.426-15.854-4.484-19.326,3.472,3.153,14.2-7.638-1.851-17.879-2.517-20.425.318-3.79,4.224,9.75,6.857,16.259,7.782C553.97,719.087,544.365,719.521,545.609,723.167Z" transform="translate(-545.5 -628.1)" fill="#fdfdfd"/>
    </g>
    <g id="Group_10190" data-name="Group 10190" transform="translate(1354.261 1787.029)">
      <path id="Path_19716" data-name="Path 19716" d="M563.57,813.03A.739.739,0,0,0,563.8,813a.958.958,0,0,0,.549-1.15c-7.6-31.287-20.944-53.322-28.91-66.479a100.273,100.273,0,0,1-5.379-9.493c-.71-1.658-3-22.81-2.083-37.144,3.434,1.444,9.339,2.567,12.475-1.417a7.514,7.514,0,0,0,.412-8.691c-1.808-3.022-5.7-5.268-9.362-3.476a1.008,1.008,0,0,0-.435,1.23.773.773,0,0,0,1.053.508c2.884-1.417,6,.4,7.439,2.808a5.42,5.42,0,0,1-.275,6.338c-2.655,3.369-8.446,2.139-11.7.481a.724.724,0,0,0-.732.054.961.961,0,0,0-.389.722c-1.076,13.638,1.076,36.9,2.152,39.417a97.732,97.732,0,0,0,5.493,9.734c7.92,13.05,21.15,34.924,28.681,65.89A.854.854,0,0,0,563.57,813.03Z" transform="translate(-526.172 -684.515)" fill="#202d37"/>
    </g>
    <g id="Group_10191" data-name="Group 10191" transform="translate(1360.503 1793.678)">
      <path id="Path_19717" data-name="Path 19717" d="M648.588,711a.964.964,0,0,0,.926-.637,1.06,1.06,0,0,0-.55-1.331,18.111,18.111,0,0,0-7.291-1.533,1.013,1.013,0,0,0,0,2.025,16,16,0,0,1,6.538,1.389A1,1,0,0,0,648.588,711Z" transform="translate(-640.661 -707.5)" fill="#202d37"/>
    </g>
    <g id="Group_10192" data-name="Group 10192" transform="translate(1334.524 1797.838)">
      <path id="Path_19718" data-name="Path 19718" d="M753.944,686.042h0a1.253,1.253,0,0,0,1.244-1.244v-3.154a1.253,1.253,0,0,0-1.244-1.244h0a1.253,1.253,0,0,0-1.244,1.244V684.8A1.253,1.253,0,0,0,753.944,686.042Z" transform="translate(-752.7 -680.4)" fill="#202d37"/>
    </g>
    <g id="Group_10193" data-name="Group 10193" transform="translate(1324.022 1794.164)">
      <path id="Path_19719" data-name="Path 19719" d="M790.244,673.313h0a1.253,1.253,0,0,0,1.244-1.244v-3.124a1.253,1.253,0,0,0-1.244-1.244h0A1.253,1.253,0,0,0,789,668.944V672.1A1.229,1.229,0,0,0,790.244,673.313Z" transform="translate(-789 -667.7)" fill="#202d37"/>
    </g>
    <g id="Group_10194" data-name="Group 10194" transform="translate(1334.349 1806.959)">
      <path id="Path_19720" data-name="Path 19720" d="M726.041,721.5h0c4.976-.116,8.65-3.3,9.634-8.361a1.016,1.016,0,0,0-2-.376c-.81,4.137-3.674,6.625-7.667,6.712a.99.99,0,0,0-.984,1.042A1,1,0,0,0,726.041,721.5Z" transform="translate(-725.027 -711.928)" fill="#202d37"/>
    </g>
    <g id="Group_10195" data-name="Group 10195" transform="translate(1276.494 1780.944)">
      <path id="Path_19721" data-name="Path 19721" d="M777.2,780.892a.991.991,0,0,0,.984-.81c10.386-50.6,23.868-70.331,35.643-82.916a.8.8,0,0,0,.232-.434c.116-.4.4-1.5,0-22.942-.087-5.555-.232-10.936-.289-14.494-.058-1.967-.087-3.587-.116-4.744-.029-.781-.029-1.273-.058-1.62v-.145h-.029c-.058-.521-.145-.607-.347-.781a1.1,1.1,0,0,0-.492-.232c-1.649-.521-14.841-6.249-17.677-8.159,2.864-2.488,18.082-11.428,34.254-19.7a1.009,1.009,0,1,0-.926-1.794c-8.072,4.108-17.011,9.026-23.984,13.106-11.833,6.943-11.775,7.811-11.717,8.563s.116,1.446,9.923,5.9c.087.029,6.365,2.864,8.94,3.819.145,5.41.926,38.854.521,42.5-11.948,12.816-25.517,32.865-35.932,83.668a1,1,0,0,0,.781,1.186A1.193,1.193,0,0,0,777.2,780.892Zm17.474-136.785Z" transform="translate(-776.106 -622.006)" fill="#202d37"/>
    </g>
    <g id="Group_10196" data-name="Group 10196" transform="matrix(0.998, -0.07, 0.07, 0.998, 1311.915, 1855.682)">
      <path id="Path_19722" data-name="Path 19722" d="M692.425,892.089c2.43,0,6.365-1.186,10.849-3.327a90.729,90.729,0,0,0,18.892-12.354,1.008,1.008,0,1,0-1.273-1.562c-14.118,11.717-25.864,15.651-29.018,15.16-2.459-.376-10.1-9.171-14.35-14.639a1.01,1.01,0,0,0-1.591,1.244c1.91,2.459,11.659,14.784,15.623,15.391A2.864,2.864,0,0,0,692.425,892.089Z" transform="translate(-675.721 -874.621)" fill="#202d37"/>
    </g>
    <g id="Group_10197" data-name="Group 10197" transform="translate(1319.884 1884.341)">
      <ellipse id="Ellipse_9" data-name="Ellipse 9" cx="1.996" cy="1.996" rx="1.996" ry="1.996" transform="translate(0)" fill="#202d37"/>
    </g>
    <g id="Group_10198" data-name="Group 10198" transform="translate(1317.745 1906.473)">
      <path id="Path_19723" data-name="Path 19723" d="M810.061,1057.4a1.737,1.737,0,0,1-1.881,1.5,1.542,1.542,0,1,1,1.881-1.5Z" transform="translate(-806.3 -1055.9)" fill="#202d37"/>
    </g>
    <g id="Group_10199" data-name="Group 10199" transform="translate(1316.68 1930.468)">
      <path id="Path_19724" data-name="Path 19724" d="M814.464,1139a1.922,1.922,0,1,1-2.228.868A1.706,1.706,0,0,1,814.464,1139Z" transform="translate(-811.925 -1138.839)" fill="#202d37"/>
    </g>
    <g id="Group_10200" data-name="Group 10200" transform="translate(1337.039 1862.983)">
      <path id="Path_19725" data-name="Path 19725" d="M687.757,924.474a4.127,4.127,0,0,0,1.446-.26c3.211-1.157,4.832-6.076,6.886-12.267.55-1.62,1.1-3.3,1.707-5.005a1.016,1.016,0,0,0-1.91-.694c-.636,1.736-1.186,3.414-1.736,5.063-1.794,5.439-3.356,10.155-5.642,10.994a3.444,3.444,0,0,1-2.951-.637,74.435,74.435,0,0,1-8.3-6.365,1,1,0,0,0-1.331,1.5,74.343,74.343,0,0,0,8.592,6.567A5.961,5.961,0,0,0,687.757,924.474Z" transform="translate(-675.575 -905.575)" fill="#202d37"/>
    </g>
    <g id="Group_10201" data-name="Group 10201" transform="translate(1305.472 1862.638)">
      <path id="Path_19726" data-name="Path 19726" d="M810.688,918.5c1.678,0,4.8-.9,11.254-4.658a1.017,1.017,0,1,0-1.013-1.765c-8.39,4.889-10.444,4.455-10.762,4.311-.087-.029-.116-.058-.116-.145-.665-2.633-1.562-10.878-1.562-10.965a1.019,1.019,0,0,0-2.025.232c.029.347.926,8.477,1.62,11.225a2.179,2.179,0,0,0,1.3,1.533A3.082,3.082,0,0,0,810.688,918.5Z" transform="translate(-806.459 -904.381)" fill="#202d37"/>
    </g>
    <g id="Group_10202" data-name="Group 10202" transform="translate(1321.854 1877.367)">
      <path id="Path_19727" data-name="Path 19727" d="M783.754,1017.758h.058a1.009,1.009,0,0,0,.955-1.07c-.174-3.125-.231-11.717,1.36-14.031a10.651,10.651,0,0,0,.694-11.225c-2.025-3.616-.694-7.7.868-11.225,1.881-4.224,1.678-15.16.868-23.984a1.016,1.016,0,1,0-2.025.174c.984,10.762.723,19.789-.694,22.971-1.765,3.964-3.211,8.621-.781,13.019a8.6,8.6,0,0,1-.579,9.084c-2.286,3.3-1.794,14.06-1.736,15.276A1.024,1.024,0,0,0,783.754,1017.758Z" transform="translate(-782.658 -955.295)" fill="#202d37"/>
    </g>
    <g id="Group_10203" data-name="Group 10203" transform="translate(1199.569 1849.695)">
      <path id="Path_19728" data-name="Path 19728" d="M1049.026,943.214a1.021,1.021,0,0,0,.4-.087,1,1,0,0,0,.521-1.331,94.4,94.4,0,0,0-7.522-14c-3.356-5.063-5.208-6.509-6.278-6.914-.839-3.848-4.86-21.727-10.531-32-9.923-18.053-20.714-24.215-33.849-27.918-7.58-2.141-12.787-1.649-13.887,1.3-1.389,3.7,4.716,9.229,16.317,14.813a1.016,1.016,0,1,0,.9-1.823c-12.382-5.931-15.941-10.589-15.3-12.267.434-1.157,3.935-2.2,11.457-.058,12.643,3.558,23.029,9.518,32.605,26.935,6.076,11.051,10.415,31.94,10.444,32.142a1.043,1.043,0,0,0,1.128.81c.434.087,2.2,1.36,5.526,6.48a95.047,95.047,0,0,1,7.117,13.308A1.082,1.082,0,0,0,1049.026,943.214Z" transform="translate(-977.69 -859.646)" fill="#202d37"/>
    </g>
    <g id="Group_10204" data-name="Group 10204" transform="translate(1235.441 1910.85)">
      <path id="Path_19729" data-name="Path 19729" d="M1026.236,1082.159a.637.637,0,0,0,.231-.029c14.465-3.5,20.888-9.113,21.149-9.344a1,1,0,0,0-1.331-1.5c-.087.087-6.394,5.526-20.28,8.881a1.012,1.012,0,0,0,.231,2Z" transform="translate(-1025.229 -1071.029)" fill="#202d37"/>
    </g>
    <g id="Group_10205" data-name="Group 10205" transform="translate(1227.118 1893.189)">
      <path id="Path_19730" data-name="Path 19730" d="M1044.454,1056.625a.8.8,0,0,0,.26-.029,1.009,1.009,0,0,0,.723-1.244c-2.517-9.287-1.794-11.08-.347-13.453,2.083-3.356,1.823-6.278.781-9.894-.781-2.662-1.909-5.96-2.488-7.638,3.558-.9,14.755-4.253,23.839-12.642a1,1,0,1,0-1.36-1.476c-10.3,9.518-23.868,12.382-23.984,12.411a.909.909,0,0,0-.666.492.949.949,0,0,0-.058.839c.029.058,1.765,4.947,2.835,8.593,1.1,3.732.955,5.815-.55,8.245-2.054,3.356-2.344,5.989.116,15.044A.878.878,0,0,0,1044.454,1056.625Z" transform="translate(-1041.084 -1009.984)" fill="#202d37"/>
    </g>
    <g id="Group_10206" data-name="Group 10206" transform="translate(1197.305 1882.278)">
      <path id="Path_19731" data-name="Path 19731" d="M1148.617,997.014a.491.491,0,0,0,.2-.029,1.01,1.01,0,0,0,.781-1.186,24.127,24.127,0,0,0-.955-3.1c-.665-1.794-1.1-2.372-1.765-2.459-1.041-.116-10.039-1.475-14.292-10.241a1.03,1.03,0,0,0-.926-.579c-4.745.087-12.961-.434-14.784-2.2-.232-.231-.232-.376-.232-.434s0-.2.232-.405c1.852-1.794,10.56-2.2,15.623-2.054a1.045,1.045,0,0,0,1.042-.984,1.025,1.025,0,0,0-.984-1.042c-1.418-.058-14.031-.376-17.1,2.6a2.463,2.463,0,0,0,0,3.7c2.719,2.662,12.73,2.806,15.594,2.777,4.455,8.535,13.048,10.386,15.16,10.733a21.352,21.352,0,0,1,1.389,4.022A1.018,1.018,0,0,0,1148.617,997.014Z" transform="translate(-1114.623 -972.268)" fill="#202d37"/>
    </g>
    <g id="Group_10207" data-name="Group 10207" transform="translate(1214.158 1868.277)">
      <path id="Path_19732" data-name="Path 19732" d="M1165.9,941.557a.806.806,0,0,0,.26-.029,1.009,1.009,0,0,0,.723-1.244c-.4-1.591-.289-9.345,1.418-15.131a.993.993,0,0,0-.694-1.244,1,1,0,0,0-1.244.694c-1.736,5.844-1.967,14.118-1.446,16.2A1.041,1.041,0,0,0,1165.9,941.557Z" transform="translate(-1164.672 -923.872)" fill="#202d37"/>
    </g>
    <g id="Group_10208" data-name="Group 10208" transform="translate(1194.393 1863.602)">
      <path id="Path_19733" data-name="Path 19733" d="M1176.239,919.8h.174a1.014,1.014,0,0,0,.81-.868,1.034,1.034,0,0,0-.868-1.157h-.231a88.2,88.2,0,0,1-9.547-1.5c-8.014-1.736-9.345-3.443-9.547-3.934-.058-.145-.2-.434.347-1.013,2.343-2.6,14.523-1.678,22.479.839a1.016,1.016,0,1,0,.607-1.938c-6.943-2.228-21.09-4.195-24.62-.26a2.785,2.785,0,0,0-.55,3.443c.4.723,1.62,2.893,11.37,4.947A76.274,76.274,0,0,0,1176.239,919.8Zm-1.013-1.157Zm0,0Zm0,0Zm0,0Zm.029-.145a1.266,1.266,0,0,0-.029.145A.261.261,0,0,0,1175.255,918.5Zm.81-.694-.26.087A.4.4,0,0,1,1176.065,917.807Z" transform="translate(-1154.926 -907.715)" fill="#202d37"/>
    </g>
    <g id="Group_10209" data-name="Group 10209" transform="translate(1191.922 1873.091)">
      <path id="Path_19734" data-name="Path 19734" d="M1193.486,951.1a1.014,1.014,0,0,0,1.013-.955,1.027,1.027,0,0,0-.955-1.07c-.058,0-5.265-.318-10.56-1.07-10.039-1.447-10.7-3.067-10.7-3.125a.526.526,0,0,1,.058-.579c.55-.723,3.443-2.344,18.284-1.533a1.014,1.014,0,1,0,.116-2.025c-15.68-.868-18.921.926-20.02,2.343a2.492,2.492,0,0,0-.347,2.459c.463,1.331,2.257,3.038,12.354,4.484,5.352.781,10.646,1.1,10.7,1.1C1193.428,951.1,1193.457,951.1,1193.486,951.1Z" transform="translate(-1170.195 -940.513)" fill="#202d37"/>
    </g>
    <g id="Group_10210" data-name="Group 10210" transform="translate(1218.669 1864.131)">
      <path id="Path_19735" data-name="Path 19735" d="M1107.288,943.784a1.014,1.014,0,0,0,.578-1.852c-3.732-2.575-5.9-5.526-6.423-8.795-.694-4.311,1.534-8.39,3.53-11.023a1.027,1.027,0,0,0,.173-.81,1.053,1.053,0,0,0-.492-.665c-3.212-1.736-8.187-5.468-7.956-8.014.029-.289.26-.521.723-.694,2.459-1.041,9.026,0,15.015,4.745a1.01,1.01,0,1,0,1.244-1.591c-6.249-4.947-13.713-6.451-17.069-5.034a2.87,2.87,0,0,0-1.938,2.4c-.348,3.935,5.526,7.9,8.014,9.4-2.025,2.951-3.993,7.146-3.24,11.659.608,3.819,3.067,7.233,7.291,10.126A1.108,1.108,0,0,0,1107.288,943.784Z" transform="translate(-1094.66 -909.542)" fill="#202d37"/>
    </g>
    <g id="Group_10211" data-name="Group 10211" transform="translate(1153.904 1816.493)">
      <path id="Path_19736" data-name="Path 19736" d="M1333.06,761.58h0c8.968-.232,13.8-4.311,13.945-8.187.116-3.385-3.3-7.377-13.25-8.39-.463-.058-.9-.087-1.36-.116a1.016,1.016,0,1,0-.173,2.025c.434.029.868.058,1.3.116,8.563.868,11.514,3.935,11.428,6.307-.116,2.864-4.34,6.047-11.948,6.249a1.025,1.025,0,0,0-.984,1.042A1.042,1.042,0,0,0,1333.06,761.58Z" transform="translate(-1331.29 -744.882)" fill="#202d37"/>
    </g>
    <g id="Group_10212" data-name="Group 10212" transform="translate(1056.174 1831.604)">
      <path id="Path_19737" data-name="Path 19737" d="M1453.851,772.816a79.934,79.934,0,0,0,18.371-1.938,43.12,43.12,0,0,0,13.742-5.555,4.18,4.18,0,0,0,.376-.231c9.779-5.873,20.367-11.833,32.807-14.378a1,1,0,1,0-.4-1.968c-12.759,2.633-23.521,8.679-33.444,14.639-.116.058-.231.145-.376.231-10.762,6.625-26.472,8.679-46.666,6.133a1.007,1.007,0,1,0-.26,2A123.66,123.66,0,0,0,1453.851,772.816Z" transform="translate(-1437.123 -748.723)" fill="#202d37"/>
    </g>
    <g id="Group_10213" data-name="Group 10213" transform="translate(1132.174 1795.145)">
      <path id="Path_19738" data-name="Path 19738" d="M1377.194,693.456a12.582,12.582,0,0,0-.578,5.5l.665.145c-5.092,2.257-12.556,1.128-12.556,1.128-1.793-.463-3.443-.781-4.6-.984h0a15.739,15.739,0,0,0-2.286-11.4c-2.777-4.108-4.224-7.58-2.893-11.138,2.112-5.641,21.206-8.911,29.249-.521,2.2,2.314.839,7.348-4.774,13.54A11.768,11.768,0,0,0,1377.194,693.456Z" transform="translate(-1354.446 -671.09)" fill="#de3232"/>
    </g>
    <g id="Group_10214" data-name="Group 10214" transform="translate(1143.962 1829.109)">
      <path id="Path_19739" data-name="Path 19739" d="M1342.4,805.1a20.66,20.66,0,0,0,9.258-2.691c7.146-3.7,8.592-7.117,8.563-9.316a5.123,5.123,0,0,0-3.327-4.513,1,1,0,0,0-.839,1.823,3.318,3.318,0,0,1,2.141,2.72c.029,1.07-.666,3.934-7.464,7.464-6.857,3.559-11.283,2.835-12.5.665-.81-1.447-.116-3.848,2.806-5.584a1.012,1.012,0,1,0-1.041-1.736c-4.022,2.4-4.832,5.989-3.53,8.3C1337.4,803.97,1339.423,805.1,1342.4,805.1Z" transform="translate(-1335.899 -788.488)" fill="#202d37"/>
    </g>
    <g id="Group_10215" data-name="Group 10215" transform="translate(1146.634 1838.667)">
      <path id="Path_19740" data-name="Path 19740" d="M1344.62,834.711c4.484,0,11.138-2.054,13.626-4.311a5.293,5.293,0,0,0,1.793-5,5.146,5.146,0,0,0-3.587-3.819,1.015,1.015,0,0,0-1.273.636.992.992,0,0,0,.637,1.273,3.037,3.037,0,0,1,1.07,5.41c-2.343,2.141-9.258,4.108-13.163,3.761a2.252,2.252,0,0,1-2.083-1.938,2.728,2.728,0,0,1,.376-2.286,1.006,1.006,0,0,0,.752-1.215.984.984,0,0,0-1.215-.752c-1.476.318-2.112,2.2-2,3.906a4.351,4.351,0,0,0,3.992,4.311C1343.9,834.711,1344.244,834.711,1344.62,834.711Z" transform="translate(-1339.544 -821.526)" fill="#202d37"/>
    </g>
    <g id="Group_10216" data-name="Group 10216" transform="translate(1146.288 1847.439)">
      <path id="Path_19741" data-name="Path 19741" d="M1350.71,863.58a17.836,17.836,0,0,0,7.2-1.62c3.674-1.649,5.7-3.732,5.67-5.9-.029-.984-.521-2.835-3.674-4.137a1.018,1.018,0,0,0-.781,1.88c1.533.636,2.4,1.447,2.43,2.286,0,.984-1.157,2.546-4.455,4.021-4.918,2.2-9.692,1.707-10.907-.087-.665-1.013-.029-2.575,1.765-4.34a1,1,0,0,0-1.389-1.446c-3.53,3.414-2.806,5.815-2.054,6.914C1345.589,862.741,1347.932,863.58,1350.71,863.58Z" transform="translate(-1343.899 -851.848)" fill="#202d37"/>
    </g>
    <g id="Group_10217" data-name="Group 10217" transform="translate(1120.17 1821.984)">
      <path id="Path_19742" data-name="Path 19742" d="M1378.766,797.547h.116c12.469-1.389,18.487-7.088,19.875-18.921,3.414.116,12.353.116,14.494-2.98a2.931,2.931,0,0,0,.2-2.98c-2.777-6.336-17.966-8.563-19.7-8.795a1.007,1.007,0,1,0-.26,2c4.368.579,16.143,3.1,18.111,7.58.231.55.145.81,0,1.013-1.273,1.852-8.766,2.314-13.685,2.054a1.021,1.021,0,0,0-1.07.926c-1.129,11.659-6.22,16.722-18.2,18.053a1.031,1.031,0,0,0,.116,2.054Z" transform="translate(-1377.747 -763.86)" fill="#202d37"/>
    </g>
    <g id="Group_10218" data-name="Group 10218" transform="translate(1058.83 1873.334)">
      <path id="Path_19743" data-name="Path 19743" d="M1481.157,904.951c16.693,0,31.1-6.683,36.366-9.113.839-.376,1.678-.781,1.967-.868a27.111,27.111,0,0,1,3.414,1.3c4.34,1.823,11.572,4.86,17.792,4.571a1.014,1.014,0,1,0-.116-2.025c-5.757.26-12.729-2.661-16.9-4.4-2.6-1.1-3.7-1.533-4.427-1.446a12.439,12.439,0,0,0-2.575,1.041c-6.047,2.806-24.417,11.312-44.119,8.274a1.011,1.011,0,1,0-.318,2A58.558,58.558,0,0,0,1481.157,904.951Z" transform="translate(-1471.395 -892.963)" fill="#202d37"/>
    </g>
    <g id="Group_10219" data-name="Group 10219" transform="translate(1141.457 1821.607)">
      <path id="Path_19744" data-name="Path 19744" d="M1379.895,766.535c2.98,0,6.886-.405,9.808-2.083a1.017,1.017,0,1,0-1.013-1.765c-4.687,2.748-12.874,1.562-12.961,1.533a1.011,1.011,0,0,0-.318,2A29.384,29.384,0,0,0,1379.895,766.535Z" transform="translate(-1374.559 -762.559)" fill="#202d37"/>
    </g>
    <g id="Group_10220" data-name="Group 10220" transform="translate(1135.713 1801.668)">
      <path id="Path_19745" data-name="Path 19745" d="M1382.667,698.458c.955,0,2-.058,3.125-.145,3.53-.318,6.162-1.273,8.072-2.893a1.006,1.006,0,1,0-1.3-1.533c-1.562,1.331-3.848,2.112-6.943,2.4-6.191.579-9.692-.723-12.006-1.938a1.009,1.009,0,0,0-.926,1.794A20.136,20.136,0,0,0,1382.667,698.458Z" transform="translate(-1372.138 -693.638)" fill="#202d37"/>
    </g>
    <g id="Group_10222" data-name="Group 10222" transform="translate(1132.703 1891.111)">
      <g id="Group_10221" data-name="Group 10221" transform="translate(0)">
        <path id="Path_19746" data-name="Path 19746" d="M1411.722,1031.267a8,8,0,0,1-1.215,4.6,6.791,6.791,0,0,1-3.906,2.546v4.947a.61.61,0,0,1-.145.376.552.552,0,0,1-.376.144h-6.538a.612.612,0,0,1-.376-.144.55.55,0,0,1-.145-.376v-4.4c-1.215-.058-2.343-.145-3.327-.26a.549.549,0,0,1-.318-.2.608.608,0,0,1-.145-.376l.521-5.266a.536.536,0,0,1,.2-.376.545.545,0,0,1,.434-.087c.4.087.81.174,1.244.232s.984.145,1.649.231a14.525,14.525,0,0,0,1.88.116,4,4,0,0,0,1.62-.231,1.938,1.938,0,0,0,.925-.637,2.772,2.772,0,0,0,.376-.694,2.331,2.331,0,0,0,.116-.55,1.713,1.713,0,0,0-.116-.608,3.471,3.471,0,0,0-.4-.81,3.56,3.56,0,0,0-1.07-.955,6.22,6.22,0,0,0-1.881-.723,8.036,8.036,0,0,1-2.43-1.013,9.52,9.52,0,0,1-2.17-1.765,7.945,7.945,0,0,1-1.62-2.633,9.411,9.411,0,0,1-.608-3.414,7.007,7.007,0,0,1,1.331-4.369,7.761,7.761,0,0,1,3.819-2.633v-5.092a.609.609,0,0,1,.145-.376.467.467,0,0,1,.376-.174h6.538a.6.6,0,0,1,.55.55v4.4q1.735.087,3.472.26a.731.731,0,0,1,.347.2.455.455,0,0,1,.115.376l-.521,5.266a.689.689,0,0,1-.2.376.416.416,0,0,1-.405.087,22.994,22.994,0,0,0-4.947-.608,3.925,3.925,0,0,0-1.591.232,2.235,2.235,0,0,0-.955.666,3.02,3.02,0,0,0-.405.694,2.061,2.061,0,0,0-.116.579,1.573,1.573,0,0,0,.116.579,2.807,2.807,0,0,0,.434.81,3.383,3.383,0,0,0,1.1.955,6.226,6.226,0,0,0,1.881.723,8.846,8.846,0,0,1,2.43,1.013,9.529,9.529,0,0,1,2.17,1.765,8.211,8.211,0,0,1,1.591,2.633A10.958,10.958,0,0,1,1411.722,1031.267Z" transform="translate(-1392.916 -1005.288)" fill="#fff"/>
        <path id="Path_19747" data-name="Path 19747" d="M1403.664,1042.406h-6.538a1.482,1.482,0,0,1-1.5-1.5v-3.443c-.868-.058-1.678-.145-2.431-.232a1.475,1.475,0,0,1-.983-.55,1.619,1.619,0,0,1-.376-1.012v-.087l.521-5.265a1.593,1.593,0,0,1,.636-1.1,1.573,1.573,0,0,1,1.244-.26c.376.087.781.174,1.186.231s.955.145,1.591.231a12.856,12.856,0,0,0,1.765.116,3.07,3.07,0,0,0,1.244-.173,1.141,1.141,0,0,0,.463-.289,2.948,2.948,0,0,0,.26-.463.576.576,0,0,0,.058-.231.874.874,0,0,0-.058-.289,1.971,1.971,0,0,0-.318-.579,2.025,2.025,0,0,0-.752-.608,5.372,5.372,0,0,0-1.591-.608,10.037,10.037,0,0,1-2.719-1.128,11.429,11.429,0,0,1-2.372-1.938,9.26,9.26,0,0,1-1.823-2.98,10.756,10.756,0,0,1-.666-3.79,8.145,8.145,0,0,1,1.533-4.976,8.509,8.509,0,0,1,3.616-2.72v-4.4a1.643,1.643,0,0,1,.405-1.07,1.494,1.494,0,0,1,1.1-.492h6.538a1.581,1.581,0,0,1,1.562,1.562v3.443c.868.058,1.707.116,2.546.231h.029a1.5,1.5,0,0,1,.926.521,1.48,1.48,0,0,1,.376,1.186l-.521,5.237v.029a1.561,1.561,0,0,1-.608,1.041,1.5,1.5,0,0,1-1.244.289,25.073,25.073,0,0,0-4.745-.607,3,3,0,0,0-1.215.173,1.447,1.447,0,0,0-.492.289,1.574,1.574,0,0,0-.26.463.889.889,0,0,0-.058.232.935.935,0,0,0,.058.26,3.228,3.228,0,0,0,.318.579,2.194,2.194,0,0,0,.781.636,5.365,5.365,0,0,0,1.591.608,9.872,9.872,0,0,1,2.691,1.128,10.1,10.1,0,0,1,2.4,1.938,8.722,8.722,0,0,1,1.794,2.98,10.709,10.709,0,0,1,.666,3.761,8.759,8.759,0,0,1-1.418,5.179,7.683,7.683,0,0,1-3.732,2.719v4.224a1.487,1.487,0,0,1-.434,1.071A1.376,1.376,0,0,1,1403.664,1042.406Zm-6.047-2.025h5.555v-4.455a1.024,1.024,0,0,1,.723-.984,5.989,5.989,0,0,0,3.356-2.17,6.965,6.965,0,0,0,1.042-4.021,8.586,8.586,0,0,0-.521-3.038,7.046,7.046,0,0,0-1.389-2.314,8.855,8.855,0,0,0-1.938-1.562,7.838,7.838,0,0,0-2.17-.9,8.476,8.476,0,0,1-2.141-.839,4.7,4.7,0,0,1-1.417-1.244,4.594,4.594,0,0,1-.55-1.041,2.594,2.594,0,0,1-.173-.9,2.75,2.75,0,0,1,.173-.926,3.852,3.852,0,0,1,.521-.926,2.949,2.949,0,0,1,1.417-1.013,4.782,4.782,0,0,1,1.968-.289,27.656,27.656,0,0,1,4.571.521l.405-4.224c-.955-.087-1.938-.174-2.922-.2a1,1,0,0,1-.955-1.013v-3.963h-5.555v4.6a1,1,0,0,1-.665.955,6.93,6.93,0,0,0-3.327,2.286,6.053,6.053,0,0,0-1.128,3.761,8.25,8.25,0,0,0,.55,3.067,7.249,7.249,0,0,0,1.389,2.315,9.943,9.943,0,0,0,1.938,1.591,7.239,7.239,0,0,0,2.141.868,8.285,8.285,0,0,1,2.17.839,4.128,4.128,0,0,1,1.418,1.273,3.86,3.86,0,0,1,.521,1.042,2.738,2.738,0,0,1,.174.926,2.585,2.585,0,0,1-.174.9,5.038,5.038,0,0,1-.492.955,2.86,2.86,0,0,1-1.389,1.012,4.841,4.841,0,0,1-2,.289h0c-.579,0-1.244-.058-1.967-.116-.694-.087-1.273-.174-1.707-.231a6.933,6.933,0,0,1-.752-.145l-.405,4.253c.839.087,1.765.174,2.777.2a.994.994,0,0,1,.954,1.012v3.848Zm9.489-30.84Z" transform="translate(-1390.5 -1002.8)" fill="#fff"/>
      </g>
    </g>
    <g id="Group_10223" data-name="Group 10223" transform="translate(1175.599 1772.776)">
      <path id="Path_19748" data-name="Path 19748" d="M1268.686,626.356a.816.816,0,0,0,.434-.116,1,1,0,0,0,.463-1.36c-.115-.231-11.022-22.74-14.639-30.522a1,1,0,1,0-1.823.839c3.616,7.811,14.523,30.32,14.639,30.551A1.021,1.021,0,0,0,1268.686,626.356Z" transform="translate(-1253.026 -593.772)" fill="#202d37"/>
    </g>
    <g id="Group_10224" data-name="Group 10224" transform="translate(1174.249 1791.203)">
      <path id="Path_19749" data-name="Path 19749" d="M1286.428,668.586a4.356,4.356,0,0,0,4.108-2.835,5.965,5.965,0,0,0,.174-4.137c-.9-2.951-3.7-4.745-6.278-3.964a4.565,4.565,0,0,0-2.864,2.662,5.962,5.962,0,0,0-.174,4.137A5.476,5.476,0,0,0,1286.428,668.586Zm-.752-9.084a3.541,3.541,0,0,1,3.1,2.72,3.89,3.89,0,0,1-.116,2.748,2.551,2.551,0,0,1-1.591,1.5c-1.5.463-3.182-.723-3.761-2.6a3.89,3.89,0,0,1,.116-2.748,2.55,2.55,0,0,1,1.591-1.5A1.7,1.7,0,0,1,1285.676,659.5Z" transform="translate(-1281.107 -657.467)" fill="#202d37"/>
    </g>
    <g id="Group_10225" data-name="Group 10225" transform="translate(1185.802 1777.073)">
      <path id="Path_19750" data-name="Path 19750" d="M1245.975,619.526a4.315,4.315,0,0,0,2.2-.578,4.605,4.605,0,0,0,2.2-3.24,6.184,6.184,0,0,0-.752-4.079c-1.533-2.69-4.716-3.761-7.03-2.43-2.343,1.331-2.98,4.629-1.417,7.291A5.576,5.576,0,0,0,1245.975,619.526Zm-1.215-8.853a3.754,3.754,0,0,1,3.067,2h0a3.952,3.952,0,0,1,.521,2.691,2.523,2.523,0,0,1-1.215,1.823c-1.36.781-3.269.029-4.253-1.678s-.694-3.732.665-4.542A2.512,2.512,0,0,1,1244.76,610.673Zm3.934,1.475Z" transform="translate(-1240.317 -608.626)" fill="#202d37"/>
    </g>
    <g id="Group_10226" data-name="Group 10226" transform="translate(1201.198 1791.663)">
      <path id="Path_19751" data-name="Path 19751" d="M1214.917,671.944h0a1.006,1.006,0,0,0,1.013-1.013c0-.347-.058-8.332-.521-11.023a1.011,1.011,0,1,0-2,.318c.434,2.517.492,10.618.492,10.7A1.025,1.025,0,0,0,1214.917,671.944Z" transform="translate(-1213.4 -659.057)" fill="#202d37"/>
    </g>
    <g id="Group_10227" data-name="Group 10227" transform="translate(1197.45 1795.231)">
      <path id="Path_19752" data-name="Path 19752" d="M1209.977,673.5a1.014,1.014,0,0,0,.087-2.025c-2.286-.2-7.667,0-7.9,0a1.045,1.045,0,0,0-.983,1.042,1.026,1.026,0,0,0,1.041.984c.058,0,5.5-.2,7.667,0Z" transform="translate(-1201.182 -671.389)" fill="#202d37"/>
    </g>
    <g id="Group_10228" data-name="Group 10228" transform="translate(1026.331 1742.751)">
      <path id="Path_19753" data-name="Path 19753" d="M1513.87,677.01h.087a1,1,0,0,0,.9-1.1c-8.766-89.975-9.258-201.59-4.542-210.442,1.88-3.5,16.23-8.8,37.523-13.858,19.355-4.6,39.722-7.869,49.472-7.985a1.013,1.013,0,1,0,0-2.025h0c-9.895.116-30.435,3.414-49.906,8.043-13.222,3.125-35.817,9.229-38.825,14.87-3.038,5.7-3.53,43.454-2.98,76.9.752,45.855,3.414,94.951,7.291,134.7A.98.98,0,0,0,1513.87,677.01Z" transform="translate(-1505.4 -441.6)" fill="#202d37"/>
    </g>
    <g id="Group_10229" data-name="Group 10229" transform="translate(1320.596 1765.1)">
      <path id="Path_19754" data-name="Path 19754" d="M652.386,587.374c-7.059,7-16.23-6.1-6.394-5.873-6.394-9.258,7.146-14.35,9.836-7.638,1.91-3.963,9.692-2.6,8.65,1.967,5.121-5.005,14.35.347,12.787,7.377,9.287-1.967,17.156,10.068,7.522,13.279,2.777,1.5,3.038,7.262-2.083,8.419a7.248,7.248,0,0,0-4.687,4.137c-1.042,2.257-4.34,4.195-5.063-.347s-2.748-5.063-3.732-5.786-1.909-5.207,0-6.828a5.231,5.231,0,0,1-6.394-5.728C660.342,592.408,654.3,592.061,652.386,587.374Z" transform="translate(-640.657 -569.767)" fill="#202d37"/>
      <path id="Path_19755" data-name="Path 19755" d="M672.554,609.93c1.649,0,3.211-1.475,3.906-3.009a6.24,6.24,0,0,1,3.992-3.558,5.8,5.8,0,0,0,3.732-9.113,6.05,6.05,0,0,0,3.3-7.233c-1.128-4.166-5.989-8.014-11.514-7.551a8.66,8.66,0,0,0-4.716-7.956,8.559,8.559,0,0,0-8.332-.2,4.607,4.607,0,0,0-3.067-2.951,6.517,6.517,0,0,0-6.423,1.128A6.059,6.059,0,0,0,649,567.257a8.075,8.075,0,0,0-7.377,3.79,7.22,7.22,0,0,0,.145,7c-2.43.4-3.211,1.736-3.472,2.633-.579,2.054.868,4.745,3.356,6.22a6.839,6.839,0,0,0,7.9-.463,7.715,7.715,0,0,0,4.745,3.327,8.531,8.531,0,0,0,5.063-.26,5.9,5.9,0,0,0,2.112,3.7,6.458,6.458,0,0,0,3.385,1.447,6.919,6.919,0,0,0-.26,2.257c.058,1.562.55,3.558,1.533,4.282a3.978,3.978,0,0,0,.579.376c.984.608,2.2,1.36,2.748,4.745.463,2.864,1.88,3.5,2.719,3.588A1.532,1.532,0,0,0,672.554,609.93Zm4.224-28.468c4.137,0,7.84,2.922,8.708,6.1.694,2.517-.579,4.426-3.529,5.439a1,1,0,0,0-.694.868,1.047,1.047,0,0,0,.521.984,3.284,3.284,0,0,1,1.389,3.356,3.862,3.862,0,0,1-3.211,3.211,8.376,8.376,0,0,0-5.381,4.687c-.521,1.128-1.591,1.88-2.17,1.823-.434-.058-.81-.781-.984-1.91-.694-4.339-2.575-5.5-3.7-6.162a4.255,4.255,0,0,0-.434-.26,5.4,5.4,0,0,1-.694-3.1,2.872,2.872,0,0,1,.752-2.141,1.023,1.023,0,0,0,.26-1.244,1.012,1.012,0,0,0-1.157-.521,4.308,4.308,0,0,1-3.674-.9,4.184,4.184,0,0,1-1.447-3.761,1.02,1.02,0,0,0-.55-.984,1.062,1.062,0,0,0-1.128.116,5.787,5.787,0,0,1-4.86.752,5.63,5.63,0,0,1-3.992-3.356.964.964,0,0,0-.723-.608,1.036,1.036,0,0,0-.926.289,5,5,0,0,1-6.452,1.013c-1.823-1.07-2.748-2.893-2.43-3.906.231-.839,1.417-1.3,3.211-1.244a1.106,1.106,0,0,0,.926-.521,1.087,1.087,0,0,0-.058-1.07c-1.62-2.372-1.967-4.542-.955-6.336a6.015,6.015,0,0,1,5.468-2.777,3.878,3.878,0,0,1,3.53,2.4,1.011,1.011,0,0,0,.9.637,1.024,1.024,0,0,0,.955-.579c.81-1.707,3.211-2.112,4.947-1.5a2.33,2.33,0,0,1,1.794,2.777.991.991,0,0,0,.492,1.1,1.051,1.051,0,0,0,1.215-.145,6.315,6.315,0,0,1,7.58-.723,6.638,6.638,0,0,1,3.53,7.175.976.976,0,0,0,.26.926,1.067,1.067,0,0,0,.926.289A7.753,7.753,0,0,1,676.778,581.462Z" transform="translate(-638.173 -567.239)" fill="#202d37"/>
    </g>
  </g>
</svg>
