<svg xmlns="http://www.w3.org/2000/svg" width="410.803" height="338.539" viewBox="0 0 410.803 338.539">
  <g id="Group_10324" data-name="Group 10324" transform="translate(-1035.884 -2183.906)">
    <path id="Path_19841" data-name="Path 19841" d="M432.458,752.3c20.685,14.523,94.25-44.139,136-38.035,54.159,7.9,116.273,2.459,161.116-32.663,2.633-2.054,5.208-4.224,7.725-6.481,88.557-80.109,26.148-259.665-71.957-204.263-30.469,17.209-83.213,66.745-108.048,70.017-26.032,3.431-53.681,7.8-95.764-12.549C395.276,496.3,313.176,668.429,432.458,752.3Z" transform="translate(666.884 1757.316)" fill="#f6f6f6"/>
    <g id="Group_10323" data-name="Group 10323" transform="translate(-7234.612 317.205)">
      <g id="Group_10242" data-name="Group 10242" transform="translate(8276.694 1866.701)">
        <circle id="Ellipse_10" data-name="Ellipse 10" cx="20.61" cy="20.61" r="20.61" transform="translate(0 29.146) rotate(-45)" fill="#de3232"/>
      </g>
      <g id="Group_10244" data-name="Group 10244" transform="translate(8347.218 1955.319)">
        <path id="Path_19757" data-name="Path 19757" d="M924.5,662.361c-33.527,60.556-125.41,93.288-171.987,43.607a155.2,155.2,0,0,1-17.321-22.122c-.106-1.591-.186-3.236-.265-4.934-.849-15.941-.9-24.27,16.339-25.464,4.218-.292,10.822-.849,18.806-1.538A199.157,199.157,0,0,0,780.095,633.4c-3.793-.477-43.846-5.782-57.214-17.453a55.268,55.268,0,0,1-8.064-9.178c-11.034-15.172-20.689-38.116-22.042-41.591-1.432-3.661-1.565-6.552-.743-11.963h0c-.61.716-6.048-6.419-5.252-8.939,1.326-4.111,14.27-12.732,21.485-13.581,1.273-.159,4.881,6.127,4.058,6.286,4.509.584,13.5,2.759,15.544,5.119.9,1.034,4.111,3.9,7.745,7.427,5.888,5.676,12.865,13.077,12.971,17.215.186,6.711,1.194,6.631,3.263,6.817,2.1.186,3.82,1.194,3.634,3.634-.186,2.467.186,4.377,4.377,3.714,4.191-.637,7,.08,7.825,3.554.822,3.448,12.281,3.554,16.631,3.634s26.472,1.8,29.071,3.369c1.565-14.907,7.533-38.514,7.533-38.514s-18.2-6.048-17.931-8.965c.159-1.645,14.721-7.294,24.217-10.8.133-.053,5.862.637,8.939-.637,0,0-5.066,13.846,11.193,19.469,0,0,.212,2.706,1.379,2.865.8.106,1.989-.531,2.52-3.05a18.665,18.665,0,0,0,.239-4.695h.345a37.206,37.206,0,0,1,7.294.743c2.918.637,4.96,1.7,5.385,3.1.663,2.149-.955,4.668-7.453,5.65-2.44,7.4-2.069,13.873.265,14.217a5.362,5.362,0,0,0,4.8-1.353c1.247-.9,2.228,3.687-3,7.162-4.085,2.706-9.2,3.74-13.209,1.088-1.008,7.188-2.1,15.278-2.918,22.652,1.857.026,29.124,17.4,36.5,21.3,4.775,2.546,14.323,8.382,21.565,16.737,15.756-.875,20.344.318,22.042,12.6C923.489,653.37,923.966,657.348,924.5,662.361Z" transform="translate(-686.701 -530.689)" fill="#fff"/>
      </g>
      <g id="Group_10245" data-name="Group 10245" transform="translate(8485.425 1966.237)">
        <path id="Path_19758" data-name="Path 19758" d="M1208.4,576.48h0a1.088,1.088,0,0,1-.557-1.432l1.141-2.546a1.088,1.088,0,0,1,1.432-.557h0a1.088,1.088,0,0,1,.557,1.432l-1.141,2.546A1.05,1.05,0,0,1,1208.4,576.48Z" transform="translate(-1207.752 -571.852)" fill="#202d37"/>
      </g>
      <g id="Group_10246" data-name="Group 10246" transform="translate(8492.109 1969.261)">
        <path id="Path_19759" data-name="Path 19759" d="M1233.6,587.88h0a1.088,1.088,0,0,1-.557-1.432l1.141-2.546a1.088,1.088,0,0,1,1.432-.557h0a1.088,1.088,0,0,1,.557,1.432l-1.141,2.546A1.079,1.079,0,0,1,1233.6,587.88Z" transform="translate(-1232.953 -583.252)" fill="#202d37"/>
      </g>
      <g id="Group_10248" data-name="Group 10248" transform="translate(8298.034 1883.818)">
        <g id="Group_10247" data-name="Group 10247">
          <path id="Path_19760" data-name="Path 19760" d="M1030.232,282.75a4.981,4.981,0,0,1-1.777,2.387,4.238,4.238,0,0,1-2.838.584l-1.141,2.865a.357.357,0,0,1-.159.186.368.368,0,0,1-.239,0l-3.767-1.512a.358.358,0,0,1-.186-.159.368.368,0,0,1,0-.239l1.008-2.546a20.172,20.172,0,0,1-1.857-.928c-.08-.027-.106-.106-.133-.186a.368.368,0,0,1,0-.239l1.512-2.918a.329.329,0,0,1,.212-.159.309.309,0,0,1,.265.053c.212.133.424.292.663.424s.531.318.9.5a7.6,7.6,0,0,0,1.061.5,2.51,2.51,0,0,0,.981.239,1.264,1.264,0,0,0,.69-.159,1.537,1.537,0,0,0,.371-.318,1.3,1.3,0,0,0,.186-.292,1.527,1.527,0,0,0,.079-.371,2.4,2.4,0,0,0-.053-.557,2.224,2.224,0,0,0-.4-.8,4.17,4.17,0,0,0-.928-.849,5.286,5.286,0,0,1-1.167-1.141,6.962,6.962,0,0,1-.849-1.512,5.293,5.293,0,0,1-.318-1.883,6.167,6.167,0,0,1,.424-2.122,4.331,4.331,0,0,1,1.777-2.228,4.812,4.812,0,0,1,2.812-.637l1.167-2.944a.316.316,0,0,1,.186-.186.254.254,0,0,1,.239,0l3.766,1.512a.416.416,0,0,1,.186.186.454.454,0,0,1,0,.265l-1.008,2.546c.663.292,1.3.61,1.937.955.079.027.106.106.159.186a.258.258,0,0,1-.026.239l-1.512,2.918a.33.33,0,0,1-.212.159.3.3,0,0,1-.265-.027,15.506,15.506,0,0,0-2.705-1.485,2.3,2.3,0,0,0-.955-.239,1.263,1.263,0,0,0-.689.159,2.6,2.6,0,0,0-.4.318,1.288,1.288,0,0,0-.186.292c-.027.106-.053.212-.08.345a2.388,2.388,0,0,0,.053.557,1.953,1.953,0,0,0,.424.8,4.167,4.167,0,0,0,.928.849,5.928,5.928,0,0,1,1.167,1.141,6,6,0,0,1,.849,1.512,5.293,5.293,0,0,1,.318,1.883A7.733,7.733,0,0,1,1030.232,282.75Z" transform="translate(-1018.737 -265.116)" fill="#fff"/>
          <path id="Path_19761" data-name="Path 19761" d="M1023.108,287.872a.942.942,0,0,1-.265-.053l-3.766-1.512a.779.779,0,0,1-.4-.371.679.679,0,0,1,0-.557l.875-2.2c-.557-.265-1.088-.53-1.538-.769a.678.678,0,0,1-.318-.4.741.741,0,0,1,.027-.53.026.026,0,0,1,.026-.027l1.512-2.918a.734.734,0,0,1,1.061-.265c.212.133.424.292.637.424s.5.292.875.5c.345.186.69.345,1.008.477a2.335,2.335,0,0,0,.849.212.665.665,0,0,0,.451-.106,1.558,1.558,0,0,0,.292-.239,1.354,1.354,0,0,0,.133-.186.529.529,0,0,0,.053-.239,2.187,2.187,0,0,0-.053-.477,1.883,1.883,0,0,0-.345-.637,3.85,3.85,0,0,0-.822-.769,5.539,5.539,0,0,1-1.273-1.22,6.369,6.369,0,0,1-.9-1.618,5.092,5.092,0,0,1-.345-2.042,5.74,5.74,0,0,1,.477-2.255,4.817,4.817,0,0,1,1.936-2.414,5.148,5.148,0,0,1,2.759-.716l1.061-2.679a.731.731,0,0,1,.928-.424l3.767,1.512a.732.732,0,0,1,.4.4.68.68,0,0,1,0,.557l-.875,2.2c.557.265,1.088.53,1.618.8a.844.844,0,0,1,.345.4.653.653,0,0,1-.053.584l-1.512,2.918a.882.882,0,0,1-.451.371.717.717,0,0,1-.61-.106,16.658,16.658,0,0,0-2.626-1.459,2.214,2.214,0,0,0-.822-.212.8.8,0,0,0-.477.106,1.328,1.328,0,0,0-.318.239.81.81,0,0,0-.133.186c-.027.027-.027.106-.053.239a1.877,1.877,0,0,0,.053.451,1.524,1.524,0,0,0,.345.637,3.853,3.853,0,0,0,.822.769,6.76,6.76,0,0,1,1.247,1.22,6.373,6.373,0,0,1,.9,1.618,5.6,5.6,0,0,1,.345,2.042,5.839,5.839,0,0,1-.478,2.255h0a5.615,5.615,0,0,1-1.91,2.573,4.536,4.536,0,0,1-2.812.663l-1.034,2.6a.78.78,0,0,1-.371.4A.632.632,0,0,1,1023.108,287.872Zm-3.687-2.281,3.634,1.459,1.114-2.785a.376.376,0,0,1,.4-.239,4,4,0,0,0,2.6-.5,4.652,4.652,0,0,0,1.618-2.2,5.94,5.94,0,0,0,.424-1.963,4.67,4.67,0,0,0-.292-1.751,5.546,5.546,0,0,0-.8-1.406,5.144,5.144,0,0,0-1.088-1.061,5.738,5.738,0,0,1-1.008-.928,2.3,2.3,0,0,1-.477-.955,3.67,3.67,0,0,1-.08-.663,1.269,1.269,0,0,1,.106-.477,1.427,1.427,0,0,1,.265-.424,1.863,1.863,0,0,1,.478-.371,1.663,1.663,0,0,1,.928-.239,2.621,2.621,0,0,1,1.114.265,15.51,15.51,0,0,1,2.705,1.485l1.432-2.785c-.583-.318-1.22-.61-1.857-.9a.4.4,0,0,1-.212-.5l.981-2.493-3.66-1.459-1.141,2.891a.358.358,0,0,1-.4.239,4.415,4.415,0,0,0-2.573.584,4.022,4.022,0,0,0-1.618,2.016,5.29,5.29,0,0,0-.4,1.963,4.67,4.67,0,0,0,.292,1.751,6.227,6.227,0,0,0,.8,1.432,5.14,5.14,0,0,0,1.088,1.061,4.32,4.32,0,0,1,1.008.928,2.3,2.3,0,0,1,.477.955,2.016,2.016,0,0,1,.053.663,1.553,1.553,0,0,1-.106.5,1.158,1.158,0,0,1-.265.4,2.279,2.279,0,0,1-.451.4,1.632,1.632,0,0,1-.9.239,3.347,3.347,0,0,1-1.141-.265,8.152,8.152,0,0,1-1.087-.53c-.371-.212-.69-.371-.928-.53-.212-.133-.424-.265-.61-.4l-1.432,2.785a18.538,18.538,0,0,0,1.777.875.4.4,0,0,1,.212.5Zm9.735-4.138Zm1.963-8.621Zm1.406-2.891Z" transform="translate(-1017.66 -263.819)" fill="#fff"/>
        </g>
      </g>
      <g id="Group_10256" data-name="Group 10256" transform="translate(8559.598 1909.518)">
        <g id="Group_10250" data-name="Group 10250" transform="translate(38.614 43.353)">
          <g id="Group_10249" data-name="Group 10249">
            <path id="Path_19762" data-name="Path 19762" d="M1642.174,528.976a2.4,2.4,0,0,1,.424,1.432,2.244,2.244,0,0,1-.61,1.326l.822,1.326a.2.2,0,0,1,.026.133c0,.053-.026.08-.079.106l-1.751,1.088a.2.2,0,0,1-.133.027c-.053,0-.08-.027-.106-.08l-.716-1.167c-.345.186-.636.345-.928.477a.081.081,0,0,1-.106,0,.368.368,0,0,1-.106-.08l-.716-1.485a.12.12,0,0,1,0-.133c.027-.053.053-.08.106-.08.133-.053.239-.08.371-.133s.292-.133.478-.212.371-.186.531-.265a2.612,2.612,0,0,0,.4-.318.631.631,0,0,0,.133-.318.586.586,0,0,0-.027-.239c-.027-.08-.027-.133-.053-.159a.32.32,0,0,0-.133-.133.927.927,0,0,0-.239-.159,1.058,1.058,0,0,0-.451-.08,2.672,2.672,0,0,0-.61.106,2.811,2.811,0,0,1-.822.133,3.294,3.294,0,0,1-.875-.106,2.041,2.041,0,0,1-.849-.451,2.4,2.4,0,0,1-.716-.822,2.267,2.267,0,0,1-.371-1.379,2.566,2.566,0,0,1,.583-1.326l-.822-1.353a.2.2,0,0,1-.027-.133c0-.053.027-.08.08-.106l1.751-1.088a.2.2,0,0,1,.133-.026c.053,0,.08.026.106.08l.716,1.167c.318-.186.637-.345.955-.5a.118.118,0,0,1,.132,0c.053,0,.08.027.106.08l.716,1.485a.12.12,0,0,1,0,.133c-.026.053-.053.08-.079.08a7.226,7.226,0,0,0-1.432.637,1.529,1.529,0,0,0-.371.318.624.624,0,0,0-.133.345v.239c.027.053.027.133.053.159.026.053.08.08.133.133a.512.512,0,0,0,.239.133,1.058,1.058,0,0,0,.451.08,2.683,2.683,0,0,0,.61-.106,2.806,2.806,0,0,1,.822-.133,3.29,3.29,0,0,1,.875.106,2.4,2.4,0,0,1,.849.451A3.314,3.314,0,0,1,1642.174,528.976Z" transform="translate(-1634.313 -522.813)" fill="#202d37"/>
            <path id="Path_19763" data-name="Path 19763" d="M1639.577,533.409a.24.24,0,0,1-.133-.026.564.564,0,0,1-.345-.265l-.53-.849-.637.318a.682.682,0,0,1-.4.027.724.724,0,0,1-.318-.239.026.026,0,0,0-.026-.027l-.716-1.485a.542.542,0,0,1-.026-.451.517.517,0,0,1,.345-.318,1.85,1.85,0,0,0,.345-.133,3.223,3.223,0,0,0,.451-.212,2.033,2.033,0,0,0,.478-.265.935.935,0,0,0,.292-.239c.053-.08.053-.106.053-.106v-.133a.093.093,0,0,0-.026-.053h0s0-.027-.053-.053a.656.656,0,0,0-.159-.106,1.205,1.205,0,0,0-.265-.026,1.231,1.231,0,0,0-.5.106,2.731,2.731,0,0,1-.928.159,4.354,4.354,0,0,1-.981-.133,2.772,2.772,0,0,1-1.008-.5,3.5,3.5,0,0,1-.822-.928,2.661,2.661,0,0,1-.424-1.618,2.925,2.925,0,0,1,.5-1.326l-.69-1.114a.542.542,0,0,1,.186-.769l1.751-1.088a.614.614,0,0,1,.424-.08.55.55,0,0,1,.345.239l.531.849c.212-.106.424-.212.663-.318a.683.683,0,0,1,.4-.027.549.549,0,0,1,.345.292l.716,1.485a.532.532,0,0,1,.026.451.556.556,0,0,1-.345.345,8.935,8.935,0,0,0-1.326.61.769.769,0,0,0-.265.212.165.165,0,0,0-.053.106v.159c0,.026,0,.026.027.053h0a.026.026,0,0,0,.026.026l.159.08a1.549,1.549,0,0,0,.265.027,1.229,1.229,0,0,0,.5-.106,5.224,5.224,0,0,1,.928-.159,3.128,3.128,0,0,1,.981.133,3.269,3.269,0,0,1,1.008.5,3.5,3.5,0,0,1,.822.928,2.994,2.994,0,0,1,.478,1.671,2.47,2.47,0,0,1-.531,1.326l.663,1.087a.591.591,0,0,1,.08.424.551.551,0,0,1-.239.345l-1.751,1.087A.442.442,0,0,1,1639.577,533.409Zm.186-.663Zm-1.061-1.379a.453.453,0,0,1,.345.186l.61.981,1.353-.822-.69-1.114a.4.4,0,0,1,.053-.477,1.9,1.9,0,0,0,.531-1.087,2.018,2.018,0,0,0-.371-1.194h0a2.715,2.715,0,0,0-.61-.716,1.859,1.859,0,0,0-.716-.371,2.514,2.514,0,0,0-.743-.106,3.337,3.337,0,0,0-.716.106,2.586,2.586,0,0,1-.743.133,1.4,1.4,0,0,1-.61-.106,1.958,1.958,0,0,1-.345-.212,1.7,1.7,0,0,1-.212-.239.554.554,0,0,1-.106-.292,1.41,1.41,0,0,1-.026-.345.974.974,0,0,1,.212-.557,2.028,2.028,0,0,1,.5-.424,7.852,7.852,0,0,1,1.247-.583l-.5-1.034c-.239.106-.5.239-.743.371a.386.386,0,0,1-.53-.133l-.61-.982-1.353.822.716,1.167a.4.4,0,0,1-.026.451,2.324,2.324,0,0,0-.5,1.114,1.751,1.751,0,0,0,.318,1.141,2.8,2.8,0,0,0,.637.716,1.858,1.858,0,0,0,.716.371,2.564,2.564,0,0,0,.769.106,1.976,1.976,0,0,0,.689-.106,2.589,2.589,0,0,1,.743-.133,1.4,1.4,0,0,1,.61.106,1.641,1.641,0,0,1,.318.212,1.709,1.709,0,0,1,.212.239.948.948,0,0,1,.106.292,1.4,1.4,0,0,1,.027.345.976.976,0,0,1-.212.557,2.036,2.036,0,0,1-.5.424,5.31,5.31,0,0,1-.557.292c-.212.08-.371.159-.5.212-.053.026-.106.026-.132.053l.5,1.061c.212-.106.451-.239.69-.371A.286.286,0,0,1,1638.7,531.366Zm2.414.557Zm-3.236-7.878ZM1637,522.9Zm-1.565-.663Z" transform="translate(-1632.963 -521.462)" fill="#202d37"/>
          </g>
        </g>
        <g id="Group_10251" data-name="Group 10251">
          <path id="Path_19764" data-name="Path 19764" d="M1530.1,420.825c-4.058,0-9.2-2.759-12.97-14.35-3.13-9.682-14.324-29.973-28.859-31.008a.959.959,0,0,1-.849-.716.909.909,0,0,1,.424-1.008c.928-.584,22.652-14.005,28.276-15.491,3.024-.8,6.366.451,9.708,3.607,3.1,2.944,6.048,7.427,8.541,12.971,2.944,6.578,6.26,13.369,10.53,18.408,5.332,6.26,10.69,8.09,16.446,5.6a.949.949,0,0,1,.981.159.92.92,0,0,1,.265.955c-2.838,9.6-25.862,20.026-31.14,20.8A11.917,11.917,0,0,1,1530.1,420.825ZM1491,374.009c7.321,1.591,13.289,7.374,17.135,12.228a67.485,67.485,0,0,1,10.743,19.655c3.024,9.337,7.162,13.713,12.254,13,4.4-.637,23.979-9.5,28.806-17.613-14.085,3.9-23.262-16.658-27.294-25.676-4.721-10.583-11.167-16.817-16.048-15.517C1512.245,361.224,1496.781,370.481,1491,374.009Z" transform="translate(-1487.388 -358.02)" fill="#202d37"/>
        </g>
        <g id="Group_10252" data-name="Group 10252" transform="translate(23.532 6.76)">
          <path id="Path_19765" data-name="Path 19765" d="M1577.032,389.87a.911.911,0,0,1-.822-.5.927.927,0,0,1,.4-1.247c.027-.027,3.9-2.042,8.806-4.509a.925.925,0,0,1,.849,1.645c-4.881,2.493-8.753,4.483-8.78,4.509A1.011,1.011,0,0,1,1577.032,389.87Z" transform="translate(-1576.106 -383.506)" fill="#202d37"/>
        </g>
        <g id="Group_10253" data-name="Group 10253" transform="translate(22.8 11.026)">
          <path id="Path_19766" data-name="Path 19766" d="M1574.262,407.736a.918.918,0,0,1-.531-1.671,97.574,97.574,0,0,1,12.546-6.393.926.926,0,1,1,.743,1.7,96.882,96.882,0,0,0-12.2,6.18A1.076,1.076,0,0,1,1574.262,407.736Z" transform="translate(-1573.345 -399.59)" fill="#202d37"/>
        </g>
        <g id="Group_10254" data-name="Group 10254" transform="translate(29.787 18.033)">
          <path id="Path_19767" data-name="Path 19767" d="M1600.617,432.848a.937.937,0,0,1-.5-1.724c.053-.026,4.987-3.077,8.674-5.013a.925.925,0,0,1,.849,1.645c-3.607,1.883-8.514,4.907-8.568,4.934A.669.669,0,0,1,1600.617,432.848Z" transform="translate(-1599.684 -426.006)" fill="#202d37"/>
        </g>
        <g id="Group_10255" data-name="Group 10255" transform="translate(34.1 25.952)">
          <path id="Path_19768" data-name="Path 19768" d="M1616.862,462.157a.894.894,0,0,1-.743-.371.931.931,0,0,1,.212-1.3c.027-.026,3.422-2.467,6.6-4.483a.924.924,0,0,1,.981,1.565c-3.156,1.989-6.472,4.4-6.525,4.43A.9.9,0,0,1,1616.862,462.157Z" transform="translate(-1615.945 -455.86)" fill="#202d37"/>
        </g>
      </g>
      <g id="Group_10271" data-name="Group 10271" transform="translate(8607.142 2069.75)">
        <g id="Group_10257" data-name="Group 10257">
          <path id="Path_19769" data-name="Path 19769" d="M1667.788,972.843a.917.917,0,0,1-.928-.9,2.075,2.075,0,0,0-.026-.345c-.557-6.658.079-8.3,1.22-8.753,1.485-.583,6.791-.716,7.852-.743h.026a.917.917,0,0,1,.928.9.959.959,0,0,1-.9.955,47.362,47.362,0,0,0-7.109.557c-.159.265-.583,1.538-.133,6.9.027.318.027.4.027.477A.986.986,0,0,1,1667.788,972.843Z" transform="translate(-1666.628 -962.1)" fill="#de3232"/>
        </g>
        <g id="Group_10258" data-name="Group 10258" transform="translate(44.899 0)">
          <path id="Path_19770" data-name="Path 19770" d="M1843.831,971.941h-.08a.942.942,0,0,1-.849-1.008,29.752,29.752,0,0,0,.053-6.127c-.53-.451-3.342-.849-6.127-.849a.928.928,0,0,1,0-1.857c3.316,0,7.347.371,7.878,2.1.478,1.538.106,6.021.027,6.9A.883.883,0,0,1,1843.831,971.941Zm-.849-7.109Z" transform="translate(-1835.9 -962.1)" fill="#de3232"/>
        </g>
        <g id="Group_10259" data-name="Group 10259" transform="translate(45.445 36.976)">
          <path id="Path_19771" data-name="Path 19771" d="M1841.947,1110.731a20.493,20.493,0,0,1-3.209-.265.927.927,0,1,1,.292-1.83c2.759.424,5.305.212,5.57-.265.133-2.042,0-5.862,0-5.915a.907.907,0,0,1,.9-.955.923.923,0,0,1,.955.9c0,.159.133,3.952,0,6.1a1.9,1.9,0,0,1-.743,1.379A6.463,6.463,0,0,1,1841.947,1110.731Z" transform="translate(-1837.957 -1101.5)" fill="#de3232"/>
        </g>
        <g id="Group_10260" data-name="Group 10260" transform="translate(1.664 36.976)">
          <path id="Path_19772" data-name="Path 19772" d="M1679.717,1111.261c-.955,0-4.217-.053-5.331-.663-.4-.212-1.486-.8-1.486-8.17a.928.928,0,0,1,1.857,0c0,2.653.239,5.836.61,6.578a18.973,18.973,0,0,0,4.35.371.942.942,0,0,1,0,1.883Zm-4.3-2.175Z" transform="translate(-1672.9 -1101.5)" fill="#de3232"/>
        </g>
        <g id="Group_10261" data-name="Group 10261" transform="translate(9.025 8.241)">
          <path id="Path_19773" data-name="Path 19773" d="M1708.277,1007.873a51.882,51.882,0,0,1-5.968-.239c-.451-.08-1.22-.186-1.406-.9-.478-1.777-.531-7.931,2.2-11.379,1.75-2.2,5.941-2.732,12.493-1.618.159.026.292.053.345.053a.946.946,0,0,1,.8.531c.106.212.371.716.345,6.366-.027,5.676-.292,6.074-.425,6.286-.292.451-.478.769-6.578.875C1709.524,1007.873,1708.914,1007.873,1708.277,1007.873Zm-5.6-1.618Zm12.307-.08Zm-12.387-.371a81.532,81.532,0,0,0,12.467-.026,100.757,100.757,0,0,0,.053-10.212c-7.507-1.273-9.841.053-10.557.955C1702.442,999.173,1702.336,1004,1702.6,1005.8Zm12.838-.106Zm.451-11.883h0Z" transform="translate(-1700.652 -993.17)" fill="#202d37"/>
        </g>
        <g id="Group_10262" data-name="Group 10262" transform="translate(15.403 14.297)">
          <path id="Path_19774" data-name="Path 19774" d="M1729.463,1022.009H1727.9a1.71,1.71,0,0,1-1.7-1.7V1019.2a1.71,1.71,0,0,1,1.7-1.7h1.565a1.71,1.71,0,0,1,1.7,1.7v1.114A1.692,1.692,0,0,1,1729.463,1022.009Z" transform="translate(-1725.802 -1017.102)" fill="#202d37"/>
          <path id="Path_19775" data-name="Path 19775" d="M1728.36,1021.3H1726.8a2.083,2.083,0,0,1-2.1-2.1V1018.1a2.083,2.083,0,0,1,2.1-2.1h1.565a2.083,2.083,0,0,1,2.1,2.1v1.114A2.1,2.1,0,0,1,1728.36,1021.3Zm-1.565-4.483a1.3,1.3,0,0,0-1.3,1.3v1.114a1.3,1.3,0,0,0,1.3,1.3h1.565a1.3,1.3,0,0,0,1.3-1.3v-1.114a1.3,1.3,0,0,0-1.3-1.3H1726.8Z" transform="translate(-1724.7 -1016)" fill="#202d37"/>
        </g>
        <g id="Group_10263" data-name="Group 10263" transform="translate(15.403 31.167)">
          <path id="Path_19776" data-name="Path 19776" d="M1729.463,1085.609H1727.9a1.71,1.71,0,0,1-1.7-1.7V1082.8a1.71,1.71,0,0,1,1.7-1.7h1.565a1.71,1.71,0,0,1,1.7,1.7v1.114A1.71,1.71,0,0,1,1729.463,1085.609Z" transform="translate(-1725.802 -1080.702)" fill="#202d37"/>
          <path id="Path_19777" data-name="Path 19777" d="M1728.36,1084.9H1726.8a2.083,2.083,0,0,1-2.1-2.1V1081.7a2.083,2.083,0,0,1,2.1-2.1h1.565a2.083,2.083,0,0,1,2.1,2.1v1.114A2.1,2.1,0,0,1,1728.36,1084.9Zm-1.565-4.509a1.3,1.3,0,0,0-1.3,1.3v1.114a1.3,1.3,0,0,0,1.3,1.3h1.565a1.3,1.3,0,0,0,1.3-1.3V1081.7a1.3,1.3,0,0,0-1.3-1.3Z" transform="translate(-1724.7 -1079.6)" fill="#202d37"/>
        </g>
        <g id="Group_10264" data-name="Group 10264" transform="translate(33.361 13.475)">
          <path id="Path_19778" data-name="Path 19778" d="M1797.162,1018.909H1795.6a1.709,1.709,0,0,1-1.7-1.7V1016.1a1.71,1.71,0,0,1,1.7-1.7h1.565a1.71,1.71,0,0,1,1.7,1.7v1.114A1.71,1.71,0,0,1,1797.162,1018.909Z" transform="translate(-1793.502 -1014.002)" fill="#202d37"/>
          <path id="Path_19779" data-name="Path 19779" d="M1796.06,1018.2H1794.5a2.083,2.083,0,0,1-2.1-2.1V1015a2.083,2.083,0,0,1,2.1-2.1h1.565a2.083,2.083,0,0,1,2.1,2.1v1.114A2.117,2.117,0,0,1,1796.06,1018.2Zm-1.565-4.509a1.3,1.3,0,0,0-1.3,1.3v1.114a1.3,1.3,0,0,0,1.3,1.3h1.565a1.3,1.3,0,0,0,1.3-1.3V1015a1.3,1.3,0,0,0-1.3-1.3Z" transform="translate(-1792.4 -1012.9)" fill="#202d37"/>
        </g>
        <g id="Group_10265" data-name="Group 10265" transform="translate(33.361 31.167)">
          <path id="Path_19780" data-name="Path 19780" d="M1797.162,1085.609H1795.6a1.71,1.71,0,0,1-1.7-1.7V1082.8a1.71,1.71,0,0,1,1.7-1.7h1.565a1.71,1.71,0,0,1,1.7,1.7v1.114A1.71,1.71,0,0,1,1797.162,1085.609Z" transform="translate(-1793.502 -1080.702)" fill="#202d37"/>
          <path id="Path_19781" data-name="Path 19781" d="M1796.06,1084.9H1794.5a2.083,2.083,0,0,1-2.1-2.1V1081.7a2.083,2.083,0,0,1,2.1-2.1h1.565a2.083,2.083,0,0,1,2.1,2.1v1.114A2.1,2.1,0,0,1,1796.06,1084.9Zm-1.565-4.509a1.3,1.3,0,0,0-1.3,1.3v1.114a1.3,1.3,0,0,0,1.3,1.3h1.565a1.3,1.3,0,0,0,1.3-1.3V1081.7a1.3,1.3,0,0,0-1.3-1.3Z" transform="translate(-1792.4 -1079.6)" fill="#202d37"/>
        </g>
        <g id="Group_10266" data-name="Group 10266" transform="translate(29.115 7.869)">
          <path id="Path_19782" data-name="Path 19782" d="M1783.529,1007.187a34.247,34.247,0,0,1-5.888-.371c-1.061-.239-1.273-.822-1.247-1.247h0c0-.212.027-.875.027-1.724.159-10.849.4-11.087.849-11.485.955-.849,7.109-.955,10.689.822,2.255,1.114,3.236,4.324,3.687,6.843.4,2.361.478,5.2.159,5.942-.212.5-.451,1.034-6.552,1.167C1784.7,1007.16,1784.113,1007.187,1783.529,1007.187Zm-5.3-2.149a57.1,57.1,0,0,0,11.857-.08c.133-1.8-.318-8.78-2.971-10.106-2.785-1.379-7.188-1.326-8.488-1.087-.239,1.645-.345,7.931-.372,10.106C1778.251,1004.349,1778.251,1004.746,1778.224,1005.038Zm.106-11.167Z" transform="translate(-1776.392 -991.767)" fill="#202d37"/>
        </g>
        <g id="Group_10267" data-name="Group 10267" transform="translate(9.272 26.585)">
          <path id="Path_19783" data-name="Path 19783" d="M1713.842,1079.931c-3.4,0-9.337-.663-11.247-5.066-1.724-3.979-.849-10.636-.265-11.512h0c.265-.424.557-.875,5.172-1.008,2.334-.053,5.093,0,7,.159,2.1.159,2.732.371,2.971.981.292.663.212,5.119.159,7.719-.186,7.082-.53,7.825-.663,8.064a.943.943,0,0,1-.663.557C1716.282,1079.825,1715.3,1079.931,1713.842,1079.931Zm-9.973-15.437c-.318,1.3-.928,6.525.425,9.629,1.75,4.032,8.965,4.111,11.087,3.926a121.782,121.782,0,0,0,.4-13.554C1713.789,1064.148,1705.619,1064.016,1703.869,1064.493Zm-.186.08Zm-.557-.716Z" transform="translate(-1701.583 -1062.325)" fill="#202d37"/>
        </g>
        <g id="Group_10268" data-name="Group 10268" transform="translate(29.275 26.022)">
          <path id="Path_19784" data-name="Path 19784" d="M1777.925,1066.675h-.027a.94.94,0,0,1-.9-.955c.026-.875.026-1.618.026-2.255,0-1.777,0-2.44.478-2.918.345-.345.425-.424,9.417-.265a.907.907,0,0,1,.9.955.917.917,0,0,1-.928.9h-.027c-3.13-.053-6.631-.079-7.984-.053-.027.371-.027.875-.027,1.379,0,.637,0,1.406-.026,2.308A.9.9,0,0,1,1777.925,1066.675Zm1.008-4.987" transform="translate(-1776.995 -1060.203)" fill="#202d37"/>
        </g>
        <g id="Group_10269" data-name="Group 10269" transform="translate(37.367 25.701)">
          <path id="Path_19785" data-name="Path 19785" d="M1808.432,1076.5a.9.9,0,0,1-.849-.557.935.935,0,0,1,.478-1.22c2.6-1.114,5.835-2.493,5.279-14.748a.93.93,0,1,1,1.857-.106c.583,12.493-2.706,14.96-6.393,16.552A.937.937,0,0,1,1808.432,1076.5Z" transform="translate(-1807.505 -1058.995)" fill="#202d37"/>
        </g>
        <g id="Group_10270" data-name="Group 10270" transform="translate(29.09 35.464)">
          <path id="Path_19786" data-name="Path 19786" d="M1779.191,1104.129c-1.645,0-2.334-.159-2.626-.8-.186-.4-.212-1.061-.239-4.323,0-.69-.027-1.459-.027-2.255a.929.929,0,0,1,1.857-.053c0,.8.026,1.565.026,2.281.027,1.273.027,2.573.08,3.263.663.053,1.91.026,2.52,0,.345,0,.636-.027.849-.027a.928.928,0,1,1,0,1.857c-.186,0-.451,0-.8.026C1780.2,1104.129,1779.642,1104.129,1779.191,1104.129Zm-.9-1.459Z" transform="translate(-1776.3 -1095.8)" fill="#202d37"/>
        </g>
      </g>
      <g id="Group_10272" data-name="Group 10272" transform="translate(8462.593 1953.973)">
        <path id="Path_19787" data-name="Path 19787" d="M1133.034,588.634h-.106a.921.921,0,0,1-.822-1.008c1.379-13.236,6.286-33.474,7.347-37.8-1.512-.531-4.934-1.724-8.329-3.13-8.488-3.528-9.549-5.225-9.443-6.525.079-.875.186-2.1,16.79-8.541,7.958-3.1,15.995-5.942,16.074-5.968a.931.931,0,1,1,.637,1.751c-14.35,5.066-29.787,11.194-31.591,13,.239.424,1.592,1.83,8.621,4.721,4.3,1.777,8.568,3.183,8.621,3.209a.959.959,0,0,1,.61,1.114c-.053.239-5.968,23.687-7.506,38.382A.877.877,0,0,1,1133.034,588.634Zm-9.522-48.09Z" transform="translate(-1121.675 -525.615)" fill="#202d37"/>
      </g>
      <g id="Group_10273" data-name="Group 10273" transform="translate(8492.626 1979.644)">
        <path id="Path_19788" data-name="Path 19788" d="M1235.828,630.8a.928.928,0,0,1,0-1.857c4.536,0,7.188-2.016,7.427-5.676a.93.93,0,1,1,1.857.106C1244.794,628.02,1241.319,630.8,1235.828,630.8Z" transform="translate(-1234.9 -622.395)" fill="#202d37"/>
      </g>
      <g id="Group_10274" data-name="Group 10274" transform="translate(8502.647 1970.844)">
        <path id="Path_19789" data-name="Path 19789" d="M1273.614,644.358h-.106a.931.931,0,0,1-.822-1.034c.69-6.366,1.671-14.005,2.918-22.705,1.618-11.406,3.1-20.61,3.1-20.716a.915.915,0,0,1,.928-.769,46.469,46.469,0,0,0,7.878-.424c4.536-.716,6.021-2.069,6.5-2.812a1.893,1.893,0,0,0,.212-1.645c-.583-1.936-7-3.634-15.6-3.077a.93.93,0,0,1-.106-1.857c7.639-.477,16.366.69,17.506,4.4a3.746,3.746,0,0,1-.424,3.183c-1.141,1.8-3.74,3.05-7.772,3.66a46.881,46.881,0,0,1-7.4.451c-.4,2.467-1.645,10.424-2.971,19.894-1.22,8.674-2.2,16.286-2.891,22.626A.968.968,0,0,1,1273.614,644.358Z" transform="translate(-1272.681 -589.218)" fill="#202d37"/>
      </g>
      <g id="Group_10275" data-name="Group 10275" transform="translate(8509.326 1975.372)">
        <path id="Path_19790" data-name="Path 19790" d="M1298.8,608.469a.963.963,0,0,1-.928-.8.908.908,0,0,1,.8-1.035,48.789,48.789,0,0,1,8.117-.292.925.925,0,0,1,.875.982.941.941,0,0,1-.981.875,48.049,48.049,0,0,0-7.772.292C1298.878,608.469,1298.852,608.469,1298.8,608.469Z" transform="translate(-1297.859 -606.292)" fill="#202d37"/>
      </g>
      <g id="Group_10276" data-name="Group 10276" transform="translate(8486.857 1950.049)">
        <path id="Path_19791" data-name="Path 19791" d="M1237.761,519.957s6.552-3.024,11.432,2.414c5.676,6.393-.451,13.183-.584,13.4a47.171,47.171,0,0,0-7.639-.743c.4,6.472-2.255,7.48-3.4,7.321-1.167-.159-.743-2.44-.743-2.44-16.26-5.623-11.194-19.469-11.194-19.469-3.077,1.273-8.806.584-8.939.637C1218.557,511.575,1233.57,512.716,1237.761,519.957Z" transform="translate(-1215.758 -513.332)" fill="#202d37"/>
        <path id="Path_19792" data-name="Path 19792" d="M1235.179,540.789a1.751,1.751,0,0,1-.371-.026,1.715,1.715,0,0,1-1.141-.69,3.273,3.273,0,0,1-.451-2.016c-5.093-1.91-8.621-4.828-10.451-8.7A16.029,16.029,0,0,1,1221.7,519.3a28.941,28.941,0,0,1-7.215.239c-.159,0-.292-.026-.345-.026a.873.873,0,0,1-.663-.212.925.925,0,0,1-.318-.875c.8-3.952,3.767-6.658,8.17-7.4,5.491-.928,11.432,1.353,14.191,5.3a10.877,10.877,0,0,1,11.75,2.944c5.464,6.154,1.008,12.652-.5,14.509l-.053.053a.972.972,0,0,1-.928.371,49.788,49.788,0,0,0-6.5-.716c.053,3.024-.583,5.172-1.91,6.393A3.384,3.384,0,0,1,1235.179,540.789Zm-.027-1.857a1.5,1.5,0,0,0,1.008-.424c.583-.531,1.512-2.016,1.273-5.915a.845.845,0,0,1,.265-.69.963.963,0,0,1,.69-.292,51.2,51.2,0,0,1,7.241.663c1.671-2.2,4.43-7.109.292-11.777-4.35-4.881-10.292-2.228-10.344-2.2a.937.937,0,0,1-1.194-.371c-2.148-3.687-7.719-5.915-12.705-5.093-1.936.318-5.2,1.379-6.393,4.881,1.777.106,5.3.212,7.4-.637a.993.993,0,0,1,1.008.186.967.967,0,0,1,.239.981,14.676,14.676,0,0,0,.557,10.318c1.7,3.554,5.093,6.233,10.08,7.957a.95.95,0,0,1,.61,1.061A2.6,2.6,0,0,0,1235.152,538.933Zm-20.742-19.5Zm0,0Z" transform="translate(-1213.15 -510.822)" fill="#202d37"/>
      </g>
      <g id="Group_10277" data-name="Group 10277" transform="translate(8505.587 1980.35)">
        <path id="Path_19793" data-name="Path 19793" d="M1300.409,648.453c-4.085,2.706-9.2,3.74-13.209,1.088,1.645-11.538,3.1-20.689,3.1-20.689a46.424,46.424,0,0,0,8.037-.451c-2.44,7.4-2.069,13.872.265,14.217a5.362,5.362,0,0,0,4.8-1.353C1304.653,640.416,1305.608,644.978,1300.409,648.453Z" transform="translate(-1286.288 -627.513)" fill="#202d37"/>
        <path id="Path_19794" data-name="Path 19794" d="M1289.979,649.577a10.407,10.407,0,0,1-5.809-1.7.924.924,0,0,1-.4-.9c1.618-11.406,3.1-20.61,3.1-20.716a.914.914,0,0,1,.928-.769,46.481,46.481,0,0,0,7.878-.424.941.941,0,0,1,.849.318.993.993,0,0,1,.186.9c-1.963,5.968-1.963,10.955-.955,12.6.159.239.318.4.477.424a4.316,4.316,0,0,0,3.873-1.008l.265-.186a1.4,1.4,0,0,1,1.432-.159,2.127,2.127,0,0,1,1.034,1.857c.133,1.777-.955,4.695-4.4,7A15.807,15.807,0,0,1,1289.979,649.577Zm-4.3-2.944c3.263,1.857,7.586,1.353,11.7-1.379h0c2.732-1.8,3.369-3.767,3.5-4.509a2.787,2.787,0,0,0,.053-.769,5.924,5.924,0,0,1-5.013,1.167,2.6,2.6,0,0,1-1.777-1.273c-1.379-2.228-1.22-7.347.345-12.758a50.7,50.7,0,0,1-5.942.265C1288.175,629.763,1286.981,637.428,1285.682,646.633Z" transform="translate(-1283.762 -625.056)" fill="#202d37"/>
      </g>
      <g id="Group_10287" data-name="Group 10287" transform="translate(8371.979 1960.616)">
        <path id="Path_19804" data-name="Path 19804" d="M934.9,741.782a9.563,9.563,0,0,1-1.565-.133.927.927,0,1,1,.292-1.83c3.263.5,10.318-.663,21.167-14.376,20.53-25.941,26.445-40.742,22.546-56.578-4.191-17.029-23.74-28.541-29.628-31.671-3.1-1.645-9.522-5.544-16.339-9.708-8.17-4.96-18.3-11.114-19.761-11.485a6.457,6.457,0,0,0-1.512.557c-2.52,1.088-7.241,3.13-15.7,1.034-8.037-1.963-10.053-5.942-11.379-8.594a5.234,5.234,0,0,0-1.459-2.122c-2.228-1.353-23.528-3.13-28.594-3.236h-.531c-8.329-.159-16.154-.8-17-4.35-.451-1.936-1.592-3.634-6.764-2.838-2.1.318-3.5.08-4.43-.769-1.061-.982-1.114-2.546-1.008-3.952.053-.583.186-2.387-2.785-2.652l-.159-.027c-2.918-.239-3.793-1.3-3.952-7.692-.133-4.854-11.512-15.517-16.976-20.636-1.724-1.618-2.971-2.785-3.528-3.422-1.671-1.936-9.973-4.138-14.96-4.8a.923.923,0,0,1,.239-1.83c4.032.53,13.713,2.652,16.127,5.438.477.557,1.777,1.777,3.4,3.289,8.408,7.878,17.427,16.737,17.56,21.936.079,2.918.318,4.615.743,5.332.239.4.477.477,1.512.557l.159.027c3,.265,4.668,1.989,4.483,4.642-.106,1.353.027,2.1.424,2.44.451.424,1.432.5,2.891.292,1.883-.292,7.586-1.141,8.859,4.244.079.371.769,1.592,5.835,2.308a75.8,75.8,0,0,0,9.416.584h.531c3.183.053,26.5,1.671,29.522,3.5a6.357,6.357,0,0,1,2.149,2.865c1.247,2.467,2.971,5.862,10.159,7.613,7.878,1.936,12.042.133,14.536-.955a5.953,5.953,0,0,1,2.308-.69c1.167.027,5.915,2.812,20.663,11.75,6.79,4.138,13.209,8.037,16.26,9.655,6.074,3.209,26.18,15.093,30.557,32.864,4.058,16.472-1.936,31.7-22.891,58.169C946.567,738.838,939.485,741.782,934.9,741.782Z" transform="translate(-780.06 -550.659)" fill="#202d37"/>
      </g>
      <g id="Group_10288" data-name="Group 10288" transform="translate(8505.197 2063.198)">
        <path id="Path_19805" data-name="Path 19805" d="M1287.681,1005.725a.964.964,0,0,1-.9-.663c-1.83-6.419-1.432-7.9.265-10.9a91.484,91.484,0,0,1,5.995-7.48c5.04-5.995,12.652-15.013,13.634-18.329,1.432-4.827-.5-11.724-24.005-29.283a.928.928,0,1,1,1.114-1.485c23.05,17.215,26.525,24.96,24.668,31.273-1.088,3.66-8.223,12.175-13.979,18.992-2.812,3.342-5.225,6.207-5.782,7.188-1.459,2.546-1.777,3.528-.08,9.469a.91.91,0,0,1-.636,1.141A.482.482,0,0,1,1287.681,1005.725Z" transform="translate(-1282.296 -937.396)" fill="#202d37"/>
      </g>
      <g id="Group_10289" data-name="Group 10289" transform="translate(8351.186 1976.663)">
        <path id="Path_19806" data-name="Path 19806" d="M791.113,693.449h-.106c-4.483-.557-44.217-5.915-57.692-17.666-15.04-13.13-30.212-50.742-30.344-51.114-1.485-3.793-1.671-6.9-.743-12.732a.927.927,0,1,1,1.83.292c-.875,5.517-.743,8.276.637,11.777.133.371,15.119,37.533,29.84,50.4,13.05,11.406,52.281,16.658,56.71,17.215a.908.908,0,0,1,.8,1.035A.942.942,0,0,1,791.113,693.449Z" transform="translate(-701.661 -611.157)" fill="#202d37"/>
      </g>
      <g id="Group_10290" data-name="Group 10290" transform="translate(8429.686 2044.627)">
        <path id="Path_19807" data-name="Path 19807" d="M998.536,900.228a.992.992,0,0,1-.477-.133.944.944,0,0,1-.318-1.273c2.016-3.289,12.122-20.185,14.615-30.716a.9.9,0,0,1,1.114-.69.922.922,0,0,1,.69,1.114c-2.547,10.822-12.812,27.957-14.828,31.273A1.008,1.008,0,0,1,998.536,900.228Z" transform="translate(-997.611 -867.386)" fill="#202d37"/>
      </g>
      <g id="Group_10291" data-name="Group 10291" transform="translate(8504.063 2129.68)">
        <path id="Path_19808" data-name="Path 19808" d="M1293.611,1214.341c-.61,0-1.883,0-8.78-8.3-2.175-2.626-6.525-8.117-6.737-8.939-.743-2.838,4.27-7.48,5.835-8.833a.937.937,0,0,1,1.379.186c3.289,4.987,12.334,18.3,14.589,19.973a.887.887,0,0,1,.372.637.9.9,0,0,1-.212.69C1299.419,1210.522,1296.13,1214.341,1293.611,1214.341Zm-13.74-17.8c.371.663,3.13,4.35,6.366,8.276,5.65,6.817,7.162,7.586,7.4,7.666,1.087-.053,3.024-1.751,4.4-3.236-3.289-3.4-11.273-15.225-13.687-18.859C1281.913,1192.644,1279.711,1195.456,1279.871,1196.543Z" transform="translate(-1278.019 -1188.039)" fill="#202d37"/>
      </g>
      <g id="Group_10292" data-name="Group 10292" transform="translate(8479.997 2137.542)">
        <path id="Path_19809" data-name="Path 19809" d="M1195.063,1257.127a2.059,2.059,0,0,1-1.618-.637,2.48,2.48,0,0,1-.265-2.573c-1.379.8-2.812,1.353-3.74,1.008a1.653,1.653,0,0,1-1.035-1.3c-.4-2.281,1.857-4.8,4.271-7.453,1.565-1.751,3.183-3.554,3.74-4.987a14.824,14.824,0,0,0,1.061-4.828.377.377,0,0,1-.159.053c-3.316,1.273-7,2.573-8.886,1.618a2.082,2.082,0,0,1-1.087-1.326c-.584-2.175,3.369-4.775,11.644-10.026a127.3,127.3,0,0,0,12.785-8.78.922.922,0,1,1,1.194,1.406,128.82,128.82,0,0,1-13,8.939c-2.918,1.857-5.676,3.581-7.719,5.066-2.732,1.989-3.077,2.732-3.1,2.918a.313.313,0,0,0,.133.133c1.326.663,5.889-1.114,7.4-1.7a5.076,5.076,0,0,1,1.3-.424,1.124,1.124,0,0,1,.981.451c.849,1.114.186,4.483-.8,7.135-.663,1.777-2.414,3.714-4.085,5.57-1.857,2.042-3.926,4.377-3.846,5.782.769-.08,3-1.353,4.881-2.865a.923.923,0,0,1,1.194.026.936.936,0,0,1,.159,1.194c-1.724,2.652-1.645,3.528-1.618,3.687.186.053,1.008.079,2.706-.769a.929.929,0,0,1,1.114.212,1.143,1.143,0,0,0,.9.4c2.308.08,6.9-3.607,9.231-5.942a.936.936,0,0,1,1.247-.079.908.908,0,0,1,.186,1.22c-.716,1.141-1.7,3.183-1.512,4.005v.027c.849-.292,3.422-2.281,7.613-6.844a86.2,86.2,0,0,0,9.841-12.785.928.928,0,1,1,1.591.955,89.955,89.955,0,0,1-10.636,13.713c-7.295,7.852-8.674,7.056-9.257,6.711a2.076,2.076,0,0,1-.955-1.3,3.852,3.852,0,0,1,0-1.459c-2.228,1.777-5.172,3.713-7.427,3.66a3.2,3.2,0,0,1-1.671-.53A7.18,7.18,0,0,1,1195.063,1257.127Zm-5.968-20.822Z" transform="translate(-1187.287 -1217.679)" fill="#202d37"/>
      </g>
      <g id="Group_10293" data-name="Group 10293" transform="translate(8487.437 2160.9)">
        <path id="Path_19810" data-name="Path 19810" d="M1216.283,1316.683a.947.947,0,0,1-.716-.318.9.9,0,0,1,.106-1.3c3.767-3.236,7.639-7.586,8.3-8.833a.92.92,0,1,1,1.618.875c-.849,1.565-4.934,6.1-8.753,9.363A.7.7,0,0,1,1216.283,1316.683Z" transform="translate(-1215.338 -1305.739)" fill="#202d37"/>
      </g>
      <g id="Group_10294" data-name="Group 10294" transform="translate(8489.729 2164.354)">
        <path id="Path_19811" data-name="Path 19811" d="M1224.913,1330.521a.93.93,0,0,1-.531-1.7c4.907-3.369,9.894-9.655,9.947-9.708a.926.926,0,1,1,1.459,1.141c-.212.265-5.225,6.578-10.345,10.08A.81.81,0,0,1,1224.913,1330.521Z" transform="translate(-1223.979 -1318.759)" fill="#202d37"/>
      </g>
      <g id="Group_10295" data-name="Group 10295" transform="translate(8501.191 2166.591)">
        <path id="Path_19812" data-name="Path 19812" d="M1268.124,1331.2a.935.935,0,0,1-.61-.239.9.9,0,0,1-.08-1.3c.557-.663,1.194-1.432,1.485-1.83.186-.239.769-.981,1.485-.451a.938.938,0,0,1,.186,1.326.321.321,0,0,1-.133.133.361.361,0,0,0-.08.106c-.318.4-.928,1.22-1.539,1.91A.889.889,0,0,1,1268.124,1331.2Z" transform="translate(-1267.194 -1327.195)" fill="#202d37"/>
      </g>
      <g id="Group_10296" data-name="Group 10296" transform="translate(8394.229 2068.821)">
        <path id="Path_19813" data-name="Path 19813" d="M867,1021.832a.945.945,0,0,1-.928-.849c-.186-2.122-1.088-13.475-1.857-27.612-.451-8.515-.61-14.4,1.485-18.727,2.281-4.748,7.135-7.135,15.729-7.719,6.711-.477,19.549-1.591,34.429-2.891,22.705-1.989,50.954-4.483,67.135-5.438a.93.93,0,0,1,.106,1.857c-16.154.955-44.376,3.422-67.082,5.438-14.88,1.3-27.719,2.44-34.456,2.891-7.851.557-12.2,2.6-14.164,6.684-1.883,3.9-1.724,9.6-1.3,17.8.769,14.111,1.671,25.437,1.83,27.559a.942.942,0,0,1-.849,1.008Z" transform="translate(-863.936 -958.595)" fill="#202d37"/>
      </g>
      <g id="Group_10297" data-name="Group 10297" transform="translate(8389.282 2125.762)">
        <path id="Path_19814" data-name="Path 19814" d="M855.24,1217.891c-3.926,0-6.26-.955-7.268-2.865-3.528-6.844-3-25.995-1.671-31.989h0c1.406-6.366,6.419-5.517,10.08-4.907.292.053.557.106.849.133,3.607.583,20.53-2.387,26.976-4.005,3.767-.955,7.082-1.618,9.39-.053,1.592,1.061,2.52,3.024,2.971,6.154.69,5.013,1.326,13.1,1.83,23.342.239,5.119-2.918,6.18-12.069,7.931-2.2.425-5.172,1.194-8.594,2.1a160.645,160.645,0,0,1-17.666,3.9C858.21,1217.785,856.619,1217.891,855.24,1217.891Zm-7.135-34.482c-1.379,6.26-1.538,24.827,1.512,30.742.637,1.22,2.918,2.493,10.159,1.539a153.512,153.512,0,0,0,17.453-3.846c3.475-.9,6.472-1.671,8.727-2.122,9.761-1.857,10.716-2.785,10.557-5.995-.5-10.186-1.114-18.2-1.8-23.183-.345-2.52-1.061-4.111-2.149-4.854-1.512-1.034-3.952-.69-7.9.318-5.942,1.512-23.607,4.695-27.719,4.058-.292-.053-.584-.106-.849-.133-4.35-.716-7.029-.849-7.984,3.475Z" transform="translate(-845.29 -1173.268)" fill="#202d37"/>
      </g>
      <g id="Group_10298" data-name="Group 10298" transform="translate(8399.125 2061.913)">
        <path id="Path_19815" data-name="Path 19815" d="M909.664,1075.879c-20.265,0-24.031-5.862-24.774-10.875-.663-4.377-1.91-14.562-2.493-24.854a.93.93,0,1,1,1.857-.106c.583,10.212,1.83,20.318,2.493,24.668.371,2.52,1.618,5.676,8.064,7.613,8.037,2.414,22.042,2.228,41.618-.61,19.655-2.838,45.2-6.923,67.771-10.53,23.793-3.793,44.323-7.082,51.405-7.851,13.13-1.432,20.5-3.05,19.151-19.761-1.326-16.26-6.976-74.694-8.674-87.134-1.592-11.591-5.676-12.652-21.087-11.8a.93.93,0,1,1-.106-1.857c8.17-.451,13.262-.345,16.764,1.459,3.5,1.83,5.332,5.278,6.233,11.936,1.724,12.467,7.374,70.954,8.7,87.24,1.459,18.037-6.87,20.265-20.8,21.777-7.029.769-27.559,4.058-51.326,7.851-22.546,3.607-48.116,7.692-67.8,10.53A194.374,194.374,0,0,1,909.664,1075.879Z" transform="translate(-882.395 -932.553)" fill="#202d37"/>
      </g>
      <g id="Group_10299" data-name="Group 10299" transform="translate(8419.231 2139.909)">
        <path id="Path_19816" data-name="Path 19816" d="M965.123,1240.446a6.923,6.923,0,1,1,6.923-6.923A6.928,6.928,0,0,1,965.123,1240.446Zm0-11.989a5.066,5.066,0,1,0,5.066,5.066A5.083,5.083,0,0,0,965.123,1228.457Z" transform="translate(-958.2 -1226.6)" fill="#202d37"/>
      </g>
      <g id="Group_10300" data-name="Group 10300" transform="translate(8486.631 2124.736)">
        <path id="Path_19817" data-name="Path 19817" d="M1219.223,1183.246a6.923,6.923,0,1,1,6.923-6.923A6.928,6.928,0,0,1,1219.223,1183.246Zm0-11.989a5.066,5.066,0,1,0,5.066,5.066A5.083,5.083,0,0,0,1219.223,1171.257Z" transform="translate(-1212.3 -1169.4)" fill="#202d37"/>
      </g>
      <g id="Group_10301" data-name="Group 10301" transform="translate(8482.734 2118.269)">
        <path id="Path_19818" data-name="Path 19818" d="M1198.533,1152.175a.817.817,0,0,1-.345-.08.916.916,0,0,1-.5-1.22c1.061-2.626,4.005-4.668,7.878-5.491,3.74-.8,8.939-.477,12.334,2.785a.919.919,0,1,1-1.273,1.326c-2.361-2.281-6.552-3.183-10.663-2.308-3.262.69-5.7,2.334-6.552,4.377A.931.931,0,0,1,1198.533,1152.175Z" transform="translate(-1197.606 -1145.018)" fill="#202d37"/>
      </g>
      <g id="Group_10302" data-name="Group 10302" transform="translate(8479.951 2108.936)">
        <path id="Path_19819" data-name="Path 19819" d="M1188.039,1118.576a1.332,1.332,0,0,1-.318-.053.957.957,0,0,1-.557-1.194c1.3-3.448,4.934-6.1,9.735-7.109,5.544-1.141,11.008.265,14.27,3.661a.919.919,0,0,1-1.326,1.273c-3.369-3.5-8.7-3.926-12.546-3.13-4.111.849-7.321,3.13-8.382,5.915A.907.907,0,0,1,1188.039,1118.576Z" transform="translate(-1187.115 -1109.831)" fill="#202d37"/>
      </g>
      <g id="Group_10303" data-name="Group 10303" transform="translate(8474.241 2101.255)">
        <path id="Path_19820" data-name="Path 19820" d="M1166.521,1090.8a.846.846,0,0,1-.371-.08.921.921,0,0,1-.477-1.22c1.645-3.714,6.047-6.6,12.042-7.931,7.878-1.724,16.021-.186,20.716,3.952a.921.921,0,1,1-1.22,1.379c-4.271-3.74-11.777-5.146-19.1-3.528-5.332,1.167-9.363,3.74-10.743,6.87A.953.953,0,0,1,1166.521,1090.8Z" transform="translate(-1165.59 -1080.876)" fill="#202d37"/>
      </g>
      <g id="Group_10304" data-name="Group 10304" transform="translate(8346.381 1954.382)">
        <path id="Path_19821" data-name="Path 19821" d="M689.664,551.6a1.223,1.223,0,0,1-.69-.212c-1.485-.822-6.233-7.135-5.3-10,1.512-4.721,15.04-13.369,22.254-14.217.61-.08,1.565.186,3.289,2.812a12.479,12.479,0,0,1,1.883,3.873,1.141,1.141,0,0,1-.849,1.432c-1.857.4-16.817,12.467-19.761,15.942h0A1.094,1.094,0,0,1,689.664,551.6Zm.106-.955ZM706,529.051c-6.95.9-19.39,9.2-20.583,12.944-.477,1.512,2.679,6.313,4.111,7.56,3.21-3.342,15.729-13.872,19.628-15.782C708.682,532.446,706.8,529.475,706,529.051Zm3.9,4.4Z" transform="translate(-683.55 -527.156)" fill="#202d37"/>
      </g>
      <g id="Group_10305" data-name="Group 10305" transform="translate(8331.745 1908.922)">
        <path id="Path_19822" data-name="Path 19822" d="M642.411,409.6a1.08,1.08,0,0,1-.477-.133c-2.573-1.485-4.138-4.96-4.005-8.859a9.91,9.91,0,0,1,1.7-5.491c-3.979.265-10.265.186-11.141-3.077-1.141-4.244,6.5-6.339,13.9-8.382.477-.133.955-.265,1.406-.4-1.645-5.57-3.846-11.644-4.828-12.334-.345-.265-.928-.584-1.591-.981-2.812-1.7-7.533-4.509-8.117-8.223-.371-2.414.292-4.43,1.777-5.411a3.5,3.5,0,0,1,3.846.08c.61.4,2.1,1.247,3.846,2.255,7.241,4.164,10.8,6.313,11.459,7.374.928,1.485,13.024,32.573,14.376,36.127a.924.924,0,0,1-1.724.663c-5.331-13.74-13.528-34.642-14.217-35.809-.663-.9-7.507-4.854-10.8-6.737-1.83-1.061-3.289-1.883-3.952-2.308a1.651,1.651,0,0,0-1.83-.08c-.849.557-1.22,1.883-.955,3.554.451,2.865,4.7,5.411,7.241,6.923.69.424,1.3.769,1.724,1.088,2.016,1.459,4.934,11.273,5.782,14.244a.958.958,0,0,1-.08.716,1.04,1.04,0,0,1-.557.451c-.743.212-1.512.424-2.334.637-5.278,1.459-13.262,3.634-12.6,6.1.531,2.016,7.48,2.042,11.989,1.432a.933.933,0,0,1,1.008.637.964.964,0,0,1-.477,1.114c-1.777.875-2.918,3.1-3.024,5.915-.106,3.156,1.114,6.048,3.077,7.188a.946.946,0,0,1,.345,1.273A.832.832,0,0,1,642.411,409.6Z" transform="translate(-628.371 -355.772)" fill="#202d37"/>
      </g>
      <g id="Group_10306" data-name="Group 10306" transform="translate(8331.751 1948.266)">
        <path id="Path_19823" data-name="Path 19823" d="M644.019,525.665a.338.338,0,0,1-.159-.026c-2.016-.345-5.942-2.546-9.2-5.915a20.879,20.879,0,0,1-6.26-14.695.94.94,0,0,1,.928-.928h0a.94.94,0,0,1,.928.928,19.079,19.079,0,0,0,5.729,13.4c3.183,3.289,6.684,5.119,8.17,5.385a.935.935,0,0,1-.133,1.857Z" transform="translate(-628.395 -504.1)" fill="#202d37"/>
      </g>
      <g id="Group_10307" data-name="Group 10307" transform="translate(8337.183 1926.511)">
        <path id="Path_19824" data-name="Path 19824" d="M651.879,435.932a.956.956,0,0,1-.849-.531c-1.989-4.085-3.236-9.363-.849-11.989,1.035-1.114,3.1-2.1,7.268-.477a.924.924,0,1,1-.663,1.724c-1.751-.69-4.085-1.247-5.225,0-1.406,1.538-.955,5.623,1.141,9.92a.961.961,0,0,1-.424,1.247A.748.748,0,0,1,651.879,435.932Z" transform="translate(-648.875 -422.081)" fill="#202d37"/>
      </g>
      <g id="Group_10308" data-name="Group 10308" transform="translate(8331.305 1929.91)">
        <path id="Path_19825" data-name="Path 19825" d="M629.92,447.816a.924.924,0,0,1-.769-.424c-2.122-3.236-3.4-8.117-1.538-10.769.769-1.114,2.387-2.255,5.756-1.459a.926.926,0,1,1-.424,1.8q-2.825-.676-3.82.716c-1.273,1.83-.212,5.968,1.565,8.674a.906.906,0,0,1-.265,1.273A.7.7,0,0,1,629.92,447.816Z" transform="translate(-626.714 -434.898)" fill="#202d37"/>
      </g>
      <g id="Group_10309" data-name="Group 10309" transform="translate(8325.639 1936.117)">
        <path id="Path_19826" data-name="Path 19826" d="M615.416,473.152c-1.7,0-3.82-.849-6.127-2.52-3.262-2.361-4.854-7.029-3.4-10,.5-1.008,2.1-3.21,6.286-1.963a.938.938,0,0,1,.637,1.167.95.95,0,0,1-1.167.637c-1.432-.424-3.316-.61-4.111,1.008-.955,1.936.08,5.7,2.812,7.666,3.077,2.228,5.172,2.44,6.021,1.936a1.339,1.339,0,0,0,.531-1.432.92.92,0,1,1,1.83-.186,3.227,3.227,0,0,1-1.459,3.236A3.562,3.562,0,0,1,615.416,473.152Z" transform="translate(-605.35 -458.297)" fill="#202d37"/>
      </g>
      <g id="Group_10310" data-name="Group 10310" transform="translate(8270.496 2036.793)">
        <path id="Path_19827" data-name="Path 19827" d="M409.195,887.624c-5.7,0-6.843-1.724-7.666-4.96-1.034-4.111-1.777-9.2-3.156-21.8-.027-.318-.053-.61-.106-.9l-.159-1.353c-.318-2.944-.584-5.252-.637-7.109-.159-5.385,1.459-7.215,7.188-8.117,16.313-2.573,38.3-4.536,46.6-5.278.822-.08,1.512-.133,2.042-.186,4.615-.424,7.162,1.167,8.568,5.331a31.8,31.8,0,0,1,1.273,7.268l.026.265a.932.932,0,0,1-1.857.159l-.027-.265a29.276,29.276,0,0,0-1.194-6.817c-1.141-3.342-2.865-4.4-6.658-4.085-.531.053-1.194.106-2.042.186-8.276.743-30.238,2.679-46.472,5.252-4.828.769-5.756,1.8-5.623,6.233.053,1.777.318,4.085.637,6.976l.159,1.353c.026.292.08.61.106.9,1.353,12.493,2.1,17.533,3.1,21.538.822,3.21,1.273,4.987,18.806,2.122a.927.927,0,1,1,.292,1.83A89.135,89.135,0,0,1,409.195,887.624Z" transform="translate(-397.46 -837.85)" fill="#202d37"/>
      </g>
      <g id="Group_10311" data-name="Group 10311" transform="translate(8271.037 2042.107)">
        <path id="Path_19828" data-name="Path 19828" d="M464.819,866.329c-10.371,1.406-43.421,5.862-63.1,8.647-.371-3.263-.663-5.782-.716-7.772,14.217-1.618,50.954-6.392,62.6-7.9A30.326,30.326,0,0,1,464.819,866.329Z" transform="translate(-400.602 -858.924)" fill="#202d37"/>
        <path id="Path_19829" data-name="Path 19829" d="M400.614,874.334a.37.37,0,0,1-.239-.079.451.451,0,0,1-.159-.265l-.08-.716c-.318-2.918-.584-5.252-.637-7.082a.4.4,0,0,1,.345-.4c14.827-1.7,54.747-6.9,62.572-7.9a.38.38,0,0,1,.424.265,30.654,30.654,0,0,1,1.247,7.135.386.386,0,0,1-.345.424l-.239.026c-10.716,1.459-43.342,5.862-62.864,8.621C400.667,874.334,400.641,874.334,400.614,874.334Zm-.292-7.8c.08,1.751.318,3.926.637,6.658l.026.318c19.5-2.732,51.511-7.082,62.307-8.541a30.376,30.376,0,0,0-1.088-6.26C453.717,859.8,415.229,864.812,400.322,866.536Z" transform="translate(-399.5 -857.885)" fill="#202d37"/>
      </g>
      <g id="Group_10312" data-name="Group 10312" transform="translate(8277.228 2059.1)">
        <path id="Path_19830" data-name="Path 19830" d="M427.336,932.28a10.687,10.687,0,0,1-1.8-.133,1.886,1.886,0,0,1-1.459-1.034,29.451,29.451,0,0,1-.955-3.554c-.477-2.387-.292-3.183.133-3.634,1.247-1.326,8.78-2.175,11.512-1.936,1.141.106,1.751.345,2.069.849.8,1.194,2.1,5.915.557,7.507C436.354,931.352,430.7,932.28,427.336,932.28Zm-1.591-1.989c1.485.583,9.257-.531,10.318-1.3.451-.557-.026-3.82-.716-5.066a17.511,17.511,0,0,0-5.411.079,21.289,21.289,0,0,0-5.252,1.114A20.22,20.22,0,0,0,425.744,930.291Zm-1.83-5.782.663.637Zm.8.477,10.69-1.034Z" transform="translate(-422.836 -921.948)" fill="#202d37"/>
      </g>
      <g id="Group_10313" data-name="Group 10313" transform="translate(8404.961 2086.169)">
        <path id="Path_19831" data-name="Path 19831" d="M906.257,1060.074a.93.93,0,0,1-.928-.875c-.106-1.777-.239-3.528-.371-5.252l-.106-1.353a.918.918,0,1,1,1.83-.133l.106,1.353c.133,1.724.265,3.475.371,5.279a.924.924,0,0,1-.875.981Zm-.849-13.236a.935.935,0,0,1-.928-.9c-.053-1.141-.08-2.175-.08-3.13,0-1.326.053-2.493.133-3.607a.932.932,0,1,1,1.857.159c-.079,1.061-.133,2.175-.133,3.448,0,.928.026,1.936.053,3.077a.906.906,0,0,1-.9.955Zm1.485-13.05a.848.848,0,0,1-.371-.08.91.91,0,0,1-.451-1.22,9.57,9.57,0,0,1,3.05-3.873,10.1,10.1,0,0,1,2.016-1.114.926.926,0,0,1,.743,1.7,9.679,9.679,0,0,0-1.671.9,7.832,7.832,0,0,0-2.467,3.156A.975.975,0,0,1,906.893,1033.788ZM917.9,1027.5a.911.911,0,0,1-.9-.769.951.951,0,0,1,.743-1.087c1.936-.345,4.191-.663,6.658-.928a.92.92,0,0,1,.186,1.83c-2.414.239-4.615.557-6.5.9A.285.285,0,0,1,917.9,1027.5Zm13.209-1.406a.93.93,0,0,1-.928-.875.941.941,0,0,1,.875-.981c3.183-.186,5.729-.239,6.684-.239h.027a.917.917,0,0,1,.928.9.959.959,0,0,1-.9.955c-.928.027-3.448.053-6.6.239Z" transform="translate(-904.4 -1024)" fill="#202d37"/>
      </g>
      <g id="Group_10314" data-name="Group 10314" transform="translate(8548.006 2138.863)">
        <path id="Path_19832" data-name="Path 19832" d="M1444.614,1259.434a.923.923,0,0,1-.928-.822.947.947,0,0,1,.822-1.034c2.228-.265,4.43-.53,6.578-.822a.923.923,0,0,1,.239,1.83c-2.149.292-4.377.557-6.6.822C1444.694,1259.407,1444.667,1259.434,1444.614,1259.434Zm13.183-1.751a.938.938,0,0,1-.928-.8.928.928,0,0,1,.769-1.061c2.44-.371,4.642-.743,6.525-1.114a.931.931,0,1,1,.344,1.83c-1.91.371-4.111.743-6.578,1.114A.2.2,0,0,1,1457.8,1257.683Zm13.023-2.653a.906.906,0,0,1-.875-.636.93.93,0,0,1,.583-1.167c.345-.106.663-.239.928-.345a5.639,5.639,0,0,0,3.263-3.342.924.924,0,1,1,1.724.663,7.374,7.374,0,0,1-4.271,4.4c-.318.133-.663.265-1.061.4C1471.007,1255,1470.9,1255.031,1470.821,1255.031Zm5.623-10.769a.923.923,0,0,1-.928-.928c-.026-1.751-.159-3.9-.424-6.525a.92.92,0,1,1,1.83-.186c.265,2.679.425,4.88.425,6.711a.885.885,0,0,1-.9.928Zm-1.22-13.209a.963.963,0,0,1-.928-.8c-.265-1.989-.557-4.138-.875-6.419l-.027-.133a.923.923,0,1,1,1.83-.239l.026.132q.478,3.422.875,6.446a.908.908,0,0,1-.8,1.034C1475.3,1231.052,1475.277,1231.052,1475.224,1231.052Z" transform="translate(-1443.681 -1222.659)" fill="#202d37"/>
      </g>
      <g id="Group_10315" data-name="Group 10315" transform="translate(8411.91 2172.692)">
        <path id="Path_19833" data-name="Path 19833" d="M951.286,1371.416h0a61.824,61.824,0,0,1-6.737-.4.923.923,0,1,1,.239-1.83,57.255,57.255,0,0,0,6.5.4.915.915,0,1,1,0,1.83Zm6.6-.212a.929.929,0,0,1-.928-.875.941.941,0,0,1,.875-.981c1.459-.08,3.024-.212,4.668-.345a.932.932,0,0,1,.159,1.857c-1.645.159-3.236.265-4.721.345Zm-19.6-1.83a.848.848,0,0,1-.371-.079,10.52,10.52,0,0,1-5.278-4.721.92.92,0,1,1,1.618-.875,9,9,0,0,0,4.4,3.9.921.921,0,0,1,.478,1.22A.953.953,0,0,1,938.289,1369.374Zm-6.472-10.689a.946.946,0,0,1-.928-.849c-.133-1.538-.186-3.156-.239-4.88-.026-.583-.026-1.194-.053-1.8a.929.929,0,1,1,1.857-.053c.026.61.026,1.22.053,1.8.053,1.7.106,3.289.212,4.775a.942.942,0,0,1-.849,1.008Z" transform="translate(-930.595 -1350.195)" fill="#202d37"/>
      </g>
      <g id="Group_10316" data-name="Group 10316" transform="translate(8290.646 2047.105)">
        <path id="Path_19834" data-name="Path 19834" d="M479.149,892.795c16.737-6.525,38.726-12.838,44.721-14.483,5.995-1.671,9.443-3.74,12.493,3.82,3.024,7.56,7.427,20.345,9.151,24.138s3.263,7.029-6.5,10.424-31.061,10.133-39.867,13.9-11.8,4.987-16.578-6.154-6.87-17.347-8.647-22.785C472.12,896.163,475.542,894.2,479.149,892.795Z" transform="translate(-473.427 -876.728)" fill="#de3232"/>
      </g>
      <g id="Group_10317" data-name="Group 10317" transform="translate(8332.124 2059.805)">
        <circle id="Ellipse_13" data-name="Ellipse 13" cx="5.782" cy="5.782" r="5.782" transform="translate(0 2.682) rotate(-13.409)" fill="#fffef2"/>
        <path id="Path_19835" data-name="Path 19835" d="M637.511,939.022a6.711,6.711,0,1,1,6.711-6.711A6.719,6.719,0,0,1,637.511,939.022Zm0-11.565a4.854,4.854,0,1,0,4.854,4.854A4.856,4.856,0,0,0,637.511,927.457Z" transform="translate(-630.534 -925.337)" fill="#202d37"/>
      </g>
      <g id="Group_10318" data-name="Group 10318" transform="translate(8340.422 2057.836)">
        <path id="Path_19836" data-name="Path 19836" d="M667.8,930.583h-.239a6.716,6.716,0,0,1-6.472-6.923h0a6.7,6.7,0,1,1,6.711,6.923Zm-4.854-6.9a4.844,4.844,0,1,0,4.987-4.668,4.819,4.819,0,0,0-4.987,4.668Z" transform="translate(-661.083 -917.184)" fill="#202d37"/>
      </g>
      <g id="Group_10319" data-name="Group 10319" transform="translate(8344.674 2074.903)">
        <path id="Path_19837" data-name="Path 19837" d="M678.04,986.32a.931.931,0,0,1-.875-.636.949.949,0,0,1,.584-1.194c4.774-1.645,8.594-2.918,8.621-2.918a.923.923,0,0,1,.584,1.751c-.026,0-3.846,1.273-8.594,2.918A.706.706,0,0,1,678.04,986.32Z" transform="translate(-677.116 -981.525)" fill="#202d37"/>
      </g>
      <g id="Group_10320" data-name="Group 10320" transform="translate(8332.401 2078.653)">
        <path id="Path_19838" data-name="Path 19838" d="M631.764,1001.057a.884.884,0,0,1-.849-.583.947.947,0,0,1,.5-1.22c1.326-.557,2.573-1.061,3.687-1.538,1.485-.61,3.156-1.273,4.934-1.989a.924.924,0,1,1,.663,1.724c-1.777.69-3.422,1.379-4.907,1.989-1.114.451-2.361.982-3.687,1.539A.818.818,0,0,1,631.764,1001.057Z" transform="translate(-630.848 -995.662)" fill="#202d37"/>
      </g>
      <g id="Group_10321" data-name="Group 10321" transform="translate(8319.787 2083.916)">
        <path id="Path_19839" data-name="Path 19839" d="M584.221,1021a.925.925,0,0,1-.849-.557.913.913,0,0,1,.477-1.22c2.6-1.141,5.544-2.387,8.514-3.634a.933.933,0,0,1,.716,1.724c-2.971,1.247-5.889,2.52-8.488,3.634A2.085,2.085,0,0,1,584.221,1021Z" transform="translate(-583.29 -1015.506)" fill="#202d37"/>
      </g>
      <g id="Group_10322" data-name="Group 10322" transform="translate(8309.474 2088.633)">
        <path id="Path_19840" data-name="Path 19840" d="M545.335,1038.73a.92.92,0,0,1-.4-1.751c1.538-.769,4.191-1.989,7.878-3.607a.926.926,0,1,1,.743,1.7c-3.66,1.591-6.26,2.812-7.8,3.554A.909.909,0,0,1,545.335,1038.73Z" transform="translate(-544.408 -1033.29)" fill="#202d37"/>
      </g>
    </g>
  </g>
</svg>
