<svg xmlns="http://www.w3.org/2000/svg" width="432.603" height="333.408" viewBox="0 0 432.603 333.408">
  <g id="Group_10232" data-name="Group 10232" transform="translate(-1011.5 -1178.296)">
    <g id="Group_10131" data-name="Group 10131" transform="translate(1011.5 1234.707)">
      <path id="Path_19656" data-name="Path 19656" d="M797.2,897.335a403.9,403.9,0,0,1-56.03,5.689,473.759,473.759,0,0,1-55.789-1.1c-136.885-11.206-191.674-85.579-176.4-169.572a118.989,118.989,0,0,1,36.2-66.3c45.2-42.307,122.2-52.616,185.95-21.205a447.014,447.014,0,0,0,71.615,28c11.516,3.448,22.171,6.275,32.2,9.137,19.033,5.413,36,10.93,52.961,20.929a164.572,164.572,0,0,1,28.067,21.067C963.567,767.725,944.085,871.337,797.2,897.335Z" transform="translate(-506.501 -626.546)" fill="#f6f6f6"/>
    </g>
    <g id="Group_10132" data-name="Group 10132" transform="translate(1076.979 1179.297)">
      <path id="Path_19657" data-name="Path 19657" d="M901.392,451.047c-.143-3.608-.258-8.849-.372-14.577-.229-10.539-.43-22.711-.773-29.469-.516-10.4-4.439-15.35-7.3-17.613a3.451,3.451,0,0,0-1.8-.63v-.086s-4.668-17.212-6.673-15.637c0,0-3.551-11.771-5.585-19.217s-4.124-8.076-4.124-9.709c0-6.272-3.064-4.554-3.064-6.558s.516-4.1-2.921-6.1a5.8,5.8,0,0,0-2.492-.659c-2-5.613-3.379-6.1-6.329-6.1a20.135,20.135,0,0,0-7.1,1.575c-.945-1.89-5.7-11.656-13.088-33.479-9.193-27.121-10.768-24.057-36.8-15.121-27.665,9.479-146.258,49.345-171,59.082-24.773,9.737-18.128,13.26-3.523,48.342h0c-5.613,1.919-11.341,4.926-12.172,7.217-.745,2.091-.458,8.133.143,13.575.315,2.835.745,5.5,1.146,7.389,1.2,5.441,3.523,18.386,3.293,25.116-1.747-.4-.831,9.88,0,22.567v3.293s-3.838,3.064-3.208,9.966c.859,9.422,7.332,16.152,10.052,21.937,5.9,12.515,16.925,36.085,32.763,50.633s42.672,30.3,79.73,32.1l.4.086a157.857,157.857,0,0,1-7.733,22.8,393.52,393.52,0,0,0,46.338.916,335.948,335.948,0,0,0,46.538-4.725l-1.4-10.281c-1.461-9.222-3.036-17.928-4.64-26.147C887.188,536.734,902.423,478.626,901.392,451.047Zm-97.172-69.564A15.241,15.241,0,0,1,819.2,366.677a14.059,14.059,0,0,1,7.217,1.976,13.685,13.685,0,0,1,4.926-4.9c6.673-3.809,15.207-1.031,19.016,6.186,3.838,7.217,1.547,16.152-5.126,19.961a13.305,13.305,0,0,1-14.291-.8,14.978,14.978,0,0,1-12.658,7.16A14.113,14.113,0,0,1,804.221,381.483ZM644.1,352.329q1.8-.859,3.78-1.718c4.869-2.148,10.425-4.324,14.921-6.014,2.578-.974,4.811-1.8,6.415-2.377,6.358-2.348,8.276-3.064,11,2.807.258.544.516,1.088.745,1.632,1.088,2.406,2.062,4.7,2.864,6.73.917,2.32,1.661,4.3,2.148,5.785,1.06,3.064.974,3.666-8.019,7.589-1.747.773-3.494,1.518-5.212,2.262-4.84,2.119-9.537,4.124-13.4,5.7h0c-1.861.773-3.551,1.432-4.926,1.976-5.327,2-6.215,2.749-9.136-3.036-.487-.974-1.06-2.234-1.661-3.609-1.031-2.406-2.148-5.155-2.978-7.36-.487-1.231-.859-2.291-1.088-3.007C638.288,355.966,640.894,353.847,644.1,352.329Zm15.35,104.217c-4.353-2.692-7.5-2.95-10.8-2.262a90.184,90.184,0,0,1-2.348-9.537c-.8-4.3-1.06-6.014-4.324-5.842,4.181-5.155,2.978-13.26-.372-18.7,2.062,2.892,3.666,2.835,4.811,1.69,6.014,16.066,9.88,27.064,13.059,34.653Zm88.723-5.5s0,13.546-1.632,13.088c-3.322-.974-1.575-4.639-5.556-6.873-12.945-1.088-21.851,13.918-8.133,15.78a34.178,34.178,0,0,0,10.654-.6s1.289,4.7,2.721,12.315a222.26,222.26,0,0,1,3.064,23.541c.286,4.038.487,8.277.516,12.6,0,0-20.133-2.835-35.741-11.771-1.632-4.639-5.327-6.472-9.451-1.947,1.174-7.36-2.062-9.966-8.821-7.561.344-5.384.344-13.517-6.157-14.033-7.99-.63-14.463-1.776-18.73-15.236v-.029c4.3-.315,11.112-2.663,22.51-8.305,9.537-4.725,27.579-11.856,48.457-19.589,7.9-2.921,16.209-5.928,24.629-8.935C762.981,441.854,754.848,450.188,748.175,451.047Zm107.8,6.157c-1.06,12.773-11.942,32.133-48.657,53.469q-2.062-7-4.038-13.145c-9.107-28.123-16.639-41.841-16.639-41.841s15.751-12.028,16.553-14.577c.745-2.463-11.513-7.5-32.362-9.107l-.029-.086c21.193-7.5,42.672-14.864,59.512-20.448,12.114-4.038,21.823-7.16,27.293-8.821-.258,2.434-.4,8.763-.544,16.41C856.8,432.4,856.6,449.672,855.971,457.2Z" transform="translate(-615.407 -271.313)" fill="#fff"/>
    </g>
    <g id="XMLID_5_" transform="translate(1100.762 1248.425)">
      <g id="Group_10137" data-name="Group 10137">
        <g id="Group_10133" data-name="Group 10133" transform="translate(187.227 21.619)">
          <path id="Path_19658" data-name="Path 19658" d="M1376.142,596.062c3.838,7.217,1.546,16.152-5.126,19.961a13.305,13.305,0,0,1-14.291-.8,15.18,15.18,0,0,0,2.32-7.647,14.317,14.317,0,0,0-6.845-12.8,13.465,13.465,0,0,1,4.926-4.9C1363.77,586.1,1372.3,588.845,1376.142,596.062Z" transform="translate(-1352.2 -588.181)" fill="#de3232"/>
        </g>
        <g id="Group_10134" data-name="Group 10134" transform="translate(185.139 28.212)">
          <path id="Path_19659" data-name="Path 19659" d="M1346.97,611.2a14.259,14.259,0,0,1,6.845,12.8,15.469,15.469,0,0,1-2.32,7.647,14.934,14.934,0,0,1-4.725-5.384A15.466,15.466,0,0,1,1346.97,611.2Z" transform="translate(-1344.912 -611.2)" fill="#fffef2"/>
        </g>
        <g id="Group_10135" data-name="Group 10135" transform="translate(165.024 26.207)">
          <path id="Path_19660" data-name="Path 19660" d="M1301.372,626.653a14.979,14.979,0,0,1-12.658,7.16,14.1,14.1,0,0,1-14.033-14.806,15.241,15.241,0,0,1,14.978-14.806,13.878,13.878,0,0,1,7.188,1.976,15.466,15.466,0,0,0-.2,15.064A15.065,15.065,0,0,0,1301.372,626.653Z" transform="translate(-1274.673 -604.2)" fill="rgba(222,50,50,0.13)"/>
        </g>
        <g id="Group_10136" data-name="Group 10136">
          <path id="Path_19661" data-name="Path 19661" d="M745.23,531.366c-.516-1.489-1.231-3.465-2.177-5.785-.8-2.033-1.776-4.3-2.864-6.73-.229-.544-.487-1.088-.745-1.632-2.692-5.842-4.611-5.155-11-2.807-1.575.573-3.838,1.4-6.415,2.377-4.525,1.718-10.052,3.866-14.921,6.014-1.317.573-2.606,1.174-3.78,1.718-3.208,1.518-5.785,3.637-4.582,7.3.229.716.63,1.776,1.088,3.007.831,2.205,1.947,4.955,2.978,7.36.6,1.375,1.174,2.663,1.661,3.609,2.921,5.785,3.809,5.04,9.136,3.036,1.4-.516,3.064-1.2,4.955-1.976h0c3.866-1.575,8.563-3.608,13.4-5.7,1.718-.745,3.465-1.518,5.212-2.262C746.2,535.032,746.29,534.43,745.23,531.366Z" transform="translate(-698.448 -512.691)" fill="#de3232"/>
        </g>
      </g>
    </g>
    <g id="Group_10138" data-name="Group 10138" transform="translate(1225.078 1355.632)">
      <path id="Path_19662" data-name="Path 19662" d="M1135.788,892.923h0a1.379,1.379,0,0,1-1.8-.745l-1.346-3.236a1.379,1.379,0,0,1,.745-1.8h0a1.379,1.379,0,0,1,1.8.745l1.346,3.236A1.393,1.393,0,0,1,1135.788,892.923Z" transform="translate(-1132.533 -887.033)" fill="#202d37"/>
    </g>
    <g id="Group_10139" data-name="Group 10139" transform="translate(1233.756 1350.334)">
      <path id="Path_19663" data-name="Path 19663" d="M1166.088,874.423h0a1.379,1.379,0,0,1-1.8-.745l-1.346-3.236a1.379,1.379,0,0,1,.745-1.8h0a1.379,1.379,0,0,1,1.8.745l1.346,3.236A1.393,1.393,0,0,1,1166.088,874.423Z" transform="translate(-1162.833 -868.533)" fill="#202d37"/>
    </g>
    <g id="Group_10140" data-name="Group 10140" transform="translate(1231.393 1338.95)">
      <path id="Path_19664" data-name="Path 19664" d="M1209.067,991.727a1.024,1.024,0,0,1-1-.888c-7.308-47.547-17.138-82.017-24.1-102.581-7.537-22.22-13.383-33.345-13.441-33.464a1.115,1.115,0,0,1,.258-1.331c7.508-5.888,15.5-12.871,16.192-14.468-.2-.5-2.063-2.16-8.34-4.113a113.892,113.892,0,0,0-23.127-4.024,1.007,1.007,0,0,1-.917-1.124,1,1,0,0,1,1.089-.947c18.542,1.479,30.808,5.71,32.928,8.935a2.162,2.162,0,0,1,.344,1.8c-.774,2.6-11.865,11.6-16.249,15.06,1.461,2.929,6.706,13.906,13.183,32.961,6.993,20.623,16.851,55.24,24.188,102.936a1.032,1.032,0,0,1-.831,1.183A.207.207,0,0,1,1209.067,991.727Zm-22.038-152.643Z" transform="translate(-1154.582 -828.782)" fill="#202d37"/>
    </g>
    <g id="Group_10141" data-name="Group 10141" transform="translate(1156.34 1364.247)">
      <path id="Path_19665" data-name="Path 19665" d="M947.554,982.749h-.143c-.2-.029-20.505-2.978-36.114-11.885a1.075,1.075,0,0,1-.458-.544c-.745-2.148-1.976-3.551-3.322-3.838-1.317-.258-2.864.487-4.439,2.234a1,1,0,0,1-1.174.229.98.98,0,0,1-.544-1.06c.516-3.236.143-5.5-1.117-6.53-1.547-1.289-4.324-.659-6.386.086a1.009,1.009,0,0,1-1.289-.6,1.034,1.034,0,0,1,.6-1.289c3.723-1.317,6.53-1.232,8.363.286,1.4,1.174,2.091,3.122,2.062,5.785a5.717,5.717,0,0,1,4.353-1.088c2,.4,3.666,2.091,4.7,4.783,13.088,7.389,29.469,10.539,33.908,11.284a213.55,213.55,0,0,0-3.551-34.8c-1.031-5.613-2.033-9.651-2.463-11.341a34.531,34.531,0,0,1-10.052.458c-4.869-.659-6.7-2.835-7.36-4.525-.916-2.32-.229-5.126,1.89-7.675a16.377,16.377,0,0,1,15.465-5.327,1.005,1.005,0,1,1-.372,1.976,14.283,14.283,0,0,0-13.546,4.64c-1.6,1.947-2.205,4.067-1.575,5.67.687,1.718,2.663,2.864,5.756,3.265a33.482,33.482,0,0,0,10.339-.6,1.019,1.019,0,0,1,1.146.716c0,.057,1.317,4.811,2.749,12.4a214.666,214.666,0,0,1,3.609,36.314,1.023,1.023,0,0,1-.344.773A1.379,1.379,0,0,1,947.554,982.749Z" transform="translate(-892.515 -917.113)" fill="#202d37"/>
    </g>
    <g id="Group_10142" data-name="Group 10142" transform="translate(1131.484 1377.281)">
      <path id="Path_19666" data-name="Path 19666" d="M831.379,997.1h-.057a1.017,1.017,0,0,1-.945-1.06c.029-.43.057-.916.115-1.489.573-7.36.372-14.2-5.126-14.663-8.735-.687-15.264-2.234-19.589-15.952a1.005,1.005,0,0,1,1.919-.6c3.981,12.544,9.651,13.89,17.842,14.548,8.219.659,7.36,11.57,6.959,16.811-.029.544-.086,1.031-.115,1.432A1.028,1.028,0,0,1,831.379,997.1Z" transform="translate(-805.726 -962.626)" fill="#202d37"/>
    </g>
    <g id="Group_10143" data-name="Group 10143" transform="translate(1078.081 1360.952)">
      <path id="Path_19667" data-name="Path 19667" d="M742.9,1032.534h-.057c-41.5-2.033-68.16-21.164-80.361-32.362-15.923-14.606-26.949-38.118-32.906-50.748l-.086-.172a54.851,54.851,0,0,0-3.179-5.441c-2.978-4.7-6.358-10.024-6.988-16.84-.544-6.129,2.177-9.451,3.208-10.482V913.6a.931.931,0,0,1,.315-.716,1.014,1.014,0,0,1,.745-.286c6.587.315,18.787-3.838,23.4-5.413,5.384-1.833,9.365-2.749,15.723,1.174a1,1,0,1,1-1.031,1.718c-5.728-3.523-9.079-2.663-14.033-.974-4.9,1.661-16.009,5.441-23.083,5.527v2.291a.964.964,0,0,1-.372.773c-.143.115-3.408,2.864-2.835,9.078.573,6.329,3.809,11.456,6.673,15.952a54.732,54.732,0,0,1,3.293,5.642l.086.172c5.871,12.515,16.811,35.77,32.448,50.147,12,11.026,38.233,29.842,79.1,31.846a1,1,0,0,1,.945,1.06A1.025,1.025,0,0,1,742.9,1032.534Z" transform="translate(-619.252 -905.609)" fill="#202d37"/>
    </g>
    <g id="Group_10144" data-name="Group 10144" transform="translate(1192.985 1475.16)">
      <path id="Path_19668" data-name="Path 19668" d="M1021.454,1340.94a.913.913,0,0,1-.4-.086.982.982,0,0,1-.487-1.317c3.666-8.076,9.336-24.515,9.938-34.195a1,1,0,0,1,2,.115c-.6,10.052-6.272,26.462-10.109,34.911A1.134,1.134,0,0,1,1021.454,1340.94Z" transform="translate(-1020.472 -1304.395)" fill="#202d37"/>
    </g>
    <g id="Group_10145" data-name="Group 10145" transform="translate(1209.856 1404.572)">
      <path id="Path_19669" data-name="Path 19669" d="M1089.812,1070.974c-3.322,0-6.53-.115-9.508-.344a.991.991,0,1,1,.143-1.976,124.6,124.6,0,0,0,30.214-1.4c10.109-1.833,18.071-4.983,23.054-9.107a1,1,0,1,1,1.26,1.547C1124.866,1068.082,1105.993,1070.974,1089.812,1070.974Z" transform="translate(-1079.382 -1057.921)" fill="#202d37"/>
    </g>
    <g id="Group_10146" data-name="Group 10146" transform="translate(1215.593 1414.035)">
      <path id="Path_19670" data-name="Path 19670" d="M1132.6,1117.693c-3.551,0-23.57-9.479-32.734-15.522a1.013,1.013,0,1,1,1.117-1.69c9.938,6.587,29.212,15.207,31.5,15.207h0c.659-.315,2.979-2.921,7.847-10.768a122.959,122.959,0,0,0,7.389-13.317,1,1,0,1,1,1.861.716,124.767,124.767,0,0,1-7.79,14c-6.873,11.055-8.391,11.255-9.021,11.341C1132.743,1117.693,1132.657,1117.693,1132.6,1117.693Zm-.143-1.976Z" transform="translate(-1099.411 -1090.963)" fill="#202d37"/>
    </g>
    <g id="Group_10147" data-name="Group 10147" transform="translate(1245.461 1438.702)">
      <path id="Path_19671" data-name="Path 19671" d="M1209.847,1180.68c4.267-.63,5.126,5.1.745,5.928C1206.209,1187.41,1206.238,1181.2,1209.847,1180.68Z" transform="translate(-1206.211 -1179.618)" fill="#fffef2"/>
      <path id="Path_19672" data-name="Path 19672" d="M1207.312,1185.142a3.364,3.364,0,0,1-2.749-1.231,4.184,4.184,0,0,1-.544-4.153,4,4,0,0,1,3.208-2.606h0a3.921,3.921,0,0,1,4.725,3.179,4.148,4.148,0,0,1-3.666,4.725A6.12,6.12,0,0,1,1207.312,1185.142Zm.172-5.985a1.991,1.991,0,0,0-1.6,1.346,2.292,2.292,0,0,0,.229,2.177,1.71,1.71,0,0,0,1.8.43c1.661-.315,2.234-1.432,2.062-2.434a1.962,1.962,0,0,0-2.492-1.518Z" transform="translate(-1203.705 -1177.092)" fill="#202d37"/>
    </g>
    <g id="Group_10148" data-name="Group 10148" transform="translate(1181.729 1379.465)">
      <path id="Path_19673" data-name="Path 19673" d="M1009.763,985.915c-5.756,8.362-17.985,14.176-23.541,6.644-4.5-6.071,1.632-14.062,10.167-18.357a34.178,34.178,0,0,0,10.654-.6S1008.331,978.3,1009.763,985.915Z" transform="translate(-983.692 -972.641)" fill="#202d37"/>
      <path id="Path_19674" data-name="Path 19674" d="M990.771,994.665a9.449,9.449,0,0,1-7.9-3.895,8.477,8.477,0,0,1-1.432-7.246c1.117-4.611,5.7-9.451,11.971-12.572a.973.973,0,0,1,.573-.086,33.481,33.481,0,0,0,10.339-.6,1.019,1.019,0,0,1,1.146.716c0,.057,1.317,4.811,2.749,12.4a.869.869,0,0,1-.172.745c-4.21,6.129-11.226,10.453-17.1,10.568C990.914,994.665,990.856,994.665,990.771,994.665Zm3.265-21.823c-5.527,2.835-9.709,7.188-10.654,11.112a6.521,6.521,0,0,0,1.117,5.613,7.431,7.431,0,0,0,6.272,3.093h.172c5.04-.086,11.4-4.009,15.236-9.365-1-5.413-1.976-9.279-2.377-10.94A33.619,33.619,0,0,1,994.035,972.842Z" transform="translate(-981.167 -970.251)" fill="#202d37"/>
    </g>
    <g id="Group_10149" data-name="Group 10149" transform="translate(1193.396 1370.765)">
      <path id="Path_19675" data-name="Path 19675" d="M1022.907,943.519a.983.983,0,0,1-.888-.544,1,1,0,0,1,.43-1.346c2.95-1.547,7.618-1.8,8.592-1.747a.991.991,0,0,1-.143,1.976,19.2,19.2,0,0,0-7.532,1.518A.674.674,0,0,1,1022.907,943.519Z" transform="translate(-1021.906 -939.875)" fill="#202d37"/>
    </g>
    <g id="Group_10150" data-name="Group 10150" transform="translate(1200.996 1340.411)">
      <path id="Path_19676" data-name="Path 19676" d="M1077.967,837.5c-3.465,8.363-11.6,16.725-18.3,17.584,0,0,0,13.546-1.632,13.088-3.351-.974-1.547-4.7-5.671-6.931-.859-.458-.487-8.162.974-14.806C1061.242,843.514,1069.547,840.507,1077.967,837.5Z" transform="translate(-1050.916 -836.465)" fill="#202d37"/>
      <path id="Path_19677" data-name="Path 19677" d="M1055.648,866.595a1.678,1.678,0,0,1-.372-.057c-2.119-.63-2.663-2.148-3.15-3.523a5.437,5.437,0,0,0-2.692-3.494c-.458-.258-1.232-.659-.917-6.043a65.075,65.075,0,0,1,1.375-9.88,1,1,0,0,1,.63-.716c7.475-2.778,15.751-5.756,24.63-8.935a.975.975,0,0,1,1.06.258,1.014,1.014,0,0,1,.2,1.088c-3.179,7.7-10.94,16.525-18.214,18.042,0,1.117-.057,3.208-.172,5.327-.344,6.215-1,7.188-1.575,7.647A1.253,1.253,0,0,1,1055.648,866.595Zm-5.04-8.677a7.41,7.41,0,0,1,3.408,4.439c.4,1.06.63,1.69,1.317,2.062.544-1.661.859-7.188.859-11.914a1.017,1.017,0,0,1,.888-1c5.47-.716,12.658-7.274,16.5-14.835-7.818,2.807-15.15,5.47-21.851,7.933C1050.464,850.7,1050.235,856.657,1050.608,857.917Z" transform="translate(-1048.444 -833.885)" fill="#202d37"/>
    </g>
    <g id="Group_10151" data-name="Group 10151" transform="translate(1267.888 1309.652)">
      <path id="Path_19678" data-name="Path 19678" d="M1283.013,836.488a.974.974,0,0,1-.859-.487,1,1,0,0,1,.372-1.375c40.008-23.255,47.369-42.987,48.17-52.667.516-6.358.745-19.818.945-31.732.172-10.6.315-19.732.659-22.854a.993.993,0,0,1,1.976.2c-.315,3.036-.487,12.572-.63,22.682-.2,11.914-.43,25.431-.945,31.846-.859,10.081-8.363,30.529-49.173,54.242A1.167,1.167,0,0,1,1283.013,836.488Z" transform="translate(-1282.015 -726.481)" fill="#202d37"/>
    </g>
    <g id="Group_10152" data-name="Group 10152" transform="translate(1280.191 1295.644)">
      <path id="Path_19679" data-name="Path 19679" d="M1325.985,852.447a1,1,0,0,1-.344-1.948c29.555-10.854,51.808-28.925,66.07-53.755,14.921-25.918,15.264-49.23,15.035-55.731-.172-4.439-.315-11.312-.458-18.587-.2-9.623-.4-19.56-.687-25.46-.487-9.823-4.038-14.606-6.931-16.868-1.919-1.518-10.74.63-16.611,2.033-1.489.372-2.892.687-4.181.974a1.011,1.011,0,1,1-.43-1.976c1.26-.286,2.663-.63,4.153-.974,9.136-2.205,15.808-3.609,18.3-1.661,3.236,2.52,7.16,7.761,7.7,18.357.286,5.928.487,15.895.687,25.517.143,7.274.286,14.119.458,18.558.258,6.673-.115,30.443-15.293,56.819a117.423,117.423,0,0,1-25.4,30.615,134.945,134.945,0,0,1-41.727,24.028A1.434,1.434,0,0,1,1325.985,852.447Z" transform="translate(-1324.975 -677.57)" fill="#202d37"/>
    </g>
    <g id="Group_10153" data-name="Group 10153" transform="translate(1216.767 1370.863)">
      <path id="Path_19680" data-name="Path 19680" d="M1125.769,958.247c-3.179,2.663-7.1,4.5-10.138,3.322-3.265-1.26-5.842-4.554-7.3-7.962-1.547-3.637-1.833-7.446-.286-9.078,2.291-2.492,5.728,2.348,11.885,2.606,5.327.229,10.052-.687,11.37,1.289C1132.557,950.343,1129.722,954.954,1125.769,958.247Z" transform="translate(-1106.012 -942.786)" fill="#202d37"/>
      <path id="Path_19681" data-name="Path 19681" d="M1115.164,960.343a6.6,6.6,0,0,1-2.377-.43c-3.179-1.231-6.129-4.41-7.876-8.506-1.833-4.267-1.861-8.277-.114-10.167,1.718-1.862,3.837-.831,6.043.258a16.378,16.378,0,0,0,6.615,2.062c1.518.057,2.95.029,4.353,0,3.666-.086,6.587-.143,7.818,1.747,1.69,2.549-1.575,7.647-5.728,11.112C1120.863,959,1117.8,960.343,1115.164,960.343Zm-8.047-18.1a1.127,1.127,0,0,0-.831.372c-1.174,1.26-.974,4.639.487,8.019,1.546,3.609,4.067,6.386,6.759,7.417,2.291.888,5.7-.286,9.136-3.15h0c4.239-3.551,6.014-7.446,5.327-8.477-.63-.945-3.293-.916-6.1-.831-1.346.029-2.892.057-4.468,0a18.142,18.142,0,0,1-7.417-2.262A7.962,7.962,0,0,0,1107.116,942.244Z" transform="translate(-1103.511 -940.214)" fill="#202d37"/>
    </g>
    <g id="Group_10154" data-name="Group 10154" transform="translate(1218.084 1379.897)">
      <path id="Path_19682" data-name="Path 19682" d="M1129.041,980.8c-3.179,2.663-7.1,4.5-10.138,3.322-3.265-1.26-5.842-4.554-7.3-7.962C1117.271,974.554,1124.545,975.328,1129.041,980.8Z" transform="translate(-1110.601 -974.371)" fill="#fffef2"/>
      <path id="Path_19683" data-name="Path 19683" d="M1118.447,982.854a6.6,6.6,0,0,1-2.377-.43c-3.179-1.232-6.129-4.41-7.876-8.506a.943.943,0,0,1,.029-.831,1,1,0,0,1,.63-.544c5.642-1.6,13.46-1.117,18.472,4.955a1,1,0,0,1-.143,1.4C1124.146,981.508,1121.082,982.854,1118.447,982.854Zm-7.9-8.62a12.822,12.822,0,0,0,6.243,6.358c2.119.8,5.184-.115,8.305-2.52C1121.024,973.8,1115.182,973.232,1110.542,974.234Z" transform="translate(-1108.111 -971.759)" fill="#202d37"/>
    </g>
    <g id="Group_10155" data-name="Group 10155" transform="translate(1327.596 1279.92)">
      <path id="Path_19684" data-name="Path 19684" d="M1515.645,640.4a1.006,1.006,0,0,1-.974-.745c-1.718-6.272-4.181-13.432-5.413-14.835-6.157,4.811-11.312,6.7-17.785,6.472a1,1,0,1,1,.057-2c6.043.2,10.911-1.632,16.782-6.3a1.486,1.486,0,0,1,1.375-.258c.945.315,2.177,1.575,4.582,8.763,1.289,3.809,2.32,7.589,2.32,7.647a1,1,0,0,1-.716,1.231C1515.817,640.374,1515.731,640.4,1515.645,640.4Z" transform="translate(-1490.5 -622.666)" fill="#202d37"/>
    </g>
    <g id="Group_10156" data-name="Group 10156" transform="translate(1309.743 1237.727)">
      <path id="Path_19685" data-name="Path 19685" d="M1464.488,519.629a.98.98,0,0,1-.945-.716c-.029-.115-3.58-11.856-5.584-19.245a23.263,23.263,0,0,0-3.208-7.561,4.237,4.237,0,0,1-.945-2.406c0-3.437-.916-3.981-1.661-4.41a2.307,2.307,0,0,1-1.4-2.119,6.49,6.49,0,0,1,.029-.745c.057-1.69.086-3.036-2.434-4.5a5.259,5.259,0,0,0-2.091-.544c-4.067-.344-10.453,1.632-12.8,3.15a7.14,7.14,0,0,0-3.007,5.012,17.931,17.931,0,0,0-.258,2.721c-.057,2.262,0,2.291,1.375,3.007a1,1,0,0,1-.916,1.776c-2.148-1.088-2.549-1.919-2.463-4.84a17.994,17.994,0,0,1,.315-3.036,9.125,9.125,0,0,1,3.895-6.329c2.549-1.632,9.422-3.866,14.033-3.465a6.912,6.912,0,0,1,2.921.8c3.58,2.062,3.494,4.41,3.437,6.3v.8a1.945,1.945,0,0,0,.4.258c1.346.8,2.663,1.919,2.663,6.157,0,.315.2.63.63,1.317a26.489,26.489,0,0,1,3.465,8.133c2,7.36,5.556,19.073,5.585,19.188a1.009,1.009,0,0,1-.659,1.26A2.222,2.222,0,0,1,1464.488,519.629Z" transform="translate(-1428.163 -475.335)" fill="#202d37"/>
    </g>
    <g id="Group_10157" data-name="Group 10157" transform="translate(1310.778 1245.591)">
      <path id="Path_19686" data-name="Path 19686" d="M1436.281,519.751a.517.517,0,0,1-.286-.057c-2.262-.687-4.525-2.32-4.181-4.869a16.971,16.971,0,0,1,.859-3.408,23.6,23.6,0,0,1,2.864-5.814c1.4-1.89,4.41-2.663,10.711-2.807a1,1,0,0,1,1.031.974,1.035,1.035,0,0,1-.974,1.031c-6.845.143-8.477,1.088-9.136,2a22.132,22.132,0,0,0-2.577,5.241,18.182,18.182,0,0,0-.773,3.036c-.229,1.661,2.262,2.52,2.778,2.663a1.009,1.009,0,0,1,.659,1.26A1,1,0,0,1,1436.281,519.751Z" transform="translate(-1431.779 -502.796)" fill="#202d37"/>
    </g>
    <g id="Group_10158" data-name="Group 10158" transform="translate(1313.545 1253.179)">
      <path id="Path_19687" data-name="Path 19687" d="M1448.845,548.626a4.4,4.4,0,0,1-1.632-.344c-2.778-1.117-5.27-4.9-5.7-6.931-.745-3.437,4.3-10.568,4.324-10.654.859-1.146,3.265-1.575,7.331-1.346a1,1,0,1,1-.114,2c-4.869-.286-5.613.544-5.613.544-1.117,1.489-4.41,6.988-3.981,9.021.315,1.4,2.348,4.639,4.468,5.47a1.8,1.8,0,0,0,1.833-.115,1.009,1.009,0,1,1,1.146,1.661A3.2,3.2,0,0,1,1448.845,548.626Z" transform="translate(-1441.438 -529.292)" fill="#202d37"/>
    </g>
    <g id="Group_10159" data-name="Group 10159" transform="translate(1321.609 1264.142)">
      <path id="Path_19688" data-name="Path 19688" d="M1476.356,588.114a.907.907,0,0,1-.458-.115c-6.988-3.637-7.074-13.775-5.413-19.7a1,1,0,0,1,1.919.544c-1.489,5.3-1.547,14.291,4.382,17.384a1,1,0,0,1,.429,1.346A.912.912,0,0,1,1476.356,588.114Z" transform="translate(-1469.596 -567.572)" fill="#202d37"/>
    </g>
    <g id="Group_10160" data-name="Group 10160" transform="translate(1080.406 1345.342)">
      <path id="Path_19689" data-name="Path 19689" d="M629.357,875.674a1,1,0,0,1-1-.945c-.086-1.518-.2-3.036-.286-4.468-.888-13.26-1.06-17.67.286-18.816a1.457,1.457,0,0,1,1.232-.315,11.57,11.57,0,0,1,1.461.515c2.348.974,6.759,2.778,14.463.888,4.009-.974,6.329-1.317,7.876-.315,1.489.974,1.833,2.807,2.406,5.814l.057.258a95.282,95.282,0,0,0,2.32,9.422,1.005,1.005,0,0,1-1.919.6,89.5,89.5,0,0,1-2.377-9.651l-.057-.258c-.458-2.406-.745-4.009-1.518-4.5-.916-.6-3.179-.2-6.329.573-8.363,2.033-13.317,0-15.723-.974-.258-.115-.487-.2-.687-.286-.516,1.976,0,9.88.487,16.9.086,1.461.2,2.95.286,4.468a1,1,0,0,1-.945,1.06A.028.028,0,0,1,629.357,875.674Z" transform="translate(-627.373 -851.103)" fill="#202d37"/>
    </g>
    <g id="Group_10161" data-name="Group 10161" transform="translate(1076.356 1290.298)">
      <path id="Path_19690" data-name="Path 19690" d="M619.265,715.949h-.029a1.035,1.035,0,0,1-.974-1.031c.229-6.616-2.091-19.618-3.265-24.859-1.174-5.3-2.52-18.014-1.26-21.508,1.346-3.78,12.544-8.362,19.159-9.508,4.983-.859,9.852,2.291,11.914,5.7,1.6,2.663,1.575,5.384-.057,7.532a1,1,0,1,1-1.575-1.231c1.518-1.976.6-4.153-.086-5.27-1.747-2.864-5.9-5.441-9.852-4.754-7.016,1.2-16.725,5.756-17.613,8.219-1,2.835.086,14.806,1.346,20.391.945,4.239,3.551,18.042,3.294,25.374A1,1,0,0,1,619.265,715.949Z" transform="translate(-613.231 -658.9)" fill="#202d37"/>
    </g>
    <g id="Group_10162" data-name="Group 10162" transform="translate(1086.062 1298.175)">
      <path id="Path_19691" data-name="Path 19691" d="M669.05,699.75a1.054,1.054,0,0,1-.916-.573,1,1,0,0,1,.487-1.317,1.712,1.712,0,0,0,.888-1.547c-.029-1.06-3.179-6.129-5.3-7.274-1.833-1-8.277-.945-15.866.859a1,1,0,1,1-.458-1.947c6.386-1.518,14.377-2.234,17.269-.659,2.577,1.4,6.329,7.045,6.329,9.021a3.7,3.7,0,0,1-2.033,3.379A1.691,1.691,0,0,1,669.05,699.75Z" transform="translate(-647.118 -686.407)" fill="#202d37"/>
    </g>
    <g id="Group_10163" data-name="Group 10163" transform="translate(1100.228 1324.574)">
      <path id="Path_19692" data-name="Path 19692" d="M699.911,801.9a1,1,0,0,1-.773-1.633c4.382-5.384,2.377-15.007-2.291-20.018a.993.993,0,1,1,1.461-1.346c5.27,5.613,7.532,16.324,2.406,22.653A1.265,1.265,0,0,1,699.911,801.9Z" transform="translate(-696.584 -778.584)" fill="#202d37"/>
    </g>
    <g id="Group_10164" data-name="Group 10164" transform="translate(1090.513 1305.037)">
      <path id="Path_19693" data-name="Path 19693" d="M680.572,725.154a1,1,0,0,1-.8-.4.982.982,0,0,1,.2-1.4c.029,0,2.062-1.6,1.8-3.58-.172-1.346-5.613-6.816-7.561-7.274-1.661-.4-5.47,0-10.2,1.776a1,1,0,0,1-.716-1.862c4.554-1.718,8.935-2.434,11.37-1.833,2.463.573,8.763,6.5,9.078,8.993.4,3.15-2.463,5.327-2.578,5.441A1.331,1.331,0,0,1,680.572,725.154Z" transform="translate(-662.662 -710.367)" fill="#202d37"/>
    </g>
    <g id="Group_10165" data-name="Group 10165" transform="translate(1094.322 1313.127)">
      <path id="Path_19694" data-name="Path 19694" d="M688.059,757.083c-1.547,0-3.064-1.232-4.64-3.752a1,1,0,1,1,1.69-1.06c1.174,1.919,2.291,2.921,3.093,2.778,1.031-.172,2.033-2.291,2.434-4.239.516-2.549.63-4.267-3.408-7.475-4.468-3.551-5.613-3.093-9.365-1.6l-.544.229a1,1,0,1,1-.716-1.862l.544-.229c4.239-1.69,6.186-2.205,11.341,1.89,4.84,3.838,4.754,6.444,4.124,9.451-.172.888-1.232,5.3-4.067,5.814A2.517,2.517,0,0,1,688.059,757.083Z" transform="translate(-675.962 -738.616)" fill="#202d37"/>
    </g>
    <g id="Group_10166" data-name="Group 10166" transform="translate(1099.761 1247.453)">
      <path id="Path_19695" data-name="Path 19695" d="M706.252,548.933c-1.919,0-3.236-1.317-5.126-5.04-1.862-3.694-4.926-11.484-5.814-14.119h0c-1.747-5.241,3.408-7.7,5.1-8.506,7.876-3.752,19.245-7.962,24.715-9.995l.516-.2c6.272-2.32,9.164-3.379,12.257,3.322a148.589,148.589,0,0,1,5.785,14.234c.516,1.461,1.031,2.978-.487,4.5-1.174,1.2-3.637,2.406-8.076,4.324-9.021,3.924-18.243,7.962-23.6,9.966-.286.115-.573.2-.831.315A13.806,13.806,0,0,1,706.252,548.933Zm-9.021-19.789A146.693,146.693,0,0,0,702.93,543c1.289,2.549,2.091,3.637,2.864,3.895.831.258,2.148-.229,4.181-1,.258-.115.544-.2.831-.315,5.3-2,14.52-6.014,23.513-9.938,4.009-1.747,6.53-2.95,7.475-3.895.544-.544.544-.888.029-2.434a148.828,148.828,0,0,0-5.728-14.033c-1.4-3.007-2.348-3.752-3.379-3.895-1.346-.229-3.351.516-6.358,1.632l-.516.2c-5.441,2-16.754,6.186-24.543,9.909-3.694,1.69-4.9,3.494-4.067,6.014Z" transform="translate(-694.956 -509.296)" fill="#202d37"/>
    </g>
    <g id="Group_10167" data-name="Group 10167" transform="translate(1108.472 1257.583)">
      <path id="Path_19696" data-name="Path 19696" d="M737.808,570.768a.631.631,0,0,1-.229-.029,1,1,0,0,1-.745-1.2c1.518-6.444-1.489-18.3-10.911-22.968a1.005,1.005,0,1,1,.888-1.8,22.372,22.372,0,0,1,10.51,11.742A23.274,23.274,0,0,1,738.81,570,1.066,1.066,0,0,1,737.808,570.768Z" transform="translate(-725.37 -544.67)" fill="#202d37"/>
    </g>
    <g id="Group_10168" data-name="Group 10168" transform="translate(1123.385 1251.562)">
      <path id="Path_19697" data-name="Path 19697" d="M788.372,550.038a.982.982,0,0,1-.974-.745c-2.692-10.51-6.272-19.274-9.766-24.057a1.005,1.005,0,1,1,1.632-1.174c5.155,7.074,8.763,19.675,10.081,24.744a1,1,0,0,1-.716,1.231Z" transform="translate(-777.446 -523.646)" fill="#202d37"/>
    </g>
    <g id="Group_10169" data-name="Group 10169" transform="translate(1101.179 1253.575)">
      <path id="Path_19698" data-name="Path 19698" d="M700.906,548.725a.97.97,0,0,1-.916-.6,1.01,1.01,0,0,1,.516-1.317c8.592-3.694,35.168-14.148,40.381-16.066a1.006,1.006,0,0,1,.687,1.89c-5.184,1.89-31.7,12.343-40.295,16.009A.717.717,0,0,1,700.906,548.725Z" transform="translate(-699.905 -530.675)" fill="#202d37"/>
    </g>
    <g id="Group_10170" data-name="Group 10170" transform="translate(1104.182 1260.302)">
      <path id="Path_19699" data-name="Path 19699" d="M711.4,572.846a1.029,1.029,0,0,1-.916-.6.986.986,0,0,1,.516-1.317c10.969-4.926,28.266-12.086,40.238-16.7a1,1,0,0,1,.716,1.862c-11.942,4.582-29.212,11.742-40.152,16.639A.716.716,0,0,1,711.4,572.846Z" transform="translate(-710.39 -554.162)" fill="#202d37"/>
    </g>
    <g id="Group_10171" data-name="Group 10171" transform="translate(1264.81 1273.658)">
      <path id="Path_19700" data-name="Path 19700" d="M1286.312,632.389a14.827,14.827,0,0,1-10.74-4.525,15.292,15.292,0,0,1-4.3-11.284,16.25,16.25,0,0,1,15.98-15.78,14.827,14.827,0,0,1,10.74,4.525,15.291,15.291,0,0,1,4.3,11.284A16.27,16.27,0,0,1,1286.312,632.389Zm.916-29.584a14.232,14.232,0,0,0-13.976,13.833h0A13.309,13.309,0,0,0,1277,626.46a12.9,12.9,0,0,0,9.308,3.924,14.232,14.232,0,0,0,13.976-13.833,13.309,13.309,0,0,0-3.752-9.823A12.9,12.9,0,0,0,1287.229,602.8Zm-14.978,13.775Z" transform="translate(-1271.268 -600.8)" fill="#202d37"/>
    </g>
    <g id="Group_10172" data-name="Group 10172" transform="translate(1284.898 1269.041)">
      <path id="Path_19701" data-name="Path 19701" d="M1356.874,616.243a14.746,14.746,0,0,1-4.01-.573,15.844,15.844,0,0,1-9.479-7.847h0c-4.1-7.675-1.6-17.241,5.527-21.307a14.016,14.016,0,0,1,10.94-1.26,15.844,15.844,0,0,1,9.479,7.847c4.1,7.675,1.6,17.241-5.527,21.307A14.17,14.17,0,0,1,1356.874,616.243Zm-11.713-9.365a13.73,13.73,0,0,0,8.277,6.873,12.074,12.074,0,0,0,9.394-1.088c6.186-3.523,8.334-11.885,4.754-18.615a13.73,13.73,0,0,0-8.277-6.873,12.074,12.074,0,0,0-9.394,1.088c-6.215,3.523-8.334,11.885-4.754,18.615Z" transform="translate(-1341.412 -584.677)" fill="#202d37"/>
    </g>
    <g id="Group_10173" data-name="Group 10173" transform="translate(1256.776 1253.217)">
      <path id="Path_19702" data-name="Path 19702" d="M1244.214,540.815a1,1,0,0,1-.315-1.947c2.979-1.031,5.728-2.033,8.42-2.978,8.477-3.007,15.15-5.384,19.789-6.444a1,1,0,1,1,.458,1.947c-4.5,1.031-11.141,3.379-19.56,6.358-2.692.945-5.441,1.947-8.42,2.978A1.291,1.291,0,0,1,1244.214,540.815Z" transform="translate(-1243.216 -529.423)" fill="#202d37"/>
    </g>
    <g id="Group_10174" data-name="Group 10174" transform="translate(1216.348 1268.603)">
      <path id="Path_19703" data-name="Path 19703" d="M1103.037,595.735a.955.955,0,0,1-.916-.63,1.023,1.023,0,0,1,.544-1.317c2.864-1.2,6.3-2.663,9.938-4.21,4.639-1.976,9.909-4.239,15.007-6.358a1.008,1.008,0,0,1,.773,1.862c-5.1,2.119-10.367,4.353-14.978,6.358-3.637,1.575-7.074,3.036-9.937,4.239A2.973,2.973,0,0,1,1103.037,595.735Z" transform="translate(-1102.048 -583.148)" fill="#202d37"/>
    </g>
    <g id="Group_10175" data-name="Group 10175" transform="translate(1171.308 1285.962)">
      <path id="Path_19704" data-name="Path 19704" d="M945.788,655.458a.982.982,0,0,1-.974-.745,1,1,0,0,1,.716-1.231c7.618-2,19.417-6.358,27.952-9.651a1,1,0,0,1,.716,1.862c-8.592,3.322-20.448,7.7-28.152,9.709A.426.426,0,0,1,945.788,655.458Z" transform="translate(-944.78 -643.762)" fill="#202d37"/>
    </g>
    <g id="Group_10176" data-name="Group 10176" transform="translate(1130.125 1299.068)">
      <path id="Path_19705" data-name="Path 19705" d="M801.988,703.867a1.02,1.02,0,0,1-.888-.515,1.049,1.049,0,0,1,.372-1.375,160.567,160.567,0,0,1,29.584-12.4,1.005,1.005,0,0,1,.6,1.919,160.456,160.456,0,0,0-29.212,12.257A.906.906,0,0,1,801.988,703.867Z" transform="translate(-800.98 -689.526)" fill="#202d37"/>
    </g>
    <g id="Group_10177" data-name="Group 10177" transform="translate(1137.802 1311.428)">
      <path id="Path_19706" data-name="Path 19706" d="M828.793,753.623a1,1,0,0,1-.458-1.89c6.673-3.551,16.124-6.873,25.259-10.109,8.649-3.064,16.84-5.957,22.252-8.821a.993.993,0,1,1,.945,1.747c-5.556,2.95-13.8,5.871-22.539,8.964-9.078,3.208-18.443,6.53-25,9.995A1.079,1.079,0,0,1,828.793,753.623Z" transform="translate(-827.787 -732.683)" fill="#202d37"/>
    </g>
    <g id="Group_10178" data-name="Group 10178" transform="translate(1075.933 1178.296)">
      <path id="Path_19707" data-name="Path 19707" d="M625.77,383.6a.955.955,0,0,1-.916-.63c-2.177-5.212-4.153-9.709-5.9-13.661-5.585-12.658-8.678-19.646-6.5-24.973,1.862-4.525,7.446-7.475,16.467-11.026,19.56-7.7,96.914-33.937,143.137-49.6,12.343-4.181,22.109-7.5,27.923-9.508,1.976-.687,3.78-1.317,5.527-1.919,10.625-3.723,16.467-5.756,20.992-3.551,4.468,2.177,7.188,8.305,11.57,21.25,7.417,21.909,12.143,31.617,13.031,33.336a1,1,0,1,1-1.776.916c-.888-1.747-5.671-11.541-13.145-33.593-4.1-12.143-6.73-18.214-10.539-20.076-3.78-1.833-9.365.115-19.474,3.637-1.747.6-3.551,1.26-5.556,1.919-5.842,2-15.579,5.3-27.951,9.508-46.194,15.665-123.519,41.9-143.022,49.574-9.794,3.866-13.976,6.558-15.35,9.938-1.862,4.554,1.088,11.226,6.472,23.4,1.747,3.981,3.752,8.477,5.928,13.689a1.023,1.023,0,0,1-.544,1.317A1.449,1.449,0,0,1,625.77,383.6Z" transform="translate(-611.752 -267.817)" fill="#202d37"/>
    </g>
    <g id="Group_10179" data-name="Group 10179" transform="translate(1307.948 1231.703)">
      <path id="Path_19708" data-name="Path 19708" d="M1424.932,471.369h-.057a3.16,3.16,0,0,1-2.893-2.807c-.258-1.947-.057-6.959,2.177-9.995,2.091-2.835,8.362-4.267,11.284-4.267h.057c3.551,0,5.184,1.031,7.246,6.759a1.006,1.006,0,0,1-1.89.687c-1.948-5.441-3.036-5.441-5.384-5.441-2.864,0-8.219,1.461-9.68,3.465-1.747,2.377-2.033,6.73-1.8,8.534a1.1,1.1,0,0,0,1.031,1.06,1.016,1.016,0,0,1,.945,1.06A1.075,1.075,0,0,1,1424.932,471.369Z" transform="translate(-1421.896 -454.3)" fill="#202d37"/>
    </g>
    <g id="Group_10180" data-name="Group 10180" transform="translate(1107.009 1281.347)">
      <path id="Path_19709" data-name="Path 19709" d="M744.732,725.636a9.436,9.436,0,0,1-3.293-.544c-2.921-1.146-3.924-3.895-4.9-6.558-.344-.945-.716-1.919-1.146-2.864-2.663-5.556-5.527-13.374-9.88-25.2-1.518-4.124-3.236-8.792-5.184-13.947a1.006,1.006,0,1,1,1.89-.687c1.919,5.155,3.666,9.823,5.184,13.947,4.353,11.771,7.217,19.532,9.823,25.03.487,1.031.859,2.033,1.231,3.036.945,2.549,1.69,4.582,3.752,5.384,3.752,1.489,11.885-1,25.6-7.818,8.678-4.324,25.03-10.911,48.571-19.618,7.475-2.778,15.751-5.756,24.629-8.935,41.87-14.921,86.289-29.613,94.623-31.846,5.527-1.489,8.191-2.892,9.164-4.9,1.518-3.093-.687-8.391-4.7-18.014-.4-.974-.831-2-1.289-3.064a1.008,1.008,0,1,1,1.862-.773c.458,1.06.859,2.091,1.289,3.064,4.239,10.138,6.587,15.723,4.668,19.646-1.289,2.606-4.21,4.267-10.453,5.928-8.334,2.234-52.638,16.868-94.479,31.789-8.849,3.15-17.126,6.157-24.6,8.935-23.455,8.678-39.722,15.265-48.371,19.56C757.075,722.944,749.543,725.636,744.732,725.636Z" transform="translate(-720.264 -627.648)" fill="#202d37"/>
    </g>
  </g>
</svg>
