<svg id="Group_24" data-name="Group 24" xmlns="http://www.w3.org/2000/svg" xmlns:xlink="http://www.w3.org/1999/xlink" width="330" height="271.917" viewBox="0 0 330 271.917">
  <defs>
    <clipPath id="clip-path">
      <rect id="Rectangle_12" data-name="Rectangle 12" width="330" height="271.917" fill="none"/>
    </clipPath>
  </defs>
  <g id="Group_17" data-name="Group 17">
    <g id="Group_16" data-name="Group 16" clip-path="url(#clip-path)">
      <line id="Line_9" data-name="Line 9" x2="330" transform="translate(0 216.675)" fill="none" stroke="#fff" stroke-width="1"/>
    </g>
  </g>
  <line id="Line_10" data-name="Line 10" x2="76.703" transform="translate(129 90.96)" fill="none" stroke="#fff" stroke-width="1"/>
  <g id="Group_19" data-name="Group 19">
    <g id="Group_18" data-name="Group 18" clip-path="url(#clip-path)">
      <line id="Line_11" data-name="Line 11" x2="323.086" transform="translate(0.94 46.467)" fill="none" stroke="#fff" stroke-width="1"/>
    </g>
  </g>
  <line id="Line_12" data-name="Line 12" x2="76.703" transform="translate(129 165.183)" fill="none" stroke="#fff" stroke-width="1"/>
  <line id="Line_13" data-name="Line 13" y2="218.289" transform="translate(288.948 15.655)" fill="none" stroke="#fff" stroke-width="1"/>
  <g id="Group_21" data-name="Group 21">
    <g id="Group_20" data-name="Group 20" clip-path="url(#clip-path)">
      <line id="Line_14" data-name="Line 14" y2="216.165" transform="translate(129.375)" fill="none" stroke="#fff" stroke-width="1"/>
      <line id="Line_15" data-name="Line 15" y2="224.236" transform="translate(205.162 47.681)" fill="none" stroke="#fff" stroke-width="1"/>
    </g>
  </g>
  <line id="Line_16" data-name="Line 16" y2="216.165" transform="translate(57.589 24.611)" fill="none" stroke="#fff" stroke-width="1"/>
  <g id="Group_23" data-name="Group 23">
    <g id="Group_22" data-name="Group 22" clip-path="url(#clip-path)">
      <path id="Path_100" data-name="Path 100" d="M253.834,29.959a6.334,6.334,0,1,1-6.334,6.334,6.334,6.334,0,0,1,6.334-6.334" transform="translate(14.166 -7.834)" fill="#adadad"/>
      <path id="Path_101" data-name="Path 101" d="M24.071,107.959A3.571,3.571,0,1,1,20.5,111.53a3.571,3.571,0,0,1,3.571-3.571" transform="translate(2.929 2.929)" fill="#adadad"/>
      <path id="Path_102" data-name="Path 102" d="M195,219.959a6.5,6.5,0,1,1-6.5,6.5,6.5,6.5,0,0,1,6.5-6.5" transform="translate(-7.657 9)" fill="#adadad"/>
      <path id="Path_103" data-name="Path 103" d="M194.648,108.877a.035.035,0,0,0-.01-.02l-.05-.09a.613.613,0,0,0-.28-.18c-.15-.04-15.16-4.56-25.9-10l-.14-.03-.56.04c-9.36,4.7-22.08,8.8-25.76,9.94l-.19.06a.637.637,0,0,0-.36.3l-.03.08a.145.145,0,0,0-.02.07l.01.11c-.72,39.05,24.91,45.69,26.42,46.04h.21a.628.628,0,0,0,.19-.03c1.12-.26,27.16-6.83,26.51-45.98Zm-26.58,45.05-.08.02-.07-.02c-2.63-.64-25.68-7.31-25.36-44.03v-.22l.21-.06c12.93-4.12,20.78-7.55,25.09-9.7l.13-.06.14.06c4.29,2.15,12.11,5.57,25,9.67l.29.09.01.22c.31,36.48-22.74,43.36-25.36,44.03" fill="#fff"/>
      <path id="Path_104" data-name="Path 104" d="M187.178,114.717l-22.09,19.64a.639.639,0,0,1-.84,0l-11.37-10.06a.667.667,0,0,1-.2-.44.6.6,0,0,1,.17-.46.629.629,0,0,1,.47-.2.7.7,0,0,1,.44.17l10.91,9.66,21.64-19.25a.639.639,0,0,1,.84.04.654.654,0,0,1,.03.9" fill="#fff"/>
    </g>
  </g>
</svg>
