<svg xmlns="http://www.w3.org/2000/svg" width="538" height="314.193" viewBox="0 0 538 314.193">
  <g id="Group_10091" data-name="Group 10091" transform="translate(-1215.639 -2380.04)">
    <text id="_2020" data-name="2020" transform="translate(1215.639 2676.233)" font-size="14" font-family="Montserrat-Medium, Montserrat" font-weight="500"><tspan x="0" y="14">2020</tspan></text>
    <g id="Chart" transform="translate(1220.57 2380.04)">
      <path id="Path_19656" data-name="Path 19656" d="M24,119V408.394" transform="translate(-14.962 -119)" fill="none" stroke="#e49640" stroke-width="1" opacity="0.561"/>
      <path id="Path_19657" data-name="Path 19657" d="M94,119V408.394" transform="translate(40.888 -119)" fill="none" stroke="#e49640" stroke-width="1" opacity="0.561"/>
      <path id="Path_19658" data-name="Path 19658" d="M163,119V408.394" transform="translate(95.939 -119)" fill="none" stroke="#e49640" stroke-width="1" opacity="0.561"/>
      <path id="Path_19659" data-name="Path 19659" d="M233,119V408.394" transform="translate(151.789 -119)" fill="none" stroke="#e49640" stroke-width="1" opacity="0.561"/>
      <path id="Path_19660" data-name="Path 19660" d="M303,119V408.394" transform="translate(207.639 -119)" fill="none" stroke="#e49640" stroke-width="1" opacity="0.581"/>
      <path id="Path_19661" data-name="Path 19661" d="M124.32,234.323C84.192,234.323,24,330.585,24,330.585H273.9V245.541c-14.75,8.707-29.6,15.735-49.261,15.735C184.512,261.276,164.448,234.323,124.32,234.323Z" transform="translate(-14.962 -41.139)" fill="#ff4343" opacity="0.2"/>
      <path id="Path_19662" data-name="Path 19662" d="M24,330.585s60.192-96.262,100.32-96.262,60.192,26.953,100.32,26.953c19.805,0,34.722-7.128,49.578-15.922" transform="translate(-14.962 -41.139)" fill="none" stroke="#9dd030" stroke-linecap="round" stroke-width="2"/>
      <path id="Path_19663" data-name="Path 19663" d="M414.3,152.5l-53.749,24.793L163.5,268.19v84.543H414.3Z" transform="translate(96.339 -63.339)" fill="#ffbcbc" opacity="0.2"/>
      <path id="Path_19664" data-name="Path 19664" d="M163.5,268.19,414.3,152.5" transform="translate(96.339 -63.339)" fill="none" stroke="#197d73" stroke-linecap="round" stroke-width="2" stroke-dasharray="4 4"/>
      <ellipse id="Ellipse_69" data-name="Ellipse 69" cx="8.5" cy="8" rx="8.5" ry="8" transform="translate(251.069 199.193)" fill="#9dd030"/>
      <circle id="Ellipse_70" data-name="Ellipse 70" cx="3" cy="3" r="3" transform="translate(257.069 204.193)" fill="#fff"/>
      <circle id="Ellipse_71" data-name="Ellipse 71" cx="7.5" cy="7.5" r="7.5" transform="translate(0.067 285.193)" fill="#9dd030"/>
      <ellipse id="Ellipse_72" data-name="Ellipse 72" cx="4" cy="4.5" rx="4" ry="4.5" transform="translate(5.067 289.193)" fill="#fff"/>
      <circle id="Ellipse_73" data-name="Ellipse 73" cx="8" cy="8" r="8" transform="translate(503.069 84.193)" fill="#ff8c39"/>
      <ellipse id="Ellipse_74" data-name="Ellipse 74" cx="4" cy="4.5" rx="4" ry="4.5" transform="translate(508.069 88.193)" fill="#fff"/>
      <rect id="Rectangle_4753" data-name="Rectangle 4753" width="70" height="29" rx="5" transform="translate(0.067 243.193)" fill="#173430"/>
      <rect id="Rectangle_4754" data-name="Rectangle 4754" width="69" height="32" rx="6" transform="translate(225.069 162.193)" fill="#173430"/>
      <rect id="Rectangle_4755" data-name="Rectangle 4755" width="70" height="30" rx="6" transform="translate(441.069 62.193)" fill="#173430"/>
    </g>
    <text id="_2021" data-name="2021" transform="translate(1340.639 2676.233)" font-size="14" font-family="Montserrat-Medium, Montserrat" font-weight="500"><tspan x="0" y="14">2021</tspan></text>
    <text id="_2022" data-name="2022" transform="translate(1465.639 2676.233)" font-size="14" font-family="Montserrat-Medium, Montserrat" font-weight="500"><tspan x="0" y="14">2022</tspan></text>
    <text id="_2023" data-name="2023" transform="translate(1590.639 2676.233)" font-size="14" font-family="Montserrat-Medium, Montserrat" font-weight="500"><tspan x="0" y="14">2023</tspan></text>
    <text id="_2024" data-name="2024" transform="translate(1715.639 2676.233)" font-size="14" font-family="Montserrat-Medium, Montserrat" font-weight="500"><tspan x="0" y="14">2024</tspan></text>
    <text id="_10" data-name="10" transform="translate(1247.639 2633.233)" fill="#fff" font-size="14" font-family="Montserrat-Medium, Montserrat" font-weight="500"><tspan x="0" y="14">10</tspan></text>
    <text id="_30" data-name="30" transform="translate(1474.639 2552.233)" fill="#fff" font-size="14" font-family="Montserrat-Medium, Montserrat" font-weight="500"><tspan x="0" y="14">30</tspan></text>
    <text id="_60" data-name="60" transform="translate(1686.639 2449.233)" fill="#fff" font-size="14" font-family="Montserrat-Medium, Montserrat" font-weight="500"><tspan x="0" y="14">60</tspan></text>
  </g>
</svg>
