<svg xmlns="http://www.w3.org/2000/svg" width="49.678" height="44.037" viewBox="0 0 49.678 44.037">
  <g id="Group_61" data-name="Group 61" transform="translate(-2262.068 634.999)">
    <path id="Path_17" data-name="Path 17" d="M132.849,61.589a1.128,1.128,0,0,0-1.023,1.129v7.9a1.129,1.129,0,0,0,1.129,1.129H138.6V77.4H123.358V72.88a1.13,1.13,0,0,0-1.129-1.129H108.574a1.129,1.129,0,0,0-1.023,1.129V77.4h-2.929a1.129,1.129,0,0,0-1.023,1.129V104.5a1.129,1.129,0,1,0,2.258,0V79.654h1.694v6.774a1.129,1.129,0,0,0,1.129,1.129h13.548a1.129,1.129,0,0,0,1.129-1.129V79.654h28.791a1.129,1.129,0,0,0,0-2.258H146.5V71.75h5.645a1.129,1.129,0,0,0,1.129-1.129v-7.9a1.129,1.129,0,0,0-1.129-1.129h-19.19a.955.955,0,0,0-.106,0Zm1.235,2.258H151.02v5.645H134.083Zm6.774,7.9h3.387V77.4h-3.387Zm-31.049,2.258H121.1V85.3H109.81Zm2.717,2.258a1.13,1.13,0,0,0,.106,2.258h3.387a1.129,1.129,0,0,0,0-2.258h-3.493Zm0,4.516a1.13,1.13,0,0,0,.106,2.258h5.645a1.129,1.129,0,0,0,0-2.258h-5.751Zm14.113.565a1.129,1.129,0,0,0-1.023,1.129V85.86a1.129,1.129,0,0,0,1.129,1.129h4.516a1.129,1.129,0,0,0,1.129-1.129V82.476a1.129,1.129,0,0,0-1.129-1.129h-4.516a.948.948,0,0,0-.106,0Zm8.468,0a1.129,1.129,0,0,0-1.023,1.129V85.86a1.129,1.129,0,0,0,1.129,1.129h4.516a1.129,1.129,0,0,0,1.129-1.129V82.476a1.129,1.129,0,0,0-1.129-1.129h-4.516a.949.949,0,0,0-.107,0Zm8.468,0a1.129,1.129,0,0,0-1.023,1.129V85.86a1.129,1.129,0,0,0,1.129,1.129H148.2a1.129,1.129,0,0,0,1.129-1.129V82.476a1.129,1.129,0,0,0-1.129-1.129h-4.52a.948.948,0,0,0-.106,0Zm8.45.547a1.129,1.129,0,0,0-1.006,1.147v20.323H109.244a1.129,1.129,0,1,0,0,2.258h42.9a1.129,1.129,0,0,0,1.129-1.129V83.041a1.129,1.129,0,0,0-1.147-1.147h-.106ZM127.874,83.6h2.258v1.129h-2.258Zm8.468,0H138.6v1.129h-2.258Zm8.468,0h2.258v1.129H144.81Zm-18.17,5.08a1.13,1.13,0,0,0-1.023,1.129V93.2a1.129,1.129,0,0,0,1.129,1.129h4.516A1.129,1.129,0,0,0,132.39,93.2V89.815a1.129,1.129,0,0,0-1.129-1.129h-4.622Zm8.468,0a1.13,1.13,0,0,0-1.023,1.129V93.2a1.129,1.129,0,0,0,1.129,1.129h4.516a1.129,1.129,0,0,0,1.129-1.129V89.815a1.13,1.13,0,0,0-1.129-1.129h-4.516a.972.972,0,0,0-.108,0Zm8.468,0a1.13,1.13,0,0,0-1.023,1.129V93.2a1.129,1.129,0,0,0,1.129,1.129H148.2a1.129,1.129,0,0,0,1.129-1.129V89.815a1.129,1.129,0,0,0-1.129-1.129h-4.626Zm-15.7,2.258h2.258v1.129h-2.258Zm8.468,0H138.6v1.129h-2.258Zm8.468,0h2.258v1.129h-2.258Zm-18.17,5.08a1.129,1.129,0,0,0-1.023,1.129v3.387a1.129,1.129,0,0,0,1.129,1.129h4.516a1.129,1.129,0,0,0,1.129-1.129V97.154a1.129,1.129,0,0,0-1.129-1.129h-4.622Zm8.468,0a1.129,1.129,0,0,0-1.023,1.129v3.387a1.129,1.129,0,0,0,1.129,1.129h4.516a1.129,1.129,0,0,0,1.129-1.129V97.154a1.129,1.129,0,0,0-1.129-1.129h-4.516a1.01,1.01,0,0,0-.11,0Zm8.468,0a1.129,1.129,0,0,0-1.023,1.129v3.387a1.129,1.129,0,0,0,1.129,1.129H148.2a1.129,1.129,0,0,0,1.129-1.129V97.154a1.129,1.129,0,0,0-1.129-1.129h-4.626Zm-15.7,2.258h2.258v1.129h-2.258Zm8.468,0H138.6v1.129h-2.258Zm8.468,0h2.258v1.129h-2.258Z" transform="translate(2158.469 -696.588)"/>
  </g>
</svg>
