<svg xmlns="http://www.w3.org/2000/svg" version="1.1" xmlns:xlink="http://www.w3.org/1999/xlink" xmlns:svgjs="http://svgjs.com/svgjs" width="1051" height="1051" viewBox="0 0 1051 1051" fill="#ffffff"><rect width="1051" height="1051" fill="#ffffff" x="0" y="0"></rect><rect width="25.919999999999998" height="25.919999999999998" x="296.53999999999996" y="80.54" opacity="1" fill="#000000" transform="matrix(1,0,0,1,0,0)"></rect><rect width="25.919999999999998" height="25.919999999999998" x="323.53999999999996" y="80.54" opacity="1" fill="#000000" transform="matrix(1,0,0,1,0,0)"></rect><rect width="25.919999999999998" height="25.919999999999998" x="404.54" y="80.54" opacity="1" fill="#000000" transform="matrix(1,0,0,1,0,0)"></rect><rect width="25.919999999999998" height="25.919999999999998" x="458.54" y="80.54" opacity="1" fill="#000000" transform="matrix(1,0,0,1,0,0)"></rect><rect width="25.919999999999998" height="25.919999999999998" x="485.54" y="80.54" opacity="1" fill="#000000" transform="matrix(1,0,0,1,0,0)"></rect><rect width="25.919999999999998" height="25.919999999999998" x="674.54" y="80.54" opacity="1" fill="#000000" transform="matrix(1,0,0,1,0,0)"></rect><rect width="25.919999999999998" height="25.919999999999998" x="701.54" y="80.54" opacity="1" fill="#000000" transform="matrix(1,0,0,1,0,0)"></rect><rect width="25.919999999999998" height="25.919999999999998" x="728.54" y="80.54" opacity="1" fill="#000000" transform="matrix(1,0,0,1,0,0)"></rect><rect width="25.919999999999998" height="25.919999999999998" x="323.53999999999996" y="107.53999999999999" opacity="1" fill="#000000" transform="matrix(1,0,0,1,0,0)"></rect><rect width="25.919999999999998" height="25.919999999999998" x="377.54" y="107.53999999999999" opacity="1" fill="#000000" transform="matrix(1,0,0,1,0,0)"></rect><rect width="25.919999999999998" height="25.919999999999998" x="431.54" y="107.53999999999999" opacity="1" fill="#000000" transform="matrix(1,0,0,1,0,0)"></rect><rect width="25.919999999999998" height="25.919999999999998" x="458.54" y="107.53999999999999" opacity="1" fill="#000000" transform="matrix(1,0,0,1,0,0)"></rect><rect width="25.919999999999998" height="25.919999999999998" x="485.54" y="107.53999999999999" opacity="1" fill="#000000" transform="matrix(1,0,0,1,0,0)"></rect><rect width="25.919999999999998" height="25.919999999999998" x="512.54" y="107.53999999999999" opacity="1" fill="#000000" transform="matrix(1,0,0,1,0,0)"></rect><rect width="25.919999999999998" height="25.919999999999998" x="701.54" y="107.53999999999999" opacity="1" fill="#000000" transform="matrix(1,0,0,1,0,0)"></rect><rect width="25.919999999999998" height="25.919999999999998" x="350.54" y="134.54" opacity="1" fill="#000000" transform="matrix(1,0,0,1,0,0)"></rect><rect width="25.919999999999998" height="25.919999999999998" x="377.54" y="134.54" opacity="1" fill="#000000" transform="matrix(1,0,0,1,0,0)"></rect><rect width="25.919999999999998" height="25.919999999999998" x="404.54" y="134.54" opacity="1" fill="#000000" transform="matrix(1,0,0,1,0,0)"></rect><rect width="25.919999999999998" height="25.919999999999998" x="431.54" y="134.54" opacity="1" fill="#000000" transform="matrix(1,0,0,1,0,0)"></rect><rect width="25.919999999999998" height="25.919999999999998" x="512.54" y="134.54" opacity="1" fill="#000000" transform="matrix(1,0,0,1,0,0)"></rect><rect width="25.919999999999998" height="25.919999999999998" x="566.54" y="134.54" opacity="1" fill="#000000" transform="matrix(1,0,0,1,0,0)"></rect><rect width="25.919999999999998" height="25.919999999999998" x="701.54" y="134.54" opacity="1" fill="#000000" transform="matrix(1,0,0,1,0,0)"></rect><rect width="25.919999999999998" height="25.919999999999998" x="728.54" y="134.54" opacity="1" fill="#000000" transform="matrix(1,0,0,1,0,0)"></rect><rect width="25.919999999999998" height="25.919999999999998" x="296.53999999999996" y="161.54000000000002" opacity="1" fill="#000000" transform="matrix(1,0,0,1,0,0)"></rect><rect width="25.919999999999998" height="25.919999999999998" x="350.54" y="161.54000000000002" opacity="1" fill="#000000" transform="matrix(1,0,0,1,0,0)"></rect><rect width="25.919999999999998" height="25.919999999999998" x="377.54" y="161.54000000000002" opacity="1" fill="#000000" transform="matrix(1,0,0,1,0,0)"></rect><rect width="25.919999999999998" height="25.919999999999998" x="404.54" y="161.54000000000002" opacity="1" fill="#000000" transform="matrix(1,0,0,1,0,0)"></rect><rect width="25.919999999999998" height="25.919999999999998" x="458.54" y="161.54000000000002" opacity="1" fill="#000000" transform="matrix(1,0,0,1,0,0)"></rect><rect width="25.919999999999998" height="25.919999999999998" x="485.54" y="161.54000000000002" opacity="1" fill="#000000" transform="matrix(1,0,0,1,0,0)"></rect><rect width="25.919999999999998" height="25.919999999999998" x="512.54" y="161.54000000000002" opacity="1" fill="#000000" transform="matrix(1,0,0,1,0,0)"></rect><rect width="25.919999999999998" height="25.919999999999998" x="593.54" y="161.54000000000002" opacity="1" fill="#000000" transform="matrix(1,0,0,1,0,0)"></rect><rect width="25.919999999999998" height="25.919999999999998" x="728.54" y="161.54000000000002" opacity="1" fill="#000000" transform="matrix(1,0,0,1,0,0)"></rect><rect width="25.919999999999998" height="25.919999999999998" x="323.53999999999996" y="188.54000000000002" opacity="1" fill="#000000" transform="matrix(1,0,0,1,0,0)"></rect><rect width="25.919999999999998" height="25.919999999999998" x="377.54" y="188.54000000000002" opacity="1" fill="#000000" transform="matrix(1,0,0,1,0,0)"></rect><rect width="25.919999999999998" height="25.919999999999998" x="512.54" y="188.54000000000002" opacity="1" fill="#000000" transform="matrix(1,0,0,1,0,0)"></rect><rect width="25.919999999999998" height="25.919999999999998" x="566.54" y="188.54000000000002" opacity="1" fill="#000000" transform="matrix(1,0,0,1,0,0)"></rect><rect width="25.919999999999998" height="25.919999999999998" x="593.54" y="188.54000000000002" opacity="1" fill="#000000" transform="matrix(1,0,0,1,0,0)"></rect><rect width="25.919999999999998" height="25.919999999999998" x="620.54" y="188.54000000000002" opacity="1" fill="#000000" transform="matrix(1,0,0,1,0,0)"></rect><rect width="25.919999999999998" height="25.919999999999998" x="647.54" y="188.54000000000002" opacity="1" fill="#000000" transform="matrix(1,0,0,1,0,0)"></rect><rect width="25.919999999999998" height="25.919999999999998" x="674.54" y="188.54000000000002" opacity="1" fill="#000000" transform="matrix(1,0,0,1,0,0)"></rect><rect width="25.919999999999998" height="25.919999999999998" x="728.54" y="188.54000000000002" opacity="1" fill="#000000" transform="matrix(1,0,0,1,0,0)"></rect><rect width="25.919999999999998" height="25.919999999999998" x="323.53999999999996" y="215.54" opacity="1" fill="#000000" transform="matrix(1,0,0,1,0,0)"></rect><rect width="25.919999999999998" height="25.919999999999998" x="350.54" y="215.54" opacity="1" fill="#000000" transform="matrix(1,0,0,1,0,0)"></rect><rect width="25.919999999999998" height="25.919999999999998" x="377.54" y="215.54" opacity="1" fill="#000000" transform="matrix(1,0,0,1,0,0)"></rect><rect width="25.919999999999998" height="25.919999999999998" x="404.54" y="215.54" opacity="1" fill="#000000" transform="matrix(1,0,0,1,0,0)"></rect><rect width="25.919999999999998" height="25.919999999999998" x="431.54" y="215.54" opacity="1" fill="#000000" transform="matrix(1,0,0,1,0,0)"></rect><rect width="25.919999999999998" height="25.919999999999998" x="512.54" y="215.54" opacity="1" fill="#000000" transform="matrix(1,0,0,1,0,0)"></rect><rect width="25.919999999999998" height="25.919999999999998" x="539.54" y="215.54" opacity="1" fill="#000000" transform="matrix(1,0,0,1,0,0)"></rect><rect width="25.919999999999998" height="25.919999999999998" x="566.54" y="215.54" opacity="1" fill="#000000" transform="matrix(1,0,0,1,0,0)"></rect><rect width="25.919999999999998" height="25.919999999999998" x="674.54" y="215.54" opacity="1" fill="#000000" transform="matrix(1,0,0,1,0,0)"></rect><rect width="25.919999999999998" height="25.919999999999998" x="701.54" y="215.54" opacity="1" fill="#000000" transform="matrix(1,0,0,1,0,0)"></rect><rect width="25.919999999999998" height="25.919999999999998" x="728.54" y="215.54" opacity="1" fill="#000000" transform="matrix(1,0,0,1,0,0)"></rect><rect width="25.919999999999998" height="25.919999999999998" x="350.54" y="269.53999999999996" opacity="1" fill="#000000" transform="matrix(1,0,0,1,0,0)"></rect><rect width="25.919999999999998" height="25.919999999999998" x="377.54" y="269.53999999999996" opacity="1" fill="#000000" transform="matrix(1,0,0,1,0,0)"></rect><rect width="25.919999999999998" height="25.919999999999998" x="404.54" y="269.53999999999996" opacity="1" fill="#000000" transform="matrix(1,0,0,1,0,0)"></rect><rect width="25.919999999999998" height="25.919999999999998" x="431.54" y="269.53999999999996" opacity="1" fill="#000000" transform="matrix(1,0,0,1,0,0)"></rect><rect width="25.919999999999998" height="25.919999999999998" x="458.54" y="269.53999999999996" opacity="1" fill="#000000" transform="matrix(1,0,0,1,0,0)"></rect><rect width="25.919999999999998" height="25.919999999999998" x="485.54" y="269.53999999999996" opacity="1" fill="#000000" transform="matrix(1,0,0,1,0,0)"></rect><rect width="25.919999999999998" height="25.919999999999998" x="539.54" y="269.53999999999996" opacity="1" fill="#000000" transform="matrix(1,0,0,1,0,0)"></rect><rect width="25.919999999999998" height="25.919999999999998" x="566.54" y="269.53999999999996" opacity="1" fill="#000000" transform="matrix(1,0,0,1,0,0)"></rect><rect width="25.919999999999998" height="25.919999999999998" x="620.54" y="269.53999999999996" opacity="1" fill="#000000" transform="matrix(1,0,0,1,0,0)"></rect><rect width="25.919999999999998" height="25.919999999999998" x="647.54" y="269.53999999999996" opacity="1" fill="#000000" transform="matrix(1,0,0,1,0,0)"></rect><rect width="25.919999999999998" height="25.919999999999998" x="674.54" y="269.53999999999996" opacity="1" fill="#000000" transform="matrix(1,0,0,1,0,0)"></rect><rect width="25.919999999999998" height="25.919999999999998" x="701.54" y="269.53999999999996" opacity="1" fill="#000000" transform="matrix(1,0,0,1,0,0)"></rect><rect width="25.919999999999998" height="25.919999999999998" x="134.54" y="296.53999999999996" opacity="1" fill="#000000" transform="matrix(1,0,0,1,0,0)"></rect><rect width="25.919999999999998" height="25.919999999999998" x="323.53999999999996" y="296.53999999999996" opacity="1" fill="#000000" transform="matrix(1,0,0,1,0,0)"></rect><rect width="25.919999999999998" height="25.919999999999998" x="377.54" y="296.53999999999996" opacity="1" fill="#000000" transform="matrix(1,0,0,1,0,0)"></rect><rect width="25.919999999999998" height="25.919999999999998" x="404.54" y="296.53999999999996" opacity="1" fill="#000000" transform="matrix(1,0,0,1,0,0)"></rect><rect width="25.919999999999998" height="25.919999999999998" x="458.54" y="296.53999999999996" opacity="1" fill="#000000" transform="matrix(1,0,0,1,0,0)"></rect><rect width="25.919999999999998" height="25.919999999999998" x="485.54" y="296.53999999999996" opacity="1" fill="#000000" transform="matrix(1,0,0,1,0,0)"></rect><rect width="25.919999999999998" height="25.919999999999998" x="566.54" y="296.53999999999996" opacity="1" fill="#000000" transform="matrix(1,0,0,1,0,0)"></rect><rect width="25.919999999999998" height="25.919999999999998" x="593.54" y="296.53999999999996" opacity="1" fill="#000000" transform="matrix(1,0,0,1,0,0)"></rect><rect width="25.919999999999998" height="25.919999999999998" x="620.54" y="296.53999999999996" opacity="1" fill="#000000" transform="matrix(1,0,0,1,0,0)"></rect><rect width="25.919999999999998" height="25.919999999999998" x="647.54" y="296.53999999999996" opacity="1" fill="#000000" transform="matrix(1,0,0,1,0,0)"></rect><rect width="25.919999999999998" height="25.919999999999998" x="674.54" y="296.53999999999996" opacity="1" fill="#000000" transform="matrix(1,0,0,1,0,0)"></rect><rect width="25.919999999999998" height="25.919999999999998" x="728.54" y="296.53999999999996" opacity="1" fill="#000000" transform="matrix(1,0,0,1,0,0)"></rect><rect width="25.919999999999998" height="25.919999999999998" x="755.54" y="296.53999999999996" opacity="1" fill="#000000" transform="matrix(1,0,0,1,0,0)"></rect><rect width="25.919999999999998" height="25.919999999999998" x="863.54" y="296.53999999999996" opacity="1" fill="#000000" transform="matrix(1,0,0,1,0,0)"></rect><rect width="25.919999999999998" height="25.919999999999998" x="944.54" y="296.53999999999996" opacity="1" fill="#000000" transform="matrix(1,0,0,1,0,0)"></rect><rect width="25.919999999999998" height="25.919999999999998" x="80.54" y="323.53999999999996" opacity="1" fill="#000000" transform="matrix(1,0,0,1,0,0)"></rect><rect width="25.919999999999998" height="25.919999999999998" x="107.53999999999999" y="323.53999999999996" opacity="1" fill="#000000" transform="matrix(1,0,0,1,0,0)"></rect><rect width="25.919999999999998" height="25.919999999999998" x="134.54" y="323.53999999999996" opacity="1" fill="#000000" transform="matrix(1,0,0,1,0,0)"></rect><rect width="25.919999999999998" height="25.919999999999998" x="161.54000000000002" y="323.53999999999996" opacity="1" fill="#000000" transform="matrix(1,0,0,1,0,0)"></rect><rect width="25.919999999999998" height="25.919999999999998" x="188.54000000000002" y="323.53999999999996" opacity="1" fill="#000000" transform="matrix(1,0,0,1,0,0)"></rect><rect width="25.919999999999998" height="25.919999999999998" x="269.53999999999996" y="323.53999999999996" opacity="1" fill="#000000" transform="matrix(1,0,0,1,0,0)"></rect><rect width="25.919999999999998" height="25.919999999999998" x="404.54" y="323.53999999999996" opacity="1" fill="#000000" transform="matrix(1,0,0,1,0,0)"></rect><rect width="25.919999999999998" height="25.919999999999998" x="512.54" y="323.53999999999996" opacity="1" fill="#000000" transform="matrix(1,0,0,1,0,0)"></rect><rect width="25.919999999999998" height="25.919999999999998" x="566.54" y="323.53999999999996" opacity="1" fill="#000000" transform="matrix(1,0,0,1,0,0)"></rect><rect width="25.919999999999998" height="25.919999999999998" x="674.54" y="323.53999999999996" opacity="1" fill="#000000" transform="matrix(1,0,0,1,0,0)"></rect><rect width="25.919999999999998" height="25.919999999999998" x="701.54" y="323.53999999999996" opacity="1" fill="#000000" transform="matrix(1,0,0,1,0,0)"></rect><rect width="25.919999999999998" height="25.919999999999998" x="728.54" y="323.53999999999996" opacity="1" fill="#000000" transform="matrix(1,0,0,1,0,0)"></rect><rect width="25.919999999999998" height="25.919999999999998" x="782.54" y="323.53999999999996" opacity="1" fill="#000000" transform="matrix(1,0,0,1,0,0)"></rect><rect width="25.919999999999998" height="25.919999999999998" x="863.54" y="323.53999999999996" opacity="1" fill="#000000" transform="matrix(1,0,0,1,0,0)"></rect><rect width="25.919999999999998" height="25.919999999999998" x="944.54" y="323.53999999999996" opacity="1" fill="#000000" transform="matrix(1,0,0,1,0,0)"></rect><rect width="25.919999999999998" height="25.919999999999998" x="107.53999999999999" y="350.54" opacity="1" fill="#000000" transform="matrix(1,0,0,1,0,0)"></rect><rect width="25.919999999999998" height="25.919999999999998" x="134.54" y="350.54" opacity="1" fill="#000000" transform="matrix(1,0,0,1,0,0)"></rect><rect width="25.919999999999998" height="25.919999999999998" x="188.54000000000002" y="350.54" opacity="1" fill="#000000" transform="matrix(1,0,0,1,0,0)"></rect><rect width="25.919999999999998" height="25.919999999999998" x="215.54" y="350.54" opacity="1" fill="#000000" transform="matrix(1,0,0,1,0,0)"></rect><rect width="25.919999999999998" height="25.919999999999998" x="269.53999999999996" y="350.54" opacity="1" fill="#000000" transform="matrix(1,0,0,1,0,0)"></rect><rect width="25.919999999999998" height="25.919999999999998" x="323.53999999999996" y="350.54" opacity="1" fill="#000000" transform="matrix(1,0,0,1,0,0)"></rect><rect width="25.919999999999998" height="25.919999999999998" x="350.54" y="350.54" opacity="1" fill="#000000" transform="matrix(1,0,0,1,0,0)"></rect><rect width="25.919999999999998" height="25.919999999999998" x="404.54" y="350.54" opacity="1" fill="#000000" transform="matrix(1,0,0,1,0,0)"></rect><rect width="25.919999999999998" height="25.919999999999998" x="431.54" y="350.54" opacity="1" fill="#000000" transform="matrix(1,0,0,1,0,0)"></rect><rect width="25.919999999999998" height="25.919999999999998" x="485.54" y="350.54" opacity="1" fill="#000000" transform="matrix(1,0,0,1,0,0)"></rect><rect width="25.919999999999998" height="25.919999999999998" x="512.54" y="350.54" opacity="1" fill="#000000" transform="matrix(1,0,0,1,0,0)"></rect><rect width="25.919999999999998" height="25.919999999999998" x="539.54" y="350.54" opacity="1" fill="#000000" transform="matrix(1,0,0,1,0,0)"></rect><rect width="25.919999999999998" height="25.919999999999998" x="566.54" y="350.54" opacity="1" fill="#000000" transform="matrix(1,0,0,1,0,0)"></rect><rect width="25.919999999999998" height="25.919999999999998" x="593.54" y="350.54" opacity="1" fill="#000000" transform="matrix(1,0,0,1,0,0)"></rect><rect width="25.919999999999998" height="25.919999999999998" x="647.54" y="350.54" opacity="1" fill="#000000" transform="matrix(1,0,0,1,0,0)"></rect><rect width="25.919999999999998" height="25.919999999999998" x="728.54" y="350.54" opacity="1" fill="#000000" transform="matrix(1,0,0,1,0,0)"></rect><rect width="25.919999999999998" height="25.919999999999998" x="755.54" y="350.54" opacity="1" fill="#000000" transform="matrix(1,0,0,1,0,0)"></rect><rect width="25.919999999999998" height="25.919999999999998" x="836.54" y="350.54" opacity="1" fill="#000000" transform="matrix(1,0,0,1,0,0)"></rect><rect width="25.919999999999998" height="25.919999999999998" x="917.54" y="350.54" opacity="1" fill="#000000" transform="matrix(1,0,0,1,0,0)"></rect><rect width="25.919999999999998" height="25.919999999999998" x="944.54" y="350.54" opacity="1" fill="#000000" transform="matrix(1,0,0,1,0,0)"></rect><rect width="25.919999999999998" height="25.919999999999998" x="80.54" y="377.54" opacity="1" fill="#000000" transform="matrix(1,0,0,1,0,0)"></rect><rect width="25.919999999999998" height="25.919999999999998" x="107.53999999999999" y="377.54" opacity="1" fill="#000000" transform="matrix(1,0,0,1,0,0)"></rect><rect width="25.919999999999998" height="25.919999999999998" x="161.54000000000002" y="377.54" opacity="1" fill="#000000" transform="matrix(1,0,0,1,0,0)"></rect><rect width="25.919999999999998" height="25.919999999999998" x="188.54000000000002" y="377.54" opacity="1" fill="#000000" transform="matrix(1,0,0,1,0,0)"></rect><rect width="25.919999999999998" height="25.919999999999998" x="215.54" y="377.54" opacity="1" fill="#000000" transform="matrix(1,0,0,1,0,0)"></rect><rect width="25.919999999999998" height="25.919999999999998" x="404.54" y="377.54" opacity="1" fill="#000000" transform="matrix(1,0,0,1,0,0)"></rect><rect width="25.919999999999998" height="25.919999999999998" x="431.54" y="377.54" opacity="1" fill="#000000" transform="matrix(1,0,0,1,0,0)"></rect><rect width="25.919999999999998" height="25.919999999999998" x="458.54" y="377.54" opacity="1" fill="#000000" transform="matrix(1,0,0,1,0,0)"></rect><rect width="25.919999999999998" height="25.919999999999998" x="566.54" y="377.54" opacity="1" fill="#000000" transform="matrix(1,0,0,1,0,0)"></rect><rect width="25.919999999999998" height="25.919999999999998" x="620.54" y="377.54" opacity="1" fill="#000000" transform="matrix(1,0,0,1,0,0)"></rect><rect width="25.919999999999998" height="25.919999999999998" x="701.54" y="377.54" opacity="1" fill="#000000" transform="matrix(1,0,0,1,0,0)"></rect><rect width="25.919999999999998" height="25.919999999999998" x="728.54" y="377.54" opacity="1" fill="#000000" transform="matrix(1,0,0,1,0,0)"></rect><rect width="25.919999999999998" height="25.919999999999998" x="782.54" y="377.54" opacity="1" fill="#000000" transform="matrix(1,0,0,1,0,0)"></rect><rect width="25.919999999999998" height="25.919999999999998" x="107.53999999999999" y="404.54" opacity="1" fill="#000000" transform="matrix(1,0,0,1,0,0)"></rect><rect width="25.919999999999998" height="25.919999999999998" x="134.54" y="404.54" opacity="1" fill="#000000" transform="matrix(1,0,0,1,0,0)"></rect><rect width="25.919999999999998" height="25.919999999999998" x="161.54000000000002" y="404.54" opacity="1" fill="#000000" transform="matrix(1,0,0,1,0,0)"></rect><rect width="25.919999999999998" height="25.919999999999998" x="188.54000000000002" y="404.54" opacity="1" fill="#000000" transform="matrix(1,0,0,1,0,0)"></rect><rect width="25.919999999999998" height="25.919999999999998" x="269.53999999999996" y="404.54" opacity="1" fill="#000000" transform="matrix(1,0,0,1,0,0)"></rect><rect width="25.919999999999998" height="25.919999999999998" x="296.53999999999996" y="404.54" opacity="1" fill="#000000" transform="matrix(1,0,0,1,0,0)"></rect><rect width="25.919999999999998" height="25.919999999999998" x="323.53999999999996" y="404.54" opacity="1" fill="#000000" transform="matrix(1,0,0,1,0,0)"></rect><rect width="25.919999999999998" height="25.919999999999998" x="350.54" y="404.54" opacity="1" fill="#000000" transform="matrix(1,0,0,1,0,0)"></rect><rect width="25.919999999999998" height="25.919999999999998" x="431.54" y="404.54" opacity="1" fill="#000000" transform="matrix(1,0,0,1,0,0)"></rect><rect width="25.919999999999998" height="25.919999999999998" x="458.54" y="404.54" opacity="1" fill="#000000" transform="matrix(1,0,0,1,0,0)"></rect><rect width="25.919999999999998" height="25.919999999999998" x="512.54" y="404.54" opacity="1" fill="#000000" transform="matrix(1,0,0,1,0,0)"></rect><rect width="25.919999999999998" height="25.919999999999998" x="566.54" y="404.54" opacity="1" fill="#000000" transform="matrix(1,0,0,1,0,0)"></rect><rect width="25.919999999999998" height="25.919999999999998" x="755.54" y="404.54" opacity="1" fill="#000000" transform="matrix(1,0,0,1,0,0)"></rect><rect width="25.919999999999998" height="25.919999999999998" x="782.54" y="404.54" opacity="1" fill="#000000" transform="matrix(1,0,0,1,0,0)"></rect><rect width="25.919999999999998" height="25.919999999999998" x="836.54" y="404.54" opacity="1" fill="#000000" transform="matrix(1,0,0,1,0,0)"></rect><rect width="25.919999999999998" height="25.919999999999998" x="944.54" y="404.54" opacity="1" fill="#000000" transform="matrix(1,0,0,1,0,0)"></rect><rect width="25.919999999999998" height="25.919999999999998" x="161.54000000000002" y="431.54" opacity="1" fill="#000000" transform="matrix(1,0,0,1,0,0)"></rect><rect width="25.919999999999998" height="25.919999999999998" x="296.53999999999996" y="431.54" opacity="1" fill="#000000" transform="matrix(1,0,0,1,0,0)"></rect><rect width="25.919999999999998" height="25.919999999999998" x="323.53999999999996" y="431.54" opacity="1" fill="#000000" transform="matrix(1,0,0,1,0,0)"></rect><rect width="25.919999999999998" height="25.919999999999998" x="350.54" y="431.54" opacity="1" fill="#000000" transform="matrix(1,0,0,1,0,0)"></rect><rect width="25.919999999999998" height="25.919999999999998" x="431.54" y="431.54" opacity="1" fill="#000000" transform="matrix(1,0,0,1,0,0)"></rect><rect width="25.919999999999998" height="25.919999999999998" x="458.54" y="431.54" opacity="1" fill="#000000" transform="matrix(1,0,0,1,0,0)"></rect><rect width="25.919999999999998" height="25.919999999999998" x="728.54" y="431.54" opacity="1" fill="#000000" transform="matrix(1,0,0,1,0,0)"></rect><rect width="25.919999999999998" height="25.919999999999998" x="755.54" y="431.54" opacity="1" fill="#000000" transform="matrix(1,0,0,1,0,0)"></rect><rect width="25.919999999999998" height="25.919999999999998" x="782.54" y="431.54" opacity="1" fill="#000000" transform="matrix(1,0,0,1,0,0)"></rect><rect width="25.919999999999998" height="25.919999999999998" x="836.54" y="431.54" opacity="1" fill="#000000" transform="matrix(1,0,0,1,0,0)"></rect><rect width="25.919999999999998" height="25.919999999999998" x="890.54" y="431.54" opacity="1" fill="#000000" transform="matrix(1,0,0,1,0,0)"></rect><rect width="25.919999999999998" height="25.919999999999998" x="917.54" y="431.54" opacity="1" fill="#000000" transform="matrix(1,0,0,1,0,0)"></rect><rect width="25.919999999999998" height="25.919999999999998" x="944.54" y="431.54" opacity="1" fill="#000000" transform="matrix(1,0,0,1,0,0)"></rect><rect width="25.919999999999998" height="25.919999999999998" x="80.54" y="458.54" opacity="1" fill="#000000" transform="matrix(1,0,0,1,0,0)"></rect><rect width="25.919999999999998" height="25.919999999999998" x="107.53999999999999" y="458.54" opacity="1" fill="#000000" transform="matrix(1,0,0,1,0,0)"></rect><rect width="25.919999999999998" height="25.919999999999998" x="296.53999999999996" y="458.54" opacity="1" fill="#000000" transform="matrix(1,0,0,1,0,0)"></rect><rect width="25.919999999999998" height="25.919999999999998" x="350.54" y="458.54" opacity="1" fill="#000000" transform="matrix(1,0,0,1,0,0)"></rect><rect width="25.919999999999998" height="25.919999999999998" x="377.54" y="458.54" opacity="1" fill="#000000" transform="matrix(1,0,0,1,0,0)"></rect><rect width="25.919999999999998" height="25.919999999999998" x="431.54" y="458.54" opacity="1" fill="#000000" transform="matrix(1,0,0,1,0,0)"></rect><rect width="25.919999999999998" height="25.919999999999998" x="485.54" y="458.54" opacity="1" fill="#000000" transform="matrix(1,0,0,1,0,0)"></rect><rect width="25.919999999999998" height="25.919999999999998" x="512.54" y="458.54" opacity="1" fill="#000000" transform="matrix(1,0,0,1,0,0)"></rect><rect width="25.919999999999998" height="25.919999999999998" x="620.54" y="458.54" opacity="1" fill="#000000" transform="matrix(1,0,0,1,0,0)"></rect><rect width="25.919999999999998" height="25.919999999999998" x="647.54" y="458.54" opacity="1" fill="#000000" transform="matrix(1,0,0,1,0,0)"></rect><rect width="25.919999999999998" height="25.919999999999998" x="755.54" y="458.54" opacity="1" fill="#000000" transform="matrix(1,0,0,1,0,0)"></rect><rect width="25.919999999999998" height="25.919999999999998" x="782.54" y="458.54" opacity="1" fill="#000000" transform="matrix(1,0,0,1,0,0)"></rect><rect width="25.919999999999998" height="25.919999999999998" x="917.54" y="458.54" opacity="1" fill="#000000" transform="matrix(1,0,0,1,0,0)"></rect><rect width="25.919999999999998" height="25.919999999999998" x="944.54" y="458.54" opacity="1" fill="#000000" transform="matrix(1,0,0,1,0,0)"></rect><rect width="25.919999999999998" height="25.919999999999998" x="188.54000000000002" y="485.54" opacity="1" fill="#000000" transform="matrix(1,0,0,1,0,0)"></rect><rect width="25.919999999999998" height="25.919999999999998" x="215.54" y="485.54" opacity="1" fill="#000000" transform="matrix(1,0,0,1,0,0)"></rect><rect width="25.919999999999998" height="25.919999999999998" x="269.53999999999996" y="485.54" opacity="1" fill="#000000" transform="matrix(1,0,0,1,0,0)"></rect><rect width="25.919999999999998" height="25.919999999999998" x="296.53999999999996" y="485.54" opacity="1" fill="#000000" transform="matrix(1,0,0,1,0,0)"></rect><rect width="25.919999999999998" height="25.919999999999998" x="323.53999999999996" y="485.54" opacity="1" fill="#000000" transform="matrix(1,0,0,1,0,0)"></rect><rect width="25.919999999999998" height="25.919999999999998" x="350.54" y="485.54" opacity="1" fill="#000000" transform="matrix(1,0,0,1,0,0)"></rect><rect width="25.919999999999998" height="25.919999999999998" x="404.54" y="485.54" opacity="1" fill="#000000" transform="matrix(1,0,0,1,0,0)"></rect><rect width="25.919999999999998" height="25.919999999999998" x="458.54" y="485.54" opacity="1" fill="#000000" transform="matrix(1,0,0,1,0,0)"></rect><rect width="25.919999999999998" height="25.919999999999998" x="512.54" y="485.54" opacity="1" fill="#000000" transform="matrix(1,0,0,1,0,0)"></rect><rect width="25.919999999999998" height="25.919999999999998" x="539.54" y="485.54" opacity="1" fill="#000000" transform="matrix(1,0,0,1,0,0)"></rect><rect width="25.919999999999998" height="25.919999999999998" x="620.54" y="485.54" opacity="1" fill="#000000" transform="matrix(1,0,0,1,0,0)"></rect><rect width="25.919999999999998" height="25.919999999999998" x="647.54" y="485.54" opacity="1" fill="#000000" transform="matrix(1,0,0,1,0,0)"></rect><rect width="25.919999999999998" height="25.919999999999998" x="674.54" y="485.54" opacity="1" fill="#000000" transform="matrix(1,0,0,1,0,0)"></rect><rect width="25.919999999999998" height="25.919999999999998" x="701.54" y="485.54" opacity="1" fill="#000000" transform="matrix(1,0,0,1,0,0)"></rect><rect width="25.919999999999998" height="25.919999999999998" x="728.54" y="485.54" opacity="1" fill="#000000" transform="matrix(1,0,0,1,0,0)"></rect><rect width="25.919999999999998" height="25.919999999999998" x="755.54" y="485.54" opacity="1" fill="#000000" transform="matrix(1,0,0,1,0,0)"></rect><rect width="25.919999999999998" height="25.919999999999998" x="782.54" y="485.54" opacity="1" fill="#000000" transform="matrix(1,0,0,1,0,0)"></rect><rect width="25.919999999999998" height="25.919999999999998" x="836.54" y="485.54" opacity="1" fill="#000000" transform="matrix(1,0,0,1,0,0)"></rect><rect width="25.919999999999998" height="25.919999999999998" x="890.54" y="485.54" opacity="1" fill="#000000" transform="matrix(1,0,0,1,0,0)"></rect><rect width="25.919999999999998" height="25.919999999999998" x="917.54" y="485.54" opacity="1" fill="#000000" transform="matrix(1,0,0,1,0,0)"></rect><rect width="25.919999999999998" height="25.919999999999998" x="944.54" y="485.54" opacity="1" fill="#000000" transform="matrix(1,0,0,1,0,0)"></rect><rect width="25.919999999999998" height="25.919999999999998" x="80.54" y="512.54" opacity="1" fill="#000000" transform="matrix(1,0,0,1,0,0)"></rect><rect width="25.919999999999998" height="25.919999999999998" x="134.54" y="512.54" opacity="1" fill="#000000" transform="matrix(1,0,0,1,0,0)"></rect><rect width="25.919999999999998" height="25.919999999999998" x="188.54000000000002" y="512.54" opacity="1" fill="#000000" transform="matrix(1,0,0,1,0,0)"></rect><rect width="25.919999999999998" height="25.919999999999998" x="215.54" y="512.54" opacity="1" fill="#000000" transform="matrix(1,0,0,1,0,0)"></rect><rect width="25.919999999999998" height="25.919999999999998" x="296.53999999999996" y="512.54" opacity="1" fill="#000000" transform="matrix(1,0,0,1,0,0)"></rect><rect width="25.919999999999998" height="25.919999999999998" x="350.54" y="512.54" opacity="1" fill="#000000" transform="matrix(1,0,0,1,0,0)"></rect><rect width="25.919999999999998" height="25.919999999999998" x="377.54" y="512.54" opacity="1" fill="#000000" transform="matrix(1,0,0,1,0,0)"></rect><rect width="25.919999999999998" height="25.919999999999998" x="404.54" y="512.54" opacity="1" fill="#000000" transform="matrix(1,0,0,1,0,0)"></rect><rect width="25.919999999999998" height="25.919999999999998" x="431.54" y="512.54" opacity="1" fill="#000000" transform="matrix(1,0,0,1,0,0)"></rect><rect width="25.919999999999998" height="25.919999999999998" x="485.54" y="512.54" opacity="1" fill="#000000" transform="matrix(1,0,0,1,0,0)"></rect><rect width="25.919999999999998" height="25.919999999999998" x="539.54" y="512.54" opacity="1" fill="#000000" transform="matrix(1,0,0,1,0,0)"></rect><rect width="25.919999999999998" height="25.919999999999998" x="566.54" y="512.54" opacity="1" fill="#000000" transform="matrix(1,0,0,1,0,0)"></rect><rect width="25.919999999999998" height="25.919999999999998" x="593.54" y="512.54" opacity="1" fill="#000000" transform="matrix(1,0,0,1,0,0)"></rect><rect width="25.919999999999998" height="25.919999999999998" x="620.54" y="512.54" opacity="1" fill="#000000" transform="matrix(1,0,0,1,0,0)"></rect><rect width="25.919999999999998" height="25.919999999999998" x="647.54" y="512.54" opacity="1" fill="#000000" transform="matrix(1,0,0,1,0,0)"></rect><rect width="25.919999999999998" height="25.919999999999998" x="674.54" y="512.54" opacity="1" fill="#000000" transform="matrix(1,0,0,1,0,0)"></rect><rect width="25.919999999999998" height="25.919999999999998" x="755.54" y="512.54" opacity="1" fill="#000000" transform="matrix(1,0,0,1,0,0)"></rect><rect width="25.919999999999998" height="25.919999999999998" x="782.54" y="512.54" opacity="1" fill="#000000" transform="matrix(1,0,0,1,0,0)"></rect><rect width="25.919999999999998" height="25.919999999999998" x="890.54" y="512.54" opacity="1" fill="#000000" transform="matrix(1,0,0,1,0,0)"></rect><rect width="25.919999999999998" height="25.919999999999998" x="80.54" y="539.54" opacity="1" fill="#000000" transform="matrix(1,0,0,1,0,0)"></rect><rect width="25.919999999999998" height="25.919999999999998" x="161.54000000000002" y="539.54" opacity="1" fill="#000000" transform="matrix(1,0,0,1,0,0)"></rect><rect width="25.919999999999998" height="25.919999999999998" x="188.54000000000002" y="539.54" opacity="1" fill="#000000" transform="matrix(1,0,0,1,0,0)"></rect><rect width="25.919999999999998" height="25.919999999999998" x="323.53999999999996" y="539.54" opacity="1" fill="#000000" transform="matrix(1,0,0,1,0,0)"></rect><rect width="25.919999999999998" height="25.919999999999998" x="350.54" y="539.54" opacity="1" fill="#000000" transform="matrix(1,0,0,1,0,0)"></rect><rect width="25.919999999999998" height="25.919999999999998" x="377.54" y="539.54" opacity="1" fill="#000000" transform="matrix(1,0,0,1,0,0)"></rect><rect width="25.919999999999998" height="25.919999999999998" x="512.54" y="539.54" opacity="1" fill="#000000" transform="matrix(1,0,0,1,0,0)"></rect><rect width="25.919999999999998" height="25.919999999999998" x="566.54" y="539.54" opacity="1" fill="#000000" transform="matrix(1,0,0,1,0,0)"></rect><rect width="25.919999999999998" height="25.919999999999998" x="620.54" y="539.54" opacity="1" fill="#000000" transform="matrix(1,0,0,1,0,0)"></rect><rect width="25.919999999999998" height="25.919999999999998" x="755.54" y="539.54" opacity="1" fill="#000000" transform="matrix(1,0,0,1,0,0)"></rect><rect width="25.919999999999998" height="25.919999999999998" x="863.54" y="539.54" opacity="1" fill="#000000" transform="matrix(1,0,0,1,0,0)"></rect><rect width="25.919999999999998" height="25.919999999999998" x="890.54" y="539.54" opacity="1" fill="#000000" transform="matrix(1,0,0,1,0,0)"></rect><rect width="25.919999999999998" height="25.919999999999998" x="917.54" y="539.54" opacity="1" fill="#000000" transform="matrix(1,0,0,1,0,0)"></rect><rect width="25.919999999999998" height="25.919999999999998" x="188.54000000000002" y="566.54" opacity="1" fill="#000000" transform="matrix(1,0,0,1,0,0)"></rect><rect width="25.919999999999998" height="25.919999999999998" x="269.53999999999996" y="566.54" opacity="1" fill="#000000" transform="matrix(1,0,0,1,0,0)"></rect><rect width="25.919999999999998" height="25.919999999999998" x="296.53999999999996" y="566.54" opacity="1" fill="#000000" transform="matrix(1,0,0,1,0,0)"></rect><rect width="25.919999999999998" height="25.919999999999998" x="350.54" y="566.54" opacity="1" fill="#000000" transform="matrix(1,0,0,1,0,0)"></rect><rect width="25.919999999999998" height="25.919999999999998" x="377.54" y="566.54" opacity="1" fill="#000000" transform="matrix(1,0,0,1,0,0)"></rect><rect width="25.919999999999998" height="25.919999999999998" x="485.54" y="566.54" opacity="1" fill="#000000" transform="matrix(1,0,0,1,0,0)"></rect><rect width="25.919999999999998" height="25.919999999999998" x="512.54" y="566.54" opacity="1" fill="#000000" transform="matrix(1,0,0,1,0,0)"></rect><rect width="25.919999999999998" height="25.919999999999998" x="593.54" y="566.54" opacity="1" fill="#000000" transform="matrix(1,0,0,1,0,0)"></rect><rect width="25.919999999999998" height="25.919999999999998" x="620.54" y="566.54" opacity="1" fill="#000000" transform="matrix(1,0,0,1,0,0)"></rect><rect width="25.919999999999998" height="25.919999999999998" x="647.54" y="566.54" opacity="1" fill="#000000" transform="matrix(1,0,0,1,0,0)"></rect><rect width="25.919999999999998" height="25.919999999999998" x="782.54" y="566.54" opacity="1" fill="#000000" transform="matrix(1,0,0,1,0,0)"></rect><rect width="25.919999999999998" height="25.919999999999998" x="809.54" y="566.54" opacity="1" fill="#000000" transform="matrix(1,0,0,1,0,0)"></rect><rect width="25.919999999999998" height="25.919999999999998" x="890.54" y="566.54" opacity="1" fill="#000000" transform="matrix(1,0,0,1,0,0)"></rect><rect width="25.919999999999998" height="25.919999999999998" x="944.54" y="566.54" opacity="1" fill="#000000" transform="matrix(1,0,0,1,0,0)"></rect><rect width="25.919999999999998" height="25.919999999999998" x="107.53999999999999" y="593.54" opacity="1" fill="#000000" transform="matrix(1,0,0,1,0,0)"></rect><rect width="25.919999999999998" height="25.919999999999998" x="134.54" y="593.54" opacity="1" fill="#000000" transform="matrix(1,0,0,1,0,0)"></rect><rect width="25.919999999999998" height="25.919999999999998" x="188.54000000000002" y="593.54" opacity="1" fill="#000000" transform="matrix(1,0,0,1,0,0)"></rect><rect width="25.919999999999998" height="25.919999999999998" x="215.54" y="593.54" opacity="1" fill="#000000" transform="matrix(1,0,0,1,0,0)"></rect><rect width="25.919999999999998" height="25.919999999999998" x="350.54" y="593.54" opacity="1" fill="#000000" transform="matrix(1,0,0,1,0,0)"></rect><rect width="25.919999999999998" height="25.919999999999998" x="377.54" y="593.54" opacity="1" fill="#000000" transform="matrix(1,0,0,1,0,0)"></rect><rect width="25.919999999999998" height="25.919999999999998" x="431.54" y="593.54" opacity="1" fill="#000000" transform="matrix(1,0,0,1,0,0)"></rect><rect width="25.919999999999998" height="25.919999999999998" x="485.54" y="593.54" opacity="1" fill="#000000" transform="matrix(1,0,0,1,0,0)"></rect><rect width="25.919999999999998" height="25.919999999999998" x="512.54" y="593.54" opacity="1" fill="#000000" transform="matrix(1,0,0,1,0,0)"></rect><rect width="25.919999999999998" height="25.919999999999998" x="566.54" y="593.54" opacity="1" fill="#000000" transform="matrix(1,0,0,1,0,0)"></rect><rect width="25.919999999999998" height="25.919999999999998" x="593.54" y="593.54" opacity="1" fill="#000000" transform="matrix(1,0,0,1,0,0)"></rect><rect width="25.919999999999998" height="25.919999999999998" x="620.54" y="593.54" opacity="1" fill="#000000" transform="matrix(1,0,0,1,0,0)"></rect><rect width="25.919999999999998" height="25.919999999999998" x="647.54" y="593.54" opacity="1" fill="#000000" transform="matrix(1,0,0,1,0,0)"></rect><rect width="25.919999999999998" height="25.919999999999998" x="836.54" y="593.54" opacity="1" fill="#000000" transform="matrix(1,0,0,1,0,0)"></rect><rect width="25.919999999999998" height="25.919999999999998" x="80.54" y="620.54" opacity="1" fill="#000000" transform="matrix(1,0,0,1,0,0)"></rect><rect width="25.919999999999998" height="25.919999999999998" x="134.54" y="620.54" opacity="1" fill="#000000" transform="matrix(1,0,0,1,0,0)"></rect><rect width="25.919999999999998" height="25.919999999999998" x="215.54" y="620.54" opacity="1" fill="#000000" transform="matrix(1,0,0,1,0,0)"></rect><rect width="25.919999999999998" height="25.919999999999998" x="296.53999999999996" y="620.54" opacity="1" fill="#000000" transform="matrix(1,0,0,1,0,0)"></rect><rect width="25.919999999999998" height="25.919999999999998" x="377.54" y="620.54" opacity="1" fill="#000000" transform="matrix(1,0,0,1,0,0)"></rect><rect width="25.919999999999998" height="25.919999999999998" x="431.54" y="620.54" opacity="1" fill="#000000" transform="matrix(1,0,0,1,0,0)"></rect><rect width="25.919999999999998" height="25.919999999999998" x="458.54" y="620.54" opacity="1" fill="#000000" transform="matrix(1,0,0,1,0,0)"></rect><rect width="25.919999999999998" height="25.919999999999998" x="485.54" y="620.54" opacity="1" fill="#000000" transform="matrix(1,0,0,1,0,0)"></rect><rect width="25.919999999999998" height="25.919999999999998" x="647.54" y="620.54" opacity="1" fill="#000000" transform="matrix(1,0,0,1,0,0)"></rect><rect width="25.919999999999998" height="25.919999999999998" x="728.54" y="620.54" opacity="1" fill="#000000" transform="matrix(1,0,0,1,0,0)"></rect><rect width="25.919999999999998" height="25.919999999999998" x="782.54" y="620.54" opacity="1" fill="#000000" transform="matrix(1,0,0,1,0,0)"></rect><rect width="25.919999999999998" height="25.919999999999998" x="863.54" y="620.54" opacity="1" fill="#000000" transform="matrix(1,0,0,1,0,0)"></rect><rect width="25.919999999999998" height="25.919999999999998" x="107.53999999999999" y="647.54" opacity="1" fill="#000000" transform="matrix(1,0,0,1,0,0)"></rect><rect width="25.919999999999998" height="25.919999999999998" x="323.53999999999996" y="647.54" opacity="1" fill="#000000" transform="matrix(1,0,0,1,0,0)"></rect><rect width="25.919999999999998" height="25.919999999999998" x="350.54" y="647.54" opacity="1" fill="#000000" transform="matrix(1,0,0,1,0,0)"></rect><rect width="25.919999999999998" height="25.919999999999998" x="377.54" y="647.54" opacity="1" fill="#000000" transform="matrix(1,0,0,1,0,0)"></rect><rect width="25.919999999999998" height="25.919999999999998" x="431.54" y="647.54" opacity="1" fill="#000000" transform="matrix(1,0,0,1,0,0)"></rect><rect width="25.919999999999998" height="25.919999999999998" x="539.54" y="647.54" opacity="1" fill="#000000" transform="matrix(1,0,0,1,0,0)"></rect><rect width="25.919999999999998" height="25.919999999999998" x="593.54" y="647.54" opacity="1" fill="#000000" transform="matrix(1,0,0,1,0,0)"></rect><rect width="25.919999999999998" height="25.919999999999998" x="620.54" y="647.54" opacity="1" fill="#000000" transform="matrix(1,0,0,1,0,0)"></rect><rect width="25.919999999999998" height="25.919999999999998" x="647.54" y="647.54" opacity="1" fill="#000000" transform="matrix(1,0,0,1,0,0)"></rect><rect width="25.919999999999998" height="25.919999999999998" x="674.54" y="647.54" opacity="1" fill="#000000" transform="matrix(1,0,0,1,0,0)"></rect><rect width="25.919999999999998" height="25.919999999999998" x="701.54" y="647.54" opacity="1" fill="#000000" transform="matrix(1,0,0,1,0,0)"></rect><rect width="25.919999999999998" height="25.919999999999998" x="728.54" y="647.54" opacity="1" fill="#000000" transform="matrix(1,0,0,1,0,0)"></rect><rect width="25.919999999999998" height="25.919999999999998" x="863.54" y="647.54" opacity="1" fill="#000000" transform="matrix(1,0,0,1,0,0)"></rect><rect width="25.919999999999998" height="25.919999999999998" x="944.54" y="647.54" opacity="1" fill="#000000" transform="matrix(1,0,0,1,0,0)"></rect><rect width="25.919999999999998" height="25.919999999999998" x="80.54" y="674.54" opacity="1" fill="#000000" transform="matrix(1,0,0,1,0,0)"></rect><rect width="25.919999999999998" height="25.919999999999998" x="350.54" y="674.54" opacity="1" fill="#000000" transform="matrix(1,0,0,1,0,0)"></rect><rect width="25.919999999999998" height="25.919999999999998" x="377.54" y="674.54" opacity="1" fill="#000000" transform="matrix(1,0,0,1,0,0)"></rect><rect width="25.919999999999998" height="25.919999999999998" x="431.54" y="674.54" opacity="1" fill="#000000" transform="matrix(1,0,0,1,0,0)"></rect><rect width="25.919999999999998" height="25.919999999999998" x="512.54" y="674.54" opacity="1" fill="#000000" transform="matrix(1,0,0,1,0,0)"></rect><rect width="25.919999999999998" height="25.919999999999998" x="566.54" y="674.54" opacity="1" fill="#000000" transform="matrix(1,0,0,1,0,0)"></rect><rect width="25.919999999999998" height="25.919999999999998" x="593.54" y="674.54" opacity="1" fill="#000000" transform="matrix(1,0,0,1,0,0)"></rect><rect width="25.919999999999998" height="25.919999999999998" x="620.54" y="674.54" opacity="1" fill="#000000" transform="matrix(1,0,0,1,0,0)"></rect><rect width="25.919999999999998" height="25.919999999999998" x="647.54" y="674.54" opacity="1" fill="#000000" transform="matrix(1,0,0,1,0,0)"></rect><rect width="25.919999999999998" height="25.919999999999998" x="701.54" y="674.54" opacity="1" fill="#000000" transform="matrix(1,0,0,1,0,0)"></rect><rect width="25.919999999999998" height="25.919999999999998" x="728.54" y="674.54" opacity="1" fill="#000000" transform="matrix(1,0,0,1,0,0)"></rect><rect width="25.919999999999998" height="25.919999999999998" x="782.54" y="674.54" opacity="1" fill="#000000" transform="matrix(1,0,0,1,0,0)"></rect><rect width="25.919999999999998" height="25.919999999999998" x="809.54" y="674.54" opacity="1" fill="#000000" transform="matrix(1,0,0,1,0,0)"></rect><rect width="25.919999999999998" height="25.919999999999998" x="917.54" y="674.54" opacity="1" fill="#000000" transform="matrix(1,0,0,1,0,0)"></rect><rect width="25.919999999999998" height="25.919999999999998" x="944.54" y="674.54" opacity="1" fill="#000000" transform="matrix(1,0,0,1,0,0)"></rect><rect width="25.919999999999998" height="25.919999999999998" x="107.53999999999999" y="701.54" opacity="1" fill="#000000" transform="matrix(1,0,0,1,0,0)"></rect><rect width="25.919999999999998" height="25.919999999999998" x="134.54" y="701.54" opacity="1" fill="#000000" transform="matrix(1,0,0,1,0,0)"></rect><rect width="25.919999999999998" height="25.919999999999998" x="188.54000000000002" y="701.54" opacity="1" fill="#000000" transform="matrix(1,0,0,1,0,0)"></rect><rect width="25.919999999999998" height="25.919999999999998" x="215.54" y="701.54" opacity="1" fill="#000000" transform="matrix(1,0,0,1,0,0)"></rect><rect width="25.919999999999998" height="25.919999999999998" x="269.53999999999996" y="701.54" opacity="1" fill="#000000" transform="matrix(1,0,0,1,0,0)"></rect><rect width="25.919999999999998" height="25.919999999999998" x="350.54" y="701.54" opacity="1" fill="#000000" transform="matrix(1,0,0,1,0,0)"></rect><rect width="25.919999999999998" height="25.919999999999998" x="377.54" y="701.54" opacity="1" fill="#000000" transform="matrix(1,0,0,1,0,0)"></rect><rect width="25.919999999999998" height="25.919999999999998" x="431.54" y="701.54" opacity="1" fill="#000000" transform="matrix(1,0,0,1,0,0)"></rect><rect width="25.919999999999998" height="25.919999999999998" x="458.54" y="701.54" opacity="1" fill="#000000" transform="matrix(1,0,0,1,0,0)"></rect><rect width="25.919999999999998" height="25.919999999999998" x="485.54" y="701.54" opacity="1" fill="#000000" transform="matrix(1,0,0,1,0,0)"></rect><rect width="25.919999999999998" height="25.919999999999998" x="512.54" y="701.54" opacity="1" fill="#000000" transform="matrix(1,0,0,1,0,0)"></rect><rect width="25.919999999999998" height="25.919999999999998" x="647.54" y="701.54" opacity="1" fill="#000000" transform="matrix(1,0,0,1,0,0)"></rect><rect width="25.919999999999998" height="25.919999999999998" x="728.54" y="701.54" opacity="1" fill="#000000" transform="matrix(1,0,0,1,0,0)"></rect><rect width="25.919999999999998" height="25.919999999999998" x="755.54" y="701.54" opacity="1" fill="#000000" transform="matrix(1,0,0,1,0,0)"></rect><rect width="25.919999999999998" height="25.919999999999998" x="809.54" y="701.54" opacity="1" fill="#000000" transform="matrix(1,0,0,1,0,0)"></rect><rect width="25.919999999999998" height="25.919999999999998" x="917.54" y="701.54" opacity="1" fill="#000000" transform="matrix(1,0,0,1,0,0)"></rect><rect width="25.919999999999998" height="25.919999999999998" x="80.54" y="728.54" opacity="1" fill="#000000" transform="matrix(1,0,0,1,0,0)"></rect><rect width="25.919999999999998" height="25.919999999999998" x="161.54000000000002" y="728.54" opacity="1" fill="#000000" transform="matrix(1,0,0,1,0,0)"></rect><rect width="25.919999999999998" height="25.919999999999998" x="215.54" y="728.54" opacity="1" fill="#000000" transform="matrix(1,0,0,1,0,0)"></rect><rect width="25.919999999999998" height="25.919999999999998" x="377.54" y="728.54" opacity="1" fill="#000000" transform="matrix(1,0,0,1,0,0)"></rect><rect width="25.919999999999998" height="25.919999999999998" x="404.54" y="728.54" opacity="1" fill="#000000" transform="matrix(1,0,0,1,0,0)"></rect><rect width="25.919999999999998" height="25.919999999999998" x="458.54" y="728.54" opacity="1" fill="#000000" transform="matrix(1,0,0,1,0,0)"></rect><rect width="25.919999999999998" height="25.919999999999998" x="620.54" y="728.54" opacity="1" fill="#000000" transform="matrix(1,0,0,1,0,0)"></rect><rect width="25.919999999999998" height="25.919999999999998" x="701.54" y="728.54" opacity="1" fill="#000000" transform="matrix(1,0,0,1,0,0)"></rect><rect width="25.919999999999998" height="25.919999999999998" x="944.54" y="728.54" opacity="1" fill="#000000" transform="matrix(1,0,0,1,0,0)"></rect><rect width="25.919999999999998" height="25.919999999999998" x="296.53999999999996" y="755.54" opacity="1" fill="#000000" transform="matrix(1,0,0,1,0,0)"></rect><rect width="25.919999999999998" height="25.919999999999998" x="377.54" y="755.54" opacity="1" fill="#000000" transform="matrix(1,0,0,1,0,0)"></rect><rect width="25.919999999999998" height="25.919999999999998" x="431.54" y="755.54" opacity="1" fill="#000000" transform="matrix(1,0,0,1,0,0)"></rect><rect width="25.919999999999998" height="25.919999999999998" x="485.54" y="755.54" opacity="1" fill="#000000" transform="matrix(1,0,0,1,0,0)"></rect><rect width="25.919999999999998" height="25.919999999999998" x="512.54" y="755.54" opacity="1" fill="#000000" transform="matrix(1,0,0,1,0,0)"></rect><rect width="25.919999999999998" height="25.919999999999998" x="566.54" y="755.54" opacity="1" fill="#000000" transform="matrix(1,0,0,1,0,0)"></rect><rect width="25.919999999999998" height="25.919999999999998" x="593.54" y="755.54" opacity="1" fill="#000000" transform="matrix(1,0,0,1,0,0)"></rect><rect width="25.919999999999998" height="25.919999999999998" x="647.54" y="755.54" opacity="1" fill="#000000" transform="matrix(1,0,0,1,0,0)"></rect><rect width="25.919999999999998" height="25.919999999999998" x="674.54" y="755.54" opacity="1" fill="#000000" transform="matrix(1,0,0,1,0,0)"></rect><rect width="25.919999999999998" height="25.919999999999998" x="890.54" y="755.54" opacity="1" fill="#000000" transform="matrix(1,0,0,1,0,0)"></rect><rect width="25.919999999999998" height="25.919999999999998" x="944.54" y="755.54" opacity="1" fill="#000000" transform="matrix(1,0,0,1,0,0)"></rect><rect width="25.919999999999998" height="25.919999999999998" x="323.53999999999996" y="782.54" opacity="1" fill="#000000" transform="matrix(1,0,0,1,0,0)"></rect><rect width="25.919999999999998" height="25.919999999999998" x="458.54" y="782.54" opacity="1" fill="#000000" transform="matrix(1,0,0,1,0,0)"></rect><rect width="25.919999999999998" height="25.919999999999998" x="485.54" y="782.54" opacity="1" fill="#000000" transform="matrix(1,0,0,1,0,0)"></rect><rect width="25.919999999999998" height="25.919999999999998" x="539.54" y="782.54" opacity="1" fill="#000000" transform="matrix(1,0,0,1,0,0)"></rect><rect width="25.919999999999998" height="25.919999999999998" x="593.54" y="782.54" opacity="1" fill="#000000" transform="matrix(1,0,0,1,0,0)"></rect><rect width="25.919999999999998" height="25.919999999999998" x="674.54" y="782.54" opacity="1" fill="#000000" transform="matrix(1,0,0,1,0,0)"></rect><rect width="25.919999999999998" height="25.919999999999998" x="863.54" y="782.54" opacity="1" fill="#000000" transform="matrix(1,0,0,1,0,0)"></rect><rect width="25.919999999999998" height="25.919999999999998" x="917.54" y="782.54" opacity="1" fill="#000000" transform="matrix(1,0,0,1,0,0)"></rect><rect width="25.919999999999998" height="25.919999999999998" x="944.54" y="782.54" opacity="1" fill="#000000" transform="matrix(1,0,0,1,0,0)"></rect><rect width="25.919999999999998" height="25.919999999999998" x="296.53999999999996" y="809.54" opacity="1" fill="#000000" transform="matrix(1,0,0,1,0,0)"></rect><rect width="25.919999999999998" height="25.919999999999998" x="323.53999999999996" y="809.54" opacity="1" fill="#000000" transform="matrix(1,0,0,1,0,0)"></rect><rect width="25.919999999999998" height="25.919999999999998" x="350.54" y="809.54" opacity="1" fill="#000000" transform="matrix(1,0,0,1,0,0)"></rect><rect width="25.919999999999998" height="25.919999999999998" x="377.54" y="809.54" opacity="1" fill="#000000" transform="matrix(1,0,0,1,0,0)"></rect><rect width="25.919999999999998" height="25.919999999999998" x="404.54" y="809.54" opacity="1" fill="#000000" transform="matrix(1,0,0,1,0,0)"></rect><rect width="25.919999999999998" height="25.919999999999998" x="431.54" y="809.54" opacity="1" fill="#000000" transform="matrix(1,0,0,1,0,0)"></rect><rect width="25.919999999999998" height="25.919999999999998" x="485.54" y="809.54" opacity="1" fill="#000000" transform="matrix(1,0,0,1,0,0)"></rect><rect width="25.919999999999998" height="25.919999999999998" x="512.54" y="809.54" opacity="1" fill="#000000" transform="matrix(1,0,0,1,0,0)"></rect><rect width="25.919999999999998" height="25.919999999999998" x="539.54" y="809.54" opacity="1" fill="#000000" transform="matrix(1,0,0,1,0,0)"></rect><rect width="25.919999999999998" height="25.919999999999998" x="566.54" y="809.54" opacity="1" fill="#000000" transform="matrix(1,0,0,1,0,0)"></rect><rect width="25.919999999999998" height="25.919999999999998" x="593.54" y="809.54" opacity="1" fill="#000000" transform="matrix(1,0,0,1,0,0)"></rect><rect width="25.919999999999998" height="25.919999999999998" x="647.54" y="809.54" opacity="1" fill="#000000" transform="matrix(1,0,0,1,0,0)"></rect><rect width="25.919999999999998" height="25.919999999999998" x="674.54" y="809.54" opacity="1" fill="#000000" transform="matrix(1,0,0,1,0,0)"></rect><rect width="25.919999999999998" height="25.919999999999998" x="863.54" y="809.54" opacity="1" fill="#000000" transform="matrix(1,0,0,1,0,0)"></rect><rect width="25.919999999999998" height="25.919999999999998" x="944.54" y="809.54" opacity="1" fill="#000000" transform="matrix(1,0,0,1,0,0)"></rect><rect width="25.919999999999998" height="25.919999999999998" x="296.53999999999996" y="836.54" opacity="1" fill="#000000" transform="matrix(1,0,0,1,0,0)"></rect><rect width="25.919999999999998" height="25.919999999999998" x="350.54" y="836.54" opacity="1" fill="#000000" transform="matrix(1,0,0,1,0,0)"></rect><rect width="25.919999999999998" height="25.919999999999998" x="458.54" y="836.54" opacity="1" fill="#000000" transform="matrix(1,0,0,1,0,0)"></rect><rect width="25.919999999999998" height="25.919999999999998" x="539.54" y="836.54" opacity="1" fill="#000000" transform="matrix(1,0,0,1,0,0)"></rect><rect width="25.919999999999998" height="25.919999999999998" x="566.54" y="836.54" opacity="1" fill="#000000" transform="matrix(1,0,0,1,0,0)"></rect><rect width="25.919999999999998" height="25.919999999999998" x="674.54" y="836.54" opacity="1" fill="#000000" transform="matrix(1,0,0,1,0,0)"></rect><rect width="25.919999999999998" height="25.919999999999998" x="917.54" y="836.54" opacity="1" fill="#000000" transform="matrix(1,0,0,1,0,0)"></rect><rect width="25.919999999999998" height="25.919999999999998" x="323.53999999999996" y="863.54" opacity="1" fill="#000000" transform="matrix(1,0,0,1,0,0)"></rect><rect width="25.919999999999998" height="25.919999999999998" x="377.54" y="863.54" opacity="1" fill="#000000" transform="matrix(1,0,0,1,0,0)"></rect><rect width="25.919999999999998" height="25.919999999999998" x="431.54" y="863.54" opacity="1" fill="#000000" transform="matrix(1,0,0,1,0,0)"></rect><rect width="25.919999999999998" height="25.919999999999998" x="566.54" y="863.54" opacity="1" fill="#000000" transform="matrix(1,0,0,1,0,0)"></rect><rect width="25.919999999999998" height="25.919999999999998" x="674.54" y="863.54" opacity="1" fill="#000000" transform="matrix(1,0,0,1,0,0)"></rect><rect width="25.919999999999998" height="25.919999999999998" x="728.54" y="863.54" opacity="1" fill="#000000" transform="matrix(1,0,0,1,0,0)"></rect><rect width="25.919999999999998" height="25.919999999999998" x="836.54" y="863.54" opacity="1" fill="#000000" transform="matrix(1,0,0,1,0,0)"></rect><rect width="25.919999999999998" height="25.919999999999998" x="863.54" y="863.54" opacity="1" fill="#000000" transform="matrix(1,0,0,1,0,0)"></rect><rect width="25.919999999999998" height="25.919999999999998" x="296.53999999999996" y="890.54" opacity="1" fill="#000000" transform="matrix(1,0,0,1,0,0)"></rect><rect width="25.919999999999998" height="25.919999999999998" x="323.53999999999996" y="890.54" opacity="1" fill="#000000" transform="matrix(1,0,0,1,0,0)"></rect><rect width="25.919999999999998" height="25.919999999999998" x="350.54" y="890.54" opacity="1" fill="#000000" transform="matrix(1,0,0,1,0,0)"></rect><rect width="25.919999999999998" height="25.919999999999998" x="377.54" y="890.54" opacity="1" fill="#000000" transform="matrix(1,0,0,1,0,0)"></rect><rect width="25.919999999999998" height="25.919999999999998" x="458.54" y="890.54" opacity="1" fill="#000000" transform="matrix(1,0,0,1,0,0)"></rect><rect width="25.919999999999998" height="25.919999999999998" x="512.54" y="890.54" opacity="1" fill="#000000" transform="matrix(1,0,0,1,0,0)"></rect><rect width="25.919999999999998" height="25.919999999999998" x="566.54" y="890.54" opacity="1" fill="#000000" transform="matrix(1,0,0,1,0,0)"></rect><rect width="25.919999999999998" height="25.919999999999998" x="593.54" y="890.54" opacity="1" fill="#000000" transform="matrix(1,0,0,1,0,0)"></rect><rect width="25.919999999999998" height="25.919999999999998" x="620.54" y="890.54" opacity="1" fill="#000000" transform="matrix(1,0,0,1,0,0)"></rect><rect width="25.919999999999998" height="25.919999999999998" x="647.54" y="890.54" opacity="1" fill="#000000" transform="matrix(1,0,0,1,0,0)"></rect><rect width="25.919999999999998" height="25.919999999999998" x="701.54" y="890.54" opacity="1" fill="#000000" transform="matrix(1,0,0,1,0,0)"></rect><rect width="25.919999999999998" height="25.919999999999998" x="728.54" y="890.54" opacity="1" fill="#000000" transform="matrix(1,0,0,1,0,0)"></rect><rect width="25.919999999999998" height="25.919999999999998" x="755.54" y="890.54" opacity="1" fill="#000000" transform="matrix(1,0,0,1,0,0)"></rect><rect width="25.919999999999998" height="25.919999999999998" x="809.54" y="890.54" opacity="1" fill="#000000" transform="matrix(1,0,0,1,0,0)"></rect><rect width="25.919999999999998" height="25.919999999999998" x="836.54" y="890.54" opacity="1" fill="#000000" transform="matrix(1,0,0,1,0,0)"></rect><rect width="25.919999999999998" height="25.919999999999998" x="863.54" y="890.54" opacity="1" fill="#000000" transform="matrix(1,0,0,1,0,0)"></rect><rect width="25.919999999999998" height="25.919999999999998" x="890.54" y="890.54" opacity="1" fill="#000000" transform="matrix(1,0,0,1,0,0)"></rect><rect width="25.919999999999998" height="25.919999999999998" x="944.54" y="890.54" opacity="1" fill="#000000" transform="matrix(1,0,0,1,0,0)"></rect><rect width="25.919999999999998" height="25.919999999999998" x="323.53999999999996" y="917.54" opacity="1" fill="#000000" transform="matrix(1,0,0,1,0,0)"></rect><rect width="25.919999999999998" height="25.919999999999998" x="350.54" y="917.54" opacity="1" fill="#000000" transform="matrix(1,0,0,1,0,0)"></rect><rect width="25.919999999999998" height="25.919999999999998" x="404.54" y="917.54" opacity="1" fill="#000000" transform="matrix(1,0,0,1,0,0)"></rect><rect width="25.919999999999998" height="25.919999999999998" x="458.54" y="917.54" opacity="1" fill="#000000" transform="matrix(1,0,0,1,0,0)"></rect><rect width="25.919999999999998" height="25.919999999999998" x="566.54" y="917.54" opacity="1" fill="#000000" transform="matrix(1,0,0,1,0,0)"></rect><rect width="25.919999999999998" height="25.919999999999998" x="593.54" y="917.54" opacity="1" fill="#000000" transform="matrix(1,0,0,1,0,0)"></rect><rect width="25.919999999999998" height="25.919999999999998" x="620.54" y="917.54" opacity="1" fill="#000000" transform="matrix(1,0,0,1,0,0)"></rect><rect width="25.919999999999998" height="25.919999999999998" x="701.54" y="917.54" opacity="1" fill="#000000" transform="matrix(1,0,0,1,0,0)"></rect><rect width="25.919999999999998" height="25.919999999999998" x="728.54" y="917.54" opacity="1" fill="#000000" transform="matrix(1,0,0,1,0,0)"></rect><rect width="25.919999999999998" height="25.919999999999998" x="809.54" y="917.54" opacity="1" fill="#000000" transform="matrix(1,0,0,1,0,0)"></rect><rect width="25.919999999999998" height="25.919999999999998" x="863.54" y="917.54" opacity="1" fill="#000000" transform="matrix(1,0,0,1,0,0)"></rect><rect width="25.919999999999998" height="25.919999999999998" x="917.54" y="917.54" opacity="1" fill="#000000" transform="matrix(1,0,0,1,0,0)"></rect><rect width="25.919999999999998" height="25.919999999999998" x="377.54" y="944.54" opacity="1" fill="#000000" transform="matrix(1,0,0,1,0,0)"></rect><rect width="25.919999999999998" height="25.919999999999998" x="404.54" y="944.54" opacity="1" fill="#000000" transform="matrix(1,0,0,1,0,0)"></rect><rect width="25.919999999999998" height="25.919999999999998" x="431.54" y="944.54" opacity="1" fill="#000000" transform="matrix(1,0,0,1,0,0)"></rect><rect width="25.919999999999998" height="25.919999999999998" x="458.54" y="944.54" opacity="1" fill="#000000" transform="matrix(1,0,0,1,0,0)"></rect><rect width="25.919999999999998" height="25.919999999999998" x="512.54" y="944.54" opacity="1" fill="#000000" transform="matrix(1,0,0,1,0,0)"></rect><rect width="25.919999999999998" height="25.919999999999998" x="593.54" y="944.54" opacity="1" fill="#000000" transform="matrix(1,0,0,1,0,0)"></rect><rect width="25.919999999999998" height="25.919999999999998" x="620.54" y="944.54" opacity="1" fill="#000000" transform="matrix(1,0,0,1,0,0)"></rect><rect width="25.919999999999998" height="25.919999999999998" x="701.54" y="944.54" opacity="1" fill="#000000" transform="matrix(1,0,0,1,0,0)"></rect><rect width="25.919999999999998" height="25.919999999999998" x="728.54" y="944.54" opacity="1" fill="#000000" transform="matrix(1,0,0,1,0,0)"></rect><rect width="25.919999999999998" height="25.919999999999998" x="782.54" y="944.54" opacity="1" fill="#000000" transform="matrix(1,0,0,1,0,0)"></rect><rect width="25.919999999999998" height="25.919999999999998" x="809.54" y="944.54" opacity="1" fill="#000000" transform="matrix(1,0,0,1,0,0)"></rect><rect width="25.919999999999998" height="25.919999999999998" x="836.54" y="944.54" opacity="1" fill="#000000" transform="matrix(1,0,0,1,0,0)"></rect><rect width="25.919999999999998" height="25.919999999999998" x="863.54" y="944.54" opacity="1" fill="#000000" transform="matrix(1,0,0,1,0,0)"></rect><rect width="25.919999999999998" height="25.919999999999998" x="890.54" y="944.54" opacity="1" fill="#000000" transform="matrix(1,0,0,1,0,0)"></rect><rect width="25.919999999999998" height="25.919999999999998" x="917.54" y="944.54" opacity="1" fill="#000000" transform="matrix(1,0,0,1,0,0)"></rect><rect width="25.919999999999998" height="25.919999999999998" x="944.54" y="944.54" opacity="1" fill="#000000" transform="matrix(1,0,0,1,0,0)"></rect><svg xmlns="http://www.w3.org/2000/svg" version="1.1" xmlns:xlink="http://www.w3.org/1999/xlink" xmlns:svgjs="http://svgjs.com/svgjs" width="189" height="189" viewBox="0 0 189 189" x="80" y="80"><path d="   M0 0 L189 0 L189 189 L0 189 L0 0 Z
                                M27 27 L27 162 L162 162 L162 27 L27 27 Z" fill="#000000" stroke-width="10"></path></svg><svg xmlns="http://www.w3.org/2000/svg" version="1.1" xmlns:xlink="http://www.w3.org/1999/xlink" xmlns:svgjs="http://svgjs.com/svgjs" width="189" height="189" viewBox="0 0 189 189" x="782" y="80"><path d="   M0 0 L189 0 L189 189 L0 189 L0 0 Z
                                M27 27 L27 162 L162 162 L162 27 L27 27 Z" fill="#000000" stroke-width="10"></path></svg><svg xmlns="http://www.w3.org/2000/svg" version="1.1" xmlns:xlink="http://www.w3.org/1999/xlink" xmlns:svgjs="http://svgjs.com/svgjs" width="189" height="189" viewBox="0 0 189 189" x="80" y="782"><path d="   M0 0 L189 0 L189 189 L0 189 L0 0 Z
                                M27 27 L27 162 L162 162 L162 27 L27 27 Z" fill="#000000" stroke-width="10"></path></svg><svg xmlns="http://www.w3.org/2000/svg" version="1.1" xmlns:xlink="http://www.w3.org/1999/xlink" xmlns:svgjs="http://svgjs.com/svgjs" width="81" height="81" x="134" y="134"><rect width="81" height="81" fill="#000000"></rect></svg><svg xmlns="http://www.w3.org/2000/svg" version="1.1" xmlns:xlink="http://www.w3.org/1999/xlink" xmlns:svgjs="http://svgjs.com/svgjs" width="81" height="81" x="836" y="134"><rect width="81" height="81" fill="#000000"></rect></svg><svg xmlns="http://www.w3.org/2000/svg" version="1.1" xmlns:xlink="http://www.w3.org/1999/xlink" xmlns:svgjs="http://svgjs.com/svgjs" width="81" height="81" x="134" y="836"><rect width="81" height="81" fill="#000000"></rect></svg><rect width="25.919999999999998" height="25.919999999999998" x="296.53999999999996" y="242.54" opacity="1" fill="#000000" transform="matrix(1,0,0,1,0,0)"></rect><rect width="25.919999999999998" height="25.919999999999998" x="242.54" y="296.53999999999996" opacity="1" fill="#000000" transform="matrix(1,0,0,1,0,0)"></rect><rect width="25.919999999999998" height="25.919999999999998" x="350.54" y="242.54" opacity="1" fill="#000000" transform="matrix(1,0,0,1,0,0)"></rect><rect width="25.919999999999998" height="25.919999999999998" x="242.54" y="350.54" opacity="1" fill="#000000" transform="matrix(1,0,0,1,0,0)"></rect><rect width="25.919999999999998" height="25.919999999999998" x="404.54" y="242.54" opacity="1" fill="#000000" transform="matrix(1,0,0,1,0,0)"></rect><rect width="25.919999999999998" height="25.919999999999998" x="242.54" y="404.54" opacity="1" fill="#000000" transform="matrix(1,0,0,1,0,0)"></rect><rect width="25.919999999999998" height="25.919999999999998" x="458.54" y="242.54" opacity="1" fill="#000000" transform="matrix(1,0,0,1,0,0)"></rect><rect width="25.919999999999998" height="25.919999999999998" x="242.54" y="458.54" opacity="1" fill="#000000" transform="matrix(1,0,0,1,0,0)"></rect><rect width="25.919999999999998" height="25.919999999999998" x="512.54" y="242.54" opacity="1" fill="#000000" transform="matrix(1,0,0,1,0,0)"></rect><rect width="25.919999999999998" height="25.919999999999998" x="242.54" y="512.54" opacity="1" fill="#000000" transform="matrix(1,0,0,1,0,0)"></rect><rect width="25.919999999999998" height="25.919999999999998" x="566.54" y="242.54" opacity="1" fill="#000000" transform="matrix(1,0,0,1,0,0)"></rect><rect width="25.919999999999998" height="25.919999999999998" x="242.54" y="566.54" opacity="1" fill="#000000" transform="matrix(1,0,0,1,0,0)"></rect><rect width="25.919999999999998" height="25.919999999999998" x="620.54" y="242.54" opacity="1" fill="#000000" transform="matrix(1,0,0,1,0,0)"></rect><rect width="25.919999999999998" height="25.919999999999998" x="242.54" y="620.54" opacity="1" fill="#000000" transform="matrix(1,0,0,1,0,0)"></rect><rect width="25.919999999999998" height="25.919999999999998" x="674.54" y="242.54" opacity="1" fill="#000000" transform="matrix(1,0,0,1,0,0)"></rect><rect width="25.919999999999998" height="25.919999999999998" x="242.54" y="674.54" opacity="1" fill="#000000" transform="matrix(1,0,0,1,0,0)"></rect><rect width="25.919999999999998" height="25.919999999999998" x="728.54" y="242.54" opacity="1" fill="#000000" transform="matrix(1,0,0,1,0,0)"></rect><rect width="25.919999999999998" height="25.919999999999998" x="242.54" y="728.54" opacity="1" fill="#000000" transform="matrix(1,0,0,1,0,0)"></rect><rect width="25.919999999999998" height="25.919999999999998" x="728.54" y="728.54" opacity="1" fill="#000000" transform="matrix(1,0,0,1,0,0)"></rect><rect width="25.919999999999998" height="25.919999999999998" x="728.54" y="755.54" opacity="1" fill="#000000" transform="matrix(1,0,0,1,0,0)"></rect><rect width="25.919999999999998" height="25.919999999999998" x="728.54" y="782.54" opacity="1" fill="#000000" transform="matrix(1,0,0,1,0,0)"></rect><rect width="25.919999999999998" height="25.919999999999998" x="728.54" y="809.54" opacity="1" fill="#000000" transform="matrix(1,0,0,1,0,0)"></rect><rect width="25.919999999999998" height="25.919999999999998" x="836.54" y="755.54" opacity="1" fill="#000000" transform="matrix(1,0,0,1,0,0)"></rect><rect width="25.919999999999998" height="25.919999999999998" x="836.54" y="782.54" opacity="1" fill="#000000" transform="matrix(1,0,0,1,0,0)"></rect><rect width="25.919999999999998" height="25.919999999999998" x="836.54" y="809.54" opacity="1" fill="#000000" transform="matrix(1,0,0,1,0,0)"></rect><rect width="25.919999999999998" height="25.919999999999998" x="836.54" y="836.54" opacity="1" fill="#000000" transform="matrix(1,0,0,1,0,0)"></rect><rect width="25.919999999999998" height="25.919999999999998" x="755.54" y="728.54" opacity="1" fill="#000000" transform="matrix(1,0,0,1,0,0)"></rect><rect width="25.919999999999998" height="25.919999999999998" x="782.54" y="728.54" opacity="1" fill="#000000" transform="matrix(1,0,0,1,0,0)"></rect><rect width="25.919999999999998" height="25.919999999999998" x="809.54" y="728.54" opacity="1" fill="#000000" transform="matrix(1,0,0,1,0,0)"></rect><rect width="25.919999999999998" height="25.919999999999998" x="836.54" y="728.54" opacity="1" fill="#000000" transform="matrix(1,0,0,1,0,0)"></rect><rect width="25.919999999999998" height="25.919999999999998" x="728.54" y="836.54" opacity="1" fill="#000000" transform="matrix(1,0,0,1,0,0)"></rect><rect width="25.919999999999998" height="25.919999999999998" x="755.54" y="836.54" opacity="1" fill="#000000" transform="matrix(1,0,0,1,0,0)"></rect><rect width="25.919999999999998" height="25.919999999999998" x="782.54" y="836.54" opacity="1" fill="#000000" transform="matrix(1,0,0,1,0,0)"></rect><rect width="25.919999999999998" height="25.919999999999998" x="809.54" y="836.54" opacity="1" fill="#000000" transform="matrix(1,0,0,1,0,0)"></rect><rect width="25.919999999999998" height="25.919999999999998" x="782.54" y="782.54" opacity="1" fill="#000000" transform="matrix(1,0,0,1,0,0)"></rect></svg>