<svg xmlns="http://www.w3.org/2000/svg" width="330" height="239.186" viewBox="0 0 330 239.186">
  <g id="Group_69" data-name="Group 69" transform="translate(-791 -52.314)">
    <circle id="Ellipse_24" data-name="Ellipse 24" cx="3.5" cy="3.5" r="3.5" transform="translate(822.734 107.188)" fill="#adadad"/>
    <g id="Group_68" data-name="Group 68" transform="translate(791 31.268)">
      <g id="Group_59" data-name="Group 59">
        <g id="Group_108" data-name="Group 108">
          <line id="Line_46" data-name="Line 46" x2="330" transform="translate(0 204.583)" fill="none" stroke="#fff" stroke-width="1"/>
        </g>
      </g>
      <line id="Line_47" data-name="Line 47" x2="283.067" transform="translate(2.433 62.587)" fill="none" stroke="#fff" stroke-width="1"/>
      <g id="Group_61" data-name="Group 61">
        <g id="Group_107" data-name="Group 107">
          <line id="Line_48" data-name="Line 48" x2="132.331" transform="translate(197.5 133.585)" fill="none" stroke="#fff" stroke-width="1"/>
        </g>
      </g>
      <line id="Line_49" data-name="Line 49" y2="193" transform="translate(271.992 48.232)" fill="none" stroke="#fff" stroke-width="1"/>
      <g id="Group_63" data-name="Group 63">
        <g id="Group_106" data-name="Group 106">
          <path id="Path_189" data-name="Path 189" d="M0,21.047V225.361" transform="translate(206.654)" fill="none" stroke="#fff" stroke-width="1"/>
          <line id="Line_51" data-name="Line 51" y2="75.042" transform="translate(133.316 185.19)" fill="none" stroke="#fff" stroke-width="1"/>
        </g>
      </g>
      <line id="Line_52" data-name="Line 52" y2="30.148" transform="translate(133.316 43.232)" fill="none" stroke="#fff" stroke-width="1"/>
      <line id="Line_53" data-name="Line 53" y2="186.486" transform="translate(59.979 47.746)" fill="none" stroke="#fff" stroke-width="1"/>
      <g id="Group_65" data-name="Group 65">
        <g id="Group_109" data-name="Group 109">
          <line id="Line_54" data-name="Line 54" x2="68.6" transform="translate(0.5 133.585)" fill="none" stroke="#fff" stroke-width="1"/>
          <path id="Path_134" data-name="Path 134" d="M114.71,110.54a.063.063,0,0,0,.04.01.26.26,0,0,0,.12-.02c-.06,0-.11.01-.16.01" fill="#fff" fill-rule="evenodd"/>
          <path id="Path_135" data-name="Path 135" d="M114.71,110.54a.063.063,0,0,0,.04.01.26.26,0,0,0,.12-.02c-.06,0-.11.01-.16.01m0,0a.063.063,0,0,0,.04.01.26.26,0,0,0,.12-.02c-.06,0-.11.01-.16.01m0,0a.063.063,0,0,0,.04.01.26.26,0,0,0,.12-.02c-.06,0-.11.01-.16.01m0,0a.063.063,0,0,0,.04.01.26.26,0,0,0,.12-.02c-.06,0-.11.01-.16.01m0,0a.063.063,0,0,0,.04.01.26.26,0,0,0,.12-.02c-.06,0-.11.01-.16.01m0,0a.063.063,0,0,0,.04.01.26.26,0,0,0,.12-.02c-.06,0-.11.01-.16.01m0,0a.063.063,0,0,0,.04.01.26.26,0,0,0,.12-.02c-.06,0-.11.01-.16.01m0,0a.063.063,0,0,0,.04.01.26.26,0,0,0,.12-.02c-.06,0-.11.01-.16.01m0,0a.063.063,0,0,0,.04.01.26.26,0,0,0,.12-.02c-.06,0-.11.01-.16.01m0,0a.063.063,0,0,0,.04.01.26.26,0,0,0,.12-.02c-.06,0-.11.01-.16.01m0,0a.063.063,0,0,0,.04.01.26.26,0,0,0,.12-.02c-.06,0-.11.01-.16.01m0,0a.063.063,0,0,0,.04.01.26.26,0,0,0,.12-.02c-.06,0-.11.01-.16.01m0,0a.063.063,0,0,0,.04.01.26.26,0,0,0,.12-.02c-.06,0-.11.01-.16.01"/>
          <path id="Path_136" data-name="Path 136" d="M100.77,86.24a.513.513,0,0,0-.1.29.515.515,0,0,1,.01-.13.369.369,0,0,1,.09-.16" fill="#fff" fill-rule="evenodd"/>
          <path id="Path_137" data-name="Path 137" d="M134.24,86.53a.437.437,0,0,0-.03-.16c.01.01.02.02.02.03a.515.515,0,0,1,.01.13" fill="#fff" fill-rule="evenodd"/>
          <path id="Path_138" data-name="Path 138" d="M134.23,86.4c0-.01-.01-.02-.02-.03a.437.437,0,0,1,.03.16.515.515,0,0,0-.01-.13m-33.55,0a.515.515,0,0,0-.01.13.513.513,0,0,1,.1-.29.369.369,0,0,0-.09.16"/>
          <path id="Path_139" data-name="Path 139" d="M114.87,110.53a.26.26,0,0,1-.12.02.063.063,0,0,1-.04-.01c.05,0,.1-.01.16-.01" fill="#fff" fill-rule="evenodd"/>
          <path id="Path_140" data-name="Path 140" d="M100.77,86.24a.513.513,0,0,0-.1.29.515.515,0,0,1,.01-.13.369.369,0,0,1,.09-.16" fill="#fff" fill-rule="evenodd"/>
          <path id="Path_141" data-name="Path 141" d="M134.24,86.53a.437.437,0,0,0-.03-.16c.01.01.02.02.02.03a.515.515,0,0,1,.01.13" fill="#fff" fill-rule="evenodd"/>
        </g>
      </g>
      <g id="Group_67" data-name="Group 67">
        <g id="Group_105" data-name="Group 105">
          <path id="Path_142" data-name="Path 142" d="M137.978,138.091a4.106,4.106,0,0,0-2.59-1.82,4.062,4.062,0,0,0-.92-.11,4.136,4.136,0,0,0-.9,8.17l.23.06v9.7a.68.68,0,0,0,1.36,0v-9.7l.23-.06a4.128,4.128,0,0,0,2.59-6.24m-1.52,4.21a2.8,2.8,0,0,1-3.92,0,2.779,2.779,0,0,1,3.91-3.95l.01.01a2.838,2.838,0,0,1,0,3.94m1.52-4.21a4.106,4.106,0,0,0-2.59-1.82,4.062,4.062,0,0,0-.92-.11,4.136,4.136,0,0,0-.9,8.17l.23.06v9.7a.68.68,0,0,0,1.36,0v-9.7l.23-.06a4.128,4.128,0,0,0,2.59-6.24m-1.52,4.21a2.8,2.8,0,0,1-3.92,0,2.779,2.779,0,0,1,3.91-3.95l.01.01a2.838,2.838,0,0,1,0,3.94m1.52-4.21a4.106,4.106,0,0,0-2.59-1.82,4.062,4.062,0,0,0-.92-.11,4.136,4.136,0,0,0-.9,8.17l.23.06v9.7a.68.68,0,0,0,1.36,0v-9.7l.23-.06a4.128,4.128,0,0,0,2.59-6.24m-1.52,4.21a2.8,2.8,0,0,1-3.92,0,2.779,2.779,0,0,1,3.91-3.95l.01.01a2.838,2.838,0,0,1,0,3.94m1.52-4.21a4.106,4.106,0,0,0-2.59-1.82,4.062,4.062,0,0,0-.92-.11,4.136,4.136,0,0,0-.9,8.17l.23.06v9.7a.68.68,0,0,0,1.36,0v-9.7l.23-.06a4.128,4.128,0,0,0,2.59-6.24m-1.52,4.21a2.8,2.8,0,0,1-3.92,0,2.779,2.779,0,0,1,3.91-3.95l.01.01a2.838,2.838,0,0,1,0,3.94m1.52-4.21a4.106,4.106,0,0,0-2.59-1.82,4.062,4.062,0,0,0-.92-.11,4.136,4.136,0,0,0-.9,8.17l.23.06v9.7a.68.68,0,0,0,1.36,0v-9.7l.23-.06a4.128,4.128,0,0,0,2.59-6.24m-1.52,4.21a2.8,2.8,0,0,1-3.92,0,2.779,2.779,0,0,1,3.91-3.95l.01.01a2.838,2.838,0,0,1,0,3.94m1.52-4.21a4.106,4.106,0,0,0-2.59-1.82,4.062,4.062,0,0,0-.92-.11,4.136,4.136,0,0,0-.9,8.17l.23.06v9.7a.68.68,0,0,0,1.36,0v-9.7l.23-.06a4.128,4.128,0,0,0,2.59-6.24m-1.52,4.21a2.8,2.8,0,0,1-3.92,0,2.779,2.779,0,0,1,3.91-3.95l.01.01a2.838,2.838,0,0,1,0,3.94m1.52-4.21a4.106,4.106,0,0,0-2.59-1.82,4.062,4.062,0,0,0-.92-.11,4.136,4.136,0,0,0-.9,8.17l.23.06v9.7a.68.68,0,0,0,1.36,0v-9.7l.23-.06a4.128,4.128,0,0,0,2.59-6.24m-1.52,4.21a2.8,2.8,0,0,1-3.92,0,2.779,2.779,0,0,1,3.91-3.95l.01.01a2.838,2.838,0,0,1,0,3.94m1.52-4.21a4.106,4.106,0,0,0-2.59-1.82,4.062,4.062,0,0,0-.92-.11,4.136,4.136,0,0,0-.9,8.17l.23.06v9.7a.68.68,0,0,0,1.36,0v-9.7l.23-.06a4.128,4.128,0,0,0,2.59-6.24m-1.52,4.21a2.8,2.8,0,0,1-3.92,0,2.779,2.779,0,0,1,3.91-3.95l.01.01a2.838,2.838,0,0,1,0,3.94m1.52-4.21a4.106,4.106,0,0,0-2.59-1.82,4.062,4.062,0,0,0-.92-.11,4.136,4.136,0,0,0-.9,8.17l.23.06v9.7a.68.68,0,0,0,1.36,0v-9.7l.23-.06a4.128,4.128,0,0,0,2.59-6.24m-1.52,4.21a2.8,2.8,0,0,1-3.92,0,2.779,2.779,0,0,1,3.91-3.95l.01.01a2.838,2.838,0,0,1,0,3.94m1.52-4.21a4.106,4.106,0,0,0-2.59-1.82,4.062,4.062,0,0,0-.92-.11,4.136,4.136,0,0,0-.9,8.17l.23.06v9.7a.68.68,0,0,0,1.36,0v-9.7l.23-.06a4.128,4.128,0,0,0,2.59-6.24m-1.52,4.21a2.8,2.8,0,0,1-3.92,0,2.779,2.779,0,0,1,3.91-3.95l.01.01a2.838,2.838,0,0,1,0,3.94m1.52-4.21a4.106,4.106,0,0,0-2.59-1.82,4.062,4.062,0,0,0-.92-.11,4.136,4.136,0,0,0-.9,8.17l.23.06v9.7a.68.68,0,0,0,1.36,0v-9.7l.23-.06a4.128,4.128,0,0,0,2.59-6.24m-1.52,4.21a2.8,2.8,0,0,1-3.92,0,2.779,2.779,0,0,1,3.91-3.95l.01.01a2.838,2.838,0,0,1,0,3.94m1.52-4.21a4.106,4.106,0,0,0-2.59-1.82,4.062,4.062,0,0,0-.92-.11,4.136,4.136,0,0,0-.9,8.17l.23.06v9.7a.68.68,0,0,0,1.36,0v-9.7l.23-.06a4.128,4.128,0,0,0,2.59-6.24m-1.52,4.21a2.8,2.8,0,0,1-3.92,0,2.779,2.779,0,0,1,3.91-3.95l.01.01a2.838,2.838,0,0,1,0,3.94m1.52-4.21a4.106,4.106,0,0,0-2.59-1.82,4.062,4.062,0,0,0-.92-.11,4.136,4.136,0,0,0-.9,8.17l.23.06v9.7a.68.68,0,0,0,1.36,0v-9.7l.23-.06a4.128,4.128,0,0,0,2.59-6.24m-1.52,4.21a2.8,2.8,0,0,1-3.92,0,2.779,2.779,0,0,1,3.91-3.95l.01.01a2.838,2.838,0,0,1,0,3.94m1.52-4.21a4.106,4.106,0,0,0-2.59-1.82,4.062,4.062,0,0,0-.92-.11,4.136,4.136,0,0,0-.9,8.17l.23.06v9.7a.68.68,0,0,0,1.36,0v-9.7l.23-.06a4.128,4.128,0,0,0,2.59-6.24m-1.52,4.21a2.8,2.8,0,0,1-3.92,0,2.779,2.779,0,0,1,3.91-3.95l.01.01a2.838,2.838,0,0,1,0,3.94m1.52-4.21a4.106,4.106,0,0,0-2.59-1.82,4.062,4.062,0,0,0-.92-.11,4.136,4.136,0,0,0-.9,8.17l.23.06v9.7a.68.68,0,0,0,1.36,0v-9.7l.23-.06a4.128,4.128,0,0,0,2.59-6.24m-1.52,4.21a2.8,2.8,0,0,1-3.92,0,2.779,2.779,0,0,1,3.91-3.95l.01.01a2.838,2.838,0,0,1,0,3.94m1.52-4.21a4.106,4.106,0,0,0-2.59-1.82,4.062,4.062,0,0,0-.92-.11,4.136,4.136,0,0,0-.9,8.17l.23.06v9.7a.68.68,0,0,0,1.36,0v-9.7l.23-.06a4.128,4.128,0,0,0,2.59-6.24m-1.52,4.21a2.8,2.8,0,0,1-3.92,0,2.779,2.779,0,0,1,3.91-3.95l.01.01a2.838,2.838,0,0,1,0,3.94m1.52-4.21a4.106,4.106,0,0,0-2.59-1.82,4.062,4.062,0,0,0-.92-.11,4.136,4.136,0,0,0-.9,8.17l.23.06v9.7a.68.68,0,0,0,1.36,0v-9.7l.23-.06a4.128,4.128,0,0,0,2.59-6.24m-1.52,4.21a2.8,2.8,0,0,1-3.92,0,2.779,2.779,0,0,1,3.91-3.95l.01.01a2.838,2.838,0,0,1,0,3.94m1.52-4.21a4.106,4.106,0,0,0-2.59-1.82,4.062,4.062,0,0,0-.92-.11,4.136,4.136,0,0,0-.9,8.17l.23.06v9.7a.68.68,0,0,0,1.36,0v-9.7l.23-.06a4.128,4.128,0,0,0,2.59-6.24m-1.52,4.21a2.8,2.8,0,0,1-3.92,0,2.779,2.779,0,0,1,3.91-3.95l.01.01a2.838,2.838,0,0,1,0,3.94m1.52-4.21a4.106,4.106,0,0,0-2.59-1.82,4.062,4.062,0,0,0-.92-.11,4.136,4.136,0,0,0-.9,8.17l.23.06v9.7a.68.68,0,0,0,1.36,0v-9.7l.23-.06a4.128,4.128,0,0,0,2.59-6.24m-1.52,4.21a2.8,2.8,0,0,1-3.92,0,2.779,2.779,0,0,1,3.91-3.95l.01.01a2.838,2.838,0,0,1,0,3.94m1.52-4.21a4.106,4.106,0,0,0-2.59-1.82,4.062,4.062,0,0,0-.92-.11,4.136,4.136,0,0,0-.9,8.17l.23.06v9.7a.68.68,0,0,0,1.36,0v-9.7l.23-.06a4.128,4.128,0,0,0,2.59-6.24m-1.52,4.21a2.8,2.8,0,0,1-3.92,0,2.779,2.779,0,0,1,3.91-3.95l.01.01a2.838,2.838,0,0,1,0,3.94m1.52-4.21a4.106,4.106,0,0,0-2.59-1.82,4.062,4.062,0,0,0-.92-.11,4.136,4.136,0,0,0-.9,8.17l.23.06v9.7a.68.68,0,0,0,1.36,0v-9.7l.23-.06a4.128,4.128,0,0,0,2.59-6.24m-1.52,4.21a2.8,2.8,0,0,1-3.92,0,2.779,2.779,0,0,1,3.91-3.95l.01.01a2.838,2.838,0,0,1,0,3.94m1.52-4.21a4.106,4.106,0,0,0-2.59-1.82,4.062,4.062,0,0,0-.92-.11,4.136,4.136,0,0,0-.9,8.17l.23.06v9.7a.68.68,0,0,0,1.36,0v-9.7l.23-.06a4.128,4.128,0,0,0,2.59-6.24m-1.52,4.21a2.8,2.8,0,0,1-3.92,0,2.779,2.779,0,0,1,3.91-3.95l.01.01a2.838,2.838,0,0,1,0,3.94m1.52-4.21a4.106,4.106,0,0,0-2.59-1.82,4.062,4.062,0,0,0-.92-.11,4.136,4.136,0,0,0-.9,8.17l.23.06v9.7a.68.68,0,0,0,1.36,0v-9.7l.23-.06a4.128,4.128,0,0,0,2.59-6.24m-1.52,4.21a2.8,2.8,0,0,1-3.92,0,2.779,2.779,0,0,1,3.91-3.95l.01.01a2.838,2.838,0,0,1,0,3.94m-1.98-18.3h-.06a16.406,16.406,0,0,0-11.59,4.83,17.242,17.242,0,0,0-1.44,1.64,16.539,16.539,0,0,0,3.07,23.16,5,5,0,0,1,2.15,3.47,4.911,4.911,0,0,0,.43,1.38l.24.44h-.5a2.322,2.322,0,0,0-2.32,2.32v2.64a2.332,2.332,0,0,0,.67,1.64,2.743,2.743,0,0,0,2.31.68l.31-.01h.3v3.02a.6.6,0,0,0,.1.35,7.4,7.4,0,0,0,9.99,2.65,7.18,7.18,0,0,0,2.65-2.57.708.708,0,0,0,.16-.41V166.2h1.27a2.328,2.328,0,0,0,2.32-2.32v-2.64a2.322,2.322,0,0,0-2.32-2.32h-.51l.25-.45a4.619,4.619,0,0,0,.45-1.39,4.978,4.978,0,0,1,2.13-3.45A16.519,16.519,0,0,0,134.478,124m5.09,45.05-.05.07a6.077,6.077,0,0,1-8.02,1.94,6.367,6.367,0,0,1-2.06-1.94l-.05-.07V166.2h10.18Zm2.65-8.77a.959.959,0,0,1,.69.28.988.988,0,0,1,.28.68v2.64a1.01,1.01,0,0,1-.29.69.937.937,0,0,1-.67.27h-15.49a.96.96,0,0,1-.96-.96v-2.64a.959.959,0,0,1,.28-.69,1,1,0,0,1,.68-.27h15.48Zm1.52-7.72a6.5,6.5,0,0,0-2.71,4.53,2.14,2.14,0,0,1-2.11,1.83h-8.86a2.14,2.14,0,0,1-2.11-1.82,6.529,6.529,0,0,0-2.69-4.53,14.3,14.3,0,0,1-1.49-1.3,15.17,15.17,0,0,1,10.71-25.91h.01a15.07,15.07,0,0,1,10.56,4.28h.01l.15.16a13.849,13.849,0,0,1,1.29,1.47,15.2,15.2,0,0,1-2.76,21.29m-8.35-16.29a4.062,4.062,0,0,0-.92-.11,4.136,4.136,0,0,0-.9,8.17l.23.06v9.7a.68.68,0,0,0,1.36,0v-9.7l.23-.06a4.128,4.128,0,0,0,2.59-6.24,4.106,4.106,0,0,0-2.59-1.82m1.07,6.03a2.8,2.8,0,0,1-3.92,0,2.779,2.779,0,0,1,3.91-3.95l.01.01a2.838,2.838,0,0,1,0,3.94m1.52-4.21a4.106,4.106,0,0,0-2.59-1.82,4.062,4.062,0,0,0-.92-.11,4.136,4.136,0,0,0-.9,8.17l.23.06v9.7a.68.68,0,0,0,1.36,0v-9.7l.23-.06a4.128,4.128,0,0,0,2.59-6.24m-1.52,4.21a2.8,2.8,0,0,1-3.92,0,2.779,2.779,0,0,1,3.91-3.95l.01.01a2.838,2.838,0,0,1,0,3.94m1.52-4.21a4.106,4.106,0,0,0-2.59-1.82,4.062,4.062,0,0,0-.92-.11,4.136,4.136,0,0,0-.9,8.17l.23.06v9.7a.68.68,0,0,0,1.36,0v-9.7l.23-.06a4.128,4.128,0,0,0,2.59-6.24m-1.52,4.21a2.8,2.8,0,0,1-3.92,0,2.779,2.779,0,0,1,3.91-3.95l.01.01a2.838,2.838,0,0,1,0,3.94m1.52-4.21a4.106,4.106,0,0,0-2.59-1.82,4.062,4.062,0,0,0-.92-.11,4.136,4.136,0,0,0-.9,8.17l.23.06v9.7a.68.68,0,0,0,1.36,0v-9.7l.23-.06a4.128,4.128,0,0,0,2.59-6.24m-1.52,4.21a2.8,2.8,0,0,1-3.92,0,2.779,2.779,0,0,1,3.91-3.95l.01.01a2.838,2.838,0,0,1,0,3.94m1.52-4.21a4.106,4.106,0,0,0-2.59-1.82,4.062,4.062,0,0,0-.92-.11,4.136,4.136,0,0,0-.9,8.17l.23.06v9.7a.68.68,0,0,0,1.36,0v-9.7l.23-.06a4.128,4.128,0,0,0,2.59-6.24m-1.52,4.21a2.8,2.8,0,0,1-3.92,0,2.779,2.779,0,0,1,3.91-3.95l.01.01a2.838,2.838,0,0,1,0,3.94m1.52-4.21a4.106,4.106,0,0,0-2.59-1.82,4.062,4.062,0,0,0-.92-.11,4.136,4.136,0,0,0-.9,8.17l.23.06v9.7a.68.68,0,0,0,1.36,0v-9.7l.23-.06a4.128,4.128,0,0,0,2.59-6.24m-1.52,4.21a2.8,2.8,0,0,1-3.92,0,2.779,2.779,0,0,1,3.91-3.95l.01.01a2.838,2.838,0,0,1,0,3.94m1.52-4.21a4.106,4.106,0,0,0-2.59-1.82,4.062,4.062,0,0,0-.92-.11,4.136,4.136,0,0,0-.9,8.17l.23.06v9.7a.68.68,0,0,0,1.36,0v-9.7l.23-.06a4.128,4.128,0,0,0,2.59-6.24m-1.52,4.21a2.8,2.8,0,0,1-3.92,0,2.779,2.779,0,0,1,3.91-3.95l.01.01a2.838,2.838,0,0,1,0,3.94m1.52-4.21a4.106,4.106,0,0,0-2.59-1.82,4.062,4.062,0,0,0-.92-.11,4.136,4.136,0,0,0-.9,8.17l.23.06v9.7a.68.68,0,0,0,1.36,0v-9.7l.23-.06a4.128,4.128,0,0,0,2.59-6.24m-1.52,4.21a2.8,2.8,0,0,1-3.92,0,2.779,2.779,0,0,1,3.91-3.95l.01.01a2.838,2.838,0,0,1,0,3.94m1.52-4.21a4.106,4.106,0,0,0-2.59-1.82,4.062,4.062,0,0,0-.92-.11,4.136,4.136,0,0,0-.9,8.17l.23.06v9.7a.68.68,0,0,0,1.36,0v-9.7l.23-.06a4.128,4.128,0,0,0,2.59-6.24m-1.52,4.21a2.8,2.8,0,0,1-3.92,0,2.779,2.779,0,0,1,3.91-3.95l.01.01a2.838,2.838,0,0,1,0,3.94m1.52-4.21a4.106,4.106,0,0,0-2.59-1.82,4.062,4.062,0,0,0-.92-.11,4.136,4.136,0,0,0-.9,8.17l.23.06v9.7a.68.68,0,0,0,1.36,0v-9.7l.23-.06a4.128,4.128,0,0,0,2.59-6.24m-1.52,4.21a2.8,2.8,0,0,1-3.92,0,2.779,2.779,0,0,1,3.91-3.95l.01.01a2.838,2.838,0,0,1,0,3.94m1.52-4.21a4.106,4.106,0,0,0-2.59-1.82,4.062,4.062,0,0,0-.92-.11,4.136,4.136,0,0,0-.9,8.17l.23.06v9.7a.68.68,0,0,0,1.36,0v-9.7l.23-.06a4.128,4.128,0,0,0,2.59-6.24m-1.52,4.21a2.8,2.8,0,0,1-3.92,0,2.779,2.779,0,0,1,3.91-3.95l.01.01a2.838,2.838,0,0,1,0,3.94m1.52-4.21a4.106,4.106,0,0,0-2.59-1.82,4.062,4.062,0,0,0-.92-.11,4.136,4.136,0,0,0-.9,8.17l.23.06v9.7a.68.68,0,0,0,1.36,0v-9.7l.23-.06a4.128,4.128,0,0,0,2.59-6.24m-1.52,4.21a2.8,2.8,0,0,1-3.92,0,2.779,2.779,0,0,1,3.91-3.95l.01.01a2.838,2.838,0,0,1,0,3.94m1.52-4.21a4.106,4.106,0,0,0-2.59-1.82,4.062,4.062,0,0,0-.92-.11,4.136,4.136,0,0,0-.9,8.17l.23.06v9.7a.68.68,0,0,0,1.36,0v-9.7l.23-.06a4.128,4.128,0,0,0,2.59-6.24m-1.52,4.21a2.8,2.8,0,0,1-3.92,0,2.779,2.779,0,0,1,3.91-3.95l.01.01a2.838,2.838,0,0,1,0,3.94m1.52-4.21a4.106,4.106,0,0,0-2.59-1.82,4.062,4.062,0,0,0-.92-.11,4.136,4.136,0,0,0-.9,8.17l.23.06v9.7a.68.68,0,0,0,1.36,0v-9.7l.23-.06a4.128,4.128,0,0,0,2.59-6.24m-1.52,4.21a2.8,2.8,0,0,1-3.92,0,2.779,2.779,0,0,1,3.91-3.95l.01.01a2.838,2.838,0,0,1,0,3.94m1.52-4.21a4.106,4.106,0,0,0-2.59-1.82,4.062,4.062,0,0,0-.92-.11,4.136,4.136,0,0,0-.9,8.17l.23.06v9.7a.68.68,0,0,0,1.36,0v-9.7l.23-.06a4.128,4.128,0,0,0,2.59-6.24m-1.52,4.21a2.8,2.8,0,0,1-3.92,0,2.779,2.779,0,0,1,3.91-3.95l.01.01a2.838,2.838,0,0,1,0,3.94m1.52-4.21a4.106,4.106,0,0,0-2.59-1.82,4.062,4.062,0,0,0-.92-.11,4.136,4.136,0,0,0-.9,8.17l.23.06v9.7a.68.68,0,0,0,1.36,0v-9.7l.23-.06a4.128,4.128,0,0,0,2.59-6.24m-1.52,4.21a2.8,2.8,0,0,1-3.92,0,2.779,2.779,0,0,1,3.91-3.95l.01.01a2.838,2.838,0,0,1,0,3.94m1.52-4.21a4.106,4.106,0,0,0-2.59-1.82,4.062,4.062,0,0,0-.92-.11,4.136,4.136,0,0,0-.9,8.17l.23.06v9.7a.68.68,0,0,0,1.36,0v-9.7l.23-.06a4.128,4.128,0,0,0,2.59-6.24m-1.52,4.21a2.8,2.8,0,0,1-3.92,0,2.779,2.779,0,0,1,3.91-3.95l.01.01a2.838,2.838,0,0,1,0,3.94m1.52-4.21a4.106,4.106,0,0,0-2.59-1.82,4.062,4.062,0,0,0-.92-.11,4.136,4.136,0,0,0-.9,8.17l.23.06v9.7a.68.68,0,0,0,1.36,0v-9.7l.23-.06a4.128,4.128,0,0,0,2.59-6.24m-1.52,4.21a2.8,2.8,0,0,1-3.92,0,2.779,2.779,0,0,1,3.91-3.95l.01.01a2.838,2.838,0,0,1,0,3.94m1.52-4.21a4.106,4.106,0,0,0-2.59-1.82,4.062,4.062,0,0,0-.92-.11,4.136,4.136,0,0,0-.9,8.17l.23.06v9.7a.68.68,0,0,0,1.36,0v-9.7l.23-.06a4.128,4.128,0,0,0,2.59-6.24m-1.52,4.21a2.8,2.8,0,0,1-3.92,0,2.779,2.779,0,0,1,3.91-3.95l.01.01a2.838,2.838,0,0,1,0,3.94m1.52-4.21a4.106,4.106,0,0,0-2.59-1.82,4.062,4.062,0,0,0-.92-.11,4.136,4.136,0,0,0-.9,8.17l.23.06v9.7a.68.68,0,0,0,1.36,0v-9.7l.23-.06a4.128,4.128,0,0,0,2.59-6.24m-1.52,4.21a2.8,2.8,0,0,1-3.92,0,2.779,2.779,0,0,1,3.91-3.95l.01.01a2.838,2.838,0,0,1,0,3.94m1.52-4.21a4.106,4.106,0,0,0-2.59-1.82,4.062,4.062,0,0,0-.92-.11,4.136,4.136,0,0,0-.9,8.17l.23.06v9.7a.68.68,0,0,0,1.36,0v-9.7l.23-.06a4.128,4.128,0,0,0,2.59-6.24m-1.52,4.21a2.8,2.8,0,0,1-3.92,0,2.779,2.779,0,0,1,3.91-3.95l.01.01a2.838,2.838,0,0,1,0,3.94m1.52-4.21a4.106,4.106,0,0,0-2.59-1.82,4.062,4.062,0,0,0-.92-.11,4.136,4.136,0,0,0-.9,8.17l.23.06v9.7a.68.68,0,0,0,1.36,0v-9.7l.23-.06a4.128,4.128,0,0,0,2.59-6.24m-1.52,4.21a2.8,2.8,0,0,1-3.92,0,2.779,2.779,0,0,1,3.91-3.95l.01.01a2.838,2.838,0,0,1,0,3.94m1.52-4.21a4.106,4.106,0,0,0-2.59-1.82,4.062,4.062,0,0,0-.92-.11,4.136,4.136,0,0,0-.9,8.17l.23.06v9.7a.68.68,0,0,0,1.36,0v-9.7l.23-.06a4.128,4.128,0,0,0,2.59-6.24m-1.52,4.21a2.8,2.8,0,0,1-3.92,0,2.779,2.779,0,0,1,3.91-3.95l.01.01a2.838,2.838,0,0,1,0,3.94m-1.04-52.03a7.694,7.694,0,0,0-.95-.06,7.078,7.078,0,0,0-7,6.14,7.076,7.076,0,0,0,6.07,7.95l.26.04v13.43a.68.68,0,0,0,1.36,0v-13.43l.26-.04a7.077,7.077,0,0,0,0-14.03m3.11,11.06a5.746,5.746,0,1,1,1.66-4.04,5.691,5.691,0,0,1-1.66,4.04m14.89,7.11a.615.615,0,0,0-.31-.41.671.671,0,0,0-.92.24l-7.03,12.2a.671.671,0,0,0,.24.92.68.68,0,0,0,.92-.24l7.04-12.2a.653.653,0,0,0,.06-.51m17.67,31.19h-14.07a.675.675,0,1,0,0,1.35h14.07a.675.675,0,0,0,0-1.35m-47.3-19.18-7.04-12.2a.671.671,0,0,0-.58-.33.692.692,0,0,0-.34.09.682.682,0,0,0-.31.41.657.657,0,0,0,.07.51l7.04,12.2a.675.675,0,0,0,1.23-.17.7.7,0,0,0-.07-.51m-11.84,19.18H97.858a.675.675,0,1,0,0,1.35h14.09a.675.675,0,1,0,0-1.35m66.62-23.36a7.073,7.073,0,0,0-13.07,5.41l.1.25-11.62,6.72a.675.675,0,0,0,.17,1.23.7.7,0,0,0,.51-.07l11.64-6.72.16.21a7.053,7.053,0,0,0,12.11-1.61,6.981,6.981,0,0,0,0-5.42m-2.46,6.76a5.758,5.758,0,1,1,1.66-4.04,5.727,5.727,0,0,1-1.66,4.04m2.8,38.52a6.991,6.991,0,0,0-12.45-3.47l-.16.2-11.64-6.71a.692.692,0,0,0-.34-.09.468.468,0,0,0-.17.02.682.682,0,0,0-.41.31.671.671,0,0,0,.24.92l11.64,6.7-.1.24a7.019,7.019,0,0,0,2.13,8.23,7,7,0,0,0,11.26-6.35m-2.8,4.86a5.746,5.746,0,1,1,1.66-4.04,5.685,5.685,0,0,1-1.66,4.04m-60.9-14.62a.712.712,0,0,0-.41-.31.645.645,0,0,0-.51.07l-11.62,6.72-.16-.21a7.127,7.127,0,0,0-5.63-2.76,7.1,7.1,0,1,0,6.56,4.37l-.1-.24,11.62-6.72a.661.661,0,0,0,.32-.41.7.7,0,0,0-.07-.51m-14.27,14.63a5.734,5.734,0,1,1,1.67-4.05,5.71,5.71,0,0,1-1.67,4.05m14.34-37.37a.689.689,0,0,0-.32-.41l-11.62-6.71.1-.25a6.954,6.954,0,0,0-1.55-7.68,6.645,6.645,0,0,0-.7-.61,7.066,7.066,0,1,0,1.32,9.91l.16-.21,11.62,6.72a.678.678,0,0,0,.99-.76m-14.34-6.02a5.715,5.715,0,1,1,0-8.09v.01a5.716,5.716,0,0,1,0,8.08m37.04,15.06a4.106,4.106,0,0,0-2.59-1.82,4.062,4.062,0,0,0-.92-.11,4.136,4.136,0,0,0-.9,8.17l.23.06v9.7a.68.68,0,0,0,1.36,0v-9.7l.23-.06a4.128,4.128,0,0,0,2.59-6.24m-1.52,4.21a2.8,2.8,0,0,1-3.92,0,2.779,2.779,0,0,1,3.91-3.95l.01.01a2.838,2.838,0,0,1,0,3.94" transform="translate(-1 -3)" fill="#fff"/>
          <path id="Path_143" data-name="Path 143" d="M272.234,197.92a6.5,6.5,0,1,1-6.5,6.5,6.5,6.5,0,0,1,6.5-6.5" fill="#adadad"/>
        </g>
      </g>
    </g>
  </g>
</svg>
