<svg xmlns="http://www.w3.org/2000/svg" xmlns:xlink="http://www.w3.org/1999/xlink" width="989" height="865" viewBox="0 0 989 865">
  <defs>
    <clipPath id="clip-path">
      <rect id="Rectangle_4773" data-name="Rectangle 4773" width="989" height="865" transform="translate(308 93)" fill="none" stroke="#707070" stroke-width="1"/>
    </clipPath>
    <filter id="Ellipse_79" x="752" y="203" width="52" height="52" filterUnits="userSpaceOnUse">
      <feOffset dy="3" input="SourceAlpha"/>
      <feGaussianBlur stdDeviation="3" result="blur"/>
      <feFlood flood-opacity="0.161"/>
      <feComposite operator="in" in2="blur"/>
      <feComposite in="SourceGraphic"/>
    </filter>
    <filter id="Ellipse_80" x="676" y="567" width="52" height="52" filterUnits="userSpaceOnUse">
      <feOffset dy="3" input="SourceAlpha"/>
      <feGaussianBlur stdDeviation="3" result="blur-2"/>
      <feFlood flood-opacity="0.161"/>
      <feComposite operator="in" in2="blur-2"/>
      <feComposite in="SourceGraphic"/>
    </filter>
    <filter id="Ellipse_81" x="250" y="702" width="52" height="52" filterUnits="userSpaceOnUse">
      <feOffset dy="3" input="SourceAlpha"/>
      <feGaussianBlur stdDeviation="3" result="blur-3"/>
      <feFlood flood-opacity="0.161"/>
      <feComposite operator="in" in2="blur-3"/>
      <feComposite in="SourceGraphic"/>
    </filter>
  </defs>
  <g id="Mask_Group_1" data-name="Mask Group 1" transform="translate(-308 -93)" clip-path="url(#clip-path)">
    <g id="Group_10099" data-name="Group 10099">
      <g id="Group_1" data-name="Group 1" transform="translate(-371 -2563)">
        <text id="Business_Supported" data-name="Business Supported" transform="translate(1348 2709)" font-size="20" font-family="Montserrat-Regular, Montserrat"><tspan x="0" y="19">Business Supported</tspan></text>
        <rect id="Rectangle_4768" data-name="Rectangle 4768" width="64" height="9" transform="translate(1348 2661)" fill="#c02e2b"/>
        <text id="_140_" data-name="140+" transform="translate(1348 2730)" font-size="105" font-family="SegoeUI-Bold, Segoe UI" font-weight="700"><tspan x="0" y="113">140+</tspan></text>
        <text id="Progress_2022" data-name="Progress 2022" transform="translate(684 3381)" font-size="20" font-family="Montserrat-Regular, Montserrat"><tspan x="0" y="19">Progress 2022</tspan></text>
        <rect id="Rectangle_4769" data-name="Rectangle 4769" width="64" height="9" transform="translate(684 3333)" fill="#c12e2a"/>
        <text id="_140_2" data-name="140+" transform="translate(684 3402)" font-size="105" font-family="SegoeUI-Bold, Segoe UI" font-weight="700"><tspan x="0" y="113">140+</tspan></text>
        <g id="Group_10098" data-name="Group 10098" transform="translate(1110.407 3044.239)">
          <path id="Path_19675" data-name="Path 19675" d="M344.525-161.957A497.58,497.58,0,0,1,306.442,28.78,498.726,498.726,0,0,1,198.119,190.5,500.394,500.394,0,0,1,35.829,298.716a501.525,501.525,0,0,1-191.067,38.045" fill="rgba(0,0,0,0)" stroke="#000" stroke-miterlimit="10" stroke-width="131.41"/>
        </g>
        <text id="Business_Supported-2" data-name="Business Supported" transform="translate(1420 3291)" font-size="20" font-family="Montserrat-Regular, Montserrat"><tspan x="0" y="19">Business Supported</tspan></text>
        <rect id="Rectangle_4772" data-name="Rectangle 4772" width="64" height="9" transform="translate(1420 3243)" fill="#c02e2b"/>
        <text id="_140_3" data-name="140+" transform="translate(1420 3312)" font-size="105" font-family="SegoeUI-Bold, Segoe UI" font-weight="700"><tspan x="0" y="113">140+</tspan></text>
        <g transform="matrix(1, 0, 0, 1, 679, 2656)" filter="url(#Ellipse_79)">
          <g id="Ellipse_79-2" data-name="Ellipse 79" transform="translate(761 209)" fill="#c02e2b" stroke="#fff" stroke-width="3">
            <circle cx="17" cy="17" r="17" stroke="none"/>
            <circle cx="17" cy="17" r="15.5" fill="none"/>
          </g>
        </g>
        <g transform="matrix(1, 0, 0, 1, 679, 2656)" filter="url(#Ellipse_80)">
          <g id="Ellipse_80-2" data-name="Ellipse 80" transform="translate(685 573)" fill="#c02e2b" stroke="#fff" stroke-width="3">
            <circle cx="17" cy="17" r="17" stroke="none"/>
            <circle cx="17" cy="17" r="15.5" fill="none"/>
          </g>
        </g>
        <g transform="matrix(1, 0, 0, 1, 679, 2656)" filter="url(#Ellipse_81)">
          <g id="Ellipse_81-2" data-name="Ellipse 81" transform="translate(259 708)" fill="#c02e2b" stroke="#fff" stroke-width="3">
            <circle cx="17" cy="17" r="17" stroke="none"/>
            <circle cx="17" cy="17" r="15.5" fill="none"/>
          </g>
        </g>
      </g>
    </g>
  </g>
</svg>
