<svg xmlns="http://www.w3.org/2000/svg" xmlns:xlink="http://www.w3.org/1999/xlink" width="594" height="90" viewBox="0 0 594 90">
  <defs>
    <clipPath id="clip-path">
      <rect id="Rectangle_7" data-name="Rectangle 7" width="594" height="90" fill="#fff"/>
    </clipPath>
  </defs>
  <g id="Mask_Group_6" data-name="Mask Group 6" clip-path="url(#clip-path)">
    <g id="Roland_Digital_Group_logo">
      <path id="path27515" d="M87.319,3.5V83.9A3.435,3.435,0,0,0,90.826,87.4h9.548c3.467,0,3.447-3.507,3.447-3.507V3.491S103.822,0,100.355,0H90.806c-3.467,0-3.467,3.491-3.487,3.5" transform="translate(261.094 0)" fill="#394b55"/>
      <path id="path27517" d="M102.073,68c10.753,7.677,30.744,5.806,39.861-2.2a1.677,1.677,0,0,1,2.729.978c.914,2.8,2.179,3.487,4.968,3.507h5.686a3.408,3.408,0,0,0,3.471-3.507V30.609c0-19.679-18.263-24.9-32.268-24.882-15.645,0-25.892,5.985-30.879,18.1-.507,1.249.958,2.729,2.2,2.729h10.678a5.314,5.314,0,0,0,4.206-2.414c2.789-4.676,7.286-6.428,15.705-6.428,9.313,0,11.767,2.1,14.791,6.448a3.735,3.735,0,0,1-2.187,5.726c-22.444,1.169-26.263,2.007-32.36,2.985-8.882,1.4-15.565,10.015-15.565,18.973,0,5.885,2.729,11.691,8.962,16.152m10.191-22.656c7.868-4.17,27.252-3.763,29.028-3.527.9.12,2.218.778,2.2,2.063-.04,16.834-22.947,19.093-31.7,13.307a7,7,0,0,1-3.076-5.339,6.528,6.528,0,0,1,3.547-6.5" transform="translate(278.412 17.124)" fill="#394b55"/>
      <path id="path27519" d="M178.7,66.757V31.313c0-15.861-13.89-25.581-24.044-25.581-10.091,0-18.646,2.633-25.269,7.992-.583.5-2.219,1.009-2.219-.451V9.634s0-3.511-3.487-3.511h-8.264a3.4,3.4,0,0,0-3.467,3.491V66.757a3.438,3.438,0,0,0,3.487,3.507h8.279a3.385,3.385,0,0,0,3.451-3.507V38.814c0-7.713,5.143-20.88,22.189-20.88,12.194,0,14.125,8.431,14.125,13.379V66.757a3.422,3.422,0,0,0,3.487,3.507h8.26a3.411,3.411,0,0,0,3.471-3.507" transform="translate(334.737 17.139)" fill="#394b55"/>
      <path id="path27521" d="M129.126,39.17c0-9.253-7.833-21.391-23.478-21.391S82.23,29.993,82.23,39.23c0,9.253,7.422,21.331,23.653,21.331,15.585,0,23.242-12.058,23.242-21.391m-62.988,0c0-14.728,11.631-33.433,39.49-33.433,27.919,0,39.57,18.765,39.59,33.413,0,15.318-11.591,33.4-39.335,33.4-28,0-39.745-17.772-39.745-33.377" transform="translate(197.76 17.154)" fill="#394b55"/>
      <path id="path27523" d="M186.8,81.945c1-.8,2.051-.16,2.031,1.7,0,.239,0,3.763,3.483,3.763h8.24A3.4,3.4,0,0,0,204,83.9V3.491A3.393,3.393,0,0,0,200.55,0h-8.24a3.423,3.423,0,0,0-3.483,3.491v25.4c0,1.831-1.022,2.454-2.031,1.676-22.4-17.241-56.46,0-56.4,25.541.04,28.545,33.665,43.935,56.4,25.836M166.945,35.4c11.883,0,21.471,8.184,21.487,20.884,0,13.131-9.584,21.571-21.467,21.571S146.021,68.5,146.021,56.129A20.644,20.644,0,0,1,166.945,35.4" transform="translate(389.899)" fill="#394b55"/>
      <path id="path27525" d="M94.77,36.494s13.562,0,13.562-12.449C108.333,11.611,94.77,11.6,94.77,11.6h-30.8c-3.467,0-3.467,3.487-3.467,3.487v17.9c0,3.507,3.663,3.507,3.467,3.507ZM60.5,51.552V83.9A3.422,3.422,0,0,1,57.016,87.4H49.239A3.444,3.444,0,0,1,45.732,83.9V3.491A3.406,3.406,0,0,1,49.2,0H99.7c11.4,0,24.431,7.908,24.431,24.044,0,7.868-4.481,15.079-10.753,19.52-.507.359-.9,1.013-.662,1.209,4.305,3.408,4.341,6.173,5.881,12.058,2.729,10.582,3.06,19.819,7.21,28.681a1.6,1.6,0,0,1-1.365,1.891H114.374c-3.3,0-5.107-1.564-5.73-3.507-3.6-11.069-1.129-21.822-8.631-32.324-1.772-2.454-5.69-3.487-10.231-3.487H63.971A3.4,3.4,0,0,0,60.5,51.552" transform="translate(136.744)" fill="#394b55"/>
      <path id="path27527" d="M165.977,37.253H0V16.772H165.977Zm0,0" transform="translate(0 50.15)" fill="#394b55"/>
      <path id="path27529" d="M165.977,59.365H0V0H165.977Zm0,0" fill="#3a75ba"/>
    </g>
  </g>
</svg>
