<svg xmlns="http://www.w3.org/2000/svg" xmlns:xlink="http://www.w3.org/1999/xlink" width="329" height="90" viewBox="0 0 329 90">
  <defs>
    <clipPath id="clip-path">
      <rect id="Rectangle_9" data-name="Rectangle 9" width="329" height="90" fill="#fff"/>
    </clipPath>
  </defs>
  <g id="Mask_Group_8" data-name="Mask Group 8" clip-path="url(#clip-path)">
    <g id="Group_3" data-name="Group 3" transform="translate(-75.074 -41.67)">
      <path id="path4757" d="M606.339-1278.292h47.707c17.294,1.29,25.177,14.672,25.05,26.077-.127,12.516-10.836,24.006-21.936,23.742l24.77,36.141H658.7l-24.252-34.859v34.859H615.588v-52.136h37.422c9.309,0,10.319-13.687.272-16H606.339Z" transform="translate(-531.265 1321.455)" fill="#c92a28"/>
      <path id="path4761" d="M795.342-1192.332h19.135v-35.895l31.44-50.066H823.71l-18.787,29.437-18.1-29.437H764.895l30.447,50.321Z" transform="translate(-620.934 1321.455)" fill="#c92a28"/>
      <path id="path4765" d="M1139.819-1278.292h39.45c33.841,2.071,30.744,35.886,21.18,40.792,13.679,7.23,14.468,41.028-14.986,45.169h-39.7V-1244.2H1182.9c9.037-1.824,4.879-14.986-.263-15.249h-42.819Zm25.254,67.623h16.81c9.784.781,12.881-16.242-.535-16.785h-16.276Z" transform="translate(-832.966 1321.455)" fill="#c92a28"/>
      <path id="path4767" d="M1317.985-1278.292h19.628v85.953h-19.628Z" transform="translate(-933.724 1321.455)" fill="#c92a28"/>
      <path id="path4771" d="M1016.813-1236.355c-.255,20.111-16.293,44.592-44.627,44.627-28.164.051-45.178-24.244-45.28-45.28-.136-21.546,18.9-44.72,44.72-44.72,28.139,0,45.458,24.193,45.187,45.373m-45.187-25.482c-14.5,0-25.2,13.025-25.135,25.135.059,11.829,9.6,25.482,25.457,25.465,15.928-.008,24.948-13.781,25.109-25.092.127-11.906-9.614-25.508-25.432-25.508" transform="translate(-712.556 1323.398)" fill="#c92a28"/>
    </g>
  </g>
</svg>
