<svg xmlns="http://www.w3.org/2000/svg" xmlns:xlink="http://www.w3.org/1999/xlink" width="103.94" height="55" viewBox="0 0 103.94 55">
  <defs>
    <clipPath id="clip-path">
      <rect id="Rectangle_71" data-name="Rectangle 71" width="103.94" height="55" transform="translate(0.2 0)" fill="#fff"/>
    </clipPath>
  </defs>
  <g id="Mask_Group_15" data-name="Mask Group 15" transform="translate(-0.2 0)" clip-path="url(#clip-path)">
    <g id="g10" transform="translate(-13.006 172.162)">
      <g id="g12" transform="translate(13.006 -159.162)">
        <path id="path16" d="M29-141.16a5.469,5.469,0,0,0,2.488-.594v-.008a7.971,7.971,0,0,0,4.434-7.085,8.081,8.081,0,0,0-6.589-7.832l-.1-.024a11.785,11.785,0,0,0-1.554-.187H13.006v5.759H27.178c.146,0,.4.028.654.049a2.434,2.434,0,0,1,2.154,2.418,2.435,2.435,0,0,1-2.154,2.419c-.208.02-.517.043-.651.043H15.694l0,16.536,6.144-.008v-11.17h.042l7.7,11.17H36.87l-7.952-11.488.086,0" transform="translate(-13.006 157.358)" fill="#ff2e16" fill-rule="evenodd"/>
        <path id="path18" d="M489.216-129.086h6.145v-27.06h-6.145Z" transform="translate(-391.221 156.767)" fill="#ff2e16" fill-rule="evenodd"/>
        <path id="path20" d="M131.348-146.89l5.739-9.274h6.99l-9.664,15.572V-129.1h-6.147v-11.493l-9.653-15.572h6.99l5.745,9.274" transform="translate(-96.882 156.781)" fill="#ff2e16" fill-rule="evenodd"/>
        <path id="path22" d="M378.013-136.838l-.006-3.405h4.574c.27,0,.627.027.96.059a2.647,2.647,0,0,1,2.5,2.644,2.648,2.648,0,0,1-2.5,2.644c-.219.02-.693.045-.963.045h-4.571l.006-1.851Zm-6.151.111v7.646h10.376c.837-.006,1.954-.118,2.293-.162a8.544,8.544,0,0,0,7.6-8.339,8.113,8.113,0,0,0-.917-3.75l-.014-.028a4.732,4.732,0,0,0-2.1-2.052h-.028a4.73,4.73,0,0,0,1.416-1.745l.016-.018a6.629,6.629,0,0,0,.726-2.809,7.724,7.724,0,0,0-7.031-7.987,14.89,14.89,0,0,0-1.94-.175H370.071v5.754h12.5c.157,0,.514.04.763.062a2.42,2.42,0,0,1,2.191,2.408,2.421,2.421,0,0,1-2.191,2.41,7.585,7.585,0,0,1-.758.057H371.862v8.728" transform="translate(-296.594 156.766)" fill="#ff2e16" fill-rule="evenodd"/>
        <path id="path24" d="M227.609-145.012a14.15,14.15,0,0,1,14.149-14.15,14.15,14.15,0,0,1,14.15,14.15,14.15,14.15,0,0,1-14.15,14.15,14.15,14.15,0,0,1-14.149-14.15Zm14.149,7.985a7.985,7.985,0,0,0,7.986-7.985A7.986,7.986,0,0,0,241.759-153a7.985,7.985,0,0,0-7.985,7.986,7.985,7.985,0,0,0,7.985,7.985" transform="translate(-183.448 159.162)" fill="#ff2e16" fill-rule="evenodd"/>
      </g>
    </g>
  </g>
</svg>
