<svg xmlns="http://www.w3.org/2000/svg" xmlns:xlink="http://www.w3.org/1999/xlink" width="361" height="90" viewBox="0 0 361 90">
  <defs>
    <clipPath id="clip-path">
      <rect id="Rectangle_8" data-name="Rectangle 8" width="361" height="90" fill="#fff"/>
    </clipPath>
  </defs>
  <g id="Mask_Group_7" data-name="Mask Group 7" clip-path="url(#clip-path)">
    <g id="Group_1" data-name="Group 1" transform="translate(-51.505 -96.282)">
      <g id="sakurai" transform="translate(51.505 96.282)">
        <path id="Path_2" data-name="Path 2" d="M464.89,474.189l3.9-10.6a16.423,16.423,0,0,0,15.378,10.688l60.79-.093,33.159-89.9H546.157l-7.979,21.647H413.211l.011-.03H385.244l7.95-21.573H361.243l-7.958,21.6H328.956l8.284-21.658-35.794.03h-.161a33.377,33.377,0,0,0-30.49,21.341l-.023.066-.025.068-12.915,35.081-.032.08-.03.083a5.353,5.353,0,0,1-5.065,3.613l-23.847-.047-11.353,29.686,41.744-.03h.161a33.355,33.355,0,0,0,24.369-11.285,16.425,16.425,0,0,0,14.93,11.3l166.181-.078Z" transform="translate(-217.505 -384.282)" fill="#da202b" fill-rule="evenodd"/>
        <path id="Path_3" data-name="Path 3" d="M396.941,398.388l-19.279,52.195H362.448l19.288-52.195Z" transform="translate(-55.676 -368.533)" fill="#fff" fill-rule="evenodd"/>
        <path id="Path_4" data-name="Path 4" d="M393.3,388l-5.139,13.958H372.94L378.092,388Z" transform="translate(-43.962 -380.133)" fill="#fff" fill-rule="evenodd"/>
        <path id="Path_5" data-name="Path 5" d="M289.278,417.362a7.034,7.034,0,0,0-6.585-9.495l-13.317-.025,3.13-9.412h19.311a13.215,13.215,0,0,1,12.17,18.352l-12.519,33.944-30.776-.1a8.536,8.536,0,0,1-8.077-11.323l5.325-14.682a13.21,13.21,0,0,1,12.492-8.915h12.714l-2.963,8.034-4.711-.1a1.945,1.945,0,0,0-.273-.015,2.687,2.687,0,0,0-2.487,1.647L268.49,437.3a2.706,2.706,0,0,0,2.578,3.5h9.217l8.993-23.436Z" transform="translate(-178.826 -368.486)" fill="#fff" fill-rule="evenodd"/>
        <path id="Path_6" data-name="Path 6" d="M376.587,417.362A7.024,7.024,0,0,0,370,407.867l-13.317-.025,3.132-9.412h19.307A13.215,13.215,0,0,1,391.3,416.782l-12.517,33.944-30.778-.1a8.547,8.547,0,0,1-8.077-11.323l5.321-14.682a13.222,13.222,0,0,1,12.5-8.915h12.716l-2.965,8.034-4.716-.1a1.844,1.844,0,0,0-.273-.015,2.691,2.691,0,0,0-2.485,1.647L355.8,437.3a2.517,2.517,0,0,0-.125.8,2.7,2.7,0,0,0,2.7,2.7h9.217l8.993-23.436Z" transform="translate(-81.341 -368.486)" fill="#fff" fill-rule="evenodd"/>
        <path id="Path_7" data-name="Path 7" d="M353.265,414.527a11.188,11.188,0,0,1,10.409-6.673l3.611-.093,3.289-9.283-14.551-.169c-12.022,0-16.255,10.86-16.092,10.669l-.844,2.417-14.473,39.284h15.209l12.714-34.51.728-1.642Z" transform="translate(-97.918 -368.622)" fill="#fff" fill-rule="evenodd"/>
        <path id="Path_8" data-name="Path 8" d="M276.55,445.916a25.634,25.634,0,0,1-23.334,16.335l-30.317.023,5.336-13.962,18.445.036a13.218,13.218,0,0,0,12.5-8.919l12.915-35.077a25.636,25.636,0,0,1,23.332-16.337L319.8,388l-5.336,13.958-12.5-.036a13.214,13.214,0,0,0-12.492,8.91L276.55,445.916Z" transform="translate(-211.483 -380.133)" fill="#fff" fill-rule="evenodd"/>
        <path id="Path_9" data-name="Path 9" d="M321.688,431.132a11.631,11.631,0,0,0,10.809-7.344l5.185-14.2H322.474l-3.607,9.776-1.651,3.649c-2,2.6-1.674,3.535-5.886,4.5-.294.066-6.584-.216-6.874-.233l-1.291-.021,14.454-39.238H302.409L275.1,462.158h15.209l9.91-26.888,6.737.017c.125.059.927-.093,1.058-.044,2.51.868,2.908,3.568,2.65,6.161l-2.555,7.2L303.1,462.177h15.213l4.741-12.87,2.955-8.282c.792-5.782-3.636-8.11-5.907-9.095a11.638,11.638,0,0,0-2.7-.745c.112,0,1.06,0,1.175,0l3.111-.053Z" transform="translate(-153.2 -380.107)" fill="#fff" fill-rule="evenodd"/>
        <path id="Path_10" data-name="Path 10" d="M330.143,438.434a3.826,3.826,0,0,1-3.516,2.332l-6.2.023a2.775,2.775,0,0,1-2.491-3.852L332.02,398.39H316.914l-14.951,40.891a8.551,8.551,0,0,0,8.074,11.327l21.537-.123a13.207,13.207,0,0,0,12.305-8.409l16.155-43.691H344.928l-14.786,40.048Z" transform="translate(-123.725 -368.535)" fill="#fff" fill-rule="evenodd"/>
      </g>
    </g>
  </g>
</svg>
