<svg id="Group_150" data-name="Group 150" xmlns="http://www.w3.org/2000/svg" xmlns:xlink="http://www.w3.org/1999/xlink" width="330.5" height="270.49" viewBox="0 0 330.5 270.49">
  <defs>
    <clipPath id="clip-path">
      <rect id="Rectangle_46" data-name="Rectangle 46" width="330.5" height="270.49" fill="none"/>
    </clipPath>
  </defs>
  <g id="Group_145" data-name="Group 145">
    <g id="Group_144" data-name="Group 144" clip-path="url(#clip-path)">
      <line id="Line_103" data-name="Line 103" x2="327.631" transform="translate(2.368 210.256)" fill="none" stroke="#fff" stroke-width="1"/>
    </g>
  </g>
  <line id="Line_104" data-name="Line 104" x2="320.767" transform="translate(3.302 51.27)" fill="none" stroke="#fff" stroke-width="1"/>
  <g id="Group_147" data-name="Group 147">
    <g id="Group_146" data-name="Group 146" clip-path="url(#clip-path)">
      <line id="Line_105" data-name="Line 105" x2="147.5" transform="translate(0 125.763)" fill="none" stroke="#fff" stroke-width="1"/>
    </g>
  </g>
  <line id="Line_106" data-name="Line 106" y2="190.883" transform="translate(278.869 38)" fill="none" stroke="#fff" stroke-width="1"/>
  <line id="Line_107" data-name="Line 107" y2="202.22" transform="translate(60.435 29)" fill="none" stroke="#fff" stroke-width="1"/>
  <g id="Group_149" data-name="Group 149">
    <g id="Group_148" data-name="Group 148" clip-path="url(#clip-path)">
      <line id="Line_108" data-name="Line 108" y2="76.49" transform="translate(206.058 194)" fill="none" stroke="#fff" stroke-width="1"/>
      <line id="Line_109" data-name="Line 109" y2="197.123" transform="translate(133.246)" fill="none" stroke="#fff" stroke-width="1"/>
      <line id="Line_110" data-name="Line 110" x2="63" transform="translate(267.5 125.913)" fill="none" stroke="#fff" stroke-width="1"/>
      <path id="Path_214" data-name="Path 214" d="M40,65.5A3.5,3.5,0,1,1,36.5,69,3.5,3.5,0,0,1,40,65.5" fill="#adadad"/>
      <path id="Path_215" data-name="Path 215" d="M228.953,226.5a6.5,6.5,0,1,1-6.5,6.5,6.5,6.5,0,0,1,6.5-6.5" fill="#b1b1b1"/>
      <g id="Group_151" data-name="Group 151" transform="translate(7.107 8.083)">
        <path id="Path_216" data-name="Path 216" d="M246.04,140.219a.723.723,0,0,1-.167-.293,2.069,2.069,0,0,1,.167.293" transform="translate(-13.014 -9.892)" fill="#fff"/>
        <path id="Path_217" data-name="Path 217" d="M245.873,139.926a.723.723,0,0,0,.167.293,2.069,2.069,0,0,0-.167-.293" transform="translate(-13.014 -9.892)" fill="#fff"/>
        <path id="Path_218" data-name="Path 218" d="M245.873,139.926a.723.723,0,0,0,.167.293,2.069,2.069,0,0,0-.167-.293m0,0a.723.723,0,0,0,.167.293,2.069,2.069,0,0,0-.167-.293m0,0a.723.723,0,0,0,.167.293,2.069,2.069,0,0,0-.167-.293m0,0a.723.723,0,0,0,.167.293,2.069,2.069,0,0,0-.167-.293m0,0a.723.723,0,0,0,.167.293,2.069,2.069,0,0,0-.167-.293m0,0a.723.723,0,0,0,.167.293,2.069,2.069,0,0,0-.167-.293m0,0a.723.723,0,0,0,.167.293,2.069,2.069,0,0,0-.167-.293m0,0a.723.723,0,0,0,.167.293,2.069,2.069,0,0,0-.167-.293m0,0a.723.723,0,0,0,.167.293,2.069,2.069,0,0,0-.167-.293m0,0a.723.723,0,0,0,.167.293,2.069,2.069,0,0,0-.167-.293m0,0a.723.723,0,0,0,.167.293,2.069,2.069,0,0,0-.167-.293m0,0a.723.723,0,0,0,.167.293,2.069,2.069,0,0,0-.167-.293m0,0a.723.723,0,0,0,.167.293,2.069,2.069,0,0,0-.167-.293m0,0a.723.723,0,0,0,.167.293,2.069,2.069,0,0,0-.167-.293m0,0a.723.723,0,0,0,.167.293,2.069,2.069,0,0,0-.167-.293m0,0a.723.723,0,0,0,.167.293,2.069,2.069,0,0,0-.167-.293m0,0a.723.723,0,0,0,.167.293,2.069,2.069,0,0,0-.167-.293m0,0a.723.723,0,0,0,.167.293,2.069,2.069,0,0,0-.167-.293m0,0a.723.723,0,0,0,.167.293,2.069,2.069,0,0,0-.167-.293m0,0a.723.723,0,0,0,.167.293,2.069,2.069,0,0,0-.167-.293m0,0a.723.723,0,0,0,.167.293,2.069,2.069,0,0,0-.167-.293m0,0a.723.723,0,0,0,.167.293,2.069,2.069,0,0,0-.167-.293m0,0a.723.723,0,0,0,.167.293,2.069,2.069,0,0,0-.167-.293m0,0a.723.723,0,0,0,.167.293,2.069,2.069,0,0,0-.167-.293m0,0a.723.723,0,0,0,.167.293,2.069,2.069,0,0,0-.167-.293m0,0a.723.723,0,0,0,.167.293,2.069,2.069,0,0,0-.167-.293m0,0a.723.723,0,0,0,.167.293,2.069,2.069,0,0,0-.167-.293m0,0a.723.723,0,0,0,.167.293,2.069,2.069,0,0,0-.167-.293m0,0a.723.723,0,0,0,.167.293,2.069,2.069,0,0,0-.167-.293m0,0a.723.723,0,0,0,.167.293,2.069,2.069,0,0,0-.167-.293m0,0a.723.723,0,0,0,.167.293,2.069,2.069,0,0,0-.167-.293m0,0a.723.723,0,0,0,.167.293,2.069,2.069,0,0,0-.167-.293m0,0a.723.723,0,0,0,.167.293,2.069,2.069,0,0,0-.167-.293m0,0a.723.723,0,0,0,.167.293,2.069,2.069,0,0,0-.167-.293m0,0a.723.723,0,0,0,.167.293,2.069,2.069,0,0,0-.167-.293m0,0a.723.723,0,0,0,.167.293,2.069,2.069,0,0,0-.167-.293m0,0a.723.723,0,0,0,.167.293,2.069,2.069,0,0,0-.167-.293" transform="translate(-13.014 -9.892)"/>
        <path id="Path_219" data-name="Path 219" d="M191.412,112.3l-.059.5.017-.5Z" transform="translate(-4.147 -5.4)" fill="#fff"/>
        <path id="Path_220" data-name="Path 220" d="M191.37,112.3l-.017.5.059-.5Z" transform="translate(-4.147 -5.4)"/>
        <path id="Path_221" data-name="Path 221" d="M196.548,128.79a6.446,6.446,0,0,1-4.94,6.272,4.444,4.444,0,0,1-.5.1c-.159.025-.327.042-.5.059v2.855a.518.518,0,0,1-.511.511h-.017a.464.464,0,0,1-.477-.5v-2.864c-.167-.017-.335-.034-.5-.059s-.335-.059-.5-.1a6.461,6.461,0,0,1-4.94-6.272.487.487,0,0,1,.5-.5.5.5,0,0,1,.5.5,5.444,5.444,0,0,0,4.1,5.275,5.006,5.006,0,0,0,.511.1,5.11,5.11,0,0,0,1.65,0,5.17,5.17,0,0,0,.519-.1,5.46,5.46,0,0,0,4.1-5.275c0-2.6-1.633-4.178-5.635-5.426-2.855-.854-6.255-2.671-6.255-6.464a6.464,6.464,0,0,1,4.94-6.272c.167-.042.335-.067.5-.092a3.421,3.421,0,0,1,.5-.059V107.6a.5.5,0,1,1,1,0v2.872a3.421,3.421,0,0,1,.5.059c.167.025.335.05.5.092a6.464,6.464,0,0,1,4.94,6.272.5.5,0,1,1-1,0,5.409,5.409,0,0,0-1.6-3.852,5.2,5.2,0,0,0-2.487-1.415,3.572,3.572,0,0,0-.519-.109,4.807,4.807,0,0,0-.779-.067h-.126a4.807,4.807,0,0,0-.779.067,3.461,3.461,0,0,0-.511.109,5.267,5.267,0,0,0-2.5,1.415,5.387,5.387,0,0,0-1.591,3.852c0,2.512,1.733,4.178,5.619,5.418,3.257,1.08,6.272,2.621,6.272,6.473" transform="translate(-2.895 -4.554)" fill="#fff"/>
        <path id="Path_222" data-name="Path 222" d="M191.412,112.3l-.059.5.017-.5Z" transform="translate(-4.147 -5.4)" fill="#fff"/>
        <path id="Path_223" data-name="Path 223" d="M208.4,85.354v.1a.415.415,0,0,1-.377.452H195.73c-.285.017-.469-.193-.477-.528a.428.428,0,0,1,.117-.327.484.484,0,0,1,.385-.151h12.159a.447.447,0,0,1,.335.117.5.5,0,0,1,.151.335" transform="translate(-4.781 -0.943)" fill="#fff"/>
        <path id="Path_224" data-name="Path 224" d="M208.4,171.4a.5.5,0,0,1-.5.5H195.755a.5.5,0,0,1,0-1H207.9a.5.5,0,0,1,.5.5" transform="translate(-4.782 -14.93)" fill="#fff"/>
        <path id="Path_225" data-name="Path 225" d="M226.654,80.634a5.312,5.312,0,0,0-3.743-1.532h-51.7a5.335,5.335,0,0,0-5.359,5.351v72.022a5.345,5.345,0,0,0,5.317,5.359h31.945a.5.5,0,1,0,0-1h-31.9a4.422,4.422,0,0,1-4.354-4.354V152.12h36.258a.5.5,0,1,0,0-1H166.858V89.9h60.374v17.668a.5.5,0,1,0,1,0V84.461a5.339,5.339,0,0,0-1.583-3.827m.578,8.265H166.858V84.461a4.421,4.421,0,0,1,4.346-4.354h51.674a4.432,4.432,0,0,1,4.354,4.346Z" transform="translate(0)" fill="#fff"/>
        <path id="Path_226" data-name="Path 226" d="M238.112,121.6a2.173,2.173,0,0,1,.025.335.512.512,0,0,1-.084.276V121.6Z" transform="translate(-11.742 -6.912)" fill="#fff"/>
        <path id="Path_227" data-name="Path 227" d="M238.72,122.2a.805.805,0,0,1-.067.243V122.2Z" transform="translate(-11.84 -7.01)" fill="#fff"/>
        <path id="Path_228" data-name="Path 228" d="M237.433,121.747v.243a.805.805,0,0,0,.067-.243Zm-6.28-2.345v.109a.338.338,0,0,0,.109-.109Z" transform="translate(-10.62 -6.554)"/>
        <path id="Path_229" data-name="Path 229" d="M248.13,125.49v4.857a.562.562,0,0,1-.092.31v.008c-.008.218-.017.444-.025.662-.008.184-.017.36-.033.544a64.183,64.183,0,0,1-2.922,16.245c-.377,1.164-.645,1.892-.8,2.286a2.5,2.5,0,0,0-.151.461.405.405,0,0,1-.4.335h-.075l-.117-.059a.512.512,0,0,1-.285-.243.531.531,0,0,1-.017-.377l.034-.084s.251-.754.837-2.6a64.352,64.352,0,0,0,2.9-16.027c.008-.193.017-.377.025-.569.017-.293.025-.595.033-.888a.512.512,0,0,1,.084-.276v-4.589a2.713,2.713,0,0,0-2.68-2.671h-2.68v6.247a.494.494,0,0,1-.444.536h-.084a.461.461,0,0,1-.477-.5v-7.712a2.175,2.175,0,0,0-.05-.469,2.71,2.71,0,0,0-2.629-2.2H235.4v7.536a.5.5,0,0,1-1,0v-7.813a2.834,2.834,0,0,0-.36-.846,2.652,2.652,0,0,0-.335-.41,2.734,2.734,0,0,0-1.9-.812h-2.68v7.561a.545.545,0,0,1-.5.561h-.025a.464.464,0,0,1-.477-.5v-16.5a2.68,2.68,0,1,0-5.359,0v13.331a.467.467,0,0,1-.444.486l-.059.5.017-.5h-.042a.464.464,0,0,1-.477-.5V107.486a3.684,3.684,0,0,1,7.369,0v7.871h2.68a3.5,3.5,0,0,1,2.587,1.038c.075.075.151.159.226.243a3.065,3.065,0,0,1,.335.477,2.853,2.853,0,0,1,.26.5h2.872a3.639,3.639,0,0,1,2.587,1.038,3.583,3.583,0,0,1,1.055,2.144,3.207,3.207,0,0,1,.042.5v.5h2.721a3.665,3.665,0,0,1,3.643,3.684" transform="translate(-9.091 -4.017)" fill="#fff"/>
        <path id="Path_230" data-name="Path 230" d="M221.766,154.832a.6.6,0,0,0-.176-.025h-.017a.524.524,0,0,1-.5-.452,21.193,21.193,0,0,0-4.8-9.261,27.351,27.351,0,0,1-2.8-3.776,21.544,21.544,0,0,1-3.023-11.045A4.26,4.26,0,0,1,214.69,126h.008a4.277,4.277,0,0,1,3.994,2.772l2.177,5.694a.543.543,0,0,1-.31.687.53.53,0,0,1-.678-.293l-2.177-5.686a3.219,3.219,0,0,0-2.989-2.085,3.3,3.3,0,0,0-3.257,3.266,21.378,21.378,0,0,0,2.83,10.559,24.745,24.745,0,0,0,2.646,3.584,23.841,23.841,0,0,1,5.083,9.822.472.472,0,0,1-.251.511" transform="translate(-7.254 -7.628)" fill="#fff"/>
        <path id="Path_231" data-name="Path 231" d="M231.153,119.4v.109a.338.338,0,0,0,.109-.109Z" transform="translate(-10.62 -6.554)"/>
        <path id="Path_232" data-name="Path 232" d="M238.112,121.6a2.173,2.173,0,0,1,.025.335.512.512,0,0,1-.084.276V121.6Z" transform="translate(-11.742 -6.912)" fill="#fff"/>
        <path id="Path_233" data-name="Path 233" d="M238.112,121.6h-.059v.611a.512.512,0,0,0,.084-.276,2.173,2.173,0,0,0-.025-.335m.444.5v.243a.8.8,0,0,0,.067-.243Z" transform="translate(-11.742 -6.912)"/>
        <path id="Path_234" data-name="Path 234" d="M245.542,165.219a.483.483,0,0,0-.335-.117H220.655a.468.468,0,0,0-.5.477v9.739a.461.461,0,0,0,.477.5h24.577l-.017.5.059-.5a.467.467,0,0,0,.444-.486V165.6a.513.513,0,0,0-.151-.385m-.854,9.6h-23.53v-8.709h23.53Z" transform="translate(-8.831 -13.987)" fill="#fff"/>
        <path id="Path_235" data-name="Path 235" d="M244.43,171.291a1.089,1.089,0,1,1-1.089-1.089,1.1,1.1,0,0,1,1.089,1.089" transform="translate(-12.425 -14.816)" fill="#fff"/>
      </g>
    </g>
  </g>
</svg>
