<svg xmlns="http://www.w3.org/2000/svg" width="32.508" height="43" viewBox="0 0 32.508 43">
  <g id="Services" transform="translate(-163.332 -31.112)">
    <path id="Path_130" data-name="Path 130" d="M192.8,56.309a.653.653,0,0,1-.345-.1.646.646,0,0,1-.2-.894,14.956,14.956,0,1,0-25.342,0,.648.648,0,1,1-1.1.691,16.253,16.253,0,1,1,27.539,0,.665.665,0,0,1-.553.3Z" transform="translate(0 0)" fill="#fff"/>
    <path id="Path_131" data-name="Path 131" d="M193.613,270.187a2.655,2.655,0,0,1-2.652-2.652V259.3a2.652,2.652,0,1,1,5.3,0v8.233A2.656,2.656,0,0,1,193.613,270.187Zm0-12.234a1.354,1.354,0,0,0-1.353,1.353v8.233a1.353,1.353,0,0,0,2.706,0v-8.233A1.355,1.355,0,0,0,193.613,257.953Z" transform="translate(-25.242 -206.057)" fill="#fff"/>
    <path id="Path_132" data-name="Path 132" d="M453.227,270.187a2.654,2.654,0,0,1-2.652-2.652V259.3a2.652,2.652,0,1,1,5.3,0v8.233A2.653,2.653,0,0,1,453.227,270.187Zm0-12.234a1.355,1.355,0,0,0-1.353,1.353v8.233a1.353,1.353,0,0,0,2.706,0v-8.233A1.352,1.352,0,0,0,453.227,257.953Z" transform="translate(-262.43 -206.057)" fill="#fff"/>
    <path id="Path_133" data-name="Path 133" d="M403.094,410.279h-1.241a.649.649,0,1,1,0-1.3h1.241a4.382,4.382,0,0,0,4.379-4.379v-3.075a.649.649,0,0,1,1.3,0V404.6a5.685,5.685,0,0,1-5.677,5.677Z" transform="translate(-217.323 -337.824)" fill="#fff"/>
    <path id="Path_134" data-name="Path 134" d="M337.353,480.161h-2.631a2.3,2.3,0,1,1,0-4.607h2.631a2.3,2.3,0,0,1,0,4.607Zm-2.631-3.311a1.008,1.008,0,1,0,0,2.015h2.631a1.008,1.008,0,1,0,0-2.015Z" transform="translate(-154.48 -406.05)" fill="#fff"/>
    <g id="Group_10218" data-name="Group 10218" transform="translate(171.491 36.622)">
      <path id="Path_135" data-name="Path 135" d="M219.4,198.37c-.018.222-.034.444-.034.67s.016.446.034.666a12.894,12.894,0,0,0,4.924,1.319c-.033-.607-.051-1.222-.051-1.836,0-.717.025-1.435.07-2.14a12.933,12.933,0,0,0-4.943,1.321Z" transform="translate(-219.363 -190.646)" fill="#fff"/>
      <path id="Path_136" data-name="Path 136" d="M318.839,281.35a13.532,13.532,0,0,0,1.273,4.929c.241.021.482.037.728.037s.489-.016.73-.037a13.535,13.535,0,0,0,1.273-4.929c-.661.039-1.332.059-2,.059s-1.341-.02-2-.059Z" transform="translate(-312.452 -269.534)" fill="#fff"/>
      <path id="Path_137" data-name="Path 137" d="M323.293,102.3a11.09,11.09,0,0,0-1.456-4.94c-.171-.011-.34-.026-.514-.026s-.342.016-.512.026a11.087,11.087,0,0,0-1.456,4.94c.65-.038,1.31-.056,1.969-.056s1.318.019,1.968.057Z" transform="translate(-312.935 -97.329)" fill="#fff"/>
      <path id="Path_138" data-name="Path 138" d="M318.323,194.16c-.736,0-1.433.025-2.093.068-.051.709-.082,1.459-.082,2.258,0,.684.021,1.335.059,1.953.667.044,1.371.07,2.116.07s1.449-.026,2.116-.07c.038-.618.059-1.27.059-1.953,0-.8-.031-1.549-.082-2.258C319.756,194.185,319.06,194.16,318.323,194.16Z" transform="translate(-309.934 -187.943)" fill="#fff"/>
      <path id="Path_139" data-name="Path 139" d="M384.79,102.18a18.308,18.308,0,0,1,1.065,4.763,19.7,19.7,0,0,1,4.753.989A8.409,8.409,0,0,0,384.79,102.18Z" transform="translate(-374.168 -101.868)" fill="#fff"/>
      <path id="Path_140" data-name="Path 140" d="M230.275,270.014a20,20,0,0,1-.96-4.729,19.635,19.635,0,0,1-4.724-.986,8.413,8.413,0,0,0,5.684,5.715Z" transform="translate(-224.255 -253.578)" fill="#fff"/>
      <path id="Path_141" data-name="Path 141" d="M387.885,265.295a19.982,19.982,0,0,1-.96,4.728,8.413,8.413,0,0,0,5.681-5.714,19.653,19.653,0,0,1-4.722.986Z" transform="translate(-376.166 -253.587)" fill="#fff"/>
      <path id="Path_142" data-name="Path 142" d="M224.59,107.925a19.684,19.684,0,0,1,4.755-.989,18.31,18.31,0,0,1,1.065-4.763,8.409,8.409,0,0,0-5.821,5.753Z" transform="translate(-224.254 -101.861)" fill="#fff"/>
      <path id="Path_143" data-name="Path 143" d="M408.106,199.709c.018-.221.034-.442.034-.668s-.016-.449-.034-.672a12.941,12.941,0,0,0-4.941-1.32c.045.706.07,1.423.07,2.14,0,.614-.018,1.229-.051,1.836A12.905,12.905,0,0,0,408.106,199.709Z" transform="translate(-391.363 -190.647)" fill="#fff"/>
    </g>
  </g>
</svg>
