<svg id="Group_2" data-name="Group 2" xmlns="http://www.w3.org/2000/svg" width="100.002" height="91" viewBox="0 0 100.002 91">
  <g id="shipment-icon" transform="translate(0.002 -0.25)">
    <path id="Path_5" data-name="Path 5" d="M314.286,6.25V20.536h-7.143V34.822H300V52.68h46.43V34.822h-7.143V20.536h-7.143V6.25Zm3.572,3.572h10.715V20.536H317.858Zm-7.143,14.286h10.715V34.822H310.715Zm3.572,25H303.572V38.394h10.715Zm14.286,0H317.858V38.394h10.715Zm14.286-10.715V49.108H332.144V38.394Zm-7.143-14.286V34.822H325V24.108Z" transform="translate(-257.144)"/>
    <path id="Path_6" data-name="Path 6" d="M90.479,84.823,100,56.251H39.285V24.108H28.57V13.393H25V24.108H17.856V6.25H14.284V24.108H10.713V45.537H0L14.284,84.823ZM71.429,63.394H85.715v3.572H71.429Zm-7.143,0h3.572v3.572H64.285ZM17.856,31.251H32.142v3.572H17.856Z"/>
  </g>
  <rect id="Rectangle_1" data-name="Rectangle 1" width="100" height="91" fill="none"/>
</svg>
