<svg xmlns="http://www.w3.org/2000/svg" width="19.926" height="20.622" viewBox="0 0 19.926 20.622">
  <g id="Group_1713" data-name="Group 1713" transform="translate(-15201.66 1327.722)">
    <path id="Path_162" data-name="Path 162" d="M227.463,217.326v-6.477a.569.569,0,0,0-.569-.565l-7.99-.037a1.268,1.268,0,0,1-1.01-.512l-1.087-1.473-.021-.024v0a.574.574,0,0,0-.451-.22H211.4a.569.569,0,0,0-.572.565v6.043l.034-.014q.211-.1.433-.174l.081-.029q.221-.073.449-.126c.028-.007.056-.016.085-.022.15-.033.3-.057.458-.076.03,0,.06-.011.09-.014a5.178,5.178,0,0,1,.522-.029l.008,0h.023a5.146,5.146,0,0,1,5.157,5.093s0,0,0,.008,0,0,0,0,0,.012,0,.018c0,.154-.009.307-.023.459,0,.049-.01.1-.016.146-.013.108-.029.214-.049.321-.009.048-.016.1-.026.144-.029.133-.063.264-.1.394-.019.062-.041.123-.062.184-.027.078-.055.155-.085.232s-.05.125-.078.187c-.04.09-.084.178-.129.266-.035.068-.072.136-.11.2s-.084.148-.13.219h10.092Z" transform="translate(14990.829 -1529.205)"/>
    <path id="Path_163" data-name="Path 163" d="M324.255,105.028H313.03a.148.148,0,0,0-.148.148v6.311l1.064,1.443a.674.674,0,0,0,.538.272l7.99.037a1.161,1.161,0,0,1,1.156,1.155v6.232h.624a.148.148,0,0,0,.148-.148v-15.3a.147.147,0,0,0-.147-.148Zm-9.23,6.377h7.234a.246.246,0,0,1,0,.492h-7.234a.246.246,0,0,1,0-.492Zm7.234-1.86h-7.234a.246.246,0,0,1,0-.492h7.234a.246.246,0,0,1,0,.492Zm0-2.351h-7.234a.246.246,0,0,1,0-.492h7.234a.246.246,0,0,1,0,.492Z" transform="translate(14895.251 -1432.75)"/>
    <path id="Path_164" data-name="Path 164" d="M485.565,271.748h-.409v4.875a.738.738,0,0,1-.737.737h-.526V281.7h1.672a.836.836,0,0,0,.835-.835v-8.278a.836.836,0,0,0-.835-.835Z" transform="translate(14735.088 -1588.895)"/>
    <path id="Path_165" data-name="Path 165" d="M484.117,280.348h-1.771v-4.533h.624a.639.639,0,0,0,.639-.639V270.2h.507a.935.935,0,0,1,.934.934v8.278a.934.934,0,0,1-.933.933Zm-1.574-.2h1.574a.738.738,0,0,0,.737-.737v-8.278a.738.738,0,0,0-.737-.737h-.311v4.776a.836.836,0,0,1-.835.835h-.428Z" transform="translate(14736.536 -1587.448)"/>
    <rect id="Rectangle_713" data-name="Rectangle 713" width="8.192" height="8.757" transform="translate(15201.812 -1315.952)"/>
  </g>
</svg>
