<svg xmlns="http://www.w3.org/2000/svg" width="24.763" height="20.824" viewBox="0 0 24.763 20.824">
  <g id="noun-printer-1565491" transform="translate(-15.758)">
    <path id="Path_122" data-name="Path 122" d="M18.016,8.755H38.262a2.262,2.262,0,0,1,2.258,2.255v6.775a1.134,1.134,0,0,1-1.129,1.129H35.823l-.279-1.975h1.236V13.692H19.5v3.246h1.034l-.172,1.975H16.887a1.134,1.134,0,0,1-1.129-1.129V11.009a2.262,2.262,0,0,1,2.258-2.255ZM18.9,2.19h1.332V7.8H18.9Zm17.149,0h1.336V7.8H36.045ZM24.714,0H35.088V7.8h-13.9V3.525h3.526ZM23.16,5.432h9.673a.436.436,0,1,1,0,.873H23.16a.436.436,0,1,1,0-.873Zm3.774-2.155h6.021a.438.438,0,0,1,0,.877H26.934a.438.438,0,0,1,0-.877Zm.123-2.151h6.025a.436.436,0,1,1,0,.873H27.057a.436.436,0,1,1,0-.873ZM23.692,0V2.5h-2.5ZM21.262,20.744H35.015l-.8-5.639H21.755l-.494,5.639ZM37.84,10.021a.953.953,0,1,1-.953.953A.952.952,0,0,1,37.84,10.021Zm-14.818,0a.953.953,0,1,1-.949.953A.953.953,0,0,1,23.023,10.021Zm-4.41,0a.953.953,0,1,1-.949.953A.953.953,0,0,1,18.613,10.021Z" transform="translate(0)" fill-rule="evenodd"/>
    <g id="Group_1675" data-name="Group 1675" transform="translate(15.758 20.787)">
      <path id="Path_123" data-name="Path 123" d="M.043-.377h0l-.005,0a.009.009,0,0,1,0-.006.007.007,0,0,1,0-.005l.005,0h0v0H.036a0,0,0,0,0,0,0,0,0,0,0,0,0,0H.043Z" transform="translate(-0.031 0.391)"/>
    </g>
    <g id="Group_1676" data-name="Group 1676" transform="translate(15.773 20.79)">
      <path id="Path_124" data-name="Path 124" d="M.054-.293h0a0,0,0,0,0,0,0v0h0V-.3h0v0h0Z" transform="translate(-0.047 0.297)"/>
    </g>
    <g id="Group_1677" data-name="Group 1677" transform="translate(15.782 20.79)">
      <path id="Path_125" data-name="Path 125" d="M.042-.291H.034v0H.042v0h0l0,0a.006.006,0,0,1,0,0,.007.007,0,0,1,0,0l0,0,0,0a.006.006,0,0,1,0,0Zm0,0h0Z" transform="translate(-0.031 0.297)"/>
    </g>
    <g id="Group_1678" data-name="Group 1678" transform="translate(15.795 20.79)">
      <path id="Path_126" data-name="Path 126" d="M.036-.291h0Zm.005,0v.006h0v0l0,0h0a.006.006,0,0,1,0,0,0,0,0,0,1,0,0h0v0h0l0,0A.005.005,0,0,1,.042-.292Z" transform="translate(-0.031 0.297)"/>
    </g>
    <g id="Group_1679" data-name="Group 1679" transform="translate(15.807 20.788)">
      <path id="Path_127" data-name="Path 127" d="M.02-.359v0h0v0h0v0h0v0H.017a.006.006,0,0,1,0,0v0h0v0h0v0Z" transform="translate(-0.016 0.359)"/>
    </g>
    <g id="Group_1680" data-name="Group 1680" transform="translate(15.817 20.79)">
      <path id="Path_128" data-name="Path 128" d="M.042-.291H.034v0H.042v0h0l0,0a.006.006,0,0,1,0,0,.007.007,0,0,1,0,0l0,0,0,0a.006.006,0,0,1,0,0Zm0,0h0Z" transform="translate(-0.031 0.297)"/>
    </g>
    <g id="Group_1681" data-name="Group 1681" transform="translate(15.83 20.787)">
      <path id="Path_129" data-name="Path 129" d="M.039-.385V-.391h0v.014h0v0l0,0h0l0,0a.006.006,0,0,1,0,0,.007.007,0,0,1,0,0l0,0h0Zm0,.007h0a0,0,0,0,0,0,0v0h0v0s0,0,0,0Z" transform="translate(-0.031 0.391)"/>
    </g>
    <g id="Group_1682" data-name="Group 1682" transform="translate(15.851 20.787)">
      <path id="Path_130" data-name="Path 130" d="M.052-.378h0a0,0,0,0,0,0,0v0h0v0Zm0-.007h0l0,0a.008.008,0,0,1,0,0,.007.007,0,0,1,0,0l0,0h0v0h0V-.391h0Z" transform="translate(-0.047 0.391)"/>
    </g>
    <g id="Group_1683" data-name="Group 1683" transform="translate(15.863 20.791)">
      <path id="Path_131" data-name="Path 131" d="M.016-.281h0l0,.007,0-.007h0l0,.012,0,0h0v0h0Z" transform="translate(-0.016 0.281)"/>
    </g>
    <g id="Group_1684" data-name="Group 1684" transform="translate(15.884 20.79)">
      <path id="Path_132" data-name="Path 132" d="M.05-.288v.006h0V-.3H.053l0,0a.008.008,0,0,1,0,0,.007.007,0,0,1,0,0l0,0h0v0Zm0-.006h0v0h0a0,0,0,0,0,0,0v0Z" transform="translate(-0.047 0.297)"/>
    </g>
    <g id="Group_1685" data-name="Group 1685" transform="translate(15.897 20.79)">
      <path id="Path_133" data-name="Path 133" d="M.036-.294h0a0,0,0,0,0,0,0s0,0,0,0h0a0,0,0,0,0,0,0,0,0,0,0,0,0,0Zm0,0,0,0a.006.006,0,0,1,0,0,.005.005,0,0,1,0,0l0,0,0,0a.006.006,0,0,1,0,0,.007.007,0,0,1,0,0Z" transform="translate(-0.031 0.297)"/>
    </g>
    <g id="Group_1686" data-name="Group 1686" transform="translate(15.911 20.79)">
      <path id="Path_134" data-name="Path 134" d="M.05-.288v.006h0V-.3H.053l0,0a.008.008,0,0,1,0,0,.007.007,0,0,1,0,0l0,0h0v0Zm0-.006h0v0h0a0,0,0,0,0,0,0v0Z" transform="translate(-0.047 0.297)"/>
    </g>
    <g id="Group_1687" data-name="Group 1687" transform="translate(15.924 20.79)">
      <path id="Path_135" data-name="Path 135" d="M.041-.3v0H.035v0a0,0,0,0,0,0,0H.041v0h0l0,0a.006.006,0,0,1,0,0,.007.007,0,0,1,0,0l0,0h0Z" transform="translate(-0.031 0.297)"/>
    </g>
    <g id="Group_1688" data-name="Group 1688" transform="translate(15.935 20.79)">
      <path id="Path_136" data-name="Path 136" d="M.036-.294h0a0,0,0,0,0,0,0s0,0,0,0h0a0,0,0,0,0,0,0,0,0,0,0,0,0,0Zm0,0,0,0a.006.006,0,0,1,0,0,.005.005,0,0,1,0,0l0,0,0,0a.006.006,0,0,1,0,0,.007.007,0,0,1,0,0Z" transform="translate(-0.031 0.297)"/>
    </g>
    <g id="Group_1689" data-name="Group 1689" transform="translate(15.949 20.79)">
      <path id="Path_137" data-name="Path 137" d="M.054-.293h0a0,0,0,0,0,0,0v0h0V-.3h0v0h0Z" transform="translate(-0.047 0.297)"/>
    </g>
    <g id="Group_1690" data-name="Group 1690" transform="translate(15.958 20.79)">
      <path id="Path_138" data-name="Path 138" d="M.057-.292v.006h0V-.292h0v.007h0V-.3H.053l0,0A0,0,0,0,1,.057-.292Z" transform="translate(-0.047 0.297)"/>
    </g>
    <g id="Group_1691" data-name="Group 1691" transform="translate(15.971 20.79)">
      <path id="Path_139" data-name="Path 139" d="M.036-.291h0Zm.005,0v.006h0v0l0,0h0a.006.006,0,0,1,0,0,0,0,0,0,1,0,0h0v0h0l0,0A.005.005,0,0,1,.042-.292Z" transform="translate(-0.031 0.297)"/>
    </g>
    <g id="Group_1692" data-name="Group 1692" transform="translate(15.985 20.79)">
      <path id="Path_140" data-name="Path 140" d="M.054-.293h0a0,0,0,0,0,0,0v0h0V-.3h0v0h0Z" transform="translate(-0.047 0.297)"/>
    </g>
    <g id="Group_1693" data-name="Group 1693" transform="translate(15.993 20.788)">
      <path id="Path_141" data-name="Path 141" d="M.02-.359v0h0v0h0v0h0v0H.017a.006.006,0,0,1,0,0v0h0v0h0v0Z" transform="translate(-0.016 0.359)"/>
    </g>
    <g id="Group_1694" data-name="Group 1694" transform="translate(16.003 20.79)">
      <path id="Path_142" data-name="Path 142" d="M.04-.3v0h0a0,0,0,0,1,0,0v0H.031v0h0s0,0,0,0a0,0,0,0,1,0,0H.04Z" transform="translate(-0.031 0.297)"/>
    </g>
    <g id="Group_1695" data-name="Group 1695" transform="translate(15.758 20.806)">
      <path id="Path_143" data-name="Path 143" d="M.023-.391v0h0v0h0v.008h0V-.384h0v0h0a0,0,0,0,1,0,0h0Z" transform="translate(-0.016 0.391)"/>
    </g>
    <g id="Group_1696" data-name="Group 1696" transform="translate(15.767 20.809)">
      <path id="Path_144" data-name="Path 144" d="M.054-.293h0a0,0,0,0,0,0,0v0h0V-.3h0v0h0Z" transform="translate(-0.047 0.297)"/>
    </g>
    <g id="Group_1697" data-name="Group 1697" transform="translate(15.776 20.809)">
      <path id="Path_145" data-name="Path 145" d="M.036-.294h0a0,0,0,0,0,0,0s0,0,0,0h0a0,0,0,0,0,0,0,0,0,0,0,0,0,0Zm0,0,0,0a.006.006,0,0,1,0,0,.005.005,0,0,1,0,0l0,0,0,0a.006.006,0,0,1,0,0,.007.007,0,0,1,0,0Z" transform="translate(-0.031 0.297)"/>
    </g>
    <g id="Group_1698" data-name="Group 1698" transform="translate(15.79 20.809)">
      <path id="Path_146" data-name="Path 146" d="M.057-.295v0h0l0,0a0,0,0,0,1,0,0v.006h0V-.291h0v0h0v.007h0V-.291a0,0,0,0,0,0,0h0v.007h0V-.3H.055l0,0Z" transform="translate(-0.047 0.297)"/>
    </g>
    <g id="Group_1699" data-name="Group 1699" transform="translate(15.815 20.807)">
      <path id="Path_147" data-name="Path 147" d="M.02-.359v0h0v0h0v0h0v0H.017a.006.006,0,0,1,0,0v0h0v0h0v0Z" transform="translate(-0.016 0.359)"/>
    </g>
    <g id="Group_1700" data-name="Group 1700" transform="translate(15.826 20.806)">
      <path id="Path_148" data-name="Path 148" d="M.057-.383v.006h0V-.383h0v.007h0V-.391h0v.005h0l0,0A0,0,0,0,1,.057-.383Z" transform="translate(-0.047 0.391)"/>
    </g>
    <g id="Group_1701" data-name="Group 1701" transform="translate(15.839 20.809)">
      <path id="Path_149" data-name="Path 149" d="M.042-.291H.034v0H.042v0h0l0,0a.006.006,0,0,1,0,0,.007.007,0,0,1,0,0l0,0,0,0a.006.006,0,0,1,0,0Zm0,0h0Z" transform="translate(-0.031 0.297)"/>
    </g>
    <g id="Group_1702" data-name="Group 1702" transform="translate(15.859 20.806)">
      <path id="Path_150" data-name="Path 150" d="M.047-.375h0l.005.009V-.375h0v.014h0L.05-.371v.01h0Z" transform="translate(-0.047 0.375)"/>
    </g>
    <g id="Group_1703" data-name="Group 1703" transform="translate(15.874 20.809)">
      <path id="Path_151" data-name="Path 151" d="M.036-.294h0a0,0,0,0,0,0,0s0,0,0,0h0a0,0,0,0,0,0,0,0,0,0,0,0,0,0Zm0,0,0,0a.006.006,0,0,1,0,0,.005.005,0,0,1,0,0l0,0,0,0a.006.006,0,0,1,0,0,.007.007,0,0,1,0,0Z" transform="translate(-0.031 0.297)"/>
    </g>
    <g id="Group_1704" data-name="Group 1704" transform="translate(15.888 20.81)">
      <path id="Path_152" data-name="Path 152" d="M.047-.275V-.281h0v0h0v0h0V-.281h0v.01h0v0l0,0h0A.01.01,0,0,1,.047-.275Z" transform="translate(-0.047 0.281)"/>
    </g>
    <g id="Group_1705" data-name="Group 1705" transform="translate(15.902 20.809)">
      <path id="Path_153" data-name="Path 153" d="M.057-.292v.006h0V-.292h0v.007h0V-.3H.053l0,0A0,0,0,0,1,.057-.292Z" transform="translate(-0.047 0.297)"/>
    </g>
    <g id="Group_1706" data-name="Group 1706" transform="translate(15.922 20.806)">
      <path id="Path_154" data-name="Path 154" d="M.047-.375h.01a0,0,0,0,1,0,0,0,0,0,0,1,0,0H.05v0h0Zm0,0v0h0v0h0Z" transform="translate(-0.047 0.375)"/>
    </g>
    <g id="Group_1707" data-name="Group 1707" transform="translate(15.936 20.809)">
      <path id="Path_155" data-name="Path 155" d="M.054-.293h0a0,0,0,0,0,0,0v0h0V-.3h0v0h0Z" transform="translate(-0.047 0.297)"/>
    </g>
    <g id="Group_1708" data-name="Group 1708" transform="translate(15.945 20.809)">
      <path id="Path_156" data-name="Path 156" d="M.036-.294h0a0,0,0,0,0,0,0s0,0,0,0h0a0,0,0,0,0,0,0,0,0,0,0,0,0,0Zm0,0,0,0a.006.006,0,0,1,0,0,.005.005,0,0,1,0,0l0,0,0,0a.006.006,0,0,1,0,0,.007.007,0,0,1,0,0Z" transform="translate(-0.031 0.297)"/>
    </g>
    <g id="Group_1709" data-name="Group 1709" transform="translate(15.956 20.806)">
      <path id="Path_157" data-name="Path 157" d="M-.013-.387h0v.01a.005.005,0,0,1,0,0h0v0h0s0,0,0,0Zm0,0h0v0h0Z" transform="translate(0.016 0.391)"/>
    </g>
    <g id="Group_1710" data-name="Group 1710" transform="translate(15.965 20.809)">
      <path id="Path_158" data-name="Path 158" d="M.042-.291H.034v0H.042v0h0l0,0a.006.006,0,0,1,0,0,.007.007,0,0,1,0,0l0,0,0,0a.006.006,0,0,1,0,0Zm0,0h0Z" transform="translate(-0.031 0.297)"/>
    </g>
    <g id="Group_1711" data-name="Group 1711" transform="translate(15.978 20.809)">
      <path id="Path_159" data-name="Path 159" d="M.041-.3v0H.035v0a0,0,0,0,0,0,0H.041v0h0l0,0a.006.006,0,0,1,0,0,.007.007,0,0,1,0,0l0,0h0Z" transform="translate(-0.031 0.297)"/>
    </g>
    <g id="Group_1712" data-name="Group 1712" transform="translate(15.988 20.807)">
      <path id="Path_160" data-name="Path 160" d="M.02-.359v0h0v0h0v0h0v0H.017a.006.006,0,0,1,0,0v0h0v0h0v0Z" transform="translate(-0.016 0.359)"/>
    </g>
  </g>
</svg>
