<svg xmlns="http://www.w3.org/2000/svg" xmlns:xlink="http://www.w3.org/1999/xlink" width="100" height="100" viewBox="0 0 100 100">
  <defs>
    <clipPath id="clip-path">
      <rect id="Rectangle_5" data-name="Rectangle 5" width="100" height="100" fill="#fff"/>
    </clipPath>
  </defs>
  <g id="Mask_Group_5" data-name="Mask Group 5" clip-path="url(#clip-path)">
    <g id="Group_110" data-name="Group 110" transform="translate(-11718.808 -983.227)">
      <path id="Path_126" data-name="Path 126" d="M452.939,54.339a5.886,5.886,0,0,0,1.52-3.935,5.95,5.95,0,1,0-11.9,0,5.882,5.882,0,0,0,1.523,3.935,10.692,10.692,0,0,0-6.26,9.732,1.5,1.5,0,0,0,1.492,1.492h18.4a1.5,1.5,0,0,0,1.489-1.492,10.72,10.72,0,0,0-6.275-9.732Zm-4.428-6.9a2.969,2.969,0,1,1-2.1.869,2.969,2.969,0,0,1,2.1-.869Zm-7.557,15.145a7.708,7.708,0,0,1,15.131,0Z" transform="translate(11346.464 947.492)" stroke="#000" stroke-width="0.4"/>
      <path id="Path_127" data-name="Path 127" d="M161.813,243.518a10.683,10.683,0,0,0-6.274-9.718,5.887,5.887,0,0,0,1.52-3.935,5.95,5.95,0,1,0-11.9,0,5.881,5.881,0,0,0,1.52,3.935,10.692,10.692,0,0,0-6.26,9.735,1.5,1.5,0,0,0,1.492,1.492h18.4a1.523,1.523,0,0,0,1.506-1.506Zm-10.7-16.62a2.964,2.964,0,1,1-2.1.868,2.964,2.964,0,0,1,2.1-.868Zm-7.557,15.131a7.708,7.708,0,0,1,15.131,0Z" transform="translate(11591.622 799.562)" stroke="#000" stroke-width="0.4"/>
      <path id="Path_128" data-name="Path 128" d="M311.334,495.341h-6.813a1.492,1.492,0,1,0,0,2.981h6.813a1.492,1.492,0,1,0,0-2.981Z" transform="translate(11457.572 575.82)" stroke="#000" stroke-width="0.4"/>
      <path id="Path_129" data-name="Path 129" d="M325.826,95.463h4.755a1.492,1.492,0,1,0,0-2.981h-4.754a1.492,1.492,0,0,0,0,2.981Z" transform="translate(11440.024 907.907)" stroke="#000" stroke-width="0.4"/>
      <path id="Path_130" data-name="Path 130" d="M295.028,95.463h.7a1.492,1.492,0,0,0,0-2.981h-.7a1.492,1.492,0,1,0,0,2.981Z" transform="translate(11465.396 907.907)" stroke="#000" stroke-width="0.4"/>
      <path id="Path_131" data-name="Path 131" d="M169.07,8.483H136.53a5.2,5.2,0,0,0-5.2,5.187v4.322H104.093a6.135,6.135,0,0,0-6.135,6.135V40.733H84.286a5.2,5.2,0,0,0-5.2,5.187V68.228a5.2,5.2,0,0,0,5.2,5.187h13.7V97.757a6.135,6.135,0,0,0,6.135,6.135h38.458a6.135,6.135,0,0,0,6.135-6.135v-56.6H169.1a5.2,5.2,0,0,0,5.2-5.187V13.667a5.217,5.217,0,0,0-5.217-5.187ZM104.1,20.973h27.233V28.5H100.947V24.121a3.157,3.157,0,0,1,3.146-3.146ZM82.066,68.226V45.917A2.214,2.214,0,0,1,84.3,43.711h32.54a2.211,2.211,0,0,1,2.206,2.206v34.5a.323.323,0,0,1-.223.329.337.337,0,0,1-.388-.075l-9.807-9.807a1.475,1.475,0,0,0-1.048-.424h-23.3a2.214,2.214,0,0,1-2.231-2.206Zm24.894,5.187,9.361,9.361a3.346,3.346,0,0,0,2.356.984,3.505,3.505,0,0,0,1.283-.254,3.327,3.327,0,0,0,2.058-3.084V45.928a5.192,5.192,0,0,0-5.187-5.187H100.947V31.486h30.379V48.164a3.327,3.327,0,0,0,2.058,3.084,3.218,3.218,0,0,0,1.283.254,3.346,3.346,0,0,0,2.356-.984l8.661-8.661v45.27H100.947V73.4h6.007Zm35.6,27.487H104.093a3.154,3.154,0,0,1-3.146-3.146v-7.63H145.7v7.632a3.154,3.154,0,0,1-3.146,3.146ZM171.3,35.97a2.214,2.214,0,0,1-2.231,2.206H145.78a1.539,1.539,0,0,0-1.057.432l-9.819,9.8a.321.321,0,0,1-.388.075.335.335,0,0,1-.223-.329V13.672a2.214,2.214,0,0,1,2.231-2.206h32.554a2.231,2.231,0,0,1,2.231,2.206V35.981Z" transform="translate(11642.188 977.149)" stroke="#000" stroke-width="0.4"/>
    </g>
  </g>
</svg>
