<svg xmlns="http://www.w3.org/2000/svg" width="42.191" height="40.945" viewBox="0 0 42.191 40.945">
  <g id="spare-parts" transform="translate(-103.6 -40.879)">
    <path id="Path_144" data-name="Path 144" d="M374.993,40.879a10.558,10.558,0,0,0-2.4.288l-1.246.288,7.623,7.623a.721.721,0,0,1,.192.527,1.007,1.007,0,0,1-.192.527l-4.411,4.411a.7.7,0,0,1-1.007,0l-7.719-7.719-.336,1.151a10.735,10.735,0,0,0-.384,2.733,9.923,9.923,0,0,0,5.37,8.774V81.824h9.109V59.482a9.853,9.853,0,0,0-4.6-18.6Zm3.548,17.5-.431.192V80.385h-6.233V58.618l-.383-.192a8.425,8.425,0,0,1-4.938-7.671,8.521,8.521,0,0,1,.1-1.1l5.9,5.9a2.218,2.218,0,0,0,1.534.623,2.31,2.31,0,0,0,1.534-.623l4.411-4.411a2.218,2.218,0,0,0,.623-1.534,2.31,2.31,0,0,0-.623-1.534l-5.753-5.753c.24,0,.48-.048.719-.048a8.448,8.448,0,0,1,3.548,16.11Z" transform="translate(-239.126 0)" fill="#fff"/>
    <path id="Path_145" data-name="Path 145" d="M115.682,203.84a12.082,12.082,0,1,0,12.082,12.082A12.093,12.093,0,0,0,115.682,203.84Zm4.794,2.972a10.7,10.7,0,0,1,3.452,2.925l-2.781,2.061a6.993,6.993,0,0,0-2.3-1.966Zm-4.794-1.151h.384l-.144,3.452h-.24a6.561,6.561,0,0,0-2.925.671l-1.486-3.117a10.071,10.071,0,0,1,4.411-1.007Zm-8.1,16.589a9.58,9.58,0,0,1-1.918-4.123l3.356-.719a6.868,6.868,0,0,0,1.295,2.733Zm1.487-7.911-3.356-.815a10.169,10.169,0,0,1,2.014-4.075l2.685,2.157a6.634,6.634,0,0,0-1.342,2.733Zm6.472,11.89a10.171,10.171,0,0,1-4.411-1.1l1.534-3.068a6.59,6.59,0,0,0,2.925.719Zm-4.315-10.308a4.507,4.507,0,1,1,4.507,4.507A4.5,4.5,0,0,1,111.223,215.922Zm8.726,9.349-1.438-3.164a6.929,6.929,0,0,0,2.4-1.822l2.637,2.206A9.712,9.712,0,0,1,119.949,225.272Zm6.041-9.349a9.022,9.022,0,0,1-.336,2.541L122.3,217.6a6.449,6.449,0,0,0,.24-1.678,6.384,6.384,0,0,0-.144-1.342l3.4-.671a14.34,14.34,0,0,1,.192,2.014Z" transform="translate(0 -149.009)" fill="#fff"/>
  </g>
</svg>
