<svg xmlns="http://www.w3.org/2000/svg" width="329.001" height="272.617" viewBox="0 0 329.001 272.617">
  <g id="Group_55" data-name="Group 55" transform="translate(0)">
    <line id="Line_37" data-name="Line 37" x2="292.803" transform="translate(13.245 208.267)" fill="none" stroke="#fff" stroke-width="1"/>
    <g id="Group_50" data-name="Group 50">
      <g id="Group_103" data-name="Group 103">
        <line id="Line_38" data-name="Line 38" y1="0.22" x2="98.519" transform="translate(0.001 145)" fill="none" stroke="#fff" stroke-width="1"/>
        <line id="Line_39" data-name="Line 39" x2="98.481" transform="translate(230.52 145.219)" fill="none" stroke="#fff" stroke-width="1"/>
      </g>
    </g>
    <line id="Line_40" data-name="Line 40" x2="289.472" transform="translate(15.101 68.216)" fill="none" stroke="#fff" stroke-width="1"/>
    <g id="Group_52" data-name="Group 52">
      <g id="Group_102" data-name="Group 102">
        <line id="Line_41" data-name="Line 41" y2="86" transform="translate(162.52)" fill="none" stroke="#fff" stroke-width="1"/>
        <path id="Path_188" data-name="Path 188" d="M0,0V78.617" transform="translate(162.52 194)" fill="none" stroke="#fff" stroke-width="1"/>
      </g>
    </g>
    <line id="Line_43" data-name="Line 43" y2="198.961" transform="translate(268.122 37.751)" fill="none" stroke="#fff" stroke-width="1"/>
    <line id="Line_44" data-name="Line 44" y2="191.799" transform="translate(51.895 35.823)" fill="none" stroke="#fff" stroke-width="1"/>
    <rect id="Rectangle_30" data-name="Rectangle 30" width="7.375" height="7.949" transform="translate(298.673 232.633)" fill="#adadad"/>
    <rect id="Rectangle_31" data-name="Rectangle 31" width="7.375" height="7.949" transform="translate(94.673 39.212)" fill="#adadad"/>
    <rect id="Rectangle_32" data-name="Rectangle 32" width="7.375" height="7.949" transform="translate(118.673 253.137)" fill="#adadad"/>
    <g id="Group_54" data-name="Group 54">
      <g id="Group_104" data-name="Group 104">
        <path id="Path_131" data-name="Path 131" d="M187.294,105.2a.543.543,0,0,0-.78,0l-7.92,7.92-4.35-4.351a.543.543,0,0,0-.78,0,.556.556,0,0,0,0,.791l4.74,4.729a.562.562,0,0,0,.78,0l8.31-8.3a.554.554,0,0,0,0-.789m-4.49,52.739h-42.17a.555.555,0,0,0,0,1.11H182.8a.555.555,0,0,0,0-1.11m0-9.54h-42.17a.556.556,0,0,0,0,1.111H182.8a.556.556,0,0,0,0-1.111m0-9.55h-42.17a.555.555,0,0,0,0,1.11H182.8a.555.555,0,0,0,0-1.11m0-9.539h-42.17a.555.555,0,0,0,0,1.11H182.8a.555.555,0,0,0,0-1.11m-21.22-9.561h-20.95a.557.557,0,0,0-.55.561.548.548,0,0,0,.55.549h20.95a.548.548,0,0,0,.55-.549.557.557,0,0,0-.55-.561m.13-9.54h-21.08a.555.555,0,0,0,0,1.11h21.08a.555.555,0,1,0,0-1.11m21.09,19.1h-42.17a.555.555,0,0,0,0,1.11H182.8a.555.555,0,0,0,0-1.11m0,9.539h-42.17a.555.555,0,0,0,0,1.11H182.8a.555.555,0,0,0,0-1.11m0,9.55h-42.17a.556.556,0,0,0,0,1.111H182.8a.556.556,0,0,0,0-1.111m0,9.54h-42.17a.555.555,0,0,0,0,1.11H182.8a.555.555,0,0,0,0-1.11m-21.09-47.73h-21.08a.555.555,0,0,0,0,1.11h21.08a.555.555,0,1,0,0-1.11m-.13,9.54h-20.95a.557.557,0,0,0-.55.561.548.548,0,0,0,.55.549h20.95a.548.548,0,0,0,.55-.549.557.557,0,0,0-.55-.561m25.71-14.549a.543.543,0,0,0-.78,0l-7.92,7.92-4.35-4.351a.543.543,0,0,0-.78,0,.556.556,0,0,0,0,.791l4.74,4.729a.562.562,0,0,0,.78,0l8.31-8.3a.554.554,0,0,0,0-.789m-25.71,14.549h-20.95a.557.557,0,0,0-.55.561.548.548,0,0,0,.55.549h20.95a.548.548,0,0,0,.55-.549.557.557,0,0,0-.55-.561m.13-9.54h-21.08a.555.555,0,0,0,0,1.11h21.08a.555.555,0,1,0,0-1.11m21.09,47.73h-42.17a.555.555,0,0,0,0,1.11H182.8a.555.555,0,0,0,0-1.11m0-9.54h-42.17a.556.556,0,0,0,0,1.111H182.8a.556.556,0,0,0,0-1.111m0-9.55h-42.17a.555.555,0,0,0,0,1.11H182.8a.555.555,0,0,0,0-1.11m0-9.539h-42.17a.555.555,0,0,0,0,1.11H182.8a.555.555,0,0,0,0-1.11m4.49-24.11a.543.543,0,0,0-.78,0l-7.92,7.92-4.35-4.351a.543.543,0,0,0-.78,0,.556.556,0,0,0,0,.791l4.74,4.729a.562.562,0,0,0,.78,0l8.31-8.3a.554.554,0,0,0,0-.789m0,0a.543.543,0,0,0-.78,0l-7.92,7.92-4.35-4.351a.543.543,0,0,0-.78,0,.556.556,0,0,0,0,.791l4.74,4.729a.562.562,0,0,0,.78,0l8.31-8.3a.554.554,0,0,0,0-.789m-4.49,24.11h-42.17a.555.555,0,0,0,0,1.11H182.8a.555.555,0,0,0,0-1.11m0,9.539h-42.17a.555.555,0,0,0,0,1.11H182.8a.555.555,0,0,0,0-1.11m0,9.55h-42.17a.556.556,0,0,0,0,1.111H182.8a.556.556,0,0,0,0-1.111m0,9.54h-42.17a.555.555,0,0,0,0,1.11H182.8a.555.555,0,0,0,0-1.11m-21.09-47.73h-21.08a.555.555,0,0,0,0,1.11h21.08a.555.555,0,1,0,0-1.11m-.13,9.54h-20.95a.557.557,0,0,0-.55.561.548.548,0,0,0,.55.549h20.95a.548.548,0,0,0,.55-.549.557.557,0,0,0-.55-.561m0,0h-20.95a.557.557,0,0,0-.55.561.548.548,0,0,0,.55.549h20.95a.548.548,0,0,0,.55-.549.557.557,0,0,0-.55-.561m.13-9.54h-21.08a.555.555,0,0,0,0,1.11h21.08a.555.555,0,1,0,0-1.11m21.09,47.73h-42.17a.555.555,0,0,0,0,1.11H182.8a.555.555,0,0,0,0-1.11m0-9.54h-42.17a.556.556,0,0,0,0,1.111H182.8a.556.556,0,0,0,0-1.111m0-9.55h-42.17a.555.555,0,0,0,0,1.11H182.8a.555.555,0,0,0,0-1.11m0-9.539h-42.17a.555.555,0,0,0,0,1.11H182.8a.555.555,0,0,0,0-1.11m4.49-24.11a.543.543,0,0,0-.78,0l-7.92,7.92-4.35-4.351a.543.543,0,0,0-.78,0,.556.556,0,0,0,0,.791l4.74,4.729a.562.562,0,0,0,.78,0l8.31-8.3a.554.554,0,0,0,0-.789m-4.49,24.11h-42.17a.555.555,0,0,0,0,1.11H182.8a.555.555,0,0,0,0-1.11m0,9.539h-42.17a.555.555,0,0,0,0,1.11H182.8a.555.555,0,0,0,0-1.11m0,9.55h-42.17a.556.556,0,0,0,0,1.111H182.8a.556.556,0,0,0,0-1.111m0,9.54h-42.17a.555.555,0,0,0,0,1.11H182.8a.555.555,0,0,0,0-1.11m-21.09-47.73h-21.08a.555.555,0,0,0,0,1.11h21.08a.555.555,0,1,0,0-1.11m-.13,9.54h-20.95a.557.557,0,0,0-.55.561.548.548,0,0,0,.55.549h20.95a.548.548,0,0,0,.55-.549.557.557,0,0,0-.55-.561m25.71-14.549a.543.543,0,0,0-.78,0l-7.92,7.92-4.35-4.351a.543.543,0,0,0-.78,0,.556.556,0,0,0,0,.791l4.74,4.729a.562.562,0,0,0,.78,0l8.31-8.3a.554.554,0,0,0,0-.789m-25.71,14.549h-20.95a.557.557,0,0,0-.55.561.548.548,0,0,0,.55.549h20.95a.548.548,0,0,0,.55-.549.557.557,0,0,0-.55-.561m.13-9.54h-21.08a.555.555,0,0,0,0,1.11h21.08a.555.555,0,1,0,0-1.11m21.09,47.73h-42.17a.555.555,0,0,0,0,1.11H182.8a.555.555,0,0,0,0-1.11m0-9.54h-42.17a.556.556,0,0,0,0,1.111H182.8a.556.556,0,0,0,0-1.111m0-9.55h-42.17a.555.555,0,0,0,0,1.11H182.8a.555.555,0,0,0,0-1.11m0-9.539h-42.17a.555.555,0,0,0,0,1.11H182.8a.555.555,0,0,0,0-1.11m4.49-24.11a.543.543,0,0,0-.78,0l-7.92,7.92-4.35-4.351a.543.543,0,0,0-.78,0,.556.556,0,0,0,0,.791l4.74,4.729a.562.562,0,0,0,.78,0l8.31-8.3a.554.554,0,0,0,0-.789m-46.66,25.22H182.8a.555.555,0,0,0,0-1.11h-42.17a.555.555,0,0,0,0,1.11m42.17,8.429h-42.17a.555.555,0,0,0,0,1.11H182.8a.555.555,0,0,0,0-1.11m0,9.55h-42.17a.556.556,0,0,0,0,1.111H182.8a.556.556,0,0,0,0-1.111m0,9.54h-42.17a.555.555,0,0,0,0,1.11H182.8a.555.555,0,0,0,0-1.11m-42.17-46.62h21.08a.555.555,0,1,0,0-1.11h-21.08a.555.555,0,0,0,0,1.11m0,9.54h20.95a.548.548,0,0,0,.55-.549.557.557,0,0,0-.55-.561h-20.95a.557.557,0,0,0-.55.561.548.548,0,0,0,.55.549m46.66-15.659a.543.543,0,0,0-.78,0l-7.92,7.92-4.35-4.351a.543.543,0,0,0-.78,0,.556.556,0,0,0,0,.791l4.74,4.729a.562.562,0,0,0,.78,0l8.31-8.3a.554.554,0,0,0,0-.789m11.97,60.8h-7.29v-48.35l.07-.119a13.754,13.754,0,0,0-4.68-18.86,13.823,13.823,0,0,0-17.09,2.349l-.15.151h-45.54a7.29,7.29,0,0,0-7.27,7.28v6.709a.559.559,0,0,0,.56.56h12.88v57.47a7.208,7.208,0,0,0,7.2,7.2H192.6a7.208,7.208,0,0,0,7.2-7.2v-6.64a.54.54,0,0,0-.54-.55m-24.43-66.96a12.888,12.888,0,0,1,4.79-1.22v-.009l.64-.011a12.64,12.64,0,0,1-.01,25.28h-.01a12.578,12.578,0,0,1-6.49-1.8.536.536,0,0,0-.52-.031l-8.18,3.7,3.8-8.591a.55.55,0,0,0,0-.469,12.647,12.647,0,0,1,5.98-16.851m-44.08,15.581h-12.34v-6.17a6.183,6.183,0,0,1,6.17-6.091h.08a6.14,6.14,0,0,1,6.09,6.091Zm7.19,64.679a6.094,6.094,0,0,1-6.09-6.09V108.447a7.3,7.3,0,0,0-2.3-5.3l-.93-.869h40.54l-.49.769a13.725,13.725,0,0,0-1.03,12.9l.09.2-3.35,7.551a1.454,1.454,0,0,0,.74,1.909,1.422,1.422,0,0,0,.58.121,1.63,1.63,0,0,0,.61-.131l7.11-3.209.22.12a13.8,13.8,0,0,0,16.35-2.361l.86-.86v46.721h-46.27a.55.55,0,0,0-.55.559v6.64a6.1,6.1,0,0,1-6.09,6.09m60.76-6.09a6.111,6.111,0,0,1-6.1,6.1h-50.63l.92-.86a7.186,7.186,0,0,0,2.25-5.24v-6.1H198.7Zm-20.5-58.92a.562.562,0,0,0,.78,0l8.31-8.3a.554.554,0,0,0,0-.789.543.543,0,0,0-.78,0l-7.92,7.92-4.35-4.351a.543.543,0,0,0-.78,0,.556.556,0,0,0,0,.791Zm-37.57,16.131H182.8a.555.555,0,0,0,0-1.11h-42.17a.555.555,0,0,0,0,1.11m0,9.539H182.8a.555.555,0,0,0,0-1.11h-42.17a.555.555,0,0,0,0,1.11m0,9.551H182.8a.556.556,0,0,0,0-1.111h-42.17a.556.556,0,0,0,0,1.111m42.72,8.989a.557.557,0,0,0-.55-.56h-42.17a.555.555,0,0,0,0,1.11H182.8a.555.555,0,0,0,.55-.55m-42.72-47.18h21.08a.555.555,0,1,0,0-1.11h-21.08a.555.555,0,0,0,0,1.11m0,9.54h20.95a.548.548,0,0,0,.55-.549.557.557,0,0,0-.55-.561h-20.95a.557.557,0,0,0-.55.561.548.548,0,0,0,.55.549m46.66-15.659a.543.543,0,0,0-.78,0l-7.92,7.92-4.35-4.351a.543.543,0,0,0-.78,0,.556.556,0,0,0,0,.791l4.74,4.729a.562.562,0,0,0,.78,0l8.31-8.3a.554.554,0,0,0,0-.789m-25.71,14.549h-20.95a.557.557,0,0,0-.55.561.548.548,0,0,0,.55.549h20.95a.548.548,0,0,0,.55-.549.557.557,0,0,0-.55-.561m.13-9.54h-21.08a.555.555,0,0,0,0,1.11h21.08a.555.555,0,1,0,0-1.11m21.09,47.73h-42.17a.555.555,0,0,0,0,1.11H182.8a.555.555,0,0,0,0-1.11m0-9.54h-42.17a.556.556,0,0,0,0,1.111H182.8a.556.556,0,0,0,0-1.111m0-9.55h-42.17a.555.555,0,0,0,0,1.11H182.8a.555.555,0,0,0,0-1.11m0-9.539h-42.17a.555.555,0,0,0,0,1.11H182.8a.555.555,0,0,0,0-1.11m4.49-24.11a.543.543,0,0,0-.78,0l-7.92,7.92-4.35-4.351a.543.543,0,0,0-.78,0,.556.556,0,0,0,0,.791l4.74,4.729a.562.562,0,0,0,.78,0l8.31-8.3a.554.554,0,0,0,0-.789m-4.49,24.11h-42.17a.555.555,0,0,0,0,1.11H182.8a.555.555,0,0,0,0-1.11m0,9.539h-42.17a.555.555,0,0,0,0,1.11H182.8a.555.555,0,0,0,0-1.11m0,9.55h-42.17a.556.556,0,0,0,0,1.111H182.8a.556.556,0,0,0,0-1.111m0,9.54h-42.17a.555.555,0,0,0,0,1.11H182.8a.555.555,0,0,0,0-1.11m-21.09-47.73h-21.08a.555.555,0,0,0,0,1.11h21.08a.555.555,0,1,0,0-1.11m-.13,9.54h-20.95a.557.557,0,0,0-.55.561.548.548,0,0,0,.55.549h20.95a.548.548,0,0,0,.55-.549.557.557,0,0,0-.55-.561m0,0h-20.95a.557.557,0,0,0-.55.561.548.548,0,0,0,.55.549h20.95a.548.548,0,0,0,.55-.549.557.557,0,0,0-.55-.561m.13-9.54h-21.08a.555.555,0,0,0,0,1.11h21.08a.555.555,0,1,0,0-1.11m21.09,47.73h-42.17a.555.555,0,0,0,0,1.11H182.8a.555.555,0,0,0,0-1.11m0-9.54h-42.17a.556.556,0,0,0,0,1.111H182.8a.556.556,0,0,0,0-1.111m0-9.55h-42.17a.555.555,0,0,0,0,1.11H182.8a.555.555,0,0,0,0-1.11m0-9.539h-42.17a.555.555,0,0,0,0,1.11H182.8a.555.555,0,0,0,0-1.11m4.49-24.11a.543.543,0,0,0-.78,0l-7.92,7.92-4.35-4.351a.543.543,0,0,0-.78,0,.556.556,0,0,0,0,.791l4.74,4.729a.562.562,0,0,0,.78,0l8.31-8.3a.554.554,0,0,0,0-.789m0,0a.543.543,0,0,0-.78,0l-7.92,7.92-4.35-4.351a.543.543,0,0,0-.78,0,.556.556,0,0,0,0,.791l4.74,4.729a.562.562,0,0,0,.78,0l8.31-8.3a.554.554,0,0,0,0-.789m-4.49,24.11h-42.17a.555.555,0,0,0,0,1.11H182.8a.555.555,0,0,0,0-1.11m0,9.539h-42.17a.555.555,0,0,0,0,1.11H182.8a.555.555,0,0,0,0-1.11m0,9.55h-42.17a.556.556,0,0,0,0,1.111H182.8a.556.556,0,0,0,0-1.111m0,9.54h-42.17a.555.555,0,0,0,0,1.11H182.8a.555.555,0,0,0,0-1.11m-21.09-47.73h-21.08a.555.555,0,0,0,0,1.11h21.08a.555.555,0,1,0,0-1.11m-.13,9.54h-20.95a.557.557,0,0,0-.55.561.548.548,0,0,0,.55.549h20.95a.548.548,0,0,0,.55-.549.557.557,0,0,0-.55-.561m0,0h-20.95a.557.557,0,0,0-.55.561.548.548,0,0,0,.55.549h20.95a.548.548,0,0,0,.55-.549.557.557,0,0,0-.55-.561m.13-9.54h-21.08a.555.555,0,0,0,0,1.11h21.08a.555.555,0,1,0,0-1.11m21.09,47.73h-42.17a.555.555,0,0,0,0,1.11H182.8a.555.555,0,0,0,0-1.11m0-9.54h-42.17a.556.556,0,0,0,0,1.111H182.8a.556.556,0,0,0,0-1.111m0-9.55h-42.17a.555.555,0,0,0,0,1.11H182.8a.555.555,0,0,0,0-1.11m0-9.539h-42.17a.555.555,0,0,0,0,1.11H182.8a.555.555,0,0,0,0-1.11m4.49-24.11a.543.543,0,0,0-.78,0l-7.92,7.92-4.35-4.351a.543.543,0,0,0-.78,0,.556.556,0,0,0,0,.791l4.74,4.729a.562.562,0,0,0,.78,0l8.31-8.3a.554.554,0,0,0,0-.789m0,0a.543.543,0,0,0-.78,0l-7.92,7.92-4.35-4.351a.543.543,0,0,0-.78,0,.556.556,0,0,0,0,.791l4.74,4.729a.562.562,0,0,0,.78,0l8.31-8.3a.554.554,0,0,0,0-.789m-4.49,24.11h-42.17a.555.555,0,0,0,0,1.11H182.8a.555.555,0,0,0,0-1.11m0,9.539h-42.17a.555.555,0,0,0,0,1.11H182.8a.555.555,0,0,0,0-1.11m0,9.55h-42.17a.556.556,0,0,0,0,1.111H182.8a.556.556,0,0,0,0-1.111m0,9.54h-42.17a.555.555,0,0,0,0,1.11H182.8a.555.555,0,0,0,0-1.11m-21.09-47.73h-21.08a.555.555,0,0,0,0,1.11h21.08a.555.555,0,1,0,0-1.11m-.13,9.54h-20.95a.557.557,0,0,0-.55.561.548.548,0,0,0,.55.549h20.95a.548.548,0,0,0,.55-.549.557.557,0,0,0-.55-.561" fill="#fff"/>
      </g>
    </g>
  </g>
</svg>
