<svg xmlns="http://www.w3.org/2000/svg" width="330" height="232" viewBox="0 0 330 232">
  <g id="Group_77" data-name="Group 77" transform="translate(0 -32.327)">
    <g id="Group_8" data-name="Group 8">
      <g id="Group_118" data-name="Group 118">
        <line id="Line_1" data-name="Line 1" x2="330" transform="translate(0 204.583)" fill="none" stroke="#fff" stroke-width="1"/>
      </g>
    </g>
    <line id="Line_2" data-name="Line 2" x2="323.086" transform="translate(2.433 72.587)" fill="none" stroke="#fff" stroke-width="1"/>
    <g id="Group_10" data-name="Group 10">
      <g id="Group_119" data-name="Group 119">
        <line id="Line_3" data-name="Line 3" x2="133.331" transform="translate(196.5 138.585)" fill="none" stroke="#fff" stroke-width="1"/>
      </g>
    </g>
    <line id="Line_4" data-name="Line 4" y2="202.059" transform="translate(273.992 43.268)" fill="none" stroke="#fff" stroke-width="1"/>
    <g id="Group_12" data-name="Group 12">
      <g id="Group_115" data-name="Group 115">
        <line id="Line_5" data-name="Line 5" y2="187.838" transform="translate(206.654 32.327)" fill="none" stroke="#fff" stroke-width="1"/>
        <line id="Line_6" data-name="Line 6" y2="79.137" transform="translate(133.316 185.19)" fill="none" stroke="#fff" stroke-width="1"/>
      </g>
    </g>
    <line id="Line_7" data-name="Line 7" y2="187.581" transform="translate(59.979 47.746)" fill="none" stroke="#fff" stroke-width="1"/>
    <rect id="Rectangle_9" data-name="Rectangle 9" width="15.121" height="11.687" transform="translate(239.695 233.424)" fill="#adadad"/>
    <rect id="Rectangle_10" data-name="Rectangle 10" width="11.235" height="8.684" transform="translate(22.638 151.487)" fill="#adadad"/>
    <g id="Group_14" data-name="Group 14">
      <g id="Group_116" data-name="Group 116">
        <line id="Line_8" data-name="Line 8" x2="60" transform="translate(0.5 138.585)" fill="none" stroke="#fff" stroke-width="1"/>
        <path id="Path_90" data-name="Path 90" d="M114.71,110.54a.06.06,0,0,0,.04.01.254.254,0,0,0,.12-.02c-.06,0-.11.01-.16.01" fill="#fff" fill-rule="evenodd"/>
        <path id="Path_91" data-name="Path 91" d="M114.71,110.54a.06.06,0,0,0,.04.01.254.254,0,0,0,.12-.02c-.06,0-.11.01-.16.01m0,0a.06.06,0,0,0,.04.01.254.254,0,0,0,.12-.02c-.06,0-.11.01-.16.01m0,0a.06.06,0,0,0,.04.01.254.254,0,0,0,.12-.02c-.06,0-.11.01-.16.01m0,0a.06.06,0,0,0,.04.01.254.254,0,0,0,.12-.02c-.06,0-.11.01-.16.01m0,0a.06.06,0,0,0,.04.01.254.254,0,0,0,.12-.02c-.06,0-.11.01-.16.01m0,0a.06.06,0,0,0,.04.01.254.254,0,0,0,.12-.02c-.06,0-.11.01-.16.01m0,0a.06.06,0,0,0,.04.01.254.254,0,0,0,.12-.02c-.06,0-.11.01-.16.01m0,0a.06.06,0,0,0,.04.01.254.254,0,0,0,.12-.02c-.06,0-.11.01-.16.01m0,0a.06.06,0,0,0,.04.01.254.254,0,0,0,.12-.02c-.06,0-.11.01-.16.01m0,0a.06.06,0,0,0,.04.01.254.254,0,0,0,.12-.02c-.06,0-.11.01-.16.01m0,0a.06.06,0,0,0,.04.01.254.254,0,0,0,.12-.02c-.06,0-.11.01-.16.01m0,0a.06.06,0,0,0,.04.01.254.254,0,0,0,.12-.02c-.06,0-.11.01-.16.01m0,0a.06.06,0,0,0,.04.01.254.254,0,0,0,.12-.02c-.06,0-.11.01-.16.01"/>
        <path id="Path_92" data-name="Path 92" d="M100.77,86.24a.508.508,0,0,0-.1.29.528.528,0,0,1,.01-.13.367.367,0,0,1,.09-.16" fill="#fff" fill-rule="evenodd"/>
        <path id="Path_93" data-name="Path 93" d="M134.24,86.53a.453.453,0,0,0-.03-.16c.01.01.02.02.02.03a.528.528,0,0,1,.01.13" fill="#fff" fill-rule="evenodd"/>
        <path id="Path_94" data-name="Path 94" d="M134.23,86.4c0-.01-.01-.02-.02-.03a.453.453,0,0,1,.03.16.528.528,0,0,0-.01-.13m-33.55,0a.528.528,0,0,0-.01.13.508.508,0,0,1,.1-.29.367.367,0,0,0-.09.16"/>
        <path id="Path_95" data-name="Path 95" d="M114.87,110.53a.254.254,0,0,1-.12.02.06.06,0,0,1-.04-.01c.05,0,.1-.01.16-.01" fill="#fff" fill-rule="evenodd"/>
        <path id="Path_98" data-name="Path 98" d="M100.77,86.24a.508.508,0,0,0-.1.29.528.528,0,0,1,.01-.13.367.367,0,0,1,.09-.16" fill="#fff" fill-rule="evenodd"/>
        <path id="Path_99" data-name="Path 99" d="M134.24,86.53a.453.453,0,0,0-.03-.16c.01.01.02.02.02.03a.528.528,0,0,1,.01.13" fill="#fff" fill-rule="evenodd"/>
        <g id="Group_79" data-name="Group 79" transform="translate(87.862 98.978)">
          <g id="Group_117" data-name="Group 117" transform="translate(0 0)">
            <path id="Path_156" data-name="Path 156" d="M92.567,31.577h-.005a7.153,7.153,0,0,0-3.574-1.037,7.508,7.508,0,0,0-5.273,2.51.367.367,0,0,0-.1.172.383.383,0,0,0,.274.468,7.713,7.713,0,0,1,3.418,1.8,9.563,9.563,0,0,1,2.187,3.23.373.373,0,0,0,.21.2.385.385,0,0,0,.489-.215.377.377,0,0,0-.005-.3l-.328-.752h.005a8.892,8.892,0,0,0-4.3-4.2l-.833-.387.742-.537a5.779,5.779,0,0,1,6.708-.306.385.385,0,0,0,.521-.145.377.377,0,0,0-.14-.511M80.99,35.661l-.623-.382.543-.484a2.514,2.514,0,0,0-.876-4.267h-.812l.414-.79a15.767,15.767,0,0,0,2.08-6.96c0-2.677-1.4-4.31-3.929-4.606l-.484-.054.038-2.112c0-1.328-3.1-1.924-6.165-1.924s-6.165.6-6.165,1.935l.032,2.123-.505.038A4.205,4.205,0,0,0,61,20.639c-1.462,3.236.607,7.879,1.274,9.228l.258.511L62,30.6a2.619,2.619,0,0,0-.978.731,2.519,2.519,0,0,0,.355,3.531l.548.446-.575.408a24.623,24.623,0,0,0-5.2,4.961l-.161.2H51.87V20.827a.383.383,0,0,0-.382-.382H41.653V.382A.386.386,0,0,0,41.54.108.361.361,0,0,0,41.277,0H20.827a.383.383,0,0,0-.382.382V20.446H10.593a.376.376,0,0,0-.365.376V40.88H.382A.389.389,0,0,0,0,41.272V61.707a.383.383,0,0,0,.382.382H50.22l.1.414a14.471,14.471,0,0,0,4.6,7.573c3.547,3.08,8.728,4.644,15.393,4.644,11.373,0,19.236-4.8,21.574-13.168,2.585-9.25-2.2-20.622-10.889-25.89M61.265,23.273c0-3.23,1.822-4.138,3.354-4.337l.511-.064,1.3,7.385a.4.4,0,0,0,.156.247.386.386,0,0,0,.6-.376L65.828,18.4l-.043-2.381c0-.564.4-.774,3.069-1.064a22.4,22.4,0,0,1,4.649,0c2.693.3,3.074.489,3.074,1.053l-.064,2.51-1.338,7.605a.382.382,0,0,0,.312.435.354.354,0,0,0,.285-.059.362.362,0,0,0,.156-.247l1.306-7.379.5.059a3.27,3.27,0,0,1,2.854,1.86c1.4,3.112-1.451,8.325-2.037,9.341l-.15.269H63.415l-.15-.285a15.363,15.363,0,0,1-2-6.847m.468,10.873a1.744,1.744,0,0,1,1.242-2.972h16.28a1.744,1.744,0,0,1,0,3.488H62.948a1.724,1.724,0,0,1-1.215-.516M51.113,40.88H31.431V21.2H51.113ZM21.208.769H40.885V20.446H21.208ZM10.991,21.2H30.668V40.88H10.991Zm9.454,40.122H.769V41.649H20.445Zm20.44,0H21.208V41.649H40.885Zm9.083-.613.086.613h-8.4V41.649H55.385l-.564.838c-3.859,5.7-5.67,12.512-4.853,18.225m37.015,7.7a18.325,18.325,0,0,1-7.051,4.128A30.676,30.676,0,0,1,70.3,73.95c-11.233,0-18.166-4.622-19.531-13.017a22.808,22.808,0,0,1,.984-10.427,29.765,29.765,0,0,1,4.654-8.933c.064-.07.075-.086.075-.091l.043-.064A23.176,23.176,0,0,1,63.1,35.505l.129-.075H78.98l.113.054a23.469,23.469,0,0,1,11.6,13.877c2.381,7.358.994,14.479-3.708,19.053" transform="translate(0 0)" fill="#fff"/>
            <path id="Path_157" data-name="Path 157" d="M132.838,97.558c0,1.629-1.548,2.628-2.988,2.875l-.451.075v1.967a.355.355,0,0,1-.118.263.373.373,0,0,1-.274.113.39.39,0,0,1-.376-.36v-1.983l-.446-.075c-1.44-.247-2.994-1.252-2.994-2.859a.388.388,0,0,1,.392-.376h.005a.37.37,0,0,1,.371.36,2.054,2.054,0,0,0,1.29,1.774,3.933,3.933,0,0,0,3.95-.247,1.948,1.948,0,0,0,.876-1.526c0-1.645-1.688-1.935-3.176-2.193-2.236-.387-3.709-.806-3.709-2.935,0-1.623,1.553-2.634,2.994-2.881l.446-.075V87.513a.4.4,0,0,1,.4-.382.381.381,0,0,1,.371.36v1.983l.446.075c1.446.247,2.994,1.252,2.994,2.865a.381.381,0,0,1-.392.376.39.39,0,0,1-.376-.36,2.049,2.049,0,0,0-1.285-1.779,3.935,3.935,0,0,0-3.945.247,1.9,1.9,0,0,0-.881,1.489l-.005.043c0,1.639,1.688,1.929,3.176,2.187,2.241.392,3.708.806,3.708,2.94" transform="translate(-57.905 -40.301)" fill="#fff"/>
          </g>
        </g>
      </g>
    </g>
  </g>
</svg>
