<svg xmlns="http://www.w3.org/2000/svg" xmlns:xlink="http://www.w3.org/1999/xlink" width="100" height="100" viewBox="0 0 100 100">
  <defs>
    <clipPath id="clip-path">
      <rect id="Rectangle_4" data-name="Rectangle 4" width="100" height="100" fill="#fff"/>
    </clipPath>
  </defs>
  <g id="Mask_Group_6" data-name="Mask Group 6" clip-path="url(#clip-path)">
    <g id="Group_109" data-name="Group 109" transform="translate(-1121.999 -2267.63)">
      <path id="Path_124" data-name="Path 124" d="M107.333,34.825a2.234,2.234,0,0,0-2.314,2.14v84.4a2,2,0,0,0,.69,1.493,2.5,2.5,0,0,0,1.667.618h94.282a2.124,2.124,0,1,0,0-4.222H109.725v-4.225h2.357a2.124,2.124,0,1,0,0-4.222h-2.357V106.6h2.357a2.119,2.119,0,1,0,0-4.219h-2.357V98.156h2.357a2.51,2.51,0,0,0,1.7-.6,1.959,1.959,0,0,0,0-3.018,2.51,2.51,0,0,0-1.7-.6h-2.357V89.715h2.357a2.119,2.119,0,1,0,0-4.219h-2.357V81.273h2.357a2.528,2.528,0,0,0,1.763-.567,1.964,1.964,0,0,0,0-3.08,2.528,2.528,0,0,0-1.763-.567h-2.357V72.837h2.357a2.119,2.119,0,1,0,0-4.219h-2.357V64.4h2.357a2.119,2.119,0,1,0,0-4.219h-2.357V55.954h2.357a2.119,2.119,0,1,0,0-4.219h-2.357V47.513h2.357a2.523,2.523,0,0,0,1.753-.573,1.961,1.961,0,0,0,0-3.066,2.52,2.52,0,0,0-1.753-.573h-2.357V36.968a2,2,0,0,0-.688-1.525,2.5,2.5,0,0,0-1.7-.618Z" transform="translate(1016.98 2238.043)" stroke="#000" stroke-width="0.25" fill-rule="evenodd"/>
      <path id="Path_125" data-name="Path 125" d="M239.473,151.644a2.239,2.239,0,0,0,0,4.476H247.5l-43.823,43.826-7.369-7.369a2.237,2.237,0,0,0-3.16,0l-17.894,17.9a2.237,2.237,0,1,0,3.16,3.163l16.321-16.321,7.366,7.366a2.237,2.237,0,0,0,3.16,0l11.856-11.858,7.47,7.262a6.622,6.622,0,0,0-.771,3.09,6.71,6.71,0,1,0,13.113-2l7.791-5.844a6.692,6.692,0,1,0-2.7-3.572l-7.781,5.839a6.606,6.606,0,0,0-6.395-.565l-7.577-7.369,30.392-30.4V167.3a2.239,2.239,0,0,0,4.476,0V153.87a2.237,2.237,0,0,0-2.237-2.237ZM199.2,165.155a6.74,6.74,0,0,0-6.705,6.713,6.645,6.645,0,0,0,.31,2.008l-7.791,5.843a6.645,6.645,0,0,0-3.708-1.134,6.713,6.713,0,1,0,6.713,6.713,6.605,6.605,0,0,0-.313-2.007l7.789-5.838a6.622,6.622,0,0,0,6.381.567l10.5,10.2,3.155-3.155-10.387-10.1a6.622,6.622,0,0,0,.773-3.1,6.748,6.748,0,0,0-6.713-6.713Zm0,4.474a2.239,2.239,0,1,1-2.229,2.237,2.2,2.2,0,0,1,2.229-2.237Zm-17.894,13.429a2.237,2.237,0,1,1-2.237,2.237,2.2,2.2,0,0,1,2.237-2.237Zm67.12,4.474a2.239,2.239,0,1,1-2.237,2.237,2.2,2.2,0,0,1,2.237-2.237Zm-17.894,13.421a2.237,2.237,0,1,1-2.237,2.237,2.2,2.2,0,0,1,2.237-2.237Z" transform="translate(963.508 2132.925)" stroke="#000" stroke-width="0.25"/>
    </g>
  </g>
</svg>
