<svg xmlns="http://www.w3.org/2000/svg" height="24" viewBox="0 -960 960 960" width="24"><path fill="#ffffff" d="M212.309-140.001q-29.923 0-51.115-21.193-21.193-21.192-21.193-51.115v-535.382q0-29.923 21.193-51.115 21.192-21.193 51.115-21.193h178q3.769-33.307 29.076-56.653 25.308-23.347 60.615-23.347 35.692 0 60.999 23.347 25.308 23.346 28.692 56.653h178q29.923 0 51.115 21.193 21.193 21.192 21.193 51.115v535.382q0 29.923-21.193 51.115-21.192 21.193-51.115 21.193H212.309Zm0-59.999h535.382q4.616 0 8.463-3.846 3.846-3.847 3.846-8.463v-535.382q0-4.616-3.846-8.463-3.847-3.846-8.463-3.846H212.309q-4.616 0-8.463 3.846-3.846 3.847-3.846 8.463v535.382q0 4.616 3.846 8.463 3.847 3.846 8.463 3.846Zm77.692-94.616h259.998v-59.999H290.001v59.999Zm0-155.385h379.998v-59.998H290.001v59.998Zm0-155.384h379.998v-59.999H290.001v59.999ZM480-786.154q13 0 21.5-8.5t8.5-21.5q0-13-8.5-21.5t-21.5-8.5q-13 0-21.5 8.5t-8.5 21.5q0 13 8.5 21.5t21.5 8.5ZM200-200V-760-200Z"/></svg>