<svg id="Layer_1" data-name="Layer 1" xmlns="http://www.w3.org/2000/svg" viewBox="0 0 100 100"><defs><style>.cls-1{fill:#fff;}</style></defs><path class="cls-1" d="M97.539,18.66a38.889,38.889,0,0,1-6.771,2.2834,21.1124,21.1124,0,0,0,5.5727-8.8748h0a1.1071,1.1071,0,0,0-1.6193-1.2893h0A39.0707,39.0707,0,0,1,84.37,15.0557a2.6373,2.6373,0,0,1-.6469.0805,2.7436,2.7436,0,0,1-1.8124-.6922A21.1711,21.1711,0,0,0,67.9021,9.1572a22.637,22.637,0,0,0-6.7072,1.0355A20.5112,20.5112,0,0,0,47.3714,24.971a22.584,22.584,0,0,0-.5021,7.7957.7583.7583,0,0,1-.1908.5941.785.785,0,0,1-.584.2648c-.0246,0-.05-.0012-.0752-.0036A55.5141,55.5141,0,0,1,7.8637,13.2373h0a1.1069,1.1069,0,0,0-1.8143.1419h0a21.1957,21.1957,0,0,0,3.4444,25.735,18.974,18.974,0,0,1-4.829-1.8695h0a1.1069,1.1069,0,0,0-1.6444.9541h0a21.198,21.198,0,0,0,12.3654,19.53q-.2259.0053-.452.0052a19.0487,19.0487,0,0,1-3.567-.34h0a1.1071,1.1071,0,0,0-1.262,1.4251h0a21.219,21.219,0,0,0,16.76,14.4321A39.0677,39.0677,0,0,1,4.9839,79.8955l-2.4486-.0014A1.6212,1.6212,0,0,0,.9506,81.1166,1.6772,1.6772,0,0,0,1.7534,82.97a58.1094,58.1094,0,0,0,29.1991,7.873,58.9052,58.9052,0,0,0,24.9527-5.2935,55.102,55.102,0,0,0,18.2575-13.681A59.9814,59.9814,0,0,0,85.3419,53.145a59.1456,59.1456,0,0,0,3.8-20.4922v-.3223A3.6026,3.6026,0,0,1,90.49,29.5263a41.844,41.844,0,0,0,8.4182-9.24h0A1.107,1.107,0,0,0,97.539,18.66Z"/></svg>