<svg xmlns="http://www.w3.org/2000/svg" width="99.737" height="95.495" viewBox="0 0 99.737 95.495">
  <g id="Illustration" transform="translate(-45.05 -54.23)">
    <path id="Path_83755" data-name="Path 83755" d="M371.181,180.376c-.385-.909-.763-1.823-1.127-2.744-.183-.464-.364-.928-.536-1.392s-.327-.942-.482-1.41c-.232-.682-.464-1.359-.7-2.036-.2-.6-.411-1.192-.638-1.777-.111-.292-.232-.582-.355-.863a4.461,4.461,0,0,0-.413-.772c-.232-.376-.893-.29-1.352,0-.058.037-.111.074-.165.116a1.846,1.846,0,0,0-.162.146,4.151,4.151,0,0,0-.306.327c-.2.232-.392.485-.608.733a3.853,3.853,0,0,1-.652.619,3.343,3.343,0,0,1-.812.411,14.523,14.523,0,0,1-1.647.475l-.534.116-.257.056a1.6,1.6,0,0,0-.232.067,2.032,2.032,0,0,0-.8.489,2.287,2.287,0,0,0-.582,1.758c.042.4-.135.418-.364.051a1.74,1.74,0,0,1-.213-.854,2.067,2.067,0,0,1,.418-1.246,2.663,2.663,0,0,1,1.048-.8,2.105,2.105,0,0,1,.306-.111,2.141,2.141,0,0,1,.309-.077l.536-.107a12.293,12.293,0,0,0,2.025-.566,3.926,3.926,0,0,0,1.452-1.334,5.73,5.73,0,0,1,.4-.434,2.8,2.8,0,0,1,.232-.206,2.235,2.235,0,0,1,.274-.193,2.206,2.206,0,0,1,1.278-.32,1.236,1.236,0,0,1,.807.373l.141.169c.037.056.067.107.1.16a3.33,3.33,0,0,1,.174.318c.216.42.39.844.559,1.269.341.851.649,1.712.939,2.57.322.939.622,1.895.958,2.811s.724,1.844,1.1,2.758q.7,1.691,1.45,3.363c.756,1.689,1.533,3.377,2.373,5.008.654,1.266,1.35,2.479,2.106,3.658.167.257.339.506.515.758.654.939.872,1.171.928,1.468a1.643,1.643,0,0,1,.056.2c0,.093-.1.1-.32-.014a3.016,3.016,0,0,1-.761-.684A23.113,23.113,0,0,1,375.5,189.4c-.649-1.16-1.257-2.352-1.844-3.558-.87-1.793-1.686-3.618-2.479-5.451Z" transform="translate(-240.555 -87.761)" fill="#221f1f"/>
    <path id="Path_83756" data-name="Path 83756" d="M343.735,89.745c-1.417-.814-3.192-.677-4.715-1.264-1.343-.517-6.058-6.592-11.326-3.015-2.243,1.519-3.632,4.616-2.185,6.9,1.988,3.141,7.856,2.871,10.9,1.529,0,0-1.593,2.463-.784,4.493,0,0,1.009-.049,1-.311a6.38,6.38,0,0,1,1.176-3.187s1.728.116,1.51,1.712a1.983,1.983,0,0,1-.844,1.341,24.337,24.337,0,0,1,.3,3.635c2.468-.559,4.987-2.867,6.274-5.017C346.372,94.345,345.971,91.025,343.735,89.745Z" transform="translate(-214.953 -23.129)" fill="#221f1f"/>
    <path id="Path_83757" data-name="Path 83757" d="M335.893,97.833a1.1,1.1,0,0,1-.295.137,1.94,1.94,0,0,1-.2.049c-.065.014-.13.023-.193.032l-.1.014-.165.016-.325.021h-.081c-.016-.012-.019-.044-.028-.065l-.049-.141-.1-.285-.049-.141a.8.8,0,0,1-.021-.1,4.094,4.094,0,0,1-.049-1.51,6.541,6.541,0,0,1,.371-1.422c.039-.114.088-.232.137-.339l.035-.084v-.021l.019-.037c.019-.035.037-.07.06-.1s-.058.019-.088.026l-.329.1a13.09,13.09,0,0,1-1.287.3,14.463,14.463,0,0,1-2.628.232,9.742,9.742,0,0,1-3.943-.775,5.662,5.662,0,0,1-1.508-1.014,4.242,4.242,0,0,1-1.29-3.331,5.389,5.389,0,0,1,.431-1.753,6.834,6.834,0,0,1,.909-1.538,7.06,7.06,0,0,1,1.28-1.243,6.569,6.569,0,0,1,3.275-1.315,6.817,6.817,0,0,1,3.1.494,12.5,12.5,0,0,1,2.7,1.533c.533.39,1.046.8,1.552,1.215.253.206.5.413.758.6a2.653,2.653,0,0,0,.376.232,1.521,1.521,0,0,0,.209.079,2.092,2.092,0,0,0,.232.074,31.534,31.534,0,0,1,3.818.928c.1.044.176.084.244.121a1.214,1.214,0,0,1,.158.107c.077.063.1.1.081.123a1.915,1.915,0,0,1-.585-.065c-.339-.065-.8-.139-1.392-.2a16.7,16.7,0,0,1-2.032-.29c-.169-.042-.339-.086-.506-.137-.086-.023-.169-.056-.253-.086l-.125-.044c-.044-.016-.1-.044-.148-.067a3.307,3.307,0,0,1-.475-.306c-.141-.1-.274-.211-.406-.318-.522-.427-1.023-.851-1.542-1.25a11.533,11.533,0,0,0-3.356-1.89,5.6,5.6,0,0,0-3.711,0,6.52,6.52,0,0,0-3.015,2.266,6.391,6.391,0,0,0-.6.993,5.5,5.5,0,0,0-.369,1.1,4.438,4.438,0,0,0-.1,1.16l.035.285.016.144a.6.6,0,0,0,.032.139l.07.281c.028.09.067.179.1.269A3.885,3.885,0,0,0,326,92.795a6.555,6.555,0,0,0,2.176.928,11.732,11.732,0,0,0,3.693.213,12.99,12.99,0,0,0,1.839-.3c.151-.032.3-.074.45-.114l.232-.065c.079-.023.13-.035.271-.086.464-.141,1.016-.408,1.426-.552l-.394.642a6.515,6.515,0,0,0-.325.6l-.067.141-.032.067-.019.046-.077.181q-.072.183-.139.369a5.446,5.446,0,0,0-.3,1.529,3.884,3.884,0,0,0,.025.615l.056.3v.06l.014.044.028.086.014.044v.021h.1a2.431,2.431,0,0,0,.253-.037,1.327,1.327,0,0,0,.232-.06.172.172,0,0,0,.063-.044c.019-.019.012-.049.014-.074v-.183l.028-.218c.019-.146.051-.29.083-.431a6.236,6.236,0,0,1,.274-.823,7.888,7.888,0,0,1,.373-.772c.067-.128.139-.251.216-.371l.123-.2.176-.253a1.973,1.973,0,0,1,.257.026l.128.026a.4.4,0,0,1,.1.023,2.579,2.579,0,0,1,.362.128,1.64,1.64,0,0,1,.747.631,1.568,1.568,0,0,1,.2.953,1.932,1.932,0,0,1-.285.912,2.3,2.3,0,0,1-.29.378,2.223,2.223,0,0,1-.169.162l-.1.074.026.109.037.195c.023.139.044.278.063.415.035.278.058.557.077.833s.03.554.037.828v.946a.123.123,0,0,0,0,.028h.028l.232-.06a7.646,7.646,0,0,0,.735-.281,9,9,0,0,0,1.392-.782,12.351,12.351,0,0,0,2.758-2.612l.283-.378.264-.392.248-.4.211-.408a5.306,5.306,0,0,0,.464-1.779,5.652,5.652,0,0,0-.107-1.605,5.1,5.1,0,0,0-.186-.663,4.756,4.756,0,0,0-.232-.527,5.1,5.1,0,0,0-.464-.726c-.072-.09-.135-.172-.19-.248s-.118-.132-.167-.193c-.1-.121-.172-.232-.248-.311a2.953,2.953,0,0,1-.193-.25c-.056-.107.107-.063.464.128a3.732,3.732,0,0,1,1.243,1.362,5.678,5.678,0,0,1,.557,3.574,5.766,5.766,0,0,1-.605,1.774,10.671,10.671,0,0,1-1.039,1.529,12.931,12.931,0,0,1-2.7,2.531,9.542,9.542,0,0,1-1.651.928,4.7,4.7,0,0,1-.448.172l-.232.081c-.121.019-.25.023-.376.037l-.376.032h-.06c.019-.028,0,0,0-.014h-.021a.146.146,0,0,1-.053-.046.4.4,0,0,1-.077-.144,2.007,2.007,0,0,1-.032-.436v-.3c0-.5-.021-.99-.056-1.477-.019-.246-.042-.487-.074-.728-.016-.118-.037-.232-.058-.355l-.016-.088-.028-.132-.088-.369.211-.16c.065-.049.158-.125.167-.137a1.961,1.961,0,0,0,.155-.155,1.579,1.579,0,0,0,.232-.353,1.333,1.333,0,0,0,.125-.4,1.671,1.671,0,0,0,0-.415.879.879,0,0,0-.373-.626,1.624,1.624,0,0,0-.376-.19,1.905,1.905,0,0,0-.206-.058h0l-.088.139q-.1.169-.2.348a7.829,7.829,0,0,0-.346.717,5.6,5.6,0,0,0-.246.745,3.563,3.563,0,0,0-.072.376l-.023.186v.257a.691.691,0,0,1-.019.121v.03h0v.014l-.019.056a.554.554,0,0,1-.158.179Z" transform="translate(-214.081 -22.496)" fill="#221f1f"/>
    <path id="Path_83758" data-name="Path 83758" d="M336.177,190.22q-1.2.747-2.389,1.531l-.851.589c-1.014.673-2.027,1.348-3.015,2.048-.441.311-.874.638-1.294.97a20.349,20.349,0,0,1-1.644,1.252c-.364.232-.35-.626.283-1.12a42.09,42.09,0,0,1,3.479-2.447c.724-.464,1.426-.99,2.15-1.477.793-.536,1.6-1.058,2.4-1.575l1.5-.928c.761-.464,1.535-.928,2.3-1.371.6-.346,1.174-.71,1.793-1.023.139-.067.269-.144.415-.2.533-.232.754-.213.909-.067a.614.614,0,0,1,.1.1c.039.063,0,.137-.072.209a.809.809,0,0,1-.158.107,1.737,1.737,0,0,1-.232.123c-.524.246-1.058.545-1.6.849s-1.088.629-1.624.953c-.812.487-1.624.983-2.426,1.5Z" transform="translate(-216.355 -101.43)" fill="#221f1f"/>
    <path id="Path_83759" data-name="Path 83759" d="M422.77,276.4a.95.95,0,0,0,.028-.186v-.037h0v-.016c0-.016-.014-.023-.023-.03l-.042-.014a1.035,1.035,0,0,1-.111-.021,4.11,4.11,0,0,0-1.016-.019c-.255.023-.508.083-.761.132a9.293,9.293,0,0,0-2.6.949,8.091,8.091,0,0,0-1.032.7c-.417.327-.791.7-1.225,1.014-.137.1-.232-.044-.255-.267a.928.928,0,0,1,.318-.74,9.277,9.277,0,0,1,2.934-1.758,12.627,12.627,0,0,1,2.018-.612,6.359,6.359,0,0,1,1.171-.1,3.623,3.623,0,0,1,.605.053c.056.012.093.019.167.039a1.218,1.218,0,0,1,.206.077.4.4,0,0,1,.162.13.9.9,0,0,1,.09.19.947.947,0,0,1,.053.255,1.592,1.592,0,0,1,0,.211,1.119,1.119,0,0,1-.033.2.97.97,0,0,1-.051.188l-.063.183-.081.169a3.6,3.6,0,0,1-.181.322,6.986,6.986,0,0,1-1.482,1.561,14.982,14.982,0,0,1-1.3.988c-.1.065-.193.137-.3.2-.387.232-.536.246-.7.13a1.062,1.062,0,0,1-.111-.081c-.1-.107,0-.295.262-.478a20.84,20.84,0,0,0,2.25-1.737,5.567,5.567,0,0,0,.682-.768,2.278,2.278,0,0,0,.4-.83Z" transform="translate(-284.708 -169.862)" fill="#221f1f"/>
    <path id="Path_83760" data-name="Path 83760" d="M430.384,296.28l-.044.021" transform="translate(-295.924 -185.908)" fill="none" stroke="#000" stroke-linecap="round" stroke-linejoin="round" stroke-width="1.47"/>
    <path id="Path_83761" data-name="Path 83761" d="M365.612,454.418h.012l.081.014.167.028.339.044c.232.028.464.049.7.067.464.037.928.06,1.4.079.343,0,.7,0,1.03.014,1.213.035,2.424.049,3.646.065h.195a.926.926,0,0,0,.181-.012.843.843,0,0,0,.311-.09.464.464,0,0,0,.232-.464,2.412,2.412,0,0,0-.283-.881c-.144-.295-.309-.585-.464-.877-.1-.179.042-.255.276-.193a1.292,1.292,0,0,1,.749.659,3.271,3.271,0,0,1,.371,1.143,1.269,1.269,0,0,1-.132.749,1.1,1.1,0,0,1-.638.51,1.993,1.993,0,0,1-.649.083l-.529-.016-1.06-.039c-.847-.039-1.73,0-2.6-.026-.958-.026-1.914-.06-2.876-.169-.118-.014-.232-.028-.353-.046l-.179-.03-.25-.053a1.444,1.444,0,0,1-.441-.174.624.624,0,0,1-.146-.134.274.274,0,0,1-.056-.2.647.647,0,0,1,.232-.373c.06-.044.121-.088.186-.13l.216-.109.111-.046.083-.035.162-.058c.218-.072.434-.137.652-.2.431-.118.865-.232,1.292-.334.661-.174,1.306-.373,1.927-.6.135-.051.264-.107.4-.162.232-.1.39-.172.482-.2a.5.5,0,0,1,.13-.028h.125a.55.55,0,0,0,.128-.028.067.067,0,0,1,.083.033.232.232,0,0,1,0,.179.86.86,0,0,1-.392.431,7.977,7.977,0,0,1-1.8.707c-.61.179-1.234.329-1.844.492-.329.09-.659.181-.967.288-.074.028-.16.058-.22.083h0a.019.019,0,0,0-.019,0c0,.012,0,.014.019.021Z" transform="translate(-245.465 -305.634)" fill="#221f1f"/>
    <path id="Path_83762" data-name="Path 83762" d="M104.23,82.8q3.9-10.145,7.8-20.29,1.413-3.695,2.825-7.406l.188-.489a1.125,1.125,0,0,1,.165-.306l.044-.067c.023-.014.056,0,.083-.012h.167a2.891,2.891,0,0,1,.36.058l.257.074.422.135c.561.183,1.111.378,1.661.578,1.1.394,2.19.8,3.28,1.213q3.28,1.229,6.527,2.5,6.515,2.526,13.012,5.1l11.535,4.525.928.364.357.139.179.072.088.035c.014.019-.016.056-.021.084l-.253.673-.7,1.856-1.392,3.711q-1.392,3.7-2.851,7.38c-1.208,3.052-.343-1.074,1.811-6.75l1.424-3.79.719-1.886.332-.87h0l-.153-.06L145.519,66.4l-15.076-5.973c-3.015-1.19-6.1-2.382-9.22-3.544-1.559-.58-3.124-1.16-4.7-1.689-.195-.065-.392-.128-.587-.188l-.211-.06a.232.232,0,0,0-.1-.014l-.353.928q-.445,1.169-.891,2.319l-7.835,20.446q-1.668,4.342-3.331,8.682l3.463,1.327,19.045,7.276c4.91,1.856,9.742,3.648,14.594,5.467l.777.288.306-.791q.209-.533.417-1.072a40.2,40.2,0,0,1,2.619-6.005c.116-.179.255-.42.339-.517.283-.329-.253,1.331-1.368,4.252l-1.927,5.005-11.407-4.27-11.3-4.286L102.34,87.7q.928-2.445,1.869-4.894Z" transform="translate(-44.002 0)" fill="#221f1f"/>
    <path id="Path_83763" data-name="Path 83763" d="M369.79,243.893q.083.953.169,1.907c.023.232.065.464.084.7.07.819.13,1.638.2,2.454.035.364.086.726.141,1.083a7.123,7.123,0,0,1,.165,1.392c0,.292-.707,0-.779-.52a26.26,26.26,0,0,1-.246-2.841c-.014-.575-.118-1.16-.176-1.742-.065-.64-.123-1.28-.186-1.921-.037-.394-.074-.789-.116-1.183-.065-.594-.118-1.194-.2-1.784-.065-.464-.169-.9-.255-1.35-.019-.1-.044-.195-.06-.295-.058-.373-.028-.5.141-.6a.857.857,0,0,1,.118-.067c.135-.053.269.084.343.353a17.586,17.586,0,0,1,.464,2.505c.081.638.144,1.28.216,1.92Z" transform="translate(-248.43 -141.999)" fill="#221f1f"/>
    <path id="Path_83764" data-name="Path 83764" d="M263.033,176.58l.155.165.079.086v.012h0c-.012,0,.2.167-.037.438-.195.118-.232.049-.232.067h0l-.072-.019h-.035l-.058-.026-.387-.193-.789-.383c-.264-.128-.529-.251-.8-.369l-.408-.181a.369.369,0,0,0-.151-.037c-.032.012,0,.046.016.063l.049.051a1,1,0,0,0,.1.1l.035.032.107.086c.072.058.146.116.22.169.295.232.6.434.928.642a17.658,17.658,0,0,1,1.856,1.345c.515.464.981.944,1.447,1.426a22.424,22.424,0,0,1,1.707,1.927c.32.429-.478.218-1.13-.51-.58-.649-1.16-1.292-1.763-1.909-.151-.153-.3-.3-.464-.45s-.311-.276-.48-.411c-.332-.267-.684-.517-1.044-.768-.429-.3-.888-.591-1.334-.916-.111-.081-.22-.167-.329-.251-.146-.125-.346-.276-.487-.42l-.232-.218-.128-.186c-.021-.032-.046-.065-.063-.093a.62.62,0,0,1-.03-.074.387.387,0,0,1-.026-.146.155.155,0,0,1,.037-.1.2.2,0,0,1,.081-.053.534.534,0,0,1,.167-.035,1.31,1.31,0,0,1,.513.081c.211.065.445.158.659.248l.429.186c.545.246,1.079.506,1.612.765l.246.118.058.028h.039a.2.2,0,0,1-.019.056.208.208,0,0,0-.016.032.232.232,0,0,0-.016.067c0,.016,0,0,0,.023l-.13.118h0v-.012l-.023-.026-.044-.046-.378-.392c-.255-.26-.513-.52-.763-.786a13.073,13.073,0,0,1-1.09-1.273,4.117,4.117,0,0,1-.232-.355l-.058-.1-.067-.132a1.348,1.348,0,0,1-.1-.262.7.7,0,0,1,0-.464.135.135,0,0,1,.077-.086.274.274,0,0,1,.1-.016.7.7,0,0,1,.216.049,3.493,3.493,0,0,1,.67.424c.172.128.339.26.5.394.332.267.652.538.97.819.139.125.278.244.415.371.508.478.64.666.647.865a.368.368,0,0,1,0,.135h0l-.032.019h-.021a.325.325,0,0,1-.13-.049,3.2,3.2,0,0,1-.464-.348c-.566-.492-1.143-1-1.74-1.489q-.293-.247-.61-.464h0v.014a8.682,8.682,0,0,0,1.055,1.331c.4.431.812.844,1.234,1.271Z" transform="translate(-164.525 -91.39)" fill="#221f1f"/>
    <path id="Path_83765" data-name="Path 83765" d="M269.41,165.02a1.2,1.2,0,0,1-.97.71.575.575,0,0,1-.464-.186.928.928,0,0,1-.086-.1l-.049-.063-.081-.111-.172-.232-.343-.464c-.464-.605-.928-1.206-1.4-1.8-.174-.216-.353-.427-.533-.633l-.348-.378a1.751,1.751,0,0,0-.146-.155c-.026-.021-.06-.063-.1-.053s0,.06,0,.09a1.473,1.473,0,0,0,.07.2l.051.111s.044.074.074.121l.1.153c.531.814,1.116,1.6,1.642,2.452q.042.072.083.153c.014.028.028.058.042.093a.429.429,0,0,1,.021.07v.028a.251.251,0,0,1,0,.042.311.311,0,0,1-.016.074.232.232,0,0,1-.079.1l.014-.012a.264.264,0,0,1-.114.049.209.209,0,0,1-.067,0,.232.232,0,0,1-.081-.021.464.464,0,0,1-.1-.044c-.051-.03-.1-.058-.137-.088-.083-.06-.16-.121-.232-.181-.153-.123-.3-.246-.448-.371l-.865-.74c-.211-.179-.424-.355-.64-.52a3.921,3.921,0,0,0-.647-.431.355.355,0,0,0-.172-.037.1.1,0,0,0-.072.032.116.116,0,0,0-.016.079.608.608,0,0,0,.067.206,2.462,2.462,0,0,0,.193.327c.088.128.107.195.067.232s-.153.035-.3-.044a.984.984,0,0,1-.244-.172,1.032,1.032,0,0,1-.269-.346.7.7,0,0,1-.046-.668.64.64,0,0,1,.7-.274,1.238,1.238,0,0,1,.429.139c.1.051.179.1.255.153.162.107.3.218.445.329.278.232.54.464.8.682l.775.7c.13.111.257.232.385.327l.188.144a.563.563,0,0,0,.077.049h0v.014a.524.524,0,0,0-.035.09c-.012.028-.019.067-.026.088a.153.153,0,0,0-.014.058v.07h0a.354.354,0,0,0-.137,0c-.03.012-.093.023-.134.039l-.037.014h-.021a.229.229,0,0,0-.021-.042,1.374,1.374,0,0,0-.067-.125c-.049-.088-.107-.181-.165-.271l-.357-.55-.735-1.109-.285-.434-.144-.232-.07-.116c-.032-.051-.072-.121-.1-.183a3,3,0,0,1-.438-1.324.6.6,0,0,1,.042-.193.211.211,0,0,1,.088-.1.232.232,0,0,1,.111-.021.835.835,0,0,1,.415.153,3.61,3.61,0,0,1,.571.513c.1.1.2.213.3.32l.19.218c.506.589.988,1.19,1.461,1.8l.7.916.348.464.174.232.058.077a.121.121,0,0,0,.051.039.538.538,0,0,0,.408-.169.847.847,0,0,0,.186-.531c.028-.434-.06-.9-.074-1.392a2.635,2.635,0,0,1,.035-.568c.012-.049.019-.1.035-.146a1.139,1.139,0,0,1,.276-.48.568.568,0,0,1,.213-.132.285.285,0,0,1,.232.06,1.014,1.014,0,0,1,.306.445l.028.065.019.049.035.1.065.2c.039.132.074.267.107.4.128.536.232,1.058.336,1.584s.22,1.083.3,1.624c.019.139.039.271.056.415s.014.283.019.422c0,.271.023.543.037.812s.037.464.06.7c.083.879.139,1.123.053,1.348a1.019,1.019,0,0,1-.051.155c-.035.065-.109.023-.211-.132a2.4,2.4,0,0,1-.25-.749,12.6,12.6,0,0,1-.169-1.505c-.016-.253-.026-.508-.032-.761V166.7l-.012-.09-.051-.369c-.072-.492-.167-.988-.267-1.487-.053-.25-.1-.5-.158-.754s-.1-.5-.162-.745a6.51,6.51,0,0,0-.232-.77c0-.021,0,0,0-.014h0v.014a.134.134,0,0,0,0,.032l-.016.065a1.37,1.37,0,0,0-.016.144,4.022,4.022,0,0,0,.016.661c.021.232.049.48.058.742a2.194,2.194,0,0,1-.111.861Z" transform="translate(-167.04 -81.558)" fill="#221f1f"/>
    <path id="Path_83766" data-name="Path 83766" d="M308.971,182.368l-.413.4-1.331-2.964-.464-.972c-.524-1.16-1.048-2.319-1.6-3.451-.246-.506-.515-1-.789-1.489-.353-.622-.742-1.225-1.053-1.856-.1-.195.063-.269.309-.2a1.422,1.422,0,0,1,.786.654,35.749,35.749,0,0,1,1.967,3.976c.346.816.779,1.624,1.16,2.454l.622,1.359.308.68.153.341.079.188a1.2,1.2,0,0,0,.067.144c.039-.035.079-.077.123-.111l.195-.16c.2-.153.4-.311.6-.464.758-.55,1.542-1.055,2.306-1.573.6-.4,1.16-.821,1.742-1.227.13-.088.25-.181.383-.267.487-.32.67-.378.872-.29a.741.741,0,0,1,.137.063c.121.09-.021.313-.359.573-1,.772-2.113,1.5-3.212,2.25-.408.278-.814.557-1.215.842-.2.144-.4.285-.589.434-.093.074-.195.146-.283.232l-.232.2-.269.267Z" transform="translate(-198.344 -90.308)" fill="#221f1f"/>
    <path id="Path_83767" data-name="Path 83767" d="M303.67,205.347c-1.352.763-2.728,1.491-4.152,2.134-.712.32-1.438.617-2.185.872A10.3,10.3,0,0,1,295,208.9a6.294,6.294,0,0,1-1.786-.1,5.818,5.818,0,0,1-1.682-.605,7.06,7.06,0,0,1-2.28-2.1,15.621,15.621,0,0,1-1.482-2.651c-.415-.912-.779-1.839-1.16-2.751l-.144-.343-.1-.232-.058-.132-.03-.067-.014-.035v-.016l.012-.014.568-.7.944-1.16c.877-1.088,1.76-2.178,2.633-3.259.093.162.181.327.276.487l.141.232c.046.079.1.172.128.209l.383.608c1.206,1.89,2.479,3.751,3.644,5.671.728,1.195-.8.072-2.21-2.087l-1.419-2.2-.7-1.109-.341-.554-2.287,2.783-.682.823-.3.355s-.028.019-.019.03v.021h0l.021.053.8,1.995a17.161,17.161,0,0,0,1.907,3.66,7.037,7.037,0,0,0,1.415,1.459,5.23,5.23,0,0,0,1.791.881,5.534,5.534,0,0,0,1.088.19,4.818,4.818,0,0,0,1.1-.028,11.841,11.841,0,0,0,2.194-.582,33.772,33.772,0,0,0,4.21-1.914c1.686-.888,3.333-1.856,4.95-2.874l1.2-.768,1.4-.928.392.928.232.71c.079.232.125.464.19.714l.09.36.074.36c.211.96.339,1.927.464,2.888.269,2.231.452,4.425.531,6.643.019.489.035.967.042,1.461a6.786,6.786,0,0,1-.271,2.795,1.531,1.531,0,0,1-.135.251c-.153.165-.216-.575-.232-1.9-.037-1.967-.121-3.987-.281-6.031a46.137,46.137,0,0,0-.8-6.116c-.039-.232-.1-.436-.158-.654a6.426,6.426,0,0,0-.179-.645c-.074-.206-.132-.424-.211-.631l-.032-.074-.014-.037h0l-.046.03-.172.114-.7.452c-.464.3-.928.594-1.392.884q-1.392.874-2.839,1.7Z" transform="translate(-185.27 -107.92)" fill="#221f1f"/>
    <path id="Path_83768" data-name="Path 83768" d="M303.306,183.2c.093-.107.193-.209.288-.311.035-.037.053-.086.09-.123.13-.123.269-.232.4-.359a.777.777,0,0,0,.139-.186c.051-.086.077-.195.195-.232.074-.019.529.464.464.55a1.253,1.253,0,0,1-.445.387c-.116.058-.165.174-.244.262s-.179.195-.264.295q-.081.09-.153.188a1.493,1.493,0,0,0-.193.3.814.814,0,0,0-.037.281.537.537,0,0,1,0,.06c-.014.072-.065.074-.232.03l-.123-.03c-.135-.037-.232-.107-.248-.183a.854.854,0,0,1,.116-.589,3.475,3.475,0,0,1,.232-.36Z" transform="translate(-198.066 -98.125)" fill="#221f1f"/>
    <path id="Path_83769" data-name="Path 83769" d="M333.7,144.642a15.219,15.219,0,0,0,.742,2.243,4.888,4.888,0,0,0,.415.712,2.016,2.016,0,0,0,1.065.823,2.382,2.382,0,0,0,.7.1,3.26,3.26,0,0,0,.366-.019h.2a.945.945,0,0,1,.232,0,1.693,1.693,0,0,1,.7.334,4.177,4.177,0,0,1,.533.489,5.49,5.49,0,0,1,1.016,1.482c.074.176-.067.216-.264.148a1.3,1.3,0,0,1-.629-.5,5.144,5.144,0,0,0-1.079-1.229,1.223,1.223,0,0,0-.295-.158.6.6,0,0,0-.132-.03.523.523,0,0,0-.06,0H337.1a3.493,3.493,0,0,1-.981-.032,2.632,2.632,0,0,1-1.12-.48,3.061,3.061,0,0,1-.791-.9,10.04,10.04,0,0,1-.9-2.319c-.07-.232-.134-.48-.209-.7l-.06-.162c-.026-.049-.023-.065-.051-.09a.4.4,0,0,0-.22-.058,8.946,8.946,0,0,1-1.16.042.889.889,0,0,1-.162-.035.464.464,0,0,1-.179-.086.571.571,0,0,1-.211-.329.631.631,0,0,1,.026-.371,3.018,3.018,0,0,1,.128-.276,8.5,8.5,0,0,1,1.037-1.44c.086-.1.167-.195.255-.288.336-.346.478-.418.654-.378a.566.566,0,0,1,.116.03c.111.056.033.251-.19.513-.329.387-.668.779-.976,1.188a5.1,5.1,0,0,0-.408.622,1,1,0,0,0-.074.151l-.032.074a.065.065,0,0,0,0,.019.121.121,0,0,0,0,.044h0a.193.193,0,0,1,.07.014,1.4,1.4,0,0,0,.232,0c.174,0,.369-.032.585-.049a2.205,2.205,0,0,1,.357,0,1.042,1.042,0,0,1,.244.039,1.407,1.407,0,0,1,.137.056.939.939,0,0,1,.123.081c.035.037.063.074.1.109a1,1,0,0,1,.074.13,1.388,1.388,0,0,1,.074.174c.044.111.07.206.1.311Z" transform="translate(-219.655 -66.743)" fill="#221f1f"/>
    <path id="Path_83770" data-name="Path 83770" d="M379.6,141.524c.067-.023.139-.042.213-.063.028,0,.044-.03.072-.035a2.17,2.17,0,0,0,.327-.07.7.7,0,0,0,.132-.063.71.71,0,0,1,.195-.072c.025,0,.014-.012.012,0s.019.079.021.128a.4.4,0,0,1-.176.408c-.079.037-.128.121-.2.167a1.093,1.093,0,0,1-.274.1l-.176.035c-.088.014-.181.014-.262.028a.552.552,0,0,1-.195.016h-.044a.425.425,0,0,1-.09-.042h0a.3.3,0,0,0,.042-.056,1.139,1.139,0,0,0,.116-.195,1.128,1.128,0,0,1,.114-.155.636.636,0,0,1,.179-.146Z" transform="translate(-256.608 -66.811)" fill="#221f1f"/>
    <path id="Path_83771" data-name="Path 83771" d="M348.878,250.94c.306-.826.587-1.665.821-2.521.09-.311.153-.629.232-.942.292-1.1.561-2.217.793-3.34.1-.5.183-1,.257-1.5a19.149,19.149,0,0,1,.3-1.923c.093-.394.622.193.515.942a33.822,33.822,0,0,1-.791,3.931c-.206.779-.364,1.6-.571,2.4-.232.877-.482,1.747-.784,2.6-.093.264-.183.529-.29.789l-.155.392a1.992,1.992,0,0,1-.081.193l-.074.167c-.042.088-.09.181-.125.269l.7.063.979.1c.647.067,1.285.116,1.925.2.141.019.281.03.422.056.527.093.682.179.756.362a.589.589,0,0,1,.046.125c.021.137-.211.19-.591.148-1.127-.123-2.308-.271-3.5-.378l-.591-.046c-.353-.026-.719-.042-1.079-.058l.58-1.29.29-.745Z" transform="translate(-232.675 -143.131)" fill="#221f1f"/>
    <path id="Path_83772" data-name="Path 83772" d="M45.05,260.74v45.67H116.3V268.928H69.868L60.226,258.85H47.358c-2.6,0-2.6.7,0,.7H59.929l9.64,10.078H115.6v36.088H45.75V260.74C45.75,258.688,45.05,258.688,45.05,260.74Z" transform="translate(0 -157.16)" fill="#232020"/>
    <path id="Path_83773" data-name="Path 83773" d="M197.909,284.942v-5.4H153.55v5.017c0,.615.7.615.7,0V280.24h42.965v4.7a.35.35,0,1,0,.7,0Z" transform="translate(-83.334 -173.051)" fill="#232020"/>
    <path id="Path_83774" data-name="Path 83774" d="M397.74,318.214l-4.006,3.386c-2.108-3.584-8.183-13.685-9.169-15.589a22.81,22.81,0,0,1-1.454-3.639c-.4-1.28-.728-2.579-1.048-3.88s-.622-2.586-.983-3.864c-.023-.088-.111-.589-.2-.605s-.035.292-.033.334l1.436,28.5c0,.039-4.855.784-4.855.784-1.624-13-2.05-25.407-2.551-38.5,0-.053,1.965-.03,3.994-.183-.035,2.238-.137,3.781-.137,3.781.886.186,6.555-4.381,6.745-4.516a8.635,8.635,0,0,1,2.108.072c.144.983,1.491,14.042,2.171,18.031C390.369,305.854,396.525,315.8,397.74,318.214Z" transform="translate(-253.328 -176.618)" fill="#221f1f"/>
    <path id="Path_83775" data-name="Path 83775" d="M375.058,293.65c.318,8.267.747,16.51,1.6,24.734l.244,2.245.246,2.057c-.012.067.049.033.1.03l.506-.079,1.116-.174,2.229-.353.248-.042h.049a.309.309,0,0,0,0-.046l-.728-15.4-.366-7.77-.1-2.164-.074-1.512-.037-.756a2.121,2.121,0,0,1,.044-.4l.081-.513a.586.586,0,0,0,.014-.121.125.125,0,0,1,.042-.111s.021,0,.028-.014h.023a.145.145,0,0,1,.028.023.231.231,0,0,1,.035.051.8.8,0,0,1,.046.111l.021.056.012.03.019.065.079.267.155.533.308,1.067.557,1.932.139.482.107.431.216.858c.29,1.141.6,2.275.983,3.382a19.871,19.871,0,0,0,1.392,3.2c.568,1.023,1.16,2.036,1.756,3.043,1.194,2.025,2.408,4.043,3.616,6.065L391.6,317.9l1.645,2.783,2.783-2.319c1.141-.944,1.324-.965.8-.366-.262.3-.7.751-1.28,1.322q-.438.429-.979.928l-.564.524-.148.137-.2.181-.578.508-.436-.71-.271-.431c-.169-.271-.343-.547-.52-.833q-.529-.854-1.088-1.791-2.359-3.943-4.7-7.919c-.777-1.329-1.556-2.644-2.3-4.01a23.275,23.275,0,0,1-1.726-4.354c-.232-.745-.42-1.494-.61-2.243l-.371-1.522-.155-.645-.063-.267v-.019h0a.063.063,0,0,0,0,.021v.445l.026.578.051,1.16q.1,2.319.2,4.639.212,4.523.431,9.153c.155,3.122.313,6.262.464,9.4l-.044.179-.012.046v.023c-.021-.019.049.037-.049-.037h0l-.058.056a.622.622,0,0,1-.158.1l-.218.039-.545.09-1.048.169-2.087.322-1,.153-.081.012h-.039c-.014,0-.03,0-.026-.012l-.021-.162-.037-.322-.056-.478-.183-1.552c-.114-1.037-.232-2.071-.332-3.108q-.311-3.11-.552-6.228c-.325-4.154-.559-8.315-.756-12.476q-.162-3.57-.3-7.137-.132-3.618-.262-7.232c0-.264.206-.355.5-.348l.589-.016c.52-.012,1.034-.026,1.552-.046l.772-.037.424-.026.571-.042-.135,3.6v.121c0,.028.019.021.037.021a.233.233,0,0,0,.058,0,.967.967,0,0,0,.232-.081l.081-.037.093-.049c.065-.035.128-.065.19-.1.125-.07.251-.144.373-.218.494-.3.979-.631,1.457-.965.956-.673,1.89-1.378,2.816-2.087l.7-.538.366-.285c.07-.086.195-.065.285-.077l.232-.012h.891c.148,0,.3.019.445.033l.116.014h.077c.026,0,.06,0,.056.049l.012.123c0,.028.012.023.021.023h.026l.109.019.193.063c.232,2.009.448,3.989.67,5.966.336,2.974.682,5.919,1.074,8.846q.146,1.1.311,2.19l.088.543c.032.179.051.366.1.536l.128.52c.051.172.116.343.172.513a34.71,34.71,0,0,0,1.8,4.013c.587,1.16,1.2,2.273,1.835,3.421,1.181,2.127,1.978,3.521,2.51,4.516a15.571,15.571,0,0,1,.986,2.087c.083.232.195.524.232.661.049.232-.167-.077-.636-.823s-1.19-1.932-2.087-3.479c-1.239-2.134-2.473-4.312-3.618-6.573a33.55,33.55,0,0,1-1.559-3.514,8.716,8.716,0,0,1-.29-.951c-.037-.162-.083-.329-.114-.492l-.079-.476c-.1-.635-.193-1.271-.281-1.909-.348-2.551-.647-5.114-.946-7.694q-.424-3.783-.854-7.592h0l-.176-.016c-.167-.014-.334-.023-.5-.028s-.339,0-.508,0l-.255.012h-.125l-1.074.837-1.192.907c-.8.6-1.61,1.19-2.452,1.747a12.827,12.827,0,0,1-1.331.789l-.134.065c-.058.026-.114.046-.169.065l-.169.056-.086.03h-.077a1.311,1.311,0,0,1-.3,0h-.23c-.014-.014-.014-.042-.021-.063a1.584,1.584,0,0,1-.079-.615l.019-.538c.032-.837.063-1.677.1-2.519l-.591.035-1.058.042-1.055.03h-.417q.16,4.328.325,8.663Z" transform="translate(-252.76 -176.069)" fill="#221f1f"/>
    <rect id="Rectangle_6133" data-name="Rectangle 6133" width="10.901" height="10.901" transform="translate(69.739 70.326) rotate(-70.34)" fill="#221f1f"/>
    <path id="Path_83776" data-name="Path 83776" d="M236.87,112.014c-.647-.264-1.294-.531-1.944-.791-.232-.1-.48-.172-.714-.269-.833-.341-1.661-.7-2.493-1.032-.371-.148-.749-.281-1.125-.408a8.85,8.85,0,0,1-1.429-.538c-.281-.151.322-.629.874-.431a30.418,30.418,0,0,1,2.892,1.185c.568.269,1.19.464,1.784.7l1.965.784q.6.232,1.208.48c.612.232,1.222.485,1.837.7.478.167.96.295,1.44.441.107.032.211.058.318.093.39.132.5.232.517.42a.96.96,0,0,1,.012.137c-.012.146-.209.2-.508.132a21.043,21.043,0,0,1-2.663-.819c-.659-.232-1.317-.5-1.976-.756Z" transform="translate(-141.355 -41.68)" fill="#221f1f"/>
    <path id="Path_83777" data-name="Path 83777" d="M230.748,126.757l-1.324-.568c-.162-.067-.332-.116-.492-.186-.566-.246-1.13-.5-1.7-.747-.253-.107-.513-.2-.772-.281a4.247,4.247,0,0,1-.979-.376c-.188-.118.3-.638.68-.5a14.751,14.751,0,0,1,1.972.854c.383.2.812.332,1.22.5.448.183.893.373,1.338.559.276.114.55.232.826.341.42.169.837.346,1.259.494.327.114.663.188,1,.281.072.021.146.035.218.058.271.088.339.162.332.353a1.241,1.241,0,0,1,0,.132c-.026.139-.174.209-.383.174a9.876,9.876,0,0,1-1.842-.536c-.452-.167-.9-.353-1.352-.531Z" transform="translate(-138.55 -53.645)" fill="#221f1f"/>
    <path id="Path_83778" data-name="Path 83778" d="M162.706,158.008l-3.533-1.392c-.429-.167-.867-.318-1.3-.487-1.512-.6-3.015-1.211-4.535-1.807-.673-.264-1.355-.51-2.03-.752-.867-.308-1.751-.584-2.586-.974-.522-.232.39-.605,1.392-.232,1.765.647,3.516,1.331,5.258,2.087,1.041.45,2.157.835,3.247,1.255l3.563,1.392,2.194.854c1.109.424,2.22.863,3.328,1.266.861.313,1.719.582,2.579.872.188.063.376.121.566.188.7.248.909.376,1,.6a.7.7,0,0,1,.056.153c.019.158-.306.16-.833,0-1.561-.452-3.168-1.032-4.776-1.624-1.192-.445-2.387-.909-3.579-1.364Z" transform="translate(-79.513 -75.252)" fill="#221f1f"/>
    <path id="Path_83779" data-name="Path 83779" d="M155.476,170.294q-1.433-.574-2.862-1.16c-.35-.137-.7-.257-1.053-.4-1.225-.494-2.447-1-3.674-1.494-.543-.218-1.1-.417-1.647-.612a19.7,19.7,0,0,1-2.087-.8c-.42-.206.364-.615,1.171-.318,1.433.527,2.851,1.09,4.258,1.719.842.378,1.749.7,2.626,1.032.965.378,1.925.763,2.888,1.143l1.779.7c.9.35,1.8.712,2.7,1.039.7.255,1.392.464,2.087.7.153.051.306.1.464.148.571.2.735.313.793.531a.7.7,0,0,1,.035.146c0,.151-.267.172-.7.056-1.276-.348-2.579-.821-3.885-1.31-.967-.362-1.934-.745-2.9-1.118Z" transform="translate(-76.026 -85.392)" fill="#221f1f"/>
    <path id="Path_83780" data-name="Path 83780" d="M147.234,181.729l-2.087-.865c-.255-.1-.52-.188-.772-.295-.9-.373-1.793-.758-2.693-1.13-.4-.162-.807-.311-1.211-.45a10.421,10.421,0,0,1-1.542-.591c-.306-.165.334-.626.928-.408,1.053.385,2.087.809,3.12,1.3.615.292,1.285.513,1.927.77.707.283,1.413.573,2.118.861.436.176.87.353,1.306.524.659.262,1.32.533,1.983.772.515.188,1.034.332,1.552.5.114.035.232.065.341.1.42.146.538.232.564.443a.974.974,0,0,1,.014.139c0,.146-.22.19-.54.114a24.277,24.277,0,0,1-2.869-.928c-.712-.269-1.422-.554-2.134-.833Z" transform="translate(-72.043 -95.01)" fill="#221f1f"/>
    <path id="Path_83781" data-name="Path 83781" d="M74.975,419.926l-2.493-.07h-.909c-1.067-.032-2.136-.077-3.2-.107H66.947a12.8,12.8,0,0,1-1.814,0c-.376-.046.1-.7.8-.71,1.234,0,2.466.016,3.711.111.742.056,1.517.026,2.278.039l2.512.056c.515,0,1.03.026,1.545.032.779.012,1.563.032,2.338.023.6,0,1.19-.056,1.786-.086.13,0,.26-.019.392-.023.489-.012.645.035.749.216a.676.676,0,0,1,.07.125c.046.141-.153.257-.51.3a29.212,29.212,0,0,1-3.312.142c-.835,0-1.675-.016-2.514-.026Z" transform="translate(-15.324 -280.195)" fill="#221f1f"/>
    <path id="Path_83782" data-name="Path 83782" d="M81.494,438.136l-4.129-.07H75.86c-1.77-.032-3.537-.077-5.307-.1-.786-.014-1.575,0-2.354,0-1,.016-2,.065-3.015,0-.624-.044.167-.7,1.32-.71,2.043-.012,4.087.019,6.147.111,1.232.058,2.514.028,3.774.042q2.087.025,4.159.056l2.551.032c1.292,0,2.589.03,3.871.021,1,0,1.974-.053,2.96-.083.218,0,.429-.021.647-.023.812-.012,1.069.035,1.243.216a.8.8,0,0,1,.116.123c.079.141-.253.257-.847.3-1.763.123-3.618.139-5.485.141-1.392,0-2.783-.016-4.163-.025Z" transform="translate(-15.295 -294.181)" fill="#221f1f"/>
    <path id="Path_83783" data-name="Path 83783" d="M428.28,280.459l.195,1.677a1.611,1.611,0,0,0,.434-.051l-.195-1.675A2.088,2.088,0,0,0,428.28,280.459Z" transform="translate(-294.342 -173.719)" fill="#232020"/>
    <path id="Path_83784" data-name="Path 83784" d="M347.553,136.757c0,.3-.141.538-.318.538C346.331,137.295,347.553,135.356,347.553,136.757Z" transform="translate(-231.839 -62.995)" fill="#221f1f" stroke="#221f1f" stroke-linecap="round" stroke-linejoin="round" stroke-width="1.5"/>
    <path id="Path_83785" data-name="Path 83785" d="M347.6,135.271c-.135-.058-.2-.123-.151-.148s.016-.049.033-.072a.631.631,0,0,1,.464-.315.742.742,0,0,1,.248,0,.7.7,0,0,1,.339.188.957.957,0,0,1,.1.155,1.06,1.06,0,0,1,.144.313.593.593,0,0,1,.016.167.251.251,0,0,0,.023.058v.026a.675.675,0,0,1-.281.039c-.09,0-.153,0-.153-.016a.7.7,0,0,0-.032-.186c0-.026-.032-.039-.039-.06l-.035-.1a.357.357,0,0,0-.086-.114.192.192,0,0,0-.123-.039.088.088,0,0,0-.035,0,.135.135,0,0,0-.086.035.253.253,0,0,0-.06.109h0A.766.766,0,0,1,347.6,135.271Z" transform="translate(-232.247 -61.825)" fill="#221f1f"/>
    <path id="Path_83786" data-name="Path 83786" d="M342.262,160.363a1.544,1.544,0,0,0,1.737-.629c.118-.158-.1-.26-.232-.269a.629.629,0,0,0-.531.232.85.85,0,0,1-.232.232s-.081.035-.021,0c-.1.037.042,0-.046,0h-.028c-.035,0-.141-.049,0,0a.638.638,0,0,0-.573.067c-.1.067-.25.274-.063.346Z" transform="translate(-228.216 -80.825)" fill="#221f1f"/>
    <path id="Path_83787" data-name="Path 83787" d="M345.88,130.412a.2.2,0,0,0,.125-.03.1.1,0,0,0,.028-.039v-.026l-.033-.084a.453.453,0,0,1-.037-.118.128.128,0,0,1,.03-.121,1.366,1.366,0,0,1,.58-.3,2,2,0,0,1,.55-.028,3.533,3.533,0,0,1,.891.158l.246.086c.079.028.16.046.232.07.014,0,.032,0,.039.016a.413.413,0,0,1-.1.269c-.014.021-.037.056-.042.053-.06-.016-.176.137-.232.109a.891.891,0,0,0-.332-.056.988.988,0,0,1-.125-.037c-.051-.023-.1-.06-.151-.083a1.962,1.962,0,0,0-.754-.046,1.549,1.549,0,0,0-.587.232.093.093,0,0,1-.051,0h-.065a.232.232,0,0,1-.083.026A.19.19,0,0,1,345.88,130.412Z" transform="translate(-231.054 -57.932)" fill="#221f1f"/>
    <path id="Path_83788" data-name="Path 83788" d="M457.344,436.728a1.9,1.9,0,0,1-.232.232l-.232.213a4.2,4.2,0,0,1-.478.408,9.742,9.742,0,0,1-1.044.719,1.975,1.975,0,0,1-.232.114,1.82,1.82,0,0,1-.308.109.638.638,0,0,1-.661-.181l-.079-.135a1.287,1.287,0,0,1-.046-.153.8.8,0,0,1-.016-.165.67.67,0,0,1,0-.151,2.318,2.318,0,0,1,.074-.443,6.968,6.968,0,0,1,.246-.772c.186-.5.394-.974.6-1.452.186-.422.362-.851.533-1.276a14.808,14.808,0,0,1,.684-1.624c.172-.322.561.329.3.963-.452,1.116-.969,2.192-1.457,3.275a5.367,5.367,0,0,0-.339,1c-.021.086-.032.169-.044.246v.148a.1.1,0,0,0,.116.1.245.245,0,0,0,.053-.012.283.283,0,0,0,.081-.032,1.716,1.716,0,0,0,.232-.123,4.177,4.177,0,0,0,.485-.322l.475-.353a5.1,5.1,0,0,0,.443-.392l.269-.246c.084-.088.158-.183.232-.274l.232-.276a3.24,3.24,0,0,0,.206-.3,4.677,4.677,0,0,0,.81-2.009,4.576,4.576,0,0,0-.123-1.649c-.023-.118-.07-.232-.1-.343-.135-.429-.162-.564-.051-.724.026-.037.046-.079.072-.111.088-.1.29.037.445.376a4.514,4.514,0,0,1,.392,1.642,5.287,5.287,0,0,1-.032.877c-.023.146-.053.29-.083.436-.016.072-.026.146-.046.216l-.07.211a6.047,6.047,0,0,1-1.327,2.231Z" transform="translate(-314.105 -289.161)" fill="#221f1f"/>
  </g>
</svg>
