<svg xmlns="http://www.w3.org/2000/svg" width="45.196" height="45.196" viewBox="0 0 45.196 45.196">
  <g id="Used_MAchine" data-name="Used MAchine" transform="translate(-0.8 -0.8)">
    <path id="Path_104" data-name="Path 104" d="M45.8,19.873,41.383,18.4a18.609,18.609,0,0,0-1.735-4.19l2.077-4.161L36.746,5.071,32.581,7.148a18.62,18.62,0,0,0-4.193-1.735L26.923,1H19.873L18.4,5.413a18.607,18.607,0,0,0-4.19,1.735L10.05,5.071,5.071,10.05l2.077,4.165a18.62,18.62,0,0,0-1.735,4.193L1,19.873v7.049l4.413,1.469a18.606,18.606,0,0,0,1.735,4.19L5.071,36.746l4.979,4.979,4.165-2.077a18.607,18.607,0,0,0,4.193,1.735L19.873,45.8h7.05l1.022-3.078a10.346,10.346,0,0,0,7.4,3.078A10.463,10.463,0,0,0,45.8,35.343a10.346,10.346,0,0,0-3.078-7.4L45.8,26.923ZM35.343,44.3a8.969,8.969,0,0,1-8.959-8.959,7.8,7.8,0,0,1,.049-.9q.04-.4.112-.781a8.969,8.969,0,0,1,7.906-7.227h.007a7.474,7.474,0,0,1,.885-.048q.374,0,.742.03A8.936,8.936,0,0,1,44.3,35.343,8.968,8.968,0,0,1,35.343,44.3ZM33.726,25.019c-.06.009-.119.024-.179.035-.132.023-.262.049-.392.075-.157.033-.313.069-.466.11q-.193.051-.382.108-.224.068-.448.149c-.124.044-.248.089-.373.137-.149.058-.288.121-.43.185-.119.054-.238.107-.355.165-.14.069-.276.145-.412.224-.113.063-.228.124-.339.191-.133.081-.261.167-.39.253-.108.075-.217.141-.321.217-.127.091-.248.19-.373.287-.1.079-.2.154-.3.237-.123.105-.24.218-.358.329q-.284.264-.547.55c-.09.1-.183.192-.269.293-.1.121-.2.248-.3.373-.075.1-.149.19-.224.288-.095.131-.182.266-.27.4-.066.1-.134.2-.2.3-.084.137-.161.279-.238.421-.057.107-.117.212-.172.321-.075.144-.138.291-.2.438-.05.113-.1.224-.149.341-.06.149-.114.3-.167.448-.042.121-.083.242-.121.365q-.068.224-.127.448c-.035.134-.066.268-.1.4s-.061.29-.086.437c-.01.057-.025.113-.034.17a10.824,10.824,0,0,1-1.611.127A10.452,10.452,0,1,1,33.85,23.4a10.839,10.839,0,0,1-.124,1.622Zm10.576.826-2.921.971c-.065-.046-.133-.086-.2-.131-.108-.075-.218-.149-.328-.217-.126-.078-.253-.149-.38-.224-.112-.064-.224-.128-.34-.187-.132-.069-.265-.132-.4-.194-.115-.054-.23-.108-.347-.158-.138-.058-.279-.11-.42-.162-.117-.043-.233-.089-.351-.128-.149-.048-.3-.089-.448-.131-.116-.033-.231-.068-.348-.1-.158-.038-.319-.068-.479-.1-.111-.022-.224-.047-.332-.065-.182-.028-.365-.048-.549-.067-.093-.01-.185-.025-.278-.032-.275-.023-.556-.035-.839-.035h-.1a12.373,12.373,0,0,0,.1-1.493A11.945,11.945,0,1,0,23.4,35.343a12.364,12.364,0,0,0,1.493-.1v.1c0,.283.012.564.033.842.007.094.023.187.033.28.019.183.038.366.067.546.018.114.044.224.066.336.031.159.06.318.1.474.029.119.065.237.1.355.041.149.082.292.128.436.04.122.087.24.131.361.051.137.1.273.158.407s.108.241.163.361.122.258.187.385.128.235.193.352.143.248.22.373.144.224.219.335c.045.065.084.133.13.2l-.97,2.917h-4.9l-1.385-4.163-.4-.1a17.142,17.142,0,0,1-4.549-1.882l-.35-.207-3.921,1.957L6.888,36.449l1.957-3.921-.207-.35a17.141,17.141,0,0,1-1.881-4.549l-.1-.4L2.493,25.846v-4.9l4.163-1.386.1-.4a17.136,17.136,0,0,1,1.881-4.549l.207-.35L6.888,10.346l3.458-3.458,3.921,1.957.35-.207a17.143,17.143,0,0,1,4.549-1.881l.4-.1,1.385-4.163h4.9l1.385,4.163.4.1a17.138,17.138,0,0,1,4.549,1.881l.35.207,3.921-1.957,3.458,3.458L37.95,14.267l.207.35a17.144,17.144,0,0,1,1.881,4.549l.1.4L44.3,20.949Z" fill="#fff"/>
    <circle id="Ellipse_2" data-name="Ellipse 2" cx="9.5" cy="9.5" r="9.5" transform="translate(26 25.796)" fill="#fff"/>
    <path id="Path_105" data-name="Path 105" d="M45.8,19.873,41.383,18.4a18.609,18.609,0,0,0-1.735-4.19l2.077-4.161L36.746,5.071,32.581,7.148a18.62,18.62,0,0,0-4.193-1.735L26.923,1H19.873L18.4,5.413a18.607,18.607,0,0,0-4.19,1.735L10.05,5.071,5.071,10.05l2.077,4.165a18.62,18.62,0,0,0-1.735,4.193L1,19.873v7.049l4.413,1.469a18.606,18.606,0,0,0,1.735,4.19L5.071,36.746l4.979,4.979,4.165-2.077a18.607,18.607,0,0,0,4.193,1.735L19.873,45.8h7.05l1.022-3.078a10.346,10.346,0,0,0,7.4,3.078A10.463,10.463,0,0,0,45.8,35.343a10.346,10.346,0,0,0-3.078-7.4L45.8,26.923ZM35.343,44.3a8.969,8.969,0,0,1-8.959-8.959,7.8,7.8,0,0,1,.049-.9q.04-.4.112-.781a8.969,8.969,0,0,1,7.906-7.227h.007a7.474,7.474,0,0,1,.885-.048q.374,0,.742.03A8.936,8.936,0,0,1,44.3,35.343,8.968,8.968,0,0,1,35.343,44.3ZM33.726,25.019c-.06.009-.119.024-.179.035-.132.023-.262.049-.392.075-.157.033-.313.069-.466.11q-.193.051-.382.108-.224.068-.448.149c-.124.044-.248.089-.373.137-.149.058-.288.121-.43.185-.119.054-.238.107-.355.165-.14.069-.276.145-.412.224-.113.063-.228.124-.339.191-.133.081-.261.167-.39.253-.108.075-.217.141-.321.217-.127.091-.248.19-.373.287-.1.079-.2.154-.3.237-.123.105-.24.218-.358.329q-.284.264-.547.55c-.09.1-.183.192-.269.293-.1.121-.2.248-.3.373-.075.1-.149.19-.224.288-.095.131-.182.266-.27.4-.066.1-.134.2-.2.3-.084.137-.161.279-.238.421-.057.107-.117.212-.172.321-.075.144-.138.291-.2.438-.05.113-.1.224-.149.341-.06.149-.114.3-.167.448-.042.121-.083.242-.121.365q-.068.224-.127.448c-.035.134-.066.268-.1.4s-.061.29-.086.437c-.01.057-.025.113-.034.17a10.824,10.824,0,0,1-1.611.127A10.452,10.452,0,1,1,33.85,23.4a10.839,10.839,0,0,1-.124,1.622Zm10.576.826-2.921.971c-.065-.046-.133-.086-.2-.131-.108-.075-.218-.149-.328-.217-.126-.078-.253-.149-.38-.224-.112-.064-.224-.128-.34-.187-.132-.069-.265-.132-.4-.194-.115-.054-.23-.108-.347-.158-.138-.058-.279-.11-.42-.162-.117-.043-.233-.089-.351-.128-.149-.048-.3-.089-.448-.131-.116-.033-.231-.068-.348-.1-.158-.038-.319-.068-.479-.1-.111-.022-.224-.047-.332-.065-.182-.028-.365-.048-.549-.067-.093-.01-.185-.025-.278-.032-.275-.023-.556-.035-.839-.035h-.1a12.373,12.373,0,0,0,.1-1.493A11.945,11.945,0,1,0,23.4,35.343a12.364,12.364,0,0,0,1.493-.1v.1c0,.283.012.564.033.842.007.094.023.187.033.28.019.183.038.366.067.546.018.114.044.224.066.336.031.159.06.318.1.474.029.119.065.237.1.355.041.149.082.292.128.436.04.122.087.24.131.361.051.137.1.273.158.407s.108.241.163.361.122.258.187.385.128.235.193.352.143.248.22.373.144.224.219.335c.045.065.084.133.13.2l-.97,2.917h-4.9l-1.385-4.163-.4-.1a17.142,17.142,0,0,1-4.549-1.882l-.35-.207-3.921,1.957L6.888,36.449l1.957-3.921-.207-.35a17.141,17.141,0,0,1-1.881-4.549l-.1-.4L2.493,25.846v-4.9l4.163-1.386.1-.4a17.136,17.136,0,0,1,1.881-4.549l.207-.35L6.888,10.346l3.458-3.458,3.921,1.957.35-.207a17.143,17.143,0,0,1,4.549-1.881l.4-.1,1.385-4.163h4.9l1.385,4.163.4.1a17.138,17.138,0,0,1,4.549,1.881l.35.207,3.921-1.957,3.458,3.458L37.95,14.267l.207.35a17.144,17.144,0,0,1,1.881,4.549l.1.4L44.3,20.949Z" fill="none" stroke="rgba(255,255,255,0.15)" stroke-width="0.4"/>
    <g id="Ellipse_1" data-name="Ellipse 1" transform="translate(30.6 30.796)" fill="#fff" stroke="#000" stroke-width="1.5">
      <circle cx="4.75" cy="4.75" r="4.75" stroke="none"/>
      <circle cx="4.75" cy="4.75" r="4" fill="none"/>
    </g>
  </g>
</svg>
