<svg xmlns="http://www.w3.org/2000/svg" width="33.572" height="30.37" viewBox="0 0 33.572 30.37">
  <g id="video-01" transform="translate(-15.997 -14.314)">
    <g id="Group_8909" transform="translate(15.997 14.314)">
      <path id="Rectangle_4097" d="M91.167,562.4l16.5.279a5.841,5.841,0,0,1,5.737,5.941l-.228,13.455a5.841,5.841,0,0,1-5.941,5.737l-16.5-.279A5.841,5.841,0,0,1,85,581.59l.228-13.455A5.841,5.841,0,0,1,91.167,562.4Z" transform="translate(-84.997 -562.397)" fill="#da261f"/>
      <path id="Polygon_2" d="M134.014,592.046a1.273,1.273,0,0,1,.406,1.752,1.545,1.545,0,0,1-.406.406l-7.159,4.443a1.278,1.278,0,0,1-1.752-.406,1.258,1.258,0,0,1-.2-.66v-8.911a1.247,1.247,0,0,1,1.929-1.066Z" transform="translate(-114.77 -581.053)" fill="#fff"/>
    </g>
    <path id="Path_19283" data-name="Path 19283" d="M63.494,35.9a5.657,5.657,0,0,1,3.3,4.214c.406,2.894-.076,13.15-.127,14.42v.2c.025.635.025,4.874-5.915,5.737-6.169.889-17.111-.381-17.111-.381A5.762,5.762,0,0,1,39.3,57.3a8.545,8.545,0,0,0,2.412.508c1.142.025,14.877.355,14.877.355s6.931.254,7.438-5l.33-14.268C64.332,38.921,64.255,36.484,63.494,35.9Z" transform="translate(-17.387 -16.106)" fill="#da261f"/>
  </g>
</svg>
