<svg xmlns="http://www.w3.org/2000/svg" xmlns:xlink="http://www.w3.org/1999/xlink" width="100" height="100" viewBox="0 0 100 100">
  <defs>
    <clipPath id="clip-path">
      <rect id="Rectangle_6" data-name="Rectangle 6" width="100" height="100" fill="#fff"/>
    </clipPath>
  </defs>
  <g id="Mask_Group_4" data-name="Mask Group 4" clip-path="url(#clip-path)">
    <g id="Group_107" data-name="Group 107" transform="translate(-11451.18 -1220.179)">
      <path id="Path_114" data-name="Path 114" d="M180.1,313.866a1.517,1.517,0,0,0-1.845,1.122,42.724,42.724,0,0,1-82.626,1.2l3.944,3.034a1.528,1.528,0,1,0,1.856-2.427l-8.155-6.238a1.508,1.508,0,0,0-1.52-.193,1.525,1.525,0,0,0-.927,1.214L89.49,321.764a1.525,1.525,0,0,0,1.315,1.713,1.393,1.393,0,0,0,.2,0,1.536,1.536,0,0,0,1.52-1.335l.51-3.861a45.779,45.779,0,0,0,88.172-2.548,1.522,1.522,0,0,0-1.1-1.856Z" transform="translate(11364.482 965.038)" stroke="#000" stroke-width="0.8"/>
      <path id="Path_115" data-name="Path 115" d="M200.826,164.543A33.047,33.047,0,1,0,167.78,131.5a33.047,33.047,0,0,0,33.046,33.045Zm-29.958-31.519h11.459c.276,11.558,3.74,21.4,8.9,26.869a30.024,30.024,0,0,1-20.355-26.869Zm31.477,28.306V133.024h13.9c-.389,14.589-6.464,26.808-13.9,28.309Zm0-31.364V101.66c7.432,1.489,13.513,13.709,13.9,28.306Zm-3.058-28.306v28.306h-13.9c.408-14.586,6.484-26.806,13.916-28.306Zm0,31.364V161.33c-7.432-1.5-13.513-13.72-13.9-28.306Zm11.119,26.869c5.157-5.474,8.624-15.311,8.9-26.869h11.459a30.029,30.029,0,0,1-20.355,26.869Zm20.355-29.927H219.3c-.276-11.561-3.74-21.4-8.9-26.869a30.027,30.027,0,0,1,20.355,26.869ZM191.224,103.1c-5.157,5.474-8.624,15.319-8.9,26.869H170.869A30.027,30.027,0,0,1,191.224,103.1Z" transform="translate(11300.433 1138.273)" stroke="#000" stroke-width="0.8"/>
      <path id="Path_116" data-name="Path 116" d="M195.586,54.125a1.531,1.531,0,0,0-1.713,1.315l-.714,5.463a45.779,45.779,0,0,0-88.2,2.435,1.533,1.533,0,0,0,1.122,1.856,1.514,1.514,0,0,0,1.845-1.122,42.724,42.724,0,0,1,81.964-3.364l-3.047-2.333a1.528,1.528,0,1,0-1.856,2.427l8.155,6.238a1.566,1.566,0,0,0,.927.314,1.724,1.724,0,0,0,.59-.113,1.525,1.525,0,0,0,.927-1.213l1.335-10.184a1.555,1.555,0,0,0-1.335-1.721Z" transform="translate(11351.854 1195.441)" stroke="#000" stroke-width="0.8"/>
    </g>
  </g>
</svg>
