<svg id="Group_8758" data-name="Group 8758" xmlns="http://www.w3.org/2000/svg" xmlns:xlink="http://www.w3.org/1999/xlink" width="42.946" height="30.517" viewBox="0 0 42.946 30.517">
  <defs>
    <clipPath id="clip-path">
      <rect id="Rectangle_70" data-name="Rectangle 70" width="42.946" height="30.517" fill="#da271f"/>
    </clipPath>
  </defs>
  <rect id="Rectangle_4164" data-name="Rectangle 4164" width="23.774" height="26.415" transform="translate(8.88 0)" fill="#fff"/>
  <g id="Group_207" data-name="Group 207" transform="translate(0 0)">
    <g id="Group_206" data-name="Group 206" clip-path="url(#clip-path)">
      <path id="Path_72" data-name="Path 72" d="M42.946,9.568A9.5,9.5,0,0,0,33.523,0H9.424A9.5,9.5,0,0,0,0,9.568V20.951a9.5,9.5,0,0,0,9.424,9.568h24.1a9.5,9.5,0,0,0,9.424-9.568ZM28.774,16.112,17.968,21.54c-.424.232-1.863-.079-1.863-.569V9.831c0-.495,1.451-.805,1.875-.56l10.344,5.713c.434.251.889.888.45,1.129" transform="translate(0 0)" fill="#da271f"/>
    </g>
  </g>
</svg>
