<svg xmlns="http://www.w3.org/2000/svg" xmlns:xlink="http://www.w3.org/1999/xlink" width="100" height="100" viewBox="0 0 100 100">
  <defs>
    <clipPath id="clip-path">
      <rect id="Rectangle_7" data-name="Rectangle 7" width="100" height="100" fill="#fff"/>
    </clipPath>
  </defs>
  <g id="Mask_Group_7" data-name="Mask Group 7" clip-path="url(#clip-path)">
    <g id="Group_1" data-name="Group 1">
      <g id="Group_108" data-name="Group 108" transform="translate(-726.169 -2271.999)">
        <path id="Path_117" data-name="Path 117" d="M230.507,355.553a1.7,1.7,0,1,1,0-3.408,3.892,3.892,0,0,0,0-7.784l-14.152.026h0a1.7,1.7,0,0,1-.786-.193l-12.35-6.423H189.983a1.7,1.7,0,1,1,0-3.408h13.652a1.7,1.7,0,0,1,.786.194l12.35,6.423,13.739-.023a7.3,7.3,0,1,1,0,14.6Z" transform="translate(555.906 1997.879)" fill-rule="evenodd"/>
        <path id="Path_117_-_Outline" data-name="Path 117 - Outline" d="M230.51,355.953h0a2.1,2.1,0,0,1,0-4.208,3.492,3.492,0,0,0,0-6.984l-14.151.026a2.107,2.107,0,0,1-.972-.239l-12.262-6.378H189.983a2.1,2.1,0,0,1,0-4.208h13.652a2.1,2.1,0,0,1,.971.239l12.262,6.377,13.641-.023a7.7,7.7,0,1,1,0,15.4Zm0-11.992a4.292,4.292,0,1,1,0,8.584,1.3,1.3,0,0,0,0,2.608h0a6.9,6.9,0,1,0,0-13.8l-13.836.023-12.437-6.468a1.3,1.3,0,0,0-.6-.148H189.983a1.3,1.3,0,1,0,0,2.608h13.334l12.436,6.468a1.3,1.3,0,0,0,.6.148Z" transform="translate(555.906 1997.879)"/>
        <path id="Path_118" data-name="Path 118" d="M226.394,405.155h-8.012a1.7,1.7,0,0,1-.612-.115l-21.27-8.206h-5.693a1.7,1.7,0,1,1,0-3.408h6.01a1.708,1.708,0,0,1,.612.116l21.268,8.205h7.33c1.623-.711,4.971-1.926,9.129-3.434,9.863-3.578,24.769-8.988,29.982-12.535a3.659,3.659,0,0,0,1.155-4.725c-.973-1.733-3.818-2.735-8.878-.4l-.142.058L234.35,388.87a1.7,1.7,0,0,1-.578.1h-21.83a1.7,1.7,0,0,1,0-3.408h21.54l22.574-8.035c7.116-3.255,11.483-1.181,13.2,1.851a7.038,7.038,0,0,1-2.215,9.219c-5.565,3.786-20.116,9.066-30.736,12.919-4.237,1.536-7.9,2.865-9.2,3.466a1.673,1.673,0,0,1-.722.162Z" transform="translate(555.236 1964.471)" fill-rule="evenodd"/>
        <path id="Path_118_-_Outline" data-name="Path 118 - Outline" d="M227.5,405.555h-9.122a2.1,2.1,0,0,1-.757-.143l-21.2-8.178H190.8a2.1,2.1,0,0,1,0-4.208h6.01a2.1,2.1,0,0,1,.757.143l21.2,8.178h7.172c1.694-.734,5.12-1.976,9.076-3.41,9.843-3.571,24.717-8.968,29.893-12.489a3.259,3.259,0,0,0,1.029-4.2,3.571,3.571,0,0,0-3.318-1.561,12.428,12.428,0,0,0-5.042,1.331l-.016.007-.158.064-22.923,8.159a2.088,2.088,0,0,1-.7.121H211.942a2.1,2.1,0,0,1,0-4.208h21.471l22.492-8.006a16.467,16.467,0,0,1,6.74-1.676,7.664,7.664,0,0,1,6.957,3.7,7.438,7.438,0,0,1-2.339,9.747c-5.609,3.816-20.183,9.1-30.824,12.964-4.042,1.466-7.86,2.85-9.171,3.452l-.014.007Zm-36.7-11.729a1.3,1.3,0,0,0,0,2.608h5.767l.069.027,21.268,8.2a1.3,1.3,0,0,0,.469.089h6.9l-.021-.017h1.114a1.284,1.284,0,0,0,.549-.123h0c1.339-.615,5.174-2.006,9.235-3.478,10.6-3.846,25.121-9.114,30.647-12.874a6.638,6.638,0,0,0,2.09-8.7,6.226,6.226,0,0,0-2.324-2.326,7.805,7.805,0,0,0-3.935-.966,15.7,15.7,0,0,0-6.423,1.611l-.032.013-22.639,8.058H211.942a1.3,1.3,0,0,0,0,2.608h21.843a1.292,1.292,0,0,0,.435-.075l22.915-8.156.125-.051a13.19,13.19,0,0,1,5.369-1.4c2.531,0,3.6,1.237,4.018,1.974v.009a4.06,4.06,0,0,1-1.281,5.241c-5.261,3.579-20.192,9-30.073,12.581-4,1.452-7.463,2.706-9.1,3.424l-.077.034h-7.488l-.069-.027-21.268-8.2a1.306,1.306,0,0,0-.47-.089Z" transform="translate(555.236 1964.471)"/>
        <path id="Path_119" data-name="Path 119" d="M115.644,345.643H97.633a1.7,1.7,0,0,1-1.7-1.7V306.765a1.7,1.7,0,0,1,1.7-1.7h18.008a1.7,1.7,0,0,1,1.7,1.7v37.174a1.7,1.7,0,0,1-1.7,1.7Zm-16.307-3.4h14.6V308.469h-14.6Z" transform="translate(630.24 2021.477)" fill-rule="evenodd"/>
        <path id="Path_119_-_Outline" data-name="Path 119 - Outline" d="M115.644,346.043H97.633a2.107,2.107,0,0,1-2.1-2.1V306.765a2.106,2.106,0,0,1,2.1-2.1h18.008a2.106,2.106,0,0,1,2.1,2.1v37.174a2.107,2.107,0,0,1-2.1,2.1ZM97.633,305.461a1.305,1.305,0,0,0-1.3,1.3v37.173a1.306,1.306,0,0,0,1.3,1.3h18.01a1.306,1.306,0,0,0,1.3-1.3V306.765a1.305,1.305,0,0,0-1.3-1.3Zm16.707,37.176H98.94V308.069h15.4Zm-14.6-.8h13.8V308.869H99.74Z" transform="translate(630.24 2021.477)"/>
        <path id="Path_121" data-name="Path 121" d="M327.119,127.411a1.7,1.7,0,0,1-1.2-2.908l24.466-24.466a1.7,1.7,0,0,1,2.409,2.409l-24.466,24.466a1.7,1.7,0,0,1-1.2.5Z" transform="translate(448.253 2186.926)" fill-rule="evenodd"/>
        <path id="Path_121_-_Outline" data-name="Path 121 - Outline" d="M327.165,127.811h-.046a2.1,2.1,0,0,1-1.487-3.591l24.474-24.474a2.1,2.1,0,0,1,2.974,2.974l-.008.008-24.466,24.466a2.086,2.086,0,0,1-1.439.616Zm-.053-.8h.008a1.292,1.292,0,0,0,.921-.382L352.5,102.168a1.3,1.3,0,1,0-1.843-1.843L326.2,124.786a1.3,1.3,0,0,0,.914,2.225Z" transform="translate(448.253 2186.926)"/>
        <path id="Path_122" data-name="Path 122" d="M332.154,112.277a5.967,5.967,0,1,1,4.223-1.733A5.967,5.967,0,0,1,332.154,112.277Zm0-8.532a2.565,2.565,0,1,0,1.814.751A2.565,2.565,0,0,0,332.154,103.745Z" transform="translate(447.783 2186.274)" fill-rule="evenodd"/>
        <path id="Path_122_-_Outline" data-name="Path 122 - Outline" d="M332.178,112.677h-.026a6.379,6.379,0,1,1,.026,0Zm-.008-11.935a5.567,5.567,0,1,0-.015,11.134h.023a5.567,5.567,0,0,0-.007-11.134Zm-.016,8.532a2.965,2.965,0,1,1,0-5.93h.007a2.965,2.965,0,0,1-.008,5.93Zm0-5.13a2.164,2.164,0,1,0,.009,0Z" transform="translate(447.783 2186.274)"/>
        <path id="Path_123" data-name="Path 123" d="M412.271,192.4a5.967,5.967,0,1,1,4.223-1.733,5.967,5.967,0,0,1-4.223,1.733Zm0-8.532a2.565,2.565,0,1,0,1.814.751,2.565,2.565,0,0,0-1.814-.751ZM409.253,183.415Z" transform="translate(383.292 2121.774)" fill-rule="evenodd"/>
        <path id="Path_123_-_Outline" data-name="Path 123 - Outline" d="M412.3,192.8h-.026a6.374,6.374,0,1,1,.026,0Zm-.008-11.934A5.567,5.567,0,1,0,412.272,192h.023a5.568,5.568,0,0,0-.008-11.135Zm-.016,8.533h0a2.965,2.965,0,0,1,0-5.93h.009a2.965,2.965,0,1,1-.008,5.93Zm0-5.236v.107a2.151,2.151,0,1,0,.007,0h-.006v-.107Z" transform="translate(383.292 2121.774)"/>
        <path id="Ellipse_1" data-name="Ellipse 1" d="M26.5,4a21.936,21.936,0,0,0-8.732,1.8,22.409,22.409,0,0,0-7.152,4.915,22.962,22.962,0,0,0-4.84,7.314,23.56,23.56,0,0,0,0,17.952,22.962,22.962,0,0,0,4.84,7.314A22.409,22.409,0,0,0,17.768,48.2a22.134,22.134,0,0,0,17.464,0,22.409,22.409,0,0,0,7.152-4.915,22.962,22.962,0,0,0,4.84-7.314,23.56,23.56,0,0,0,0-17.952,22.962,22.962,0,0,0-4.84-7.314A22.409,22.409,0,0,0,35.232,5.8,21.936,21.936,0,0,0,26.5,4m0-4A26.754,26.754,0,0,1,53,27,26.754,26.754,0,0,1,26.5,54,26.754,26.754,0,0,1,0,27,26.754,26.754,0,0,1,26.5,0Z" transform="translate(761.169 2272.999)"/>
      </g>
    </g>
  </g>
</svg>
