<?xml version="1.0" encoding="utf-8"?>
<!-- Generator: Adobe Illustrator 28.1.0, SVG Export Plug-In . SVG Version: 6.00 Build 0)  -->
<svg version="1.1" id="Layer_1" xmlns="http://www.w3.org/2000/svg" xmlns:xlink="http://www.w3.org/1999/xlink" x="0px" y="0px"
	 viewBox="0 0 250 67.8" style="enable-background:new 0 0 250 67.8;" xml:space="preserve">
<g>
	<path d="M7.1,39.5c-1.5,0.8-2.6,1.4-3.2,1.8s-1,0.7-1.2,1c-0.4,0.5-0.8,0.6-1.3,0.4c-0.3-0.1-0.4-0.3-0.3-0.6
		c0.1-0.4,1.5-1.3,4.1-2.8c2.6-1.5,5.4-2.9,8.3-4.3l3.2-1.4l3.2-6.3c1.2-2.4,2.7-5.2,4.3-8.5c1.9-3.7,2.8-5.5,2.6-5.5
		c0,0-0.7,0.2-2,0.6s-2.6,0.7-4,1.1c-1.3,0.4-2.8,0.8-4.4,1.2c-1.6,0.4-2.8,0.7-3.7,0.9c-0.5,0.1-0.8,0.1-1,0.1
		c-0.1,0-0.3-0.1-0.4-0.2c-0.2-0.2-0.3-0.4-0.3-0.6c0-0.4,0.8-1.2,2.3-2.2c1.6-1,4.1-2.5,7.7-4.5c5-2.8,8-4.3,9-4.5
		c1.2-0.1,1.6,0.6,1.2,2.1c-0.1,0.4-0.5,1.4-1.2,3c-0.2,0.4-0.2,0.6-0.1,0.6c0.3,0,2.3-0.7,6-2.2c3.8-1.5,6.9-2.7,9.5-3.8
		c0.7-0.3,1.3-0.6,1.9-0.8c0.5-0.2,1-0.4,1.4-0.5c0.4-0.1,0.7-0.2,1-0.3c0.2-0.1,0.5-0.1,0.6-0.1c0.2,0,0.3,0.1,0.4,0.2
		c0.1,0.1,0.1,0.2,0.2,0.4c0,0.3,0,0.5-0.2,0.6c-0.2,0.2-0.4,0.2-0.8,0.2c-0.2,0-1,0.2-2.2,0.7c-1.2,0.5-2.6,1-4.1,1.7
		c-1.6,0.7-3.5,1.5-5.8,2.4c-2.3,0.9-4.4,1.7-6.4,2.3L29,12.5c-6.9,13.4-10.3,20.1-10.3,20.2c0.2,0,1.4-0.5,3.6-1.4
		c4.8-1.9,8.9-3.4,12.3-4.6c3.4-1.1,5.2-1.5,5.5-1.3c0.3,0.3,0,0.6-1,1l-0.7,0.3c-6.7,2.2-13.6,4.8-20.7,7.8L16,37.9
		c-0.7,1.4-1.6,3.1-2.6,5.2c-1,2.1-2,4.2-3,6.2c-1,2-1.7,3.5-2,4.4c-1,2.3-2,4.8-3,7.5c-1,2.7-1.4,4.3-1.3,4.8
		c0.1,0.5,0,0.9-0.4,1.2c-0.3,0.3-0.7,0.3-1,0c-0.3-0.3-0.2-1.3,0.3-3.1c0.5-1.9,1.2-3.8,1.9-5.7s1.7-4.1,2.9-6.6
		c1.2-2.5,2.8-5.8,4.8-10c2-4.1,2.9-6.2,2.8-6.2c-0.2,0-0.9,0.3-1.9,0.8s-2.1,1-3.3,1.6C9,38.5,8,39.1,7.1,39.5z M13.9,15.2
		c0.2,0,1-0.2,2.3-0.5c1-0.3,2.2-0.6,3.4-0.9s2.3-0.6,3.2-0.9c1-0.3,1.8-0.5,2.6-0.8c0.8-0.2,1.4-0.4,1.9-0.6
		c0.5-0.1,0.7-0.2,0.7-0.2l0.8-1.8c0.9-2,1.4-3,1.4-3.1c0-0.4-2.8,0.9-8.3,4C17.1,13,14.4,14.7,13.9,15.2z"/>
	<path d="M37.7,28.8c0-0.4,0.2-1,0.5-1.6c0.3-0.7,0.7-1.2,1.1-1.7c0.9-0.9,1.7-1.2,2.5-0.8c0.8,0.3,1.1,1.1,1.1,2.3l-0.1,0.8
		l0.6-0.1c0.4-0.1,0.9-0.3,1.3-0.5c0.4-0.2,0.8-0.5,1.1-0.7c0.3-0.2,0.6-0.5,0.8-0.7c0.2-0.2,0.4-0.5,0.6-0.7
		c0.2-0.2,0.3-0.3,0.4-0.4l-1.1-0.1c-1-0.1-1.7-0.3-2.2-0.5c-0.5-0.2-0.7-0.6-0.8-1.1c-0.1-0.5,0.2-0.9,0.8-1.3
		c0.6-0.4,1.3-0.6,2-0.6c0.7,0,1.3,0,1.9,0.2c0.3,0.2,0.6,0.4,0.8,0.7c0.2,0.3,0.3,0.6,0.3,0.8c0,0.2,0,0.3,0.1,0.4
		c0.1,0.1,0.2,0.1,0.5,0.1c0.9,0.2,1.4,0.4,1.5,0.8c0.2,0.4,0.1,1-0.1,1.8c-0.2,0.7-0.7,2-1.5,3.8c-0.4,0.8-0.7,1.7-1.2,2.7
		c-0.3,0.8-0.5,1.2-0.6,1.4s-0.2,0.3-0.4,0.3c-0.2,0-0.3-0.1-0.4-0.4c-0.1-0.5,0.4-2,1.5-4.5c1.1-2.5,1.6-4,1.6-4.4
		c0-0.1-0.2-0.2-0.6-0.2c-0.3,0-0.5,0-0.6,0.1c-0.1,0.1-0.3,0.3-0.5,0.7c-0.5,0.9-1.2,1.6-2.1,2.3c-1,0.6-2,1.1-3.1,1.4
		c-0.8,0.2-1.3,0.3-1.5,0.4c-1,0.6-1.9,0.9-2.4,0.9C38.2,30.2,37.7,29.7,37.7,28.8z M39,28.8c0,0.1,0.2,0.2,0.4,0.2
		c0.2,0,0.4-0.1,0.5-0.2c0.1-0.1,0.2-0.2,0.2-0.2s-0.1-0.1-0.2-0.3c-0.1-0.1-0.1-0.1-0.1-0.1l-0.4-0.5c-0.1,0.1-0.1,0.3-0.2,0.6
		C39,28.6,38.9,28.8,39,28.8z M40.6,27.1c0.2,0.4,0.4,0.5,0.5,0.5c0.2,0,0.3-0.2,0.3-0.6c0-0.2,0-0.5,0-0.6c0-0.2-0.1-0.3-0.2-0.4
		c-0.1-0.1-0.2-0.1-0.3,0C40.5,26.2,40.4,26.6,40.6,27.1z M46.6,22.2c-0.9,0-1.5,0.1-1.8,0.4c-0.1,0.1-0.1,0.1,0,0.2
		c0.1,0.1,0.5,0.1,1.2,0.2c0.7,0.1,1.2,0.2,1.5,0.2c0,0,0.1,0,0.2-0.1c0.1-0.1,0.1-0.1,0.1-0.2c0-0.2-0.1-0.4-0.2-0.5
		C47.4,22.2,47,22.2,46.6,22.2z"/>
	<path d="M76.3,29c-0.4,0-0.7-0.1-1-0.4c-0.2-0.2-0.4-0.7-0.4-1.3c0-0.3-0.8,0.4-2.3,1.9c-0.5,0.5-0.9,1.1-1.4,1.6
		c-1.9,2.4-3.1,3.7-3.6,3.7c-0.5,0-0.8-0.2-0.9-0.5c-0.1-0.4,0-1,0.2-2c0-0.2,0.1-0.3,0.1-0.5c0-0.2,0.1-0.3,0.1-0.4
		c0-0.1,0-0.2,0-0.2l-0.9,1.2c-0.1,0.2-0.3,0.4-0.4,0.6c-0.5,0.7-0.9,1.3-1.4,1.9c-0.5,0.6-0.9,1.1-1.3,1.5c-0.4,0.4-0.8,0.7-1.1,1
		c-0.4,0.2-0.6,0.4-0.8,0.4c-0.1,0-0.4-0.2-0.7-0.5c-0.5-0.5-0.8-1.3-0.8-2.7c0-1.3,0.1-2.8,0.5-4.4c0.3-1.6,0.7-3.2,1.1-4.7
		c0.4-1.5,0.8-2.8,1.1-3.9c0.3-1.1,0.5-1.6,0.5-1.7c-0.1-0.1-0.5-0.1-1.1,0c-0.6,0-1.4,0.1-2.2,0.2c-0.9,0.1-1.4,0.1-1.5,0.1
		c-0.3-0.1-0.5-0.2-0.5-0.5c0-0.3,0.1-0.5,0.4-0.6c0.2-0.1,2.1-0.3,5.7-0.6c0,0,0.1-0.4,0.4-1c0.2-0.6,0.5-1.4,0.9-2.3
		c0.4-0.9,0.8-1.9,1.3-3c0.5-1.1,1-2.2,1.6-3.4s1.2-2.2,1.8-3.1c0.1-0.2,0.2-0.3,0.4-0.5c0.1-0.2,0.2-0.3,0.3-0.4
		c0.1-0.1,0.2-0.2,0.2-0.3c0.1-0.1,0.1-0.2,0.2-0.3c0-0.1,0.1-0.1,0.2-0.2c0.1-0.1,0.1-0.1,0.1-0.2c0,0,0.1-0.1,0.1-0.1
		c0,0,0.1-0.1,0.1-0.1c0,0,0.1,0,0.1-0.1c0,0,0.1,0,0.1-0.1c0.2-0.1,0.5-0.1,0.7,0.1c0.2,0.1,0.3,0.2,0.3,0.4c0,0.2-0.1,0.3-0.2,0.4
		c-0.3,0.2-0.9,1-1.7,2.3C69.7,7.5,69,8.8,68.4,10c-0.6,1.2-1.3,2.8-2.2,4.8c-0.8,2-1.2,3-1.2,3.1c0,0.1,1.1,0.1,3.3-0.1
		c2.2-0.1,3.3-0.2,3.3-0.3c0.1,0,0.3-0.5,0.7-1.6c0.3-0.7,0.7-1.6,1.2-2.7c0.5-1.1,1-2.1,1.5-3c0.5-0.9,0.8-1.6,1.1-2
		c0.4-0.7,0.8-1.1,1-1.2C77.3,7,77.6,7,77.9,7.3c0.2,0.2,0.3,0.4,0.3,0.8c-0.2,1-1.5,3.9-3.9,8.9l-0.3,0.8c0.7,0,1.6,0,2.8,0
		c3.1,0,4.9,0,5.4,0.1c0.5,0,0.8,0.1,0.9,0.3c0.1,0.2,0,0.3-0.2,0.5c-0.5,0.2-2,0.3-4.5,0.4c-2.5,0.1-4.2,0.2-5.1,0.2
		c-0.1,0.2-0.3,0.8-0.7,1.6c-0.4,0.9-0.8,1.8-1.3,2.8c-0.4,1-0.8,2-1.1,2.9c-0.3,0.8-0.6,1.7-0.8,2.7c-0.3,1-0.5,1.8-0.7,2.5
		c-0.2,0.7-0.2,1-0.2,1c0,0,0.2-0.1,0.4-0.4c0.3-0.3,0.6-0.7,1-1.3c0.4-0.5,0.9-1.1,1.3-1.7c0.5-0.6,1-1.2,1.6-1.8
		c0.6-0.6,1.1-1.1,1.6-1.5c0.6-0.5,1.1-0.6,1.4-0.5c0.4,0.1,0.5,0.5,0.5,1.2c0,0.6,0.1,0.9,0.2,1s0.5-0.1,1.1-0.4
		c0.5-0.3,1.2-0.7,1.9-1.2c0.9-0.7,1.4-0.7,1.4-0.1c0,0.5-0.6,1.1-1.8,1.9S77,29,76.3,29z M61.5,36c0.1,0.1,0.2,0,0.4-0.1
		c0.2-0.2,0.5-0.5,1-1c1.1-1.2,2.5-3.2,4-5.9c1.5-2.7,2.6-5.1,3.4-7.3c0.5-1.3,0.8-2.1,0.8-2.3c-0.2,0-0.7-0.1-1.6-0.1
		c-0.9,0-2,0-3.1,0.1c-1.1,0.1-1.7,0.1-1.8,0.2c-0.2,0.2-0.7,1.8-1.4,4.6c-0.8,2.8-1.3,4.9-1.5,6.3c-0.1,1-0.2,2.1-0.3,3.4
		C61.4,35.1,61.4,35.8,61.5,36z"/>
	<path d="M89.8,25.5c0.2,0.2,0.2,0.4,0.1,0.6c-0.2,0.2-0.7,0.6-1.5,1.1c-2.2,1.4-4.1,2.4-5.9,3c-1.8,0.6-3.1,0.8-3.9,0.5
		c-0.1,0-0.3-0.1-0.6-0.4c-0.4-0.4-0.5-0.9-0.4-1.6c0.2-0.7,0.7-1.4,1.5-2.1c1.1-1.1,2.2-1.7,3.1-1.6c0.7,0,1,0.3,1,0.9
		c0,0.4-0.3,0.8-0.8,1.3c-0.5,0.5-1.1,1-1.8,1.3c-0.4,0.2-0.6,0.3-0.8,0.3c-0.2,0-0.3-0.1-0.5-0.3c-0.1-0.1-0.2-0.1-0.3-0.1
		c0,0-0.1,0.1-0.2,0.4c-0.1,0.3-0.1,0.5,0,0.6c0.1,0.1,0.5,0.1,1,0c1.5-0.1,3.4-0.9,5.8-2.2c1.9-1.1,3.1-1.7,3.4-1.8
		C89.5,25.3,89.7,25.3,89.8,25.5z M81,26.6c-0.1,0-0.2,0.1-0.3,0.2c-0.1,0.1-0.2,0.1-0.3,0.2c-0.1,0.1-0.2,0.1-0.2,0.2
		c-0.1,0.1-0.1,0.1-0.1,0.1l0.3-0.1c0.3-0.2,0.6-0.4,0.9-0.6L81,26.6z"/>
	<path d="M108.4,4.5c0.3,0.2,0.2,0.7-0.2,1.3c-0.5,0.7-1.5,2.6-2.9,5.7c-1.5,3.1-2.9,6.3-4.2,9.6c-1.3,3.3-2,5.4-2,6.4
		c0,0.6,0.2,1,0.6,1.1c0.4,0.1,1,0,1.7-0.3c0.4-0.2,1.1-0.6,1.9-1.1c0.8-0.5,1.5-1,2-1.4c0.6-0.4,0.9-0.5,1.1-0.2
		c0.2,0.4-0.3,1-1.4,1.9c-0.3,0.3-0.7,0.6-1.2,0.8c-1.2,0.7-2.1,1.2-2.8,1.5c-0.7,0.2-1.4,0.2-2,0c-0.5-0.3-0.8-0.6-1-0.9
		c-0.2-0.3-0.2-0.9-0.2-1.6c0-0.6,0-1.1,0.1-1.5c0.1-0.4,0.3-1,0.5-1.8c0.8-2.4,2.4-6.1,4.6-11c2.3-4.9,3.7-7.7,4.3-8.3
		C107.8,4.2,108.1,4.2,108.4,4.5z"/>
	<path d="M114.6,25.4c0.2,0,0.3,0.1,0.4,0.3c0.1,0.2,0.1,0.4,0.1,0.5c0,0.2-0.3,0.4-0.7,0.6c-0.4,0.2-1.1,0.5-2.2,0.8
		c-0.9,0.3-1.7,0.5-2.4,0.5c-0.7,0-1.3,0.1-1.6,0.1c-0.4,0-0.7,0.2-0.9,0.4c-0.3,0.3-0.7,0.5-1.3,0.8s-0.9,0.4-1.2,0.4
		c-0.3,0-0.6-0.1-0.8-0.4c-0.3-0.4-0.4-0.8-0.3-1.3c0.2-0.5,0.6-1.2,1.3-2c0.4-0.5,0.9-0.8,1.3-1s0.8-0.3,1.1-0.3
		c0.3,0,0.6,0.3,0.9,0.7c0.3,0.4,0.4,0.7,0.3,1c-0.1,0.2,0,0.4,0.1,0.5c0.1,0,0.5,0,1-0.1c0.5-0.1,1.1-0.2,1.7-0.4
		c0.6-0.2,1.2-0.4,1.7-0.6C114,25.6,114.5,25.4,114.6,25.4z M106,28c0.2-0.2,0.3-0.3,0.4-0.4c0.1-0.1,0.1-0.2,0.1-0.2s0-0.1,0-0.2
		c0-0.1,0-0.2,0-0.3c0-0.4-0.4-0.1-1.1,0.8c-0.3,0.4-0.5,0.6-0.5,0.7C104.9,28.6,105.2,28.5,106,28z"/>
	<path d="M125.5,25.4c0.1,0.1,0.2,0.2,0.2,0.4c0,0.4-0.7,0.8-2.1,1.3c-1.4,0.5-2.7,0.8-3.8,0.9c-0.9,0.1-1.4,0.2-1.5,0.3
		c-0.2,0.2-0.6,0.5-1.2,0.7c-0.5,0.2-1.1,0.4-1.6,0.5c-0.5,0.1-0.9,0.1-1.1,0.1c-0.1,0-0.1-0.1-0.2-0.2c-0.1-0.1-0.2-0.2-0.2-0.3
		c-0.5-0.4-0.5-1.4,0.1-3.1c0.2-0.7,0.4-1.1,0.6-1.3c0.2-0.2,0.4-0.2,0.7-0.1c0.2,0.1,0.2,0.2,0.2,0.4c0,0.2-0.1,0.6-0.3,1.3
		c-0.3,0.8-0.4,1.3-0.4,1.5s0.2,0.3,0.4,0.3c0.4,0,1.1-0.3,2-0.8c-0.3-0.9-0.3-1.7,0.2-2.3c0.2-0.3,0.6-0.6,1.1-0.9
		c0.5-0.3,0.8-0.4,1.1-0.3c0.4,0.1,0.6,0.3,0.8,0.4c0.2,0.2,0.2,0.4,0.2,0.5c0,0.2-0.1,0.4-0.2,0.7c-0.1,0.3-0.2,0.5-0.4,0.6
		c-0.1,0.2-0.3,0.4-0.5,0.6l1.1-0.2c0.2,0,0.6-0.1,1.1-0.3c0.5-0.2,1-0.3,1.5-0.5c0.5-0.2,0.9-0.3,1.3-0.4
		C125.2,25.4,125.4,25.3,125.5,25.4z M118.5,26.3c0,0.2,0.2,0.1,0.5-0.4c0.3-0.3,0.4-0.5,0.3-0.5c0-0.1-0.1,0-0.3,0.1
		c-0.1,0.1-0.3,0.3-0.4,0.4C118.5,26,118.5,26.2,118.5,26.3z"/>
	<path d="M134.3,25.5c0.2,0.2,0.2,0.4,0.1,0.6c-0.2,0.2-0.7,0.6-1.5,1.1c-2.2,1.4-4.1,2.4-5.9,3c-1.8,0.6-3.1,0.8-3.9,0.5
		c-0.1,0-0.3-0.1-0.6-0.4c-0.4-0.4-0.5-0.9-0.4-1.6c0.2-0.7,0.7-1.4,1.5-2.1c1.1-1.1,2.2-1.7,3.1-1.6c0.7,0,1,0.3,1,0.9
		c0,0.4-0.3,0.8-0.8,1.3c-0.5,0.5-1.1,1-1.8,1.3c-0.4,0.2-0.6,0.3-0.8,0.3c-0.2,0-0.3-0.1-0.5-0.3c-0.1-0.1-0.2-0.1-0.3-0.1
		c0,0-0.1,0.1-0.2,0.4c-0.1,0.3-0.1,0.5,0,0.6c0.1,0.1,0.5,0.1,1,0c1.5-0.1,3.4-0.9,5.8-2.2c1.9-1.1,3.1-1.7,3.4-1.8
		C134,25.3,134.2,25.3,134.3,25.5z M125.5,26.6c-0.1,0-0.2,0.1-0.3,0.2c-0.1,0.1-0.2,0.1-0.3,0.2c-0.1,0.1-0.2,0.1-0.2,0.2
		c-0.1,0.1-0.1,0.1-0.1,0.1l0.3-0.1c0.3-0.2,0.6-0.4,0.9-0.6L125.5,26.6z"/>
	<path d="M150.8,21.8c2.8-4.1,4.5-6.2,5.3-6.2c0.1,0,0.3,0,0.4,0.1c0.1,0.1,0.2,0.1,0.3,0.2c0.1,0.1,0.1,0.2,0.2,0.4
		c0,0.2,0.1,0.4,0.1,0.6c-0.1,0.8-0.7,2-2,3.7c-1.2,1.6-2.4,2.8-3.5,3.6c-0.5,0.3-0.9,0.9-1.3,1.6c-0.4,0.7-0.6,1-0.6,1.1
		c0.2,0,0.4,0.1,0.5,0.1c0.3,0,1.1-0.2,2.4-0.8c1.1-0.5,1.8-0.8,2.2-0.8s0.6,0.1,0.7,0.3c0.1,0.2,0,0.4-0.3,0.7
		c-0.3,0.2-0.9,0.5-1.8,1c-0.7,0.3-1.2,0.5-1.3,0.6c-0.1,0.1-0.2,0.3-0.3,0.6c-0.2,1.4-1.5,3.3-3.8,5.6c-0.8,0.8-1.6,1.6-2.6,2.5
		c-1,0.9-1.6,1.4-2,1.5c-0.4,0.2-0.7,0.2-0.9-0.1c-0.2-0.2-0.3-0.3-0.3-0.4c0-0.1,0.3-0.5,1-1.2c1.1-1.1,2.2-3,3.2-5.6
		c0.3-0.8,0.5-1.3,0.5-1.5c0-0.2,0-0.4-0.2-0.4c-0.2-0.1-0.2-0.3-0.2-0.5c0-0.2,0.1-0.4,0.3-0.7c0.2-0.2,0.4-0.4,0.7-0.5
		c0.2,0,0.4-0.2,0.7-0.6c0.2-0.3,0.4-0.6,0.4-0.8c-0.4,0.1-0.8,0.3-1.2,0.5c-0.5,0.2-1,0.4-1.3,0.5c-0.4,0.1-0.7,0.1-1.1,0.2
		c-0.4,0-0.6,0-0.7,0.1l-0.6,1c-0.5,0.7-1,1.2-1.5,1.7s-1,0.7-1.4,0.7s-0.7-0.2-0.9-0.6c-0.2-0.5,0.1-1.4,0.9-2.7
		c0.2-0.4,0.6-0.8,0.9-1.2c0.4-0.4,0.8-0.8,1.2-1.3s0.9-0.7,1.2-0.8c0.4-0.1,0.7,0,0.9,0.3c0.1,0.2,0.2,0.3,0.2,0.3
		c0,0.1-0.1,0.2-0.2,0.3c-0.2,0.1-0.2,0.3-0.2,0.5c0.1,0.2,0.2,0.4,0.4,0.4c0.1,0,0.5-0.2,1.1-0.5c0.7-0.3,1.4-0.6,2.1-1
		c0.7-0.4,1.1-0.6,1.2-0.6L150.8,21.8z M141.1,28.8l0.4-0.5c0.3-0.3,0.8-1,1.3-2.1l-0.5,0.6c-0.2,0.2-0.4,0.5-0.6,0.8
		c-0.2,0.3-0.3,0.5-0.4,0.7C141.2,28.6,141.1,28.7,141.1,28.8z M148.7,31.1c0.5-0.6,0.8-1.1,1.1-1.6c0.3-0.5,0.4-0.8,0.3-0.9
		c0-0.1-0.3,0-0.8,0.1c-0.5,0.1-0.7,0.3-0.8,0.4c-0.1,0.1-0.2,0.3-0.4,0.7s-0.4,0.9-0.6,1.5c-0.2,0.6-0.4,1.1-0.5,1.4l-0.3,0.6
		c0,0,0.2-0.1,0.3-0.3s0.4-0.4,0.7-0.7C148,32,148.4,31.6,148.7,31.1z"/>
	<path d="M147.2,48.5c-0.3-0.4-0.5-0.7-0.7-0.9c-0.1-0.2-0.3-0.5-0.5-0.9s-0.4-0.7-0.5-1.2c-0.1-0.5-0.3-1-0.4-1.5
		c-0.4-3.1,0.8-6.1,3.7-8.8c0.9-0.9,2-1.8,3.3-2.5c1.3-0.8,2.3-1.3,3.2-1.7c0.8-0.3,1.8-0.7,2.9-1.1s1.7-0.6,1.7-0.6
		c0.3-0.3,0.6-0.7,1-1.2c0.4-0.5,0.7-0.8,0.9-1c0.2-0.2,0.5-0.6,0.8-1.2c0.4-0.6,0.8-1.3,1.2-2.1c4.5-8.7,8.2-15.3,11-20.1
		c0.8-1.4,1.4-2.3,1.7-2.7c0.3-0.4,0.5-0.6,0.7-0.6c0.3,0,0.6,0.1,0.7,0.4s0.1,0.5-0.2,0.7c-0.3,0.2-1.5,2.1-3.5,5.7
		c-2,3.5-3.9,7-5.8,10.5c-1.9,3.4-2.8,5.2-2.8,5.3c0,0.1,0.3-0.1,0.8-0.6c0.5-0.5,1.4-1.3,2.6-2.3c1.2-1,2.5-2.1,4.1-3.3
		c1.5-1.2,3.5-2.5,5.8-4c2.3-1.5,4.8-2.9,7.2-4.1c3.1-1.6,5.4-2.3,7.1-2.3c0.6,0,1,0,1.2,0.1s0.4,0.1,0.7,0.3
		c0.3,0.3,0.6,0.6,0.9,1.1c0.4,0.6,0.4,1.7,0.2,3.3c-0.2,1.6-0.7,3.4-1.5,5.3c-0.4,1-1,2.3-1.8,4.1c-0.8,1.8-1.5,3-1.9,3.6l-0.4,0.8
		l2.1,0.1c1.4,0,2.2,0.2,2.6,0.4c0.3,0.2,0.5,0.4,0.6,0.6c0.1,0.2,0.1,0.4,0,0.5c-0.1,0.1-0.7,0-1.8-0.1c-1-0.1-1.9-0.1-2.9,0
		l-1.3,0.1l-1.4,2.1c-2.4,3.6-5.3,7-8.5,10.2c-3.2,3.2-6.5,5.9-9.7,7.9c-1,0.6-2.3,1.3-3.8,2s-2.8,1.3-3.8,1.6
		c-1.8,0.6-3.6,1-5.3,1.2c-1.7,0.2-3.2,0.2-4.5,0c-0.8-0.1-1.3-0.2-1.5-0.3c-0.1,0-0.2,0-0.3,0.2c-0.1,0.1-0.3,0.4-0.5,0.9
		c-1.4,2.7-3,5.4-4.8,8.2c-1.8,2.8-3,4.5-3.6,5c-0.3,0.3-0.5,0.4-0.7,0.4c-0.2,0-0.4-0.1-0.6-0.2c-0.4-0.3-0.4-0.9-0.2-1.7
		c0.2-0.8,0.8-2.5,1.8-4.9c0.6-1.6,1.3-3.1,2-4.7c0.7-1.6,1.4-2.9,1.9-4C146.9,49.1,147.2,48.5,147.2,48.5z M143.3,60.3
		c-0.1,0.2-0.2,0.5-0.3,0.9c-0.6,1.4-0.9,2.2-0.8,2.2c0,0,0.1-0.1,0.3-0.3c0.2-0.3,0.7-1,1.4-2c1-1.5,2.1-3.2,3.1-5
		c1.1-1.8,2.1-3.6,3.2-5.5c0,0-0.5-0.3-1.7-1c-0.1-0.1-0.1-0.1-0.2-0.1c-0.2,0.3-0.5,0.9-0.9,1.8c-0.4,0.9-1.1,2.2-1.8,3.9
		C144.7,56.9,144,58.6,143.3,60.3z M158.2,31.5c-0.1-0.2-1.3,0.3-3.7,1.5c-3.4,1.7-5.7,3.7-7,6c-1.3,2.4-1.4,4.8-0.2,7.2
		c0.3,0.7,0.6,1.1,0.7,1.1c0,0,0.1-0.1,0.3-0.4c0.5-1.1,1.7-3.1,3.5-5.9s3.4-5.2,4.8-7c0.6-0.8,1-1.4,1.3-1.8
		C158.1,31.7,158.2,31.5,158.2,31.5z M150.6,49.2c0.1,0,0.4-0.6,1.1-1.9c0.7-1.2,1.5-2.7,2.4-4.4c0.9-1.7,1.8-3.5,2.7-5.2
		s1.6-3.2,2.2-4.4c0.6-1.2,0.9-1.8,0.9-1.8c-0.1,0-0.8,0.9-2.1,2.6c-1.3,1.8-2.4,3.3-3.3,4.6c-1.4,2-2.7,4.1-3.9,6.3
		c-1.3,2.1-1.8,3.2-1.7,3.3c0.2,0.2,0.6,0.4,0.9,0.6S150.5,49.3,150.6,49.2z M175.9,27.7c-3,0.4-6,0.9-9,1.4c-3,0.5-4.6,0.9-4.8,1.1
		c0,0-1.2,2.2-3.4,6.5c-1.2,2.4-2.4,4.7-3.7,7.1c-1.2,2.3-2,3.9-2.5,4.7c-0.4,0.8-0.6,1.2-0.6,1.3c0,0.2,0.4,0.3,1.3,0.4
		c0.8,0.1,1.9,0.1,3.1,0c1.2-0.1,2.2-0.2,3-0.4c1.5-0.3,3.2-0.9,5.2-1.8s3.7-1.7,5.2-2.7c2.7-1.7,5.4-3.9,8.3-6.6
		c2.9-2.7,5.4-5.5,7.5-8.3c0.4-0.6,0.9-1.2,1.3-1.8s0.8-1.2,1.1-1.6c0.3-0.4,0.4-0.7,0.4-0.7c-0.1-0.1-1.6,0.1-4.7,0.4
		C180.6,27.1,178,27.4,175.9,27.7z M167.1,23.8c-1.2,1.1-2.1,1.9-2.6,2.5c-0.5,0.6-0.9,1.1-1.3,1.7c-0.2,0.3-0.2,0.5-0.1,0.5
		c0.1,0,1-0.1,2.6-0.4c5.2-1,12-2,20.4-2.8c2-0.2,3.2-0.4,3.3-0.5c0.3-0.4,0.8-1.3,1.6-2.8c0.8-1.5,1.4-2.7,1.8-3.8
		c1.1-2.4,1.8-4.6,2.2-6.4c0.4-1.8,0.5-3,0.1-3.6c-0.6-1.4-3.5-0.8-8.5,1.7C179.7,13.4,173.2,18.1,167.1,23.8z"/>
	<path d="M203.7,26.4c1.9-1,3-1.3,3.2-1.2c0.1,0.1,0.1,0.2,0.1,0.3c0,0.2-0.3,0.5-0.8,0.9s-1.5,0.9-2.8,1.5
		c-1.4,0.7-2.4,1.1-3.1,1.3c-0.7,0.2-1.3,0.2-1.7,0.1c-0.3-0.1-0.5-0.4-0.6-0.7c-0.1-0.3,0-0.7,0.2-1.1c0-0.1,0.1-0.1,0.1-0.2
		c0-0.1,0.1-0.2,0.1-0.3c0-0.1-0.2-0.1-0.6,0c-0.4,0-0.8,0-1.1-0.1c-0.3-0.1-0.5-0.2-0.7-0.4c-0.1-0.2-0.2-0.4-0.2-0.5
		s0.1-0.3,0.2-0.7c0.2-0.6,0.5-1,1-1.2c0.4-0.2,0.7-0.1,0.9,0.2c0,0,0.1,0.1,0.1,0.2c0,0.1,0,0.1,0,0.2c0,0.1-0.1,0.1-0.1,0.2
		c-0.1,0.1-0.1,0.2-0.2,0.2c-0.1,0.1-0.1,0.1-0.2,0.3c-0.1,0.1-0.2,0.2-0.2,0.3c0.4,0.1,1.2,0,2.3-0.3c0.8-0.2,1.4-0.3,1.6-0.3
		c0.3,0,0.4,0.2,0.5,0.5c0,0.2-0.2,0.4-0.5,0.8c-0.2,0.1-0.4,0.3-0.6,0.5s-0.4,0.3-0.5,0.5c-0.1,0.1-0.3,0.3-0.4,0.4
		c-0.1,0.1-0.1,0.2-0.1,0.2c0,0.1,0.2,0.1,0.5,0.1c0.4-0.1,0.8-0.2,1.2-0.4C201.3,27.5,202.2,27.1,203.7,26.4z"/>
	<path d="M219.6,27.1c0.3,0,0.8-0.2,1.5-0.5c0.8-0.3,1.4-0.7,2-1.1c0.2-0.1,0.3-0.2,0.3-0.2c0.1,0,0.2,0.1,0.3,0.2
		c0.2,0.2,0.2,0.4,0.1,0.6c-0.2,0.4-0.8,0.8-1.7,1.3c-0.9,0.5-1.7,0.8-2.3,0.9c-0.3,0-0.6,0-0.8,0c-0.2-0.1-0.5-0.2-0.6-0.3
		c-0.2-0.1-0.3-0.3-0.5-0.4c-0.1-0.1-0.3-0.3-0.4-0.4c-0.1-0.2-0.2-0.3-0.3-0.3l-0.7,0.5c-0.2,0.1-0.5,0.3-0.8,0.5
		c-0.3,0.2-0.5,0.4-0.7,0.6s-0.5,0.4-0.7,0.6c-0.2,0.2-0.4,0.4-0.6,0.5c-0.2,0.1-0.4,0.2-0.5,0.3c-0.2,0.1-0.3,0.1-0.4,0.1
		c-0.1,0-0.2-0.2-0.3-0.3c-0.1-0.2,0-0.8,0.2-1.6c0-0.2,0.1-0.2,0-0.3c0,0-0.1,0-0.2,0.1c-1.5,1.3-2.9,2.4-4.1,3.1
		c-1.1,0.7-2,1.1-2.6,1.2c-0.6,0.1-1.1,0.1-1.5-0.2c-0.5-0.4-0.6-1.2-0.3-2.3c0.2-0.6,0.5-1.4,0.9-2.3s0.8-1.5,1-1.8
		c0.2-0.2,0.5-0.4,0.8-0.4c0.3,0,0.5,0,0.7,0.2c0.1,0.2,0.2,0.3,0.1,0.6c-0.1,0.2-0.2,0.4-0.4,0.4c-0.2,0.1-0.6,0.7-1.1,1.8
		c-0.5,1.1-0.7,2-0.7,2.4c0,0.1,0,0.2,0.1,0.3s0.1,0.1,0.3,0.1c0.1,0,0.3-0.1,0.5-0.2c0.2-0.1,0.5-0.2,0.8-0.4
		c1.6-0.8,3.4-2.1,5.4-3.9c0.7-0.7,1.3-1.1,1.6-1.3c0.4-0.2,0.6-0.2,0.8-0.1c0.4,0.2,0.4,0.7,0.1,1.4c-0.2,0.5-0.2,0.7-0.1,0.7
		c0,0,0.4-0.2,1.1-0.7c1.1-0.7,1.9-1,2.6-0.7c0.1,0,0.3,0.3,0.6,0.7c0.1,0.2,0.3,0.4,0.4,0.5C219.2,27.1,219.3,27.1,219.6,27.1z
		 M207.8,24.2c-0.2,0-0.4-0.1-0.4-0.2c-0.3-0.3-0.1-0.8,0.6-1.5c0.7-0.7,1.2-1,1.6-0.9c0.1,0.1,0.2,0.2,0.2,0.4
		c0,0.2-0.3,0.6-0.8,1.2C208.3,23.9,208,24.2,207.8,24.2z"/>
	<path d="M248.8,16.4c0.2,0.2,0.1,0.4-0.1,0.5c-0.5,0.1-4.2,0.2-11.2,0.2c-3.6,0-6.4,0-8.5,0c-0.1,0.2-0.7,1.3-1.7,3.2
		c-1,1.9-1.9,3.6-2.7,5.1c-0.7,1.5-1.3,2.7-1.6,3.5c-0.1,0.5-0.2,0.9-0.3,1.2s-0.1,0.6-0.1,0.8c0,0.2,0,0.3,0.1,0.3
		c0.2,0,0.7-0.4,1.5-1.1c0.8-0.7,1.6-1.6,2.4-2.6c1.4-1.5,2.2-2.2,2.4-2.2c0.1,0,0.2,0.1,0.2,0.3c0.1,0.4-0.5,1.4-1.8,3
		c-2.7,3.3-4.6,4.4-5.7,3.5c-0.1-0.1-0.2-0.2-0.3-0.3c0-0.1-0.1-0.2-0.1-0.3c0-0.1,0-0.3,0-0.6c0-0.8,0.3-1.9,0.9-3.3
		c0.6-1.4,1.6-3.5,3.2-6.4c1.4-2.6,2-3.9,2-4c0-0.1-1-0.1-3.1-0.1s-4.1,0-6.2,0c-2.1,0-3.2-0.1-3.4-0.2c-0.1,0-0.1-0.2-0.1-0.4
		c0.1-0.3,0.5-0.5,1.2-0.6c0.7-0.1,2.9-0.1,6.5-0.1c2.4,0,4.4,0,5.9,0c0,0,0.1-0.2,0.4-0.6c0.2-0.4,0.5-0.9,0.8-1.6
		c0.4-0.6,0.7-1.3,1.1-2c0.4-0.7,0.8-1.5,1.3-2.2c0.4-0.7,0.8-1.4,1.1-1.9c0.2-0.4,0.4-0.6,0.5-0.7c0.1-0.1,0.3-0.1,0.4-0.1
		c0.2,0,0.4,0.1,0.4,0.2c0.1,0.1,0.1,0.2,0,0.5c-0.1,0.2-0.2,0.5-0.4,0.9c-0.2,0.3-0.5,0.8-0.8,1.5c-0.7,1.3-1.4,2.4-1.9,3.3
		c-0.5,0.9-0.9,1.6-1.1,2.1c-0.2,0.5-0.3,0.7-0.2,0.7c0.1,0,2.9,0.1,8.4,0.2c4.5,0.1,7.3,0.1,8.5,0.2
		C248,16.1,248.7,16.2,248.8,16.4z"/>
</g>
</svg>
