<svg xmlns="http://www.w3.org/2000/svg" width="300" height="202.715" viewBox="0 0 300 202.715">
  <g id="Offer" transform="translate(-17.078 -95.163)">
    <path id="Path_84249" data-name="Path 84249" d="M223.591,189.24a28.677,28.677,0,0,0,3.423.228,24.5,24.5,0,0,1,3.707.259,5.808,5.808,0,0,1,2.811,1.239,5.146,5.146,0,0,1,1.73,4.943,3.577,3.577,0,0,1-.562,1.3,4,4,0,0,1-1,.964,6.265,6.265,0,0,1-2.366.885,13.081,13.081,0,0,1-4.249,0,8.65,8.65,0,0,1-4.881-2.213c-.4-.427-.177-.494.3-.371s1.285.315,2.163.62a14.137,14.137,0,0,0,4.857.708,8.31,8.31,0,0,0,2.317-.4,3.028,3.028,0,0,0,1.624-1.137,2.688,2.688,0,0,0,.037-2.416,3.9,3.9,0,0,0-1.792-1.921,4.461,4.461,0,0,0-1.439-.443c-.544-.074-1.118-.124-1.705-.16-1.18-.074-2.39-.089-3.615-.191a14.957,14.957,0,0,1-2.3-.34l-.587-.166-.581-.235a3.8,3.8,0,0,1-1.056-.784,3.46,3.46,0,0,1-.655-3.676l.177-.443c.074-.143.166-.272.247-.408a4.74,4.74,0,0,1,.62-.73,6.048,6.048,0,0,1,1.47-1.05,11.9,11.9,0,0,1,5.208-1.2h1.168c1.464.149,1.885.443,2.107.834a1.409,1.409,0,0,1,.143.266c.074.266-.531.365-1.526.346a17.825,17.825,0,0,0-4.374.365,5.537,5.537,0,0,0-3.392,1.921,2.575,2.575,0,0,0-.284.568,1.854,1.854,0,0,0-.149.575,1.779,1.779,0,0,0,1.026,1.81,5.814,5.814,0,0,0,1.416.365Z" transform="translate(-77.353 -33.227)" fill="#231f20"/>
    <path id="Path_84250" data-name="Path 84250" d="M226.337,193.437c-.433-1.069-.885-2.138-1.353-3.194-.166-.39-.377-.76-.544-1.143-.62-1.371-1.193-2.737-1.854-4.084-.284-.62-.62-1.186-.915-1.771a24.952,24.952,0,0,1-1.124-2.267c-.105-.247.031-.278.266-.154a2.472,2.472,0,0,1,.853.809c.235.365.469.729.7,1.1l.62,1.131c.408.766.8,1.539,1.161,2.335.427.952.989,1.885,1.452,2.848s1,2.119,1.483,3.194c.3.655.575,1.328.865,1.983.421,1.014.84,2.036,1.239,3.04.315.784.708,1.526,1,2.329.062.177.142.346.2.525.166.692.13.933-.149,1.143a1.273,1.273,0,0,1-.191.143c-.222.112-.494-.112-.708-.55-.315-.655-.62-1.334-.921-2.036s-.562-1.427-.846-2.144c-.427-1.075-.853-2.157-1.31-3.231Z" transform="translate(-77.739 -32.71)" fill="#231f20"/>
    <path id="Path_84251" data-name="Path 84251" d="M233.633,190.631l-.939-3.355c-.112-.408-.253-.8-.354-1.239-.354-1.452-.661-2.916-.958-4.374l-.39-1.952a10.294,10.294,0,0,1-.241-2.539c0-.272.148-.235.309,0a2.928,2.928,0,0,1,.463,1.056c.365,1.643.736,3.276,1.112,4.943.21,1.007.587,2.008.877,3.021.334,1.106.667,2.218,1.02,3.324.21.68.433,1.359.661,2.036.354,1.02.692,2.051,1.093,3.046.315.772.708,1.5,1.05,2.249.081.16.166.321.235.488.247.62.241.865,0,1.124a2.212,2.212,0,0,1-.166.177c-.2.154-.494,0-.778-.451a18.945,18.945,0,0,1-1.927-4.214c-.39-1.1-.741-2.218-1.093-3.337Z" transform="translate(-81.65 -31.268)" fill="#231f20"/>
    <path id="Path_84252" data-name="Path 84252" d="M199.465,267.006l-42.884.062-15.644.081L85.8,267.006c-8.155-.043-16.354,0-24.448,0q-7.791,0-15.619-.031l-3.905-.037-3.911-.089-3.911-.1c-.334,0-.668-.037-1.014-.068a4.554,4.554,0,0,1-1.4-.3,1.408,1.408,0,0,1-.506-.4.885.885,0,0,1-.136-.62,3.744,3.744,0,0,1,.513-1.3,4.573,4.573,0,0,0,.469-1.433c.056-.321.089-.482.177-.469s.216.185.315.562a3.225,3.225,0,0,1-.1,1.674,3.138,3.138,0,0,0-.118.686.266.266,0,0,0,.241.241,1.7,1.7,0,0,0,.39,0c.166,0,.735-.037,1.239-.068l1.682-.118c2.354-.143,5.1-.222,8.094-.278l15.921-.189,15.935-.089H91.676l16.024.124c12.8.124,26.122-.074,39.218-.124l43.2-.112,26.568-.081c13.419-.068,26.908-.081,40.222-.2,10.358-.1,20.506-.328,30.744-.488,2.255-.037,4.455-.056,6.728-.056,8.427,0,11.121.143,12.925.587a12.092,12.092,0,0,1,1.2.3c.809.328-2.62.661-8.786.921l-6.905.284c-2.317.1-4.646.185-6.988.235l-14.211.321c-9.534.191-19.2.334-28.891.457-14.39.185-28.847.2-43.249.3Z" transform="translate(-5.295 -63.821)" fill="#231f20"/>
    <path id="Path_84253" data-name="Path 84253" d="M103.63,245.667s10.207,2.311,10.281,4.6-3.775.62-7.136,1.421c-5.116,1.239-6.345,2.921-6.345,2.921s16.577.885,18.436-.334c2.91-1.916-1.7-5.746-3.176-6.963C113.189,245.241,103.63,245.667,103.63,245.667Z" transform="translate(-31.85 -57.502)" fill="#231f20"/>
    <path id="Path_84254" data-name="Path 84254" d="M200.74,214.718c-9.657-.068-19.314-.166-28.977-.4l-5.295-.136c-1.771-.068-3.522-.112-5.351-.309-.21-.031-.4-.05-.62-.089a2.738,2.738,0,0,1-.443-.112l-.222-.1c-.037,0-.068-.043-.118-.043l-.105-.062c-.272-.222-.421-.346-.62-.5l-.451-.488a10.075,10.075,0,0,1-.741-1.014,16.709,16.709,0,0,1-1.155-2.1,41.844,41.844,0,0,1-1.662-4.325c-.482-1.44-.915-2.891-1.347-4.325s-.846-2.916-1.239-4.368l-4.692-17.43c-1.433-5.32-2.929-10.652-4.436-15.9L137.424,142.8c-.62-2.057-.185-1.952.822-.328a42.153,42.153,0,0,1,3.615,8.65c2.132,6.858,4.01,13.778,5.913,20.7s3.707,13.889,5.561,20.877c.443,1.682.9,3.374,1.378,5.067s1.007,3.38,1.539,5.067a52.248,52.248,0,0,0,1.81,4.943,21.8,21.8,0,0,0,1.161,2.273l.334.519.365.475a5.085,5.085,0,0,0,.383.427,1.328,1.328,0,0,0,.2.177l.142.124a.253.253,0,0,0,.089.043l.166.031c.2,0,.383.056.62.074.408.043.834.074,1.239.105.846.056,1.7.1,2.551.136,9.682.383,19.419.463,29.138.562l17.948.089c9.064,0,18.164,0,27.186-.074,6.994-.081,13.846-.284,20.753-.463l4.542-.13c2.842-.062,4.714-.089,6.031,0a9.841,9.841,0,0,1,2.694.433c.284.1.649.191.828.278.587.328-1.771.846-5.931,1.038-12.357.587-25.394.753-38.479.853-9.719.068-19.487.056-29.231.031Z" transform="translate(-45.878 -17.612)" fill="#231f20"/>
    <path id="Path_84255" data-name="Path 84255" d="M198.255,134.063c-4.692.13-9.4.309-14.1.5-1.717.068-3.429.191-5.141.259-6.048.21-12.1.414-18.177.433-2.688,0-5.4,0-8.069-.056-1.674-.031-3.386.1-5.116.112a17.657,17.657,0,0,1-5.223-.562c-1.075-.354-.791-.62.136-.7.475-.068,1.106-.13,1.854-.21a24.35,24.35,0,0,1,2.6-.16c1.705,0,3.441-.136,5.239-.136s3.485.062,5.239.062c3.478,0,6.969-.062,10.5-.118,4.2-.081,8.582-.427,12.882-.62l14.211-.686q4.374-.185,8.755-.328c4.418-.142,8.866-.177,13.259-.21,3.416-.037,6.8-.118,10.152-.1h2.224a15.081,15.081,0,0,1,2.947.3,2.286,2.286,0,0,1,1.273.655,3.015,3.015,0,0,1,.371.383c.241.4-.915.76-2.941.8-6.012.089-12.32,0-18.672.112-4.714.068-9.453.149-14.211.321Z" transform="translate(-47.637 -13.903)" fill="#231f20"/>
    <path id="Path_84256" data-name="Path 84256" d="M253.721,245.712q-8.8-.185-17.617-.266h-6.432c-7.55-.062-15.107-.124-22.664-.089-3.355,0-6.722.089-10.046.185l-6.413.21c-2.138.062-4.275.081-6.4.118-1.322.037-1.18-.266-.068-.661a22.588,22.588,0,0,1,5.641-.989c8.736-.383,17.461-.525,26.271-.463,5.264.043,10.745-.112,16.132-.13,5.919,0,11.844,0,17.77.043l10.936.105c5.523.068,11.066.185,16.555.315,4.27.112,8.433.068,12.709.4.482.056.933.081,1.433.16l.766.136a2.577,2.577,0,0,1,.974.463,7.123,7.123,0,0,1,1.588,1.952,8.773,8.773,0,0,1,.692,1.408,2.849,2.849,0,0,1,.2,1.761,2.281,2.281,0,0,1-.154.62c-.259.451-1.069-.723-2.472-2.682a10,10,0,0,0-.8-.974,3.426,3.426,0,0,0-.39-.334.376.376,0,0,0-.216-.081c-.383-.056-.784-.136-1.239-.166s-.9-.089-1.384-.105c-1.854-.13-3.812-.177-5.754-.247-3.9-.112-7.859-.191-11.838-.278-5.9-.136-11.838-.272-17.763-.354Z" transform="translate(-63.48 -56.737)" fill="#231f20"/>
    <path id="Path_84257" data-name="Path 84257" d="M159.99,184.17l-2.273-8.31-.877-3.015c-.983-3.559-1.927-7.13-2.947-10.677-.443-1.576-.952-3.145-1.446-4.692-.661-1.983-1.316-3.966-1.854-5.993-.16-.62.124-.62.562-.2a6.945,6.945,0,0,1,1.458,2.441c.729,2.014,1.334,4.059,1.948,6.109s1.169,4.125,1.7,6.215c.62,2.472,1.458,5.042,2.169,7.581L160.739,182l1.416,5.152c.717,2.595,1.421,5.214,2.175,7.779.62,2,1.239,3.936,1.854,5.894.136.433.272.853.414,1.285.506,1.613.55,2.157.34,2.6a1.668,1.668,0,0,1-.142.3c-.177.228-.62-.354-1.062-1.526-1.239-3.472-2.366-7.192-3.447-10.93l-2.354-8.372Z" transform="translate(-51.002 -21.336)" fill="#231f20"/>
    <path id="Path_84258" data-name="Path 84258" d="M203.661,142.92l-10.942.278-3.991.16-14.068.457-6.247.191a70.337,70.337,0,0,1-7.989-.074c-.828-.062-.708-.272,0-.482a13.655,13.655,0,0,1,3.515-.475c5.394-.05,10.794-.315,16.256-.469,3.262-.105,6.66-.346,10-.482l11.023-.4,6.8-.216,10.262-.309c2.644-.1,5.233-.272,7.846-.4l1.717-.089c2.157-.056,2.842.056,3.312.433a3.021,3.021,0,0,1,.309.241c.21.253-.667.562-2.236.692-4.658.371-9.576.525-14.519.686l-11.035.3Z" transform="translate(-54.557 -17.36)" fill="#231f20"/>
    <path id="Path_84259" data-name="Path 84259" d="M306.365,213.42l-1.081-4.04c-.13-.494-.3-.974-.433-1.47-.433-1.755-.853-3.5-1.239-5.264-.185-.778-.408-1.551-.62-2.311-.148-.488-.315-.974-.433-1.47a5.949,5.949,0,0,1-.216-1.526c0-.328.259-.346.62-.16a3.045,3.045,0,0,1,.62.408,1.667,1.667,0,0,1,.451.7c.346.983.587,1.983.834,2.991s.475,2.02.655,3.09a35.64,35.64,0,0,0,.974,3.707l1.093,4.078.7,2.508c.354,1.239.717,2.527,1.131,3.762.321.958.723,1.854,1.093,2.8.081.2.177.4.247.62.284.772.259,1.062-.089,1.359a2.475,2.475,0,0,1-.191.177c-.185.136-.649-.062-.9-.62a36.861,36.861,0,0,1-2.014-5.208c-.427-1.347-.815-2.706-1.239-4.065Z" transform="translate(-109.013 -38.94)" fill="#231f20"/>
    <path id="Path_84260" data-name="Path 84260" d="M291.659,150.191c-.148-.7-.3-1.4-.482-2.1-.074-.253-.185-.494-.247-.747-.235-.9-.482-1.8-.753-2.706a10.4,10.4,0,0,0-.457-1.168,5.3,5.3,0,0,1-.309-.772,1.446,1.446,0,0,1-.043-.908c.056-.21.315-.177.62-.074.177.05.346.089.537.148a.62.62,0,0,1,.346.266,10.77,10.77,0,0,1,.568,1.452,9.56,9.56,0,0,1,.414,1.607,19.082,19.082,0,0,0,.62,1.952c.2.717.383,1.446.544,2.175l.29,1.347c.154.68.266,1.365.427,2.036.124.525.346,1.014.494,1.526a3.018,3.018,0,0,1,.112.334c.105.427,0,.581-.377.741a2.307,2.307,0,0,1-.228.1.655.655,0,0,1-.741-.328,13.048,13.048,0,0,1-.885-2.744l-.482-2.119Z" transform="translate(-104.032 -17.758)" fill="#231f20"/>
    <path id="Path_84261" data-name="Path 84261" d="M296.066,212.831l-.914-3.528c-.112-.433-.266-.846-.371-1.279q-.556-2.28-1.075-4.56c-.16-.68-.354-1.347-.544-2.008-.124-.427-.259-.846-.365-1.279a5.172,5.172,0,0,1-.2-1.316c0-.284.2-.3.5-.136a2.682,2.682,0,0,1,.506.371,1.5,1.5,0,0,1,.377.62c.29.846.5,1.724.717,2.595s.408,1.755.568,2.656c.185,1.069.55,2.144.828,3.213l.927,3.546.62,2.175c.309,1.093.62,2.2.952,3.276.272.834.62,1.631.921,2.472.068.177.143.346.21.531.235.674.216.921-.062,1.168a1.234,1.234,0,0,1-.154.154c-.143.112-.525-.068-.736-.55a34.5,34.5,0,0,1-1.682-4.548c-.365-1.168-.692-2.348-1.031-3.528Z" transform="translate(-105.288 -39.537)" fill="#231f20"/>
    <path id="Path_84262" data-name="Path 84262" d="M393.435,259.706q2.706.519,5.443.815l2,.148c2.354.177,4.72.266,7.093.235,1.05,0,2.107-.074,3.151-.177l2.008-.185c.667-.05,1.34-.068,2.02-.062.421,0,.389.222.056.488a4.152,4.152,0,0,1-1.73.717,57.4,57.4,0,0,1-8.341.354c-1.668-.089-3.41-.05-5.116-.191-1.854-.124-3.75-.377-5.6-.668-1.143-.185-2.273-.4-3.4-.62-1.717-.346-3.423-.741-5.11-1.106l-3.911-.8c-.29-.056-.568-.124-.853-.2-1.05-.3-1.371-.463-1.532-.778a1.7,1.7,0,0,1-.112-.2c-.062-.177.42-.284,1.239-.185a56.76,56.76,0,0,1,7.259,1.3c1.81.4,3.63.791,5.449,1.112Z" transform="translate(-138.494 -61.945)" fill="#231f20"/>
    <path id="Path_84263" data-name="Path 84263" d="M386.036,214.287c1.069-2.787,2.218-5.561,3.534-8.242.494-.974.933-1.983,1.483-2.935l.365-.62c.112-.136.235-.247.354-.377.185,0,.284-.177.482-.13a2.642,2.642,0,0,1,.562.089l.525.136,1.323.371c.877.241,1.755.482,2.638.708,1.755.443,3.534.828,5.32,1.106a31.457,31.457,0,0,0,4.98.354,22.532,22.532,0,0,0,6.216-.9c.62-.2.655.068.222.537a5.326,5.326,0,0,1-2.688,1.365,23.292,23.292,0,0,1-6.8.3,42.793,42.793,0,0,1-6.64-1.137l-3.138-.778-1.576-.4-.463-.118a.462.462,0,0,0-.13,0,1.079,1.079,0,0,1-.068.112l-.253.482-.39.729a84.88,84.88,0,0,0-3.6,8.1c-.655,1.705-1.292,3.423-1.854,5.152-.885,2.626-1.771,5.27-2.527,7.921-.587,2.057-1.056,4.109-1.57,6.178-.112.457-.228.9-.365,1.347-.5,1.674-.778,2.175-1.273,2.422a2.212,2.212,0,0,1-.321.16c-.321.081-.4-.686-.16-1.94.315-1.854.76-3.775,1.267-5.691s1.05-3.843,1.631-5.77c.865-2.867,1.854-5.715,2.885-8.545Z" transform="translate(-138.725 -40.82)" fill="#231f20"/>
    <path id="Path_84264" data-name="Path 84264" d="M392.438,257.9q2.885.62,5.8.964c.717.081,1.427.1,2.138.177,2.514.21,5.042.315,7.581.278,1.124-.037,2.255-.1,3.364-.216.708-.074,1.427-.143,2.144-.235a21,21,0,0,1,2.163-.081c.451,0,.42.266.074.587a3.849,3.849,0,0,1-1.854.885,52.977,52.977,0,0,1-8.922.421c-1.792-.1-3.658-.056-5.489-.222-2.014-.155-4.016-.457-5.993-.8-1.239-.216-2.435-.469-3.646-.723l-5.455-1.239-4.189-.828c-.309-.062-.62-.13-.915-.21-1.124-.309-1.464-.494-1.631-.871a1.653,1.653,0,0,1-.118-.235c-.068-.216.457-.365,1.316-.284a48.252,48.252,0,0,1,7.8,1.322c1.933.443,3.874.89,5.82,1.267Z" transform="translate(-137.725 -61.176)" fill="#231f20"/>
    <path id="Path_84265" data-name="Path 84265" d="M436.869,228.385c-.13-1.618-.253-3.231-.354-4.844-.043-.62-.124-1.18-.16-1.771-.118-2.076-.241-4.161-.354-6.234-.056-.921-.154-1.854-.253-2.756a26.842,26.842,0,0,1-.2-3.528c0-.371.278-.34.575-.056a2.705,2.705,0,0,1,.741,1.5l.253,1.786c.074.62.105,1.192.154,1.792q.13,1.8.177,3.615c.037,1.452.253,2.941.383,4.418l.414,4.862c.081,1,.166,2,.266,2.991.154,1.505.3,3.028.519,4.511.16,1.155.408,2.28.649,3.4l.154.73c.043.228.074.421.089.581a2.776,2.776,0,0,1,0,.4.989.989,0,0,1-.177.506,1.57,1.57,0,0,1-.13.2c-.074.081-.177.043-.321-.1a2.6,2.6,0,0,1-.482-.741,18.749,18.749,0,0,1-.885-3.12c-.241-1.069-.421-2.15-.556-3.244-.21-1.625-.371-3.256-.537-4.881Z" transform="translate(-159.913 -43.497)" fill="#231f20"/>
    <path id="Path_84266" data-name="Path 84266" d="M445.456,223.027l1.186,5.474c.149.668.328,1.328.463,2,.235,1.161.457,2.323.661,3.5.1.587.191,1.174.272,1.771.037.3.074.62.1.915a2.107,2.107,0,0,1-.177,1.18l-.124.13a3.708,3.708,0,0,1-.809.581c-.247.135-.494.266-.736.383l-1.446.708c-.62.29-1.239.62-1.8.908s-1.186.581-1.705.915c-.309.2-.5,0-.414-.469a2.7,2.7,0,0,1,1.239-1.607c.853-.475,1.705-.877,2.545-1.267.421-.2.834-.39,1.239-.587.191-.1.4-.2.55-.3s.177-.112.21-.13h0v-.732q-.056-.661-.13-1.334c-.177-1.643-.62-3.33-.958-5l-1.18-5.511-.747-3.392c-.39-1.705-.766-3.429-1.186-5.116-.346-1.31-.686-2.595-1.026-3.9-.074-.284-.16-.562-.21-.859-.2-1.087-.177-1.458.056-1.736a.968.968,0,0,1,.148-.185c.185-.143.433.266.7,1.026.791,2.261,1.409,4.692,2.008,7.149l1.3,5.5Z" transform="translate(-161.964 -43.634)" fill="#231f20"/>
    <path id="Path_84267" data-name="Path 84267" d="M417.614,187.032a3.244,3.244,0,0,0-2.472-1.239,3.126,3.126,0,0,0-.974.354,5.739,5.739,0,0,0-1.693,1.378,12.039,12.039,0,0,0-1.39,1.964,13.9,13.9,0,0,0-.9,2.008,22.3,22.3,0,0,1-.989,2.663c-.136.272-.457.136-.717-.2a1.771,1.771,0,0,1-.328-1.452,15.347,15.347,0,0,1,2.539-5.561c.4-.506.84-1.014,1.3-1.505a5.954,5.954,0,0,1,1.73-1.239,4.189,4.189,0,0,1,2.472-.29,4.979,4.979,0,0,1,2.132,1.008,8.969,8.969,0,0,1,1.8,1.964,17.489,17.489,0,0,1,1.8,3.429,23.485,23.485,0,0,1,1.081,2.775,4.546,4.546,0,0,1,.166.649c.118.828-.037,1.124-.537,1.3a1.708,1.708,0,0,1-.34.118c-.4.074-.717-.216-.908-.717a46.513,46.513,0,0,0-1.817-4.473,10.986,10.986,0,0,0-1.964-2.873Z" transform="translate(-149.433 -33.892)" fill="#231f20"/>
    <path id="Path_84268" data-name="Path 84268" d="M445.993,222.115l.747,3.707c.089.451.216.9.3,1.353.3,1.594.62,3.194.9,4.789.124.708.278,1.421.427,2.119a12.051,12.051,0,0,1,.443,2.737c0,.29-.21.284-.475.089a2.089,2.089,0,0,1-.741-1.1c-.377-1.823-.784-3.646-1.007-5.523-.149-1.124-.443-2.267-.674-3.4l-.747-3.738-.469-2.3c-.241-1.162-.475-2.329-.747-3.472-.21-.885-.463-1.755-.686-2.632-.05-.191-.105-.377-.143-.581-.13-.729-.105-.974.068-1.18a.8.8,0,0,1,.118-.13c.136-.105.34.166.531.68a39.231,39.231,0,0,1,1.359,4.844q.408,1.854.822,3.707Z" transform="translate(-162.779 -44.965)" fill="#231f20"/>
    <path id="Path_84269" data-name="Path 84269" d="M409.488,208.68a23.941,23.941,0,0,0,2.663.34h.983a28.347,28.347,0,0,0,3.472-.068,10.579,10.579,0,0,0,1.526-.228c.655-.1,1.285-.29,1.952-.346.2,0,.222.143.089.34a1.539,1.539,0,0,1-.772.575,13.931,13.931,0,0,1-4.1.62l-1.267.043c-.427,0-.853.037-1.279,0a26.314,26.314,0,0,1-2.793-.228c-.568-.081-1.137-.177-1.7-.284-.859-.16-1.7-.4-2.533-.62-.62-.166-1.3-.3-1.934-.475-.142-.037-.278-.081-.421-.13-.506-.2-.62-.34-.661-.62v-.177c0-.177.284-.259.674-.191,1.168.177,2.3.55,3.478.809.877.191,1.755.4,2.644.537Z" transform="translate(-147.367 -42.819)" fill="#231f20"/>
    <path id="Path_84270" data-name="Path 84270" d="M45.985,161.336a22.059,22.059,0,0,1,1.52-1.724c.185-.21.371-.421.568-.62a17.65,17.65,0,0,1,2.329-1.8l1.087-.708c.228-.154.463-.3.7-.443a3.5,3.5,0,0,1,.784-.284c.177-.037.241.166.216.443a1.155,1.155,0,0,1-.371.8l-2.682,1.68a8.33,8.33,0,0,0-1.458,1.31,19.148,19.148,0,0,0-1.458,1.618c-.284.354-.562.708-.822,1.081a19.63,19.63,0,0,0-1.106,1.736,15.184,15.184,0,0,0-.62,1.452c-.043.105-.074.216-.13.321-.185.39-.315.475-.62.433a2,2,0,0,1-.2-.037c-.222-.062-.3-.3-.222-.62a10.337,10.337,0,0,1,1.239-2.75c.39-.655.822-1.285,1.279-1.91Z" transform="translate(-10.082 -23.154)" fill="#231f20"/>
    <path id="Path_84271" data-name="Path 84271" d="M65.22,144.9c.55-.241,1.1-.457,1.656-.661.2-.068.4-.166.62-.235.723-.222,1.458-.414,2.2-.568l.989-.216a2.65,2.65,0,0,1,1.3-.043c.143,0,.118.149,0,.3a1.34,1.34,0,0,1-.494.443,13.723,13.723,0,0,1-2.41.581,8.081,8.081,0,0,0-1.477.482c-.537.191-1.069.4-1.588.62-.328.136-.62.3-.958.457a8.588,8.588,0,0,0-1.334.853,5.454,5.454,0,0,0-.815.877l-.154.2a.348.348,0,0,1-.284.191.62.62,0,0,1-.354-.1L61.953,148a.513.513,0,0,1-.143-.62,4.492,4.492,0,0,1,1.786-1.682c.544-.29,1.075-.575,1.619-.84Z" transform="translate(-17.072 -18.323)" fill="#231f20"/>
    <path id="Path_84272" data-name="Path 84272" d="M64.079,163.936a1.175,1.175,0,0,0,.124.354,3.379,3.379,0,0,0,.723.846c.228.191.457.371.68.525a11.93,11.93,0,0,0,1.409.8,13.215,13.215,0,0,0,1.489.62,7.954,7.954,0,0,0,.8.235,4.324,4.324,0,0,0,.427.089,1.705,1.705,0,0,0,.463,0,.519.519,0,0,0,.2-.062c.247-.166.185-1.316.074-1.5a.26.26,0,0,0-.105-.089c-.081-.031-.177-.13-.266-.142a1.979,1.979,0,0,1-.3-.089c-.2-.062-.4-.148-.62-.228a10.506,10.506,0,0,1-1.2-.62,11.291,11.291,0,0,1-1.11-.76,5.306,5.306,0,0,1-.482-.4,2.28,2.28,0,0,1-.177-.177c-.043-.043-.074-.124-.081-.081-.154.089-.4.16-.451.21a.463.463,0,0,1-.216.05h-.39a2.064,2.064,0,0,0-.7.089.327.327,0,0,0-.3.328Z" transform="translate(-17.958 -26.019)" fill="#242021"/>
    <path id="Path_84273" data-name="Path 84273" d="M83.059,170.4c.112.043.216.1.328.13a13.258,13.258,0,0,0,3.138.371,20.454,20.454,0,0,0,3.022-.2,24.248,24.248,0,0,0,2.96-.562c.488-.124.974-.259,1.464-.433.241-.074.488-.177.729-.278a4.2,4.2,0,0,0,.7-.408,1.291,1.291,0,0,0,.278-.247c.272-.371-.443-1.279-.772-1.3a1.239,1.239,0,0,0-.259.056c-.21.062-.414.1-.62.177s-.414.148-.62.2a12.927,12.927,0,0,1-1.322.334,21.426,21.426,0,0,1-2.744.4,20.54,20.54,0,0,1-2.75.081,11.12,11.12,0,0,1-2.589-.34,1.251,1.251,0,0,1-.247-.05C83.424,168.415,82.7,170.121,83.059,170.4Z" transform="translate(-25.175 -27.632)" fill="#242021"/>
    <path id="Path_84274" data-name="Path 84274" d="M111.995,162.311a1.842,1.842,0,0,0,.2-.05,10.856,10.856,0,0,0,3.261-2.095,13.861,13.861,0,0,0,1.31-1.39c.2-.247.39-.494.575-.747a2.471,2.471,0,0,0,.457-.815.433.433,0,0,0,.05-.2c0-.284-.983-.915-1.239-.853a.551.551,0,0,0-.166.105,3.626,3.626,0,0,0-.321.284l-.259.328c-.177.216-.365.414-.55.62a11.2,11.2,0,0,1-1.2,1.106,10.712,10.712,0,0,1-2.737,1.594.789.789,0,0,0-.143.089A3.46,3.46,0,0,0,111.995,162.311Z" transform="translate(-35.969 -23.308)" fill="#242021"/>
    <path id="Path_84275" data-name="Path 84275" d="M155.24,116.8a.983.983,0,0,0,.13-.089l2.088-2.242,1.056-1.106.537-.544.266-.272a2.036,2.036,0,0,0,.222-.328.519.519,0,0,0,.068-.166,2.15,2.15,0,0,0-1.014-1.124.507.507,0,0,0-.177.056,1.779,1.779,0,0,0-.354.2l-.3.253-.62.513-1.168,1.044c-.778.708-1.526,1.433-2.255,2.181a.513.513,0,0,0-.089.136,4.258,4.258,0,0,0,1.6,1.5Z" transform="translate(-52.183 -6.022)" fill="#242021"/>
    <path id="Path_84276" data-name="Path 84276" d="M171.418,104.439a.737.737,0,0,0,.154-.081c.885-.686,1.742-1.371,2.6-2.008a14.729,14.729,0,0,1,1.31-.885c.222-.136.443-.259.674-.383.112-.056.222-.118.34-.166a2.778,2.778,0,0,0,.315-.235.389.389,0,0,0,.124-.124c.112-.235-.235-1.334-.506-1.427a.575.575,0,0,0-.2,0,2.255,2.255,0,0,0-.885.259c-.272.118-.544.247-.809.383-.525.272-1.032.568-1.52.871-.989.62-1.891,1.285-2.781,1.94a1.242,1.242,0,0,0-.124.13,3.972,3.972,0,0,0,1.311,1.725Z" transform="translate(-58.476 -1.511)" fill="#242021"/>
    <path id="Path_84277" data-name="Path 84277" d="M190.906,97.657a1.931,1.931,0,0,0,.266,0,18.992,18.992,0,0,1,5.128-.278,17.229,17.229,0,0,1,2.567.4c.871.124,1.655.556,2.567.62a.9.9,0,0,0,.29,0c.365-.068.791-1.143.525-1.416a.946.946,0,0,0-.253-.166,5.558,5.558,0,0,0-.62-.309l-.692-.2a11.523,11.523,0,0,0-1.359-.421,19.672,19.672,0,0,0-2.811-.556,18.579,18.579,0,0,0-5.754.142,2.167,2.167,0,0,0-.284.089C190.134,95.748,190.572,97.565,190.906,97.657Z" transform="translate(-66.214 0)" fill="#242021"/>
    <path id="Path_84278" data-name="Path 84278" d="M218.357,104.392a.508.508,0,0,0,.112.068,13.3,13.3,0,0,1,1.682.84c.575.328,1.155.661,1.717,1.014s1.124.723,1.655,1.112a7.288,7.288,0,0,1,.766.62c.124.105.241.2.346.3a.668.668,0,0,0,.185.13l.16.105c.05,0,.089.062.13.05.177-.074,1.371-.259,1.3-.766a1.245,1.245,0,0,0-.05-.177l-.068-.124a2.336,2.336,0,0,0-.354-.531c-.136-.149-.272-.272-.408-.4-.272-.266-.544-.488-.822-.717-.55-.457-1.118-.877-1.693-1.292s-1.162-.8-1.771-1.18a16.377,16.377,0,0,0-1.977-1.038,1.551,1.551,0,0,0-.29-.068C218.555,102.347,218.314,104.213,218.357,104.392Z" transform="translate(-76.914 -2.743)" fill="#242021"/>
    <path id="Path_84279" data-name="Path 84279" d="M280.64,170.51a1.645,1.645,0,0,0,.068.185,8.65,8.65,0,0,0,2.242,2.472,12.609,12.609,0,0,0,1.322.915c.235.143.463.278.708.4a1.816,1.816,0,0,0,.766.278.371.371,0,0,0,.185,0,2.182,2.182,0,0,0,.62-1.378.354.354,0,0,0-.1-.13c-.089-.074-.154-.191-.259-.241a2.76,2.76,0,0,1-.29-.177c-.191-.118-.377-.253-.562-.383a10.234,10.234,0,0,1-1.056-.865,8.281,8.281,0,0,1-1.631-1.989.513.513,0,0,0-.081-.089C282.388,169.491,280.671,170.232,280.64,170.51Z" transform="translate(-100.718 -28.411)" fill="#242021"/>
    <path id="Path_84280" data-name="Path 84280" d="M297.7,183.3c.1.081.191.166.29.235a22.742,22.742,0,0,0,3.157,1.786,25.212,25.212,0,0,0,3.38,1.239,22.865,22.865,0,0,0,3.534.729c.62.074,1.2.124,1.81.142h.914a6.609,6.609,0,0,0,.921-.136,1.711,1.711,0,0,0,.383-.118c.432-.228.222-1.365-.177-1.5a1.65,1.65,0,0,0-.346-.037c-.537-.068-1.069-.062-1.613-.089a15.924,15.924,0,0,1-1.625-.185,20.473,20.473,0,0,1-3.2-.778,25.708,25.708,0,0,1-3.053-1.239,20.468,20.468,0,0,1-2.823-1.656,3.38,3.38,0,0,0-.3-.166C298.557,181.433,297.43,182.919,297.7,183.3Z" transform="translate(-107.222 -33)" fill="#242021"/>
    <path id="Path_84281" data-name="Path 84281" d="M331.133,187.476a.974.974,0,0,0,.185.031,13.766,13.766,0,0,0,3.528-.443,16.116,16.116,0,0,0,1.717-.488c.272-.1.55-.21.815-.328a2.169,2.169,0,0,0,.766-.443.433.433,0,0,0,.136-.142,1.989,1.989,0,0,0-.62-1.378.442.442,0,0,0-.177,0,2.588,2.588,0,0,0-.4.068l-.365.136c-.247.089-.494.16-.747.228a12.52,12.52,0,0,1-1.514.354,16.455,16.455,0,0,1-3.059.228,1.447,1.447,0,0,0-.161,0A3.568,3.568,0,0,0,331.133,187.476Z" transform="translate(-119.966 -34.058)" fill="#242021"/>
    <path id="Path_84282" data-name="Path 84282" d="M350.409,181.823a1.446,1.446,0,0,0,.16,0,12.456,12.456,0,0,0,3.015-.84,12.889,12.889,0,0,0,1.4-.7q.346-.191.668-.408a1.854,1.854,0,0,0,.62-.513.291.291,0,0,0,.089-.154,2.23,2.23,0,0,0-.859-1.239.327.327,0,0,0-.16,0,1.854,1.854,0,0,0-.34.105,3.261,3.261,0,0,1-.29.166,5.731,5.731,0,0,1-.62.3,11.063,11.063,0,0,1-1.239.488,14.4,14.4,0,0,1-2.589.562.512.512,0,0,0-.136.05,4.59,4.59,0,0,0,.278,2.175Z" transform="translate(-127.262 -31.642)" fill="#242021"/>
    <path id="Path_84283" data-name="Path 84283" d="M365.7,173.578a.579.579,0,0,0,.148-.037,10.176,10.176,0,0,0,2.379-1.532,12.544,12.544,0,0,0,1.019-.964c.16-.177.315-.346.469-.525l.222-.272a1.481,1.481,0,0,0,.148-.334.278.278,0,0,0,.031-.16,2.472,2.472,0,0,0-1.193-.933.222.222,0,0,0-.136.05,1.489,1.489,0,0,0-.469.377c-.136.136-.284.272-.433.4a10.373,10.373,0,0,1-.927.723,11.945,11.945,0,0,1-2.026,1.137c-.037,0-.062.05-.1.074a5.239,5.239,0,0,0,.865,2Z" transform="translate(-132.895 -28.148)" fill="#242021"/>
    <path id="Path_84284" data-name="Path 84284" d="M34.692,135.954c-1.174-1.062-2.354-2.125-3.546-3.169-.433-.383-.9-.729-1.328-1.112-1.532-1.353-3.059-2.7-4.609-4.022-.692-.581-1.4-1.143-2.119-1.682-.927-.686-1.854-1.4-2.694-2.157-.266-.241-.124-.371.241-.365a3.163,3.163,0,0,1,1.545.489,32.239,32.239,0,0,1,2.9,2.057c.933.723,1.854,1.483,2.737,2.267,1.062.952,2.261,1.817,3.392,2.737q1.854,1.52,3.707,3.09l2.255,1.9c1.137.958,2.261,1.952,3.41,2.879.9.729,1.854,1.359,2.75,2.051.2.154.4.3.62.463a3.29,3.29,0,0,1,.443.414,1.471,1.471,0,0,1,.216.371.885.885,0,0,1,.037.62,1.5,1.5,0,0,1-.074.266c-.124.241-.575.177-1.2-.118a44.335,44.335,0,0,1-5.029-3.794c-1.239-1.014-2.422-2.076-3.63-3.132Z" transform="translate(-1.212 -10.81)" fill="#231f20"/>
    <path id="Path_84285" data-name="Path 84285" d="M27.185,139.729l3.262,6.741c.4.815.853,1.613,1.239,2.422l.531,1.069.272.531.031.068h0v.037l.037.089c.05.118.112.241.177.371a.531.531,0,0,0,.062.1l.037.043.031-.037.089-.16.222-.377.247-.457c.089-.185.2-.354.3-.537.4-.708.809-1.416,1.239-2.107a19.8,19.8,0,0,1,2.744-3.46,10.935,10.935,0,0,1,2.324-1.715,8.465,8.465,0,0,1,2.719-.865c.581-.089.568.247.2.708a7.414,7.414,0,0,1-1.854,1.545,11.121,11.121,0,0,0-3.67,3.343c-.519.7-1.031,1.421-1.5,2.194-.247.377-.475.772-.708,1.168l-.346.587-.177.3-.29.544-.177.328-.081.16-.089.089-.34.377-.62.766c-.166.043-.278-.05-.4-.105a1.649,1.649,0,0,1-.383-.284,5.183,5.183,0,0,1-.753-1.1l-.62-1.056-.427-.76c-.272-.506-.537-1.02-.791-1.532-1.131-2.255-2.224-4.529-3.324-6.8l-2.036-4.177c-1.038-2.1-2.07-4.22-3.169-6.265-.853-1.594-1.792-3.09-2.713-4.621l-.62-1c-.741-1.239-.885-1.693-.692-2.194a2.873,2.873,0,0,1,.136-.334c.2-.3.778.056,1.427.945a68.8,68.8,0,0,1,5.085,8.65c1.162,2.236,2.28,4.5,3.4,6.759Z" transform="translate(0 -10.741)" fill="#231f20"/>
    <path id="Path_84286" data-name="Path 84286" d="M56.015,134.384c-2.132-.674-4.325-1.3-6.463-1.921-.791-.222-1.588-.408-2.379-.62l-8.347-2.472-3.707-1.131a17.183,17.183,0,0,1-4.6-1.94c-.443-.321-.259-.421.21-.4a11.257,11.257,0,0,1,2.181.284c.8.2,1.588.433,2.385.674l2.39.686c1.6.475,3.194.989,4.795,1.52,1.915.62,3.967,1.1,5.956,1.643L55,132.566l2.014.62a23.851,23.851,0,0,1,2.567.915,2.782,2.782,0,0,1,.7.451,1.766,1.766,0,0,1,.235.247.494.494,0,0,1,.089.149.191.191,0,0,1,0,.191c-.16.149-.365.272-.544.408a5.942,5.942,0,0,1-.908.377c-.29.124-.708.228-1.056.34l-.266.089a2.377,2.377,0,0,1-.235.074l-.377.112-1.505.469a15.068,15.068,0,0,0-2.206.885,8.447,8.447,0,0,0-1.854,1.239,6.314,6.314,0,0,0-.62.661l-.408.556a1.7,1.7,0,0,1-.309.365,1.934,1.934,0,0,1-.278.241,2.263,2.263,0,0,1-.354.136c-.112.031-.222.089-.309.118s-.241-.089-.34-.4a1.291,1.291,0,0,1-.05-.575,4.133,4.133,0,0,1,.216-.741,5.82,5.82,0,0,1,1.649-1.977,10.163,10.163,0,0,1,2.132-1.239,21.16,21.16,0,0,1,2.23-.822c.371-.118.747-.216,1.118-.315l.933-.247h.05l-.4-.124-.8-.247Z" transform="translate(-5.038 -11.748)" fill="#231f20"/>
    <path id="Path_84287" data-name="Path 84287" d="M55.08,330.578l.235-13.827c0-1.682-.043-3.364,0-5.042.148-5.919.321-11.844.421-17.763,0-2.632.05-5.27,0-7.879v-6.271l.074-1.239c.056-.84.118-1.674.2-2.514.1-1.044.421-.9.834,0a13.448,13.448,0,0,1,.668,1.854c.118.377.222.791.321,1.239.043.222.089.443.136.68a4.452,4.452,0,0,1,.056.708c.166,3.423.309,6.84.39,10.262s-.05,6.858-.177,10.306c-.166,4.127,0,8.415.031,12.635q-.056,6.957-.105,13.92l-.056,8.563c0,4.325-.068,8.65,0,12.975.056,3.337.354,6.605.469,9.885,0,.729.074,1.44.074,2.169,0,2.719-.21,3.584-.964,4.177a3.4,3.4,0,0,1-.513.389c-.575.272-1.081-.828-1.334-2.817-.177-1.471-.346-2.966-.494-4.473s-.185-3.034-.253-4.565c-.105-3.09-.143-6.178-.16-9.311,0-4.64,0-9.268.043-13.945Z" transform="translate(-14.462 -68.846)" fill="#231f20"/>
    <path id="Path_84288" data-name="Path 84288" d="M457.418,331.808l.377-13.846c.037-1.682,0-3.364.043-5.046.2-5.938.408-11.875.544-17.807.043-2.632.074-5.283.074-7.9v-6.278l.081-1.239c.062-.84.136-1.682.216-2.52.112-1.044.427-.9.834,0a13.139,13.139,0,0,1,.655,1.854c.112.383.222.791.315,1.239l.13.68c0,.228.043.469.05.708.148,3.429.272,6.852.334,10.287s-.089,6.877-.241,10.337c-.2,4.133-.037,8.439-.068,12.672-.05,4.646-.149,9.3-.235,13.958l-.166,8.587c-.068,4.325-.191,8.693-.191,12.975,0,3.349.222,6.64.247,9.947,0,.729.037,1.44,0,2.175-.068,2.725-.321,3.59-1.093,4.152a3.347,3.347,0,0,1-.525.377c-.581.241-1.05-.877-1.239-2.873a156.795,156.795,0,0,1-.494-18.387c.081-4.646.166-9.311.247-13.964Z" transform="translate(-168.125 -69.278)" fill="#231f20"/>
    <g id="Group_36506" data-name="Group 36506" transform="translate(123.167 185.555)" opacity="0.35">
      <path id="Path_84289" data-name="Path 84289" d="M248.927,242.906q-7.519-.16-15.032-.235h-5.48c-6.444-.062-12.888-.124-19.326-.112-2.86,0-5.734.05-8.57.118l-5.468.143c-1.854.031-3.652.056-5.468.068-1.137,0-1-.2-.043-.443a26.133,26.133,0,0,1,4.82-.649c7.452-.253,14.89-.346,22.4-.284,4.492.037,9.163-.05,13.753-.05q7.575,0,15.15.089l9.323.112,14.105.241c3.63.062,7.2.056,10.787.13l2.366.043c2.96.136,3.9.3,4.5.723a3.414,3.414,0,0,1,.4.272c.266.272-.952.5-3.09.463-6.407-.037-13.16-.166-19.95-.284l-15.156-.29Z" transform="translate(-188.778 -241.463)" fill="#231f20"/>
    </g>
    <path id="Path_84290" data-name="Path 84290" d="M304.343,249.889l-.443.062a57.877,57.877,0,0,1-8.607.421c-1.446,0-2.891-.1-4.325-.166s-2.91-.105-4.374-.136h-.463c-.525,0-.556.885-.037.927l.463.031,4.325.334c1.452.1,2.91.191,4.374.253a49.548,49.548,0,0,0,8.817-.309l.457-.062C305.048,251.192,304.85,249.821,304.343,249.889Z" transform="translate(-102.66 -59.128)" fill="#242021"/>
    <path id="Path_84291" data-name="Path 84291" d="M199.639,266.994l-44.485-.1H138.936l-57.19-.321c-8.452-.074-16.96-.074-25.332-.089-5.394,0-10.8-.043-16.2-.089l-8.112-.177a5.6,5.6,0,0,1-2.286-.469,1.854,1.854,0,0,1-.974-1.168,2.213,2.213,0,0,1,0-.778,3.349,3.349,0,0,1,.143-.62,17.856,17.856,0,0,1,.834-1.927,6.258,6.258,0,0,0,.568-1.724,2.138,2.138,0,0,0-.253-1.353c-.148-.278-.235-.433-.154-.482s.3,0,.62.259a2.181,2.181,0,0,1,.723,1.594,7.2,7.2,0,0,1-.513,2.656,12.221,12.221,0,0,0-.415,1.422,1.988,1.988,0,0,0-.037.309.272.272,0,0,0,0,.16.3.3,0,0,0,.166.166.3.3,0,0,1,.177.056c.062.056.2.05.328.056a6.508,6.508,0,0,0,.815.05H32.8l1.044-.031c1.4-.05,2.891-.074,4.442-.074l16.5-.124,16.528-.036q16.546-.043,33.172.2c13.279.177,27.09,0,40.673,0l44.806.05h27.575c13.92,0,27.9,0,41.717-.05,10.745-.056,21.267-.247,31.887-.365,2.335-.031,4.621-.037,6.981-.037,8.736.037,11.517.191,13.394.62.433.105,1,.2,1.239.3.84.328-2.719.655-9.113.885l-7.171.259c-2.4.089-4.82.166-7.247.21l-14.711.266c-9.885.148-19.919.259-29.965.346-14.921.13-29.916.089-44.884.136Z" transform="translate(-4.481 -62.107)" fill="#231f20"/>
    <path id="Path_84292" data-name="Path 84292" d="M471.141,255.037l3.276.191h1.192l2.175.136h.105a.3.3,0,0,0,.105.037,1.229,1.229,0,0,1,.2.062,2.665,2.665,0,0,1,.354.222,3.963,3.963,0,0,1,.457.451,7.369,7.369,0,0,1,.667.933,8.7,8.7,0,0,1,.865,1.854,4.289,4.289,0,0,1,.241,1.328,2.47,2.47,0,0,1-.1.708c-.037.118-.074.235-.118.34a1.819,1.819,0,0,1-.191.309c-.177.253-.443,0-.668-.321a2.132,2.132,0,0,1-.457-.964,4,4,0,0,0-.457-1.854,6.675,6.675,0,0,0-.506-.921c-.1-.154-.2-.29-.3-.433a3.815,3.815,0,0,1-.247-.309.112.112,0,0,0-.136-.068h-2.441l-3.3-.1-2.036-.062c-1.026,0-2.057-.081-3.09-.056-.8,0-1.57.124-2.354.191-.166,0-.34.043-.513.056-.62,0-.846-.1-.983-.506a1.53,1.53,0,0,1-.089-.284c-.062-.315.2-.575.674-.68a21.464,21.464,0,0,1,4.325-.354c1.093,0,2.2,0,3.3.068Z" transform="translate(-170.325 -61.058)" fill="#231f20"/>
    <path id="Path_84293" data-name="Path 84293" d="M114.6,252.76a.791.791,0,0,0,.21-.463,1.087,1.087,0,0,0,.056-.315v-.334a3.534,3.534,0,0,0-.68-1.477,10.889,10.889,0,0,0-3.028-2.607,14.605,14.605,0,0,0-2.725-1.239,22.115,22.115,0,0,0-5.351-1.031,18.1,18.1,0,0,0-5.449.4,10.633,10.633,0,0,0-4.257,2.1,11.566,11.566,0,0,0-3.269,4.943c-.253.581-.674.421-.921-.253a3.978,3.978,0,0,1-.2-1.371,5.326,5.326,0,0,1,.544-1.786,11.226,11.226,0,0,1,5.474-4.72,16.29,16.29,0,0,1,6.919-1.168,24.907,24.907,0,0,1,8.316,1.5,16.854,16.854,0,0,1,4,2.472,10.144,10.144,0,0,1,1.662,1.779,4.943,4.943,0,0,1,.945,2.472v.433a3.372,3.372,0,0,1-.062.427l-.074.427c-.043.143-.1.278-.154.421a2.885,2.885,0,0,1-1.239,1.347,6.4,6.4,0,0,1-3.015.62c-1.371,0-2.8.056-4.208-.031s-2.8-.191-4.177-.3c-2.144-.166-4.239-.222-6.315-.185l-1.359.062c-1.693.05-2.218,0-2.651-.488a2.271,2.271,0,0,1-.284-.334c-.222-.371.457-.828,1.771-1.032,3.917-.62,8-.043,11.9.166.723.043,1.446.074,2.169.089h2.181a17.654,17.654,0,0,0,2.064-.068,1.748,1.748,0,0,0,1.118-.443Z" transform="translate(-27.477 -56.656)" fill="#231f20"/>
    <g id="Group_36507" data-name="Group 36507" transform="translate(102.463 131.181)" opacity="0.35">
      <path id="Path_84294" data-name="Path 84294" d="M163.6,183.587l-2.014-7.55c-.247-.915-.55-1.817-.791-2.731-.865-3.225-1.686-6.463-2.582-9.682-.4-1.427-.846-2.842-1.3-4.239a51.806,51.806,0,0,1-1.613-5.437c-.124-.575.228-.62.723-.247a4.826,4.826,0,0,1,1.526,2.144c.686,1.81,1.239,3.67,1.761,5.53s1.031,3.738,1.483,5.635c.544,2.267,1.31,4.566,1.933,6.865l2.048,7.582,1.239,4.671c.62,2.348,1.267,4.72,1.952,7.043.537,1.8,1.155,3.546,1.736,5.312.13.39.272.766.39,1.162a6.928,6.928,0,0,1,.365,1.582,1.239,1.239,0,0,1-.235.822,1.852,1.852,0,0,1-.21.29c-.13.112-.3.037-.506-.191a3.831,3.831,0,0,1-.62-1.143c-1.239-3.09-2.224-6.475-3.2-9.855q-1.069-3.781-2.125-7.575Z" transform="translate(-155.27 -153.461)" fill="#231f20"/>
    </g>
    <g id="Group_36508" data-name="Group 36508" transform="translate(108.336 124.361)" opacity="0.35">
      <path id="Path_84295" data-name="Path 84295" d="M203.084,145.332l-9.57.143-3.486.115-12.306.3-5.455.185a54.946,54.946,0,0,1-6.988,0c-.723-.062-.62-.334,0-.62a8.15,8.15,0,0,1,3.09-.674c4.714-.13,9.428-.365,14.211-.451,2.854-.056,5.826-.29,8.748-.4l9.644-.29,5.931-.16c2.991-.1,6-.154,8.965-.309,2.311-.124,4.565-.354,6.84-.562.5-.043.989-.105,1.5-.143,1.854-.124,2.472,0,2.91.463a2.522,2.522,0,0,1,.284.3c.2.315-.544.736-1.915.945a123.4,123.4,0,0,1-12.7.974c-3.213.13-6.444.166-9.657.247Z" transform="translate(-164.775 -142.422)" fill="#231f20"/>
    </g>
    <g id="Group_36509" data-name="Group 36509" transform="translate(186.798 160.851)" opacity="0.35">
      <path id="Path_84296" data-name="Path 84296" d="M294.723,214.777l-.76-3.3c-.1-.4-.253-.778-.34-1.18q-.443-2.132-.859-4.269a16.474,16.474,0,0,0-.506-1.854c-.13-.383-.278-.772-.371-1.174a4.881,4.881,0,0,1-.112-.62,2.567,2.567,0,0,1,.031-.62c.05-.272.4-.334.885-.235a4.035,4.035,0,0,1,.8.247,1.05,1.05,0,0,1,.525.519,14.533,14.533,0,0,1,.7,2.39,19.1,19.1,0,0,1,.4,2.472,21.444,21.444,0,0,0,.708,2.991l.778,3.293c.16.68.321,1.359.5,2.026.266,1.02.513,2.051.846,3.04a21.33,21.33,0,0,0,.974,2.218c.074.166.16.321.222.488.241.62.154.871-.371,1.18a3.417,3.417,0,0,1-.3.185.915.915,0,0,1-1.112-.371,17.384,17.384,0,0,1-1.771-4.14c-.34-1.081-.62-2.188-.927-3.281Z" transform="translate(-291.77 -201.483)" fill="#231f20"/>
    </g>
    <path id="Path_84297" data-name="Path 84297" d="M283.791,164.992l-.2.1a7.915,7.915,0,0,0-1.771,1.239,10.509,10.509,0,0,0-1.44,1.576,21.044,21.044,0,0,0-2.107,3.615l-.089.2c-.105.235.686.62.8.39l.089-.191a19.331,19.331,0,0,1,2.119-3.38,14.668,14.668,0,0,1,1.328-1.439,13.5,13.5,0,0,1,1.52-1.2l.177-.105C284.415,165.648,284.026,164.875,283.791,164.992Z" transform="translate(-99.778 -26.681)" fill="#242021"/>
    <path id="Path_84298" data-name="Path 84298" d="M447.6,255s7.915,1.151,4.671,2.694-11.243.661-11.243.661Z" transform="translate(-162.012 -61.082)" fill="#231f20"/>
    <g id="Group_36510" data-name="Group 36510" transform="translate(252.334 172.325)" opacity="0.45">
      <path id="Path_84299" data-name="Path 84299" d="M408.059,228.672c-1.359.717-2.688,1.576-4.022,2.428-.668.433-1.335.859-2.02,1.279a15.841,15.841,0,0,1-2.181,1.162,2.41,2.41,0,0,1-1.267.216.9.9,0,0,1-.556-.34.62.62,0,0,1-.13-.3l-.043-.16v-.177a1.588,1.588,0,0,1,.142-.7,3.045,3.045,0,0,1,.284-.5,6.5,6.5,0,0,1,.62-.73,23.491,23.491,0,0,1,2.354-2.057c.809-.62,1.625-1.239,2.435-1.854a32.312,32.312,0,0,0,4.584-3.917,3.708,3.708,0,0,0,.674-1.038,1.168,1.168,0,0,0,.089-.506c-.037-.062-.037-.16-.081-.191a1.032,1.032,0,0,0-.177-.191,1.792,1.792,0,0,0-1.112-.315,5.65,5.65,0,0,0-1.273.185,15.54,15.54,0,0,0-3.151,1.279,33.777,33.777,0,0,0-2.96,1.742c-.62.4-.575.272-.148-.177a12.805,12.805,0,0,1,2.466-1.855,17.608,17.608,0,0,1,3.269-1.545,6.537,6.537,0,0,1,1.854-.354,2.817,2.817,0,0,1,1.05.185,1.921,1.921,0,0,1,.513.284,1.693,1.693,0,0,1,.222.2.871.871,0,0,1,.216.309,1.851,1.851,0,0,1,.124.334v.34a2.024,2.024,0,0,1-.112.62,3.088,3.088,0,0,1-.488.921,10.5,10.5,0,0,1-1.239,1.39,35.831,35.831,0,0,1-2.775,2.3c-1.131.865-2.292,1.736-3.41,2.651-.562.457-1.112.921-1.631,1.409-.259.247-.506.494-.729.747a4.329,4.329,0,0,0-.315.39,2.731,2.731,0,0,0-.21.328c-.062.105-.089.309.074.334a.463.463,0,0,0,.2,0,3.3,3.3,0,0,0,.469-.185,19.775,19.775,0,0,0,2.036-1.143c1.34-.84,2.669-1.742,4.034-2.582a25.026,25.026,0,0,1,2.626-1.452,6.585,6.585,0,0,1,1.489-.494,2.027,2.027,0,0,1,.9.037,1.155,1.155,0,0,1,.747.7,1.771,1.771,0,0,1-.166,1.353,5.137,5.137,0,0,1-.655,1,21.068,21.068,0,0,1-1.557,1.656,15.109,15.109,0,0,0-2.8,3.312,6.947,6.947,0,0,0-.587,1.526,1.771,1.771,0,0,0,.062,1.353,1.417,1.417,0,0,0,1.174.433,8.462,8.462,0,0,0,1.6-.143c.482-.089.952-.2,1.439-.29,1.817-.377,2.441-.421,2.879-.253a1.662,1.662,0,0,1,.29.118c.2.148-.513.408-1.817.8a26.121,26.121,0,0,1-3.046.772,6.84,6.84,0,0,1-1.73.1,2.749,2.749,0,0,1-1.007-.266,1.853,1.853,0,0,1-.871-.9,3.09,3.09,0,0,1-.037-2.064,8.126,8.126,0,0,1,.62-1.637,11.742,11.742,0,0,1,2.1-2.7l1.687-1.7a6.587,6.587,0,0,0,1.3-1.668.414.414,0,0,0,.062-.177c0-.05.05-.118.031-.154s0-.062,0-.112,0,0-.068-.043a1.021,1.021,0,0,0-.34,0,7.16,7.16,0,0,0-2,.68Z" transform="translate(-397.838 -220.055)" fill="#231f20"/>
    </g>
    <path id="Path_84300" data-name="Path 84300" d="M145.564,255.1l-2.774-.2H141.77l-3.608-.272a11.522,11.522,0,0,0-1.6,0,9.476,9.476,0,0,1-1.026,0,7.241,7.241,0,0,1-1.02-.149c-.216-.05-.185-.253,0-.488a1.711,1.711,0,0,1,.9-.62,16.873,16.873,0,0,1,2.082-.154,11.887,11.887,0,0,1,2.095.089,23.751,23.751,0,0,0,2.567,0l2.833.068,1.742.037c.877,0,1.761.062,2.632,0,.68,0,1.34-.177,2.014-.235.148,0,.29-.043.443-.05.55,0,.729.166.846.568a1.57,1.57,0,0,0,.081.278.737.737,0,0,1-.575.76,12.158,12.158,0,0,1-3.707.457c-.945,0-1.891-.031-2.833-.068Z" transform="translate(-44.819 -60.368)" fill="#231f20"/>
    <path id="Path_84301" data-name="Path 84301" d="M376.262,253.565c-.266-.056-.525-.118-.791-.166h-.284l-1.02-.228a2.221,2.221,0,0,0-.451,0,2.175,2.175,0,0,1-.284,0,.822.822,0,0,1-.29-.118c-.062-.043-.062-.2,0-.377a.865.865,0,0,1,.235-.469,1.771,1.771,0,0,1,.62-.112,1.316,1.316,0,0,1,.62.081,2.584,2.584,0,0,0,.723.031c.272,0,.537.037.8.062l.494.043a5.958,5.958,0,0,0,.741.031,3.986,3.986,0,0,0,.568-.177.4.4,0,0,1,.124,0c.154,0,.2.124.235.443v.216a.846.846,0,0,1-.16.581,1.427,1.427,0,0,1-1.038.334,4.83,4.83,0,0,1-.791-.068Z" transform="translate(-136.049 -59.969)" fill="#231f20"/>
    <path id="Path_84302" data-name="Path 84302" d="M60.078,256.109l-4.48-.21H53.957l-5.754-.315c-.846-.056-1.705-.068-2.551-.081-.544,0-1.087,0-1.637-.037a12.351,12.351,0,0,1-1.631-.235c-.34-.081-.272-.272,0-.488a3.163,3.163,0,0,1,1.446-.531c1.1-.074,2.2-.062,3.306-.074a26.152,26.152,0,0,1,3.33.13c1.334.118,2.725.037,4.09.05l4.5.068,2.768.037c1.4,0,2.811.056,4.2,0,1.081,0,2.138-.177,3.207-.253.235,0,.463-.043.708-.05.877,0,1.155.16,1.353.562a1.858,1.858,0,0,1,.124.278c.089.309-.266.62-.908.766a30.276,30.276,0,0,1-5.938.482c-1.5,0-3.01,0-4.515-.062Z" transform="translate(-9.578 -60.746)" fill="#231f20"/>
    <path id="Path_84303" data-name="Path 84303" d="M212.689,256.419c-5.5.62-66.289,3.911-57-3.4,1.4-1.093,6.432-.945,8.149-1.292l3.09,3.126Z" transform="translate(-52.598 -59.833)" fill="#231f20"/>
    <g id="Group_36511" data-name="Group 36511" transform="translate(19.723 114.731)" opacity="0.4">
      <path id="Path_84304" data-name="Path 84304" d="M31.694,146.378l-2.366-4.986c-.3-.62-.62-1.186-.921-1.786-1.026-2.125-2.082-4.239-3.244-6.286-.519-.908-1.056-1.817-1.619-2.688-.723-1.124-1.5-2.218-2.125-3.4-.191-.371.05-.475.475-.34a3.447,3.447,0,0,1,1.526,1.118c.834,1.1,1.649,2.213,2.41,3.364a40.016,40.016,0,0,1,2.008,3.639c.736,1.5,1.643,2.966,2.428,4.467.871,1.649,1.682,3.324,2.472,5l1.489,3.09.334.708.149.309.074.16.037.081a.065.065,0,0,1,.043-.056,6.421,6.421,0,0,1,.443-.62l.321-.4.463-.531A19.864,19.864,0,0,1,39.07,144.4c.247-.177.475-.365.741-.519a3.09,3.09,0,0,1,1.106-.482,1.038,1.038,0,0,1,.68.177,1.577,1.577,0,0,1,.247.177c.105.105.089.259,0,.469a2.1,2.1,0,0,1-.62.692,32.931,32.931,0,0,0-2.589,2.236c-.414.4-.815.809-1.2,1.239-.191.216-.383.433-.562.661l-.112.143-.148.177c-.089.124-.185.259-.278.4-.177.284-.371.506-.544.834l-1.069,1.854-2.02-3.979-1.069-2.07Z" transform="translate(-21.353 -126.833)" fill="#231f20"/>
    </g>
    <path id="Path_84305" data-name="Path 84305" d="M238.417,185.315c.278,5.474-2.02,11.264-6.574,14.342-5.616,3.793-14.544,4.281-20.439.815a17.021,17.021,0,0,1-8.076-17.164c3.09-17.158,29.15-18.68,34.371-2.045a16.214,16.214,0,0,1,.718,4.052Z" transform="translate(-71.086 -28.437)" fill="#231f20" opacity="0.2"/>
    <path id="Path_84306" data-name="Path 84306" d="M249.853,313.823l-38.35,1.505-13.988.62c-16.447.62-32.888,1.168-49.347,1.477-7.3.142-14.643.259-21.9.278-4.658,0-9.323,0-13.994-.13-2.335-.068-4.665-.154-6.994-.278l-1.755-.1c-.62-.037-1.2-.112-1.786-.191a18.374,18.374,0,0,0-3.343-.328c-1.316.081-1.891.284-1.921.081s.531-.686,1.8-1.02a9.347,9.347,0,0,1,2.3-.235c.877,0,1.854.05,2.833,0,2.082-.074,4.566-.105,7.235-.043,9.473.21,18.945.13,28.452-.037s19.023-.383,28.6-.62c11.442-.29,23.355-.945,35.058-1.489l38.622-1.711,23.775-1.032c12-.525,24.1-.921,35.99-1.39,9.268-.321,18.344-.8,27.519-1.056l6.012-.136c7.556-.081,9.96.177,11.573.952a6.313,6.313,0,0,1,1.069.544c.717.62-2.36,1.106-7.871,1.279l-50.9,1.686c-12.863.463-25.789.921-38.687,1.464Z" transform="translate(-30.34 -81.327)" fill="#231f20"/>
  </g>
</svg>
