<svg xmlns="http://www.w3.org/2000/svg" xmlns:xlink="http://www.w3.org/1999/xlink" width="300" height="212" viewBox="0 0 300 212">
  <defs>
    <clipPath id="clip-path">
      <rect id="Rectangle_82" data-name="Rectangle 82" width="300" height="212" fill="#fff"/>
    </clipPath>
  </defs>
  <g id="Mask_Group_23" data-name="Mask Group 23" clip-path="url(#clip-path)">
    <g id="StockList" transform="translate(-19.486 -78.013)">
      <path id="Path_84046" data-name="Path 84046" d="M144.645,396.2q-9.09-2.307-18.135-4.834c-2.2-.606-4.412-1.154-6.6-1.811l-2.884-.848-2.884-.9c-1.92-.606-3.853-1.182-5.768-1.805-3.818-1.281-7.649-2.52-11.426-3.922-3.38-1.154-6.73-2.474-10.065-3.706-2.128-.825-4.234-1.73-6.345-2.607-.525-.231-1.055-.438-1.561-.709l-1.523-.813c-1-.576-2.013-1.1-2.987-1.73-1.154-.825-.831-1.033.5-.992a16.882,16.882,0,0,1,5.852,1.586c8.346,3.8,17.05,6.881,25.834,9.99,2.625.958,5.353,1.765,8.075,2.572s5.525,1.569,8.271,2.359c6.039,1.73,12.113,3.369,18.192,4.961q5.612,1.477,11.254,2.884c5.687,1.419,11.4,2.849,17.069,4.181,4.407,1.038,8.75,1.938,13.116,2.976.958.231,1.9.432,2.884.675a23.649,23.649,0,0,1,3.743,1.188,3.669,3.669,0,0,1,1.511,1.038,3.788,3.788,0,0,1,.4.479c.236.427-1.332.45-3.957-.121-7.781-1.73-16-3.587-24.225-5.555-6.113-1.447-12.257-2.953-18.377-4.476Z" transform="translate(-10.927 -122.746)" fill="#231f20"/>
      <g id="Group_36496" data-name="Group 36496" transform="translate(88.196 100.959)" opacity="0.3">
        <path id="Path_84047" data-name="Path 84047" d="M127.746,131.073c-1.326-.819-2.829-1.085-4.2-1.771-2.307-1.154-3.38-4.412-2.884-6.925.259-1.315,1.477-4,2.884-4.367a4.863,4.863,0,0,1,1.73.34c3.322.848,6.627,1.782,9.926,2.722,9.9,2.815,19.755,5.768,29.6,8.785q32.531,9.892,64.923,20.251c6.183,1.978,12.43,3.836,18.527,6.068,1.73.64,2.5-2.146.768-2.78-16.375-5.993-33.269-10.763-49.921-15.96-22.316-6.968-44.644-14.01-67.173-20.269-3.149-.871-7.717-3.219-10.6-.975a9.959,9.959,0,0,0-.513,14.893c1.58,1.246,3.783,1.425,5.485,2.474,1.586.975,3.034-1.522,1.453-2.492Z" transform="translate(-117.71 -115.25)" fill="#231f20"/>
      </g>
      <path id="Path_84048" data-name="Path 84048" d="M93.792,187.752c.225-4.2.813-7.325,4.234-10.07a26.235,26.235,0,0,0,4.332-3.939c1.188-1.477,2.134-3.121,3.264-4.614,3.241-4.332,8.732-5.681,13.612-7.452q8.364-3.024,16.923-5.485a1.445,1.445,0,0,0-.768-2.786q-9.558,2.769-18.9,6.218c-4.845,1.805-9.673,3.253-12.931,7.5-1.365,1.771-2.445,3.767-3.928,5.445-1.561,1.77-3.692,2.884-5.307,4.614-2.815,2.982-3.207,6.679-3.414,10.613-.1,1.853,2.786,1.845,2.884,0Z" transform="translate(-18.186 -30.41)" fill="#231f20"/>
      <path id="Path_84049" data-name="Path 84049" d="M132.91,206.381l5.278-2.411s7.008,11.282,7.954,11.986.732,3.64,0,4.793c0,0,9.512,23.729,10.261,24.11s-5.768-1.437-5.768-1.437l-11-27.9S133.365,207.823,132.91,206.381Z" transform="translate(-35.963 -51.836)" fill="#231f20"/>
      <path id="Path_84050" data-name="Path 84050" d="M182.679,152.858l-.4-6.667,1.58-.15,2.633,14.679-2.169.964-1.817-4.038s-4.7.923-5.191,2.007c-.265.576-.819-.986-.865-1.951-.034-.75,3.241-2.158,4.966-3.264C182.783,153.511,182.679,152.858,182.679,152.858Z" transform="translate(-54.389 -27.319)" fill="#231f20"/>
      <path id="Path_84051" data-name="Path 84051" d="M142.422,197.91c-1.055.162-2.111.317-3.149.536-.38.075-.721.259-1.1.335-.669.127-1.338.259-2,.4s-1.35.254-2,.444a7.689,7.689,0,0,0-1.638.709,5.559,5.559,0,0,1-2.019.992c-.254,0-.623-.576-.831-1.268s-.231-1.528.167-1.84a10.706,10.706,0,0,1,4.66-2.048,21.337,21.337,0,0,0,2.912-.911c1.079-.293,2.163-.531,3.242-.762l1.99-.415c1-.231,2.013-.39,2.976-.709a14.382,14.382,0,0,0,2.117-1.085,4.43,4.43,0,0,1,.455-.259c.576-.219.871,0,1.268.98.087.219.184.433.265.652a1.794,1.794,0,0,1-.2,1.835,8.763,8.763,0,0,1-3.951,1.829c-1.033.265-2.1.438-3.144.675Z" transform="translate(-34.539 -46.751)" fill="#231f20"/>
      <path id="Path_84052" data-name="Path 84052" d="M187.443,203.465c-1.4-.438-2.8-.889-4.211-1.309-.519-.15-1.044-.259-1.561-.415l-5.456-1.6c-.808-.236-1.627-.444-2.438-.646a29.574,29.574,0,0,1-3.1-.878c-.311-.115-.231-.265.093-.369a3.2,3.2,0,0,1,1.477-.069c1.079.2,2.152.4,3.224.64s2.14.5,3.189.836c1.268.39,2.619.652,3.928,1,1.437.375,2.884.78,4.3,1.194l2.633.79,3.975,1.229c1.027.3,2.059.531,3.08.825l.669.2c.819.305,1.027.576,1.1.894a1.314,1.314,0,0,1,.046.236c0,.236-.4.317-1.049.259a41.846,41.846,0,0,1-5.664-1.477c-1.407-.432-2.821-.878-4.24-1.3Z" transform="translate(-51.863 -49.362)" fill="#231f20"/>
      <path id="Path_84053" data-name="Path 84053" d="M250.15,220.916c-.756-.242-1.511-.507-2.278-.738-.277-.087-.576-.133-.842-.219l-2.965-.917c-.438-.133-.889-.242-1.332-.346a9.724,9.724,0,0,1-1.684-.5c-.168-.081-.1-.236.087-.375a1.257,1.257,0,0,1,.848-.236c.576.069,1.154.15,1.765.259a10.866,10.866,0,0,1,1.73.444c.683.236,1.431.335,2.146.507s1.574.4,2.354.629l1.442.438c.727.214,1.442.479,2.169.683.576.173,1.154.259,1.73.427a2.779,2.779,0,0,1,.375.1c.444.2.519.4.5.715a1.345,1.345,0,0,1,0,.219c-.046.225-.305.34-.675.364a12.933,12.933,0,0,1-3.068-.7c-.75-.236-1.5-.488-2.278-.715Z" transform="translate(-81.688 -57.597)" fill="#231f20"/>
      <path id="Path_84054" data-name="Path 84054" d="M334.637,244.49c-.375-.127-.756-.248-1.154-.358-.139-.04-.283-.046-.427-.093l-1.482-.5c-.219-.069-.444-.127-.663-.178a2.048,2.048,0,0,1-.825-.293c-.081-.058,0-.248.115-.433s.323-.364.488-.346a8.187,8.187,0,0,1,.842.1,4.614,4.614,0,0,1,.819.254,4.436,4.436,0,0,0,1.044.167c.39.063.772.138,1.154.214l.727.139c.37.063.733.162,1.1.2a7.669,7.669,0,0,0,.878-.063h.2c.236,0,.293.144.248.576v.305a.8.8,0,0,1-.39.669,2.382,2.382,0,0,1-.79.127,4.391,4.391,0,0,1-.762-.133c-.375-.087-.75-.208-1.154-.305Z" transform="translate(-119.397 -68.057)" fill="#231f20"/>
      <path id="Path_84055" data-name="Path 84055" d="M220.931,256.8c-1.281,5.329-4.77,9.777-6.224,15.06a1.443,1.443,0,0,0,2.78.768c1.453-5.278,4.937-9.719,6.224-15.06C224.143,255.764,221.364,254.992,220.931,256.8Z" transform="translate(-70.556 -73.759)" fill="#231f20"/>
      <path id="Path_84056" data-name="Path 84056" d="M225.392,259a18.457,18.457,0,0,0,9.656-1.2c1.7-.744.231-3.23-1.453-2.492a15.7,15.7,0,0,1-8.2.808C223.552,255.893,223.569,258.783,225.392,259Z" transform="translate(-74.521 -73.507)" fill="#231f20"/>
      <path id="Path_84057" data-name="Path 84057" d="M216.177,156.092c-1.477,3.4-3.922,7.7-2.722,11.49.727,2.307,2.509,4.066,3.421,6.275a19.335,19.335,0,0,1,.946,4.8c.929,6.925,1.771,13.883,2.307,20.839.138,1.84,3.024,1.853,2.884,0-.488-6.529-1.286-13.059-2.117-19.553-.39-3.063-.576-6.109-2.157-8.831-1.24-2.152-3-4-2.578-6.639a30.011,30.011,0,0,1,2.536-6.925c.733-1.684-1.73-3.155-2.492-1.463Z" transform="translate(-69.914 -31.258)" fill="#231f20"/>
      <path id="Path_84058" data-name="Path 84058" d="M270.113,214.133a20.6,20.6,0,0,1-2.417-4.614l-.39-1.24-.2-.617-.133-.634-.254-1.268c-.069-.421-.093-.853-.138-1.281l-.1-.934v-.94a11.25,11.25,0,0,1,.069-1.869,21.918,21.918,0,0,1,5.082-11.79,23.2,23.2,0,0,1,4.171-3.928,15.079,15.079,0,0,1,3.236-1.823,6.721,6.721,0,0,1,.894-.293l.928-.184c.311-.052.629-.058.94-.087a5.25,5.25,0,0,1,.946.093c.78.075.635.335.046.721-.144.093-.317.214-.507.352a3.615,3.615,0,0,1-.617.438c-.225.121-.461.277-.7.427s-.513.265-.78.415a16.727,16.727,0,0,0-5.474,3.609,24.832,24.832,0,0,0-2.273,2.514,23.41,23.41,0,0,0-1.886,2.884,16.727,16.727,0,0,0-1.99,8.075,17.5,17.5,0,0,0,2.249,8.946l.363.617a4.149,4.149,0,0,0,.39.576l.842,1.154a18.8,18.8,0,0,0,2,2.071,17.056,17.056,0,0,0,7.659,4.038,15.193,15.193,0,0,0,6.564.057c.467-.087.917-.225,1.384-.346a8.708,8.708,0,0,1,1.88-.38,1.731,1.731,0,0,1,1.067.39,2.982,2.982,0,0,1,.4.317c.178.2.121.456-.144.78a3.461,3.461,0,0,1-1.419.975,15.182,15.182,0,0,1-6.766,1.154,18.959,18.959,0,0,1-3.49-.542,17.556,17.556,0,0,1-1.7-.519l-.848-.283-.819-.369c-.4-.184-.813-.358-1.206-.576l-1.154-.675-.576-.34-.536-.4-1.009-.772a20.659,20.659,0,0,1-3.609-3.87Z" transform="translate(-92.491 -42.808)" fill="#231f20"/>
      <path id="Path_84059" data-name="Path 84059" d="M269.762,250.443c-3.726,8.756-7.291,17.581-10.884,26.394-.7,1.73,2.088,2.463,2.78.768,3.5-8.583,6.968-17.177,10.6-25.707C272.975,250.206,270.489,248.735,269.762,250.443Z" transform="translate(-89.227 -71.182)" fill="#231f20"/>
      <path id="Path_84060" data-name="Path 84060" d="M277.775,250.593c2.394,1.3,5.191,1.372,7.85,1.35a1.443,1.443,0,0,0,0-2.884c-2.122,0-4.476.081-6.4-.958C277.6,247.218,276.143,249.7,277.775,250.593Z" transform="translate(-96.969 -70.433)" fill="#231f20"/>
      <path id="Path_84061" data-name="Path 84061" d="M234.548,245.845a15.74,15.74,0,0,0-4.159-4.614c-2.641-1.886-9.1-4.822-13.7-1.332s-2.146,8.334,4.729,7.9a103.4,103.4,0,0,0,13.133-1.951Z" transform="translate(-70.422 -66.354)" fill="#231f20"/>
      <g id="Group_36497" data-name="Group 36497" transform="translate(113.228 209.035)" opacity="0.3">
        <path id="Path_84062" data-name="Path 84062" d="M162.114,305.5a87.773,87.773,0,0,0,11.957,3.121,77.885,77.885,0,0,0,11.38,1.972c1.853.115,1.845-2.769,0-2.884a76.2,76.2,0,0,1-11.314-2.025,84.985,84.985,0,0,1-11.258-2.965C161.151,302.073,160.383,304.859,162.114,305.5Z" transform="translate(-161.138 -302.622)" fill="#231f20"/>
      </g>
      <g id="Group_36498" data-name="Group 36498" transform="translate(217.759 203.498)" opacity="0.3">
        <path id="Path_84063" data-name="Path 84063" d="M345.106,296.471c.069-.087.214-.184.259-.277-.219.162-.254.2-.109.1s.1-.058-.162.058l.168-.046c.173-.034.109-.029-.2,0,.415-.04-.293-.081-.046,0,.162.052.1.029-.178-.081.144.087.093.046-.144-.127.115.121.087.069-.1-.156.081.15.069.093-.052-.162a.915.915,0,0,1,.052.179c-.029-.277-.034-.317,0-.133v.236c.034-.248.034-.283,0-.115s-.034.127.063-.144c-.093.144-.052.093.127-.156a.946.946,0,0,1,.756-.317c-.242,0,.473.139.093,0,.277.127.34.15.184.075-.046-.029-.093-.052-.138-.087.219.179.265.214.133.1l-.127-.121c-.317-.293.133.208,0,0-.236-.358.046.242,0,0-.121-.438,0,.3,0,0a1.667,1.667,0,0,0-3.328,0,3.668,3.668,0,0,0,1.915,3.024,2.438,2.438,0,0,0,3.553-1.39,3,3,0,0,0-1.286-3.6,3.04,3.04,0,0,0-3.692.79,1.73,1.73,0,0,0,0,2.353,1.658,1.658,0,0,0,2.348,0Z" transform="translate(-342.363 -293.023)" fill="#231f20"/>
      </g>
      <g id="Group_36499" data-name="Group 36499" transform="translate(239.479 197.235)" opacity="0.3">
        <path id="Path_84064" data-name="Path 84064" d="M383.307,285.32a1.2,1.2,0,0,1,.046-.2c.04-.219-.04.081-.063.144,0-.046.184-.293,0-.04s.109-.04-.138.138-.081.052,0,0c.178-.081-.39.144-.208.081s.04.1-.208,0h.139c.2,0-.444-.127-.1,0,.2.075-.2-.087-.208-.087s.236.162,0,0c-.34-.271.214.277-.058-.058-.178-.214-.075-.087-.04,0s-.15-.433-.081-.167c0-.029,0-.438-.029-.22s0-.2.034-.2-.173.45,0,.052c-.121.254.184-.208.063-.087s.293-.2.139-.109a.887.887,0,0,1,.39-.115c-.167,0,.461.087.178,0s.156.063.178.081c-.184-.1.115.1.144.127l-.115-.115c.029.029.231.323.121.133.052.093.138.38.063.115s.052.375.034.162-.087.427,0,.087a1.664,1.664,0,1,0-3.207-.889,2.828,2.828,0,0,0,2.053,3.536,2.746,2.746,0,0,0,3.236-2.791,2.809,2.809,0,0,0-5.566-.461,1.663,1.663,0,1,0,3.207.878Z" transform="translate(-380.032 -282.163)" fill="#231f20"/>
      </g>
      <path id="Path_84065" data-name="Path 84065" d="M362.015,301.2q-2.457.675-4.931,1.217c-.576.133-1.154.34-1.788.45-2.128.432-4.28.7-6.408,1-.946.138-1.88.323-2.8.525a18.917,18.917,0,0,1-3.576.606c-.38,0-.433-.473-.214-1a2.18,2.18,0,0,1,1.384-1.292,61.408,61.408,0,0,1,7.279-1.338,19.843,19.843,0,0,0,2.209-.421c.732-.178,1.463-.39,2.2-.576,1.609-.39,3.219-.78,4.8-1.251.98-.283,1.961-.576,2.918-.923.732-.242,1.453-.513,2.174-.8a21.439,21.439,0,0,0,2.111-.923,29.881,29.881,0,0,0,2.993-1.863c.214-.15.41-.317.629-.455.813-.5,1.154-.5,1.73,0a4.219,4.219,0,0,1,.369.34c.364.415.242,1-.311,1.511a19.037,19.037,0,0,1-5.852,3.518c-1.592.652-3.236,1.2-4.877,1.73Z" transform="translate(-124.522 -89.845)" fill="#231f20"/>
      <path id="Path_84066" data-name="Path 84066" d="M355.245,185.66c-3.628,3.761-1.9,10.959-.79,15.469.444,1.8,3.225,1.038,2.78-.768-.808-3.282-2.633-9.874.052-12.689,1.286-1.338-.75-3.38-2.041-2.037Z" transform="translate(-129.132 -43.892)" fill="#231f20"/>
      <path id="Path_84067" data-name="Path 84067" d="M60.09,224.943s35.184-12.049,37.191-13.3,9.154,7.764,9.154,7.764l10.383,26.059S64.9,228.623,60.09,224.943Z" transform="translate(-5.145 -55.033)" fill="#231f20" opacity="0.2"/>
      <path id="Path_84068" data-name="Path 84068" d="M164.086,199.93h3.461l29.48,7.5,1.951,12.3s-7.164,2.307-7.735,7.077c-.576,5.1,3.225,5.987,6.345,6.345l-.519,3.609s-3.922,5.127-4.584,8.605l-.657,3.461L176.162,243.6,163.53,209.32Z" transform="translate(-48.922 -50.127)" fill="#231f20" opacity="0.2"/>
      <path id="Path_84069" data-name="Path 84069" d="M234.66,216.74l15.769,4.614s2.088,8.651,6.818,12.563l-7.972,19.732a44.7,44.7,0,0,0-3.04-5.1c-1.366-1.972-3.357-4.654-3.357-4.654l-1.1-4.274s4.614-.352,4.995-3.461c.657-5.468-4.955-10.088-10.307-10.67Z" transform="translate(-79.025 -57.241)" fill="#231f20" opacity="0.2"/>
      <path id="Path_84070" data-name="Path 84070" d="M282.3,275.356s8.986-25.137,9.522-25.494,8.963.433,15.3-8.243L315,244.449l-4.337,26.432s-15.118,8.132-18.2,7.413S282.3,275.356,282.3,275.356Z" transform="translate(-99.187 -67.77)" fill="#231f20" opacity="0.2"/>
      <path id="Path_84071" data-name="Path 84071" d="M390.9,259.39l1.6,7.315,9.719-3.934Z" transform="translate(-145.148 -75.29)" fill="#231f20" opacity="0.2"/>
      <path id="Path_84072" data-name="Path 84072" d="M48.139,280.577l.173-5.122c.058-1.73.127-3.414.225-5.122.058-1.246.063-2.492.144-3.738Q49.125,260,49.7,253.434c.168-1.944.311-3.9.444-5.832a40.271,40.271,0,0,1,.889-7.423c.2-.756.531-.612.894.087a8.8,8.8,0,0,1,.576,1.419,6.1,6.1,0,0,1,.133,1.951c-.41,5.03-.78,10.053-1.292,15.13-.311,3.034-.3,6.212-.415,9.326q-.2,5.151-.39,10.3l-.219,6.345c-.087,3.207-.208,6.426-.242,9.6,0,2.474.069,4.9.087,7.354V303.3c-.093,2.013-.271,2.647-.78,3.063a2.311,2.311,0,0,1-.346.271c-.38.178-.675-.652-.8-2.128-.075-1.09-.184-2.2-.219-3.316s-.058-2.249-.069-3.385c-.034-2.273,0-4.574,0-6.887.029-3.432.1-6.881.162-10.324Z" transform="translate(0 -66.946)" fill="#231f20"/>
      <path id="Path_84073" data-name="Path 84073" d="M136.2,388.94q-10.85-2.769-21.664-5.687c-2.633-.709-5.272-1.366-7.891-2.111-9.229-2.633-18.428-5.456-27.5-8.652-4.038-1.413-8.075-2.849-12.014-4.436-2.536-1.021-5.058-2.088-7.5-3.34a28.528,28.528,0,0,1-6.925-4.666c-1.154-1.365-.693-1.39.7-.859a11.838,11.838,0,0,1,1.235.461c.473.173.969.4,1.534.623A40.049,40.049,0,0,1,59.915,362,136.166,136.166,0,0,0,74.958,368.5c5.162,1.926,10.383,3.732,15.677,5.5,6.315,2.122,13.036,3.9,19.61,5.716q10.838,3.005,21.756,5.814,6.714,1.73,13.445,3.409c6.794,1.69,13.618,3.391,20.385,5.006,5.254,1.257,10.436,2.371,15.637,3.662,1.154.283,2.267.548,3.421.865a28.8,28.8,0,0,1,4.458,1.5,4.539,4.539,0,0,1,1.782,1.257,3.966,3.966,0,0,1,.45.576c.236.479-1.511.179-4.614-.576-4.584-1.182-9.363-2.267-14.2-3.409l-14.65-3.464c-7.3-1.73-14.63-3.536-21.918-5.353Z" transform="translate(-1.741 -117.39)" fill="#231f20"/>
      <path id="Path_84074" data-name="Path 84074" d="M299.089,338.992q0,5.434.115,10.872c0,1.326.144,2.641.173,3.969.087,4.66.115,9.338.259,14.01.058,2.071.2,4.153.329,6.206a51.694,51.694,0,0,1,.242,7.972c-.069.837-.663.715-1.268,0a6.039,6.039,0,0,1-1.315-3.432c-.352-5.347-.692-10.74-.675-16.191,0-3.264-.335-6.639-.433-9.973-.115-3.662-.178-7.331-.231-11,0-2.255,0-4.516-.04-6.772,0-3.421.052-6.852.052-10.25,0-1.321,0-2.633-.063-3.934s0-2.613.029-3.922c0-.576,0-1.154.052-1.73.254-2.152.488-2.821,1.154-3.224a4.5,4.5,0,0,1,.37-.271c.3-.179.831.75.917,2.307.184,2.307.271,4.7.34,7.1s0,4.84,0,7.285v5.462c0,1.823,0,3.657.046,5.479Z" transform="translate(-105.074 -97.26)" fill="#231f20"/>
      <path id="Path_84075" data-name="Path 84075" d="M140.472,265.033l-21.641-5.711c-2.633-.7-5.283-1.321-7.908-2.036-9.257-2.544-18.486-5.191-27.686-8.075-4.038-1.292-8.179-2.514-12.192-3.87-2.578-.878-5.191-1.765-7.717-2.838-.635-.259-1.268-.576-1.9-.842a12.884,12.884,0,0,1-1.829-1.038,12.689,12.689,0,0,1-3.369-2.78,2.348,2.348,0,0,1-.461-1c-.034-.248,0-.364.1-.38.208-.034.576.323,1.154.64a16.922,16.922,0,0,0,2.688.98c.576.173,1.194.335,1.845.525.335.087.663.2,1.015.293a7.345,7.345,0,0,1,1.033.4c2.48,1.015,5.072,1.909,7.665,2.78s5.191,1.776,7.833,2.613l3.928,1.3,3.957,1.257c2.633.865,5.3,1.667,7.948,2.526,6.345,2.007,13.1,3.651,19.7,5.4l21.791,5.727,13.485,3.484c6.783,1.73,13.584,3.547,20.326,5.243,5.243,1.326,10.417,2.48,15.606,3.8,1.154.293,2.267.548,3.414.859a25.8,25.8,0,0,1,4.436,1.494,6.552,6.552,0,0,1,1.107.646,3.9,3.9,0,0,1,.675.727,6.208,6.208,0,0,1,.467.606c.277.519-1.633.646-4.765-.058-9.28-2.146-19.034-4.569-28.839-7.031l-21.878-5.531Z" transform="translate(-3.311 -65.584)" fill="#231f20"/>
      <path id="Path_84076" data-name="Path 84076" d="M93.072,206.531l-8.418,3.209c-1.021.4-2.013.859-3.04,1.245-3.609,1.356-7.25,2.653-10.884,3.979-1.609.576-3.2,1.251-4.779,1.875a36.149,36.149,0,0,1-6.242,2.1c-.683.139-.756-.415-.39-1.154a4.759,4.759,0,0,1,2.307-2.071c4.038-1.73,8.213-3.264,12.476-4.666,2.555-.836,5.072-2.031,7.619-3.063l8.4-3.374,5.191-2.082c2.607-1.061,5.238-2.1,7.792-3.23,1.99-.878,3.888-1.853,5.837-2.769a11.81,11.81,0,0,1,1.3-.576c1.684-.576,2.307-.576,2.843-.225a2.209,2.209,0,0,1,.364.242c.3.293-.236.9-1.326,1.627l-1.223.813c-.41.271-.848.479-1.281.721-.865.467-1.73.929-2.641,1.372-1.776.923-3.628,1.73-5.491,2.544-2.769,1.206-5.572,2.359-8.369,3.511Z" transform="translate(-4.726 -48.248)" fill="#231f20"/>
      <path id="Path_84077" data-name="Path 84077" d="M401.344,266.706c-.756.254-1.517.513-2.273.79-.277.1-.525.259-.808.358-.986.329-1.984.646-2.982.958a10.868,10.868,0,0,0-1.281.531,4.038,4.038,0,0,1-1.679.576c-.39,0-.576-1.839,0-2.122a14.513,14.513,0,0,1,3.305-1.154,11.531,11.531,0,0,0,2.019-.831l2.255-.9,1.4-.542c.7-.283,1.437-.525,2.122-.848.536-.242,1.015-.612,1.546-.911a2.333,2.333,0,0,1,.34-.208c.455-.2.657-.093.934.5.063.133.138.259.2.4a1.015,1.015,0,0,1-.156,1.154,9.528,9.528,0,0,1-2.716,1.471c-.721.3-1.471.576-2.215.859Z" transform="translate(-145.595 -76.528)" fill="#231f20"/>
      <path id="Path_84078" data-name="Path 84078" d="M312.355,296.628l-3.264,1.217c-.4.15-.762.369-1.154.507-1.413.507-2.838.98-4.268,1.447-.635.208-1.246.479-1.853.738a6.6,6.6,0,0,1-2.463.79c-.283,0-.39-.513-.329-1.085a1.64,1.64,0,0,1,.692-1.356,33.541,33.541,0,0,1,4.759-1.684,20.108,20.108,0,0,0,2.884-1.2L310.6,294.7l2-.819c1-.421,2.025-.813,3-1.286.756-.369,1.436-.878,2.174-1.309.162-.093.311-.214.479-.293.64-.3.911-.214,1.292.41.087.144.184.277.259.427a1.067,1.067,0,0,1-.248,1.344,17.88,17.88,0,0,1-3.969,2.2c-1.055.461-2.14.878-3.219,1.332Z" transform="translate(-106.256 -88.593)" fill="#231f20"/>
      <path id="Path_84079" data-name="Path 84079" d="M403.865,305.016c0-5.248-.093-10.5-.178-15.746-.04-1.915-.162-3.824-.2-5.768-.121-6.743-.259-13.5-.519-20.228l-.04-1.119v-.375a2.219,2.219,0,0,1,0-.277c.034-.121-.109-.1-.178-.144l-.259-.087-.94-.323q-2.12-.732-4.245-1.407c-3.634-1.154-7.308-2.2-10.919-3.409-1.154-.38-.878-.732.208-.889a14.558,14.558,0,0,1,5.162.4q5.711,1.442,11.314,3.219l.1.029.168.063.329.121.657.248.652.248.329.121a1.016,1.016,0,0,0,.04.34c.052.455.093.923.121,1.4l.063.9c.069.98.156,1.961.173,2.942.069,1.967.109,3.928.127,5.9.04,4.712.41,9.6.576,14.42.184,5.289.3,10.584.4,15.879q.078,4.888.156,9.777c.058,4.937.121,9.9.179,14.8.069,3.813.293,7.55.38,11.334,0,.831.046,1.649.04,2.492a12.229,12.229,0,0,1-.317,3.31,2.544,2.544,0,0,1-.969,1.413,3.413,3.413,0,0,1-.576.39c-.317.127-.576-.139-.8-.709a7.325,7.325,0,0,1-.438-2.572c-.293-6.667-.39-13.733-.456-20.828-.069-5.278-.081-10.579-.184-15.873Z" transform="translate(-142.924 -73.504)" fill="#231f20"/>
      <path id="Path_84080" data-name="Path 84080" d="M337.754,201.146l.39-2.157c.029-.168.075-.38.093-.519l.034-.358a8.414,8.414,0,0,0,0-.917c-.093-1.315-.358-2.763-.576-4.2a63.309,63.309,0,0,1-1.085-8.946,33.366,33.366,0,0,1,.058-3.391,19.647,19.647,0,0,1,.576-3.4,14.327,14.327,0,0,1,2.769-5.56,9.885,9.885,0,0,1,2.474-2.1,8.821,8.821,0,0,1,3.057-1.154,9.685,9.685,0,0,1,3.213-.04,8.525,8.525,0,0,1,3.04,1.125,10.862,10.862,0,0,1,4.038,4.672,24.035,24.035,0,0,1,2.1,10.181,31.886,31.886,0,0,1-2.561,12.794c-.576,1.24-.917.889-1-.329a27.268,27.268,0,0,1,.4-5.636,35.883,35.883,0,0,0,.488-6.183,28.783,28.783,0,0,0-.127-3.08,21.443,21.443,0,0,0-.488-2.993,13.842,13.842,0,0,0-2.307-5.3,6.5,6.5,0,0,0-4.4-2.722,6.962,6.962,0,0,0-3.27.416,6.669,6.669,0,0,0-2.67,2.037,13.849,13.849,0,0,0-2.6,6.812,30.829,30.829,0,0,0,.219,8.508c.2,1.442.444,2.884.693,4.355a36.862,36.862,0,0,1,.576,4.551v.78a3.717,3.717,0,0,1-.1.78l-.248,1.344-.5,2.694-1.027,5.37c-1.038,5.416-2.152,10.844-3.092,16.231-.727,4.194-1.268,8.328-1.805,12.484-.109.911-.2,1.811-.335,2.731-.455,3.414-.75,4.482-1.5,5.133a2.779,2.779,0,0,1-.507.433c-.542.277-.808-1.182-.629-3.732a220.38,220.38,0,0,1,3.31-23.25c1.061-5.82,2.221-11.64,3.253-17.454Z" transform="translate(-119.837 -36.732)" fill="#231f20"/>
      <path id="Path_84081" data-name="Path 84081" d="M381.08,244.658q-.865-2.483-1.73-4.949c-.225-.576-.513-1.154-.738-1.77-.8-2.117-1.6-4.234-2.438-6.345-.39-.929-.79-1.853-1.206-2.763a21.662,21.662,0,0,1-1.463-3.571c-.1-.39.271-.488.762-.34a2.567,2.567,0,0,1,1.463,1.211c.576,1.154,1.154,2.307,1.73,3.518a34.9,34.9,0,0,1,1.419,3.686c.513,1.5,1.268,2.965,1.892,4.464.683,1.643,1.321,3.3,1.951,4.974.38,1.027.762,2.059,1.125,3.1.576,1.569,1.038,3.173,1.569,4.741.214.606.415,1.211.646,1.811s.444,1.206.623,1.823c.081.271.2.536.254.813.168,1.061.069,1.425-.39,1.73a2.05,2.05,0,0,1-.311.2c-.358.15-.756-.208-1.067-.9-.911-2.036-1.58-4.234-2.354-6.448q-.878-2.48-1.73-4.966Z" transform="translate(-137.779 -60.675)" fill="#231f20"/>
      <path id="Path_84082" data-name="Path 84082" d="M250.374,181.946q-1.477-.488-2.976-.934c-.364-.1-.738-.167-1.1-.277l-3.847-1.229c-.576-.178-1.154-.317-1.73-.45a4.877,4.877,0,0,1-2.163-.762c-.2-.2-.1-.38.184-.646a1.437,1.437,0,0,1,1.194-.531,31.242,31.242,0,0,1,4.418,1.378,26.524,26.524,0,0,0,2.751.78c1.009.293,2.019.576,3.024.905l1.863.576c.94.293,1.875.617,2.815.894.727.219,1.471.352,2.209.576.162.046.329.069.488.127a1.154,1.154,0,0,1,.576.335.87.87,0,0,1,.1.525v.271a.473.473,0,0,1-.277.323.894.894,0,0,1-.576.1,30.837,30.837,0,0,1-3.951-1.015c-.992-.293-1.984-.612-2.988-.9Z" transform="translate(-80.63 -40.471)" fill="#231f20"/>
      <path id="Path_84083" data-name="Path 84083" d="M150.034,121.237l24.6,7.5,8.986,2.682,31.579,9.771c4.672,1.442,9.385,2.855,14.033,4.24l8.973,2.665c1.494.45,2.987.911,4.464,1.413l2.221.75c.738.259,1.453.576,2.2.859,1.829.78,1.447.9-.225.762a32.138,32.138,0,0,1-3.461-.41,41.409,41.409,0,0,1-4.735-1.113c-12.176-3.68-24.352-7.366-36.563-11.314-7.3-2.359-15-4.569-22.494-6.841l-24.8-7.5-15.271-4.568c-3.853-1.154-7.723-2.307-11.588-3.38l-2.884-.819a7.168,7.168,0,0,0-2.71-.4,5.012,5.012,0,0,0-2.394,1.154,7.526,7.526,0,0,0-1.728,2.175,8.547,8.547,0,0,0-.715,2.025,6.974,6.974,0,0,0-.052,2.1,12.891,12.891,0,0,0,1.338,4.153,5.341,5.341,0,0,0,2.884,2.71l4.4,1.315,3.864,1.154c2.411.75,3.991,1.268,5.072,1.73a8.26,8.26,0,0,1,2.117,1.223,6.012,6.012,0,0,1,.576.507c.184.231-.236.259-1.154.133a29.333,29.333,0,0,1-4.124-.911q-3.969-1.119-8.023-2.307l-2.031-.576-1.021-.305a6.3,6.3,0,0,1-1.154-.461,7.948,7.948,0,0,1-3.305-3.7,15.157,15.157,0,0,1-1.315-4.505,8.577,8.577,0,0,1,.087-2.55,9.765,9.765,0,0,1,.813-2.371,9.322,9.322,0,0,1,1.4-2.077,8.076,8.076,0,0,1,1.972-1.643,6.242,6.242,0,0,1,2.584-.871,7.268,7.268,0,0,1,2.55.358c.617.139,1.079.293,1.615.433l1.569.433q1.568.433,3.126.889l6.235,1.811,12.447,3.68Z" transform="translate(-28.608 -13.608)" fill="#231f20"/>
      <path id="Path_84084" data-name="Path 84084" d="M106.151,125.375a44.929,44.929,0,0,0-1.552-4.332,24.34,24.34,0,0,1-.756-2.405c-.2-.871-.329-1.609-.479-2.411-.214-1.154-.467-2.307-.576-3.524a21.668,21.668,0,0,1-.058-3.241,12.937,12.937,0,0,1,.669-3.27,9.229,9.229,0,0,1,4.367-5.03,6.887,6.887,0,0,1,5.976-.444,10.046,10.046,0,0,1,3.178,2.053,9.856,9.856,0,0,1,1.229,1.365,12.191,12.191,0,0,1,.929,1.561c.311.692-.093.813-.842.576a8.932,8.932,0,0,1-1.332-.507,6.635,6.635,0,0,1-.75-.39,7.3,7.3,0,0,1-.683-.536,9.12,9.12,0,0,0-2.445-1.658,5.461,5.461,0,0,0-1.251-.38c-.2-.034-.41-.052-.612-.081a4.485,4.485,0,0,0-.623,0,5.456,5.456,0,0,0-2.526,1.033,7.186,7.186,0,0,0-2.064,2.1,7.758,7.758,0,0,0-1.044,3.668,20.1,20.1,0,0,0,.271,4.13c.121.768.254,1.528.41,2.307l.236,1.154c.087.375.15.732.259,1.1a46.374,46.374,0,0,0,1.615,4.407,16.6,16.6,0,0,1,.878,2.971,9.615,9.615,0,0,1,.063,3.2,20.272,20.272,0,0,1-.576,2.261l-.617,2.152c-.415,1.437-.831,2.884-1.223,4.286-.576,2.221-1.079,4.43-1.621,6.639-.121.488-.225.964-.364,1.447-.507,1.8-.911,2.307-1.569,2.52a2.535,2.535,0,0,1-.45.144c-.467.046-.612-.8-.416-2.163a125.5,125.5,0,0,1,3.034-12.245c.427-1.523.878-3.074,1.268-4.557a7.378,7.378,0,0,0-.04-3.957Z" transform="translate(-22.764 -7.935)" fill="#231f20"/>
      <path id="Path_84085" data-name="Path 84085" d="M248.475,218.441c-.819-.271-1.638-.576-2.474-.848-.3-.1-.617-.144-.923-.242-1.067-.369-2.152-.709-3.225-1.09-.473-.162-.964-.293-1.447-.41a7.666,7.666,0,0,1-1.829-.612c-.184-.1-.093-.323.133-.525a1.379,1.379,0,0,1,.964-.375c.652.063,1.292.138,1.926.259a8.8,8.8,0,0,1,1.886.513,19.4,19.4,0,0,0,2.341.576q1.286.323,2.578.692l1.569.488c.8.242,1.586.536,2.382.75.623.173,1.268.231,1.9.4.139.034.277.052.415.1a.576.576,0,0,1,.293.178.675.675,0,0,1,.162.214.917.917,0,0,1,.04.542.644.644,0,0,1-.046.293.9.9,0,0,1-.813.576,6.924,6.924,0,0,1-1.73-.168c-.576-.133-1.1-.3-1.649-.467-.819-.248-1.638-.531-2.474-.78Z" transform="translate(-80.641 -56.225)" fill="#231f20"/>
      <path id="Path_84086" data-name="Path 84086" d="M186.136,201.086c-1.447-.473-2.884-.969-4.349-1.419-.536-.162-1.079-.271-1.615-.438l-5.641-1.73c-.831-.259-1.684-.473-2.526-.683a22.534,22.534,0,0,1-3.207-.969c-.323-.133-.219-.352.133-.525a2.757,2.757,0,0,1,1.574-.214c1.119.184,2.238.38,3.345.623a26,26,0,0,1,3.31.889c1.3.438,2.71.683,4.072,1.038q2.237.576,4.464,1.257l2.731.842c1.378.421,2.751.889,4.13,1.286,1.067.3,2.152.5,3.219.79.236.063.467.109.7.184a1.784,1.784,0,0,1,.525.236,2.036,2.036,0,0,1,.323.259.923.923,0,0,1,.236.576,2.125,2.125,0,0,1,0,.323c0,.323-.473.488-1.154.479a9.939,9.939,0,0,1-1.488-.214c-.488-.1-.986-.184-1.477-.323-.975-.254-1.951-.576-2.942-.859-1.463-.444-2.918-.929-4.389-1.365Z" transform="translate(-51.069 -48.07)" fill="#231f20"/>
      <path id="Path_84087" data-name="Path 84087" d="M356.46,187.363a3.132,3.132,0,0,0-1.154-1.73,1.153,1.153,0,0,0-.38-.144,1.6,1.6,0,0,0-.461.034.939.939,0,0,0-.38.109,1.206,1.206,0,0,0-.311.277,4.424,4.424,0,0,0-.663,1.649,16.763,16.763,0,0,0-.427,3.662,19.037,19.037,0,0,0,.254,3.761,15.7,15.7,0,0,0,.917,3.225,9.971,9.971,0,0,0,.969,1.823,8.079,8.079,0,0,0,1.206,1.482c.283.248.144.576-.421.727a2.348,2.348,0,0,1-2.238-.889,12.967,12.967,0,0,1-1.92-4.533c-.184-.78-.317-1.523-.433-2.307a17.7,17.7,0,0,1-.1-2.393c0-.94.034-1.9.1-2.884a11.568,11.568,0,0,1,.536-2.965,4.947,4.947,0,0,1,.9-1.609,2.976,2.976,0,0,1,.837-.657,3.564,3.564,0,0,1,.975-.293,3.5,3.5,0,0,1,1.972.3,4.268,4.268,0,0,1,1.39,1.253,9.76,9.76,0,0,1,1.463,3.8,24.844,24.844,0,0,1,.254,5.877,16.842,16.842,0,0,1-.692,4.545,6.628,6.628,0,0,1-.4,1,2.474,2.474,0,0,1-1.044,1.154,1.055,1.055,0,0,1-.467.109,1.1,1.1,0,0,1-.427-.144,1.5,1.5,0,0,1-.317-.2c-.133-.133-.121-.335-.1-.576a2.6,2.6,0,0,1,.075-.38c.046-.115.087-.277.15-.433a12.772,12.772,0,0,0,.756-3.337,27.846,27.846,0,0,0,.283-3.773,17.5,17.5,0,0,0-.756-5.462Z" transform="translate(-128.223 -43.246)" fill="#231f20"/>
      <path id="Path_84088" data-name="Path 84088" d="M360.975,295.882c-1.915.542-3.83,1.038-5.768,1.511-.7.173-1.372.421-2.077.576-2.469.576-4.966,1.021-7.447,1.5-1.1.214-2.192.479-3.276.744a18.8,18.8,0,0,1-4.268.78c-.5,0-.433-.488-.139-1.009a2.7,2.7,0,0,1,1.627-1.315c2.78-.7,5.583-1.4,8.467-1.88.859-.15,1.73-.375,2.584-.576s1.73-.507,2.584-.727c1.892-.513,3.783-1.015,5.657-1.574l1.73-.525,1.73-.576a40.97,40.97,0,0,0,5.036-2.019c.305-.168.576-.34.894-.519a7.563,7.563,0,0,0,.825-.542,3.805,3.805,0,0,0,1.067-1.281,4,4,0,0,0,.219-.623c.225-.78.34-1.1,1.067-1.321.162-.052.323-.121.488-.156.519-.115,1.044.34,1.033,1.437a5.059,5.059,0,0,1-.727,2.429,5.768,5.768,0,0,1-1.817,1.829,5.38,5.38,0,0,1-.488.293l-.456.254-.917.488c-.623.311-1.251.576-1.88.853-.94.4-1.892.732-2.843,1.079s-1.909.64-2.884.929Z" transform="translate(-122.662 -86.692)" fill="#231f20"/>
      <path id="Path_84089" data-name="Path 84089" d="M357.487,413.768c-2.959.813-5.913,1.679-8.876,2.567-1.079.329-2.134.732-3.219,1.044-3.83,1.1-7.683,2.157-11.576,3.086l-5.191,1.292c-1.107.248-2.209.519-3.322.756a25,25,0,0,1-3.4.38c-.709,0-.692-.576-.2-1.281a4.522,4.522,0,0,1,2.7-1.7l3.288-.75c1.1-.242,2.186-.576,3.288-.8l6.7-1.546c2.688-.576,5.37-1.633,8.075-2.486q4.436-1.419,8.922-2.786l2.763-.825,2.774-.79c1.4-.421,2.828-.756,4.234-1.154s2.843-.683,4.245-1.055c1.1-.248,2.18-.542,3.264-.848s2.18-.531,3.276-.78a12.363,12.363,0,0,1,1.463-.311,11.414,11.414,0,0,1,1.154-.109,2.947,2.947,0,0,1,.813.109,1.5,1.5,0,0,1,.934.756,3.39,3.39,0,0,1,.3.513c.214.576-.479,1.2-1.73,1.6-3.773.964-7.729,1.73-11.721,2.774-1.483.358-2.965.768-4.452,1.154s-2.977.808-4.458,1.257Z" transform="translate(-115.71 -137.198)" fill="#231f20"/>
      <path id="Path_84090" data-name="Path 84090" d="M380.834,388s20.02.819,25.956,6.925c6.154,6.345-10.642,12.147-33.811,17.009-41.055,8.651-49.45,2.307-49.45,2.307l56.092-14.7Z" transform="translate(-116.636 -129.719)" fill="#231f20"/>
      <path id="Path_84091" data-name="Path 84091" d="M286.922,221.722a17.942,17.942,0,0,1-2.14.335,18.293,18.293,0,0,1-2.174.1,17.517,17.517,0,0,1-11.761-4.8,20.139,20.139,0,0,1-3.894-4.81,22.9,22.9,0,0,1-2.884-10.319,22.17,22.17,0,0,1,.444-5.347,21.876,21.876,0,0,1,1.673-5.082,23.818,23.818,0,0,1,2.5-4.038,27.554,27.554,0,0,1,3.219-3.461,23.428,23.428,0,0,1,4.974-3.461,13.661,13.661,0,0,1,1.4-.576c.479-.173.975-.305,1.463-.456a10.205,10.205,0,0,1,1.5-.293,6.922,6.922,0,0,1,.772-.029h.772c1.281.052,1.055.335.075.756s-2.567,1.4-4.383,2.382a23.116,23.116,0,0,0-8.508,7.06,18.726,18.726,0,0,0-2.625,4.877,21.507,21.507,0,0,0-1.209,5.516,19.214,19.214,0,0,0,3.888,13.087,17.047,17.047,0,0,0,2.6,2.8,15.488,15.488,0,0,0,3.143,2.134,14.419,14.419,0,0,0,3.559,1.309l.461.109.467.069c.317.046.629.1.946.138a16.143,16.143,0,0,0,1.9.052,19.086,19.086,0,0,0,9.009-2.7,17.783,17.783,0,0,0,5.191-4.943,21.342,21.342,0,0,0,3.138-17.454c-.1-.39-.231-.756-.34-1.154s-.271-.732-.4-1.107c-.525-1.372-.986-2.209-1.206-2.884a3.463,3.463,0,0,1-.184-.878,2.308,2.308,0,0,1,0-.721,4.449,4.449,0,0,1,.109-.64c.115-.283.444-.231.98.127a6.465,6.465,0,0,1,1.869,2.134,20.015,20.015,0,0,1,2.55,10.988,24.9,24.9,0,0,1-3.161,11.08,21.081,21.081,0,0,1-5.733,6.6,19.247,19.247,0,0,1-3.83,2.192c-.646.311-1.35.525-2.019.79a11.892,11.892,0,0,1-2.111.576Z" transform="translate(-91.464 -41.475)" fill="#231f20"/>
      <path id="Path_84092" data-name="Path 84092" d="M303.959,203.727l-.772,1.829-1,2.243-.329.41-.184.231c-.075,0-.075.069-.127.081l-.138.063a2.008,2.008,0,0,1-.576.109,4.206,4.206,0,0,1-1.3-.219l-.271-.087-.173-.063-.335-.127-.657-.271-1.281-.576c-.842-.39-1.684-.772-2.509-1.154-.733-.364-1.488-.675-2.233-.98a13.933,13.933,0,0,1-2.821-1.315c-.265-.184-.069-.576.346-.831a1.944,1.944,0,0,1,1.615-.311,32.107,32.107,0,0,1,5.814,2.438,11.448,11.448,0,0,0,1.73.75c.3.1.576.2.9.293l.444.133a.53.53,0,0,0,.231.04c.063-.034.075-.115.121-.178l.063-.115a1.482,1.482,0,0,0,.1-.208l.293-.675c.2-.455.375-.911.576-1.372q.484-1.22.946-2.463c.473-1.251.969-2.514,1.477-3.755.2-.488.37-.98.542-1.471a10.272,10.272,0,0,1,.576-1.453,5.717,5.717,0,0,1,.329-.612,3.313,3.313,0,0,1,.323-.444,1.373,1.373,0,0,1,.352-.225,1.153,1.153,0,0,1,.576-.1.748.748,0,0,1,.259.029.457.457,0,0,1,.219.352,3.51,3.51,0,0,1,0,.8c-.1.45-.225.878-.317,1.332a4.726,4.726,0,0,1-.184.652l-.214.646-.878,2.633-1.523,3.979Z" transform="translate(-102.077 -47.331)" fill="#231f20"/>
      <path id="Path_84093" data-name="Path 84093" d="M289.329,192.3c.421-.721.836-1.453,1.229-2.2.144-.265.225-.576.37-.836q.79-1.437,1.569-2.884a10.085,10.085,0,0,0,.576-1.321,4.994,4.994,0,0,1,.819-1.667c.139-.15.507.034.837.352s.617.756.531,1.1a10.3,10.3,0,0,1-1.477,3.461,13.593,13.593,0,0,0-.98,2.116c-.369.772-.762,1.54-1.154,2.307l-.744,1.4c-.37.715-.772,1.419-1.154,2.128-.139.283-.259.576-.37.859a4.4,4.4,0,0,1-.39.859,3.119,3.119,0,0,1-.208.352,1.583,1.583,0,0,1-.236.242.577.577,0,0,1-.271.087,1.032,1.032,0,0,1-.507-.052.577.577,0,0,1-.225-.075.488.488,0,0,1-.248-.3,2.271,2.271,0,0,1-.144-.576,8.992,8.992,0,0,1,.917-3.184l1.154-2.2Z" transform="translate(-101.243 -43.105)" fill="#231f20"/>
      <path id="Path_84094" data-name="Path 84094" d="M261.192,261.713l2.059-4.729c.248-.576.427-1.154.675-1.73l2.671-6.074c.39-.9.721-1.829,1.038-2.746a13.264,13.264,0,0,1,1.528-3.426c.2-.34.45-.208.663.208a7.57,7.57,0,0,1,.317.831,3.316,3.316,0,0,1,.133.536,1.882,1.882,0,0,1-.046.536c-.144.629-.283,1.268-.455,1.88s-.415,1.211-.64,1.811a28.592,28.592,0,0,1-1.54,3.541c-.7,1.378-1.154,2.918-1.73,4.383l-1.99,4.8-1.229,2.953c-.606,1.5-1.257,2.987-1.8,4.493-.415,1.154-.7,2.371-1.044,3.559-.081.259-.133.525-.219.78a2.308,2.308,0,0,1-.507.958,1.055,1.055,0,0,1-.772.214,3.6,3.6,0,0,1-.438,0,.663.663,0,0,1-.513-.427,1.56,1.56,0,0,1-.087-.934,37.049,37.049,0,0,1,1.961-6.576c.576-1.621,1.281-3.225,1.932-4.828Z" transform="translate(-88.576 -68.276)" fill="#231f20"/>
      <path id="Path_84095" data-name="Path 84095" d="M279.945,267.475c.576-1.494,1.182-2.993,1.73-4.505.2-.576.346-1.125.576-1.673.744-1.938,1.447-3.888,2.215-5.832.335-.859.612-1.73.894-2.619a11.162,11.162,0,0,1,1.442-3.288c.219-.317.433-.144.576.265a3.662,3.662,0,0,1,.2.756,2.633,2.633,0,0,1,0,.952c-.063.283-.093.576-.179.871l-.248.853-.507,1.73a28.792,28.792,0,0,1-1.229,3.391c-.576,1.332-.94,2.8-1.425,4.2-.531,1.54-1.09,3.074-1.658,4.614l-1.055,2.828c-.536,1.425-1.125,2.828-1.638,4.256-.39,1.107-.692,2.227-1.038,3.345-.081.242-.144.488-.236.732-.364.889-.663,1.09-1.211,1.079a2.5,2.5,0,0,1-.364,0c-.352-.052-.576-.576-.45-1.268a43.953,43.953,0,0,1,1.863-6.119c.525-1.522,1.119-3.024,1.684-4.545Z" transform="translate(-96.646 -71.061)" fill="#231f20"/>
      <path id="Path_84096" data-name="Path 84096" d="M214.653,264.652l1.5-2.688c.173-.323.293-.675.467-.992.3-.576.612-1.1.871-1.633.052-.127.115-.259.167-.39l.121-.375.208-.98a16.375,16.375,0,0,0,.283-1.73c.034-.34.029-.693.046-1.055a5.528,5.528,0,0,1,.271-1.1c.087-.225.364-.2.693,0a2.031,2.031,0,0,1,.889,1.015,9.806,9.806,0,0,1-.081,2.405c-.046.364-.121.721-.2,1.085l-.121.576c-.063.225-.133.479-.214.7-.415.992-.721,1.9-1.154,2.751l-1.494,2.7c-.3.548-.576,1.1-.859,1.658a19.446,19.446,0,0,0-1.085,2.6,11.533,11.533,0,0,0-.352,2.111l-.046.461c-.087.576-.242.721-.859.738h-.369a.842.842,0,0,1-.79-.813,10.226,10.226,0,0,1,.78-4.187c.375-1,.842-1.951,1.3-2.884Z" transform="translate(-69.665 -72.823)" fill="#231f20"/>
      <path id="Path_84097" data-name="Path 84097" d="M333.78,242.2c-.4-.162-.819-.317-1.24-.455-.156-.052-.317-.052-.473-.109-.542-.208-1.085-.438-1.615-.652a6.54,6.54,0,0,0-.721-.231,1.869,1.869,0,0,1-.894-.364c-.081-.075,0-.335.184-.576s.4-.5.576-.488a7.861,7.861,0,0,1,.911.115,4.265,4.265,0,0,1,.865.323,3.812,3.812,0,0,0,1.119.214c.415.069.842.162,1.268.242l.79.168a10.509,10.509,0,0,0,1.206.2,6.546,6.546,0,0,0,.98-.133,1.566,1.566,0,0,1,.219-.034c.265,0,.317.173.242.78a3.4,3.4,0,0,1-.046.415,1.292,1.292,0,0,1-.455.929,2.214,2.214,0,0,1-.878.214,3.74,3.74,0,0,1-.825-.139c-.4-.1-.808-.248-1.223-.369Z" transform="translate(-118.869 -66.801)" fill="#231f20"/>
      <path id="Path_84098" data-name="Path 84098" d="M216.2,181.9l-.45-3.939-.236-1.967a.39.39,0,0,1,0-.121.086.086,0,0,0,0-.052s-.087-.184-.156-.323l-.45-.878c-.438-.865-.94-1.69-1.372-2.555l-2.273-4.574-.4-.79a4.174,4.174,0,0,1-.219-.461l.156-.5.467-1.425.79-2.429c.467-1.437.865-2.884,1.24-4.355l.455-1.73.15-.576c0-.127.133-.087.214-.115l.271-.04c.184-.029.364-.063.576-.081l.576-.034.878-.04h.738a7.868,7.868,0,0,1,1.471.121c.606.236.513.519,0,1.154a3.858,3.858,0,0,1-2.463,1.4h-.127a.179.179,0,0,0,0-.093h0l-.04.15L215.9,158q-.427,1.413-.878,2.821t-.964,2.8l-.507,1.4-.259.7a.425.425,0,0,1-.058.15l-.029.034-.058.081c-.034.034,0,.069,0,.109v.058l.046.115.39.813c.271.536.576,1.079.836,1.615.576,1.073,1.154,2.14,1.73,3.224l.905,1.782.455.889.156.305.093.178a1.152,1.152,0,0,1,.034.2l.081.612.467,3.979q.277,2.457.576,4.9c.293,2.475.525,4.967.825,7.423.242,1.909.576,3.773.825,5.676.052.421.127.831.162,1.257a5.261,5.261,0,0,1,0,1.009,2.447,2.447,0,0,1-.139.7,1.413,1.413,0,0,1-.576.75,1.658,1.658,0,0,1-.335.208c-.178.069-.34-.063-.513-.34a4.077,4.077,0,0,1-.479-1.251c-.612-3.27-1.067-6.8-1.511-10.339l-.986-7.925Z" transform="translate(-68.863 -31.073)" fill="#231f20"/>
      <path id="Path_84099" data-name="Path 84099" d="M229.5,184.126l-.669-7.12-.075-.646-.1-.732a1.044,1.044,0,0,1,0-.576l.121-.45.173-.629,2.307-7.441-.075-.265-.184-.531c-.438-1.286-.975-2.544-1.442-3.8-.305-.808-.657-1.6-.94-2.417s-.507-1.658-.738-2.486c-.139-.488.133-.576.657-.317a5.191,5.191,0,0,1,1.823,1.73,17.534,17.534,0,0,1,.934,1.823q.433.929.848,1.853c.271.623.479,1.275.709,1.909l.329.969.167.488.317.905-.311,1.038-.208.576-.427,1.2c-.369,1-.675,2.053-.958,3.108l-.427,1.592-.214.79-.109.4-.058.2v.063l.663,6.925q.208,2.215.421,4.418c.219,2.233.41,4.476.669,6.685.208,1.73.531,3.385.768,5.093.052.38.127.744.162,1.125.133,1.419,0,1.915-.612,2.227a2.708,2.708,0,0,1-.39.2c-.427.115-.848-.421-1.027-1.407-.576-2.959-1-6.145-1.365-9.344q-.38-3.571-.768-7.158Z" transform="translate(-76.138 -31.773)" fill="#231f20"/>
      <path id="Path_84100" data-name="Path 84100" d="M214.717,246.084a5.768,5.768,0,0,1-2.307-1.765,4.666,4.666,0,0,1-.964-2.942,6.616,6.616,0,0,1,.646-2.633,9.6,9.6,0,0,1,1.332-2.077,11.183,11.183,0,0,1,1.229-1.281,6.144,6.144,0,0,1,.683-.536l.693-.488A14.875,14.875,0,0,1,221.5,232.4a14.689,14.689,0,0,1,5.721.3,16.316,16.316,0,0,1,4.614,1.99,15.446,15.446,0,0,1,1.3.958c.39.375.78.738,1.154,1.154l.488.635.444.663a15.581,15.581,0,0,1,.683,1.437c.248.606-.115.693-.78.5a7.315,7.315,0,0,1-1.154-.467,4.931,4.931,0,0,1-1.309-.767,19.83,19.83,0,0,0-2.128-1.627,8.152,8.152,0,0,0-1.119-.683,8.793,8.793,0,0,0-1.154-.576,13.006,13.006,0,0,0-5.238-.917,10.492,10.492,0,0,0-3.294.683,14.029,14.029,0,0,0-2.959,1.658,6.925,6.925,0,0,0-2.174,2.676,3.536,3.536,0,0,0-.335,1.5,1.938,1.938,0,0,0,.461,1.235,3.542,3.542,0,0,0,1.684,1.027,10.258,10.258,0,0,0,2.307.41,32.735,32.735,0,0,0,7.469-.56c1.951-.34,3.83-.878,5.8-1.286.433-.087.859-.2,1.309-.259a4.344,4.344,0,0,1,1.829,0,1.431,1.431,0,0,1,.808.768,2.563,2.563,0,0,1,.2.415c.058.208-.1.39-.375.612a2.487,2.487,0,0,1-1.223.576c-1.615.352-3.351.8-5.139,1.154s-3.645.727-5.549.969a33.653,33.653,0,0,1-4.372.335,13.036,13.036,0,0,1-4.787-.78Z" transform="translate(-69.202 -63.807)" fill="#231f20"/>
      <path id="Path_84101" data-name="Path 84101" d="M247.219,266.091c-.663-1.044-1.4-2.065-2.157-3.092-.277-.375-.606-.7-.878-1.1a18.288,18.288,0,0,1-1.384-2.2l-.293-.646a6.308,6.308,0,0,1-.236-.727c-.075-.259-.081-.421-.127-.64l-.1-.612c-.138-.721-.3-1.453-.444-2.18-.1-.467-.2-.934-.265-1.4a7.36,7.36,0,0,1,0-1.425c.035-.3.317-.305.683-.115a2.536,2.536,0,0,1,1.085,1.079c.242.923.438,1.788.669,2.688.109.45.2.917.283,1.384l.058.352a1.014,1.014,0,0,0,.058.3,2.614,2.614,0,0,0,.127.5,3.051,3.051,0,0,0,.335.675,6.869,6.869,0,0,0,.473.675l1.055,1.365c.767,1.027,1.546,2.088,2.307,3.173.461.669.889,1.365,1.315,2.053.311.536.629,1.067.894,1.627s.542,1.113.808,1.673a26.762,26.762,0,0,1,1.154,2.653,3.187,3.187,0,0,1,.208.612c.156.8.069,1.073-.5,1.3a3.315,3.315,0,0,1-.34.144.946.946,0,0,1-1.044-.634c-.612-1.425-1.154-2.884-1.92-4.3a30.879,30.879,0,0,0-1.863-3.149Z" transform="translate(-81.831 -72.093)" fill="#231f20"/>
      <path id="Path_84102" data-name="Path 84102" d="M134.325,214.236c-.8-.813-1.592-1.633-2.405-2.438-.3-.293-.635-.542-.929-.842-1.027-1.061-1.99-2.192-2.993-3.282-.45-.488-.923-.94-1.384-1.4a9.125,9.125,0,0,1-1.638-1.9c-.133-.236.144-.438.576-.525a1.638,1.638,0,0,1,1.332.231c.64.536,1.3,1.049,1.9,1.638s1.154,1.188,1.73,1.84a29.043,29.043,0,0,0,2.307,2.111l2.486,2.388,1.534,1.483c.78.738,1.534,1.523,2.341,2.227.617.576,1.332,1,1.978,1.528.139.121.293.219.427.352.473.488.5.772.167,1.275-.069.109-.133.225-.208.323a.958.958,0,0,1-1.194.173,16.466,16.466,0,0,1-3.542-2.763l-2.52-2.359Z" transform="translate(-32.591 -51.764)" fill="#231f20"/>
      <path id="Path_84103" data-name="Path 84103" d="M121.77,179.24c3.259-1.038,6.529-1.951,9.765-2.959,1.154-.364,2.307-.79,3.511-1.154,2.059-.675,4.112-1.372,6.113-2.169.507-.2.992-.41,1.488-.617s1.1-.513,1.194-.542l.081-.034v-.958c0-.531,0-1.067-.046-1.6a48.562,48.562,0,0,0-.732-5.7c-.488-2.394-.905-4.85-1.592-7.141-.248-.64-.04-.732.5-.231a7.96,7.96,0,0,1,1.638,2.988,46.363,46.363,0,0,1,1.609,7.5c.173,1.275.305,2.555.358,3.87v.5a5.461,5.461,0,0,1,0,.576l-.034.836v.415a2.093,2.093,0,0,1-.375.2l-.78.38-.467.214c-.293.139-.576.254-.9.375-2.884,1.154-5.826,2.348-8.785,3.357-3.253,1.09-6.535,2.088-9.805,3.121-2.013.623-3.979,1.275-5.976,1.984a65.367,65.367,0,0,0-8.79,3.527,25.811,25.811,0,0,0-5.768,4.147c-.38.346-.709.738-1.085,1.1s-.576.64-.842.871-.479.39-.663.525a1.73,1.73,0,0,1-1.015.364,2.883,2.883,0,0,1-.438,0c-.208-.04-.242-.265-.127-.646a5.083,5.083,0,0,1,.277-.7,4.682,4.682,0,0,1,.525-.878,22.684,22.684,0,0,1,5.082-4.747,34.4,34.4,0,0,1,6.311-3.3c1.615-.675,3.247-1.268,4.877-1.84l2.423-.848,2.463-.831Z" transform="translate(-21.928 -31.455)" fill="#231f20"/>
      <path id="Path_84104" data-name="Path 84104" d="M101.165,169.4a33.857,33.857,0,0,1,2.694-4.412l.225-.271c.087-.1.208-.214.311-.311a2.377,2.377,0,0,1,.305-.265l.3-.219c.38-.265.762-.5,1.154-.721.756-.432,1.511-.819,2.273-1.194,1.107-.542,2.192-1.107,3.31-1.592,3.957-1.73,7.96-3.23,12-4.654l5.376-1.9c1.154-.4,2.307-.8,3.461-1.154a16.312,16.312,0,0,1,3.657-.727c.421,0,.617.109.576.254a1.413,1.413,0,0,1-.5.536,9.857,9.857,0,0,1-2.849,1.483c-4.614,1.494-9.154,3.391-13.843,4.974-2.791.986-5.589,2.307-8.317,3.571-1.494.7-3,1.425-4.372,2.249-.178.1-.34.208-.5.311a4.2,4.2,0,0,0-.455.323,3.346,3.346,0,0,0-.352.305c-.121.144-.242.293-.358.45a18.056,18.056,0,0,0-1.281,2.025c-.488.889-.964,1.811-1.523,2.722-.162.375-.576.576-.721.738a3.869,3.869,0,0,1-.657.473c-.444.305-.905.576-1.365.842-1.39.8-2.786,1.442-4,2.307a4.931,4.931,0,0,0-1.471,1.463,7.562,7.562,0,0,0-.8,1.99,27.1,27.1,0,0,0-.488,6.925c0,.525.034,1.038,0,1.569,0,1.972-.259,2.633-.842,2.993a2.262,2.262,0,0,1-.39.242c-.438.121-.683-.669-.768-2.077a54.289,54.289,0,0,1-.034-6.57,18.948,18.948,0,0,1,.531-3.536,8.231,8.231,0,0,1,1.8-3.593l.576-.576a3.024,3.024,0,0,1,.576-.421c.375-.265.75-.519,1.154-.75.762-.473,1.528-.871,2.255-1.268a22.181,22.181,0,0,0,2.043-1.207c.162-.1.311-.214.461-.329a2.312,2.312,0,0,0,.225-.167l.109-.087h0l.138-.225.293-.519Z" transform="translate(-18.166 -29.834)" fill="#231f20"/>
      <path id="Path_84105" data-name="Path 84105" d="M160.293,202.413l.214-3.421v-1.245c.115-1.471.2-2.948.352-4.424.058-.657.063-1.315.069-1.967a10.255,10.255,0,0,1,.184-2.514c.063-.259.375-.208.693,0a1.649,1.649,0,0,1,.693,1.119,28.515,28.515,0,0,1,.075,5.064,25.892,25.892,0,0,0,0,3.138c0,1.154-.04,2.307-.087,3.461l-.087,2.14c-.034,1.079-.121,2.163-.127,3.236,0,.842.109,1.673.075,2.509a2.557,2.557,0,0,1-.046.576,2.71,2.71,0,0,1-.115.433.934.934,0,0,1-.208.271,1,1,0,0,1-.507.259,1.639,1.639,0,0,1-.259.058c-.259.034-.507-.283-.756-.79a12.5,12.5,0,0,1-.375-4.482l.138-3.421Z" transform="translate(-47.435 -45.359)" fill="#231f20"/>
      <path id="Path_84106" data-name="Path 84106" d="M149.318,240.946c-.576-1.609-1.154-3.219-1.8-4.816-.231-.576-.507-1.154-.727-1.73-.78-2.059-1.58-4.112-2.382-6.166-.364-.905-.772-1.8-1.2-2.665a28.139,28.139,0,0,1-1.477-3.426c-.121-.369.075-.427.455-.265a3.541,3.541,0,0,1,1.419,1.154q.277.41.536.813l.265.41.225.427c.293.576.576,1.154.859,1.73a28.839,28.839,0,0,1,1.463,3.576c.5,1.463,1.223,2.884,1.817,4.361.652,1.6,1.281,3.219,1.909,4.834l1.154,2.982c.576,1.5,1.154,3.017,1.788,4.487.488,1.154,1.09,2.221,1.621,3.334.1.248.225.488.323.744a2.58,2.58,0,0,1,.242,1.061.865.865,0,0,1-.081.335,1.6,1.6,0,0,1-.214.293c-.075.081-.127.173-.178.225-.127.156-.756-.04-1.154-.669-.305-.473-.617-.946-.905-1.437a16.35,16.35,0,0,1-.744-1.534c-.473-1.038-.923-2.111-1.356-3.184-.646-1.6-1.251-3.225-1.886-4.834Z" transform="translate(-39.682 -59.378)" fill="#231f20"/>
      <path id="Path_84107" data-name="Path 84107" d="M167.592,229.509l2,5.578c.248.675.576,1.332.79,2.007l1.251,3.609,1.2,3.628c.346,1.073.8,2.117,1.154,3.178a30.094,30.094,0,0,1,1.3,4.13c.093.438-.2.479-.612.225a3.761,3.761,0,0,1-1.365-1.528c-.576-1.332-1.292-2.633-1.776-4.038s-1.009-2.751-1.463-4.165c-.531-1.684-1.286-3.363-1.938-5.046l-2.106-5.583-1.292-3.461-1.932-5.232c-.254-.675-.548-1.321-.813-1.984a18.827,18.827,0,0,1-.772-2.013,8.1,8.1,0,0,1-.271-.923c-.293-1.154-.121-1.673.283-1.951a1.929,1.929,0,0,1,.277-.184c.311-.1.657.305.969,1.027,1.1,2.18,2.048,4.614,3.051,7.089.744,1.823,1.39,3.706,2.111,5.566Z" transform="translate(-47.77 -56.818)" fill="#231f20"/>
      <path id="Path_84108" data-name="Path 84108" d="M182.138,144.945c.058.259.087.548.133.819l.093.617.121.865.236,1.73.488,3.461c.121.842.293,1.679.41,2.52l.64,4.741a4.917,4.917,0,0,1,0,.513c0,.081,0,.167,0,.248a.709.709,0,0,1-.144.208,1.972,1.972,0,0,1-.94.479c-.934.248-.9.167-1.835.41l-.305.069h-.461c0-.058-.058.121.052-.127h-.029l-.2-.133a.871.871,0,0,1-.358-.45l-.271-.576-.853-1.817-.438-.9-.2-.4-.1-.2-.133-.242-.438.236-.058.029-.127.058-.248.121-.507.236a18.445,18.445,0,0,1-2.077.813c-1.015.317-.519-1.853,1.257-2.671L179,154.191l1.154,2.55.64,1.431.576,1.384c0,.046,0,.162.081.144h.15l.473-.075h.3c.121,0,.1-.093.1-.173a10.166,10.166,0,0,0-.133-1.033l-.219-1.35c-.15-.905-.305-1.811-.438-2.716l-1.009-6.98-.139-.969-.029-.259v-.2h-.052a2.359,2.359,0,0,0-.531.029,4.183,4.183,0,0,0-.819.242c-.115.058-.293.1-.329.248l-.1.576-.311,1.569-.265,1.621c-.081.576-.162,1.107-.248,1.658l-.139,1-.744.242-.623.214-1.021.369-2.025.738c-.346.121-.683.259-1.033.375-1.309.433-1.765.438-2.192.052a1.781,1.781,0,0,1-.283-.265c-.236-.329.208-.79,1.154-1.188s1.909-.78,2.884-1.154l1.494-.519.762-.254h0l.1-.693.225-1.494.271-1.73.139-.878.087-.542a2.457,2.457,0,0,1,.248-.8,1.853,1.853,0,0,1,.576-.576,4.359,4.359,0,0,1,.732-.369,4.655,4.655,0,0,1,.525-.173l.259-.069.144-.034.214-.046a6.759,6.759,0,0,1,1.658-.093h.612c.04,0,.04.034.052.063v.1l.208.762Z" transform="translate(-51.547 -26.449)" fill="#231f20"/>
      <path id="Path_84109" data-name="Path 84109" d="M120.213,194.552c2.192-.732,4.464-1.39,6.679-2.041.813-.236,1.609-.525,2.423-.756,2.884-.808,5.727-1.627,8.566-2.492,1.251-.4,2.5-.848,3.706-1.338,1.546-.652,3.1-1.257,4.66-1.869.488-.178.536.052.259.488a5.19,5.19,0,0,1-1.73,1.6,35.282,35.282,0,0,1-4.765,2.157,49.3,49.3,0,0,1-4.961,1.615c-2.013.536-4.038,1.3-6.062,1.932-2.227.7-4.452,1.378-6.645,2.128-1.365.455-2.731.905-4.072,1.384a47.563,47.563,0,0,0-5.97,2.438,24.461,24.461,0,0,0-4.038,2.694l-.813.683a7.7,7.7,0,0,1-.652.507,2.7,2.7,0,0,1-.531.254,1.194,1.194,0,0,1-.836,0,2.781,2.781,0,0,1-.369-.115c-.335-.173-.156-.808.5-1.658a23.928,23.928,0,0,1,8-5.191c2.2-.946,4.452-1.7,6.656-2.457Z" transform="translate(-24.106 -44.228)" fill="#231f20"/>
      <path id="Path_84110" data-name="Path 84110" d="M398.586,261.533l-1.978-.576c-.242-.069-.488-.1-.727-.184l-2.509-.878c-.375-.121-.756-.22-1.154-.323a4.285,4.285,0,0,1-1.425-.548c-.138-.093-.034-.293.173-.488a1.09,1.09,0,0,1,.772-.364,14.637,14.637,0,0,1,1.483.231,13.644,13.644,0,0,1,1.437.5,11.809,11.809,0,0,0,1.805.45c.663.173,1.321.369,1.984.576.41.109.813.225,1.223.323.623.15,1.24.317,1.869.41a10.275,10.275,0,0,0,1.463.04,2.876,2.876,0,0,1,.317,0c.38.046.479.156.531.576,0,.1.029.2.034.283a.612.612,0,0,1-.5.64,7.13,7.13,0,0,1-2.8-.121c-.683-.127-1.356-.305-2.025-.467Z" transform="translate(-145.075 -74.775)" fill="#231f20"/>
      <path id="Path_84111" data-name="Path 84111" d="M186.631,301.724h0l.427-.323h0v.034l.046.063.087.133.173.265c0,.293.034.606.04.911-.242.767-.488,1.552-.635,2.215l-.184.819a5.344,5.344,0,0,1-.178.635,6.113,6.113,0,0,1-.721,1.592c-.115.144-.214.293-.346.433a5.669,5.669,0,0,1-.421.39,4.313,4.313,0,0,1-.946.525,2.3,2.3,0,0,1-.45.15,4.3,4.3,0,0,1-.438.1l-.4.052a4.266,4.266,0,0,1-.433.034,10.378,10.378,0,0,1-1.378-.1c-.415-.052-.819-.115-1.217-.179-1.154-.2-2.307-.335-3.461-.576-3.979-.836-7.9-1.829-11.812-2.912l-2.555-.683c-.878-.254-1.73-.488-2.653-.836a4.413,4.413,0,0,1-1.154-.623,1.211,1.211,0,0,1-.369-.5,2.248,2.248,0,0,1-.121-.629,12.234,12.234,0,0,1,.04-2.036,28.2,28.2,0,0,1,.576-3.385c.081-.34.231-.438.444-.438a1.1,1.1,0,0,1,.7.525,5.4,5.4,0,0,1,.946,3.108v.842l-.029.663v.034h.046l.358.138.762.259c.525.168,1.061.335,1.6.488l6.656,1.886a76.634,76.634,0,0,0,8.34,1.667c.768.121,1.534.242,2.307.34.38.052.756.093,1.119.127a4.823,4.823,0,0,0,.934,0,2.047,2.047,0,0,0,.657-.168.669.669,0,0,0,.259-.358,4.034,4.034,0,0,0,.225-.865l.109-.531.075-.311c.052-.214.115-.432.2-.663l.063-.173c0-.058.063-.127,0-.127l-.323-.1-.7-.184c-.479-.087-.952-.2-1.425-.3-2.884-.64-5.768-1.365-8.617-1.967-2.238-.467-4.482-.7-6.737-1.194-.5-.1-1-.179-1.5-.323a4.3,4.3,0,0,1-1.892-.934,1.684,1.684,0,0,1-.4-1.413,3.511,3.511,0,0,1,.109-.756,1.326,1.326,0,0,1,.825-.8,2.815,2.815,0,0,1,1.534-.133c1.863.293,3.87.576,5.866,1s4.038.871,6.091,1.338l4.574,1.079,1.154.271.576.133.576.178.488.138a5.6,5.6,0,0,1,.542.162l.525.178a1.766,1.766,0,0,1,.488.214l.208.144.231.1c.093,0,.115.1.15.173l.1.214.352.709Z" transform="translate(-46.373 -90.607)" fill="#231f20"/>
      <path id="Path_84112" data-name="Path 84112" d="M346.51,295.4l-.364.507c-.046.063-.075.133-.121.2l-.488.652a2.49,2.49,0,0,0-.2.305.964.964,0,0,1-.271.375c-.081.058-.415-.329-.329-.473a4.251,4.251,0,0,1,.536-.732,2.393,2.393,0,0,0,.3-.479l.335-.531.214-.329c.1-.167.214-.329.311-.5a2.659,2.659,0,0,0,.173-.427.641.641,0,0,1,.04-.093c.063-.109.127-.115.271-.046l.1.046a.271.271,0,0,1,.156.259,2.118,2.118,0,0,1-.311.756c-.1.173-.225.346-.335.519Z" transform="translate(-125.606 -89.845)" fill="#231f20"/>
      <path id="Path_84113" data-name="Path 84113" d="M348.212,297.048l-.271.305-.093.121c-.115.133-.231.271-.34.41a1.437,1.437,0,0,0-.121.2.772.772,0,0,1-.156.254c-.046.04-.293-.178-.237-.293a2.042,2.042,0,0,1,.37-.513,2.834,2.834,0,0,0,.231-.305l.265-.329.167-.2c.081-.1.168-.2.242-.305a1.508,1.508,0,0,0,.138-.271.24.24,0,0,1,0-.058c.046-.069.081-.075.173-.029l.069.034a.144.144,0,0,1,.081.168,1.386,1.386,0,0,1-.271.488l-.265.323Z" transform="translate(-126.563 -90.787)" fill="#231f20"/>
      <path id="Path_84114" data-name="Path 84114" d="M384.028,286.5c-.081.081-.168.162-.248.254s-.04.075-.069.109-.231.231-.335.352a.581.581,0,0,0-.1.184c-.04.087-.046.2-.162.231s-.576-.41-.542-.488a1.015,1.015,0,0,1,.369-.4c.1-.063.139-.178.208-.271a3.84,3.84,0,0,1,.259-.3l.162-.173c.081-.1.179-.173.254-.265s.1-.173.156-.248a.178.178,0,0,1,.04-.052c.058-.052.109-.035.219.069l.075.075a.363.363,0,0,1,.109.242.837.837,0,0,1-.162.444,2.775,2.775,0,0,1-.214.254Z" transform="translate(-141.62 -86.299)" fill="#231f20"/>
      <path id="Path_84115" data-name="Path 84115" d="M385.73,286.989l-.231.248a.4.4,0,0,1-.075.1l-.323.305a.577.577,0,0,0-.109.156c-.04.069-.069.156-.156.2s-.346-.259-.3-.346a1.1,1.1,0,0,1,.323-.39,1.1,1.1,0,0,0,.184-.248c.075-.087.156-.168.236-.254l.138-.156a2.7,2.7,0,0,0,.2-.248c.04-.069.063-.156.1-.231v-.052c.034-.052.075-.052.173,0l.069.04a.2.2,0,0,1,.115.167.929.929,0,0,1-.156.438c-.063.1-.133.184-.2.277Z" transform="translate(-142.452 -86.566)" fill="#231f20"/>
      <path id="Path_84116" data-name="Path 84116" d="M130.96,180.844c1.951-.576,3.922-1.154,5.889-1.684l2.146-.617c2.52-.7,5.042-1.4,7.5-2.261,1.1-.364,2.174-.819,3.241-1.251l2.007-.934c.663-.329,1.315-.675,1.99-.986.415-.2.415-.075.121.208a7.413,7.413,0,0,1-1.615,1.154,50.524,50.524,0,0,1-8.536,3.3c-1.73.519-3.571,1.079-5.37,1.592-1.972.576-3.957,1.1-5.917,1.7-1.211.352-2.411.744-3.609,1.154-.9.323-1.805.629-2.7.964s-1.782.683-2.641,1.079c-.669.305-1.332.612-1.984.934l-1.915,1.033c-.283.144-.542.317-.825.479-1.027.612-1.378.762-1.69.744a.789.789,0,0,1-.208,0c-.167-.046.2-.39.94-.878a34.319,34.319,0,0,1,3.5-2.019c1.246-.576,2.5-1.154,3.8-1.658,1.915-.772,3.888-1.407,5.852-2.037Z" transform="translate(-29.146 -38.735)" fill="#231f20"/>
      <path id="Path_84117" data-name="Path 84117" d="M232.853,271.692l-.576.438c-.069.058-.127.127-.2.179l-.756.576c-.109.087-.214.178-.317.277a1.326,1.326,0,0,1-.427.329c-.109.04-.293-.433-.144-.576a6.836,6.836,0,0,1,.848-.646,3.97,3.97,0,0,0,.5-.433l.576-.473.358-.293c.178-.144.375-.277.576-.421s.259-.242.4-.352l.093-.075c.121-.081.178-.075.271,0l.058.058a.2.2,0,0,1,0,.254,4.311,4.311,0,0,1-.652.683,6.958,6.958,0,0,1-.576.461Z" transform="translate(-77.212 -79.852)" fill="#231f20"/>
      <path id="Path_84118" data-name="Path 84118" d="M236.373,272.575c-.293.219-.576.444-.878.675-.1.087-.2.184-.3.271a12.81,12.81,0,0,0-1.055.964,5.27,5.27,0,0,0-.4.488,5.187,5.187,0,0,1-.479.646c-.121.121-.369-.293-.2-.576a6.185,6.185,0,0,1,1.154-1.286c.259-.225.5-.488.756-.721s.576-.5.878-.738l.576-.427c.277-.219.576-.427.842-.646a6.916,6.916,0,0,0,.576-.548c.046-.04.087-.087.133-.121.168-.144.248-.156.38-.063l.087.063c.087.081.075.214-.034.34a7.975,7.975,0,0,1-1.107,1l-.889.683Z" transform="translate(-78.321 -79.961)" fill="#231f20"/>
      <path id="Path_84119" data-name="Path 84119" d="M302.636,96.771a15.469,15.469,0,0,0,13.681-2.307c3.864-2.987,4.13-9.558-.768-11.928-4.482-2.174-8.283,3.259-6.628,7.279,1.523,3.68,6.022,4.747,9.609,4.262a11.778,11.778,0,0,0,10.324-10.036c.138-.813-2.445-.364-2.572.39-.652,3.853-2.884,7.746-7.077,8.415-3.213.513-7.049-1.09-7.936-4.436a5.445,5.445,0,0,1,.133-3.294c.762-2.048,2.641-1.268,3.726.144a6.625,6.625,0,0,1,1.366,5.95c-1.54,4.614-7.659,5.721-11.761,4.424-.683-.214-3.011.842-2.094,1.154Z" transform="translate(-107.704 -0.234)" fill="#231f20"/>
      <path id="Path_84120" data-name="Path 84120" d="M186.671,91.779c-2.625.878-4.09-.576-4.211-3.2a9.35,9.35,0,0,1,.531-3.461,9.193,9.193,0,0,1,.576-1.281c.046-.093.3-.329.305-.433,0-.536.046.39-.293-.069s.069.283.052.231a4.234,4.234,0,0,0,.438.623,1.73,1.73,0,0,1,.4,1.275c-.231.859-1.3,1.061-2.053,1.154-2.965.254-4.557-1.817-3.547-4.614.311-.848-2.122-.576-2.429.293-1.188,3.264.842,5.491,4.118,5.727,1.984.144,6.183-.479,6.345-3.121a2.829,2.829,0,0,0-4.545-2.341c-1.978,1.407-2.544,4.672-2.307,6.925.352,3.858,3.668,4.682,6.962,3.576,1.413-.473,1.107-1.77-.346-1.286Z" transform="translate(-54.24)" fill="#231f20"/>
    </g>
  </g>
</svg>
