<svg xmlns="http://www.w3.org/2000/svg" xmlns:xlink="http://www.w3.org/1999/xlink" width="300" height="212" viewBox="0 0 300 212">
  <defs>
    <clipPath id="clip-path">
      <rect id="Rectangle_83" data-name="Rectangle 83" width="300" height="212" fill="#fff"/>
    </clipPath>
  </defs>
  <g id="Mask_Group_25" data-name="Mask Group 25" clip-path="url(#clip-path)">
    <g id="Business_Unlimited" data-name="Business Unlimited" transform="translate(-1.614 -81.564)">
      <path id="Path_84178" data-name="Path 84178" d="M283.78,187.631,301.27,176l17.49,12.412S299,206.206,283.78,187.631Z" transform="translate(-118.55 -36.41)" fill="#231f20" opacity="0.3"/>
      <path id="Path_84179" data-name="Path 84179" d="M47.465,313.316l.218-11.138v-4.057c.08-4.774.2-9.543.218-14.311,0-2.117-.029-4.246-.1-6.346-.034-1.343-.132-2.7-.126-4.045,0-.677,0-1.354.029-2.031s.12-1.354.189-2.026c.115-.849.4-.746.832-.046a12.532,12.532,0,0,1,.752,1.452,7.947,7.947,0,0,1,.493,2.1c.052.689.149,1.377.166,2.066L50.19,277c.034,1.377.063,2.76.075,4.143q0,4.149-.2,8.32c-.155,3.334-.034,6.794-.069,10.2q-.092,5.612-.178,11.224-.052,3.443-.109,6.886c-.04,3.483-.1,6.989-.046,10.443.052,2.685.235,5.319.425,7.953l.143,1.721a9.984,9.984,0,0,1-.034,2.3,2.094,2.094,0,0,1-.522,1.073,2.79,2.79,0,0,1-.316.35c-.178.126-.367,0-.574-.4a5.388,5.388,0,0,1-.62-1.813c-.218-1.2-.327-2.416-.43-3.632s-.166-2.462-.23-3.7c-.109-2.49-.143-5-.155-7.523,0-3.741.04-7.5.069-11.247Z" transform="translate(-17.787 -75.941)" fill="#231f20"/>
      <path id="Path_84180" data-name="Path 84180" d="M46.5,138.946c0-.907.046-1.813.046-2.726,0-.327-.046-.66-.04-.993,0-1.148.046-2.341.034-3.512a15.49,15.49,0,0,0-.1-1.555,8.373,8.373,0,0,1-.086-1,4.966,4.966,0,0,1,0-.5,2.129,2.129,0,0,1,.143-.511c.086-.218.281-.189.574,0a5.981,5.981,0,0,1,.5.339.952.952,0,0,1,.321.493,4.206,4.206,0,0,1,.155,1c0,.339.046.671.057,1.016a14.541,14.541,0,0,1-.08,2.054,23.039,23.039,0,0,0,.046,2.513v2.766l-.029,1.721c0,.861-.04,1.721,0,2.576a19.122,19.122,0,0,0,.2,1.968c0,.143.046.287.052.43a.878.878,0,0,1-.126.574.844.844,0,0,1-.425.247,1.074,1.074,0,0,0-.241.075.442.442,0,0,1-.367-.121.941.941,0,0,1-.321-.453,15.987,15.987,0,0,1-.35-3.609V139Z" transform="translate(-17.36 -15.95)" fill="#231f20"/>
      <path id="Path_84181" data-name="Path 84181" d="M194.858,121.553q-17.438-.063-34.871,0l-12.716.121q-22.425.063-44.838.212c-6.628.057-13.3.184-19.877.327l-12.693.3c-4.235.063-8.47.086-12.7,0-2.651-.138-2.3-.574-.069-1.113A57.467,57.467,0,0,1,68.28,120c17.26-.43,34.515-.689,51.93-.62,10.409.04,21.231-.235,31.893-.321q17.57-.143,35.141-.166H208.87c10.9,0,21.885.1,32.708.155,8.424.052,16.687,0,25.03.143,1.836,0,3.638.063,5.5.138,1.721.057,3.145.172,4.344.275.574.052,1.148.1,1.624.166s.935.138,1.331.224a15.066,15.066,0,0,1,1.917.522,6.443,6.443,0,0,1,1.239.694,6.313,6.313,0,0,1,.866.631c.264.31-.321.453-1.544.5-.6,0-1.394.04-2.347.046q-.717,0-1.532-.034l-1.756-.046c-7.379-.252-15.017-.287-22.758-.362l-23.463-.166c-11.694-.069-23.446-.126-35.175-.12Z" transform="translate(-21.175 -12.071)" fill="#231f20"/>
      <path id="Path_84182" data-name="Path 84182" d="M460.326,322.137l-.1-10.294c0-1.251-.1-2.5-.115-3.753-.034-4.418,0-8.837,0-13.255,0-1.962-.069-3.931-.132-5.876q-.086-1.871-.075-3.753a35.837,35.837,0,0,1,.258-3.753c.086-.78.425-.677.821,0a10.1,10.1,0,0,1,.625,1.354,8.936,8.936,0,0,1,.3.912l.132.5c0,.172.04.344.052.528l.121,1.9.057.953v.953l.034,3.822q0,3.822-.086,7.678c-.092,3.07.126,6.266.189,9.411q.075,5.164.161,10.375l.069,6.392c.034,3.231,0,6.473-.029,9.686,0,2.5.029,4.958-.166,7.46-.052.574-.075,1.1-.172,1.664a9.6,9.6,0,0,1-.281,1.308,3.61,3.61,0,0,1-.356.872,1.349,1.349,0,0,1-.93.74,2.038,2.038,0,0,1-.488.1c-.241,0-.373-.247-.419-.625a3.724,3.724,0,0,1,0-.683,9,9,0,0,1,.1-.918,64.675,64.675,0,0,0,.407-6.5c.052-2.249.069-4.545.069-6.851q0-5.164-.092-10.329Z" transform="translate(-193.559 -81.119)" fill="#231f20"/>
      <path id="Path_84183" data-name="Path 84183" d="M460.09,155.471c.057-1.148.12-2.353.138-3.523,0-.43-.046-.855-.034-1.28a42.129,42.129,0,0,0-.092-4.5c-.057-.671-.166-1.354-.258-2.037a9.215,9.215,0,0,1-.1-1.32,5.165,5.165,0,0,1,.2-1.32c.069-.275.333-.235.648,0a3.511,3.511,0,0,1,.488.459,2.549,2.549,0,0,1,.241.3c.04.052.063.109.1.166a1.507,1.507,0,0,1,.046.172l.1.625.057.316.029.31.115,1.268a21.819,21.819,0,0,1,.1,2.691c-.04,1.09.121,2.2.115,3.3,0,1.211-.029,2.41-.075,3.609l-.092,2.209c-.029,1.119-.109,2.238-.1,3.34,0,.861.109,1.721.166,2.559,0,.189.046.373.046.574,0,.7-.109.918-.614,1.05a2.568,2.568,0,0,1-.327.092c-.356.052-.7-.241-.786-.752a23.781,23.781,0,0,1-.264-4.717l.1-3.563Z" transform="translate(-193.541 -21.62)" fill="#231f20"/>
      <path id="Path_84184" data-name="Path 84184" d="M196.5,407.76l-31.887.287-11.631.155q-20.5.121-41,.08H93.8c-3.868,0-7.741,0-11.62-.08-1.939-.04-3.885-.1-5.824-.218a43.725,43.725,0,0,1-5.853-.631,2.9,2.9,0,0,1-1.475-.637.287.287,0,0,1-.092-.224.269.269,0,0,1,.069-.126,1.8,1.8,0,0,0,.161-.138c.04-.038.046-.063.052-.052a.262.262,0,0,0,.218.143,6.34,6.34,0,0,0,1.205-.029,88.755,88.755,0,0,1,10.191-.367c7.861.184,15.746.2,23.647.224l23.767.075c9.514.046,19.418-.218,29.15-.362l32.134-.465,19.762-.3c9.973-.166,20-.3,29.9-.539,7.7-.184,15.235-.516,22.849-.757,1.676-.052,3.317-.126,5.009-.155,6.266-.12,8.286.08,9.623.832a4.3,4.3,0,0,1,.866.534c.27.3-.207.5-1.331.677a48.2,48.2,0,0,1-5.164.407c-13.576.574-27.922.907-42.325,1.148l-32.168.522Z" transform="translate(-26.988 -133.415)" fill="#231f20"/>
      <path id="Path_84185" data-name="Path 84185" d="M232.72,203.842l-.092-11.207c0-1.36-.08-2.72-.086-4.086l-.04-14.4c0-2.135-.052-4.275-.1-6.387a61.93,61.93,0,0,1,.2-8.183c.092-.866.247-.717.465,0a20.532,20.532,0,0,1,.74,3.581l.149,2.071.069,1.039.034,1.039c.029,1.389.063,2.772.1,4.16.057,2.777.075,5.56,0,8.355-.057,3.345.115,6.823.166,10.243q.086,5.641.161,11.287.052,3.443.1,6.943c.063,3.506.1,7.029.212,10.507.086,2.7.281,5.354.425,8.033,0,.574.08,1.148.1,1.762.08,2.2,0,2.915-.516,3.391a2.238,2.238,0,0,1-.3.31c-.321.207-.706-.677-.832-2.3-.43-4.768-.62-9.807-.757-14.862-.08-3.758-.161-7.534-.235-11.3Z" transform="translate(-96.628 -29.157)" fill="#231f20"/>
      <path id="Path_84186" data-name="Path 84186" d="M255.944,187.445l-.132-11.373c0-1.383-.08-2.766-.092-4.149q-.034-7.316,0-14.627v-6.49a45.976,45.976,0,0,1,.471-8.309c.224-.9.35-.689.471.034.08.373.166.884.287,1.509l.166,1.01.075.574.029.574.092,2.1.057,1.05v1.05q0,2.106.046,4.218c.029,2.812.04,5.635-.029,8.475-.069,3.391.1,6.92.166,10.392q.086,5.738.184,11.476l.12,7.046c.075,3.558.126,7.133.253,10.661.1,2.749.293,5.434.436,8.148.029.574.075,1.182.092,1.785.063,2.244-.04,2.967-.574,3.443a3.152,3.152,0,0,1-.316.31c-.327.2-.683-.694-.8-2.324-.4-4.826-.608-9.939-.763-15.074-.092-3.81-.189-7.643-.281-11.476Z" transform="translate(-106.58 -21.878)" fill="#231f20"/>
      <path id="Path_84187" data-name="Path 84187" d="M146.21,294.512l-11.58-.029c-1.412,0-2.817.057-4.223.04l-14.919-.161h-6.6c-2.812,0-5.629.057-8.447-.189-.878-.069-.746-.339,0-.608a13.084,13.084,0,0,1,3.718-.574c5.738-.166,11.442-.189,17.215-.109,3.443.057,7.052-.1,10.587-.149l11.666-.092,7.178-.069c3.621-.04,7.265-.063,10.857-.155,2.8-.075,5.537-.27,8.3-.4.608-.029,1.2-.08,1.819-.092,2.3-.063,3.024.08,3.5.625a2.534,2.534,0,0,1,.316.373c.189.425-.712.746-2.364.884-4.923.407-10.134.574-15.367.654l-11.683.092Z" transform="translate(-40.152 -85.811)" fill="#231f20"/>
      <path id="Path_84188" data-name="Path 84188" d="M321.31,276.049l-13.565-.1H302.8l-17.444-.166c-2.576,0-5.164,0-7.729.034-3.294.029-6.582.143-9.9-.08-1.044-.075-.866-.413,0-.729a14.419,14.419,0,0,1,4.35-.66c6.7-.075,13.416-.132,20.181,0,4.051.08,8.263-.057,12.4-.086l13.663-.057h8.412c4.241-.029,8.5,0,12.716-.109,3.276-.063,6.484-.247,9.72-.373.712,0,1.412-.08,2.129-.1,2.663-.069,3.523.069,4.091.608a2.13,2.13,0,0,1,.379.373c.258.419-.826.769-2.772.907-5.778.4-11.884.5-18.006.574l-13.686.04Z" transform="translate(-111.402 -78.01)" fill="#231f20"/>
      <path id="Path_84189" data-name="Path 84189" d="M428.44,155.537c.132-1.939.264-3.879.367-5.819.034-.706,0-1.417.052-2.123.138-2.49.247-4.981.293-7.46,0-1.1-.034-2.209-.143-3.294-.132-1.383-.344-2.772-.574-4.057-.075-.407.172-.493.574-.241a2.759,2.759,0,0,1,.683.643,3.362,3.362,0,0,1,.5,1.09,31.637,31.637,0,0,1,.522,4.418c.04.734.063,1.463.057,2.2s0,1.463-.069,2.2c-.115,1.75-.04,3.569-.092,5.354-.057,1.962-.149,3.925-.235,5.882l-.172,3.621c-.08,1.819-.189,3.655-.207,5.468,0,1.406.086,2.789.138,4.183,0,.3.046.6.052.912,0,1.148-.115,1.509-.654,1.721a2.562,2.562,0,0,1-.339.161c-.356.1-.74-.373-.826-1.211a53.55,53.55,0,0,1-.212-7.769c.057-1.962.143-3.925.247-5.887Z" transform="translate(-180.058 -17.829)" fill="#231f20"/>
      <path id="Path_84190" data-name="Path 84190" d="M288.524,141.681a20.847,20.847,0,0,0-10.5,15.309,20.278,20.278,0,0,0,2.708,12.722,18.81,18.81,0,0,0,4.017,4.711,21.568,21.568,0,0,0,5.342,3.208c.476.212.987.344,1.475.522l.746.252.769.178c.511.109,1.016.247,1.532.333l1.572.212a11.3,11.3,0,0,0,1.394.08c.465,0,.935.046,1.4,0a21.675,21.675,0,0,0,2.789-.293c.459-.086.918-.155,1.371-.252l1.348-.379.666-.189.648-.258,1.291-.511a20.554,20.554,0,0,0,5.778-4.051c.4-.436.826-.838,1.2-1.3l1.067-1.406a18.424,18.424,0,0,0,1.779-3.053c.316-.666.528-.935.683-.855s.235.5.172,1.182a9.056,9.056,0,0,1-.734,2.708,10.189,10.189,0,0,1-.918,1.653,9.532,9.532,0,0,1-1.3,1.721l-.683.717a5.74,5.74,0,0,1-.712.689l-1.521,1.262-1.653,1.09a6.312,6.312,0,0,1-.861.482l-.878.453a23.2,23.2,0,0,1-15.327,1.721,21.231,21.231,0,0,1-7.207-3.035,23.6,23.6,0,0,1-3.672-2.984,21.151,21.151,0,0,1-5.985-12.808,21.415,21.415,0,0,1,1.6-10.277,22.7,22.7,0,0,1,6.082-8.4,22.382,22.382,0,0,1,5.411-3.443,20.985,20.985,0,0,1,6.191-1.7,22.379,22.379,0,0,1,9.571,1.021,20.083,20.083,0,0,1,8.1,5.118A22.379,22.379,0,0,1,317.5,149.9a24.156,24.156,0,0,1,2.135,7.058c.063.545.121,1.085.184,1.624s0,1.085.029,1.635a9.807,9.807,0,0,1-.08,1.412q-.069.637-.12,1.148c-.138.7-.281,1.257-.413,1.721a3.914,3.914,0,0,1-.453,1.067,4.407,4.407,0,0,1-.941,1.09c-.218.126-.281-.23-.2-.935.029-.356.132-.792.207-1.32s.143-1.148.241-1.836a22.78,22.78,0,0,0-2.261-12.257,19.687,19.687,0,0,0-8.762-9.038,20.824,20.824,0,0,0-9.3-2.054,19.418,19.418,0,0,0-9.181,2.473Z" transform="translate(-115.335 -20.028)" fill="#231f20"/>
      <path id="Path_84191" data-name="Path 84191" d="M309.652,151.494c0-.953.052-1.911.057-2.869,0-.35-.04-.7-.034-1.05,0-1.228.046-2.467.034-3.7,0-.574-.029-1.1-.069-1.635a9.471,9.471,0,0,1-.063-2.094c.034-.224.321-.212.625-.046a1.3,1.3,0,0,1,.683.884,19.713,19.713,0,0,1,.2,4.281c-.057.866.063,1.756.086,2.634.029.97.034,1.94.04,2.909v4.51c.029.7.149,1.377.229,2.066a2.456,2.456,0,0,1,.04.453,2.757,2.757,0,0,1-.034.362.792.792,0,0,1-.126.241.809.809,0,0,1-.384.27,2.049,2.049,0,0,1-.218.08c-.218.052-.459-.178-.671-.574a7.253,7.253,0,0,1-.339-1.876c-.057-.631-.08-1.274-.1-1.922v-2.869Z" transform="translate(-129.531 -21.056)" fill="#231f20"/>
      <path id="Path_84192" data-name="Path 84192" d="M317.261,150.124c0-.924.034-1.848,0-2.777,0-.339-.04-.677-.04-1.016v-3.592c0-.534,0-1.067-.046-1.6a10.968,10.968,0,0,1,0-2.037c.052-.425.866.1.941.866a30.982,30.982,0,0,1,.138,4.137c-.034.832.069,1.721.1,2.548.029.941.052,1.882.052,2.823V151.2c0,.878-.034,1.756-.057,2.628,0,.677.046,1.343.057,2.02a2.872,2.872,0,0,1,0,.442,1.108,1.108,0,0,1-.166.574.574.574,0,0,1-.3.23.75.75,0,0,1-.166.063c-.161.04-.321-.2-.442-.608a10.035,10.035,0,0,1-.12-1.813c0-.614,0-1.234,0-1.853V150.1Z" transform="translate(-132.762 -20.622)" fill="#231f20"/>
      <path id="Path_84193" data-name="Path 84193" d="M288.414,175.1l-2.7-.029c-.327,0-.654.034-.987.029l-3.489-.075c-.516,0-1.033,0-1.544.04a8.47,8.47,0,0,1-1.98-.052c-.207-.04-.178-.275,0-.522a1.3,1.3,0,0,1,.861-.574,17.739,17.739,0,0,1,1.991-.109c.671,0,1.337,0,2.014.052.809.052,1.647-.034,2.473-.057l2.726-.029h1.681c.849,0,1.721,0,2.548-.034.654,0,1.3-.126,1.951-.184.143,0,.281-.04.43-.04.534,0,.706.08.809.459a2.039,2.039,0,0,1,.063.252c.046.287-.178.528-.574.574a21.23,21.23,0,0,1-3.552.27H288.42Z" transform="translate(-115.902 -35.353)" fill="#231f20"/>
      <path id="Path_84194" data-name="Path 84194" d="M329.714,178.307l-2.467-1.526c-.3-.184-.614-.35-.912-.539-1.05-.677-2.089-1.371-3.122-2.071-.459-.31-.93-.62-1.394-.912a11.714,11.714,0,0,1-1.721-1.245c-.327-.293.534-.522,1.211-.109,1.211.74,2.427,1.463,3.609,2.3a26.26,26.26,0,0,0,2.3,1.32c.849.476,1.687.975,2.525,1.469l1.549.912c.786.453,1.567.935,2.353,1.377.614.35,1.245.637,1.865.964.138.069.275.132.407.212.493.3.6.465.522.8a.784.784,0,0,1-.052.23c-.092.235-.407.287-.792.121a31.345,31.345,0,0,1-3.38-1.779l-2.5-1.486Z" transform="translate(-133.997 -34.568)" fill="#231f20"/>
      <path id="Path_84195" data-name="Path 84195" d="M305.008,179.532l-2.628-1.8c-.218-.149-.436-.293-.654-.425l-.166-.109s-.046-.04-.069-.04a.323.323,0,0,0-.075.04l-.235.138-.689.413c-.666.4-1.314.838-1.985,1.234l-7.081,4.2c-1.039.631-2.077,1.291-3.1,1.934a36.779,36.779,0,0,1-4.017,2.381c-.442.212-.482,0-.253-.4a5.422,5.422,0,0,1,.534-.757,4.017,4.017,0,0,1,.907-.844c1.314-.9,2.617-1.808,3.965-2.657s2.72-1.653,4.114-2.439c1.664-.941,3.311-2.071,4.975-3.11l1.371-.849.683-.425.522-.321.281-.155.069-.04.069.034.149.075c.189.1.384.189.574.3l.384.23c.241.143.465.3.694.442.459.293.907.574,1.36.9L308,179.739l4.941,3.443c1.28.884,2.582,1.676,3.862,2.536.281.2.574.373.843.574a5.008,5.008,0,0,1,.993.941,1.067,1.067,0,0,1,.184.723,2.056,2.056,0,0,1,0,.281c-.034.12-.184.126-.442.086a2.869,2.869,0,0,1-.981-.407c-2.3-1.406-4.677-3.053-7.052-4.694-1.762-1.216-3.529-2.462-5.308-3.661Z" transform="translate(-118.609 -36.201)" fill="#231f20"/>
      <path id="Path_84196" data-name="Path 84196" d="M331.327,236.39h-7.2c-.872,0-1.721.069-2.622.075l-9.261.063c-1.371,0-2.749.057-4.1.1a38.442,38.442,0,0,1-5.268,0c-.574-.052-.459-.35,0-.643a5.02,5.02,0,0,1,2.3-.614c3.54-.126,7.1-.275,10.7-.218,2.146,0,4.384-.132,6.576-.2l7.253-.172,4.47-.086,6.754-.138c1.721-.057,3.443-.2,5.164-.275.384,0,.757-.052,1.148-.057a4.59,4.59,0,0,1,1.515.149,1.044,1.044,0,0,1,.648.511,1.874,1.874,0,0,1,.184.327c.115.356-.476.643-1.5.746-3.041.23-6.266.3-9.508.344l-7.253.092Z" transform="translate(-126.52 -61.223)" fill="#231f20"/>
      <path id="Path_84197" data-name="Path 84197" d="M140.286,352.144h-7.374c-.9,0-1.79.069-2.685.069l-9.491.029c-1.4,0-2.812.052-4.206.1a37.71,37.71,0,0,1-5.4,0c-.574-.057-.465-.4,0-.723a4.694,4.694,0,0,1,2.347-.706c3.627-.132,7.276-.287,10.96-.2,2.2.04,4.487-.132,6.737-.189l7.46-.161,4.591-.08c2.3-.046,4.631-.057,6.926-.132,1.779-.057,3.529-.224,5.3-.31.39,0,.775-.057,1.148-.063a4.332,4.332,0,0,1,1.555.161,1.1,1.1,0,0,1,.666.574,2.427,2.427,0,0,1,.184.367c.115.413-.493.74-1.538.861-3.11.27-6.41.344-9.755.384l-7.431.075Z" transform="translate(-44.803 -110.466)" fill="#231f20"/>
      <path id="Path_84198" data-name="Path 84198" d="M343.984,247.068c-1.239-.04-2.485-.069-3.724-.086-.453,0-.907.04-1.36.029-1.6-.029-3.2-.075-4.8-.075-.712,0-1.423,0-2.129.057a13.163,13.163,0,0,1-2.731,0c-.287-.046-.241-.35,0-.66a1.722,1.722,0,0,1,1.176-.689c.912-.075,1.83-.143,2.754-.184s1.853,0,2.789.052c1.119.075,2.3-.052,3.414-.069h6.06c1.148,0,2.347.029,3.512,0,.907,0,1.8-.126,2.7-.161a5.29,5.29,0,0,1,.6,0c.757.063.993.229,1.1.66a1.783,1.783,0,0,1,.063.293c.029.327-.3.574-.821.648a32.135,32.135,0,0,1-4.872.258c-1.245,0-2.5-.034-3.747-.04Z" transform="translate(-137.84 -65.934)" fill="#231f20"/>
      <path id="Path_84199" data-name="Path 84199" d="M161.764,369.783c-1.239-.04-2.485-.075-3.724-.086-.453,0-.907.034-1.36.029-1.6-.029-3.2-.075-4.8-.08-.712,0-1.423,0-2.129.063a13.571,13.571,0,0,1-2.731,0c-.287-.046-.241-.35,0-.666a1.721,1.721,0,0,1,1.148-.683c.912-.08,1.83-.149,2.754-.184s1.853,0,2.789.052c1.119.069,2.3-.052,3.414-.069h6.059c1.148,0,2.347.029,3.512,0,.907,0,1.8-.12,2.7-.155a5.3,5.3,0,0,1,.574,0c.757.063,1,.23,1.1.66a1.838,1.838,0,0,1,.063.3c.029.321-.3.574-.821.643a32.9,32.9,0,0,1-4.872.264c-1.245,0-2.5-.04-3.747-.04Z" transform="translate(-60.181 -118.236)" fill="#231f20"/>
      <path id="Path_84200" data-name="Path 84200" d="M386.354,141.387c-1.5-.04-3.007-.075-4.516-.092-.545,0-1.1.04-1.647.029-1.934-.029-3.873-.08-5.807-.086-.861,0-1.721,0-2.576.063a19.856,19.856,0,0,1-3.3,0c-.344-.04-.293-.35,0-.66a2.232,2.232,0,0,1,1.429-.689c1.113-.08,2.232-.149,3.351-.184s2.244,0,3.374.052c1.348.075,2.754-.046,4.132-.063h7.362c1.417,0,2.869.034,4.252,0,1.09,0,2.169-.126,3.265-.166a6.072,6.072,0,0,1,.723,0c.907.052,1.211.235,1.343.666a2.081,2.081,0,0,1,.086.293c.04.327-.356.574-.975.637a48.64,48.64,0,0,1-5.933.275l-4.539-.034Z" transform="translate(-154.555 -20.887)" fill="#231f20"/>
      <g id="Group_36500" data-name="Group 36500" transform="translate(227.321 123.698)" opacity="0.4">
        <path id="Path_84201" data-name="Path 84201" d="M396.063,148.5c.522.034,1.05.04,1.584.034.2,0,.39-.052.574-.052h2.1a8.345,8.345,0,0,0,.93-.063,2.782,2.782,0,0,1,1.211,0c.126.034.1.316,0,.6s-.275.574-.488.574a9.122,9.122,0,0,1-2.353.126,9.179,9.179,0,0,0-1.475.115c-.545.034-1.1.052-1.653.063h-1.027c-.522,0-1.044-.057-1.572-.069-.407,0-.821.034-1.251,0a1.623,1.623,0,0,1-.287,0c-.35-.063-.413-.252-.344-.648a.484.484,0,0,1,.046-.252.786.786,0,0,1,.516-.574,9.481,9.481,0,0,1,1.934,0c.5,0,1.01.063,1.538.057Z" transform="translate(-391.987 -148.304)" fill="#231f20"/>
      </g>
      <g id="Group_36501" data-name="Group 36501" transform="translate(92.297 158.098)" opacity="0.4">
        <path id="Path_84202" data-name="Path 84202" d="M160.747,208.447c.522.034,1.056.04,1.589.034.2,0,.384-.052.574-.052h2.1a8.529,8.529,0,0,0,.935-.063,2.755,2.755,0,0,1,1.205,0c.126.034.109.316,0,.6s-.275.574-.488.574a9.317,9.317,0,0,1-2.347.132,8.664,8.664,0,0,0-1.48.109c-.574.034-1.1.052-1.653.063h-1.027c-.522,0-1.044-.057-1.567-.069-.407,0-.826.04-1.251,0a1.576,1.576,0,0,1-.287,0c-.356-.063-.419-.253-.35-.648a.484.484,0,0,1,.046-.252.809.809,0,0,1,.516-.574,9.474,9.474,0,0,1,1.934,0c.5,0,1.016.063,1.538.057Z" transform="translate(-156.677 -208.254)" fill="#231f20"/>
      </g>
      <path id="Path_84203" data-name="Path 84203" d="M151.6,161.846c-2.806-2.548-6.455,3.1-3.035,4.5,3.6,1.475,5.939-4.837,1.589-4.682" transform="translate(-60.332 -30.1)" fill="#231f20"/>
      <path id="Path_84204" data-name="Path 84204" d="M150.408,166.857a3.512,3.512,0,0,1-1.865.121,3.821,3.821,0,0,1-1.63-.757,2.737,2.737,0,0,1-.872-1.107,3.145,3.145,0,0,1,.063-2.3,4.235,4.235,0,0,1,1.194-1.687,3.868,3.868,0,0,1,1.635-.9,2.5,2.5,0,0,1,1.268,0,1.94,1.94,0,0,1,1.016.683c.161.2-.109.4-.448.574a2.634,2.634,0,0,1-.93.287,1.555,1.555,0,0,0-1.1.218,3.839,3.839,0,0,0-1.107,1.039,1.613,1.613,0,0,0-.281.889,1.383,1.383,0,0,0,.218.78,2.014,2.014,0,0,0,1.8.792,2.106,2.106,0,0,0,1.216-.574A2.479,2.479,0,0,0,151.44,163a1.044,1.044,0,0,0-.281-.643,1.182,1.182,0,0,0-.574-.281l-.293-.046c-.384-.075-.528-.132-.643-.614a1.4,1.4,0,0,0-.08-.287.637.637,0,0,1,.66-.717,2.565,2.565,0,0,1,1.234.149,2.479,2.479,0,0,1,1.148.93,2.823,2.823,0,0,1,.453,1.4,3.644,3.644,0,0,1-.172,1.314,4.189,4.189,0,0,1-.93,1.6,3.959,3.959,0,0,1-1.561,1.062Z" transform="translate(-59.768 -29.654)" fill="#231f20"/>
      <path id="Path_84205" data-name="Path 84205" d="M175.357,161.846c-2.806-2.548-6.455,3.1-3.035,4.5,3.6,1.475,5.939-4.837,1.589-4.682" transform="translate(-70.458 -30.1)" fill="#231f20"/>
      <path id="Path_84206" data-name="Path 84206" d="M174.2,166.857a3.535,3.535,0,0,1-1.871.12,3.821,3.821,0,0,1-1.63-.757,2.674,2.674,0,0,1-.838-1.107,3.144,3.144,0,0,1,.057-2.3,4.235,4.235,0,0,1,1.194-1.687,3.867,3.867,0,0,1,1.635-.9,2.5,2.5,0,0,1,1.268,0,1.939,1.939,0,0,1,1.016.683c.161.2-.109.4-.448.574a2.634,2.634,0,0,1-.93.287,1.555,1.555,0,0,0-1.1.218,3.753,3.753,0,0,0-1.1,1.039,1.572,1.572,0,0,0-.287.889,1.383,1.383,0,0,0,.218.78,2.02,2.02,0,0,0,1.8.792,2.112,2.112,0,0,0,1.211-.574A2.479,2.479,0,0,0,175.25,163a.981.981,0,0,0-.281-.643,1.182,1.182,0,0,0-.545-.281l-.293-.046c-.379-.075-.528-.132-.643-.614a1.4,1.4,0,0,0-.08-.287.637.637,0,0,1,.66-.717,2.565,2.565,0,0,1,1.234.149,2.479,2.479,0,0,1,1.148.93,2.823,2.823,0,0,1,.453,1.4,3.644,3.644,0,0,1-.172,1.314,4.189,4.189,0,0,1-.93,1.6,3.959,3.959,0,0,1-1.561,1.062Z" transform="translate(-69.918 -29.654)" fill="#231f20"/>
      <path id="Path_84207" data-name="Path 84207" d="M78.789,192.871c.459-.407.878-.752,1.377-1.148a16.407,16.407,0,0,1,1.567-1.039c1.027-.608,2.054-1.148,3.081-1.664,2.054-1.05,4.109-2.031,6.094-3.081.723-.39,1.423-.8,2.089-1.228a9.9,9.9,0,0,0,1.721-1.326c.12-.155.138-.161.155-.247a1.93,1.93,0,0,0,0-.316,3.146,3.146,0,0,0,0-.339,1.389,1.389,0,0,0-.212-.574,2.353,2.353,0,0,0-1.188-.815,10.443,10.443,0,0,0-3.77-.384,23.07,23.07,0,0,0-3.982.574,19.652,19.652,0,0,0-1.934.574c-.31.109-.62.23-.907.356l-.407.207-.448.258c-2.3,1.32-4.625,2.559-7,3.644-1.532.7-3.081,1.36-4.659,1.934a35.862,35.862,0,0,1-4.86,1.337c-1.027.207-.993-.235-.275-.9a13.634,13.634,0,0,1,3.839-2.3,79.568,79.568,0,0,0,9.124-4.017c.74-.384,1.469-.775,2.2-1.182l1.148-.631a9.758,9.758,0,0,1,1.35-.564,23.171,23.171,0,0,1,5.256-1.1,17.788,17.788,0,0,1,5.164.132,7.108,7.108,0,0,1,1.36.448,4.2,4.2,0,0,1,1.3.884,3.385,3.385,0,0,1,.849,1.469l.092.407.034.407a1.777,1.777,0,0,1,0,.39v.436a3.316,3.316,0,0,1-.166.574,2.376,2.376,0,0,1-.287.488,3.225,3.225,0,0,1-.293.356,2.924,2.924,0,0,1-.3.3,9.808,9.808,0,0,1-1.211.947,59.057,59.057,0,0,1-6.128,3.414c-2.049,1.044-4.132,2.043-6.025,3.2a8.876,8.876,0,0,0-.832.574c-.258.207-.516.413-.78.637-.534.448-1.044.907-1.526,1.383a9.755,9.755,0,0,0-1.28,1.515,18.746,18.746,0,0,1-1.28,1.773,26.619,26.619,0,0,1-2.3,2.376,16.908,16.908,0,0,1-2.72,1.974,27.849,27.849,0,0,1-6.06,2.582,35.386,35.386,0,0,1-9.921,1.561c-.734,0-1.463,0-2.209-.046a11.438,11.438,0,0,1-2.869-.511,2.146,2.146,0,0,1-1.148-.826,2.765,2.765,0,0,1-.3-.436c-.172-.419.987-.671,2.869-.539a41.688,41.688,0,0,0,8.607-.367,28.84,28.84,0,0,0,8.286-2.542,19.716,19.716,0,0,0,2.743-1.624c.207-.155.419-.3.62-.465a7.6,7.6,0,0,0,.574-.5c.407-.379.809-.757,1.188-1.148a15.145,15.145,0,0,0,1.05-1.176c.321-.4.574-.8.941-1.32a11.826,11.826,0,0,1,1.216-1.526c.436-.465.884-.9,1.331-1.291Z" transform="translate(-18.618 -37.593)" fill="#231f20"/>
      <path id="Path_84208" data-name="Path 84208" d="M38.612,148.5a22.225,22.225,0,0,1,4.659-3.357,13.49,13.49,0,0,1,2.783-1.09,12.365,12.365,0,0,1,2.972-.39,25.123,25.123,0,0,1,5.635.648c1.813.4,3.535.815,5.308,1.245,2.565.631,5.164,1.239,7.683,1.985,2.244.66,4.476,1.371,6.685,2.209,1.1.413,2.2.866,3.276,1.383a15.68,15.68,0,0,1,3.173,1.917,5.434,5.434,0,0,1,.734.723,3.225,3.225,0,0,1,.608,1.039,2.232,2.232,0,0,1,.034,1.383,3,3,0,0,1-.648,1.09,4.631,4.631,0,0,1-1.8,1.119,9.184,9.184,0,0,1-1.853.459,13.427,13.427,0,0,1-3.684.057c-1.148-.138-2.3-.293-3.489-.5a20.25,20.25,0,0,1-3.575-.93c-.574-.218-1.148-.488-1.687-.752l-1.515-.769a.528.528,0,0,0-.333,0l-.637.063c-.436.046-.884.086-1.326.121-.884.063-1.767.1-2.657.1a31.409,31.409,0,0,1-4.522-.344c-.379-.046-.752-.115-1.148-.184s-.746-.138-1.113-.23-.74-.172-1.107-.281l-.574-.166-.27-.086-.138-.04a.041.041,0,0,1-.04-.034.574.574,0,0,0-.327.092c-.23.115-.482.264-.734.407a17.723,17.723,0,0,1-1.578.809,10.77,10.77,0,0,1-3.489.935,3.093,3.093,0,0,1-.941,0c-.2-.04-.281-.092-.27-.155a4.335,4.335,0,0,1,1.073-.574,14.344,14.344,0,0,0,2.427-1.291c.471-.31.97-.654,1.5-1.044l.866-.614.275-.172a2.69,2.69,0,0,1,.482-.235.671.671,0,0,1,.258-.075,1.953,1.953,0,0,1,.264-.034c.092,0,.178.04.27,0h.333l.316.086.2.052.407.1c.27.069.574.126.821.172l.821.189.826.149a28.222,28.222,0,0,0,3.334.379,31.293,31.293,0,0,0,3.363,0c.574-.034,1.148-.075,1.721-.132l.872-.086h.235a1.724,1.724,0,0,1,.39,0,2.093,2.093,0,0,1,.425.046h.155l.2.075,1.148.574c.333.172.66.339.981.488a14.292,14.292,0,0,0,1.917.757,28.868,28.868,0,0,0,4.229.861l1.107.149c.35.04.78.1,1.056.126a12.976,12.976,0,0,0,2.054-.04,8.677,8.677,0,0,0,1.934-.407,4.014,4.014,0,0,0,.752-.367c.178-.149.362-.293.407-.43a.3.3,0,0,0,.046-.3,2.037,2.037,0,0,0-.453-.62,8.744,8.744,0,0,0-1.79-1.251,31.3,31.3,0,0,0-4.4-1.922c-3.07-1.113-6.26-2-9.434-2.869-1.721-.465-3.5-.9-5.262-1.326s-3.535-.855-5.273-1.2a20.738,20.738,0,0,0-5.164-.442,10.747,10.747,0,0,0-4.694,1.6,25.1,25.1,0,0,0-5.015,4.1,40.436,40.436,0,0,0-4.189,5.084c-3.9,5.468-7.489,11.274-11.184,16.9a144.039,144.039,0,0,1-8.957,12.77l-1.148,1.3c-.39.419-.775.849-1.194,1.262a16.888,16.888,0,0,1-3.644,2.869c-.23.12-.425.235-.62.321a4.737,4.737,0,0,1-.539.189,2.445,2.445,0,0,1-.855.149,4.013,4.013,0,0,1-.654,0c-.235-.052,0-.31.637-.706a25.218,25.218,0,0,0,2.588-2.209,47.95,47.95,0,0,0,4.4-5.239c1.417-1.842,2.777-3.776,4.12-5.738,2.7-3.925,5.331-8.033,7.97-12.13,1.962-3.053,3.936-6.117,6-9.181,1.039-1.521,2.106-3.03,3.271-4.5.574-.734,1.2-1.469,1.859-2.175s1.308-1.337,2.008-1.98Z" transform="translate(0 -22.627)" fill="#231f20"/>
      <path id="Path_84209" data-name="Path 84209" d="M121.175,171a2.123,2.123,0,0,0-1.8,2.3c.172,1.567,2.364,2.714,3.759,2.869C126.77,176.646,130.356,171.574,121.175,171Z" transform="translate(-48.478 -34.279)" fill="#231f20"/>
      <path id="Path_84210" data-name="Path 84210" d="M127.167,174.424a3.873,3.873,0,0,1-1.521,1.314,4.975,4.975,0,0,1-1.785.516,4.5,4.5,0,0,1-1.36,0,6.266,6.266,0,0,1-2.06-.889,4.946,4.946,0,0,1-1.589-1.607,2.605,2.605,0,0,1-.275-2.123,2.812,2.812,0,0,1,.712-1.148,1.888,1.888,0,0,1,1.28-.545c.316,0,.23.293.1.574a6.386,6.386,0,0,1-.362.861,1.538,1.538,0,0,0-.3.631,1.561,1.561,0,0,0-.034.316.85.85,0,0,0,0,.27,2.6,2.6,0,0,0,.9,1.337,3.959,3.959,0,0,0,2.226.889,3.368,3.368,0,0,0,2.41-.769,1.348,1.348,0,0,0,.574-1.182c-.109-.62-.93-1.176-1.773-1.412a7.3,7.3,0,0,0-2.094-.2h-.465a1.01,1.01,0,0,1-.574-.184,1.021,1.021,0,0,1-.241-.574,2.792,2.792,0,0,0-.063-.316.574.574,0,0,1,.161-.471.907.907,0,0,1,.574-.321,5.865,5.865,0,0,1,2.186.052,6.747,6.747,0,0,1,2.3.866,3.512,3.512,0,0,1,1.48,1.67,2.611,2.611,0,0,1,.161,1.308,2.95,2.95,0,0,1-.419,1.148Z" transform="translate(-48.095 -33.56)" fill="#231f20"/>
      <path id="Path_84211" data-name="Path 84211" d="M151.182,198.626l-4.309-.1H145.3c-1.848-.057-3.7-.12-5.543-.149-.821,0-1.641,0-2.456.029a21.312,21.312,0,0,1-3.145-.029c-.333-.04-.287-.293,0-.574a2.3,2.3,0,0,1,1.371-.574c1.062-.075,2.129-.143,3.2-.178s2.135,0,3.213.057c1.291.069,2.628-.04,3.942-.057H152.9c1.354,0,2.708.029,4.051,0,1.039-.029,2.066-.155,3.1-.224.224,0,.453-.046.689-.046.855-.029,1.176.161,1.3.625a1.754,1.754,0,0,1,.08.321c.029.35-.327.637-.907.712a44.582,44.582,0,0,1-5.675.27Z" transform="translate(-54.684 -45.264)" fill="#231f20"/>
      <path id="Path_84212" data-name="Path 84212" d="M145.406,253.015c-1.98,1.687-3.971,3.38-6,5.044-.74.608-1.452,1.257-2.221,1.842-.608.459-1.228.912-1.888,1.343-.339.218-.66.419-1.079.637a1.911,1.911,0,0,1-1.721.23l-.5-.27c-.166-.1-.258-.178-.361-.247a5.2,5.2,0,0,1-.574-.442c-.379-.3-.74-.6-1.1-.912-.706-.614-1.394-1.245-2.077-1.871l-3.357-2.99c-.7-.643-1.412-1.274-2.094-1.934a19.291,19.291,0,0,1-1.911-2.129c-.367-.482-.069-.648.574-.574a5.2,5.2,0,0,1,2.456,1.044c1.446,1.268,2.938,2.485,4.321,3.816s2.8,2.645,4.206,3.868a6.232,6.232,0,0,0,.574.453l.247.184.1.075a.2.2,0,0,0,.2,0,1.386,1.386,0,0,0,.3-.155,12.823,12.823,0,0,0,1.085-.729c.723-.534,1.44-1.148,2.158-1.721,2.026-1.624,4.017-3.317,5.991-5.032l1.825-1.589.918-.8.574-.493a2,2,0,0,1,.712-.448.43.43,0,0,1,.293-.052,2.916,2.916,0,0,1,.293.1,2.787,2.787,0,0,1,.574.293c.442.264.62.4.9.574l1.515,1.056,3,2.112c1.555,1.073,3.139,2.031,4.7,3.07.339.23.689.436,1.027.677a5.3,5.3,0,0,1,1.234,1.085,1.331,1.331,0,0,1,.2.93,2.691,2.691,0,0,1-.034.4c-.057.189-.252.241-.574.23a2.72,2.72,0,0,1-1.262-.43c-2.869-1.67-5.738-3.69-8.607-5.7l-1.635-1.044-.792-.574-.39-.264-.075-.052H147.1l-.178.155-1.515,1.308Z" transform="translate(-48.908 -67.589)" fill="#231f20"/>
      <path id="Path_84213" data-name="Path 84213" d="M290.755,328.971l-.034-6.547c0-.792-.069-1.584-.075-2.381v-8.395c0-1.245-.057-2.5-.109-3.73-.034-.792-.092-1.584-.109-2.381a17.642,17.642,0,0,1,.121-2.393c.057-.493.373-.425.723,0a4.189,4.189,0,0,1,.838,2.077c.178,3.219.293,6.45.212,9.715-.057,1.951.1,3.977.149,5.973l.12,6.582.069,4.057c.04,2.043.063,4.1.138,6.134.057,1.578.224,3.122.316,4.688,0,.35.057.689.063,1.039a3.442,3.442,0,0,1-.126,1.394,1.016,1.016,0,0,1-.505.574,2.142,2.142,0,0,1-.316.172c-.35.1-.648-.43-.8-1.348-.321-2.754-.488-5.687-.574-8.607-.046-2.192-.086-4.39-.132-6.587Z" transform="translate(-121.382 -90.45)" fill="#231f20"/>
      <path id="Path_84214" data-name="Path 84214" d="M321.218,376.5h-5.973c-.729,0-1.452.063-2.18.069l-7.689.04c-1.148,0-2.3.075-3.408.143a25.154,25.154,0,0,1-4.361.069c-.459-.046-.407-.39-.034-.757a3.3,3.3,0,0,1,1.882-.878c.734-.086,1.475-.126,2.215-.161l2.221-.086c1.486-.046,2.972-.046,4.47,0,1.79.063,3.644-.092,5.474-.126q3.012-.051,6.037-.063h9.336c1.446,0,2.869-.132,4.315-.161h.953c1.194.04,1.578.2,1.779.706a2.124,2.124,0,0,1,.132.321c.08.321-.43.666-1.274.689-2.513.166-5.164.207-7.873.224l-6.014.04Z" transform="translate(-124.301 -121.046)" fill="#231f20"/>
      <path id="Path_84215" data-name="Path 84215" d="M453.631,188.746a77.831,77.831,0,0,1-5.91-12.716c-.574-1.618-1.113-3.219-1.572-4.843-1.635-5.738-2.817-11.545-4.757-17.088a52.792,52.792,0,0,0-3.053-7.138,12.481,12.481,0,0,0-1.366-1.934,11.256,11.256,0,0,0-1.721-1.572,18.571,18.571,0,0,0-4.269-2.221c-.958-.379-.734-.677.23-.78a7.545,7.545,0,0,1,1.951.1,7.839,7.839,0,0,1,2.657.958,11.476,11.476,0,0,1,3.988,4.017c.258.4.465.8.689,1.216l.574,1.182c.39.786.717,1.6,1.073,2.4a68.976,68.976,0,0,1,3.122,9.939c.993,4.017,2.14,8.16,3.363,12.165a64.751,64.751,0,0,0,2.3,6.484c.861,2.123,1.876,4.189,2.932,6.237,1.337,2.5,2.749,4.969,4.321,7.328a78.7,78.7,0,0,0,7.856,10.2,48.315,48.315,0,0,0,3.5,3.443,39.475,39.475,0,0,0,3.8,3.053l.855.631c.293.2.574.379.9.574.574.362,1,.677,1.371.958s.694.465.935.66a2.651,2.651,0,0,1,.872,1.033,2.871,2.871,0,0,1,.2.459c.086.425-1.039.166-2.869-.723a40.506,40.506,0,0,1-7.46-5.463,69.77,69.77,0,0,1-6.473-6.886,92.087,92.087,0,0,1-8.033-11.643Z" transform="translate(-181.022 -21.251)" fill="#231f20"/>
      <path id="Path_84216" data-name="Path 84216" d="M410.547,212.525a12.56,12.56,0,0,0-4.275-3.328,21.081,21.081,0,0,0-5.434-1.664c-1.417-.264-2.869-.442-4.367-.8a20.117,20.117,0,0,1-3.868-1.285,8.688,8.688,0,0,1-3.443-2.657,5.161,5.161,0,0,1-.574-1,3.322,3.322,0,0,1-.356-1.222,2.542,2.542,0,0,1,.293-1.457,3.007,3.007,0,0,1,.941-1,5.991,5.991,0,0,1,2.083-.843,14.915,14.915,0,0,1,2.026-.31,49.222,49.222,0,0,1,7.006,0c1.475.109,2.944.241,4.413.459.729.115,1.463.23,2.186.413.361.092.723.189,1.079.3s.7.31,1.062.448c.448.178.643.407.574.539s-.367.218-.78.327a9.146,9.146,0,0,1-3.931.413c-1.446-.184-2.869-.327-4.344-.43s-2.869-.241-4.327-.27a22.9,22.9,0,0,0-4.16.218,5.166,5.166,0,0,0-1.618.516.947.947,0,0,0-.316.258c-.052.057-.08.172-.052.384a3.323,3.323,0,0,0,.361.9l.3.448c.115.143.258.27.384.407a6.949,6.949,0,0,0,2.031,1.291,24.049,24.049,0,0,0,5.09,1.389l2.972.539a27.1,27.1,0,0,1,3.047.746,16.836,16.836,0,0,1,5.641,2.915,14.971,14.971,0,0,1,2.685,2.869c.2.258.362.539.545.809.086.132.178.281.264.442l.224.425c.287.574.574,1.107.855,1.641a26.1,26.1,0,0,0,6.886,8.492,19.6,19.6,0,0,0,7.494,3.443c.574.155,1.182.218,1.779.339s1.021.166,1.417.23a9.48,9.48,0,0,1,.964.212,2.945,2.945,0,0,1,.643.23,2.442,2.442,0,0,1,.43.339c.115.109.264.207.333.287s-.069.258-.511.453a5.313,5.313,0,0,1-2.049.293,19.012,19.012,0,0,1-8.062-1.853,22.666,22.666,0,0,1-6.851-5.164,29.891,29.891,0,0,1-3.747-5.13c-.534-.907-1.021-1.848-1.48-2.737a11.047,11.047,0,0,0-1.521-2.244Z" transform="translate(-163.059 -45.288)" fill="#231f20"/>
      <path id="Path_84217" data-name="Path 84217" d="M472.245,274.106c-.855-1.148-1.664-2.3-2.467-3.443-.3-.419-.62-.809-.907-1.234-1-1.492-1.951-3.018-2.932-4.51-.436-.666-.924-1.3-1.406-1.917a20.086,20.086,0,0,1-1.813-2.416c-.31-.574,1.245-.8,2.026.1a39.594,39.594,0,0,1,3.627,5.084c.637,1.079,1.458,2.083,2.192,3.116.809,1.148,1.618,2.3,2.462,3.374.522.683,1.044,1.36,1.6,2.008a32.5,32.5,0,0,0,2.628,2.869c.373.327.763.625,1.148.924s.815.574,1.211.826c.172.12.356.23.534.344.66.442.792.689.666,1.194-.034.109-.052.235-.092.339-.143.356-.574.413-1.148.138a16.193,16.193,0,0,1-4.545-3.489c-1-1.044-1.922-2.152-2.806-3.271Z" transform="translate(-194.794 -72.245)" fill="#231f20"/>
      <path id="Path_84218" data-name="Path 84218" d="M35.964,236.121c1.073-1.211,2.181-2.4,3.305-3.575.407-.43.786-.889,1.211-1.3a44.915,44.915,0,0,1,4.809-4.091c.757-.574,1.532-1.107,2.33-1.618l.8-.471c.281-.132.574-.287.855-.4a4.661,4.661,0,0,1,.941-.264c.161-.029.327-.052.488-.069a5.051,5.051,0,0,1,.511,0c.425.04.31.482.04.93a4.913,4.913,0,0,1-.488.648,1.612,1.612,0,0,1-.3.264,1.43,1.43,0,0,1-.356.2A14.149,14.149,0,0,0,47.3,227.93c-.935.631-1.859,1.331-2.8,2.037a28.445,28.445,0,0,0-3.11,3.013q-1.669,1.722-3.265,3.535-.981,1.11-1.934,2.255c-.953,1.148-1.922,2.324-2.794,3.535-.689.935-1.239,1.94-1.876,2.9-.143.212-.264.43-.413.637-.574.775-.866.941-1.383.786a2.08,2.08,0,0,1-.35-.109c-.35-.178-.362-.66-.052-1.274a32.459,32.459,0,0,1,3.506-5.382c.987-1.291,2.037-2.548,3.093-3.8Z" transform="translate(-10.01 -57.006)" fill="#231f20"/>
      <path id="Path_84219" data-name="Path 84219" d="M427.045,241.606V239.38c0-.27-.057-.534-.052-.809,0-.958.08-1.922.1-2.869,0-.43,0-.861-.029-1.28a4.784,4.784,0,0,1,.052-1.641c.046-.172.35-.149.66,0s.643.39.689.689c.086.534.155,1.073.2,1.612a9.39,9.39,0,0,1-.046,1.653,17.353,17.353,0,0,0,.086,2.031l.04,2.244v1.39c0,.7,0,1.406.052,2.106,0,.539.161,1.079.155,1.635v.373a.838.838,0,0,1-.172.5.574.574,0,0,1-.413.155,1.882,1.882,0,0,1-.253,0,.677.677,0,0,1-.574-.516,10.242,10.242,0,0,1-.5-2.812c-.034-.734-.04-1.475-.069-2.215Z" transform="translate(-179.575 -60.557)" fill="#231f20"/>
      <path id="Path_84220" data-name="Path 84220" d="M431.48,152.09l-.419,4.946c-.052.574-.057,1.205-.109,1.8-.178,2.123-.379,4.241-.539,6.364-.069.941-.109,1.888-.138,2.823a18.813,18.813,0,0,1-.247,3.592c-.069.373-.316.321-.574,0a2.869,2.869,0,0,1-.654-1.624c0-1.228.034-2.462.092-3.69s.2-2.462.35-3.7c.189-1.475.2-3.018.3-4.533.115-1.664.247-3.328.384-4.992l.252-3.07c.115-1.549.264-3.1.35-4.648.069-1.194.057-2.376.1-3.569a7.212,7.212,0,0,1,.029-.786c.052-.987.258-1.3.66-1.446a1.5,1.5,0,0,1,.264-.1c.138-.029.247.069.35.258a1.635,1.635,0,0,1,.166.821c.046,2.1-.063,4.332-.207,6.559-.12,1.658-.235,3.328-.356,4.986Z" transform="translate(-180.355 -20.838)" fill="#231f20"/>
      <path id="Path_84221" data-name="Path 84221" d="M428.817,241.9c.029-.5,0-1.01,0-1.526,0-.189-.057-.373-.063-.574,0-.677-.04-1.36-.08-2.043a7.637,7.637,0,0,0-.121-.9,2.988,2.988,0,0,1-.08-1.148c0-.121.241-.132.476-.063a.815.815,0,0,1,.574.43,8.8,8.8,0,0,1,.316,2.3,10.4,10.4,0,0,0,.224,1.429,13.662,13.662,0,0,1,.143,1.618v1c0,.5-.029,1,0,1.5a9.947,9.947,0,0,0,.184,1.148,1.921,1.921,0,0,1,.04.252c0,.316-.086.407-.511.453a2.532,2.532,0,0,1-.293,0,.637.637,0,0,1-.671-.35,5.55,5.55,0,0,1-.224-2.049c0-.511.04-1.021,0-1.526Z" transform="translate(-180.206 -61.813)" fill="#231f20"/>
      <path id="Path_84222" data-name="Path 84222" d="M318.68,140.737v17.151l16.7,10.185c1.658-4.717,4.826-17.645-7.729-24.5C327.655,143.572,322.043,140.072,318.68,140.737Z" transform="translate(-133.423 -21.346)" fill="#231f20"/>
      <path id="Path_84223" data-name="Path 84223" d="M327.107,278.144l-12.377.063-4.516.063-15.914.03c-2.353,0-4.717.046-7.052.086-3,.046-6.019.138-9.02.034-1.865-.063.5-1.01,3.954-1.073,6.123-.1,12.245-.2,18.425-.166,3.7,0,7.54-.12,11.316-.178l12.469-.178,7.672-.1c3.873-.063,7.764-.109,11.608-.212,2.99-.08,5.916-.241,8.871-.367l1.94-.086c2.433-.075,3.213,0,3.741.413a2,2,0,0,1,.344.275c.23.31-.752.574-2.531.677-5.268.344-10.839.482-16.428.574l-12.492.172Z" transform="translate(-115.903 -79.043)" fill="#231f20"/>
      <path id="Path_84224" data-name="Path 84224" d="M150.182,296.679l-10.644.1c-1.3,0-2.594.08-3.885.08H121.961c-2.026,0-4.063.034-6.071.08-2.582.029-5.164.086-7.758-.057-.8-.046-.694-.281,0-.528a11.964,11.964,0,0,1,3.443-.574c5.256-.2,10.518-.275,15.832-.264,3.179,0,6.484-.149,9.755-.23l10.719-.2,6.6-.132c3.328-.075,6.673-.138,9.979-.253,2.571-.1,5.084-.293,7.626-.43.574-.029,1.107-.075,1.676-.1a13.113,13.113,0,0,1,2.226.052,1.63,1.63,0,0,1,1,.471,1.608,1.608,0,0,1,.287.321c.178.373-.643.643-2.163.78-4.522.39-9.313.574-14.116.717l-10.742.207Z" transform="translate(-43.452 -86.762)" fill="#231f20"/>
      <path id="Path_84225" data-name="Path 84225" d="M234.71,206.634l.149-10.283V192.6l.241-13.2c.034-1.951.034-3.919,0-5.859,0-2.49,0-5,.212-7.488.057-.78.172-.677.339,0a19.168,19.168,0,0,1,.539,3.294c.149,2.548.143,5.09.138,7.643s-.04,5.107-.132,7.672c-.1,3.07-.046,6.266-.069,9.4q-.057,5.164-.109,10.363l-.029,6.335c0,3.219-.069,6.45-.052,9.646,0,2.485.1,4.918.155,7.374,0,.539,0,1.067.046,1.612,0,2.02-.063,2.663-.43,3.1a2.176,2.176,0,0,1-.23.287c-.235.189-.516-.631-.574-2.112-.235-4.384-.27-9.015-.275-13.657,0-3.443.034-6.915.052-10.375Z" transform="translate(-97.603 -31.938)" fill="#231f20"/>
      <path id="Path_84226" data-name="Path 84226" d="M480.216,262.9a15.964,15.964,0,0,0,1.9-1.693c.212-.23.373-.5.574-.74a17.7,17.7,0,0,0,1.991-2.72,7.661,7.661,0,0,0,.574-1.377c.1-.31.172-.62.27-.924a2.731,2.731,0,0,1,.379-.884c.115-.178.574-.034.941.252s.712.746.608,1.148a10.724,10.724,0,0,1-1.957,3.816,12.628,12.628,0,0,0-.752,1.062,10.674,10.674,0,0,1-.752,1.079A16.641,16.641,0,0,1,482.006,264c-.459.373-.907.757-1.4,1.09l-.574.384-.574.344c-.373.247-.786.425-1.148.654a14.3,14.3,0,0,1-1.882.924,2.291,2.291,0,0,1-.436.155c-.574.1-.786,0-.964-.43a1.89,1.89,0,0,1-.115-.3.78.78,0,0,1,.4-.872c.953-.608,1.853-1.148,2.817-1.653a15.947,15.947,0,0,0,2.031-1.417Z" transform="translate(-199.999 -69.858)" fill="#231f20"/>
      <path id="Path_84227" data-name="Path 84227" d="M488.359,271.065a4.589,4.589,0,0,1-.5-.436l-.316-.3c-.172-.189-.362-.379-.528-.574-.344-.384-.66-.775-.97-1.148l-.878-1.148a11.271,11.271,0,0,0-.832-.964,5.955,5.955,0,0,0-.832-.734l-.115-.069h0v-.121c.034-.1.069-.178.092-.275l.057-.247v-.2c0-.247-.1-.252.034-.155a.872.872,0,0,0,.316.126,2.87,2.87,0,0,0,.574.1h.04v.1a1.989,1.989,0,0,0,.029.224q.046.27.121.574l.04.149.04.1a1.154,1.154,0,0,0,.086.224,5.423,5.423,0,0,0,.27.574c.574,1.148,1.417,2.267,2.129,3.443.5.884,2.163,3.351,2.066,4.591a2.433,2.433,0,0,1-.121.981,1.819,1.819,0,0,1-.574.912,1.572,1.572,0,0,1-.975.321,2.966,2.966,0,0,1-.993-.161,7.421,7.421,0,0,1-2.249-1.36c-.189-.149-.379-.3-.574-.465l-.275-.241-.138-.12-.092-.086-.625-.694c-.884-.878-1.721-1.779-2.565-2.68l-1.107-1.194-.27-.281-.132-.132-.057-.057h0l.08-.109c.029-.034.063-.086.086-.109a.247.247,0,0,0,.069,0,.459.459,0,0,0,.121-.086.356.356,0,0,0,.115-.241V269c.172,1.635.046.453.086.815h0a.213.213,0,0,1-.034-.08.345.345,0,0,0-.04-.115c-.115-.178-.092-.075.052-.052a.851.851,0,0,0,.172.04h0v.069a1.558,1.558,0,0,0,.063.247,4.018,4.018,0,0,0,.281.608,11.831,11.831,0,0,0,.815,1.268c1.578,2.14,3.546,4.08,5.2,6.22.511.654.229.866-.648.729a7.048,7.048,0,0,1-1.624-.534,6.806,6.806,0,0,1-1.813-1.32,27.222,27.222,0,0,1-2.869-3.334,15.006,15.006,0,0,1-1.257-1.991,5.288,5.288,0,0,1-.511-1.412,4.037,4.037,0,0,1-.057-.574,1.273,1.273,0,0,1,.04-.384c.04-.132,0-.121.034-.189a2.244,2.244,0,0,0,.08-.235,2.434,2.434,0,0,1,.235-.453,3.146,3.146,0,0,1,.379-.4,2.067,2.067,0,0,1,.4-.258,1.9,1.9,0,0,1,.384-.149l.333-.069h.172a1.653,1.653,0,0,1,.373,0,1.681,1.681,0,0,1,.7.3l.063.052h0c.161.143.212.207.293.281l.384.407.723.786,1.417,1.538c.471.5.947,1,1.435,1.486l.683.671a2.077,2.077,0,0,0,.161.212,1.721,1.721,0,0,0,.654.511.3.3,0,0,0,.212,0,.235.235,0,0,0,.121-.149.516.516,0,0,0-.029-.39c-.057-.126-.12-.253-.189-.373l-.109-.184-.155-.247-1.291-2.06c-.505-.826-1.016-1.647-1.486-2.571a6.634,6.634,0,0,1-.574-1.584,5.808,5.808,0,0,1-.149-.861,3.3,3.3,0,0,1,0-.539,1.83,1.83,0,0,1,.241-.809,1.36,1.36,0,0,1,.493-.5,1.331,1.331,0,0,1,.344-.143,1.4,1.4,0,0,1,.316-.046,1.722,1.722,0,0,1,.792.155,3.791,3.791,0,0,1,.838.5,9.793,9.793,0,0,1,1.148,1.09c.35.373.689.775.987,1.148s.574.74.878,1.1a16.778,16.778,0,0,0,1.148,1.245l.252.247a1.833,1.833,0,0,0,.155.143,2.26,2.26,0,0,0,.339.27,1.148,1.148,0,0,0,.832.241.89.89,0,0,0,.4-.212.574.574,0,0,0,.149-.407,2.7,2.7,0,0,0-.574-1.245,24.274,24.274,0,0,0-1.647-1.98l-.9-.987c-.155-.172-.3-.339-.471-.545a5.794,5.794,0,0,1-.425-.631,12.546,12.546,0,0,1-.671-1.257,8.462,8.462,0,0,1-.339-.838,5.231,5.231,0,0,1-.235-.889,3.065,3.065,0,0,1,0-1.314,1.549,1.549,0,0,1,.78-1,3.116,3.116,0,0,1,2.622.086,9.07,9.07,0,0,1,1.228.706c.3.2.574.407.866.608.574.4,1.1.8,1.63,1.148a10.386,10.386,0,0,0,1.383.786,5.851,5.851,0,0,0,1.532.471,3.975,3.975,0,0,1,.97.333c.166.069.373.109.522.184.247.126.287.425-.034.884a2.031,2.031,0,0,1-.861.66,3.248,3.248,0,0,1-1.515.293,6.081,6.081,0,0,1-2.215-.683,14.414,14.414,0,0,1-1.756-1.067c-.539-.373-1.039-.752-1.526-1.1l-.356-.253-.178-.12-.115-.075c-.092-.057-.057,0-.08-.034h-.029a.057.057,0,0,0-.034.1h0l.057.109.178.362c.126.241.264.482.407.706l.161.241.241.275c.574.648,1.3,1.377,1.951,2.146l.493.574.241.31.121.161.069.086.1.143a7.753,7.753,0,0,1,1.239,2.376,3.162,3.162,0,0,1-.075,2.129,2.819,2.819,0,0,1-.608.9,3.5,3.5,0,0,1-.912.614,3.2,3.2,0,0,1-2.117.2,5.686,5.686,0,0,1-2.232-1.211Z" transform="translate(-200.82 -71.288)" fill="#231f20"/>
      <path id="Path_84228" data-name="Path 84228" d="M21.7,233.846a31.028,31.028,0,0,1-2.576-3.219c-.287-.4-.614-.78-.872-1.2a44.71,44.71,0,0,1-2.473-4.591c-.333-.694-.694-1.377-1-2.083a12.344,12.344,0,0,1-.574-1.389,3.489,3.489,0,0,1-.2-1.647c.138-.522.459-.166.809.046a1.98,1.98,0,0,1,.987.9c.327.821.775,1.653,1.148,2.508s.8,1.721,1.2,2.611a19.583,19.583,0,0,0,1.922,2.972,34.331,34.331,0,0,0,2.41,3.058,19.434,19.434,0,0,0,1.681,1.721,10.662,10.662,0,0,0,2.938,1.94,6.025,6.025,0,0,0,3.024.275c.654-.034.889,0,1.194.333a2.219,2.219,0,0,1,.2.2c.166.2,0,.625-.608.981a4.763,4.763,0,0,1-3.041.419A7.54,7.54,0,0,1,25,236.623a16.726,16.726,0,0,1-3.34-2.726Z" transform="translate(-3.563 -54.927)" fill="#231f20"/>
      <path id="Path_84229" data-name="Path 84229" d="M191.862,130.785l-26.751-.2h-9.755c-11.476-.086-22.953-.184-34.4-.212-5.09,0-10.2,0-15.252.092l-9.755.149c-3.248.029-6.5.069-9.755.034-2.026-.057-1.762-.293-.057-.643a54.515,54.515,0,0,1,8.607-.861c13.255-.252,26.493-.275,39.846-.1,7.988.1,16.3,0,24.473.057l26.969.115,16.589.063c8.372,0,16.784.04,25.093,0,6.461-.052,12.79-.2,19.177-.339l4.2-.1c2.622-.052,4.355-.057,5.572,0a8.768,8.768,0,0,1,2.49.43,7.9,7.9,0,0,1,.746.27c.258.149-.149.293-1.1.448a36.2,36.2,0,0,1-4.372.367c-11.419.43-23.463.545-35.577.574l-27-.063Z" transform="translate(-33.735 -16.293)" fill="#231f20"/>
      <g id="Group_36502" data-name="Group 36502" transform="translate(56.494 263.985)" opacity="0.4">
        <path id="Path_84230" data-name="Path 84230" d="M196.122,395.708l-25.454.2-9.284.092-32.708.057-14.506.063-9.273.04c-3.087,0-6.18,0-9.261-.132-1.928-.069-1.664-.339-.034-.614a51.473,51.473,0,0,1,8.177-.574H141.65c7.6,0,15.493-.132,23.274-.212l25.632-.287,15.78-.207c7.959-.126,15.964-.241,23.865-.442,6.14-.155,12.159-.4,18.23-.643l4.017-.161c4.992-.184,6.587-.126,7.672.253a4.712,4.712,0,0,1,.717.264c.493.3-1.538.631-5.2.826-10.851.574-22.3.861-33.8,1.1-8.538.161-17.117.275-25.678.4Z" transform="translate(-94.283 -392.784)" fill="#231f20"/>
      </g>
      <path id="Path_84231" data-name="Path 84231" d="M57.85,321.973v-7.8L57.8,311.3V301.264c0-1.48-.034-2.972-.08-4.447a37.562,37.562,0,0,1,.069-5.681c.063-.574.23-.516.482,0a9.628,9.628,0,0,1,.425,1.021,6.122,6.122,0,0,1,.281,1.475c.23,3.862.218,7.718.109,11.62-.069,2.33.034,4.751.052,7.133l.034,7.861v4.837c0,2.444.029,4.9.092,7.322.052,1.882.178,3.73.275,5.589l.063,1.222c.057,1.532-.115,2.026-.413,2.358a1.6,1.6,0,0,1-.2.224c-.109.075-.212-.046-.321-.321a4.841,4.841,0,0,1-.3-1.268c-.327-3.328-.413-6.84-.493-10.363-.034-2.617-.069-5.25-.1-7.873Z" transform="translate(-22.176 -85.305)" fill="#231f20"/>
      <path id="Path_84232" data-name="Path 84232" d="M449.689,324.53l.161-7.391v-2.691l.247-9.508v-4.212a40.156,40.156,0,0,1,.178-5.382c.052-.574.247-.482.47,0a7.346,7.346,0,0,1,.356.975c.057.2.115.425.166.66a2.068,2.068,0,0,0,.075.356v.384c.1,1.83.075,3.661.046,5.491s-.092,3.672-.184,5.52c-.109,2.209-.052,4.5-.092,6.765l-.126,7.46c0,1.526-.052,3.058-.08,4.591-.029,2.3-.075,4.636-.063,6.937,0,1.785.1,3.535.155,5.3l.04,1.148c0,1.452-.069,1.911-.436,2.215a1.285,1.285,0,0,1-.241.207c-.258.132-.516-.465-.574-1.526-.23-3.162-.252-6.49-.247-9.829q.043-3.718.075-7.46Z" transform="translate(-189.193 -87.104)" fill="#231f20"/>
      <path id="Path_84233" data-name="Path 84233" d="M185.3,91.78c-.132.918-1.016,1.894-1.991,1.085-.792-.654.143-2.353,1.085-2.3a.923.923,0,0,1,.906,1.215Z" transform="translate(-75.604)" fill="#231f20"/>
      <path id="Path_84234" data-name="Path 84234" d="M130.91,109.49c-.132.918-1.016,1.894-1.991,1.085-.792-.654.143-2.353,1.079-2.3C130.755,108.3,130.99,108.881,130.91,109.49Z" transform="translate(-52.423 -7.548)" fill="#231f20" opacity="0.6"/>
      <path id="Path_84235" data-name="Path 84235" d="M394.3,424.694c-.126.924-1.016,1.9-1.991,1.09-.792-.66.143-2.358,1.085-2.3a.953.953,0,0,1,.907,1.205Z" transform="translate(-164.676 -141.885)" fill="#231f20"/>
      <path id="Path_84236" data-name="Path 84236" d="M210.2,105.054c-.08.574-.643,1.2-1.257.689-.5-.413.086-1.492.683-1.463a.574.574,0,0,1,.574.775Z" transform="translate(-86.572 -5.843)" fill="#231f20" opacity="0.4"/>
      <path id="Path_84237" data-name="Path 84237" d="M329.221,421.084c-.086.574-.643,1.2-1.262.689-.5-.413.092-1.492.683-1.463a.608.608,0,0,1,.58.775Z" transform="translate(-137.297 -140.53)" fill="#231f20" opacity="0.4"/>
      <path id="Path_84238" data-name="Path 84238" d="M350.483,427.344c-.08.574-.643,1.2-1.262.689-.5-.413.092-1.492.689-1.463C350.386,426.593,350.535,426.96,350.483,427.344Z" transform="translate(-146.359 -143.198)" fill="#231f20" opacity="0.7"/>
      <path id="Path_84239" data-name="Path 84239" d="M107.743,101.424c-.08.574-.643,1.205-1.262.689-.5-.413.092-1.486.689-1.463a.608.608,0,0,1,.574.775Z" transform="translate(-42.908 -4.297)" fill="#231f20" opacity="0.4"/>
      <path id="Path_84240" data-name="Path 84240" d="M196.368,397.555q-12.515.189-25.024.264l-9.124.1q-16.067.04-32.174-.1l-14.265-.132-4.556-.046-4.556-.1c-3.041-.057-6.082-.184-9.106-.4-1.888-.126-1.618-.39,0-.614a33.064,33.064,0,0,1,3.322-.281c1.371-.046,2.984-.063,4.728-.034,12.366.3,24.737.384,37.223.5,7.46.063,15.235-.063,22.872-.143q12.59-.138,25.2-.339,7.747-.132,15.493-.3c7.821-.178,15.688-.373,23.452-.654,6.037-.229,11.947-.574,17.909-.9l3.919-.224c4.9-.281,6.467-.258,7.546.1a5.015,5.015,0,0,1,.712.247c.488.3-1.5.66-5.1.93-10.656.786-21.914,1.216-33.213,1.567-8.4.241-16.83.425-25.248.574Z" transform="translate(-38.625 -129.303)" fill="#231f20"/>
      <path id="Path_84241" data-name="Path 84241" d="M281.8,149.513a27.541,27.541,0,0,1,3.007-3.374c.407-.367.78-.775,1.211-1.119a20.777,20.777,0,0,1,4.946-3.007c.8-.316,1.589-.648,2.416-.884a7.321,7.321,0,0,1,.792-.218,5.571,5.571,0,0,1,.8-.172l.826-.069h.826c.253,0,.293.281.034.574a3.116,3.116,0,0,1-1.285.757,22.954,22.954,0,0,0-2.938.861,30.838,30.838,0,0,0-2.84,1.28,14.975,14.975,0,0,0-3.1,2.3,25.368,25.368,0,0,0-2.938,3.139,20.615,20.615,0,0,0-1.526,2.18,17.861,17.861,0,0,0-1.75,3.6,10.489,10.489,0,0,0-.534,2.949v.637a3.654,3.654,0,0,1-.1.838.769.769,0,0,1-.275.43,2.415,2.415,0,0,1-.184.166c-.109.069-.224.029-.356-.115a1.842,1.842,0,0,1-.361-.74,7.075,7.075,0,0,1,0-3.122,12.548,12.548,0,0,1,.964-2.967,22.481,22.481,0,0,1,2.335-3.965Z" transform="translate(-116.217 -21.353)" fill="#231f20"/>
      <g id="Group_36503" data-name="Group 36503" transform="translate(34.727 207.158)" opacity="0.4">
        <path id="Path_84242" data-name="Path 84242" d="M56.35,323.933l.075-7.546v-2.749l.132-9.7v-4.3a34.429,34.429,0,0,1,.126-5.491c.075-.574.241-.493.482,0a9.437,9.437,0,0,1,.419.993,6.312,6.312,0,0,1,.264,1.423c.178,3.73.126,7.46,0,11.224-.092,2.255,0,4.591-.029,6.886l-.052,7.6v11.746c0,1.819.138,3.6.212,5.4l.052,1.188c.04,1.48-.132,1.951-.436,2.3a2.46,2.46,0,0,1-.2.212c-.109.075-.212-.04-.316-.31a4.223,4.223,0,0,1-.281-1.228c-.3-3.213-.344-6.6-.379-10.013v-7.609Z" transform="translate(-56.35 -293.752)" fill="#231f20"/>
      </g>
      <g id="Group_36504" data-name="Group 36504" transform="translate(261.084 209.569)" opacity="0.4">
        <path id="Path_84243" data-name="Path 84243" d="M451.2,325.77l.281-6.949.046-2.536c.109-2.978.241-5.956.31-8.934.034-1.32.029-2.651,0-3.965v-2.531c0-.844.109-1.687.166-2.531.052-.528.247-.459.471,0a6.957,6.957,0,0,1,.361.918,5.512,5.512,0,0,1,.172.62l.075.339.029.356c.109,1.721.08,3.443.052,5.164s-.1,3.443-.2,5.193c-.121,2.077-.08,4.241-.143,6.364l-.241,7.012c-.057,1.435-.109,2.869-.166,4.309-.075,2.175-.178,4.361-.212,6.524-.034,1.681,0,3.328.04,4.986v1.1c0,1.366-.1,1.8-.471,2.083a2.19,2.19,0,0,1-.247.189c-.258.126-.5-.436-.574-1.44-.178-2.978-.121-6.111-.04-9.25q.109-3.506.229-7.012Z" transform="translate(-450.826 -297.954)" fill="#231f20"/>
      </g>
      <g id="Group_36505" data-name="Group 36505" transform="translate(55.07 113.262)" opacity="0.4">
        <path id="Path_84244" data-name="Path 84244" d="M195.369,132.345l-25.885-.321-9.434-.063c-11.092-.138-22.184-.287-33.281-.356-4.918,0-9.87,0-14.747.034l-9.422.132c-3.139,0-6.278.057-9.411,0-1.957-.063-1.721-.3-.057-.648a52.028,52.028,0,0,1,8.309-.849c12.825-.23,25.632-.2,38.549.029,7.724.132,15.763.1,23.664.161l26.074.241,16.067.126c8.1.046,16.233.1,24.267.069,6.249-.034,12.377-.172,18.551-.3l4.057-.092c2.542-.046,4.218-.046,5.394,0a8.452,8.452,0,0,1,2.41.436,6.881,6.881,0,0,1,.723.27c.247.149-.149.293-1.067.448a34.191,34.191,0,0,1-4.235.362c-11.04.425-22.694.511-34.389.482-8.688,0-17.41-.1-26.12-.161Z" transform="translate(-91.802 -130.117)" fill="#231f20"/>
      </g>
      <path id="Path_84245" data-name="Path 84245" d="M300.74,325.64l.3,26.436h5.56V325.64Z" transform="translate(-125.778 -100.184)" fill="#231f20" stroke="#231f20" stroke-width="1" opacity="0.3"/>
      <path id="Path_84246" data-name="Path 84246" d="M319.21,335.37l.3,20.7h5.555v-20.7Z" transform="translate(-133.649 -104.331)" fill="#231f20"/>
      <path id="Path_84247" data-name="Path 84247" d="M336.54,349.37l.3,12.664h5.56V349.37Z" transform="translate(-141.035 -110.297)" fill="#231f20" opacity="0.3"/>
      <path id="Path_84248" data-name="Path 84248" d="M12.815,242.928a2.726,2.726,0,0,1-.333-1.836,5.428,5.428,0,0,1,.866-2.163c.574-.9,1.5-1.939,2.169-2.869l.4-.574a.838.838,0,0,0,.1-.218.379.379,0,0,0-.057-.333c-.086-.092-.224-.057-.321-.04l-.184.046-.109.04c-.063.029-.092.034-.23.1-.436.212-.889.453-1.36.694s-.947.488-1.5.712a5.738,5.738,0,0,1-1.148.344,2.175,2.175,0,0,1-1.148-.143,2.347,2.347,0,0,1-1.16-1.064,2.737,2.737,0,0,1-.252-1.515,5.164,5.164,0,0,1,.3-1.291A10.838,10.838,0,0,1,9.29,231.8c.356-.717.746-1.4,1.148-2.066s.792-1.331,1.1-1.939a2.3,2.3,0,0,0,.046-2.008.717.717,0,0,0-.488-.4,1.722,1.722,0,0,0-.907.132c-.442.184-.769-.224-.574-.958a1.813,1.813,0,0,1,1.062-1.1,1.836,1.836,0,0,1,.574-.138,3.144,3.144,0,0,1,.333,0,1.6,1.6,0,0,1,.356.063,2.708,2.708,0,0,1,.706.281,2.358,2.358,0,0,1,.574.5,3.787,3.787,0,0,1,.849,2.215,4.705,4.705,0,0,1-.057,1.067,3.672,3.672,0,0,1-.115.511l-.069.253c-.034.092-.075.2-.115.281a7.879,7.879,0,0,1-.4.8l-.384.666-.723,1.211A16.068,16.068,0,0,0,11,233.549c-.034.092-.069.184-.092.27s-.052.2-.057.161a.419.419,0,0,0-.052.126.327.327,0,0,0,.092.316h0a.287.287,0,0,0,.218.052.533.533,0,0,0,.126,0h.034l.08-.034a1.624,1.624,0,0,0,.184-.08,17.161,17.161,0,0,0,1.526-.838l.815-.471.212-.12.3-.161c.2-.109.453-.23.677-.333a2.945,2.945,0,0,1,2.6-.126,2.547,2.547,0,0,1,.958,2.571,4.333,4.333,0,0,1-.476,1.5l-.2.362-.155.247c-.029.052-.046.069-.052.086l-.04.046-.069.092a17.208,17.208,0,0,0-1.148,1.429,1.589,1.589,0,0,0-.252.608.792.792,0,0,0,.155.62c.052.08.092.2.184.235a.3.3,0,0,0,.264,0,1.486,1.486,0,0,0,.459-.3c.436-.4.838-.872,1.331-1.36l.184-.178c.115-.1.224-.207.367-.327a4.884,4.884,0,0,1,1.067-.7,2.152,2.152,0,0,1,1.148-.2,1.567,1.567,0,0,1,1,.574,3.23,3.23,0,0,1,.476.8c0,.08.08.138.08.23a1.872,1.872,0,0,1,.1.218,1.423,1.423,0,0,1,.092.465A3.248,3.248,0,0,1,23,240.3c-.063.161-.109.333-.178.493l-.189.453c-.4.924-.844,1.773-1.211,2.594-.08.178-.143.35-.2.511a2.02,2.02,0,0,0-.092.367h-.207a.98.98,0,0,0-.356.029.327.327,0,0,0-.155.052h0a.247.247,0,0,0,.052-.149,1.022,1.022,0,0,0,.063-.3,1.246,1.246,0,0,0,0-.149.407.407,0,0,1,0-.086h.493a1.36,1.36,0,0,1,.861.281,3.8,3.8,0,0,1,.367.27c.166.172.149.413-.057.694a2.118,2.118,0,0,1-.459.436,2.519,2.519,0,0,1-.941.407,2.125,2.125,0,0,1-.293.04,2.571,2.571,0,0,1-.419-.034,1.543,1.543,0,0,1-.574-.27,1.492,1.492,0,0,1-.442-.574,1.463,1.463,0,0,1-.1-.3.5.5,0,0,0-.034-.224c-.034-.075,0-.149,0-.218v-.155a3,3,0,0,1,.08-.539,9.9,9.9,0,0,1,.5-1.452c.178-.425.361-.832.539-1.228s.356-.8.476-1.113c0-.063-.046-.063-.063-.057h0l-.149.143-.511.574-1.245,1.394a15.279,15.279,0,0,1-1.2,1.222,6.285,6.285,0,0,1-.534.43,5.259,5.259,0,0,1-.476.3,2.531,2.531,0,0,1-1.389.333,2.14,2.14,0,0,1-.683-.138,2.235,2.235,0,0,1-.683-.419.493.493,0,0,1-.184-.218,3.9,3.9,0,0,1-.62-.74Z" transform="translate(-1.241 -56.578)" fill="#231f20"/>
    </g>
  </g>
</svg>
