<svg xmlns="http://www.w3.org/2000/svg" xmlns:xlink="http://www.w3.org/1999/xlink" width="300" height="162.46" viewBox="0 0 300 162.46">
  <defs>
    <clipPath id="clip-path">
      <rect id="Rectangle_6141" data-name="Rectangle 6141" width="300" height="162.46" fill="none"/>
    </clipPath>
    <clipPath id="clip-path-3">
      <rect id="Rectangle_6136" data-name="Rectangle 6136" width="18.593" height="1.885" fill="none"/>
    </clipPath>
    <clipPath id="clip-path-4">
      <rect id="Rectangle_6137" data-name="Rectangle 6137" width="143.082" height="102.709" fill="none"/>
    </clipPath>
    <clipPath id="clip-path-5">
      <rect id="Rectangle_6138" data-name="Rectangle 6138" width="2.321" height="2.429" fill="none"/>
    </clipPath>
    <clipPath id="clip-path-6">
      <rect id="Rectangle_6139" data-name="Rectangle 6139" width="2.324" height="2.451" fill="none"/>
    </clipPath>
  </defs>
  <g id="Group_36492" data-name="Group 36492" clip-path="url(#clip-path)">
    <g id="Group_36491" data-name="Group 36491">
      <g id="Group_36490" data-name="Group 36490" clip-path="url(#clip-path)">
        <g id="Group_36480" data-name="Group 36480" transform="translate(130.774 126.853)" opacity="0.25" style="isolation: isolate">
          <g id="Group_36479" data-name="Group 36479">
            <g id="Group_36478" data-name="Group 36478" clip-path="url(#clip-path-3)">
              <path id="Path_83868" data-name="Path 83868" d="M226.645,201.828c.276,0-3.658,1.885-3.658,1.885l-14.908-.194c-.276,0,3.978-1.685,3.978-1.685Z" transform="translate(-208.067 -201.828)" fill="#221f1f"/>
            </g>
          </g>
        </g>
        <g id="Group_36483" data-name="Group 36483" transform="translate(116.267 4.113)" opacity="0.25">
          <g id="Group_36482" data-name="Group 36482">
            <g id="Group_36481" data-name="Group 36481" clip-path="url(#clip-path-4)">
              <path id="Path_83869" data-name="Path 83869" d="M204.443,10.914,192.611,64.37c-1.961,8.912-3.847,17.9-5.26,26.963-.344,2.263-.7,4.526-1.012,6.8l-1.063,7.657-.232,1.7-.057.421v.1h1.175l3.142.05,3.425.05,6.844.1,54.743.628,27.379.276,13.689.1,6.85.038h7.36l.736-.188a1.664,1.664,0,0,0,.628-.43,4.044,4.044,0,0,0,.817-1.383c.132-.3.157-.4.22-.553l.151-.43.27-.842c.333-1.119.628-2.212.905-3.306.553-2.193,1.05-4.4,1.533-6.561.955-4.4,1.835-8.749,2.69-13.13q2.514-13.155,4.764-26.341c1.489-8.8,2.9-17.6,4.123-26.454.6-4.437,1.188-8.856,1.533-13.394.044-.565.076-1.137.1-1.721v-1.86a5.288,5.288,0,0,0-.283-1.6,2.065,2.065,0,0,0-.39-.66c-.038-.05-.107-.082-.139-.132l-.182-.082-.358-.151c-.471-.2-.987-.43-1.427-.628l-.886-.172c-2.351-.43-4.576-.628-6.826-.823-8.969-.7-17.875-.946-26.793-1.2s-17.831-.358-26.75-.459q-26.737-.3-53.468-.172c-4.984,0-4.965,3.595,0,3.551q26.706-.086,53.423.172c8.9.1,17.8.239,26.693.465s17.793.5,26.592,1.188c2.187.182,4.4.39,6.436.767l.748.145h.057v1.549c0,.528-.05,1.069-.086,1.609-.333,4.349-.918,8.767-1.508,13.164-1.219,8.8-2.627,17.6-4.1,26.348s-3.059,17.528-4.758,26.252c-.848,4.362-1.721,8.717-2.667,13.048-.478,2.162-.968,4.324-1.508,6.449-.27,1.063-.547,2.124-.86,3.142l-.239.748-.12.358-.086.226h-6.323l-6.838-.032-13.68-.107-27.366-.27-54.744-.627-10.566-.157.823-5.889c.314-2.257.628-4.5,1.006-6.744,1.4-8.969,3.256-17.85,5.223-26.758l11.835-53.424c.817-3.91-2.667-4.67-3.5-.829" transform="translate(-184.987 -6.543)" fill="#232020"/>
            </g>
          </g>
        </g>
        <path id="Path_83870" data-name="Path 83870" d="M61.328,141.571c0,.076-.12.044-.251-.044a.42.42,0,0,1-.132-.172.6.6,0,0,1,0-.151s.251-.308.327-.409a1.36,1.36,0,0,1,.258-.245l.565-.465a1.094,1.094,0,0,1,.139-.086,1.641,1.641,0,0,0,.459-.314.119.119,0,0,0,.057-.076,2.408,2.408,0,0,1,.471-.4c.157-.069.3-.145.447-.22a.086.086,0,0,1,.069,0c.076,0,.107,0,.151-.05a1.655,1.655,0,0,1,.182-.1.419.419,0,0,1,.126,0c.044,0,.086.086.086.1a.29.29,0,0,0,.063.086v.032a1.766,1.766,0,0,1-.232.421s-.43.415-.471.465a.2.2,0,0,1-.086.05s-.344.339-.365.352a.585.585,0,0,1-.245.151h-.051a3.186,3.186,0,0,1-.4.3,2.331,2.331,0,0,0-.194.157H62.2c-.157.132-.327.239-.471.384,0,.032-.245.12-.276.157s-.12.05-.126.082" transform="translate(-22.638 -51.574)" fill="#221f1f"/>
        <path id="Path_83871" data-name="Path 83871" d="M64.31,141.459c.069,0,.038.1-.057.232a.535.535,0,0,1-.172.132h-.139s-.276-.213-.371-.276a1.456,1.456,0,0,1-.22-.22c-.126-.163-.264-.327-.4-.49a.474.474,0,0,1-.076-.12,1.257,1.257,0,0,0-.27-.4s0-.044-.063-.05a1.823,1.823,0,0,1-.352-.4c-.05-.139-.113-.264-.172-.4v-.058a.145.145,0,0,0-.038-.139.663.663,0,0,1-.082-.163v-.113c0-.038.086-.082.1-.082a.344.344,0,0,0,.086-.069h.032a1.532,1.532,0,0,1,.384.188l.409.4a.172.172,0,0,1,.044.082s.3.3.308.308a.529.529,0,0,1,.132.22c.013.1,0,0,0,.038a2.716,2.716,0,0,1,.251.352,1.878,1.878,0,0,0,.139.172.1.1,0,0,1,0,.038.135.135,0,0,0,0,.05,5.018,5.018,0,0,0,.327.4,1.276,1.276,0,0,0,.139.245.258.258,0,0,1,.063.126" transform="translate(-22.994 -51.577)" fill="#221f1f"/>
        <path id="Path_83872" data-name="Path 83872" d="M62.936,141.8c0,.069-.063.1-.22.114a.63.63,0,0,1-.213-.057.939.939,0,0,1-.076-.126v-.49a1.45,1.45,0,0,1,.044-.333c.05-.22.095-.447.145-.666a.553.553,0,0,1,.057-.139,1.563,1.563,0,0,0,.151-.5v-.086a2,2,0,0,1,.114-.565c.082-.139.139-.276.207-.415a.074.074,0,0,1,.038-.063.215.215,0,0,0,.086-.12.774.774,0,0,1,.082-.182.4.4,0,0,1,.095-.076h.126a.186.186,0,0,1,.107.032h.038a1.963,1.963,0,0,1,.086.447s-.076.553-.076.628a.219.219,0,0,1-.038.086s-.057.453-.057.471a.332.332,0,0,1-.1.251c-.1.076,0,0,0,.05a2.819,2.819,0,0,1-.126.447.392.392,0,0,1-.05.232v.086a5.257,5.257,0,0,0-.126.547c0,.044-.113.232-.12.283s-.188.113-.172.139" transform="translate(-23.191 -51.301)" fill="#221f1f"/>
        <path id="Path_83873" data-name="Path 83873" d="M64.217,140.513c.057-.038.1.044.132.2a.455.455,0,0,1,0,.213.417.417,0,0,1-.1.107s-.339.063-.447.086a1.261,1.261,0,0,1-.308,0h-.628a.508.508,0,0,1-.139,0,1.385,1.385,0,0,0-.478-.069.108.108,0,0,0-.082,0,1.9,1.9,0,0,1-.534,0c-.132-.057-.27-.086-.409-.132h-.057a.145.145,0,0,0-.126-.063.968.968,0,0,1-.182-.05.443.443,0,0,1-.082-.076.157.157,0,0,1,0-.132v-.151a1.743,1.743,0,0,1,.4-.163l.572-.032a.265.265,0,0,1,.095,0h.43a.493.493,0,0,1,.245.05.077.077,0,0,0,.05,0,2.5,2.5,0,0,1,.43.044H63.3a3.617,3.617,0,0,0,.521,0c.038,0,.226.076.27.069s.095.113.12.095" transform="translate(-22.573 -52.101)" fill="#221f1f"/>
        <path id="Path_83874" data-name="Path 83874" d="M73.287,81.13c0,.069-.12.044-.251-.044a.455.455,0,0,1-.132-.172.552.552,0,0,1,0-.151,4.33,4.33,0,0,1,.327-.409,1.627,1.627,0,0,1,.258-.251l.565-.459a.637.637,0,0,1,.139-.086,1.641,1.641,0,0,0,.459-.314.16.16,0,0,0,.055-.083,2.222,2.222,0,0,1,.471-.4l.447-.22s0-.032.069,0,.107,0,.151-.05a1.011,1.011,0,0,1,.182-.1.421.421,0,0,1,.126,0c.044,0,.086.086.082.1s.044.063.069.086v.032a1.9,1.9,0,0,1-.232.421s-.43.409-.471.465a.225.225,0,0,1-.095.05l-.358.352a.578.578,0,0,1-.245.151.056.056,0,0,0-.05.032,2.934,2.934,0,0,1-.4.289,2.411,2.411,0,0,0-.194.163h-.1a5.322,5.322,0,0,0-.465.384,1.708,1.708,0,0,0-.283.157c-.038.044-.113.019-.12.05" transform="translate(-27.081 -29.121)" fill="#221f1f"/>
        <path id="Path_83875" data-name="Path 83875" d="M76.308,81.009c.069,0,.038.107-.057.239a.258.258,0,0,1-.321.12s-.276-.207-.365-.27a1.271,1.271,0,0,1-.22-.226l-.4-.484a.785.785,0,0,1-.069-.126,1.424,1.424,0,0,0-.27-.4s0-.044-.069-.05a2.03,2.03,0,0,1-.344-.409c-.05-.132-.12-.264-.172-.4v-.057a.138.138,0,0,0-.038-.139.663.663,0,0,1-.082-.163.345.345,0,0,1,0-.113.151.151,0,0,1,.1-.082c.038,0,.063-.044.086-.069a1.773,1.773,0,0,1,.384.182s.365.371.409.409a.172.172,0,0,1,.044.082s.3.289.308.3a.529.529,0,0,1,.132.22.066.066,0,0,0,0,.044,3.473,3.473,0,0,1,.251.352,1.789,1.789,0,0,0,.139.172v.082a5.227,5.227,0,0,0,.327.409c.032,0,.1.213.132.245s.063.12.1.126" transform="translate(-27.449 -29.12)" fill="#221f1f"/>
        <path id="Path_83876" data-name="Path 83876" d="M74.892,81.35c0,.069-.063.1-.22.107a.516.516,0,0,1-.213-.05,1.047,1.047,0,0,1-.082-.126v-.493a1.147,1.147,0,0,1,.044-.333c.05-.22.095-.447.145-.666a.689.689,0,0,1,.038-.151,1.516,1.516,0,0,0,.151-.5.108.108,0,0,0,0-.086,1.955,1.955,0,0,1,.113-.559c.082-.139.139-.283.207-.421a.061.061,0,0,1,.038-.057c.038-.013.069-.076.086-.12a.688.688,0,0,1,.082-.182,1.135,1.135,0,0,1,.095-.076c.038-.025.113,0,.126,0h.145a1.9,1.9,0,0,1,.086.447s-.076.553-.076.629a.289.289,0,0,1-.044.086s-.05.453-.057.465,0,.182-.095.258,0,.032,0,.05a4.055,4.055,0,0,1-.126.447,1.409,1.409,0,0,0-.05.232v.038a.335.335,0,0,0,0,.05,5.231,5.231,0,0,0-.12.547c0,.044-.113.226-.12.276s-.172.151-.157.182" transform="translate(-27.63 -28.838)" fill="#221f1f"/>
        <path id="Path_83877" data-name="Path 83877" d="M76.176,80.094c.063-.038.107.044.139.2a.454.454,0,0,1,0,.213l-.1.1s-.339.069-.447.095a1.315,1.315,0,0,1-.314,0h-.628a.566.566,0,0,1-.139,0,1.366,1.366,0,0,0-.478-.063.13.13,0,0,0-.082,0,1.692,1.692,0,0,1-.534,0c-.132-.057-.27-.086-.409-.132h-.063c-.019,0-.082-.063-.126-.069a.629.629,0,0,1-.172-.044.316.316,0,0,1-.082-.082v-.276a1.5,1.5,0,0,1,.4-.163h.572a.14.14,0,0,1,.086,0h.44a.551.551,0,0,1,.245.05c.082.05,0,0,.05,0a3.375,3.375,0,0,1,.43.05h.308a4.814,4.814,0,0,0,.521,0c.038,0,.226.076.27.069s.1.069.12.05" transform="translate(-27.022 -29.669)" fill="#221f1f"/>
        <path id="Path_83878" data-name="Path 83878" d="M164.669,43.651c0,.076-.12.044-.251-.044a.42.42,0,0,1-.132-.172,1.215,1.215,0,0,1,0-.151s.251-.308.327-.409a1.7,1.7,0,0,1,.264-.251l.559-.459a1.1,1.1,0,0,1,.139-.086,1.641,1.641,0,0,0,.459-.314.151.151,0,0,0,.063-.076,2.209,2.209,0,0,1,.465-.4c.157-.069.3-.145.447-.22a.052.052,0,0,1,.069,0c.032.032.107,0,.151-.05a1.357,1.357,0,0,1,.188-.1.421.421,0,0,1,.126,0c.038,0,.082.086.082.1a.24.24,0,0,0,.069.086,2.169,2.169,0,0,1-.232.421s-.43.415-.477.465a.2.2,0,0,1-.086.05l-.358.352a.538.538,0,0,1-.251.151h-.05a3.134,3.134,0,0,1-.4.3,2.344,2.344,0,0,0-.194.157H165.6a.135.135,0,0,0-.05,0,5.32,5.32,0,0,0-.465.384c0,.032-.251.12-.283.157s-.113.082-.126.113" transform="translate(-61.028 -15.198)" fill="#221f1f"/>
        <path id="Path_83879" data-name="Path 83879" d="M167.676,43.539c.069,0,.038.1-.057.232a.516.516,0,0,1-.172.132H167.3s-.276-.213-.365-.276a1.074,1.074,0,0,1-.22-.22l-.4-.49a.475.475,0,0,1-.076-.12,1.256,1.256,0,0,0-.27-.4s0-.044-.063-.05a1.643,1.643,0,0,1-.344-.4c-.057-.139-.12-.264-.182-.4v-.063a.2.2,0,0,0-.038-.139,1.018,1.018,0,0,1-.082-.163.246.246,0,0,1,0-.113c0-.038.082-.082.095-.082a.345.345,0,0,0,.086-.069,1.583,1.583,0,0,1,.39.188s.358.365.4.4a.172.172,0,0,1,.044.082l.314.308a.43.43,0,0,1,.126.213c.006.095,0,.032,0,.044a2.715,2.715,0,0,1,.251.352c.044.063.095.113.139.172v.086a4.851,4.851,0,0,0,.333.4,1.2,1.2,0,0,0,.132.245c.038.025.076.12.1.126" transform="translate(-61.39 -15.2)" fill="#221f1f"/>
        <path id="Path_83880" data-name="Path 83880" d="M166.276,43.881c0,.069-.057.1-.22.113a.543.543,0,0,1-.207-.057,1.052,1.052,0,0,1-.082-.126v-.49a1.45,1.45,0,0,1,.044-.333c.05-.22.095-.447.145-.666a.553.553,0,0,1,.057-.139,1.816,1.816,0,0,0,.157-.5V41.6a1.793,1.793,0,0,1,.113-.565c.076-.139.139-.276.207-.415,0,0,0-.05.032-.063a.222.222,0,0,0,.086-.12,1.387,1.387,0,0,1,.082-.182.405.405,0,0,1,.095-.076h.126a.185.185,0,0,1,.107.032h.038a1.664,1.664,0,0,1,.086.447s-.076.553-.076.628a.215.215,0,0,1-.038.086s-.05.453-.057.465a.5.5,0,0,1-.1.258v.05a2.243,2.243,0,0,1-.126.447,1.028,1.028,0,0,1-.05.232v.086a5.247,5.247,0,0,0-.126.547c0,.044-.114.226-.114.283s-.188.107-.182.139" transform="translate(-61.579 -14.926)" fill="#221f1f"/>
        <path id="Path_83881" data-name="Path 83881" d="M167.547,42.581c.057-.038.1.044.132.2a.258.258,0,0,1-.12.321s-.333.063-.447.086a1.262,1.262,0,0,1-.308,0h-.628a.389.389,0,0,1-.139-.032,1.534,1.534,0,0,0-.478-.063h-.076a1.9,1.9,0,0,1-.534,0c-.139-.057-.276-.086-.415-.132h-.057c-.013,0-.082-.057-.126-.063a.817.817,0,0,1-.172-.05c-.032,0-.057-.05-.086-.082s0-.113,0-.126V42.53a.077.077,0,0,1,0-.038,1.64,1.64,0,0,1,.4-.163l.572-.032h.521a.537.537,0,0,1,.245.05.086.086,0,0,0,.05,0,2.382,2.382,0,0,1,.43.044h.308a3.614,3.614,0,0,0,.521,0c.038,0,.226.076.27.069s.12.172.145.12" transform="translate(-60.952 -15.713)" fill="#221f1f"/>
        <g id="Group_36486" data-name="Group 36486" transform="translate(75.331 67.797)" opacity="0.6">
          <g id="Group_36485" data-name="Group 36485">
            <g id="Group_36484" data-name="Group 36484" clip-path="url(#clip-path-5)">
              <path id="Path_83882" data-name="Path 83882" d="M120.218,110.056c0,.05-.069.032-.157,0a.279.279,0,0,1-.076-.107.472.472,0,0,1,0-.095s.163-.194.213-.258a.98.98,0,0,1,.172-.157l.365-.3.086-.057a1.259,1.259,0,0,0,.3-.2.107.107,0,0,0,.038-.05,1.735,1.735,0,0,1,.3-.258l.289-.145h.038a.122.122,0,0,0,.1-.032.774.774,0,0,1,.12-.069h.076a.457.457,0,0,1,.05.057.06.06,0,0,0,.044.057,1.348,1.348,0,0,1-.157.264l-.308.3a.067.067,0,0,0-.057.038l-.232.22a.379.379,0,0,1-.157.1,1.807,1.807,0,0,1-.258.188l-.132.107h-.032a2.826,2.826,0,0,0-.3.245,1.446,1.446,0,0,0-.182.1c-.025.025-.132.038-.139.057" transform="translate(-119.903 -108.039)" fill="#221f1f"/>
              <path id="Path_83883" data-name="Path 83883" d="M122.184,110.008c.038,0,0,.063-.032.145s-.086.082-.107.076h-.076s-.172-.139-.232-.172a1.579,1.579,0,0,1-.139-.145l-.258-.314a.376.376,0,0,1-.05-.082.842.842,0,0,0-.172-.258.065.065,0,0,0-.038,0,1.118,1.118,0,0,1-.226-.258,2.335,2.335,0,0,0-.12-.258.037.037,0,0,1,0-.038.07.07,0,0,0,0-.082l-.057-.107a.258.258,0,0,1,0-.069s.05-.057.063-.05.038,0,.05-.044a1.328,1.328,0,0,1,.245.126s.226.239.258.258a.43.43,0,0,1,0,.057l.194.194a.3.3,0,0,1,.082.145,1.933,1.933,0,0,1,.163.226c0,.038.063.069.086.107h0v.032a1.04,1.04,0,0,0,.213.258c.082.076.063.139.086.157s.044.095.063.1" transform="translate(-120.16 -108.047)" fill="#221f1f"/>
              <path id="Path_83884" data-name="Path 83884" d="M121.249,110.218c0,.044-.038.063-.132.069a.236.236,0,0,1-.126,0,.376.376,0,0,1-.05-.082v-.314a1.217,1.217,0,0,1,0-.213c.038-.139.063-.283.095-.43a.377.377,0,0,1,.038-.086,1.041,1.041,0,0,0,.095-.321.086.086,0,0,0,0-.057,1.224,1.224,0,0,1,.069-.365c.05-.086.086-.182.132-.27s0-.032,0-.038a.792.792,0,0,0,.057-.082.825.825,0,0,1,.05-.114.207.207,0,0,1,.057-.05h.139a1.231,1.231,0,0,1,.05.283s-.05.358-.057.4a.206.206,0,0,0,0,.063c0,.025-.038.289-.044.3a.3.3,0,0,1-.057.163.044.044,0,0,0,0,.038,2.31,2.31,0,0,1-.082.283.651.651,0,0,0-.032.151v.032a3.368,3.368,0,0,0-.076.352,1.069,1.069,0,0,0-.076.182c0,.032-.057.095-.05.113" transform="translate(-120.257 -107.868)" fill="#221f1f"/>
              <path id="Path_83885" data-name="Path 83885" d="M122.081,109.438c.038,0,.069,0,.086.12a.293.293,0,0,1,0,.132l-.063.057a2.523,2.523,0,0,1-.289.057.718.718,0,0,1-.2,0h-.5a.855.855,0,0,0-.308-.044.086.086,0,0,0-.05,0,1.273,1.273,0,0,1-.344,0l-.264-.076h-.038a.08.08,0,0,1-.082-.038.379.379,0,0,1-.114,0,.172.172,0,0,1-.057-.044.114.114,0,0,1,0-.082v-.063a.921.921,0,0,1,.251-.095h.71a.349.349,0,0,1,.157,0h.032a2.031,2.031,0,0,1,.276,0h.2a2.943,2.943,0,0,0,.333,0,1.416,1.416,0,0,0,.172.044s.069.044.082.032" transform="translate(-119.855 -108.42)" fill="#221f1f"/>
            </g>
          </g>
        </g>
        <g id="Group_36489" data-name="Group 36489" transform="translate(83.21 154.01)" opacity="0.6">
          <g id="Group_36488" data-name="Group 36488">
            <g id="Group_36487" data-name="Group 36487" clip-path="url(#clip-path-6)">
              <path id="Path_83886" data-name="Path 83886" d="M132.762,247.272c0,.05-.076,0-.157,0s-.082-.086-.076-.107a.474.474,0,0,1,0-.095s.163-.194.213-.258a.791.791,0,0,1,.172-.157l.377-.308.086-.057a1.523,1.523,0,0,0,.3-.2.107.107,0,0,0,.038-.05,1.316,1.316,0,0,1,.3-.251c.1-.044.188-.1.283-.151s0,0,.044,0,.069,0,.095-.032a.773.773,0,0,1,.12-.069h.082a.457.457,0,0,1,.05.057.061.061,0,0,0,.038.057,1.718,1.718,0,0,1-.157.264l-.308.3a.067.067,0,0,0-.057.038,2.4,2.4,0,0,1-.232.22.394.394,0,0,1-.163.1,1.512,1.512,0,0,1-.258.188l-.126.107h-.038a3.688,3.688,0,0,0-.3.245,1.448,1.448,0,0,0-.182.1c-.025.025-.139.044-.145.063" transform="translate(-132.441 -245.224)" fill="#221f1f"/>
              <path id="Path_83887" data-name="Path 83887" d="M134.711,247.213c.044,0,0,.063-.032.145a.294.294,0,0,1-.1.082h-.086s-.172-.139-.232-.172a.754.754,0,0,1-.139-.145l-.264-.314a.344.344,0,0,1-.044-.082,1.185,1.185,0,0,0-.172-.258.086.086,0,0,0-.044-.032,1.249,1.249,0,0,1-.22-.258c-.038-.086-.082-.172-.12-.251s0,0,0-.044V245.8a.425.425,0,0,1-.057-.107.259.259,0,0,1,0-.069.457.457,0,0,1,.057-.05.06.06,0,0,0,.057-.044,1.11,1.11,0,0,1,.239.126s.232.239.264.258a.172.172,0,0,1,0,.057l.2.194a.3.3,0,0,1,.082.145s.107.151.164.226a1.306,1.306,0,0,0,.086.107v.032a2.706,2.706,0,0,0,.213.258s.063.139.082.164.05.114.069.12" transform="translate(-132.69 -245.221)" fill="#221f1f"/>
              <path id="Path_83888" data-name="Path 83888" d="M133.8,247.42c0,.044-.038.063-.132.069a.276.276,0,0,1-.132-.032.343.343,0,0,1-.044-.082v-.314a.88.88,0,0,1,.032-.213l.095-.43a.357.357,0,0,1,.032-.086,1.065,1.065,0,0,0,.1-.321.064.064,0,0,0,0-.057,1.441,1.441,0,0,1,.076-.365,2.513,2.513,0,0,0,.126-.27v-.038a.793.793,0,0,0,.057-.082.446.446,0,0,1,.05-.114.116.116,0,0,1,.057-.05h.139a1.27,1.27,0,0,1,.044.283s-.05.358-.05.4a.119.119,0,0,1,0,.063s-.032.289-.038.3,0,.12-.063.163,0,0,0,.038a2.435,2.435,0,0,1-.076.283,1.263,1.263,0,0,0-.038.151,3.536,3.536,0,0,0-.082.352c0,.032-.069.151-.076.182s-.082.172-.076.172" transform="translate(-132.798 -245.038)" fill="#221f1f"/>
              <path id="Path_83889" data-name="Path 83889" d="M134.619,246.644c.038,0,.063,0,.086.12a.292.292,0,0,1,0,.132l-.063.057-.289.057a.717.717,0,0,1-.2,0h-.5a.883.883,0,0,0-.308-.044.07.07,0,0,0-.05,0,1.275,1.275,0,0,1-.344,0l-.264-.076h-.038c-.006,0-.057-.032-.082-.038a.374.374,0,0,1-.114-.032.178.178,0,0,1-.057-.044.077.077,0,0,1,0-.076v-.069a1.041,1.041,0,0,1,.258-.095h.7a.3.3,0,0,1,.163.032h.032a2.142,2.142,0,0,1,.276.032H134a2.948,2.948,0,0,0,.333,0c.032,0,.151.05.172.044s.086.013.107,0" transform="translate(-132.391 -245.595)" fill="#221f1f"/>
            </g>
          </g>
        </g>
        <path id="Path_83890" data-name="Path 83890" d="M138.308,98.17c0,.044-.076,0-.157,0a.279.279,0,0,1-.076-.107.394.394,0,0,1,0-.095s.163-.194.213-.258a1.388,1.388,0,0,1,.172-.163c.126-.095.245-.194.365-.3a.419.419,0,0,1,.086-.057,1.09,1.09,0,0,0,.3-.207s.032,0,.038-.044a1.735,1.735,0,0,1,.3-.258c.1-.044.188-.095.283-.145s0,0,.044,0a.116.116,0,0,0,.1-.032l.12-.063h.076c.025,0,.05.05.05.057a.061.061,0,0,0,.038.057,1.533,1.533,0,0,1-.157.264l-.308.3h-.06l-.232.226a.379.379,0,0,1-.157.1c-.082.069-.172.126-.258.188s-.086.069-.132.1a3.54,3.54,0,0,0-.3.245c-.089.095-.157.082-.182.107s-.157.063-.163.082" transform="translate(-51.292 -35.829)" fill="#221f1f"/>
        <path id="Path_83891" data-name="Path 83891" d="M140.276,98.093c.044,0,0,.069,0,.151a.374.374,0,0,1-.107.076h-.086l-.232-.182a.5.5,0,0,1-.139-.145c-.086-.107-.172-.207-.258-.314a.323.323,0,0,1-.05-.076.938.938,0,0,0-.172-.258l-.038-.032a1.022,1.022,0,0,1-.226-.264,1.842,1.842,0,0,0-.12-.251v-.038a.086.086,0,0,0,0-.086l-.057-.1a.3.3,0,0,1,0-.076s.05-.05.063-.05,0,0,.05-.038a1.325,1.325,0,0,1,.245.126s.226.239.258.264a.345.345,0,0,1,0,.05l.194.2a.289.289,0,0,1,.082.139v.032a1.4,1.4,0,0,1,.163.22.8.8,0,0,0,.086.113c.076.082.132.182.213.258s.063.139.086.157.032.126.044.126" transform="translate(-51.556 -35.814)" fill="#221f1f"/>
        <path id="Path_83892" data-name="Path 83892" d="M139.342,98.3c0,.044-.038.069-.132.076a.3.3,0,0,1-.126-.032l-.05-.082v-.314a1.215,1.215,0,0,1,0-.213c.038-.145.063-.289.095-.43a.616.616,0,0,1,.038-.095,1.118,1.118,0,0,0,.095-.321.064.064,0,0,0,0-.057,1.573,1.573,0,0,1,.076-.365c.05-.086.086-.172.132-.264s0-.032,0-.038a.8.8,0,0,0,.057-.082.477.477,0,0,1,.05-.12.193.193,0,0,1,.057-.044h.139a1.2,1.2,0,0,1,.05.283l-.057.4a.108.108,0,0,1,0,.057s0,.289-.038.3a.325.325,0,0,1-.057.163.039.039,0,0,0,0,.032,2.194,2.194,0,0,1-.082.289,1.259,1.259,0,0,0-.038.151,2.4,2.4,0,0,0-.076.352,1.589,1.589,0,0,0-.076.182,1.073,1.073,0,0,0-.057.172" transform="translate(-51.648 -35.635)" fill="#221f1f"/>
        <path id="Path_83893" data-name="Path 83893" d="M140.17,97.523c.038,0,.063,0,.086.12a.265.265,0,0,1,0,.126.3.3,0,0,1-.063.063,2.74,2.74,0,0,1-.289.05.719.719,0,0,1-.2,0h-.5a1.02,1.02,0,0,0-.308-.038.076.076,0,0,0-.05,0,1.064,1.064,0,0,1-.344,0l-.264-.082a.044.044,0,0,1-.038,0,.086.086,0,0,0-.082-.038l-.114-.032a.067.067,0,0,1-.057-.05.086.086,0,0,1,0-.076V97.5a.908.908,0,0,1,.251-.1h.71a.285.285,0,0,1,.157.032h.032a2.036,2.036,0,0,1,.276.032h.194a3.045,3.045,0,0,0,.339,0,1.393,1.393,0,0,0,.172.038s.069.032.082.025" transform="translate(-51.244 -36.181)" fill="#221f1f"/>
        <path id="Path_83894" data-name="Path 83894" d="M98.4,235.806c0,.044-.076,0-.157,0a.3.3,0,0,1-.082-.107.394.394,0,0,1,0-.095s.163-.194.213-.258a1.017,1.017,0,0,1,.172-.163l.358-.3.095-.057a1.316,1.316,0,0,0,.289-.2l.038-.05a1.569,1.569,0,0,1,.308-.258l.283-.145h.044a.121.121,0,0,0,.095-.038l.12-.063h.082c.032,0,.05.05.044.057s0,.038.044.057a1.634,1.634,0,0,1-.151.264s-.283.264-.308.3a.129.129,0,0,1-.057.032l-.239.226a.379.379,0,0,1-.157.1h0a1.516,1.516,0,0,1-.258.188l-.126.107h-.032c-.095.082-.207.151-.3.239s-.157.082-.172.107-.132.019-.139.057" transform="translate(-36.466 -86.956)" fill="#221f1f"/>
        <path id="Path_83895" data-name="Path 83895" d="M100.378,235.709c.044,0,0,.063,0,.145a.321.321,0,0,1-.1.076h-.095l-.226-.172a1.048,1.048,0,0,1-.145-.145c-.082-.107-.172-.213-.258-.314a.344.344,0,0,1-.044-.082.938.938,0,0,0-.172-.258.116.116,0,0,0-.044-.032,1.152,1.152,0,0,1-.22-.264c-.038-.082-.082-.163-.12-.251s0,0,0-.038v-.082a.425.425,0,0,1-.057-.107.153.153,0,0,1,0-.076s.05-.05.057-.044.038,0,.057-.044a.72.72,0,0,1,.239.126l.258.258a.1.1,0,0,1,0,.057l.194.194c0,.044.082.082.086.139a.053.053,0,0,0,0,.032,1.477,1.477,0,0,1,.163.226l.095.107v.032a2.719,2.719,0,0,0,.207.258,1.474,1.474,0,0,0,.086.157c.019.019.019.1.038.107" transform="translate(-36.736 -86.934)" fill="#221f1f"/>
        <path id="Path_83896" data-name="Path 83896" d="M99.441,235.912c0,.044-.038.063-.139.069a.244.244,0,0,1-.126-.032.258.258,0,0,1-.044-.082v-.314a.811.811,0,0,1,0-.213l.095-.43a.553.553,0,0,1,.032-.095.953.953,0,0,0,.1-.314.211.211,0,0,0,0-.063,1.228,1.228,0,0,1,.076-.358c.044-.086.082-.182.126-.27s0-.032,0-.038.044-.05.05-.082a.827.827,0,0,1,.05-.113.2.2,0,0,1,.057-.05.093.093,0,0,1,.076,0h.069a1.006,1.006,0,0,1,.05.283s-.05.358-.05.4v.057c0,.019-.038.289-.038.3a.215.215,0,0,1-.063.163v.032a1.549,1.549,0,0,1-.082.289v.151h0a3.513,3.513,0,0,1-.076.352c-.013.12-.076.151-.076.182s-.095.157-.086.172" transform="translate(-36.823 -86.75)" fill="#221f1f"/>
        <path id="Path_83897" data-name="Path 83897" d="M100.253,235.149c.044,0,.069,0,.086.12a.225.225,0,0,1,0,.132.542.542,0,0,1-.069.057,2.4,2.4,0,0,1-.283.057.719.719,0,0,1-.2,0h-.407a.207.207,0,0,1-.086,0,1.041,1.041,0,0,0-.308-.038.1.1,0,0,0-.057,0,1.277,1.277,0,0,1-.339,0c-.086-.031-.172-.05-.27-.076s0,0-.038,0-.05-.032-.076-.038a.373.373,0,0,1-.12-.031l-.05-.044c-.05-.044,0-.076,0-.082v-.063a1.04,1.04,0,0,1,.258-.095H99a.344.344,0,0,1,.157.032,1.935,1.935,0,0,1,.276.032h.2a2.945,2.945,0,0,0,.333,0,1.42,1.42,0,0,0,.172.044.577.577,0,0,0,.113-.006" transform="translate(-36.41 -87.316)" fill="#221f1f"/>
        <path id="Path_83898" data-name="Path 83898" d="M187.442,65.723,190.5,50.7c.365-1.835.723-3.664,1.088-5.487l4.123-19.273c.628-2.853,1.181-5.726,1.729-8.567.717-3.645,1.352-7.329,2.288-10.927.584-2.237,1.565.968.711,5.162-1.508,7.436-3.092,14.845-4.818,22.3-1.037,4.456-1.885,9.145-2.835,13.727q-1.527,7.542-3.067,15.134c-.628,3.105-1.257,6.209-1.829,9.321-.905,4.707-1.807,9.427-2.6,14.135-.3,1.822-.578,3.633-.848,5.437s-.5,3.614-.742,5.42c-.107.8-.213,1.578-.314,2.382-.4,2.98-.628,3.91-1.188,4.488a3.184,3.184,0,0,1-.365.384c-.384.239-.49-1.018-.276-3.218.628-6.539,1.766-13.356,2.986-20.181.9-5.066,1.885-10.144,2.86-15.21Z" transform="translate(-67.404 -2.118)" fill="#221f1f"/>
        <path id="Path_83899" data-name="Path 83899" d="M316.66,97.309c1.961-8.8,3.6-17.667,5.192-26.548s3.054-17.8,4.431-26.719c1.006-6.511,1.885-13.036,2.759-19.553.371-2.879.729-5.757,1.032-8.63.145-1.439.283-2.879.4-4.318a40.812,40.812,0,0,0,.157-4.262V6.462a.239.239,0,0,0-.069-.145.89.89,0,0,0-.182-.063,13.909,13.909,0,0,0-1.979-.478c-1.4-.245-2.822-.447-4.255-.6-2.866-.327-5.757-.565-8.649-.774-11.565-.8-23.174-1.257-34.776-1.622-10.3-.327-20.66-.528-30.888-.688-13.136-.188-26.328-.232-39.452-.516C202.2,1.416,212.584-.162,227.731,0Q247.844.22,268.013.73c13.444.365,26.907.817,40.432,1.635,4.044.258,8.126.528,12.237.886,2.055.194,4.117.39,6.195.688l1.559.232,1.571.321a7.444,7.444,0,0,1,.817.245l.553.182a1.119,1.119,0,0,1,.49.365,1.739,1.739,0,0,1,.251.572,2.666,2.666,0,0,1,.069.321,1.73,1.73,0,0,0,.038.27,7.724,7.724,0,0,1,.057.836,59.8,59.8,0,0,1-.308,6.323c-.182,2.08-.4,4.155-.628,6.222-.471,4.142-1.018,8.271-1.59,12.369q-1.885,13.526-4.18,27.026c-1.5,8.982-3.086,17.95-4.818,26.894-.7,3.6-1.433,7.2-2.231,10.785-.4,1.8-.81,3.589-1.257,5.374-.232.892-.477,1.778-.755,2.667-.145.447-.3.892-.478,1.345s-.54,1.352-1.257,1.257H308.83l-5.808-.038-50.841-.6-38.861-.3-8.51-.069c-10.647-.126-14.035-.3-16.341-.78-.521-.113-1.2-.226-1.508-.333-1.012-.358,3.331-.572,11.131-.553,23.129.038,47.522.314,72.009.6l22.243.251,11.137.107,5.562.038h5.3l.057-.126c.145-.333.276-.71.4-1.094.251-.774.471-1.578.688-2.388.43-1.615.81-3.256,1.181-4.9Z" transform="translate(-69.396 0.001)" fill="#221f1f"/>
        <path id="Path_83900" data-name="Path 83900" d="M260.55,104.808l32.2.578,16.1.283h.629c.038,0,.05-.038.069-.069v-.044l.076-.172a17.455,17.455,0,0,0,.628-1.816c.377-1.257.711-2.552,1.033-3.847.628-2.6,1.219-5.211,1.778-7.825,1.635-7.657,3.054-15.355,4.463-23.047q2.477-13.569,4.632-27.2c.711-4.545,1.389-9.094,1.986-13.645.3-2.275.578-4.56.8-6.832.113-1.144.213-2.282.27-3.413.032-.565.05-1.131.038-1.678v-.742c0-.038-.031-.258-.163-.27l-.628-.194-.817-.172c-.547-.12-1.107-.207-1.672-.283-1.118-.172-2.256-.289-3.394-.415-2.275-.232-4.56-.415-6.857-.572-4.576-.321-9.17-.547-13.759-.755-12.231-.534-24.513-.829-36.693-1.05L214.381,11C204.659,10.847,217,9.426,235,9.64c15.084.182,30.137.453,45.257.905,7.542.226,15.084.509,22.664.9,3.771.2,7.542.421,11.357.729.946.069,1.885.157,2.839.245s1.886.182,2.847.3,1.886.239,2.853.384c.478.057.968.182,1.445.276a5.977,5.977,0,0,1,.742.172l.93.308a1.2,1.2,0,0,1,.66.848,4.586,4.586,0,0,1,.107.559v1.766c-.032.905-.095,1.807-.172,2.7-.44,4.818-1.118,9.636-1.807,14.455s-1.458,9.71-2.244,14.582c-1.578,9.742-3.275,19.531-5.116,29.195-1.012,5.317-2.065,10.622-3.218,15.917-.578,2.653-1.175,5.292-1.886,7.926a38.524,38.524,0,0,1-1.2,3.953l-.107.251c-.038.082-.063.163-.139.3a1.93,1.93,0,0,1-.471.628.577.577,0,0,1-.344.151,1.563,1.563,0,0,1-.39.038h-.628l-2.024-.032-32.451-.565-39.936-.688-30.263-.509-7.542-.126-4.1-.069h-.591v-.076l.095-.666.172-1.213.276-1.885c.723-4.984,1.578-9.931,2.438-14.864,2.734-15.324,5.656-30.294,8.69-45.366.673-3.319,1.339-6.568,2.024-9.912,2.6-12.394,3.564-16.3,4.532-18.856.226-.584.484-1.364.628-1.7.565-1.119-.3,3.972-2.143,13.054-2.74,13.469-5.537,27.3-8.26,41.356q-2.043,10.54-3.958,21.225c-.629,3.564-1.257,7.134-1.807,10.685-.3,1.785-.565,3.583-.817,5.374l-.194,1.345h1.729l64.982,1.056Z" transform="translate(-71.35 -3.574)" fill="#221f1f"/>
        <path id="Path_83901" data-name="Path 83901" d="M390.163,110.181c-2.231.955-6.04-.069-6.046-.258a18.432,18.432,0,0,0,3.972-.628c2.784-1.044,18.929-98.143,16.473-100.563-.521-.528-.12-.2-1.584-.629a4.468,4.468,0,0,1,3.476,1.162c2.678,1.936-14.569,100.173-16.292,100.915" transform="translate(-142.693 -3.008)" fill="#221f1f"/>
        <path id="Path_83902" data-name="Path 83902" d="M404.049,25.355c.384-2.778.748-5.556,1.05-8.341.151-1.389.289-2.778.384-4.161.05-.688.086-1.383.095-2.065V9.805a2.111,2.111,0,0,0-.05-.384c-.013-.057,0-.057-.044-.069a3.142,3.142,0,0,0-1.257-.723,6.179,6.179,0,0,0-1.6-.188l.194-1.483c.258.069.509.132.755.182l.232.044a1.37,1.37,0,0,1,.358.1,2.046,2.046,0,0,1,.566.459,1.83,1.83,0,0,1,.409,1.05,7.156,7.156,0,0,1,.057.786v1.483c-.038.974-.114,1.936-.188,2.9-.164,1.885-.371,3.828-.591,5.732-.484,4.073-1,8.174-1.578,12.193-2.08,14.283-4.481,28.516-7.04,42.739-1.143,6.281-2.3,12.633-3.532,18.856-.628,3.288-1.314,6.574-2.093,9.855a41.443,41.443,0,0,1-1.4,4.909c-.038.1-.086.207-.132.314a2.664,2.664,0,0,1-.2.365,1.156,1.156,0,0,1-.327.371,1.328,1.328,0,0,1-.447.188,10.266,10.266,0,0,1-1.314.276c-.848.132-1.691.213-2.514.283l-.032-.54c.05,0,.163-.139.239-.289l.069-.12.086.038a1.812,1.812,0,0,0,.226.076c.157.05.327.095.5.139.34.082.688.145,1.037.194a10.637,10.637,0,0,0,2.086.12c.9-.05,1.371-.182,1.571-.163s.139.172-.251.421a5.2,5.2,0,0,1-2.13.628,10.694,10.694,0,0,1-1.691,0,7.066,7.066,0,0,1-.981-.107l-.521-.1a2.91,2.91,0,0,1-.289-.082l-.172-.057-.126-.063-.126-.095a1.036,1.036,0,0,1-.107-.132.834.834,0,0,1-.12-.371v-.628l.673-.107c.9-.145,1.886-.3,2.872-.516l.358-.086.172-.044.12-.038s0,.038.044-.1a15.652,15.652,0,0,0,.521-1.5c.578-1.942,1.05-3.972,1.508-5.99s.886-4.06,1.307-6.1c.836-4.073,1.628-8.174,2.4-12.256q2.323-12.294,4.481-24.693c1.721-9.895,3.269-20.232,4.651-30.408.43-3.142.829-6.281,1.175-9.427.172-1.571.327-3.142.44-4.72.063-.786.107-1.571.126-2.351V9.428a4.6,4.6,0,0,0-.05-.534.774.774,0,0,0-.038-.172.233.233,0,0,0-.057-.1.759.759,0,0,0-.139-.12h-.267c-.3-.057-.578-.126-.854-.2L398.4,7.178l4.3.038a7.539,7.539,0,0,1,1.955.239,4.166,4.166,0,0,1,1.4.7l.4.314a1.219,1.219,0,0,1,.43.8,5.17,5.17,0,0,1,.082.66v1.257c0,.81-.063,1.609-.126,2.409-.12,1.6-.289,3.183-.465,4.758-.8,6.913-1.841,13.827-2.9,20.691-1.622,10.411-3.4,20.848-5.179,31.156-1.383,8.008-2.715,15.87-4.186,23.77-.327,1.741-.628,3.442-.987,5.2-1.3,6.493-1.923,8.541-2.678,9.817a2.768,2.768,0,0,1-.565.78h-.057a.258.258,0,0,0-.057-.076.38.38,0,0,1,0-.107c.044-.245.12-.628.226-1.2.226-1.181.591-3.017,1.05-5.38,1.377-7.033,2.667-14.3,3.972-21.659S397.625,66.5,398.882,59c1.885-11.131,3.7-22.325,5.229-33.525Z" transform="translate(-142.318 -2.585)" fill="#221f1f"/>
        <path id="Path_83903" data-name="Path 83903" d="M287.536,171.5c-.213.946-.4,2.9-.842,3.206-8.088,5.587-55.781,26.719-55.781,26.719L110.27,200.167l-.723-2.91c16.52.213,87.6.371,121.436,1.162Z" transform="translate(-40.695 -63.709)" fill="#221f1f"/>
        <path id="Path_83904" data-name="Path 83904" d="M284.212,171.6l-54.1,25.769-14.971-.283-15.185-.194-30.363-.276-61.852-.43,1.169,4.688,92.034.962,22.84.239,5.707.057h.873a1.119,1.119,0,0,0,.333-.12l.207-.086.327-.151,1.3-.578,2.609-1.162,10.411-4.7q10.37-4.714,20.741-9.617c3.442-1.641,6.876-3.287,10.283-5.028,1.71-.842,3.4-1.741,5.1-2.627l2.514-1.4c.421-.22.836-.5,1.257-.755l.628-.39.308-.194a1.571,1.571,0,0,0,.471-.43,1.421,1.421,0,0,0,.2-.339c.038-.086.063-.163.095-.245a3.569,3.569,0,0,0,.107-.415,5.454,5.454,0,0,0,.1-.688,4.869,4.869,0,0,0,0-1.032c-.076-.54-.239-.829-.459-.88s-.5.172-.748.673a6.344,6.344,0,0,0-.371.924l-.182.565-.095.27-.044.107-.936.584c-.4.239-.774.5-1.194.717l-2.508,1.433c-1.685.873-3.35,1.766-5.06,2.6-3.387,1.71-6.819,3.356-10.251,4.99q-10.3,4.9-20.7,9.6l-10.4,4.7-2.609,1.162-1.3.578-.447.2h-.553l-5.707-.057-22.84-.239-90.664-.946L110,198.034l59.577.4,30.357.27,15.172.2,15.386.283,54.486-25.977c3.011-1.427,2.244-3.035-.767-1.6" transform="translate(-40.023 -63.539)" fill="#232020"/>
        <path id="Path_83905" data-name="Path 83905" d="M303.47,199.969,359.3,173.753c.628-.289-.371-2.457-1.006-2.143l-55.825,26.221c-.509.232.5,2.382,1.006,2.137" transform="translate(-112.309 -63.738)" fill="#232020"/>
        <path id="Path_83906" data-name="Path 83906" d="M150.7,193.761a18.9,18.9,0,0,1-4.1-.628c-1.3-.308-2.564-.628-3.828-1.025l-7.494-2.25c-.911-.264-1.822-.5-2.727-.717-.447-.1-.9-.2-1.339-.27a4.851,4.851,0,0,0-1.194-.095,7.7,7.7,0,0,0-2.151.628c-.748.308-1.5.628-2.244,1.018l-4.507,2.225a79.148,79.148,0,0,1-9.365,3.878,63.8,63.8,0,0,1-8.7,2.282,51.3,51.3,0,0,1-5.707.761,31.389,31.389,0,0,1-5.751-.044c-1.194-.113-1.006-.421,0-.736.5-.163,1.213-.314,2.065-.5a25.055,25.055,0,0,1,2.9-.333,56.592,56.592,0,0,0,11.219-1.885,72.931,72.931,0,0,0,10.8-3.935c2.118-.936,4.211-2.043,6.361-3.142a28.268,28.268,0,0,1,3.387-1.508,6.332,6.332,0,0,1,2.018-.377,11.746,11.746,0,0,1,1.923.276c2.627.6,5.116,1.408,7.637,2.162s5.028,1.521,7.542,2.086a21.946,21.946,0,0,0,2.323.4,7.561,7.561,0,0,0,1.118.057,1.175,1.175,0,0,0,.66-.163.415.415,0,0,0,.1-.534,1.3,1.3,0,0,0-.182-.283,4.023,4.023,0,0,0-.371-.384,12.7,12.7,0,0,0-1.822-1.433,50.98,50.98,0,0,0-6.348-3.488,66.68,66.68,0,0,0-6.725-2.759,26.381,26.381,0,0,0-2.659-.78,6.539,6.539,0,0,0-1.257-.194,8.2,8.2,0,0,0-1.345.076,31.922,31.922,0,0,0-5.386.981l-2.363.629c-2.986.78-4.016.836-4.745.516a2.867,2.867,0,0,1-.478-.226c-.339-.308.836-.748,2.973-1.358a47.538,47.538,0,0,1,10.169-2.237,5.043,5.043,0,0,0,.688-.032h.339a3.461,3.461,0,0,1,.43,0,9.474,9.474,0,0,1,1.463.251c.905.22,1.766.49,2.621.78,1.7.578,3.362,1.257,5.028,1.949a65.391,65.391,0,0,1,7.171,3.6,19.89,19.89,0,0,1,3.4,2.451,4.865,4.865,0,0,1,.867,1.044,2.6,2.6,0,0,1,.358.854,2.107,2.107,0,0,1,0,.886,2.043,2.043,0,0,1-1.181,1.257,4.027,4.027,0,0,1-.842.226l-.377.044h-.305Z" transform="translate(-33.72 -67.023)" fill="#221f1f"/>
        <path id="Path_83907" data-name="Path 83907" d="M179.255,183.828c.044,0,.063-.057.038-.132a3.714,3.714,0,0,0-.521-.918l-.157-.182a.955.955,0,0,0-.194-.194l-.484-.43c-.321-.283-.7-.559-1.05-.836-1.463-1.094-3-2.13-4.57-3.142-1.15-.717-2.332-1.383-3.5-2.065-2.055-1.2-4.142-2.37-6.281-3.425a44.547,44.547,0,0,0-6.555-2.721c-.5-.12-1.006-.3-1.5-.365a10.747,10.747,0,0,0-1.515-.151,23.221,23.221,0,0,0-3.142.132c-2.64.289-5.223,1.175-7.957,1.533-.854.1-.8-.226-.172-.717a9.027,9.027,0,0,1,3.331-1.565,32.345,32.345,0,0,1,4.2-.829,24.454,24.454,0,0,1,4.343-.114l1.15.163a7.6,7.6,0,0,1,1.088.258,17.973,17.973,0,0,1,2.065.628,40.485,40.485,0,0,1,3.922,1.71c3.035,1.5,6.172,3.067,9.145,4.818,1.622.981,3.243,1.967,4.818,3.042.4.258.786.534,1.175.811s.78.547,1.156.848.767.584,1.137.924a5.824,5.824,0,0,1,1.075,1.169,6.107,6.107,0,0,1,.453.86l.107.27.082.321a1.731,1.731,0,0,1,0,.628,1.445,1.445,0,0,1-.767.987,3.405,3.405,0,0,1-1.056.344,8.023,8.023,0,0,1-3.7-.377,42.407,42.407,0,0,1-4.978-1.936c-1.609-.717-3.2-1.451-4.8-2.13a48.283,48.283,0,0,0-7.542-2.558c-.559-.132-1.112-.232-1.678-.333-1.044-.188-1.729-.276-2.206-.384a2.03,2.03,0,0,1-1-.471,2.072,2.072,0,0,1-.314-.3c-.239-.321.688-.71,2.394-.628a27.544,27.544,0,0,1,7.36,1.716c2.388.86,4.72,1.885,7.033,2.935,1.71.755,3.419,1.527,5.129,2.13a14.732,14.732,0,0,0,2.514.673,4.616,4.616,0,0,0,1.125.038,3.218,3.218,0,0,0,.547-.095l.145-.044Z" transform="translate(-52.46 -62.281)" fill="#221f1f"/>
        <path id="Path_83908" data-name="Path 83908" d="M68.014,217.847c.946-.628,1.886-1.257,2.828-1.885.339-.232.628-.509.987-.742,1.194-.823,2.4-1.641,3.528-2.552.509-.4.962-.854,1.433-1.257a16.806,16.806,0,0,1,1.785-1.691c.207-.151.409.069.484.43a1.578,1.578,0,0,1-.27,1.257,18.081,18.081,0,0,1-1.778,1.885,19.218,19.218,0,0,1-2.065,1.571c-.867.572-1.653,1.314-2.514,1.93s-1.885,1.32-2.847,1.967l-1.759,1.188c-.88.628-1.778,1.194-2.627,1.829-.629.5-1.257,1.069-1.841,1.609-.132.12-.264.232-.409.344-.534.39-.78.43-1.131.207-.076-.05-.163-.095-.232-.151-.232-.188-.172-.553.145-.955a10.055,10.055,0,0,1,1.6-1.628c.584-.5,1.194-.974,1.822-1.427.93-.673,1.885-1.307,2.828-1.961Z" transform="translate(-22.825 -77.89)" fill="#221f1f"/>
        <path id="Path_83909" data-name="Path 83909" d="M48.528,218.844c-.509-.5-.993-1.037-1.463-1.571s-.946-1.075-1.4-1.622c-.339-.4-.7-.774-1.012-1.188a50.244,50.244,0,0,1-3.079-4.551l-1.291-2.065a7.6,7.6,0,0,1-1.307-2.879c-.05-.339.327-.4.792-.289a2.03,2.03,0,0,1,1.3.848c.873,1.753,1.923,3.5,2.948,5.3a23.676,23.676,0,0,0,2.269,3.029c.43.54.892,1.063,1.339,1.6l1.4,1.549c.628.6,1.188,1.257,1.841,1.8a25.391,25.391,0,0,0,3.042,2.432,13.251,13.251,0,0,0,1.257.755l1.326.628a5.992,5.992,0,0,0,.628.239c.729.321.905.534.886,1.025a2.838,2.838,0,0,1,0,.327c-.063.352-.49.465-1.1.283a13.4,13.4,0,0,1-2.64-1.119c-.43-.239-.829-.509-1.257-.774a12.788,12.788,0,0,1-1.194-.854,21.164,21.164,0,0,1-1.691-1.389l-.817-.723-.78-.761Z" transform="translate(-14.476 -76.016)" fill="#221f1f"/>
        <path id="Path_83910" data-name="Path 83910" d="M49.318,171.7a152.524,152.524,0,0,1,22.042-10c.7-.239,1.389-.5,2.086-.736l2.111-.673c1.4-.478,2.828-.848,4.255-1.219a67.568,67.568,0,0,1,15.468-2.187c.628,0,1.291-.05,1.974,0s1.339.107,1.993.2a29.636,29.636,0,0,1,3.866.854,54.147,54.147,0,0,1,7.341,2.734,99.226,99.226,0,0,1,12.1,6.625,59.469,59.469,0,0,1,7.158,5.2,10.856,10.856,0,0,1,.823.8c.05.057.163.172.258.289l.258.339a1.928,1.928,0,0,1,.321.71.552.552,0,0,1-.239.628l-.3.22a.977.977,0,0,1-.344.194l-.409.151-.2.076a.2.2,0,0,0-.157.044,5.935,5.935,0,0,1-.628.107,8.839,8.839,0,0,1-4.494-.911c-.842-.358-1.15-.528-1.1-.628s.528-.145,1.307,0a16.331,16.331,0,0,0,3.042.339,4.72,4.72,0,0,0,.886-.1,3.229,3.229,0,0,0,.44-.12l.22-.069c.063,0,0,0,.044-.032s0-.038,0-.05l-.082-.086a32.813,32.813,0,0,0-3.306-2.746c-1.181-.873-2.394-1.71-3.621-2.514q-3.7-2.42-7.6-4.532a75.909,75.909,0,0,0-8-3.771,35.476,35.476,0,0,0-8.415-2.338,14.822,14.822,0,0,0-2.6-.107l-2.69.076c-.9.069-1.8.172-2.7.258-.447.05-.9.082-1.352.145l-1.345.22a81.634,81.634,0,0,0-10.684,2.457,109.725,109.725,0,0,0-11.313,4.06c-3.7,1.549-7.354,3.256-10.942,5.091q-6.62,3.4-12.972,7.288c-3.218,1.942-6.373,4-9.5,6.084s-6.241,4.262-9.22,6.48C18.422,194,14,197.587,9.6,201.239l-2.879,2.438c-3.608,3.048-4.818,3.958-5.883,4.268a4.4,4.4,0,0,1-.71.194c-.559,0,.71-1.421,3.294-3.771a262.882,262.882,0,0,1,25.191-19.842q5-3.469,10.176-6.711t10.528-6.195Z" transform="translate(0 -58.271)" fill="#221f1f"/>
        <path id="Path_83911" data-name="Path 83911" d="M31.766,224.06c-2.514,1.886-5.028,3.859-7.637,5.738-1.3.936-2.615,1.885-4,2.74a23.623,23.623,0,0,1-2.2,1.257,8.7,8.7,0,0,1-1.32.54,3.651,3.651,0,0,1-.962.172,2.213,2.213,0,0,1-.78-.1,2.263,2.263,0,0,1-.5-.239,2.145,2.145,0,0,1-.453-.44,2.06,2.06,0,0,1-.377-.93v-.641a4.388,4.388,0,0,1,.245-.955,4.148,4.148,0,0,1,.409-.78l.239-.339c.082-.107.163-.194.251-.3a10.424,10.424,0,0,1,2.124-1.747c.723-.471,1.445-.873,2.151-1.257s1.421-.748,2-1.112a68.865,68.865,0,0,0,7.542-5.412,12.065,12.065,0,0,0,2.086-2.313l.194-.3.139-.3a2.589,2.589,0,0,0,.2-.553v-.069h.263a.946.946,0,0,0,.188,0h.2a.422.422,0,0,0,.126,0,1.159,1.159,0,0,0,.2-.038s.086-.05.057,0a.225.225,0,0,0-.038.069.3.3,0,0,0,0,.076v.139a.557.557,0,0,0,0,.145v.172a1.863,1.863,0,0,0,.05.421h-.086a2.545,2.545,0,0,0-.283.113,22.772,22.772,0,0,0-2.8,1.628c-.946.628-1.885,1.257-2.828,1.93-2.323,1.622-4.625,3.3-6.951,4.965l-2.137,1.59c-.993.7-1.986,1.383-2.925,1.974a9.428,9.428,0,0,1-2.376,1.175,4.811,4.811,0,0,1-1.463.145,1.372,1.372,0,0,1-.339-.082,1.582,1.582,0,0,1-.43-.321,1.884,1.884,0,0,1-.534-.936,2.781,2.781,0,0,1,.245-1.678,6.9,6.9,0,0,1,1.063-1.691,16.363,16.363,0,0,1,1.979-1.979c.39-.344.8-.688,1.257-1.018l.629-.5.54-.415,1.628-1.181c1.088-.779,2.187-1.533,3.281-2.282,2.187-1.5,4.4-2.961,6.449-4.56a14.364,14.364,0,0,0,1.408-1.213,2.558,2.558,0,0,0,.258-.289.962.962,0,0,0,.086-.113v-.032a1.6,1.6,0,0,1,.157.069.861.861,0,0,0,.447.069l-.207.107s.069-.057.038,0,0,0,0,.05a.39.39,0,0,0-.05.151.937.937,0,0,0-.038.264,2.088,2.088,0,0,0-.628.172c-.258.113-.534.239-.81.39-.547.289-1.1.629-1.641.974-1.489.962-2.948,2.024-4.4,3.092s-2.925,2.137-4.362,3.237-2.91,2.175-4.4,3.218c-.748.521-1.5,1.037-2.282,1.527a18.081,18.081,0,0,1-2.519,1.359,5.441,5.441,0,0,1-.981.321,2.979,2.979,0,0,1-.628.069,1.692,1.692,0,0,1-.86-.245,1.436,1.436,0,0,1-.213-.172l-.1-.1a1.262,1.262,0,0,1-.194-.352,1.146,1.146,0,0,1,.076-.817,2.4,2.4,0,0,1,.358-.553,7.32,7.32,0,0,1,.628-.71c.873-.848,1.766-1.59,2.667-2.338,1.785-1.489,3.545-2.992,5.38-4.4l5.449-4.255c.9-.723,1.816-1.415,2.721-2.111s1.791-1.427,2.69-2.13c1.119-.873,1.628-1.257,1.71-1.094s-.264.767-.974,1.807a37.372,37.372,0,0,1-3.288,3.958,54.522,54.522,0,0,1-5.374,4.852c-.924.736-1.835,1.483-2.765,2.2l-2.813,2.113c-.936.7-1.822,1.458-2.684,2.206-.421.371-.842.755-1.188,1.118a2.823,2.823,0,0,0-.232.258l-.086.1-.095-.063-.3-.163c-.107-.057-.151-.095-.239-.132a1.563,1.563,0,0,0-.239-.1c-.082,0-.113-.05-.172-.069a.364.364,0,0,0-.258,0l.327-.27a.984.984,0,0,0,.126-.447,3.324,3.324,0,0,0,0-.559h.044l.213-.057a5.975,5.975,0,0,0,.628-.264,15.032,15.032,0,0,0,1.4-.774c.946-.578,1.885-1.257,2.839-1.886,1.885-1.345,3.771-2.765,5.656-4.174s3.771-2.86,5.751-4.23a36.791,36.791,0,0,1,3.142-1.973,10.057,10.057,0,0,1,1.911-.9l.327-.082a3.994,3.994,0,0,1,.4-.063,2.344,2.344,0,0,1,1.257.182,1.893,1.893,0,0,1,.736.578,1.834,1.834,0,0,1,.264.43,1.886,1.886,0,0,1,.151.628,2.108,2.108,0,0,1-.038.5,2.271,2.271,0,0,1-.327.8,5.43,5.43,0,0,1-.8.97c-.258.239-.5.459-.755.66-.49.409-.981.786-1.477,1.137l-2.98,2.037c-1.967,1.339-3.935,2.646-5.864,4l-1.257.873-.628.447-.283.207-.082.063a8.451,8.451,0,0,0-.723.553,3.688,3.688,0,0,0-.679.717.631.631,0,0,0-.132.471.258.258,0,0,0,.293.216.235.235,0,0,0,.071-.022,10.053,10.053,0,0,0,1.477-.918l3.771-2.715c1.508-1.106,3.029-2.219,4.56-3.306s3.086-2.168,4.758-3.142c.358-.207.729-.415,1.125-.628.2-.1.409-.194.629-.283a3.815,3.815,0,0,1,.848-.232,1.7,1.7,0,0,1,.842.076,1.283,1.283,0,0,1,.308.157,1.525,1.525,0,0,1,.314.289,1.235,1.235,0,0,1,.188.327c0,.063.05.12.069.172a1.156,1.156,0,0,1,0,.132,1.608,1.608,0,0,1,0,.447,1.153,1.153,0,0,1-.044.289l-.107.377a3,3,0,0,1-.27.71,6.769,6.769,0,0,1-.327.628,15.831,15.831,0,0,1-3.507,3.771,47.131,47.131,0,0,1-3.947,2.9l-1.974,1.358-.993.629a10.081,10.081,0,0,1-1.1.628,30.061,30.061,0,0,0-3.966,2.376,4.054,4.054,0,0,0-1.257,1.383c-.069.114-.05.213-.095.314s0,.086,0,.069a1.1,1.1,0,0,0-.2.038h-.126l-.12.05a.1.1,0,0,0-.057,0c-.082.063,0,0,0-.076a.624.624,0,0,0,.063-.251.947.947,0,0,0,0-.188,1.515,1.515,0,0,0,.308-.057A10.146,10.146,0,0,0,17.76,231c.66-.384,1.32-.8,1.974-1.257,1.307-.867,2.6-1.8,3.878-2.74,1.571-1.162,3.143-2.357,4.7-3.545s3.143-2.4,4.777-3.551c.207-.145.421-.289.628-.43a4.242,4.242,0,0,1,.384-.213,2.085,2.085,0,0,1,.516-.2A2.9,2.9,0,0,1,35.718,219a1.4,1.4,0,0,1,.842.459,1.338,1.338,0,0,1,.409.924,2.186,2.186,0,0,1-.339,1.169,4.27,4.27,0,0,1-.565.742,11.953,11.953,0,0,1-1.257,1.044c-1.6,1.213-3.2,2.332-4.8,3.476-2.426,1.729-4.865,3.442-7.227,5.223q-.886.672-1.735,1.358c-.276.232-.547.465-.8.7-.12.113-.245.239-.333.339l-.095.12-.157-.076a1.317,1.317,0,0,0-.258-.107c-.1,0-.107-.038-.172,0l.628-.086h-.076a.46.46,0,0,1-.107.038.741.741,0,0,0-.126.069.762.762,0,0,0,.05-.132.681.681,0,0,1,0-.114v-.07h.172a4.43,4.43,0,0,0,.854-.358,18.84,18.84,0,0,0,1.816-1.131c2.4-1.678,4.7-3.577,7.04-5.42,1.162-.924,2.338-1.841,3.545-2.734.629-.447,1.219-.88,1.885-1.3.321-.2.629-.409,1.006-.628a5.485,5.485,0,0,1,1.213-.49,1.928,1.928,0,0,1,.755,0,1.2,1.2,0,0,1,.842.7,1.4,1.4,0,0,1,.069.886,2.744,2.744,0,0,1-.22.584,7.8,7.8,0,0,1-1.15,1.54c-.817.873-1.678,1.653-2.514,2.413-1.735,1.521-3.507,2.954-5.248,4.4a62.128,62.128,0,0,0-4.978,4.444,5.507,5.507,0,0,0-.854,1.113.467.467,0,0,1-.032.076,1.686,1.686,0,0,0-.245-.05c-.308-.044-.384.076-.276,0a.369.369,0,0,0,.086-.114c.044-.082-.415.66-.22.344v-.069a.845.845,0,0,0,0-.264,1.941,1.941,0,0,0-.063-.365v-.051h.044l.113-.057a9.13,9.13,0,0,0,1.257-.829c.43-.327.867-.673,1.291-1.032,1.508-1.257,2.935-2.581,4.4-3.929,5.512-5.028,7.485-6.505,9.246-6.913.384-.082.946-.232,1.144-.076.044,0,0,.107,0,.044h0a.172.172,0,0,0,0,.044.38.38,0,0,1,0,.114.6.6,0,0,0,0,.107v.05a11.01,11.01,0,0,1-.892.936c-.924.93-2.426,2.419-4.4,4.292L30.9,234.47c-1.527,1.4-3.048,2.8-4.783,4.142a13.263,13.263,0,0,1-1.5.993,4.541,4.541,0,0,1-.521.245l-.163.063-.207.063H23.46a1.893,1.893,0,0,1-.358,0,1.843,1.843,0,0,1-.534-.1,2,2,0,0,1-.314-.145l-.172-.114a2.253,2.253,0,0,1-.289-.264,2.15,2.15,0,0,1-.264-.365,2.092,2.092,0,0,1-.194-1.458,3.773,3.773,0,0,1,.584-1.257c.2-.289.4-.521.591-.755.4-.453.792-.848,1.194-1.257,1.6-1.515,3.237-2.847,4.878-4.2s3.288-2.667,4.852-4.044c.774-.679,1.54-1.377,2.193-2.074a6.26,6.26,0,0,0,.761-.955c.038-.057.057-.1.05-.1a2.205,2.205,0,0,0,.308.1,1.93,1.93,0,0,0,.251.076,1.636,1.636,0,0,0,.421.05c.188,0,.226-.069.151,0l.126-.12a.505.505,0,0,0-.038.082v.163a1.833,1.833,0,0,0,0,.22,3.764,3.764,0,0,0,.057.628l.038.172a1.05,1.05,0,0,0-.172.069c-.151.063-.344.163-.54.27-.4.226-.81.5-1.257.78-.836.572-1.678,1.2-2.514,1.848-1.672,1.291-3.337,2.646-5.028,3.984-1.257,1-2.514,1.993-3.884,2.954a23.982,23.982,0,0,1-2.168,1.4,7.912,7.912,0,0,1-1.383.628,3.307,3.307,0,0,1-1.213.194,2.3,2.3,0,0,1-1.137-.358,2.1,2.1,0,0,1-.547-.509,2.188,2.188,0,0,1-.308-.565,2.558,2.558,0,0,1-.126-.478v-.225a2.286,2.286,0,0,1,0-.415,2.038,2.038,0,0,1,.132-.44,2.641,2.641,0,0,1,.409-.628,5.961,5.961,0,0,1,.559-.628,10.992,10.992,0,0,1,.993-.873c.628-.54,1.291-1.037,1.942-1.533,1.3-.981,2.609-1.923,3.916-2.86,2.6-1.885,5.26-3.7,7.756-5.581.308-.232.628-.472.867-.688l.163-.145.107-.113a1.51,1.51,0,0,0,.172-.232v-.05l.132.05.182.063.188.044.151.038h.471c.107-.038.057-.038,0,.032a.582.582,0,0,0-.086.188,1.084,1.084,0,0,0-.082.321c0,.095-.044.289-.044.43v.182h-.145l-.194.114-.44.289c-.308.207-.629.43-.936.66l-1.877,1.412Z" transform="translate(-1.53 -77.53)" fill="#221f1f"/>
        <path id="Path_83912" data-name="Path 83912" d="M240.687,90.822a8.489,8.489,0,0,0-.578-3.954,10.1,10.1,0,0,0-2.175-3.343,11.378,11.378,0,0,0-7.084-3.269,10.437,10.437,0,0,0-3.941.43,10.858,10.858,0,0,0-3.539,1.785,9.365,9.365,0,0,0-2.581,3.048,9.711,9.711,0,0,0-1.069,3.84,10.564,10.564,0,0,0,2.338,7.442,9.872,9.872,0,0,0,3.086,2.514,10.693,10.693,0,0,0,3.8,1.131,11.207,11.207,0,0,0,3.954-.251,10.052,10.052,0,0,0,3.577-1.741,10.8,10.8,0,0,0,4.085-6.643c.139-.742-1.063-.842-1.162-.213a9.643,9.643,0,0,1-3.633,5.914,8.916,8.916,0,0,1-3.142,1.54,9.787,9.787,0,0,1-3.532.213,8.963,8.963,0,0,1-6.1-3.212,9.425,9.425,0,0,1-2.065-6.606,8.527,8.527,0,0,1,.936-3.381,8.062,8.062,0,0,1,2.256-2.659,9.9,9.9,0,0,1,6.662-1.974,10.193,10.193,0,0,1,6.317,2.942,8.1,8.1,0,0,1,2.413,6.367c-.032.484,1.144.688,1.181.082" transform="translate(-81.612 -29.801)" fill="#232020"/>
        <path id="Path_83913" data-name="Path 83913" d="M247.768,41.079a8.449,8.449,0,0,0-.578-3.958,10.06,10.06,0,0,0-2.175-3.337,11.364,11.364,0,0,0-7.077-3.275,10.529,10.529,0,0,0-3.941.43,10.942,10.942,0,0,0-3.545,1.778,9.36,9.36,0,0,0-2.581,3.054,9.8,9.8,0,0,0-1.075,3.84,10.6,10.6,0,0,0,2.338,7.423,10.059,10.059,0,0,0,3.086,2.514,10.582,10.582,0,0,0,3.809,1.125,11.046,11.046,0,0,0,3.954-.245,10.131,10.131,0,0,0,3.577-1.741,10.841,10.841,0,0,0,4.085-6.65c.132-.736-1.063-.842-1.162-.213a9.649,9.649,0,0,1-3.639,5.92,9.034,9.034,0,0,1-3.143,1.533,9.808,9.808,0,0,1-3.528.27,8.964,8.964,0,0,1-6.1-3.212A9.428,9.428,0,0,1,228,39.729a8.532,8.532,0,0,1,.946-3.375,8.218,8.218,0,0,1,2.25-2.667,9.953,9.953,0,0,1,6.669-1.967,10.165,10.165,0,0,1,6.329,2.925,8.064,8.064,0,0,1,2.413,6.367c-.044.465,1.131.66,1.162.063" transform="translate(-84.243 -11.321)" fill="#232020"/>
        <path id="Path_83914" data-name="Path 83914" d="M313.579,48.291l7.133.27,1.188-5.116.258-1.131V42.09H322.1l-1.822-.057-17.53-.7c-2.59-.1-5.2-.163-7.768-.213-3.312-.063-6.631-.057-9.931-.3-2.065-.151.553-1.37,4.368-1.257,6.757.172,13.513.415,20.32.792,2.037.113,4.117.182,6.2.245l6.474.194h.93a1.825,1.825,0,0,1,.43.032l-.1.459-.371,1.622-.493,2.188-1.1,4.808-5.241-.182-8.459-.3c-4.268-.139-8.554-.3-12.8-.4-3.294-.076-6.524-.069-9.78-.1h-3.558c.1-.44.188-.842.27-1.219s.145-.591.2-.848c.1-.371.188-.673.276-.924a2.617,2.617,0,0,1,.565-1.006,2.208,2.208,0,0,1,.321-.321c.163-.095.245.139.239.629a8.492,8.492,0,0,1-.069.936,5.43,5.43,0,0,1-.082.629l-.1.628V47.7h3.356l4.262.044c2.86.05,5.765.12,8.668.194l13.766.43Z" transform="translate(-104.713 -14.698)" fill="#221f1f"/>
        <path id="Path_83915" data-name="Path 83915" d="M303.888,102.945l7.134.276,1.188-5.116.258-1.131.032-.151v-.069h-.051l-1.822-.057-17.53-.7c-2.6-.095-5.2-.157-7.775-.207-3.306-.063-6.625-.063-9.931-.3-2.065-.151.553-1.37,4.368-1.257,6.757.163,13.513.415,20.326.792,2.03.113,4.11.182,6.2.245l6.468.194h.93a1.764,1.764,0,0,1,.43.038l-.1.459-.365,1.622-.5,2.181-1.1,4.808-5.242-.182-8.45-.293c-4.274-.139-8.56-.3-12.8-.4-3.294-.076-6.53-.069-9.786-.1h-3.558c.1-.44.188-.848.276-1.219s.139-.591.2-.848a8.929,8.929,0,0,1,.276-.924,2.512,2.512,0,0,1,.565-1.006,1.911,1.911,0,0,1,.321-.321c.157-.095.239.139.232.628a8.485,8.485,0,0,1-.069.936l-.082.628-.095.628v.264h3.348l4.262.044c2.866.044,5.765.12,8.674.194l13.766.43Z" transform="translate(-101.125 -35.004)" fill="#221f1f"/>
        <path id="Path_83916" data-name="Path 83916" d="M213.582,199.558l-5.028,2-.628.251a.753.753,0,0,0-.43.43.774.774,0,0,0,0,.628.741.741,0,0,0,.453.415.794.794,0,0,0,.276.038h14.695a2.079,2.079,0,0,0,.415,0,2.342,2.342,0,0,0,.384-.157l.308-.139,1.257-.572,2.514-1.131.628-.283.314-.145a.788.788,0,0,0,.4-.344.63.63,0,0,0-.4-.924,1.353,1.353,0,0,0-.157-.038h-3.343l-10.88-.057a.358.358,0,0,0-.095.711.345.345,0,0,0,.095,0l10.735.05h3.275l-1,.453-2.419,1.094-1.2.547-.3.139-.239.107h-14.1a3.843,3.843,0,0,1-.93-.038c0-.05,0-.063.038-.082l.628-.251,5.028-2c.157-.063.314-.836-.276-.688" transform="translate(-77.057 -74.119)" fill="#232020"/>
        <path id="Path_83917" data-name="Path 83917" d="M222.157,179.649c1.59-.139,3.231-.032,4.827-.044l-.107-.39a15.739,15.739,0,0,1-1.942.93c-.44.188.12.032-.069.038a5.554,5.554,0,0,1-.559,0c-1.339,0-2.684-.038-4.022.05l.207.39c.628-.333,1.257-.748,1.886-1.025.521-.22.05-.54-.333-.377-.717.308-1.389.755-2.074,1.119-.327.182-.044.409.213.39,1.463-.095,3.011.139,4.463,0a7.366,7.366,0,0,0,2.753-1.194c.22-.145.172-.4-.107-.4-1.666,0-3.375-.095-5.028.05-.421-.006-.673.5-.107.459" transform="translate(-81.66 -66.536)" fill="#221f1f"/>
        <path id="Path_83918" data-name="Path 83918" d="M239.24,179.615h4.946l-.082-.321-1.753.918c-.157.082-.88.565-.3.245.371-.207.113-.05-.264-.076-1.32-.095-2.659-.069-3.984-.107v.314l1.967-1.1c.578-.327-.327-.333-.591-.182l-1.967,1.1c-.151.086-.339.308,0,.321,1.458.038,2.954.188,4.4.12a8.444,8.444,0,0,0,3.111-1.358c.289-.151.22-.321-.086-.321h-4.946c-.333-.013-1.106.447-.447.447" transform="translate(-88.05 -66.558)" fill="#221f1f"/>
        <path id="Path_83919" data-name="Path 83919" d="M255.579,179.587h4.959V179.3l-1.735.918c-.139.069-.93.509-.3.239.459-.188.044-.05-.264-.076-1.32-.095-2.659-.069-3.978-.107l-.032.289,1.967-1.106c.578-.321-.339-.289-.584-.151l-1.986,1.112c-.145.082-.344.276,0,.289,1.458.038,2.961.194,4.4.12a8.359,8.359,0,0,0,3.111-1.364c.145-.076.344-.283.032-.283H256.22c-.22,0-1.131.409-.641.409" transform="translate(-94.146 -66.562)" fill="#221f1f"/>
        <path id="Path_83920" data-name="Path 83920" d="M271.986,179.583h4.946l-.086-.314-1.747.946c-.157.076-.892.553-.3.239.384-.2.107-.044-.264-.076-1.32-.086-2.659-.069-3.984-.107v.314l1.967-1.1c.584-.327-.327-.327-.584-.182l-1.974,1.106c-.145.082-.339.3,0,.308,1.463.044,2.961.194,4.4.12,1.106-.05,2.151-.854,3.142-1.352.289-.151.22-.314-.082-.314h-4.946c-.365-.006-1.15.415-.484.415" transform="translate(-100.214 -66.559)" fill="#221f1f"/>
        <path id="Path_83921" data-name="Path 83921" d="M288.866,179.6h4.946l-.086-.321-1.753.946c-.132.076-.829.344-.4.258s-.258-.057-.365-.063c-1.326-.095-2.659-.076-3.984-.107l.086.314,1.967-1.1c.478-.27-.251-.344-.5-.207l-1.967,1.1c-.239.132-.172.314.086.321,1.439.038,2.925.207,4.368.12a8.495,8.495,0,0,0,2.961-1.333c.239-.126.172-.321-.086-.321h-4.915c-.314-.025-.905.39-.358.39" transform="translate(-106.491 -66.572)" fill="#221f1f"/>
        <path id="Path_83922" data-name="Path 83922" d="M305.938,179.63h3.9a5.064,5.064,0,0,0,.873,0c.239-.05.27-.194-.038-.132a5.991,5.991,0,0,0-1.936,1.006c-.283.264.578.05.251-.05a4.074,4.074,0,0,0-.918,0l-2.47-.063a6.753,6.753,0,0,0-.8,0c-.283,0-.113.151.139.05a13.751,13.751,0,0,0,1.7-.946c.415-.232-.584-.12-.767,0l-1.967,1.106c-.164.086-.132.194.057.2,1.458.044,2.961.207,4.4.12a8.474,8.474,0,0,0,3.105-1.358c.145-.076.352-.258.044-.258h-4.927c-.207-.069-1.131.327-.654.327" transform="translate(-112.86 -66.606)" fill="#221f1f"/>
        <path id="Path_83923" data-name="Path 83923" d="M324.085,179.629h4.946v-.44l-1.754.911c-.107.057-.767.365-.447.276s-.3,0-.415-.038c-1.32-.063-2.653-.069-3.978-.107l.1.39,1.974-1.106c.478-.264-.232-.43-.521-.276l-1.967,1.106c-.239.132-.157.377.107.39,1.42.038,2.879.172,4.3.114a8.021,8.021,0,0,0,2.935-1.257c.226-.12.365-.43,0-.43h-4.946c-.358-.025-.886.471-.333.471" transform="translate(-119.574 -66.555)" fill="#221f1f"/>
        <path id="Path_83924" data-name="Path 83924" d="M210.294,189.924h4.946v-.43l-1.753.905c-.107.057-.767.365-.447.283s-.3-.032-.415-.038c-1.32-.069-2.653-.076-3.978-.113l.1.384,1.967-1.1c.484-.27-.232-.43-.516-.27l-1.967,1.1c-.239.139-.157.371.1.384,1.427.038,2.879.172,4.3.113a8,8,0,0,0,2.925-1.257c.226-.114.371-.43,0-.43h-4.946c-.339-.025-.867.465-.327.465" transform="translate(-77.302 -70.38)" fill="#221f1f"/>
        <path id="Path_83925" data-name="Path 83925" d="M227.48,189.905h4.946l-.086-.339-1.759.911c-.163.082-.886.344-.358.239s-.182-.063-.314-.076c-1.32-.1-2.667-.069-3.984-.107l.086.339,1.974-1.106c.578-.327-.327-.352-.6-.2l-1.967,1.1c-.289.163-.22.333.086.339,1.439.038,2.925.2,4.368.12a8.387,8.387,0,0,0,3.048-1.358c.3-.151.22-.339-.086-.339H227.89c-.308,0-1.081.478-.409.478" transform="translate(-83.671 -70.369)" fill="#221f1f"/>
        <path id="Path_83926" data-name="Path 83926" d="M244.059,189.92H249v-.453l-1.753.905c-.107.057-.767.365-.447.283s-.289-.032-.415-.038c-1.32-.069-2.653-.076-3.978-.113l.107.409,1.967-1.1c.484-.27-.22-.465-.521-.3l-1.967,1.1c-.245.139-.157.4.107.409,1.427.038,2.879.172,4.3.114a7.969,7.969,0,0,0,2.935-1.257c.226-.126.365-.459,0-.459h-4.946c-.371-.019-.886.5-.333.5" transform="translate(-89.842 -70.369)" fill="#221f1f"/>
        <path id="Path_83927" data-name="Path 83927" d="M260.329,189.917h4.946v-.478l-1.753.9c-.1.057-.767.365-.447.283s-.289-.032-.409-.038c-1.326-.069-2.659-.076-3.984-.107v.478l1.967-1.106c.49-.27.044-.628-.344-.415l-1.967,1.1c-.226.132-.358.471,0,.478,1.427.038,2.879.172,4.3.12a7.921,7.921,0,0,0,2.935-1.257c.232-.12.358-.478,0-.478h-4.94c-.358-.025-.867.516-.3.516" transform="translate(-95.886 -70.349)" fill="#221f1f"/>
        <path id="Path_83928" data-name="Path 83928" d="M277,189.909h4.946l-.1-.358-1.747.911c-.163.082-.886.344-.358.239s-.188-.063-.321-.076c-1.32-.095-2.659-.069-3.978-.107l.095.358,1.967-1.1c.584-.327-.314-.384-.628-.226l-1.974,1.106c-.289.157-.213.352.1.358,1.439.038,2.925.194,4.368.12,1.069-.057,2.111-.873,3.048-1.358.3-.151.213-.358-.095-.358h-4.946c-.3,0-1.05.49-.377.49" transform="translate(-102.054 -70.366)" fill="#221f1f"/>
        <path id="Path_83929" data-name="Path 83929" d="M294.185,189.9h4.946l.032-.289-1.753.905c-.139.076-.93.516-.3.245.453-.194.05-.057-.264-.076-1.32-.095-2.659-.076-3.978-.107l-.031.289,1.967-1.106c.578-.321-.339-.289-.584-.151l-1.967,1.1c-.151.082-.344.283-.032.289,1.458.044,2.961.2,4.4.126a8.458,8.458,0,0,0,3.111-1.364c.145-.076.339-.289.032-.289h-4.946c-.207,0-1.118.43-.629.43" transform="translate(-108.491 -70.384)" fill="#221f1f"/>
        <path id="Path_83930" data-name="Path 83930" d="M312.1,189.927H316a4.506,4.506,0,0,0,.873,0c.264-.057.245-.172-.038-.138a5.73,5.73,0,0,0-1.942,1.006c-.276.264.584.05.251-.05a4.072,4.072,0,0,0-.918,0l-2.464-.069a4.306,4.306,0,0,0-.8,0c-.283.057-.1.151.145.063a13.378,13.378,0,0,0,1.7-.955c.415-.232-.578-.132-.767,0l-1.967,1.1c-.172.095-.132.213.057.22,1.458.038,2.961.2,4.4.12a8.388,8.388,0,0,0,3.105-1.364c.151-.076.352-.264.038-.264h-4.94c-.194-.069-1.118.333-.635.333" transform="translate(-115.147 -70.428)" fill="#221f1f"/>
        <path id="Path_83931" data-name="Path 83931" d="M233.532,44.1c-2.388,4.4,4.607,1.829.365,0-.628.447-.565.829-.673,1.533" transform="translate(-86.563 -16.383)" fill="#221f1f"/>
        <path id="Path_83932" data-name="Path 83932" d="M242.182,44.624c-2.388,4.4,4.607,1.829.365,0-.629.44-.559.829-.666,1.533" transform="translate(-89.776 -16.577)" fill="#221f1f"/>
        <path id="Path_83933" data-name="Path 83933" d="M250.373,44.624c-2.382,4.4,4.613,1.829.365,0-.628.44-.559.829-.666,1.533" transform="translate(-92.821 -16.577)" fill="#221f1f"/>
        <path id="Path_83934" data-name="Path 83934" d="M226.882,93.32c-2.388,4.4,4.607,1.829.365,0-.628.447-.565.829-.673,1.533" transform="translate(-84.093 -34.667)" fill="#221f1f"/>
        <path id="Path_83935" data-name="Path 83935" d="M235.532,93.84c-2.388,4.4,4.607,1.829.365,0-.628.44-.559.829-.666,1.533" transform="translate(-87.306 -34.86)" fill="#221f1f"/>
        <path id="Path_83936" data-name="Path 83936" d="M243.723,93.84c-2.382,4.4,4.613,1.829.365,0-.628.44-.559.829-.666,1.533" transform="translate(-90.35 -34.86)" fill="#221f1f"/>
        <path id="Path_83937" data-name="Path 83937" d="M420.485,160.374c2.409.22,4.818.4,7.221.509.88.044,1.753.038,2.634.086,3.092.172,6.184.365,9.283.5,1.37.057,2.753.082,4.117.12,1.747.032,3.507.082,5.254.182.547,0,.472.069,0,.145s-1.314.2-2.323.27c-3.577.2-7.146.371-10.748.314-2.156-.044-4.4.069-6.606.095H417.562c-2.256-.032-4.526-.163-6.769-.213-1.747-.044-3.457,0-5.179-.12-.377,0-.748-.044-1.131-.082a10.307,10.307,0,0,1-2.175-.39l-.2-.057a6.023,6.023,0,0,1,1.483-.321,72.921,72.921,0,0,1,9.6-1.213,55.362,55.362,0,0,1,7.284.12Z" transform="translate(-149.376 -59.485)" fill="#221f1f"/>
        <path id="Path_83938" data-name="Path 83938" d="M75.187,164.64c-1.678-.207-3.362-.371-5.028-.471-.629-.044-1.225-.032-1.841-.082-2.162-.163-4.324-.339-6.48-.453-.962-.05-1.923-.076-2.879-.1-1.219,0-2.451-.069-3.67-.157-.384-.032-.333-.076,0-.145a13.286,13.286,0,0,1,1.615-.283,73.01,73.01,0,0,1,7.542-.358c1.5,0,3.073-.095,4.613-.126l5.076-.044h3.143c1.578,0,3.142.139,4.732.182,1.219.032,2.409,0,3.614.095a4.9,4.9,0,0,1,.792.082,5.125,5.125,0,0,1,1.521.377l.139.05c.095.032-.308.132-1.032.327-1.075.27-2.181.565-3.3.786a30.972,30.972,0,0,1-3.4.471,27,27,0,0,1-5.085-.086Z" transform="translate(-20.439 -60.336)" fill="#221f1f"/>
        <path id="Path_83939" data-name="Path 83939" d="M293.864,63.374q3.614.178,7.221.274c.88.023,1.753.02,2.634.047,3.092.095,6.184.2,9.283.268,1.37.031,2.753.044,4.117.065,1.747.017,3.507.045,5.254.1.546,0,.472.037,0,.078s-1.314.108-2.323.145c-3.577.108-7.146.2-10.748.172-2.156-.024-4.4.037-6.606.051H290.943c-2.256-.017-4.526-.086-6.769-.115-1.747-.024-3.457,0-5.179-.065-.377,0-.748-.023-1.131-.044a18.412,18.412,0,0,1-2.175-.21l-.2-.031a10.64,10.64,0,0,1,1.483-.172c3.169-.332,6.375-.552,9.6-.654,2.428-.065,4.861-.043,7.284.065Z" transform="translate(-102.339 -23.494)" fill="#221f1f"/>
        <path id="Path_83940" data-name="Path 83940" d="M292.533,78.67q3.614.179,7.221.275c.88.023,1.754.02,2.634.047,3.092.095,6.184.2,9.283.268,1.37.031,2.753.044,4.117.065,1.747.016,3.507.045,5.254.1.547,0,.471.037,0,.078s-1.314.108-2.323.145c-3.577.108-7.146.2-10.748.172-2.156-.024-4.4.037-6.606.051H289.612c-2.256-.017-4.526-.086-6.769-.115-1.747-.023-3.457,0-5.179-.065-.377,0-.748-.024-1.131-.044a18.411,18.411,0,0,1-2.175-.21l-.2-.032a10.645,10.645,0,0,1,1.483-.172c3.169-.332,6.375-.552,9.6-.654,2.428-.065,4.861-.043,7.284.065Z" transform="translate(-101.844 -29.176)" fill="#221f1f"/>
        <path id="Path_83941" data-name="Path 83941" d="M285.218,118.908q3.614.178,7.221.274c.88.023,1.753.02,2.634.047,3.092.095,6.185.2,9.284.268,1.371.031,2.753.044,4.117.065,1.747.017,3.507.045,5.254.1.547,0,.471.037,0,.078s-1.314.108-2.323.145c-3.577.108-7.146.2-10.748.172-2.156-.024-4.4.038-6.606.051H282.292c-2.256-.017-4.526-.086-6.769-.115-1.747-.024-3.457,0-5.179-.065-.377,0-.748-.023-1.131-.044a18.411,18.411,0,0,1-2.175-.21l-.2-.031a10.642,10.642,0,0,1,1.483-.172c3.169-.332,6.375-.552,9.6-.654,2.428-.065,4.861-.043,7.284.065Z" transform="translate(-99.126 -44.124)" fill="#221f1f"/>
        <path id="Path_83942" data-name="Path 83942" d="M249.861,133.691q5.815.164,11.63.253c1.417.022,2.824.019,4.241.044,4.98.086,9.96.181,14.95.247,2.207.028,4.434.04,6.63.059,2.813.015,5.648.04,8.462.091.88,0,.759.034,0,.071s-2.116.1-3.745.134c-5.759.1-11.508.185-17.309.157-3.472-.022-7.085.034-10.638.046H245.153c-3.633-.015-7.288-.081-10.9-.106-2.813-.022-5.567,0-8.341-.059-.607,0-1.2-.022-1.821-.041-1.186-.026-2.361-.09-3.5-.194l-.324-.028c.774-.086,1.574-.138,2.389-.16,5.1-.307,10.266-.508,15.456-.6,3.91-.06,7.83-.04,11.731.059Z" transform="translate(-81.824 -49.619)" fill="#221f1f"/>
      </g>
    </g>
  </g>
</svg>
