<svg xmlns="http://www.w3.org/2000/svg" xmlns:xlink="http://www.w3.org/1999/xlink" width="859" height="673" viewBox="0 0 859 673">
  <defs>
    <clipPath id="clip-path">
      <rect id="Rectangle_75" data-name="Rectangle 75" width="859" height="673" transform="translate(0.066 0.268)" fill="#fff"/>
    </clipPath>
  </defs>
  <g id="_10" data-name="10" transform="translate(-0.066 -0.268)" clip-path="url(#clip-path)">
    <path id="Path_395" data-name="Path 395" d="M145.347,83a2.983,2.983,0,0,0,2.6.26,8.339,8.339,0,0,1,3.64-.26,2.7,2.7,0,0,1,2.077,1.561v1.3a19.7,19.7,0,0,1-1.039,2.861c-.26.52-.521.781-.781,1.3s-.518.78-.778,1.3l-.26.52-.26.26-.26-.26c-.26-.52-.778-.78-1.039-1.3-.521-.78-1.039-1.3-1.3-1.821a5,5,0,0,1-1.042-3.122c-.778-1.041-.778-2.081-1.56-2.6-.518-.52-1.56-.52-2.859.52a7.129,7.129,0,0,0-2.08,6.5,10.592,10.592,0,0,0,1.3,4.683,7.862,7.862,0,0,1,1.039,2.081l.26.52.521.781a6.8,6.8,0,0,0,1.3,1.561,7.8,7.8,0,0,0,7.277,2.862,8.843,8.843,0,0,0,3.9-1.821c.518-.52,1.3-1.041,1.82-1.561l.778-.78.521-.521a14.652,14.652,0,0,0,1.56-2.081c.521-.78.778-1.561,1.3-2.341a18.7,18.7,0,0,0,1.82-6.5,12.216,12.216,0,0,0-1.82-7.284,9.968,9.968,0,0,0-10.917-3.9,8.908,8.908,0,0,0-5.2,4.162C144.569,81.434,144.829,82.475,145.347,83Z" transform="translate(279.669 150.102)" fill="#1b1b1b"/>
    <path id="Path_396" data-name="Path 396" d="M92.637,102.983a2.979,2.979,0,0,0,2.6.26,8.339,8.339,0,0,1,3.639-.26,2.7,2.7,0,0,1,2.08,1.561v1.3a19.736,19.736,0,0,1-1.04,2.862c-.26.52-.52.781-.78,1.3s-.52.778-.78,1.3l-.26.521-.26.26-.26-.26c-.26-.521-.78-.781-1.04-1.3-.52-.778-1.04-1.3-1.3-1.82a5,5,0,0,1-1.04-3.122c-.78-1.041-1.04-2.081-1.56-2.6s-1.56-.52-2.859.52a7.122,7.122,0,0,0-2.08,6.5A10.6,10.6,0,0,0,89,114.69a7.783,7.783,0,0,1,1.04,2.08l.26.521.52.781a6.886,6.886,0,0,0,1.3,1.56,7.8,7.8,0,0,0,7.279,2.862,8.854,8.854,0,0,0,3.9-1.82c.52-.521,1.3-1.042,1.82-1.563l.78-.778.52-.521a14.57,14.57,0,0,0,1.56-2.08c.52-.781.78-1.563,1.3-2.344a18.66,18.66,0,0,0,1.82-6.5,12.215,12.215,0,0,0-1.82-7.284,9.969,9.969,0,0,0-10.918-3.9,8.9,8.9,0,0,0-5.2,4.162C91.857,101.422,91.857,102.463,92.637,102.983Z" transform="translate(174.591 189.948)" fill="#a8a8a8"/>
    <path id="Path_397" data-name="Path 397" d="M191.458,84.386a2.983,2.983,0,0,0,2.6.26,8.329,8.329,0,0,1,3.637-.26,2.7,2.7,0,0,1,2.08,1.561v1.3a20.034,20.034,0,0,1-1.039,2.862c-.26.52-.521.78-.781,1.3s-.518.781-.778,1.3l-.26.52-.26.26-.26-.26c-.26-.52-.778-.78-1.039-1.3-.521-.781-1.039-1.3-1.3-1.821a5,5,0,0,1-1.042-3.122c-.778-1.041-1.039-2.081-1.56-2.6s-1.56-.52-2.859.52a7.128,7.128,0,0,0-2.081,6.5,10.593,10.593,0,0,0,1.3,4.683,7.865,7.865,0,0,1,1.039,2.081l.26.52.518.78a6.9,6.9,0,0,0,1.3,1.561,7.8,7.8,0,0,0,7.277,2.861,8.839,8.839,0,0,0,3.9-1.821c.518-.52,1.3-1.041,1.82-1.561l.778-.781.521-.52a14.651,14.651,0,0,0,1.56-2.081c.518-.78.778-1.561,1.3-2.342a18.7,18.7,0,0,0,1.82-6.5A12.216,12.216,0,0,0,208.1,81a9.968,9.968,0,0,0-10.917-3.9,8.909,8.909,0,0,0-5.2,4.162C190.68,82.824,190.68,83.865,191.458,84.386Z" transform="translate(371.591 152.873)" fill="#a8a8a8"/>
    <path id="Path_398" data-name="Path 398" d="M239.262,59.533c-2.338-2.342-7.538.78-13.258,6.244-.257.26-.518.52-.778.78l-.781.781c-5.2,5.723-8.576,10.666-6.238,13.268,2.08,2.081,7.541-.78,13.258-6.244.26-.26.521-.52.778-.78l.781-.78C238.223,67.077,241.342,61.614,239.262,59.533Z" transform="translate(433.486 117.11)" fill="#a8a8a8"/>
    <path id="Path_399" data-name="Path 399" d="M125.916,103.841c-3.119-1.3-4.939-.521-6.238,1.563v.26a.253.253,0,0,1-.26.257c-.781,2.083,0,4.164,3.119,5.466a4.665,4.665,0,0,0,6.238-1.563v-.26a.255.255,0,0,1,.26-.26C129.553,107.224,128.774,105.143,125.916,103.841Z" transform="translate(237.494 205.74)" fill="#a8a8a8"/>
    <path id="Path_400" data-name="Path 400" d="M66.489,96.263c-2.339,2.341-2.339,4.423-1.04,5.983l.26.26.26.26c1.56,1.3,3.639,1.3,5.979-1.041,2.08-2.081,2.34-4.423,1.04-5.983l-.26-.26-.26-.26C71.168,93.922,68.829,93.922,66.489,96.263Z" transform="translate(128.732 188.083)" fill="#a8a8a8"/>
    <path id="Path_401" data-name="Path 401" d="M77.712,9.481c-1.56,0-2.859,1.3-3.379,3.382a15.166,15.166,0,0,0,.78,8.065l.26.78.26.78a16.892,16.892,0,0,0,5.2,6.5c1.819,1.3,3.379,1.3,4.679.26,2.339-2.081,1.04-5.984-.78-10.666l-.26-.78v-.26C82.651,13.123,80.832,9.221,77.712,9.481Z" transform="translate(147.663 18.875)" fill="#a8a8a8"/>
    <path id="Path_402" data-name="Path 402" d="M142.576,26.168c-2.338-2.341-5.457-1.3-8.058,1.041a.908.908,0,0,0-.26.521c-.26,0-.26.26-.518.26-2.341,2.861-3.38,5.723-1.042,8.065,2.08,2.081,5.2,1.3,8.058-1.041,0-.26.26-.26.26-.52.26,0,.26-.26.521-.26C143.875,31.371,144.657,28.25,142.576,26.168Z" transform="translate(261.904 49.536)" fill="#a8a8a8"/>
    <path id="Path_403" data-name="Path 403" d="M245.3,100.723c-2.338-2.342-5.2-1.561-7.538.52l-.26.26-.26.26c-2.08,2.341-2.859,5.2-.521,7.544,2.081,2.08,5.2,1.563,7.541-.521l.26-.26.257-.26C246.857,105.665,247.639,102.8,245.3,100.723Z" transform="translate(469.042 197.932)" fill="#a8a8a8"/>
    <path id="Path_404" data-name="Path 404" d="M172.485,26.934c-2.341-2.341-3.64-3.122-4.161-3.122-.26.52.521,1.561,3.119,4.162,2.081,2.081,3.64,3.122,4.161,3.122C175.6,30.576,174.822,29.275,172.485,26.934Z" transform="translate(335.457 47.47)" fill="#a8a8a8"/>
    <path id="Path_405" data-name="Path 405" d="M196.539.933c-2.341-2.341-7.02.26-11.7,4.683-.26.26-.518.52-.778.78l-.781.78c-4.418,4.683-7.017,9.105-4.679,11.707,2.08,2.081,6.759-.26,11.7-4.683.26-.26.521-.52.778-.78l.781-.78C196.279,7.7,198.88,3.014,196.539.933Z" transform="translate(354.293 0.108)" fill="#a8a8a8"/>
    <path id="Path_406" data-name="Path 406" d="M153.852,42.147c-.521-.78-5.721,2.081-14.3,8.065a155.821,155.821,0,0,0-15.339,12.227A104.058,104.058,0,0,0,107.061,82.47a56.384,56.384,0,0,0-9.1,31.738,58.381,58.381,0,0,0,13.778,35.641,63.728,63.728,0,0,0,16.117,13.788,46.566,46.566,0,0,0,21.574,6.5,39.14,39.14,0,0,0,23.137-6.5A42.381,42.381,0,0,0,187.9,144.126a38.6,38.6,0,0,0,1.82-20.292,26.839,26.839,0,0,0-4.418-10.146,21.7,21.7,0,0,0-9.358-6.764,36.364,36.364,0,0,0-25.214,1.041A51.394,51.394,0,0,0,125.776,131.9a81.066,81.066,0,0,0-3.9,10.146,82.128,82.128,0,0,0-3.122,20.552c-.257,13.268,1.563,25.495,3.38,36.681a267.87,267.87,0,0,0,7.28,30.7,243.49,243.49,0,0,0,16.635,42.145c4.939,9.364,8.319,14.048,9.1,13.788s-1.56-5.724-5.2-15.611a340.889,340.889,0,0,1-13.519-42.142,282.171,282.171,0,0,1-5.978-30.179c-1.56-10.927-2.859-22.893-2.338-35.12a73.659,73.659,0,0,1,2.859-18.211c1.82-5.983,4.418-11.707,8.579-16.389a35.907,35.907,0,0,1,15.075-11.187c5.721-2.341,12.477-2.862,17.937-.78a9.9,9.9,0,0,1,4.939,3.382,13.966,13.966,0,0,1,2.6,5.983,26.629,26.629,0,0,1-1.3,14.829,32.714,32.714,0,0,1-11.438,14.829,27.534,27.534,0,0,1-17.156,4.943,41.8,41.8,0,0,1-17.416-4.943,53.052,53.052,0,0,1-13.779-11.447,53.945,53.945,0,0,1-12.477-30.178,50.656,50.656,0,0,1,7.02-27.576A92.045,92.045,0,0,1,128.635,66.6c5.2-5.2,9.879-9.626,13.779-13.008C149.951,46.569,154.37,42.667,153.852,42.147Z" transform="translate(195.261 83.767)" fill="#1b1b1b"/>
    <path id="Path_407" data-name="Path 407" d="M338.177,172.8s36.392-14.569,56.927,1.039S296.586,228.73,231.6,231.852c70.706-21.592,100.6-33.817,100.6-33.817Z" transform="translate(461.686 332.158)" fill="#1b1b1b"/>
    <path id="Path_408" data-name="Path 408" d="M274.474,209.725c-16.374-45.007-21.574-35.38-33.794-40.065-20.535-8.064-54.847-14.045-54.847-14.045V99.16l238.632,72.583Z" transform="translate(370.458 197.674)" fill="#e2e2e2"/>
    <path id="Path_409" data-name="Path 409" d="M138.483,226.468l-10.657,3.643,3.119-127.475,230.834,60.355Z" transform="translate(254.82 204.604)" fill="#e2e2e2"/>
    <path id="Path_410" data-name="Path 410" d="M131.4,186.578c1.039,3.383,46.01-8.064,104.239-24.454,2.859-.778,5.721-1.56,8.579-2.6q4.288-1.172,8.576-2.341c58.229-16.65,102.422-30.7,101.641-34.081-.778-2.862-46.01,8.064-104.239,24.454-2.859.781-5.718,1.563-8.579,2.6q-4.288,1.167-8.576,2.341C174.809,169.41,130.359,183.716,131.4,186.578Z" transform="translate(261.905 244.493)" fill="#1b1b1b"/>
    <path id="Path_411" data-name="Path 411" d="M347.851,144c-1.56,0-2.6,16.132-3.38,43.448-.258,13.528-.518,29.917-.778,48.387,0,17.171-.26,36.422-.26,56.975-5.2,1.3-10.4,2.862-15.857,4.421q-7.018,1.953-14.036,3.9l-14.039,3.9c-47.049,13.27-88.383,24.975-118.015,34.081s-47.312,15.348-46.791,16.91,18.715-2.341,48.872-9.888,71.745-18.47,118.8-31.477q7.018-1.953,14.036-3.9l14.036-3.9c7.8-2.083,15.6-4.424,23.137-6.5,0-12.228-.26-24.193-.26-35.38-.26-10.148-.26-19.772-.521-29.139-.26-18.47-.778-34.6-1.3-48.387C350.452,160.135,349.15,144,347.851,144Z" transform="translate(268.488 287.069)" fill="#1b1b1b"/>
    <path id="Path_412" data-name="Path 412" d="M289.69,363.311c.518-1.563-18.458-8.065-50.171-17.431s-76.165-21.852-126.335-35.641c-5.2-1.3-10.138-2.6-15.077-4.164-4.939-1.3-9.878-2.6-15.077-4.161-8.318-2.08-16.117-4.421-23.915-6.5-.52-21.071-1.04-40.843-1.3-58.535-.52-18.73-1.04-35.38-1.82-49.429-1.3-27.836-2.6-44.226-4.159-44.226-1.3,0-2.339,16.389-2.6,44.226-.26,13.788-.26,30.438-.26,49.429V266.8c0,11.7.26,23.673.26,36.161,10.138,2.862,20.276,5.721,30.934,8.582,5.2,1.3,10.138,2.6,15.077,4.164,4.939,1.3,9.878,2.6,15.077,4.161,50.43,13.531,94.88,25.235,127.114,33.042S289.169,364.871,289.69,363.311Z" transform="translate(97.635 285.51)" fill="#1b1b1b"/>
    <path id="Path_413" data-name="Path 413" d="M49.938,124.547c-.52,1.56,21.316,8.585,57.449,19.251C143.52,154.2,194.209,168.252,251.4,183.86l17.159,4.685,6.5,1.82,2.859.781v.26c1.039,59.313,2.08,111.864,3.64,149.588,1.3,37.721,2.859,60.355,4.679,60.355,1.56,0,2.338-22.894,2.6-60.615s0-90.275-.778-149.588v-7.807l-16.9-4.421L254,174.236c-57.449-15.351-108.139-28.357-144.792-37.2S50.2,122.984,49.938,124.547Z" transform="translate(99.533 247.733)" fill="#1b1b1b"/>
    <path id="Path_414" data-name="Path 414" d="M490.569,162.383c.521-1.56-21.056-8.325-56.67-18.209s-85.524-22.894-141.93-37.464c-5.981-1.56-11.959-3.122-17.677-4.421l-.781-.26-17.677,4.682c-56.409,14.83-106.059,28.357-141.672,38.5s-56.929,16.91-56.409,18.73c.52,1.563,22.355-3.119,58.228-11.7s85.784-21.335,142.193-35.9l15.336-3.9c5.2,1.3,10.657,2.6,15.857,4.164,56.409,14.306,106.58,26.534,142.451,34.6C468.214,159.521,490.309,163.942,490.569,162.383Z" transform="translate(115.113 203.392)" fill="#1b1b1b"/>
    <path id="Path_415" data-name="Path 415" d="M252.687,159.085c.26,1.3,13-1.042,35.1-5.984s53.287-12.749,90.721-22.113l.521-.26h.26v33.82c0,15.087,0,30.959-.26,47.088v62.7a5.711,5.711,0,0,1-.26,2.081,21.907,21.907,0,0,1-1.039,3.9,11.785,11.785,0,0,1-5.2,5.984,11.194,11.194,0,0,1-1.82,1.039l-.26.26h-.26l-1.3.26c-1.82.521-3.38,1.042-5.2,1.563-3.38,1.039-6.756,1.82-10.136,2.862q-10.139,2.73-19.5,5.463c-25.475,7.283-48.09,13.528-66.809,19.251-37.691,11.187-60.307,18.47-60.046,20.29.518,1.563,23.655-3.64,61.866-13.267,18.976-4.682,41.852-10.666,67.327-17.428,6.5-1.563,13-3.383,19.5-5.206,3.38-.778,6.759-1.82,10.139-2.6a38.388,38.388,0,0,1,5.2-1.3l1.3-.26a5.861,5.861,0,0,1,1.039-.26l.781-.26q1.558-.781,3.119-1.56a24.591,24.591,0,0,0,9.1-10.148,29.3,29.3,0,0,0,2.08-6.762,14.824,14.824,0,0,0,.26-3.383v-62.7c0-16.392,0-32-.26-47.088,0-7.547,0-15.09-.26-22.113V132.288a13.732,13.732,0,0,0-.521-4.161,8.494,8.494,0,0,0-2.859-3.9,9.335,9.335,0,0,0-9.358-1.3l.521-.26c-37.173,10.145-68.108,18.73-89.942,25.235S252.429,158.043,252.687,159.085Z" transform="translate(413.042 243.632)" fill="#1b1b1b"/>
    <path id="Path_416" data-name="Path 416" d="M466.78,169.659c1.042-3.383-60.567-22.894-140.892-47.088-4.158-1.3-8.059-2.341-11.959-3.643s-8.058-2.341-11.956-3.64c-10.657-3.122-20.8-5.984-30.674-8.846-10.4-2.862-20.017-5.724-29.375-8.325-6.756,2.081-13,4.162-19.236,5.984-5.718,1.82-11.178,3.64-16.117,5.2-10.136,3.383-18.976,6.244-26.253,8.846-14.557,4.942-22.616,8.585-22.355,9.624s9.1-.521,23.915-4.161c7.538-1.823,16.374-4.164,26.774-6.765,9.879-2.6,21.056-5.724,33.273-9.106,8.319,2.6,17.416,5.466,26.777,8.325,9.876,2.862,20.015,5.984,30.414,9.106,4.158,1.3,8.058,2.341,11.956,3.643s8.058,2.341,11.959,3.643C403.615,155.871,466,172.52,466.78,169.659Z" transform="translate(314.886 195.595)" fill="#1b1b1b"/>
    <path id="Path_417" data-name="Path 417" d="M131.227,219.879c3.38,0,4.939-23.415,5.718-53.853v-9.364c0-30.438-1.039-53.853-4.418-54.113-3.119,0-4.939,23.415-5.46,53.853v9.364C126.805,196.464,128.107,219.879,131.227,219.879Z" transform="translate(253.239 204.43)" fill="#1b1b1b"/>
    <path id="Path_418" data-name="Path 418" d="M189.207,154.4c3.38,0,4.682-10.926,4.939-25.235V125c-.257-14.309-1.56-25.235-4.939-25.235-3.119,0-4.679,10.926-4.936,25.235v4.161C184.528,143.473,186.088,154.4,189.207,154.4Z" transform="translate(367.342 198.887)" fill="#1b1b1b"/>
    <path id="Path_419" data-name="Path 419" d="M129.823,191.462c0,.518,1.3,1.039,3.64,2.08a41.025,41.025,0,0,1,9.358,6.244,44.9,44.9,0,0,1,10.139,14.306,83.82,83.82,0,0,1,3.9,10.669c.521,1.82,1.042,3.9,1.56,5.981.781,3.383,1.82,7.026,2.6,10.669,14.557-4.164,31.453-9.106,49.65-14.309,16.9-4.945,35.093-10.408,54.329-16.129q6.628-1.953,13.258-3.9t13.255-3.9c22.1-6.762,43.151-13.267,61.869-19.251q14.037-4.293,26.513-8.585c2.081-.778,4.161-1.3,5.981-2.081,1.817-.521,3.377-1.039,5.2-1.56.781-.26,1.82-.521,2.6-.781l.518-.26c.26,0,.26,0,0-.26v-.26l-.257-1.3a38.112,38.112,0,0,1-1.3-5.2c-.257-1.042-.778-2.344-1.039-3.383a44.6,44.6,0,0,0-1.82-5.463c-2.6-7.286-5.457-13.528-9.358-18.473a38.3,38.3,0,0,0-11.7-10.405,25.893,25.893,0,0,0-9.358-3.122c-2.338-.26-3.38,0-3.38.521-.26,1.042,4.418,1.563,10.4,6.244a41.638,41.638,0,0,1,9.358,10.405,63.926,63.926,0,0,1,7.277,17.431,33.548,33.548,0,0,1,1.3,5.463l.257,1.3.26.521v1.042c.26.26-.26.26-.518.26h-.781a56.34,56.34,0,0,0-6.238,1.82c-8.319,2.341-17.416,4.942-26.774,7.8-18.979,5.463-40.035,11.708-62.13,18.473-4.418,1.3-8.837,2.6-13.255,4.161q-6.632,1.953-13.258,3.9c-19.236,5.984-37.434,11.7-54.071,16.65-8.316,2.6-16.374,5.2-23.915,7.544-3.9,1.3-7.538,2.341-10.917,3.643a30.276,30.276,0,0,0-5.2,1.82c-.518.26-.778.26-1.3.521l-.26-.781c-.26-.26-.26-.521-.518-1.82a59.174,59.174,0,0,0-2.08-6.244,90.18,90.18,0,0,0-4.939-11.187,44.359,44.359,0,0,0-12.737-15.087A26.612,26.612,0,0,0,134.5,191.98C131.383,190.68,130.083,191.2,129.823,191.462Z" transform="translate(258.801 244.555)" fill="#1b1b1b"/>
    <path id="Path_420" data-name="Path 420" d="M303.874,188.52c0-.521-1.56-.781-4.418-.26a26.637,26.637,0,0,0-11.438,5.2,44.8,44.8,0,0,0-13,15.09,111.136,111.136,0,0,0-4.939,11.187c-.778,2.081-1.3,4.161-2.078,6.244l-.521,1.56-.26.26-.26.521-.518-.26h-.521c-1.82-.521-3.64-1.042-5.2-1.563-3.64-1.039-7.277-2.08-11.178-3.38-7.538-2.341-15.857-4.424-24.175-7.026-16.9-4.682-35.353-9.884-54.589-15.348-4.419-1.3-8.838-2.341-13.517-3.643-4.419-1.3-8.838-2.341-13.257-3.643-22.356-6.241-43.412-11.965-62.648-16.91-9.618-2.6-18.716-4.942-27.035-7.023q-3.119-.781-6.239-1.56h-.78c-.26,0-.52,0-.52-.26a58.2,58.2,0,0,1,2.08-8.064,78.091,78.091,0,0,1,7.279-17.431,41.245,41.245,0,0,1,9.1-10.405c5.979-4.685,10.658-5.463,10.4-6.5,0-.26-1.3-.521-3.379-.26a25.914,25.914,0,0,0-9.358,3.122A38.3,38.3,0,0,0,51.2,138.57c-3.9,4.942-6.759,11.187-9.358,18.473a144.535,144.535,0,0,0-4.159,14.306l-.26,1.3v.26a.255.255,0,0,1,.26.26l.52.26c.78.257,1.819.518,2.6.778,1.82.521,3.379,1.042,5.2,1.563,2.08.521,4.159,1.3,6.239,1.82,8.318,2.341,17.417,5.2,26.775,7.8,18.976,5.463,40.032,11.447,62.388,17.692,4.419,1.3,8.838,2.341,13.257,3.643s8.838,2.341,13.258,3.64c19.5,5.2,37.953,10.148,54.849,14.83,18.455,4.682,35.354,9.106,49.911,13.007.778-3.64,1.82-7.023,2.6-10.405.521-2.08,1.039-4.164,1.56-5.984a57.106,57.106,0,0,1,3.9-10.666,43.466,43.466,0,0,1,10.136-14.569,33.79,33.79,0,0,1,9.361-6.244C302.575,189.562,304.135,189.041,303.874,188.52Z" transform="translate(74.611 249.057)" fill="#1b1b1b"/>
    <path id="Path_421" data-name="Path 421" d="M13.358,221.024c-.78-3.383-3.639-3.9-7.279-3.383-.26,0-.26,0-.52.26h-.52C1.66,218.941-.68,221.024.1,224.146s3.639,3.9,7.279,3.38c.26,0,.26,0,.52-.26h.52C11.8,226.227,14.138,223.886,13.358,221.024Z" transform="translate(-0.1 433.52)" fill="#1b1b1b"/>
    <path id="Path_422" data-name="Path 422" d="M84,192.551c.26-1.042-4.939-3.122-11.958-4.945L71,187.348l-1.04-.26c-7.278-1.3-12.737-1.3-13-.26,0,1.039,5.459,1.82,12.218,3.38l1.04.26,1.04.26C78.542,192.03,83.74,193.59,84,192.551Z" transform="translate(113.561 370.941)" fill="#1b1b1b"/>
    <path id="Path_423" data-name="Path 423" d="M107.918,202.056c.26-.778-9.1-5.2-22.1-8.325-.78-.26-1.3-.26-2.08-.521-.52-.26-1.3-.257-2.08-.518-13.258-2.862-23.4-3.122-23.655-2.083,0,1.042,10.138,2.083,22.876,5.2.52.26,1.3.26,1.819.521s1.3.26,1.82.521C98.04,199.715,107.658,203.1,107.918,202.056Z" transform="translate(115.638 378.864)" fill="#1b1b1b"/>
    <path id="Path_424" data-name="Path 424" d="M185.475,133.458c.26-1.039-8.576-4.942-20.8-8.585-.518-.26-1.3-.26-1.82-.518s-1.3-.26-1.817-.521c-12.48-3.122-22.1-4.164-22.358-3.122s9.361,2.862,21.577,5.984c.521.26,1.3.26,1.82.521s1.3.257,1.82.518C175.857,131.118,185.214,134.24,185.475,133.458Z" transform="translate(276.454 239.86)" fill="#1b1b1b"/>
    <path id="Path_425" data-name="Path 425" d="M148.188,128.689c.518-1.042-1.3-2.083-3.38-3.383a2095.356,2095.356,0,0,0-.521-.521c-2.341-1.042-4.418-1.563-4.679-.781-.521.781,1.3,2.08,3.38,3.383a62.956,62.956,0,0,1,.518.521C145.847,129.207,147.667,129.468,148.188,128.689Z" transform="translate(278.13 246.452)" fill="#1b1b1b"/>
    <path id="Path_426" data-name="Path 426" d="M232,181.742c.778.521,4.418-5.463,8.319-13.788.258-.518.258-.778.518-1.3s.26-.781.521-1.3c3.64-8.325,5.46-15.087,4.679-15.348s-3.64,5.984-7.277,14.048c-.26.521-.26.781-.521,1.3s-.26.781-.521,1.3C233.822,174.98,230.96,181.224,232,181.742Z" transform="translate(462.063 299.018)" fill="#1b1b1b"/>
    <path id="Path_427" data-name="Path 427" d="M235.163,169.541c1.042.26,2.08-1.82,3.122-4.942,0-.26,0-.26.257-.521,0-.26,0-.26.26-.521.781-3.119,1.042-5.463.26-5.721s-2.081,1.82-3.119,4.942c0,.26,0,.26-.26.521,0,.257,0,.257-.26.518C234.385,166.94,234.124,169.281,235.163,169.541Z" transform="translate(467.478 314.602)" fill="#1b1b1b"/>
    <path id="Path_428" data-name="Path 428" d="M232.513,83.714c-3.64,15.349-15.859,28.357-28.6,32.779-12.995,4.683-27.552.26-33.273-12.747-8.319-18.991,3.64-48.128,29.375-55.152C224.455,41.829,237.453,62.121,232.513,83.714Z" transform="translate(334.957 94.231)" fill="#e2e2e2"/>
    <path id="Path_429" data-name="Path 429" d="M225.918,49.569c.26-.78-1.82-2.862-7.02-4.683a28.079,28.079,0,0,0-9.879-1.041c-1.039,0-2.077.26-3.119.26l-3.119.78c-1.039.26-2.078.52-3.38.78-1.039.52-2.078.78-3.377,1.3a56.653,56.653,0,0,0-7.02,3.382c-1.039.781-2.341,1.561-3.38,2.342a10.989,10.989,0,0,1-1.82,1.3c-.521.52-1.039,1.041-1.56,1.561a54.234,54.234,0,0,0-11.178,14.829,55.773,55.773,0,0,0-5.46,20.032c-.518,7.284.26,15.089,4.161,22.633a26.918,26.918,0,0,0,6.238,8.065,28.776,28.776,0,0,0,8.319,5.463,37.76,37.76,0,0,0,23.134,2.081,43.869,43.869,0,0,0,18.718-9.365c10.4-8.325,16.377-18.991,18.194-28.617s.26-17.69-1.817-22.373c-2.08-4.943-4.421-6.764-5.2-6.5-.781.52.26,3.122,1.039,7.8a43.128,43.128,0,0,1-1.039,19.512,44.908,44.908,0,0,1-16.9,23.153c-4.418,3.122-9.618,5.983-15.336,7.024a29.8,29.8,0,0,1-17.156-1.561,30.755,30.755,0,0,1-5.721-3.642,21.664,21.664,0,0,1-4.158-5.463c-2.862-5.2-3.64-11.447-3.119-17.43a43.694,43.694,0,0,1,4.158-16.65A45.678,45.678,0,0,1,187.706,61.8c.518-.52.778-.78,1.3-1.3l1.3-1.041a18.207,18.207,0,0,1,2.6-2.081,31.01,31.01,0,0,1,5.457-3.382,24.085,24.085,0,0,1,2.6-1.3,7.788,7.788,0,0,0,2.6-1.041,21.409,21.409,0,0,1,4.939-1.561,23.448,23.448,0,0,1,8.319-.52C223.059,49.569,225.658,50.349,225.918,49.569Z" transform="translate(329.853 87.271)" fill="#1b1b1b"/>
    <path id="Path_430" data-name="Path 430" d="M183.305,53.451c-3.38.26-3.9,8.065-4.418,17.69v3.122c0,9.626,0,17.17,3.377,17.95,3.122.52,6.241-7.024,6.759-17.69V71.4C188.763,61,186.425,53.191,183.305,53.451Z" transform="translate(356.609 106.542)" fill="#1b1b1b"/>
    <path id="Path_431" data-name="Path 431" d="M208.293,60.32c-.778-3.382-7.8-3.122-16.635-1.3-.521,0-.781.26-1.3.26s-.781.26-1.3.26c-8.576,2.342-15.075,5.2-14.3,8.585.781,3.122,7.8,3.122,16.638,1.3.521,0,.781-.26,1.3-.26s.781-.26,1.3-.26C202.576,66.564,208.814,63.442,208.293,60.32Z" transform="translate(348.256 115.022)" fill="#1b1b1b"/>
    <path id="Path_432" data-name="Path 432" d="M100.135,240.36c1.563,3.122,13.519-1.56,29.115-7.283l2.341-.781c.778-.26,1.56-.518,2.338-.778,15.6-5.724,27.815-9.888,26.777-13.27-.781-2.862-14.039-1.56-30.153,3.9l-2.341.781c-.781.26-1.56.521-2.341.778C109.5,229.955,98.577,237.5,100.135,240.36Z" transform="translate(199.324 432.133)" fill="#1b1b1b"/>
    <path id="Path_433" data-name="Path 433" d="M96.263,238.979c1.3,3.122,13.256-.781,28.6-6.5.778-.26,1.56-.518,2.338-.778l2.341-.781c15.075-5.984,26.513-11.187,25.475-14.309-1.039-2.862-13.519-.521-29.115,4.942l-2.338.781-2.341.781C105.881,229.352,95.224,236.117,96.263,238.979Z" transform="translate(191.76 429.353)" fill="#1b1b1b"/>
    <path id="Path_434" data-name="Path 434" d="M92.465,238.276c1.56,3.122,13.517-1.563,29.116-7.286.778-.26,1.56-.518,2.338-.778l2.341-.781c15.6-5.724,27.813-9.887,26.774-13.267-.781-2.862-14.036-1.563-30.153,3.9l-2.341.781-2.338.781C102.084,227.868,91.166,235.414,92.465,238.276Z" transform="translate(184.12 427.976)" fill="#1b1b1b"/>
    <path id="Path_435" data-name="Path 435" d="M88.732,236.893c1.3,3.122,13.257-.781,28.594-6.5q1.17-.386,2.34-.778l2.339-.781c15.078-5.984,26.516-11.187,25.475-14.309-1.039-2.862-13.516-.521-29.114,4.942l-2.339.781-2.34.781C98.35,227.269,87.432,234.031,88.732,236.893Z" transform="translate(176.676 425.195)" fill="#1b1b1b"/>
    <path id="Path_436" data-name="Path 436" d="M79.855,245.461c1.56,3.122,18.456-4.682,40.812-12.746,1.04-.521,2.339-.781,3.379-1.3,1.04-.26,2.339-.781,3.379-1.039,22.356-8.067,40.293-12.489,39.512-15.871-.521-2.862-19.5-1.3-42.891,6.5-1.04.521-2.34.781-3.379,1.3s-2.34.781-3.379,1.3C94.152,232.194,78.555,242.859,79.855,245.461Z" transform="translate(159.039 424.952)" fill="#1b1b1b"/>
    <path id="Path_437" data-name="Path 437" d="M75.394,234.053c.52,3.383,17.157,1.56,38.473-3.643q1.559-.391,3.119-.778l3.12-.781c20.8-5.724,36.393-12.489,35.094-15.608-1.042-2.862-17.157.778-37.693,5.981l-3.119.781-3.12.781C90.471,226.51,74.614,231.191,75.394,234.053Z" transform="translate(150.242 423.093)" fill="#1b1b1b"/>
    <path id="Path_438" data-name="Path 438" d="M70.136,233.777c1.56,3.122,15.857-2.6,34.573-8.064,1.04-.26,1.82-.518,2.86-.778s1.819-.521,2.859-.781c18.976-5.724,34.053-8.585,33.533-11.968-.26-3.122-16.377-2.862-36.133,2.341-1.04.26-2.08.521-2.859.781-1.04.26-1.82.521-2.859.781C82.353,222.59,68.836,231.175,70.136,233.777Z" transform="translate(139.643 418.945)" fill="#1b1b1b"/>
    <path id="Path_439" data-name="Path 439" d="M65.413,226.273c.78,3.383,13.777,1.3,30.414-2.862l2.339-.781a7.579,7.579,0,0,1,2.34-.521c16.377-4.682,28.854-9.364,27.814-12.486-.78-3.122-13.777-1.3-30.414,2.862q-1.17.391-2.34.778a7.577,7.577,0,0,1-2.339.521C76.85,218.208,64.633,223.15,65.413,226.273Z" transform="translate(130.329 414.744)" fill="#1b1b1b"/>
    <path id="Path_440" data-name="Path 440" d="M52.126,221.838c.78,3.383,13.777,1.3,30.414-2.862q1.17-.386,2.34-.778a7.576,7.576,0,0,1,2.339-.521c16.377-4.682,28.854-9.367,27.815-12.489-.78-3.119-13.777-1.3-30.414,2.862l-2.339.781a7.577,7.577,0,0,1-2.34.521C63.564,213.774,51.347,218.719,52.126,221.838Z" transform="translate(103.843 405.908)" fill="#1b1b1b"/>
    <path id="Path_441" data-name="Path 441" d="M46.031,228.935c.52,3.38,21.056,1.039,47.051-4.685q1.95-.391,3.9-.778l3.9-.781c25.995-5.984,45.491-12.489,44.711-15.868-.78-3.122-20.8.518-46.791,5.981l-3.9.781-3.9.781C65.267,220.61,45.511,225.812,46.031,228.935Z" transform="translate(91.742 410.002)" fill="#1b1b1b"/>
    <path id="Path_442" data-name="Path 442" d="M43.655,224.473c1.3,1.3,4.939-.521,10.918-2.6,6.239-2.08,15.337-3.9,26-5.984,1.04-.26,2.08-.26,3.119-.521s2.08-.26,3.12-.518c10.658-1.823,20.276-3.122,27.035-4.685s10.918-3.122,10.918-4.682c-.26-1.563-4.419-2.341-11.438-2.6a147.848,147.848,0,0,0-28.075,2.08c-1.04.26-2.339.26-3.379.521s-2.08.26-3.379.521a119.79,119.79,0,0,0-15.337,3.9,65.827,65.827,0,0,0-11.958,5.2C45.215,219.27,42.615,223.431,43.655,224.473Z" transform="translate(86.58 404.316)" fill="#1b1b1b"/>
    <path id="Path_443" data-name="Path 443" d="M41.676,222.384c1.56,3.122,11.958-.26,25.215-5.463.78-.26,1.3-.518,2.08-.778s1.3-.521,2.08-.781c13.258-5.463,23.135-9.887,22.1-13.267-1.04-2.862-12.218-1.042-25.735,3.9-.78.26-1.3.521-2.08.781s-1.3.521-2.08.781C49.734,213.281,40.376,219.522,41.676,222.384Z" transform="translate(82.84 400.16)" fill="#1b1b1b"/>
    <path id="Path_444" data-name="Path 444" d="M64.688,227.859c1.56,3.122,11.958-.257,25.215-5.463.78-.257,1.3-.518,2.08-.778s1.3-.521,2.08-.781c13.257-5.463,23.135-9.884,22.1-13.267-1.04-2.862-12.217-1.042-25.735,3.9-.78.26-1.3.521-2.08.781s-1.3.521-2.08.781C72.746,218.756,63.388,225,64.688,227.859Z" transform="translate(128.714 411.075)" fill="#1b1b1b"/>
    <path id="Path_445" data-name="Path 445" d="M81.882,232.207c1.56,3.122,11.958-.26,25.215-5.463.78-.26,1.3-.521,2.08-.781s1.3-.521,2.08-.781c13.257-5.463,23.135-9.884,22.1-13.267-1.04-2.862-12.218-1.042-25.735,3.9-.78.26-1.3.518-2.08.778s-1.3.521-2.08.781C89.94,223.361,80.582,229.605,81.882,232.207Z" transform="translate(162.99 419.736)" fill="#1b1b1b"/>
    <path id="Path_446" data-name="Path 446" d="M24.869,226.069c1.3,3.119,17.417-2.083,38.473-8.585,1.04-.26,2.08-.781,3.119-1.042a14.631,14.631,0,0,0,3.12-1.042c21.056-6.762,37.433-11.7,36.653-15.087-.52-3.122-17.937-1.042-39.512,5.463-1.04.26-2.08.781-3.12,1.039s-2.08.781-3.119,1.042C39.166,214.883,23.829,223.207,24.869,226.069Z" transform="translate(49.477 396.478)" fill="#1b1b1b"/>
  </g>
</svg>
