<svg xmlns="http://www.w3.org/2000/svg" xmlns:xlink="http://www.w3.org/1999/xlink" width="300" height="212" viewBox="0 0 300 212">
  <defs>
    <clipPath id="clip-path">
      <rect id="Rectangle_83" data-name="Rectangle 83" width="300" height="212" fill="#fff"/>
    </clipPath>
  </defs>
  <g id="Mask_Group_24" data-name="Mask Group 24" clip-path="url(#clip-path)">
    <g id="Notification" transform="translate(-4.063 -57.655)">
      <path id="Path_84001" data-name="Path 84001" d="M124.34,399.135s-.1,0-.074-.048a1.155,1.155,0,0,1,.079-.117,1.687,1.687,0,0,1,.248-.222,4.3,4.3,0,0,1,.6-.365,7.061,7.061,0,0,1,1.328-.5,13.688,13.688,0,0,1,2.824-.412c6.35-.365,12.7-.529,19.048-.7,5.459-.148,10.91-.2,16.36-.371,9.376-.312,18.752-.746,28.086-1.534,2.751-.238,5.508-.487,8.249-.831,2.646-.323,5.233-.735,7.812-1.224.434-.085.884-.206,1.3-.244,1.116-.111,1.476.291.725.793a1.694,1.694,0,0,1-.529.328c-2.016.408-3.55,1.259-5.72,1.545-4,.529-8,1.09-12.016,1.492-1.587.153-3.217.282-4.826.365-2.059.117-4.111.169-6.17.254-1.4.063-5.413.275-10.651.482s-11.709.418-18.043.577l-17.225.408c-4.688.117-7.852.275-8.159.291h-2.447l-.487.026h-.317Z" transform="translate(-16.846 -157.688)" fill="#221f1f"/>
      <path id="Path_84002" data-name="Path 84002" d="M123,274.88a8.307,8.307,0,0,1,3.765,1.926c3.625,2.842,7.779,5.1,11.709,7.718,3.4,2.2,6.752,4.471,10.159,6.651,5.863,3.752,11.773,7.436,17.763,10.958,1.772,1.058,3.54,2.071,5.344,3.037a50.91,50.91,0,0,0,5.238,2.466c.282.094.614.188.841.282a1.663,1.663,0,0,1,.216.117.7.7,0,0,1,.127.105.65.65,0,0,1,.153.249c.053.188,0,.371-.328.529a.826.826,0,0,1-.492.094c-.753-.206-1.445-.339-2.154-.492a8.3,8.3,0,0,1-2.117-.714c-2.646-1.4-5.339-2.751-7.937-4.236-1.058-.587-2.071-1.2-3.085-1.836-1.3-.815-2.561-1.672-3.841-2.5l-6.7-4.236c-3.294-2.079-7.342-4.667-11.287-7.222l-5.736-3.73c-1.825-1.164-3.545-2.249-5-3.244a40.851,40.851,0,0,1-4.895-3.783A14.871,14.871,0,0,1,123,274.88Z" transform="translate(-16.252 -102.283)" fill="#221f1f"/>
      <path id="Path_84003" data-name="Path 84003" d="M229.438,319.95a2.249,2.249,0,0,1,.153-2.386q1.942-3,4.075-5.857c1.233-1.635,2.556-3.2,3.9-4.762.571-.672,1.2-1.365,1.847-1.99s1.224-1.224,1.831-1.847c1.211-1.259,2.424-2.541,3.7-3.778.753-.73,1.54-1.439,2.353-2.117a22.12,22.12,0,0,1,2.476-1.889,1.841,1.841,0,0,1,.476-.264c.46-.117.735.254.619.709-.032.105-.037.254-.105.291-.666.376-.831,1.217-1.466,1.651a23.249,23.249,0,0,0-3.175,3.032c-.408.424-.825.847-1.259,1.254-.555.529-1.143,1.016-1.694,1.55-.386.355-1.412,1.445-2.836,2.824a30.222,30.222,0,0,0-2.085,2.333c-.72.874-1.455,1.81-2.174,2.741-2.884,3.7-5.492,7.408-5.64,7.6a12.414,12.414,0,0,1-1,.9Z" transform="translate(-66.243 -111.775)" fill="#221f1f"/>
      <ellipse id="Ellipse_495" data-name="Ellipse 495" cx="0.566" cy="0.836" rx="0.566" ry="0.836" transform="translate(146.147 264.864) rotate(-57.45)" fill="#221f1f"/>
      <ellipse id="Ellipse_496" data-name="Ellipse 496" cx="0.566" cy="0.836" rx="0.566" ry="0.836" transform="translate(137.182 231.724) rotate(-66.73)" fill="#221f1f"/>
      <ellipse id="Ellipse_497" data-name="Ellipse 497" cx="1.116" cy="1.645" rx="1.116" ry="1.645" transform="translate(158.375 247.782) rotate(-66.73)" fill="#221f1f"/>
      <ellipse id="Ellipse_498" data-name="Ellipse 498" cx="0.783" cy="1.153" rx="0.783" ry="1.153" transform="translate(176.532 223.707) rotate(-66.73)" fill="#221f1f"/>
      <ellipse id="Ellipse_499" data-name="Ellipse 499" cx="0.503" cy="0.746" rx="0.503" ry="0.746" transform="translate(193.665 191.978) rotate(-66.73)" fill="#221f1f"/>
      <ellipse id="Ellipse_500" data-name="Ellipse 500" cx="0.566" cy="0.836" rx="0.566" ry="0.836" transform="translate(175.095 202.823) rotate(-66.73)" fill="#221f1f"/>
      <ellipse id="Ellipse_501" data-name="Ellipse 501" cx="0.566" cy="0.836" rx="0.566" ry="0.836" transform="translate(262.205 207.162) rotate(-57.45)" fill="#221f1f"/>
      <ellipse id="Ellipse_502" data-name="Ellipse 502" cx="0.566" cy="0.836" rx="0.566" ry="0.836" transform="translate(142.67 215.319) rotate(-66.73)" fill="#221f1f"/>
      <ellipse id="Ellipse_503" data-name="Ellipse 503" cx="0.566" cy="0.836" rx="0.566" ry="0.836" transform="translate(190.9 270.27) rotate(-57.45)" fill="#221f1f"/>
      <ellipse id="Ellipse_504" data-name="Ellipse 504" cx="0.566" cy="0.836" rx="0.566" ry="0.836" transform="translate(223.987 224.008) rotate(-57.45)" fill="#221f1f"/>
      <ellipse id="Ellipse_505" data-name="Ellipse 505" cx="0.566" cy="0.836" rx="0.566" ry="0.836" transform="translate(192.105 261.746) rotate(-57.45)" fill="#221f1f"/>
      <path id="Path_84004" data-name="Path 84004" d="M205.792,137.535a2.757,2.757,0,0,1,2.053-.476,9.244,9.244,0,0,0,2.858-.032,7.625,7.625,0,0,0,2.646-.889c.153-.105.323-.2.46-.312a3.27,3.27,0,0,0,.4-.355,2.019,2.019,0,0,0,.317-.392c.042-.063.1-.153.127-.188s0,0,0-.079a5.449,5.449,0,0,0,0-1.153c-.032-.418-.085-.841-.153-1.259a13.225,13.225,0,0,0-.529-2.117,5.291,5.291,0,0,0-.941-1.73,1.016,1.016,0,0,0-.529-.339,1.424,1.424,0,0,0-.228,0l-.27-.026h-.529a11.692,11.692,0,0,0-2.154.137,9.524,9.524,0,0,0-2.424.693c-.18.079-.36.175-.529.27a2.29,2.29,0,0,0-.392.282,2.237,2.237,0,0,0-.529.761c-.048.1-.048.212-.117.291a.529.529,0,0,1-.858-.079c-.053-.074-.148-.18-.127-.249.1-.333.117-.682.212-1.058a1.694,1.694,0,0,1,.63-1.005,4.376,4.376,0,0,1,.529-.307l.476-.244c.323-.153.64-.3.973-.428a10.581,10.581,0,0,1,2.032-.608,8.283,8.283,0,0,1,1.694-.137,8.993,8.993,0,0,1,1.058.085,3.548,3.548,0,0,1,.529.079,2.926,2.926,0,0,1,.678.164,3.012,3.012,0,0,1,1.3,1.058,7.969,7.969,0,0,1,1.058,2.2,16.477,16.477,0,0,1,.64,2.889,10.911,10.911,0,0,1,.1,1.645,4.065,4.065,0,0,1-.042.476,1.587,1.587,0,0,1-.2.593,4.307,4.307,0,0,1-.529.773,6.281,6.281,0,0,1-2.889,1.752,10.649,10.649,0,0,1-2.783.45,8.936,8.936,0,0,1-2.884-.376,3.5,3.5,0,0,1-.529-.275C206.21,137.879,206.019,137.71,205.792,137.535Z" transform="translate(-54.555 -32.417)" fill="#221f1f"/>
      <path id="Path_84005" data-name="Path 84005" d="M180.826,132.777a3.821,3.821,0,0,1-2.709.529,11.7,11.7,0,0,0-2.063-.032,9.777,9.777,0,0,0-1.995.386,8.9,8.9,0,0,0-1.841.8c-.143.085-.282.169-.424.264a1.012,1.012,0,0,0-.164.121.754.754,0,0,0-.137.121,2.116,2.116,0,0,0-.418.624,6.106,6.106,0,0,0-.111,3.233,7.053,7.053,0,0,0,1.286,3.111,4.236,4.236,0,0,0,2.265,1.5,5.074,5.074,0,0,0,1.4.148,11.542,11.542,0,0,0,1.518-.153,7.962,7.962,0,0,0,2.783-.931,2.158,2.158,0,0,0,.825-.842,2.878,2.878,0,0,0,.254-1.233,7.757,7.757,0,0,0-.222-1.73l-.105-.444-.137-.5a4.334,4.334,0,0,1-.105-.434l-.053-.216c0-.069.069-.127.094-.188a2.676,2.676,0,0,1,.244-.376c.094-.117.2-.259.248-.313a4,4,0,0,1,1.921-1.259,3.932,3.932,0,0,1,2.323.105,2.218,2.218,0,0,1,.672.3c.492.4.344.8-.159.878-.117,0-.254.074-.339.032a1.869,1.869,0,0,0-.635-.175,2.37,2.37,0,0,0-.619.053,8.188,8.188,0,0,0-1.058.365,2.265,2.265,0,0,0-.884.6l-.094.111-.042.048h0l-.026.058v.058a.206.206,0,0,1,0,.058l.058.169a9.747,9.747,0,0,1,.555,3,4.33,4.33,0,0,1-.228,1.36,3.3,3.3,0,0,1-.794,1.259,4.687,4.687,0,0,1-1.45.931,9.052,9.052,0,0,1-1.492.482,14.33,14.33,0,0,1-1.883.355,11.013,11.013,0,0,1-1.534.085,6.287,6.287,0,0,1-1.894-.329,6.118,6.118,0,0,1-3.318-2.926,9.434,9.434,0,0,1-.847-2.19,10.434,10.434,0,0,1-.328-2.344,5.577,5.577,0,0,1,.44-2.447,3.6,3.6,0,0,1,.777-1.1,6.049,6.049,0,0,1,.995-.678,10.382,10.382,0,0,1,3.773-1.233,11.345,11.345,0,0,1,2.836,0c.693.094,1.111.188,1.185.206a6.173,6.173,0,0,1,.725.27Z" transform="translate(-37.986 -34.888)" fill="#221f1f"/>
      <path id="Path_84006" data-name="Path 84006" d="M204.792,147.534a2.118,2.118,0,0,0-.117-.482,4.482,4.482,0,0,0-.217-.571,10.692,10.692,0,0,0-.6-1.175c-.164-.282-.392-.529-.571-.825a35.575,35.575,0,0,0-2.117-3c-.344-.434-.714-.836-1.058-1.243a18.663,18.663,0,0,1-1.354-1.645c-.133-.18-.137-.133,0-.032s.529.216.894.408a11.021,11.021,0,0,1,3.455,2.715c.555.693,1.243,1.322,1.794,2.071a9.567,9.567,0,0,1,1.439,2.794,3.122,3.122,0,0,1-.094,2.186,2.593,2.593,0,0,1-1.159,1.175,4.111,4.111,0,0,1-1.455.418,8.052,8.052,0,0,1-2.148-.079,3.609,3.609,0,0,1-.46-.105,4.525,4.525,0,0,1-.836-.339h-.082a2.446,2.446,0,0,0,.608,0,11.9,11.9,0,0,0,1.867-.329,4.375,4.375,0,0,0,1.545-.619,1.47,1.47,0,0,0,.571-.608,1.207,1.207,0,0,0,.058-.709Z" transform="translate(-51.877 -38.052)" fill="#221f1f"/>
      <path id="Path_84007" data-name="Path 84007" d="M187.8,146.839a1.344,1.344,0,0,1-2.688.058,1.423,1.423,0,0,1,1.344-1.354C187.8,145.415,187.793,146.8,187.8,146.839Z" transform="translate(-45.498 -41.377)" fill="#221f1f"/>
      <path id="Path_84008" data-name="Path 84008" d="M210.848,141.444a1.344,1.344,0,1,1-2.688.058,1.249,1.249,0,0,1,1.238-1.265,1.265,1.265,0,0,1,1.45,1.207Z" transform="translate(-56.351 -38.876)" fill="#221f1f"/>
      <path id="Path_84009" data-name="Path 84009" d="M206.933,205.272c-3.175,2.783-7.46,3.593-10.254,3.841l-1.058-7.985a11.778,11.778,0,0,0,5.688.878,10.583,10.583,0,0,0,5.191-1.756Z" transform="translate(-50.447 -67.141)" fill="#221f1f"/>
      <path id="Path_84010" data-name="Path 84010" d="M205.848,203.737a2.259,2.259,0,0,1-1.148,2.19,17.99,17.99,0,0,1-7.513,2.646l-.482.058c-.27.032-.529.048-.809.074l-.408.037h-.2s-.085.032-.085,0v-.1l-.105-.809-.238-1.968-.386-3.3-.492-3.831c.646.259,1.37.565,1.995.783l.434.137.249.069c.169.042.333.085.529.117a10.583,10.583,0,0,0,2.048.232,11.388,11.388,0,0,0,4.053-.624,8.805,8.805,0,0,0,1.058-.46,23.808,23.808,0,0,0,2.047-1.275l.148,1.683.111,1.224.085.8.169,1.587a2.352,2.352,0,0,1,.048.529c-.063.466-.45.6-.773.291-.074-.074-.188-.148-.2-.232-.085-.831-.646-1.455-.7-2.333l-.042-.565-.026-.282v-.094c0-.069,0-.143-.058-.153l-.094.094a.26.26,0,0,1-.111.094,9.666,9.666,0,0,1-1.28.593,8.858,8.858,0,0,1-2.043.5,13.814,13.814,0,0,1-2.646.037,10.114,10.114,0,0,1-1.254-.127,12.127,12.127,0,0,1-1.265-.249l-.4-.105-.169-.053-.175-.063a1.059,1.059,0,0,0,0,.159c.026.212.053.444.085.688.1.767.216,1.625.333,2.541s.238,1.788.36,2.715c0,.037,0,.111.032.121h.137c.466-.048.941-.121,1.4-.2a18.324,18.324,0,0,0,4.646-1.429,14.783,14.783,0,0,0,1.921-1.1,4.255,4.255,0,0,1,.529-.282Z" transform="translate(-49.675 -65.946)" fill="#221f1f"/>
      <path id="Path_84011" data-name="Path 84011" d="M152.7,149.632a10.825,10.825,0,0,1-1.847-1.768c-.1-.117-.212-.228-.317-.344a2.777,2.777,0,0,1-.282-.376,7.138,7.138,0,0,1-1.148-3.111c0-.248-.048-.5-.069-.741s0-.471-.026-.709a2.974,2.974,0,0,1,.37-1.851c.127-.18.476.037.783.307s.608.571.571.82a9.982,9.982,0,0,0-.111,1.482v.7a1.941,1.941,0,0,0,.1.746,3.839,3.839,0,0,0,.127.45,3.594,3.594,0,0,0,.222.424,9,9,0,0,0,.555.8,9.378,9.378,0,0,0,1.518,1.587,5.292,5.292,0,0,0,.529.418,6.789,6.789,0,0,0,.577.376,7.584,7.584,0,0,0,1.91.841,4.926,4.926,0,0,0,.783.085,5.959,5.959,0,0,0,.761-.048c.105,0,.212-.048.317-.058.376-.058.5,0,.688.4.042.094.094.175.133.264.127.3,0,.6-.4.753a5.123,5.123,0,0,1-3.518-.2,10.947,10.947,0,0,1-2.285-1.238Z" transform="translate(-28.487 -39.085)" fill="#221f1f"/>
      <path id="Path_84012" data-name="Path 84012" d="M238.653,137.552a5.678,5.678,0,0,0,.5-2.894,3.8,3.8,0,0,0-.085-.555c-.048-.175-.094-.344-.127-.529a2.566,2.566,0,0,0-.831-1.429,2.3,2.3,0,0,0-1.661-.36,4.948,4.948,0,0,0-1.7.529c-.709.349-1.338.841-2.117,1.153-.476.2-.809-1.418.085-1.963a9.874,9.874,0,0,1,2.551-1.106,5.292,5.292,0,0,1,1.5-.18h.4a2.286,2.286,0,0,1,.408.074,3,3,0,0,1,.789.282,3.7,3.7,0,0,1,1.476,1.334,4.763,4.763,0,0,1,.672,1.683,7.53,7.53,0,0,1-.159,3.7,8.314,8.314,0,0,1-.985,2.047,9.679,9.679,0,0,1-2.344,2.434,8.753,8.753,0,0,1-2.317,1.291,3.576,3.576,0,0,1-.587.169c-.767.127-1.058-.063-1.148-.466a1.847,1.847,0,0,1-.063-.282c0-.323.264-.565.659-.659a7.461,7.461,0,0,0,1.736-.753,7.652,7.652,0,0,0,1.587-1.18,7.022,7.022,0,0,0,1.72-2.419Z" transform="translate(-67.648 -34.165)" fill="#221f1f"/>
      <path id="Path_84013" data-name="Path 84013" d="M192.278,95.137a9.469,9.469,0,0,1-5.177.455c-4.656-1.18-5.122-7.751-11.154-12.519-6.947-5.492-21.62,9.9-28.006,13.26.529,1.778,1.016,3.656,1.556,5.583-2.455-1.148-5.032-1.55-5.963.614A10.969,10.969,0,0,1,138.6,98.4a21.837,21.837,0,0,1-3.175-10.583c-1.556-23.88,23.838-18.778,23.959-18.937,6.794-8.466,40.536-20.255,42.727,9.883C202.586,85.179,198.792,93.093,192.278,95.137Z" transform="translate(-22.072 -0.787)" fill="#221f1f"/>
      <path id="Path_84014" data-name="Path 84014" d="M191.347,93.847a9.153,9.153,0,0,1-2.646,1.207,5.688,5.688,0,0,1-3.2-.032,6.461,6.461,0,0,1-2.83-1.915,18.522,18.522,0,0,1-1.942-2.7,42.959,42.959,0,0,0-2.953-4.392,10.477,10.477,0,0,0-.841-.985,12.38,12.38,0,0,0-.9-.926,11.308,11.308,0,0,0-.963-.852,5.186,5.186,0,0,0-.487-.4l-.476-.317a6.255,6.255,0,0,0-4.624-.275,19.98,19.98,0,0,0-4.725,2.032,76.555,76.555,0,0,0-8.754,6.048c-1.419,1.1-2.83,2.2-4.286,3.294q-1.058.82-2.222,1.587c-.376.259-.777.529-1.18.753v.028l1.867,6.81c-1.011-.444-2.254-1.058-3.175-1.344l-.344-.117-.2-.048a2.839,2.839,0,0,0-.355-.079,5.25,5.25,0,0,0-.682-.094,2.3,2.3,0,0,0-1.13.2,1.3,1.3,0,0,0-.386.291,14.546,14.546,0,0,0-.735,1.322c-.455-.2-.931-.4-1.386-.619-.111-.048-.244-.111-.329-.159l-.188-.1-.376-.216a10.745,10.745,0,0,1-1.4-.989,12.613,12.613,0,0,1-2.281-2.5,18.6,18.6,0,0,1-2.646-6.032,27.862,27.862,0,0,1-.841-6.445,24.167,24.167,0,0,1,.6-6.477,14.943,14.943,0,0,1,9.826-11.043,25.154,25.154,0,0,1,7.408-1.439,35.288,35.288,0,0,1,3.741,0q.926.048,1.857.143l.926.1h.2l.238-.27a4.237,4.237,0,0,1,.4-.412c.282-.259.529-.529.842-.777l.873-.714.9-.659a31.659,31.659,0,0,1,3.809-2.281,40.744,40.744,0,0,1,8.233-3.175,33.938,33.938,0,0,1,8.768-1.217,21.726,21.726,0,0,1,8.784,1.667l1.13.529,1.058.63c.175.105.36.2.529.323l.5.371c.329.254.672.487.989.761A17.155,17.155,0,0,1,197.1,63.7c.264.323.529.635.793.957l.682,1.035a23.562,23.562,0,0,1,3.276,9.138c.133.761.188,1.53.282,2.3a15.71,15.71,0,0,1,.121,2.353,17.635,17.635,0,0,1-.725,4.672,19.579,19.579,0,0,1-1.836,4.354,15.948,15.948,0,0,1-2.937,3.757,6.068,6.068,0,0,1-.608.529l-.635.529a12.905,12.905,0,0,1-1.36.862,4.58,4.58,0,0,1-2.408.659c-.291-.058,0-.4.809-.894a11.961,11.961,0,0,1,1.13-.793,12.3,12.3,0,0,0,4.33-4.651,19.045,19.045,0,0,0,1.286-2.873,23.084,23.084,0,0,0,.931-3.228,16.587,16.587,0,0,0,.376-3.228,28.3,28.3,0,0,0-.282-3.286,24.677,24.677,0,0,0-1.683-6.381,16.763,16.763,0,0,0-3.545-5.387,14.816,14.816,0,0,0-5.392-3.4,23.515,23.515,0,0,0-10.334-1.058,38.441,38.441,0,0,0-13.021,3.765l-.947.487c-.376.206-.831.476-1.412.8a18.547,18.547,0,0,0-2.021,1.36c-.408.282-.794.635-1.254.995l-.65.619a3.322,3.322,0,0,0-.328.339l-.46.529-.275.2-.069.053h0c-.069-.169-.026-.042-.042-.079h-.037l-.164.053c-.117,0-.216.094-.355.069l-.355-.042-.91-.105c-.635-.063-1.322-.121-2.063-.153a30.817,30.817,0,0,0-5,.143,21.34,21.34,0,0,0-5.762,1.4,14.7,14.7,0,0,0-2.852,1.524,14.969,14.969,0,0,0-1.322,1.021l-.608.593c-.1.1-.206.2-.3.307l-.275.329a13.2,13.2,0,0,0-1.905,2.963c-.111.282-.228.565-.344.841l-.175.424-.133.444-.27.884c-.085.3-.133.614-.2.921a26.726,26.726,0,0,0-.282,7.767,21.6,21.6,0,0,0,2.117,7.624,12.291,12.291,0,0,0,2.27,3.175,9.526,9.526,0,0,0,1.482,1.207,8.954,8.954,0,0,0,.815.487l.085.042h.048s.063.037.085.026a.8.8,0,0,1,.18-.244,2.9,2.9,0,0,1,.884-.678,3.92,3.92,0,0,1,2.016-.386,5.963,5.963,0,0,1,.937.117,4.159,4.159,0,0,1,.444.1l.188.048h.079a1.482,1.482,0,0,1,.188.063l.143.063a1.712,1.712,0,0,0-.048-.222l-.2-.72q-.365-1.318-.73-2.608c-.094-.377-.222-.761-.3-1.122l1.016-.571.137-.079.063-.037.148-.048.259-.159c.175-.105.349-.222.529-.339.693-.455,1.365-.941,2.032-1.434,2.646-1.977,5.177-4.005,7.694-5.821a50.882,50.882,0,0,1,7.556-4.7,17.552,17.552,0,0,1,3.936-1.391,8.169,8.169,0,0,1,4.059.079c.159.053.323.094.476.153l.455.216a4.827,4.827,0,0,1,.847.529,6.682,6.682,0,0,1,.7.565l.646.529c.4.4.793.767,1.148,1.159a15.173,15.173,0,0,1,.995,1.169,38.993,38.993,0,0,1,2.824,4.206,26.98,26.98,0,0,0,1.768,2.7c.244.282.434.529.582.688l.317.307a5.143,5.143,0,0,0,2.7,1.418,9.916,9.916,0,0,0,4.2-.375Z" transform="translate(-21.299)" fill="#221f1f"/>
      <path id="Path_84015" data-name="Path 84015" d="M196.05,214.374c.259,2.646.5,5.291.73,7.969s.444,5.328.5,7.937c0,.18,1.7.188,1.694,0-.058-2.747-.291-5.387-.5-8.064s-.471-5.328-.735-8A3.359,3.359,0,0,0,196.05,214.374Z" transform="translate(-50.649 -73.694)" fill="#232020"/>
      <path id="Path_84016" data-name="Path 84016" d="M215.38,208.87l.857,18.186c0,.212,1.709.133,1.688-.079l-.825-18.16a3.261,3.261,0,0,0-1.72.053Z" transform="translate(-59.752 -71.131)" fill="#232020"/>
      <path id="Path_84017" data-name="Path 84017" d="M164.245,206.388a4.18,4.18,0,0,1-1.027,1.111,3.174,3.174,0,0,1-1.058.476,39.116,39.116,0,0,0-7.248,2.858l-1.5.778-.753.386-.735.418-1.471.841-1.418.926a66.457,66.457,0,0,0-9.027,7.408c-.809.82-1.635,1.629-2.434,2.46s-1.439,1.688-2.154,2.529a2.144,2.144,0,0,1-.37.412.529.529,0,0,1-.857-.428c0-.111-.048-.259,0-.328.565-.659.582-1.587,1.211-2.249,1.13-1.27,2.275-2.551,3.418-3.821a18.915,18.915,0,0,1,1.506-1.4c.672-.565,1.338-1.122,2.047-1.645a65.677,65.677,0,0,1,10.063-6.959,38.779,38.779,0,0,1,6.725-2.963,23.527,23.527,0,0,1,3.439-.884,3.434,3.434,0,0,1,.7,0l.418.032Z" transform="translate(-21.516 -69.988)" fill="#221f1f"/>
      <path id="Path_84018" data-name="Path 84018" d="M225.4,204.819a2.439,2.439,0,0,1,2.614-.847,26.049,26.049,0,0,1,8,3.445,72.934,72.934,0,0,1,5.995,4.307c3.344,2.561,6.577,5.222,9.9,7.7.989.73,1.977,1.455,2.989,2.117s1.984,1.217,3.005,1.752a2.447,2.447,0,0,1,.529.27.529.529,0,0,1-.212.937c-.111,0-.254.094-.339.058-.82-.412-1.756-.275-2.593-.815-1.524-.989-3.1-1.915-4.582-2.942-.593-.412-1.169-.857-1.725-1.312-.709-.587-1.386-1.211-2.091-1.8-.482-.4-1.873-1.524-3.7-2.969s-4.106-3.175-6.418-4.762a37.891,37.891,0,0,0-6.556-3.651,17.627,17.627,0,0,0-3.334-1.027c-.2-.048-.4-.133-.635-.212Z" transform="translate(-64.469 -68.848)" fill="#221f1f"/>
      <path id="Path_84019" data-name="Path 84019" d="M105.821,341.61a2.154,2.154,0,0,1,1.344,1.905q.313,3.413.444,6.836c.079,1.963.037,3.932.069,5.894.053,3.381.105,6.762.105,10.143v3c0,.957.037,1.915.053,2.873a1.471,1.471,0,0,1,0,.482.529.529,0,0,1-.926.188c-.079-.069-.206-.143-.206-.222,0-.735-.6-1.334-.571-2.117.042-1.439-.105-2.884-.169-4.323-.026-.577,0-1.153,0-1.73,0-.741.105-1.476.127-2.212.032-1.011,0-5.752-.153-10.3s-.312-8.889-.317-9.117A9.626,9.626,0,0,1,105.821,341.61Z" transform="translate(-8.068 -133.704)" fill="#221f1f"/>
      <path id="Path_84020" data-name="Path 84020" d="M100.469,252.23a1.845,1.845,0,0,1,1.37,1.587c.232,1.931.428,3.868.571,5.821.121,1.667.133,3.339.232,5.01.164,2.868.36,5.736.529,8.609.053.847.094,1.694.159,2.541s.159,1.625.238,2.434a1.058,1.058,0,0,1,0,.408.577.577,0,0,1-.91.228c-.085-.053-.216-.111-.222-.169-.058-.63-.688-1.1-.709-1.762-.048-1.224-.282-2.447-.424-3.671-.053-.492-.079-.985-.094-1.476,0-.63.032-1.259,0-1.889,0-1.725-1.016-16.154-1.005-16.541A7.53,7.53,0,0,1,100.469,252.23Z" transform="translate(-5.521 -91.618)" fill="#221f1f"/>
      <path id="Path_84021" data-name="Path 84021" d="M101.84,244.779a14.684,14.684,0,0,1,6.915-1.921q12.218-.957,24.5-1.561c7.032-.349,14.075-.529,21.113-.767l36.3-1.2,10.718-.363c3.423-.137,6.841-.307,10.26-.476.571-.026,1.175-.094,1.72-.069,1.466.074,1.825.593.767,1.027a2.427,2.427,0,0,1-.777.27c-2.646.127-4.762.894-7.545.973-5.177.153-10.354.529-15.531.746-2.071.1-4.148.164-6.223.2l-7.937.094c-3.619.079-20.636.587-36.96,1.291-8.154.355-16.128.753-22.16,1.106l-10.53.646C105.174,244.837,103.893,244.785,101.84,244.779Z" transform="translate(-6.288 -85.114)" fill="#221f1f"/>
      <path id="Path_84022" data-name="Path 84022" d="M318.469,328.65a2.117,2.117,0,0,1,1.322,1.9c.18,2.254.323,4.518.413,6.777.074,1.942.042,3.889.094,5.821l.307,10.054c.032.989.048,1.977.094,2.963s.117,1.894.174,2.836a1.588,1.588,0,0,1,0,.476.529.529,0,0,1-.916.228c-.079-.069-.212-.137-.216-.212-.042-.735-.659-1.3-.659-2.079,0-1.429-.216-2.858-.323-4.286-.042-.571-.053-1.143-.048-1.72,0-.725.048-1.466.069-2.2,0-2-.571-18.825-.555-19.266a10.178,10.178,0,0,1,.249-1.291Z" transform="translate(-108.176 -127.602)" fill="#221f1f"/>
      <path id="Path_84023" data-name="Path 84023" d="M312.9,242.56c1.058.355,1.328.878,1.418,1.412.282,1.783.529,3.571.709,5.371.153,1.545.188,3.1.307,4.651l.587,7.989c.053.789.085,1.587.148,2.36s.153,1.506.228,2.259a1,1,0,0,1,0,.376.608.608,0,0,1-.916.216c-.079-.053-.212-.105-.217-.164-.053-.582-.678-1.011-.7-1.625-.037-1.143-.27-2.27-.408-3.4a11.819,11.819,0,0,1-.094-1.365c0-.587.026-1.169,0-1.752,0-.8-.282-4.54-.6-8.117s-.65-7-.666-7.175A6.533,6.533,0,0,1,312.9,242.56Z" transform="translate(-105.577 -87.064)" fill="#221f1f"/>
      <path id="Path_84024" data-name="Path 84024" d="M115.39,395.449a13.2,13.2,0,0,1,6.788-1.3q11.739,0,23.483-.529l10.1-.424c3.365-.188,6.736-.339,10.1-.582,11.578-.777,23.144-1.836,34.711-2.884l10.26-.916,9.82-.937a15,15,0,0,1,1.645-.137c1.412,0,1.783.529.783,1.058a2.079,2.079,0,0,1-.73.313c-2.535.238-4.5,1.116-7.18,1.334-4.947.386-9.883,1.027-14.815,1.55-1.977.206-3.963.376-5.947.529l-7.609.529-13.144,1.058c-6.471.5-14.466,1.058-22.308,1.429s-15.531.545-21.35.535-9.778-.111-10.166-.148C118.575,395.856,117.348,395.666,115.39,395.449Z" transform="translate(-12.668 -155.426)" fill="#221f1f"/>
      <path id="Path_84025" data-name="Path 84025" d="M107.36,253.649c2.747.72,5.206,2.455,7.583,4.236,7.89,6.037,16.107,11.641,24.51,16.932q10.853,6.842,21.948,13.36L166.163,291l2.376,1.412,1.191.709.148.085h.032v-.032l6.926-7.937q7.313-8.318,14.815-16.493,4.434-4.82,8.995-9.525c2.918-3.005,5.821-6.024,8.995-8.848.27-.238.529-.5.8-.735a9.5,9.5,0,0,1,.847-.65c1.524-1.058,2.143-.862,1.349.275a3.576,3.576,0,0,1-.6.783c-.313.254-.614.529-.894.767a9.013,9.013,0,0,0-.794.82c-.529.529-.995,1.106-1.482,1.657a41.407,41.407,0,0,1-3.133,3.471c-4.487,4.4-8.673,9.13-12.89,13.821-1.683,1.883-3.389,3.746-5.1,5.6-2.186,2.37-4.4,4.715-6.562,7.107l-4.053,4.561-3.175,3.646q-.874,1.008-1.825,2.117l-1.185,1.376-.444.529-.111.127s-.032.063-.058.042l-.074-.042-.3-.174-1.138-.678c-7.059-4.236-15.873-9.3-24.379-14.5-3.453-2.114-6.845-4.262-10.291-6.514-4.465-2.918-8.776-5.883-12.318-8.482-5.963-4.376-9.874-7.53-10.265-7.826C110.344,256.442,109.207,255.336,107.36,253.649Z" transform="translate(-8.887 -89.761)" fill="#221f1f"/>
      <path id="Path_84026" data-name="Path 84026" d="M114.72,272.655a6.408,6.408,0,0,1,4.27,1.587q5.985,4.566,12.117,8.905c3.534,2.466,7.059,4.953,10.7,7.265,6.27,3.968,12.736,7.646,19.2,11.35l5.71,3.349,5.508,3.117a6.407,6.407,0,0,1,.916.529c.709.571.619,1.129-.153,1.129a1.142,1.142,0,0,1-.529-.037c-1.419-.809-2.878-.894-4.36-1.778-2.73-1.635-5.583-3.069-8.387-4.592-1.116-.608-2.228-1.249-3.318-1.91-1.4-.841-2.767-1.73-4.158-2.582-1.9-1.164-11.027-6.4-19.339-12.127s-15.813-11.816-16.176-12.17C116.127,274.168,115.6,273.56,114.72,272.655Z" transform="translate(-12.353 -101.232)" fill="#221f1f"/>
      <path id="Path_84027" data-name="Path 84027" d="M257.986,283.26a3.207,3.207,0,0,1-1.159,2.862c-2.281,2.165-4.461,4.429-6.614,6.73-1.851,1.977-3.752,3.932-5.567,5.974-3.122,3.5-6.227,7.059-9.525,10.466q-1.468,1.5-2.963,2.973l-1.412,1.429-1.439,1.412a2.7,2.7,0,0,1-.5.46.577.577,0,0,1-.916-.593.716.716,0,0,1,.063-.386c.741-.714.889-1.762,1.683-2.492,1.466-1.354,2.757-2.894,4.09-4.382.529-.6,1.084-1.18,1.657-1.74.72-.73,1.482-1.418,2.2-2.154.487-.5,1.836-1.977,3.577-3.936s3.879-4.4,6.037-6.741,4.344-4.588,6.085-6.2,2.969-2.646,3.1-2.751A16.555,16.555,0,0,1,257.986,283.26Z" transform="translate(-65.636 -106.228)" fill="#221f1f"/>
      <path id="Path_84028" data-name="Path 84028" d="M101.84,307.31a1.788,1.788,0,0,1,.412-1.058.852.852,0,0,1,.565-.282,21.328,21.328,0,0,1,3.868-.032,11.714,11.714,0,0,1,1.677.259,8.133,8.133,0,0,1,.868.233l.111.037.164.063.355.137.323.174c.105.063.188.137.282.206a1.445,1.445,0,0,1,.529.969,1.191,1.191,0,0,1-.094.529c-.1.169-.18.344-.3.5l-.428.455a1.128,1.128,0,0,1-.248.2l-.222.148a6.828,6.828,0,0,1-.73.376,12.8,12.8,0,0,1-2.884.767c-.565.094-1.13.143-1.688.206s-1.058.137-1.625.18a.486.486,0,0,1-.275,0c-.238-.111-.282-.577-.121-.921.037-.079.079-.212.117-.212.408-.026.7-.64,1.111-.646a10.224,10.224,0,0,0,2.259-.44c.291-.069.587-.121.878-.164.377-.053.753-.079,1.116-.164a4.224,4.224,0,0,0,.63-.232,2.316,2.316,0,0,0,.412-.217.376.376,0,0,0,.111-.094.105.105,0,0,0,.026-.143.328.328,0,0,0-.143-.094h-.053l-.188-.053c-.137-.032-.27-.069-.412-.094-.282-.063-.577-.105-.868-.148a30.594,30.594,0,0,0-3.294-.216H102.5A3.4,3.4,0,0,1,101.84,307.31Z" transform="translate(-6.288 -116.872)" fill="#221f1f"/>
      <path id="Path_84029" data-name="Path 84029" d="M103.24,314.9c.434-.957.82-1.058,1.1-1.016a18.934,18.934,0,0,1,2.735.741c.761.27,1.476.65,2.222.979l.963.434a9.944,9.944,0,0,1,1.011.529l.148.094.18.159c.053.058.121.105.169.169l.121.169a2.26,2.26,0,0,1,.355.753,2.865,2.865,0,0,1,.037.307,1.529,1.529,0,0,1-.048.36,1.275,1.275,0,0,1-.349.608,2.033,2.033,0,0,1-.793.466,7.576,7.576,0,0,1-1.4.232c-.412.042-.815.1-1.217.133-.063,0-.137.042-.2,0-.169-.111-.206-.577-.085-.921,0-.079.058-.212.094-.212.3,0,.529-.624.825-.614a3.26,3.26,0,0,0,1.445-.376l.058-.042.094.127a.793.793,0,0,0,.206.228l.037.032h-.063a.712.712,0,0,0-.18,0l-.085.026-.137.026h0a1.016,1.016,0,0,0,0-.105c0-.032-.058-.117-.048-.117s0,0,0-.037-.1-.069-.18-.121c-.2-.117-.482-.265-.815-.424-.666-.312-1.53-.666-2.381-.995s-1.694-.63-2.328-.847l-1.1-.355a3.871,3.871,0,0,1-.388-.392Z" transform="translate(-6.947 -120.644)" fill="#221f1f"/>
      <path id="Path_84030" data-name="Path 84030" d="M101.216,323.066c.355-1.016.746-1.207,1.13-1.224a23.914,23.914,0,0,1,3.837.117,11.294,11.294,0,0,1,1.412.259l.18.048a1.479,1.479,0,0,1,.3.094l.608.2a5.172,5.172,0,0,1,.529.259,2.581,2.581,0,0,1,.455.291,2.308,2.308,0,0,1,.408.529,1.122,1.122,0,0,1,.032.9,1.487,1.487,0,0,1-.582.688,4,4,0,0,1-1.058.492c-.2.069-.412.117-.619.174l-.386.094a25.523,25.523,0,0,1-2.846.428c-.565.058-1.122.079-1.683.117s-1.058.094-1.677.094a.618.618,0,0,1-.323-.032c-.317-.164-.232-.63,0-.931.053-.069.105-.2.148-.188.4,0,.72-.577,1.13-.565a11.289,11.289,0,0,0,2.285-.328,7.779,7.779,0,0,1,.921-.1,11,11,0,0,0,1.18-.042,3.064,3.064,0,0,0,.428-.069l.45-.094a.856.856,0,0,0,.206-.079.077.077,0,0,0,.053-.105.212.212,0,0,0-.111-.094.735.735,0,0,0-.188-.063l-.376-.079c-.164-.037-.344-.063-.529-.094-.709-.111-1.45-.188-2.117-.244-1.344-.111-2.408-.143-2.481-.159a3.551,3.551,0,0,1-.713-.3Z" transform="translate(-5.76 -124.382)" fill="#221f1f"/>
      <path id="Path_84031" data-name="Path 84031" d="M99.871,329.792c.5-.969.857-1.138,1.254-1.13a32.456,32.456,0,0,1,3.9.212l.753.117.377.079.188.042.307.079.6.159.6.233c.094.042.206.079.282.121l.222.148c.143.1.3.188.424.3a1.79,1.79,0,0,1,.27.37l.094.188a1.144,1.144,0,0,0,.063.206,1.286,1.286,0,0,1,0,.471,1.386,1.386,0,0,1-.455.666,4.888,4.888,0,0,1-2.174.753l-.3.048h-.188l-.377.048-.735.069c-.492.042-.979.069-1.471.085h-1.736c-.582,0-1.112,0-1.73-.042a.687.687,0,0,1-.333-.058.428.428,0,0,1-.188-.44,1.106,1.106,0,0,1,.27-.492c.063-.063.127-.18.169-.175.408.058.777-.529,1.191-.471a11.2,11.2,0,0,0,2.37-.169,8.149,8.149,0,0,1,.947-.042c.408,0,.809.048,1.211.032l.386-.032h.188a.728.728,0,0,0,.212-.063.079.079,0,0,0,.058-.105.228.228,0,0,0-.117-.094,1.052,1.052,0,0,0-.2-.063l-.2-.042-.529-.094c-.746-.121-1.524-.216-2.233-.291-1.418-.143-2.566-.233-2.646-.259a3.53,3.53,0,0,1-.739-.359Z" transform="translate(-5.198 -127.606)" fill="#221f1f"/>
      <path id="Path_84032" data-name="Path 84032" d="M313.907,292.329a4.036,4.036,0,0,1-.344,1.1.884.884,0,0,1-.476.386c-1.169.428-2.353.894-3.483,1.37-.487.2-.973.4-1.429.614-.117.053-.228.105-.333.164a1.376,1.376,0,0,1-.232.121.143.143,0,0,0-.079.048c-.048.048,0,.105.063.121a1.2,1.2,0,0,0,.222.042,4.432,4.432,0,0,0,.6.053,13.31,13.31,0,0,0,2.646-.291c.529-.105,1.058-.206,1.587-.355s1-.317,1.506-.492c.085-.026.164-.094.259-.074.249.048.428.476.365.857,0,.085,0,.222-.063.233-.392.137-.555.8-.989.9-.8.188-1.587.529-2.4.753a5.292,5.292,0,0,1-1.005.164,12.61,12.61,0,0,1-1.339,0h-.862a4.37,4.37,0,0,1-.72-.094c-.1-.032-.386-.079-.577-.153a6.16,6.16,0,0,1-.577-.307,1.445,1.445,0,0,1-.741-1.021,1.54,1.54,0,0,1,.555-1.259,4.08,4.08,0,0,1,.646-.529c.153-.1.3-.188.455-.275.307-.164.608-.317.916-.455a30.16,30.16,0,0,1,4.989-1.709,3.438,3.438,0,0,1,.847.094Z" transform="translate(-102.185 -110.457)" fill="#221f1f"/>
      <path id="Path_84033" data-name="Path 84033" d="M314.012,302.126c-.105,1.058-.529,1.338-.884,1.429-1.275.291-2.535.529-3.765.793-.529.121-1.058.212-1.55.344l-.18.037h-.074a.189.189,0,0,0-.094.037c-.069.037,0,.105.037.117h.169a3.273,3.273,0,0,0,.328.048,21.465,21.465,0,0,0,2.757.143c.529,0,1.1,0,1.645-.053a9.373,9.373,0,0,0,1.482-.259c.074,0,.133-.074.2-.048s.137.169.228.323a.969.969,0,0,1,.133.529c0,.094,0,.222-.063.238-.412.127-.678.761-1.153.793-.852.053-1.683.244-2.535.307a5.975,5.975,0,0,1-1.021,0c-.434-.048-.868-.148-1.3-.216l-.831-.121a6.211,6.211,0,0,1-.973-.216,2.978,2.978,0,0,1-1.058-.529l-.188-.188a2.317,2.317,0,0,1-.148-.222,1.015,1.015,0,0,1-.127-.571,1.1,1.1,0,0,1,.2-.565,1.741,1.741,0,0,1,.428-.487,5.729,5.729,0,0,1,.65-.4c.233-.117.492-.2.741-.3a1.806,1.806,0,0,1,.3-.094l.248-.074c.164-.048.328-.085.492-.127,1.318-.317,2.582-.5,3.54-.646s1.587-.228,1.651-.228a3.766,3.766,0,0,1,.73.206Z" transform="translate(-101.968 -115.015)" fill="#221f1f"/>
      <path id="Path_84034" data-name="Path 84034" d="M315.262,312.052c-.291,1.058-.741,1.233-1.122,1.254-1.306.069-2.588.094-3.841.137l-1.915.074h-.032c-.069.026-.032.105,0,.121l.079.037.079.026.313.1a22.157,22.157,0,0,0,2.693.619c.529.094,1.084.188,1.629.232a10.171,10.171,0,0,0,1.506,0c.079,0,.148-.048.2,0a1.036,1.036,0,0,1,.169.355.963.963,0,0,1,.037.529c-.026.085-.058.216-.1.222-.428.053-.8.63-1.27.582-.852-.094-1.7-.053-2.556-.137a5.851,5.851,0,0,1-1-.188c-.424-.121-.826-.3-1.243-.44l-.434-.143-.339-.111-.206-.074c-.111-.037-.238-.094-.365-.148a3.09,3.09,0,0,1-1.412-.963,1.143,1.143,0,0,1-.233-.841,1.418,1.418,0,0,1,.529-.842l.317-.2a2.739,2.739,0,0,1,.392-.159c.137-.048.27-.105.418-.143l.45-.094.233-.042a1.43,1.43,0,0,1,.2-.032l.307-.032c.212,0,.412-.037.624-.053.831-.048,1.667-.053,2.424-.042,1.514,0,2.688.074,2.773.085a4.09,4.09,0,0,1,.7.3Z" transform="translate(-102.372 -119.602)" fill="#221f1f"/>
      <path id="Path_84035" data-name="Path 84035" d="M316.3,317.835c-.249,1.058-.476,1.27-.773,1.338-.963.233-1.936.5-2.889.753l-.529.133c-.111.032-.094,0-.1,0h-.032a.359.359,0,0,0-.18,0,.113.113,0,0,0-.105.085c-.006.048.074.042.117.048h.529a9.747,9.747,0,0,0,1.3-.058,10.61,10.61,0,0,0,1.207-.206c.069,0,.121-.063.188-.026a1.058,1.058,0,0,1,.244.894c0,.079-.026.217-.064.222-.328.074-.529.7-.9.714-.672.032-1.328.222-2,.3h-.551a6,6,0,0,1-.741-.032,6.284,6.284,0,0,1-1.55-.344,2.382,2.382,0,0,1-.64-.3,1.588,1.588,0,0,1-.333-.3,1.056,1.056,0,0,1-.137-.232.752.752,0,0,1-.058-.36,1.223,1.223,0,0,1,.238-.587c.079-.094.148-.18.238-.27l.355-.27a9.138,9.138,0,0,1,2.291-.931c.624-.18,1.058-.282,1.587-.4s.916-.188,1.3-.254a13.476,13.476,0,0,1,1.365-.188,2.647,2.647,0,0,1,.621.275Z" transform="translate(-103.507 -122.38)" fill="#221f1f"/>
      <path id="Path_84036" data-name="Path 84036" d="M157.708,400.68c1.058.094,1.291.333,1.36.6a26.754,26.754,0,0,1,.565,2.646c.127.767.143,1.545.238,2.313.169,1.322.365,2.646.529,3.953.053.392.094.783.159,1.169s.159.741.238,1.111c0,.063.063.121.026.188-.094.174-.529.275-.9.206-.079,0-.212,0-.216-.058-.058-.282-.682-.434-.709-.746a10.382,10.382,0,0,0-.418-1.667,2.937,2.937,0,0,1-.094-.678c0-.3.026-.593,0-.884-.032-.8-1.021-7.408-1.016-7.609A2.438,2.438,0,0,1,157.708,400.68Z" transform="translate(-32.482 -161.518)" fill="#221f1f"/>
      <path id="Path_84037" data-name="Path 84037" d="M273.429,393.92c1.027.3,1.233.64,1.265.985.111,1.143.188,2.291.206,3.434,0,.989-.074,1.977-.079,2.957v6.589c0,.5.058.963.094,1.439,0,.085.042.169,0,.244-.117.206-.577.254-.926.1-.074-.032-.206-.074-.206-.111,0-.37-.619-.666-.6-1.058a16.934,16.934,0,0,0-.188-2.18,5.292,5.292,0,0,1,0-.868c.026-.371.105-.741.137-1.116.079-1.011,0-9.525.026-9.768a3.177,3.177,0,0,1,.282-.646Z" transform="translate(-86.867 -158.336)" fill="#221f1f"/>
      <path id="Path_84038" data-name="Path 84038" d="M319.132,196.531a3,3,0,0,1,.741,3.577,9.355,9.355,0,0,1-15.36,3.307,9.9,9.9,0,0,1-1.677-2.238,10.258,10.258,0,0,1-.969-2.646,9.9,9.9,0,0,1,.188-4.762,9.746,9.746,0,0,1,2.455-4.075,9.524,9.524,0,0,1,4.122-2.381,9.413,9.413,0,0,1,4.762-.094,9.931,9.931,0,0,1,6.4,5.053,9.225,9.225,0,0,1,.889,2.646,3.242,3.242,0,0,1,.117.916c-.094.8-.619.931-1.058.424-.094-.111-.248-.232-.259-.355a3.519,3.519,0,0,0-.65-1.587c-.153-.232-.339-.45-.487-.682a5.287,5.287,0,0,1-.45-.73,6.806,6.806,0,0,0-2.2-2.418,7.718,7.718,0,0,0-2.989-1.2,9.653,9.653,0,0,0-2.561-.085,7.6,7.6,0,0,0-3.111.953c-.169.094-.386.27-.678.476a7.873,7.873,0,0,0-.926.894,7.334,7.334,0,0,0-1.672,3.254,7.609,7.609,0,0,0,8.609,9.26,7.091,7.091,0,0,0,2.18-.659,9.179,9.179,0,0,0,.926-.529,8.543,8.543,0,0,0,.777-.624,7.515,7.515,0,0,0,1.851-2.5,6.791,6.791,0,0,0,.46-1.254c.042-.133.094-.259.143-.392l.137-.434A7.526,7.526,0,0,0,319.132,196.531Z" transform="translate(-100.378 -60.883)" fill="#221f1f"/>
      <path id="Path_84039" data-name="Path 84039" d="M319.286,205.373v-6.965h-1.794a4.009,4.009,0,0,1-.593.482l-.148.094-.111.063-.137.069c-.174.085-.365.164-.529.232a4.879,4.879,0,0,0,.608,1.683c.249-.094.482-.188.714-.3l.212-.105h0v4.762a5.955,5.955,0,0,0,1.778-.013Z" transform="translate(-107.115 -66.275)" fill="#232020"/>
      <path id="Path_84040" data-name="Path 84040" d="M195.185,162.2a13.648,13.648,0,0,1-2.233,2.862,11.042,11.042,0,0,1-3.032,2.079,11.842,11.842,0,0,1-3.514.979,13.26,13.26,0,0,1-3.6-.037,12.7,12.7,0,0,1-4.921-1.8,20.751,20.751,0,0,1-6.132-6.556,50.382,50.382,0,0,1-3.9-7.937c-.957-2.418-1.847-4.868-2.646-7.307a96.9,96.9,0,0,1-2.8-9.493c-.45-2.006,1.683.105,2.747,3.7.953,3.207,1.931,6.392,3.042,9.525a66.557,66.557,0,0,0,3.905,9.154,23.055,23.055,0,0,0,3.429,4.9,14.361,14.361,0,0,0,4.762,3.5,12.171,12.171,0,0,0,3.085.836,13.149,13.149,0,0,0,3.222-.069,9.525,9.525,0,0,0,5.6-2.894,17.385,17.385,0,0,0,3.746-7.149,63.192,63.192,0,0,0,2-12.445c.244-3.254.376-6.482.529-9.715.037-.714.074-1.412.111-2.117.264-2.646.487-3.508.957-4.021a1.963,1.963,0,0,1,.329-.333c.344-.212.482.9.344,2.836-.121,1.423-.143,2.9-.222,4.376s-.153,2.969-.244,4.471c-.188,2.989-.376,6.074-.753,9.148a55.284,55.284,0,0,1-1.209,6.882,25.011,25.011,0,0,1-2.566,6.635Z" transform="translate(-34.777 -33.041)" fill="#221f1f"/>
      <path id="Path_84041" data-name="Path 84041" d="M205.489,172.281c-1.021-.27-5.93.793-7.159.979a4.1,4.1,0,0,0,4.461,3.244C205.1,176.144,205.187,173,205.489,172.281Z" transform="translate(-51.723 -53.952)" fill="#221f1f"/>
      <path id="Path_84042" data-name="Path 84042" d="M201.688,122.949c-.852-.825-.841-1.254-.682-1.55a7.8,7.8,0,0,1,.989-1.423,5.5,5.5,0,0,1,.64-.624,4.344,4.344,0,0,1,.72-.529c.228-.137.455-.264.688-.386a6.311,6.311,0,0,1,.746-.275,10.312,10.312,0,0,1,1.534-.333,11.3,11.3,0,0,1,5.038.682c.46.159.894.355,1.334.529a11.549,11.549,0,0,0,1.224.392.194.194,0,0,1,.18.063,1.264,1.264,0,0,1-.254,1.058c-.058.074-.137.2-.174.188-.333-.094-.841.434-1.18.275a8.588,8.588,0,0,0-1.883-.529,4.535,4.535,0,0,1-.7-.222c-.3-.133-.571-.27-.873-.377a6.6,6.6,0,0,0-1.587-.212,6.069,6.069,0,0,0-2.5.529,7.937,7.937,0,0,0-2.7,2.5,2.448,2.448,0,0,1-.565.244Z" transform="translate(-52.943 -28.308)" fill="#221f1f"/>
      <path id="Path_84043" data-name="Path 84043" d="M181.967,123.885c-.773.953-1.143,1.058-1.45.979s-.5-.153-.753-.2l-.753-.137a14.494,14.494,0,0,0-1.487-.2c-.424-.037-.841,0-1.265-.063l-.624.048a2.47,2.47,0,0,0-.624.094,8.423,8.423,0,0,0-3.831,2.117,11.058,11.058,0,0,0-.973.957c-.3.344-.529.7-.878,1.116-.042.058-.117.188-.232.222-.323.111-.64-.312-.773-.725-.032-.094-.1-.228-.079-.254.232-.248-.094-.921.18-1.191.529-.529.868-1.175,1.4-1.73a3.271,3.271,0,0,1,.7-.587,11.723,11.723,0,0,1,1.058-.529c.111-.074.344-.188.659-.349.159-.079.329-.18.529-.264l.659-.259a3.964,3.964,0,0,1,.753-.244,8.466,8.466,0,0,1,.841-.206,9.81,9.81,0,0,1,1.815-.143,11.032,11.032,0,0,1,3.217.529,6.468,6.468,0,0,1,1.005.349l.424.18a2.814,2.814,0,0,1,.476.487Z" transform="translate(-37.551 -30.455)" fill="#221f1f"/>
      <path id="Path_84044" data-name="Path 84044" d="M164.855,140.834c-.529.767-.746.862-.9.825a10.052,10.052,0,0,1-1.466-.529c-.408-.18-.767-.45-1.164-.65-.678-.344-1.37-.666-2.059-1-.2-.1-.4-.212-.6-.3s-.412-.143-.619-.212c-.032,0-.079,0-.094-.048a1.339,1.339,0,0,1,.323-.761c.042-.058.111-.153.127-.148.159.058.529-.36.659-.27a4.089,4.089,0,0,0,.957.282,1.185,1.185,0,0,1,.349.169c.137.1.259.232.4.333.377.265,3.859,1.883,3.936,1.952a1.324,1.324,0,0,1,.156.357Z" transform="translate(-32.709 -37.7)" fill="#221f1f"/>
      <path id="Path_84045" data-name="Path 84045" d="M225.554,133.221c-.529-.761-.529-.979-.482-1.058a5.855,5.855,0,0,1,.767-.884,9.571,9.571,0,0,1,.8-.593c.44-.36.868-.735,1.3-1.106.127-.111.264-.206.386-.328s.212-.249.317-.37a.052.052,0,0,1,.063-.053,1.768,1.768,0,0,1,.565.608.821.821,0,0,1,.094.164c-.085.094.188.565.074.64-.2.137-.3.4-.45.6a.646.646,0,0,1-.222.188c-.111.058-.254.085-.365.148-.307.164-2.447,2.079-2.524,2.117A1,1,0,0,1,225.554,133.221Z" transform="translate(-64.306 -33.51)" fill="#221f1f"/>
      <line id="Line_290" data-name="Line 290" x2="288.027" transform="translate(11.025 251.404)" fill="none" stroke="#000" stroke-linecap="round" stroke-width="2"/>
    </g>
  </g>
</svg>
