<svg xmlns="http://www.w3.org/2000/svg" width="17.494" height="10.262" viewBox="0 0 17.494 10.262">
  <g id="videocall-alert" transform="translate(-36.4 -24)">
    <path id="Path_84490" data-name="Path 84490" d="M34.863,32.972V41.29a.964.964,0,0,1-.972.972H23.372a.964.964,0,0,1-.972-.972V32.972A.964.964,0,0,1,23.372,32H33.891A.982.982,0,0,1,34.863,32.972Zm4.545.229a.835.835,0,0,0-.257.057l-3.63,2.087v3.573l3.63,2.115a.425.425,0,0,0,.257.057h0a.473.473,0,0,0,.343-.143.439.439,0,0,0,.143-.372V33.686A.5.5,0,0,0,39.408,33.2Z" transform="translate(14 -8)"/>
  </g>
</svg>
